<?xml version="1.0" encoding="UTF-8"?>
<svg id="Layer_2" data-name="Layer 2" xmlns="http://www.w3.org/2000/svg" width="464.16" height="509" viewBox="0 0 464.16 509">
  <g id="resize-layer">
    <g>
      <rect y="508" width="464.16" height="1" fill="#6e2a47"/>
      <path d="m0,0v1h330.23c25.25.03,81.16,0,133.93-.01v-.99H0Z" fill="#6e2a47"/>
      <path d="m330.23,1H0v26c135.37,0,317.13,0,464.16,0V.99c-52.77,0-108.68.04-133.93.01Z" fill="#611435"/>
      <path d="m0,27v.8c130.81,0,357.46,0,464.16,0v-.8c-147.03,0-328.79,0-464.16,0Z" fill="#f9f9f9"/>
      <path d="m0,51.01v.98c133.4,0,316.57,0,464.16,0v-.98c-119.47,0-339.41,0-464.16,0Z" fill="#a0a0a0"/>
      <path d="m0,76.99v2.02c134.06,0,317.08,0,464.16,0v-2.01c-147.46,0-330.18,0-464.16,0Z" fill="#a0a0a0"/>
      <path d="m464.16,27.8c-106.7,0-333.35,0-464.16,0v1.41c129.95,0,354.72,0,464.16,0v-1.41Z" fill="#f4f4f4"/>
      <path d="m0,29.21v20.78c127.77,0,255.55,0,383.32,0,9.41-.01,45.3-.03,80.84-.04v-20.75c-109.44,0-334.21,0-464.16,0Z" fill="#f0f0f0"/>
      <path d="m383.32,50c-127.77,0-255.55,0-383.32,0v1.01c124.75,0,344.69,0,464.16,0v-1.05c-35.54.01-71.43.03-80.84.04Z" fill="#f2f2f2"/>
      <path d="m0,51.99v.8c133.37.02,316.55-.05,464.16.01v-.81c-147.59,0-330.76,0-464.16,0Z" fill="#f6f6f6"/>
      <path d="m464.16,52.8c-147.61-.06-330.79,0-464.16-.01v1.45h464.16v-1.43Z" fill="#f4f4f4"/>
      <path d="m0,54.24v22.75c133.98,0,316.7,0,464.16,0v-22.75H0Z" fill="#f0f0f0"/>
      <path d="m464.16,79.01c-147.08,0-330.1,0-464.16,0v.99h464.16v-.99Z" fill="#696969"/>
      <path d="m0,414.83v1.17c137.28,0,317.58,0,464.16,0v-1.16c-106.84,0-329,0-464.16,0Z" fill="#e9e9e9"/>
      <path d="m0,398.72v1.44c142.98,0,378.74,0,464.16.01v-1.43c-98.99,0-324.79-.01-464.16-.02Z" fill="#f4f4f4"/>
      <polygon points="460.59 92.29 464.16 92.28 464.16 92.14 460.59 92.29" fill="#f0f0f0"/>
      <polygon points="451.88 387.03 464.16 387.46 464.16 387.03 451.88 387.03" fill="#f0f0f0"/>
      <path d="m464.16,400.17c-85.42,0-321.18-.01-464.16-.01v12.84h464.16v-12.83Z" fill="#f0f0f0"/>
      <path d="m0,413v1.83c135.16,0,357.32,0,464.16,0v-1.83H0Z" fill="#efefef"/>
      <polygon points="460.57 92.29 464.16 92.28 464.16 92.14 460.57 92.29" fill="#bfbfbf"/>
      <polygon points="451.88 387.03 464.16 387.46 464.16 387.03 451.88 387.03" fill="#bfbfbf"/>
      <path d="m0,416v.94c135.42,0,361.35,0,464.16,0v-.95c-146.58,0-326.88,0-464.16,0Z" fill="#f8f8f8"/>
      <path d="m464.16,416.94c-102.81,0-328.74,0-464.16,0v1.28c136.92,0,317.23,0,464.16-.03v-1.24Z" fill="#f2f2f2"/>
      <path d="m0,418.22v3.04c132.39,0,354.18,0,464.16,0v-3.08c-146.93.02-327.24.03-464.16.03Z" fill="#f0f0f0"/>
      <path d="m464.16,421.26c-109.98,0-331.77,0-464.16,0v.36h464.16v-.36Z" fill="#a0a0a0"/>
      <path d="m464.16,489.88c-148.14-.02-332.86-.02-464.16-.02v1.23h464.16v-1.21Z" fill="#f9f9f9"/>
      <rect y="421.62" width="464.16" height="1.38" fill="#696969"/>
      <path d="m464.16,488.84H0v1.02c131.3,0,316.02,0,464.16.02v-1.04Z" fill="#e5e5e5"/>
      <path d="m0,423v65.84c130.78,0,322.96,0,464.16,0v-65.84H0Z" fill="#fff"/>
      <polygon points="460.16 434.65 464.16 434.67 464.16 434.51 460.16 434.65" fill="#f0f0f0"/>
      <polygon points="460.16 434.65 464.16 434.67 464.16 434.51 460.16 434.65" fill="#bfbfbf"/>
      <path d="m464.16,505.76c-95.22,0-339.07,0-464.16,0v1.4h464.16v-1.41Z" fill="#f2f3f3"/>
      <path d="m0,491.09v1.9c131.32,0,316,0,464.16,0v-1.9H0Z" fill="#f2f3f3"/>
      <path d="m0,492.99v1c131.26,0,316.56,0,464.16.03v-1.03c-148.16,0-332.84,0-464.16,0Z" fill="#a0a0a0"/>
      <path d="m0,493.99v11.78c125.09,0,368.94,0,464.16,0v-11.74c-147.6-.03-332.9-.03-464.16-.03Z" fill="#f0f0f0"/>
      <rect y="507.17" width="464.16" height=".83" fill="#f9f9f9"/>
    </g>
  </g>
</svg>