<?xml version="1.0" encoding="UTF-8"?>
<svg id="Layer_2" data-name="Layer 2" xmlns="http://www.w3.org/2000/svg" width="170" height="509" viewBox="0 0 170 509">
  <g id="static-layer">
    <g>
      <path d="m170,0H0v1h112.01c18.97.05,37.94-.1,56.91.08.18,8.63.05,17.27.09,25.91-.52,16.72.11,33.47-.32,50.18.53,2.91.26,5.88.31,8.83v405.09c0,5.63,0,11.26-.01,16.89-4.08.02-8.17.02-12.25.02H0v1h170V0Z" fill="#6e2a47"/>
      <path d="m168.92,1.08c-18.97-.18-37.94-.03-56.91-.08H0v26c56.01,0,112.02,0,168.03,0h.98c-.04-8.65.09-17.29-.09-25.92ZM60,14h-10v-1h10v1Zm45,4h-10v-10h10v10Zm43.53-3.67l.14.73.72.16.1.68.67.11.02.6.06.63-.63-.06-.6-.02-.11-.67-.68-.1-.16-.72-.73-.14-.2-.75h-2.26l-.2.75-.73.14-.16.72-.68.1-.11.67-.6.02-.64.07.07-.64.02-.6.67-.11.1-.68.72-.16.14-.73.75-.2v-2.26l-.75-.2-.14-.73-.72-.16-.1-.68-.67-.11-.02-.6-.06-.64.63.07.6.02.11.67.68.1.16.72.73.14.2.75h2.26l.2-.75.73-.14.16-.72.68-.1.11-.67.6-.02.64-.07-.07.64-.02.6-.67.11-.1.68-.72.16-.14.73-.75.2v2.26l.75.2Z" fill="#611435"/>
      <path d="m95,8h10v10h-10v-10m1,1v8h8v-8h-8Z" fill="#fff"/>
      <path d="m141.76,8.75l.63.07.06.63-.63-.06-.06-.64Z" fill="#ddcdd3"/>
      <path d="m142.39,8.82l.6.02.11.67-.65-.06-.06-.63Z" fill="#9a697e"/>
      <path d="m149.01,8.84l.6-.02-.06.63-.65.06.11-.67Z" fill="#9a697e"/>
      <path d="m149.61,8.82l.64-.07-.07.64-.63.06.06-.63Z" fill="#ddcdd3"/>
      <path d="m96,9h8v8h-8v-8Z" fill="#611435"/>
      <path d="m141.82,9.39l.63.06.06.65-.67-.11-.02-.6Z" fill="#9a697e"/>
      <path d="m142.45,9.45l.65.06.11.7-.7-.11-.06-.65Z" fill="#faf8f7"/>
      <path d="m143.1,9.51l.68.1.16.72-.73-.12-.11-.7Z" fill="#9a697e"/>
      <path d="m148.22,9.61l.68-.1-.11.7-.73.12.16-.72Z" fill="#9a697e"/>
      <path d="m148.9,9.51l.65-.06-.06.65-.7.11.11-.7Z" fill="#faf8f7"/>
      <path d="m149.55,9.45l.63-.06-.02.6-.67.11.06-.65Z" fill="#9a697e"/>
      <path d="m142.51,10.1l.7.11.12.73-.72-.16-.1-.68Z" fill="#9a697e"/>
      <path d="m143.21,10.21l.73.12.15.76-.76-.15-.12-.73Z" fill="#faf8f7"/>
      <path d="m143.94,10.33l.73.14.2.75-.78-.13-.15-.76Z" fill="#9a697e"/>
      <path d="m147.33,10.47l.73-.14-.15.76-.78.13.2-.75Z" fill="#9a697e"/>
      <path d="m148.06,10.33l.73-.12-.12.73-.76.15.15-.76Z" fill="#faf8f7"/>
      <path d="m148.79,10.21l.7-.11-.1.68-.72.16.12-.73Z" fill="#9a697e"/>
      <path d="m143.33,10.94l.76.15.13.78-.75-.2-.14-.73Z" fill="#9a697e"/>
      <path d="m144.09,11.09l.78.13.11.76-.76-.11-.13-.78Z" fill="#faf8f7"/>
      <path d="m144.87,11.22h2.26l-.11.76h-2.04l-.11-.76Z" fill="#9a697e"/>
      <path d="m147.13,11.22l.78-.13-.13.78-.76.11.11-.76Z" fill="#faf8f7"/>
      <path d="m147.91,11.09l.76-.15-.14.73-.75.2.13-.78Z" fill="#9a697e"/>
      <path d="m144.22,11.87l.76.11v2.04l-.76.11v-2.26Z" fill="#9a697e"/>
      <path d="m144.98,11.98h2.04v2.04h-2.04v-2.04Z" fill="#faf8f7"/>
      <path d="m147.02,11.98l.76-.11v2.26l-.76-.11v-2.04Z" fill="#9a697e"/>
      <path d="m50,13h10v1h-10v-1Z" fill="#fff"/>
      <path d="m143.47,14.33l.75-.2-.13.78-.76.15.14-.73Z" fill="#9a697e"/>
      <path d="m144.22,14.13l.76-.11-.11.76-.78.13.13-.78Z" fill="#faf8f7"/>
      <path d="m144.98,14.02h2.04l.11.76h-2.26l.11-.76Z" fill="#9a697e"/>
      <path d="m147.02,14.02l.76.11.13.78-.78-.13-.11-.76Z" fill="#faf8f7"/>
      <path d="m147.78,14.13l.75.2.14.73-.76-.15-.13-.78Z" fill="#9a697e"/>
      <path d="m142.61,15.22l.72-.16-.12.73-.7.11.1-.68Z" fill="#9a697e"/>
      <path d="m143.33,15.06l.76-.15-.15.76-.73.12.12-.73Z" fill="#faf8f7"/>
      <path d="m144.09,14.91l.78-.13-.2.75-.73.14.15-.76Z" fill="#9a697e"/>
      <path d="m147.13,14.78l.78.13.15.76-.73-.14-.2-.75Z" fill="#9a697e"/>
      <path d="m147.91,14.91l.76.15.12.73-.73-.12-.15-.76Z" fill="#faf8f7"/>
      <path d="m148.67,15.06l.72.16.1.68-.7-.11-.12-.73Z" fill="#9a697e"/>
      <path d="m141.84,16.01l.67-.11-.06.65-.63.06.02-.6Z" fill="#9a697e"/>
      <path d="m142.51,15.9l.7-.11-.11.7-.65.06.06-.65Z" fill="#faf8f7"/>
      <path d="m143.21,15.79l.73-.12-.16.72-.68.1.11-.7Z" fill="#9a697e"/>
      <path d="m148.06,15.67l.73.12.11.7-.68-.1-.16-.72Z" fill="#9a697e"/>
      <path d="m148.79,15.79l.7.11.06.65-.65-.06-.11-.7Z" fill="#faf8f7"/>
      <path d="m149.49,15.9l.67.11.02.6-.63-.06-.06-.65Z" fill="#9a697e"/>
      <path d="m141.82,16.61l.63-.06-.06.63-.64.07.07-.64Z" fill="#ddcdd3"/>
      <path d="m142.45,16.55l.65-.06-.11.67-.6.02.06-.63Z" fill="#9a697e"/>
      <path d="m148.9,16.49l.65.06.06.63-.6-.02-.11-.67Z" fill="#9a697e"/>
      <path d="m149.55,16.55l.63.06.06.63-.63-.06-.06-.63Z" fill="#ddcdd3"/>
      <path d="m168.03,27c-56.01,0-112.02,0-168.03,0v.8c50,0,100.01,0,150.01,0,6.01-.01,12.03-.05,18.05.08l-.03-.88Z" fill="#f9f9f9"/>
      <path d="m169.01,26.99h-.98s.03.89.03.89l.04,1.24c.21,7.3.14,14.61.05,21.92-.43-.06-1.28-.19-1.7-.26-2.16.09-4.3.21-6.45.23-53.33,0-106.67,0-160,0v.98c56.02,0,112.03,0,168.05,0l.03.89.04,1.25c.18,7.62.1,15.24.03,22.86-56.05,0-112.1,0-168.15,0v2.02c55.69,0,111.37,0,167.06,0l1.08-.03c.13-.45.41-1.36.55-1.81.43-16.71-.2-33.46.32-50.18Z" fill="#a0a0a0"/>
      <path d="m168.06,27.88c-6.02-.13-12.04-.09-18.05-.08-50,0-100.01,0-150.01,0v1.41c50.67,0,101.33,0,152,0,5.36.02,10.73.04,16.1-.09l-.04-1.24Z" fill="#f4f4f4"/>
      <path d="m168.1,29.12c-5.37.13-10.74.11-16.1.09-50.67,0-101.33,0-152,0v20.78c44.67,0,89.33,0,134,0,8.33-.03,16.66.05,25-.07,2.5-.05,4.99.36,7.45.85.42.07,1.27.2,1.7.26.09-7.31.16-14.62-.05-21.92Z" fill="#f0f0f0"/>
      <path d="m166.45,50.78c-2.46-.49-4.95-.9-7.45-.85-8.34.12-16.67.04-25,.07-44.67,0-89.33,0-134,0v1.01c53.33,0,106.67,0,160,0,2.15-.02,4.29-.14,6.45-.23Z" fill="#f2f2f2"/>
      <path d="m168.08,52.88l-.03-.89c-56.02,0-112.03,0-168.05,0v.8c56.03,0,112.05-.07,168.08.09Z" fill="#f6f6f6"/>
      <path d="m168.08,52.88c-56.03-.15-112.05-.09-168.08-.09v1.45h153c5.04.02,10.08.02,15.12-.11l-.04-1.25Z" fill="#f4f4f4"/>
      <path d="m168.12,54.13c-5.04.13-10.08.13-15.12.11H0v22.75c56.05,0,112.1,0,168.15,0,.07-7.62.15-15.24-.03-22.86Z" fill="#f0f0f0"/>
      <path d="m168.14,78.98c.13-.45.41-1.36.55-1.81.53,2.91.26,5.88.31,8.83v329.99h-.83c.17-108.99-.01-217.99.09-326.98,0-3.35-.28-6.69-.12-10.03Z" fill="#fcfcfc"/>
      <path d="m0,79.01v.99h166.98l.08-.99c-55.69,0-111.37,0-167.06,0Z" fill="#696969"/>
      <path d="m168.26,89.01c0-3.35-.28-6.69-.12-10.03l-1.08.03-.08.99c-.21,4-.1,8-.1,12,0,102-.01,204,0,306,0,5.59.05,11.18-.08,16.77-5.27.1-10.53.06-15.8.06-50.33,0-100.67,0-151,0v1.17c56.06,0,112.11,0,168.17,0,.17-108.99-.01-217.99.09-326.98Z" fill="#e9e9e9"/>
      <path d="m152.18,388c-.09-102.67.09-205.33-.09-308h-1.22c-.2,5.33-.18,10.67-.15,16v289c-.07,3.87.34,7.79-.25,11.64-.51,1.96-2.79,2.1-4.44,2.1-48.68-.01-97.35-.01-146.03-.01v1.43c46.33,0,92.67,0,139,.01,3,0,6.02.17,9.02-.1,1.8,0,3.56-1.33,3.92-3.11.45-2.96.23-5.98.24-8.96Z" fill="#f4f4f4"/>
      <path d="m165,398.01V80h-12.91c.18,102.67,0,205.33.09,308-.01,2.98.21,6-.24,8.96-.36,1.78-2.12,3.12-3.92,3.11-3,.27-6.02.1-9.02.1-46.33-.01-92.67-.01-139-.01v12.84h151c4.62.03,9.25.04,13.87-.12.19-4.96.15-9.92.13-14.87Zm-20,8.99h-.99l-.02,1h-.99v1h-.99l-.02,1h-2.99v-1h.99v-1h1.01v-1h1v-1h-.99l-.02-1h-.98l-.02-1h-.99v-1h3v.99l.99.02.02.99h.99v1h1v1Zm16.99-17.04l-.93.09-.12.89-.89.11-.1.9-.91.09-.08.92h-.93s-.08-.91-.08-.91l-.91-.1-.09-.91-.91-.09-.09-.91-.94-.08c0-.73-.01-2.2-.01-2.93h.96l.09.91.91.12.09.89.9.1.1.93h.91l.1-.93.9-.09.09-.92.91-.08.08-.93h.96c0,.73-.01,2.2-.01,2.93Zm-.94-297.99l-.1-.92-.9-.1-.09-.9-.91-.1-.08-.93h-.92s-.11.93-.11.93l-.9.11-.08.9-.9.08-.11.92h-.95c0-.72.01-2.18.01-2.91l.95-.1.08-.89.92-.11.09-.91.9-.09.1-.93.91.02.08.91.92.1.09.91.89.09.11.9.94.09c0,.73.01,2.2.01,2.93h-.95Z" fill="#f0f0f0"/>
      <path d="m166.88,92c0-4-.11-8,.1-12h-1.98v318.01c.02,4.95.06,9.91-.13,14.87-4.62.16-9.25.15-13.87.12H0v1.83c50.33,0,100.67,0,151,0,5.27,0,10.53.04,15.8-.06.13-5.59.08-11.18.08-16.77-.01-102,0-204,0-306Z" fill="#efefef"/>
      <path d="m158.05,86.02l.91.02.08.91.92.1.09.91.89.09.11.9.94.09c0,.73.01,2.2.01,2.93h-.95l-.1-.92-.9-.1-.09-.9-.91-.1-.08-.93h-.92s-.11.93-.11.93l-.9.11-.08.9-.9.08-.11.92h-.95c0-.72.01-2.18.01-2.91l.95-.1.08-.89.92-.11.09-.91.9-.09.1-.93Z" fill="#bfbfbf"/>
      <path d="m155,387.03h.96l.09.91.91.12.09.89.9.1.1.93h.91l.1-.93.9-.09.09-.92.91-.08.08-.93h.96c0,.73-.01,2.2-.01,2.93l-.93.09-.12.89-.89.11-.1.9-.91.09-.08.92h-.93s-.08-.91-.08-.91l-.91-.1-.09-.91-.91-.09-.09-.91-.94-.08c0-.73-.01-2.2-.01-2.93Z" fill="#bfbfbf"/>
      <path d="m139,403h3v.99l.99.02.02.99h.99v1h1v1h-.99l-.02,1h-.99v1h-.99l-.02,1h-2.99v-1h.99v-1h1.01v-1h1v-1h-.99l-.02-1h-.98l-.02-1h-.99v-1Z" fill="#606060"/>
      <path d="m168.17,415.99c-56.06,0-112.11,0-168.17,0v.94c49.33,0,98.67,0,148,0,7,0,14-.07,21,.12v-1.07h-.83Z" fill="#f8f8f8"/>
      <path d="m169,417.06c-7-.19-14-.12-21-.12-49.33-.01-98.67,0-148,0v1.28c56.33,0,112.67-.01,169-.05v-1.1Z" fill="#f2f2f2"/>
      <path d="m0,418.21v3.05c51,0,102,0,153,0,5.01-.01,10.04.17,15.04-.28l.96-.11v-2.71c-56.33.04-112.67.05-169,.05Z" fill="#f0f0f0"/>
      <path d="m153,421.26c-51,0-102,0-153,0v.36h149c6,.05,12-.22,17.99.26l1,.07.05-.97c-5,.45-10.03.27-15.04.28Z" fill="#a0a0a0"/>
      <path d="m169,420.87l-.96.11-.05.97c0,22.65.1,45.3-.04,67.95-55.98-.03-111.97-.03-167.95-.03v1.22h169v-70.22Z" fill="#f9f9f9"/>
      <path d="m149,421.62H0v1.38h151.04c5.3,0,10.61-.01,15.92.01l.03-1.13c-5.99-.48-11.99-.21-17.99-.26Z" fill="#696969"/>
      <path d="m167.99,421.95l-1-.07-.03,1.13c-.31,21.92.05,43.85-.18,65.77-5.25.11-10.5.08-15.75.06-50.34,0-100.69,0-151.03,0v1.03c55.98,0,111.97,0,167.95.03.14-22.65.04-45.3.04-67.95Z" fill="#e5e5e5"/>
      <path d="m151.04,423H0v65.84c50.34,0,100.69,0,151.03,0-.08-21.95,0-43.89,0-65.84Z" fill="#fff"/>
      <path d="m151.04,423c5.3,0,10.61-.01,15.92.01-.31,21.92.05,43.85-.18,65.77-5.25.11-10.5.08-15.75.06-.08-21.95,0-43.89,0-65.84m7.01,6.04l-.1.91-.89.1-.12.89-.89.12-.09.9-.95.08c0,.73-.01,2.2-.01,2.93h.97s.08-.93.08-.93l.9-.09.09-.91.91-.1.1-.91h.91l.09.93.9.09.1.9.89.1.1.92h.96c0-.73-.01-2.2-.02-2.93l-.93-.08-.11-.91-.89-.1-.1-.91-.9-.09-.08-.93-.92.02m-3.05,48.99c0,.73.01,2.19.02,2.92l.94.11.09.89.91.09.09.91.9.09.09.94h.91s.1-.93.1-.93l.9-.1.1-.9.91-.1.09-.91.93-.08c.01-.73.02-2.2.02-2.93h-.97s-.08.92-.08.92l-.91.1-.09.91-.89.09-.1.93h-.92s-.1-.94-.1-.94l-.89-.09-.09-.9-.92-.1-.08-.91h-.96Z" fill="#f0f0f0"/>
      <path d="m158.05,429.04l.92-.02.08.93.9.09.1.91.89.1.11.91.93.08c.01.73.02,2.2.02,2.93h-.96l-.1-.92-.89-.1-.1-.9-.9-.09-.09-.93h-.91l-.1.91-.91.1-.09.91-.9.09-.08.94h-.97c0-.74.01-2.21.01-2.94l.95-.08.09-.9.89-.12.12-.89.89-.1.1-.91Z" fill="#bfbfbf"/>
      <path d="m155,478.03h.96s.08.92.08.92l.92.1.09.9.89.09.1.93h.92s.1-.92.1-.92l.89-.09.09-.91.91-.1.08-.91h.97c0,.72-.01,2.19-.02,2.92l-.93.08-.09.91-.91.1-.1.9-.9.1-.1.92h-.91s-.09-.93-.09-.93l-.9-.09-.09-.91-.91-.09-.09-.89-.94-.11c-.01-.73-.02-2.19-.02-2.92Z" fill="#bfbfbf"/>
      <path d="m0,491.09v1.9c56,0,112,0,168.01,0v.91c-.43.04-1.26.11-1.68.14-1.98,2.75-4.03,5.47-6.52,7.78-1.72,1.56-3.47,3.49-5.91,3.78-3.95.43-7.93.11-11.89.16-47.34.01-94.67,0-142.01,0v1.41h143c4.82-.04,9.74.43,14.46-.82,3.41-3.79,6.91-7.58,10.95-10.71-1.08,3.22-3.9,5.26-6.15,7.63-1.61,1.68-3.44,3.13-5.37,4.42l-.15.31c4.08,0,8.17,0,12.25-.02.01-5.63.01-11.26.01-16.89H0Zm165.37,15.8c-.43-1.21,1.03-2.29,2.03-2.66,1.86.59-.67,3.65-2.03,2.66Zm-2.8-.22c-.47.15-1.41.43-1.88.57,2.18-2.82,4.73-5.37,7.55-7.55-.57,3.1-3.43,5.05-5.67,6.98Z" fill="#f2f3f3"/>
      <path d="m0,492.99v1c55.44,0,110.89,0,166.33.05.42-.03,1.25-.1,1.67-.14v-.91c-56,0-112,0-168,0Z" fill="#a0a0a0"/>
      <path d="m0,493.99v11.77c47.34,0,94.67,0,142.01,0,3.96-.05,7.94.27,11.89-.16,2.44-.29,4.19-2.22,5.91-3.78,2.49-2.31,4.54-5.03,6.52-7.78-55.44-.04-110.89-.05-166.33-.05Z" fill="#f0f0f0"/>
      <path d="m157.46,506.35c3.41-3.79,6.91-7.58,10.95-10.71-1.08,3.22-3.9,5.26-6.15,7.63-1.61,1.68-3.44,3.13-5.37,4.42l.57-1.34Z" fill="#a0a0a0"/>
      <path d="m160.69,507.24c2.18-2.82,4.73-5.37,7.55-7.55-.57,3.1-3.43,5.05-5.67,6.98-.47.15-1.41.43-1.88.57Z" fill="#a0a0a0"/>
      <path d="m167.4,504.23c1.86.59-.67,3.65-2.03,2.66-.43-1.21,1.03-2.29,2.03-2.66Z" fill="#a0a0a0"/>
      <path d="m143,507.17H0v.83h156.74l.15-.31.57-1.34c-4.72,1.25-9.64.78-14.46.82Z" fill="#f9f9f9"/>
    </g>
  </g>
</svg>