<?xml version="1.0" encoding="UTF-8" ?>
<!DOCTYPE svg PUBLIC "-//W3C//DTD SVG 1.1//EN" "http://www.w3.org/Graphics/SVG/1.1/DTD/svg11.dtd">
<svg width="162pt" height="220pt" viewBox="0 0 162 220" version="1.1" xmlns="http://www.w3.org/2000/svg">
<g id="#ffffffff">
</g>
<g id="#000000ff">
<path fill="#000000" opacity="1.00" d=" M 34.30 21.30 C 38.54 18.95 43.58 18.21 48.24 19.75 C 52.28 19.96 56.19 21.26 59.65 23.35 C 65.11 28.03 70.13 33.35 72.87 40.12 C 77.66 52.70 80.83 66.34 78.86 79.84 C 76.83 88.00 74.06 96.38 75.49 104.89 C 76.27 108.39 75.98 112.12 77.37 115.47 C 86.30 130.27 95.19 145.11 104.07 159.94 C 106.15 164.96 112.69 166.62 113.29 172.52 C 118.12 174.24 121.77 179.34 127.47 177.71 C 128.12 175.63 127.17 172.58 129.41 171.34 C 131.06 170.42 133.33 169.42 134.85 171.14 C 137.02 172.80 134.19 175.36 133.60 177.22 C 138.04 185.15 139.53 194.70 137.45 203.58 C 136.30 208.79 137.41 214.06 139.16 219.00 C 135.62 218.98 132.07 219.23 128.55 218.84 C 129.70 218.36 130.88 217.97 132.10 217.67 C 131.26 214.50 130.41 211.30 130.26 208.01 C 130.32 205.07 131.84 201.87 129.77 199.26 C 126.48 194.18 124.94 187.83 126.65 181.90 C 123.01 180.99 118.89 180.68 116.12 177.83 C 114.28 175.82 111.72 174.91 109.45 173.54 C 107.71 170.72 105.82 167.84 105.50 164.45 C 97.04 150.06 88.10 135.94 79.36 121.72 C 75.12 114.80 69.80 108.65 63.74 103.26 C 54.95 93.71 43.82 86.45 36.23 75.78 C 28.63 65.15 22.95 52.25 24.13 38.94 C 25.21 32.19 27.51 24.34 34.30 21.30 Z" />
</g>
</svg>
