<?xml version="1.0" encoding="UTF-8"?>
<svg id="b" data-name="Layer 2" xmlns="http://www.w3.org/2000/svg" viewBox="0 0 300 260">
  <g id="c" data-name="Layer 1">
    <g>
      <path d="M.05,2.21v-1c2.33,0,4.67,0,7,0,.23,4.83,2.26,9.28,2.39,13.65,2.67,1.88,5.08,1.32,7.35,1.32,66.26.03,132.52.02,198.78.04,2.14,0,4.33-.36,6.27.42,1.59,1.03.92,3.42,3,4.11.31-.14.74-.33,1.17-.53,1.66,0,3.33,0,4.99,0,.07,1.48-.12,3.02,1.19,4.26,2.42,1.51,5.2,1.74,8.06,1.73,8.14-.04,16.27-.04,24.41,0,1.94.01,4.04-.46,5.82,1.41.71,3.85,1.61,7.85,1.56,12.04-.12,8.79-.05,17.59-.02,26.39,0,1.78-.36,3.68,1.18,5.38,2.57,1.39,4.86.84,6.69-1.61,1.54.67,1.48,2.8,3.21,3.34h15.92c0,10.81,0,21.62,0,32.43,0,48.56,0,97.12.03,145.67,0,2.26-.68,4.69.96,6.74v1H.05v-1c1.63-2.06.96-4.49.96-6.76.04-53.95.03-107.9.03-161.85,0-26.98.01-53.95-.03-80.93,0-2.11.6-4.36-.96-6.26Z" fill="#111" stroke-width="0"/>
      <path d="M299.99,1.21v1c-1.49,1.71-.97,3.79-.98,5.73-.05,19.08-.04,38.17-.05,57.25-2.83,0-5.66.1-8.48-.04-2.91-.15-5.98.76-8.56-.9-1.32-2.02-.92-4.07-.92-6.03-.04-10.64,0-21.27-.04-31.91,0-1.78.42-3.67-.76-5.39-.39-.17-.84-.54-1.29-.54-15.63-.09-31.26-.14-46.89-.2.02-.65-.07-1.34.09-1.96,1.09-4.2,1.23-8.36.09-12.6-.37-1.38-.15-2.93-.19-4.4,22.66,0,45.33,0,67.99,0Z" fill="#252525" stroke-width="0"/>
      <path d="M232.01,20.17c15.63.06,31.26.11,46.89.2.45,0,.89.37,1.29.54,1.18,1.73.76,3.61.76,5.39.04,10.64,0,21.27.04,31.91,0,1.96-.4,4.01.92,6.03,2.58,1.67,5.65.75,8.56.9,2.82.15,5.65.04,8.48.04h0c.01,1.11.1,2.18,1.03,2.97v5c-.33,0-.66,0-.98,0h-15.92c-1.73-.54-1.67-2.67-3.21-3.34-1.83,2.45-4.12,3.01-6.69,1.61-1.53-1.7-1.17-3.6-1.18-5.38-.03-8.8-.1-17.59.02-26.39.06-4.19-.84-8.19-1.56-12.04-1.78-1.87-3.88-1.4-5.82-1.41-8.14-.05-16.27-.05-24.41,0-2.86.01-5.63-.22-8.06-1.73-1.31-1.23-1.12-2.78-1.19-4.26.34-.02.68-.03,1.02-.05Z" fill="#141414" stroke-width="0"/>
      <path d="M.05,259h299.94c0,.33,0,.96,0,.96-1.33.04-2.66.04-4,.04-97.31,0-194.63,0-291.94,0q-2.67,0-4-1Z" fill="#202020" stroke-width="0"/>
      <path d="M.05,2.21c1.56,1.89.96,4.15.96,6.26.04,26.98.03,53.95.03,80.93,0,53.95,0,107.9-.03,161.85,0,2.27.67,4.69-.96,6.76V2.21Z" fill="#202020" stroke-width="0"/>
      <path d="M7.05,1.21c-2.33,0-4.67,0-7,0C.27.9-.46.17.55.2c1.33.04,2.67.01,4,.01h220.45c0,.34-.01.68-.02,1.02-72.64,0-145.29-.01-217.93-.02Z" fill="#202020" stroke-width="0"/>
      <path d="M299,73.16c.33,0,.66,0,.98,0v184.85c-1.64-2.06-.96-4.48-.96-6.74-.04-48.56-.03-97.12-.03-145.67,0-10.81,0-21.62,0-32.43Z" fill="#202020" stroke-width="0"/>
      <path d="M224.98,1.23c0-.34.01-.68.02-1.02,24.33,0,48.66,0,72.98.05.63,0,2.15-1.02,2,.95-22.66,0-45.33,0-67.99,0h-7.01s0,0,0,0Z" fill="#2f2f2f" stroke-width="0"/>
      <path d="M298.96,65.19c.01-19.08,0-38.17.05-57.25,0-1.94-.51-4.02.98-5.73v62.95c-.34.01-.69.02-1.03.03h0Z" fill="#2f2f2f" stroke-width="0"/>
      <path d="M298.96,65.19c.34-.01.69-.02,1.03-.03v3c-.93-.79-1.02-1.86-1.03-2.97Z" fill="#252525" stroke-width="0"/>
      <path d="M7.05,1.21c72.64,0,145.29.01,217.93.02h0c0,4.42.02,8.84,0,13.26,0,1.98.02,3.93,1.01,5.73-.43.19-.86.39-1.17.53-2.08-.69-1.41-3.08-3-4.11-1.94-.77-4.13-.42-6.27-.42-66.26-.02-132.52-.01-198.78-.04-2.27,0-4.68.56-7.35-1.32-.13-4.37-2.16-8.82-2.39-13.65Z" fill="#141414" stroke-width="0"/>
      <path d="M226,20.22c-.99-1.8-1.02-3.75-1.01-5.73.02-4.42,0-8.84,0-13.26h7.01c.05,1.46-.18,3,.19,4.39,1.14,4.24.99,8.4-.09,12.6-.16.62-.06,1.3-.09,1.96-.34.02-.68.03-1.02.05h-4.99Z" fill="#202020" stroke-width="0"/>
    </g>
  </g>
</svg>