<?xml version="1.0" encoding="UTF-8"?>
<svg id="Layer_2" data-name="Layer 2" xmlns="http://www.w3.org/2000/svg" viewBox="0 0 276.15 278.04">
    <g id="letter_b">
        <path d="m44.78,41.94c2.5-13.98,4.99-27.96,7.49-41.94,15,0,30,0,45,0-1.51,9.94-3.01,19.87-4.52,29.81-.59,3.92-1.19,7.84-1.78,11.76-.25,1.36-.51,2.73-.86,4.61h181.27c-.1,1.89-.03,3.38-.28,4.81-2.77,15.72-5.61,31.42-8.38,47.14-4.86,27.5-10,54.96-14.43,82.53-4.23,26.39-27.83,47.33-54.45,47.34-58.65.02-117.29,0-175.94,0-1.78,0-3.55,0-5.75,0,2.79-15.65,5.47-30.61,8.17-45.72,2.74,0,4.72,0,6.71,0,50.48,0,100.97-.22,151.45.12,14.93.1,26.39-12.24,27.98-23.63,1.7-12.17,4.28-24.22,6.41-36.34,1.77-10.06,3.44-20.13,5.26-30.81H36.37c2.87-16.94,5.64-33.31,8.41-49.68Z"
              fill="#bd2c44"/>
    </g>
    <g id="letter_p">
        <path d="m44.78,41.94c-2.77,16.37-5.54,32.74-8.41,49.68h181.75c-1.82,10.68-3.49,20.76-5.26,30.81-2.13,12.12-4.71,24.16-6.41,36.34-1.59,11.39-13.05,23.73-27.98,23.63-50.48-.34-100.97-.13-151.45-.12-1.98,0-3.97,0-6.71,0-2.7,15.11-5.37,30.07-8.17,45.72,2.2,0,3.98,0,5.75,0,58.65,0,117.29.01,175.94,0,26.62,0,50.22-20.95,54.45-47.34,4.42-27.57,9.57-55.03,14.43-82.53,2.77-15.72,5.62-31.42,8.38-47.14.25-1.43.18-2.93.28-4.81H90.11c.35-1.88.6-3.24.86-4.61,24.83-.05,49.65-.12,74.48-.14,33.49-.02,66.99,0,100.48,0,1.5,0,3.01-.08,4.49.11,4.79.6,6.35,2.75,5.52,7.48-3.56,20.15-7.13,40.3-10.71,60.44-4.22,23.75-9.29,47.39-12.45,71.28-3.59,27.1-29.57,52.56-62.51,52.08-40.82-.6-81.65-.14-122.47-.14-1.97,0-3.93,0-6.28,0-2.15,12.25-4.27,24.17-6.32,36.1-1.52,8.85-1.96,9.27-10.82,9.27-12.16,0-24.33.01-36.49,0-7.29,0-8.71-1.53-7.48-8.62,4.75-27.2,9.61-54.39,14.42-81.58.29-1.64.51-3.29.8-4.93.58-3.29,2.59-4.89,5.9-4.9,1.33,0,2.67,0,4,0,50.32,0,100.65,0,150.97,0,14.69,0,23.32-7.29,25.86-21.68,3.21-18.19,6.46-36.36,9.67-54.55.29-1.63.4-3.29.69-5.73-2.1,0-3.99,0-5.88,0-55.32,0-110.64,0-165.97,0-8.17,0-9.64-1.86-8.19-9.89,2.28-12.6,4.43-25.23,6.72-37.84.56-3.08.84-6.59,5.4-6.36Z"
              fill="#2975a8"/>

        <animateMotion
                path="M 0,0 V -9, V 0"
                dur="3s"
                repeatCount="indefinite"
                rotate="0"/>
    </g>
</svg>