<svg width="2202" height="1001" fill="none" xmlns="http://www.w3.org/2000/svg"><g clip-path="url(#a)"><path d="M2101 200h-100v100h100V200Zm0 400h-100v100h100V600Zm100 0h-100v100h100V600Zm-700 0h-100v100h100V600Zm300-400h-100v100h100V200Zm0-200h-100v100h100V0Zm300 400h-100v100h100V400Zm-600 0h-100v100h100V400Zm300 0h-100v100h100V400Zm0 400h-100v100h100V800Zm300-500h-100v100h100V300Zm100 0h-100v100h100V300Zm-100 400h-100v100h100V700Zm-600 0h-100v100h100V700Zm300-400h-100v100h100V300Zm0 400h-100v100h100V700Zm400 200h-100v100h100V900Zm-400 0h-100v100h100V900Zm-600 0h-100v100h100V900Zm800-300h-100v100h100V600Zm-600 0h-100v100h100V600Zm0-400h-100v100h100V200Zm200-100h-100v100h100V100Zm-300 200h-100v100h100V300ZM201 400H101v100h100V400Zm1500 200h-100v100h100V600Zm300-200h-100v100h100V400Zm-300 0h-100v100h100V400Zm0 400h-100v100h100V800Zm-600 0h-100v100h100V800Zm900-100h-100v100h100V700Zm-600 0h-100v100h100V700Zm300 0h-100v100h100V700Zm300-200h-100v100h100V500Zm-600 0h-100v100h100V500Zm300 0h-100v100h100V500Zm0 400h-100v100h100V900Zm200-800h-100v100h100V100Zm0 500h-100v100h100V600Zm-600 0h-100v100h100V600Zm300 0h-100v100h100V600Zm300-200h-100v100h100V400Zm0 400h-100v100h100V800Zm-600 0h-100v100h100V800Zm300-400h-100v100h100V400Zm0 400h-100v100h100V800Zm300-500h-100v100h100V300Zm0 400h-100v100h100V700Zm-300-400h-100v100h100V300Zm0 400h-100v100h100V700Zm300-200h-100v100h100V500ZM901 600H801v100h100V600Zm0 100H801v100h100V700Zm0 200H801v100h100V900Zm100 0H901v100h100V900ZM901 500H801v100h100V500ZM601 900H501v100h100V900ZM501 800H401v100h100V800Zm300-100H701v100h100V700ZM701 600H601v100h100V600Zm-300 0H301v100h100V600Zm0 100H301v100h100V700Zm-200 0H101v100h100V700Zm-100 0H1v100h100V700Zm0-100H1v100h100V600Zm0-100H1v100h100V500Zm0 400H1v100h100V900Zm300 0H301v100h100V900ZM301 800H201v100h100V800Zm0-200H201v100h100V600Zm0-100H201v100h100V500Zm700 100H901v100h100V600Zm200 0h-100v100h100V600ZM701 800H601v100h100V800Zm300 0H901v100h100V800Zm0-100H901v100h100V700Zm0-200H901v100h100V500Z" stroke="#232528" stroke-dasharray="0.33em"/><g opacity=".2" filter="url(#b)"><path fill="#57606A" d="M301 556.963h1600v343.074H301z"/></g></g><defs><clipPath id="a"><path fill="#fff" d="M0 0h2202v1001H0z"/></clipPath><filter id="b" x="47" y="302.963" width="2108" height="851.074" filterUnits="userSpaceOnUse" color-interpolation-filters="sRGB"><feFlood flood-opacity="0" result="BackgroundImageFix"/><feBlend in="SourceGraphic" in2="BackgroundImageFix" result="shape"/><feGaussianBlur stdDeviation="127" result="effect1_foregroundBlur_2_318"/></filter></defs></svg>
