<svg xmlns="http://www.w3.org/2000/svg" viewBox="0 0 278.89 75.82"><defs><style>.cls-1{fill:#00548e;}.cls-2{fill:#fff;}.cls-3{fill:#005087;}.cls-4{fill:#94002d;}</style></defs><title>ADV</title><g id="Layer_2" data-name="Layer 2"><g id="Layer_1-2" data-name="Layer 1"><rect class="cls-1" width="75.75" height="75.82"/><polygon class="cls-2" points="61.1 51.37 59.4 47.26 57.58 51.37 53.46 51.37 59.26 38.61 65.08 51.37 61.1 51.37"/><polygon class="cls-2" points="56.05 54.16 53.92 59.01 59.11 56.35 61.96 58.61 51.87 63.52 47.88 63.52 53.19 51.57 56.05 54.16"/><polygon class="cls-2" points="70.33 63.52 66.02 63.52 62.09 54.24 64.9 51.49 70.33 63.52"/><path class="cls-2" d="M44.78,39.38s-.59,3.6-.53,3.77C42,42,38.82,41.35,36.7,42.53a2.94,2.94,0,0,0-1,3.47c3.47,3.8,9.63,2.91,10,10.24a7.05,7.05,0,0,1-2.29,5.26c-3.24,2.53-7.95,2.35-11.7,1l.4-4c2.18,1.18,6.21,2.24,8.56.06a4,4,0,0,0,.89-3.3c-1.34-3.92-12-3.75-10-11.86a6.48,6.48,0,0,1,4.08-4.37C38.37,37.79,42.11,38.54,44.78,39.38Z"/><path class="cls-2" d="M25.27,39.88l-.13,4c-3-1.9-8.2-2.6-11.59-.6-3,1.78-4,4.39-4.06,7.59a8.74,8.74,0,0,0,4.67,8.36c2.2,1.15,7.34.59,7.34.59l0-6.07H17l0-3.76h8.55l0,12.78c-4.71,1.4-10.9,1.49-15-1.32-4.43-3-5.2-6.71-5.2-10.59,0-5.2,3.11-10.74,9.26-11.92A19.49,19.49,0,0,1,25.27,39.88Z"/><path class="cls-3" d="M83.48,2.89a.84.84,0,0,0,.83-.84.79.79,0,0,0-.45-.67,1.93,1.93,0,0,0-.79-.09h-1V4.18h.47V3h.28c.36,0,.49.13.86.78l.26.45h.57l-.35-.56C83.86,3.15,83.7,3,83.48,2.89Zm-.37-.34h-.57V1.68h.53c.55,0,.74.11.74.43S83.59,2.55,83.11,2.55Z"/><path class="cls-3" d="M83.26,0A2.7,2.7,0,1,0,86,2.69,2.7,2.7,0,0,0,83.26,0Zm0,4.94A2.25,2.25,0,1,1,85.5,2.69,2.25,2.25,0,0,1,83.26,4.94Z"/><path class="cls-4" d="M101.57,38.75h6.13l4.21,24.36h-5.39l-.66-4.56h-9l-2.23,4.56H88.73ZM98.89,54.48h6.37l-1.42-9.89h-.07Z"/><path class="cls-4" d="M112.77,55.87c0-6.65,4-11.8,9.16-11.8a6.91,6.91,0,0,1,5,2l1.64-9.19h5.08L129,63.11h-4.18l.07-2.58A7.15,7.15,0,0,1,119,63.46C115.7,63.46,112.77,60.81,112.77,55.87Zm12.32.45,1.26-7.1a5.11,5.11,0,0,0-3.41-1.35c-2.93,0-5,3.41-5,7.55,0,3.06,1.25,4.21,2.81,4.21S123.91,58.31,125.09,56.32Z"/><path class="cls-4" d="M133.82,44.42h4.66l1.6,13.16h.07l6.16-13.16h5.08L142,63.11h-5.43Z"/><path class="cls-4" d="M149.69,55.94c0-6.72,4-11.9,9.26-11.9a6.63,6.63,0,0,1,5.11,2.26l.59-1.88h4.56l-2.36,13.43a6,6,0,0,0-.11.84c0,.76.45,1,1.32,1l-.59,3.51c-2.85.14-4.87-.45-5.46-2.61a7.27,7.27,0,0,1-5.92,2.89C152.61,63.49,149.69,60.92,149.69,55.94Zm13.57-6.72a5.13,5.13,0,0,0-3.37-1.35c-2.89,0-5,3.37-5,7.58,0,3,1.25,4.18,2.82,4.18,1.74,0,3.2-1.32,4.38-3.31Z"/><path class="cls-4" d="M183.4,51.38a10.61,10.61,0,0,0,.21-1.77c0-1-.45-1.74-1.67-1.74-1.67,0-3.34,1.42-4.94,3.75l-2,11.49h-5.12l3.27-18.69h4.25v2.89a8.34,8.34,0,0,1,6.4-3.24c3.17,0,5,2,5,4.77a21.7,21.7,0,0,1-.31,3.06l-2,11.21h-5.08Z"/><path class="cls-4" d="M193,48H190.1l.66-3.62h2.89l.83-4.66h5.08l-.83,4.66h5L203.15,48H198.1l-1.53,8.56a8.64,8.64,0,0,0-.14,1.46c0,1,.42,1.39,1.36,1.39a5,5,0,0,0,2.61-1L202,61.86a10.56,10.56,0,0,1-5.7,1.67c-3,0-5-1.78-5-4.49a18.69,18.69,0,0,1,.34-2.93Z"/><path class="cls-4" d="M203.74,55.94c0-6.72,4-11.9,9.26-11.9a6.63,6.63,0,0,1,5.11,2.26l.59-1.88h4.56L220.9,57.85a6,6,0,0,0-.11.84c0,.76.46,1,1.32,1l-.59,3.51c-2.85.14-4.87-.45-5.46-2.61a7.27,7.27,0,0,1-5.92,2.89C206.66,63.49,203.74,60.92,203.74,55.94Zm13.57-6.72a5.13,5.13,0,0,0-3.37-1.35c-2.89,0-5.05,3.37-5.05,7.58,0,3,1.25,4.18,2.82,4.18,1.74,0,3.2-1.32,4.38-3.31Z"/><path class="cls-4" d="M235.72,60.5a7,7,0,0,1-5.5,2.47c-2.95,0-6.09-2.16-6.09-7.41,0-6.58,4-11.49,9.26-11.49a6.89,6.89,0,0,1,5.08,2.09l.55-1.74h4.6l-3.2,18.13c-.87,5-3.52,7.87-9.81,7.87A12.48,12.48,0,0,1,223.26,68l2.3-3.45a9.79,9.79,0,0,0,5.29,1.88c2.5,0,4-1.08,4.52-4.11Zm2-11.35a4.91,4.91,0,0,0-3.41-1.32c-2.82,0-5,3.31-5,7.45,0,2.85,1.29,4,2.79,4,1.77,0,3.16-1.29,4.45-3.31Z"/><path class="cls-4" d="M255,44c4.18,0,6.9,2.33,6.9,5.29,0,3.69-4.25,5.67-10.51,5.67h-2.51v.25c0,3,1.32,4.24,3.83,4.24a10.17,10.17,0,0,0,5-1.6l1.85,3.38a13.24,13.24,0,0,1-7.52,2.3c-4.91,0-8.36-3.14-8.36-8.18A11.11,11.11,0,0,1,255,44Zm-5.56,7.87h2c4.21,0,5.57-1.15,5.57-2.44,0-1-.87-1.77-2.37-1.77C252.34,47.66,250.32,49.29,249.39,51.87Z"/><path class="cls-4" d="M264,58.55h5.22l-.8,4.56h-5.19Zm2.75-15.1.87-4.7h5.15l-.84,4.7L268.4,55.56h-2.61Z"/><path class="cls-4" d="M276.43,41.64a.84.84,0,0,0,.83-.84.78.78,0,0,0-.46-.67A1.84,1.84,0,0,0,276,40h-1v2.9h.47V41.7h.27c.36,0,.49.13.87.78l.25.45h.57l-.35-.56C276.81,41.9,276.65,41.72,276.43,41.64Zm-.37-.34h-.57v-.87H276c.54,0,.74.11.74.43S276.54,41.3,276.06,41.3Z"/><path class="cls-4" d="M276.2,38.75a2.7,2.7,0,1,0,2.69,2.69A2.69,2.69,0,0,0,276.2,38.75Zm0,4.94a2.25,2.25,0,1,1,2.25-2.25A2.25,2.25,0,0,1,276.2,43.69Z"/></g></g></svg>