<?xml version="1.0" encoding="utf-8"?>
<!-- Generator: Adobe Illustrator 17.0.0, SVG Export Plug-In . SVG Version: 6.00 Build 0)  -->
<!DOCTYPE svg PUBLIC "-//W3C//DTD SVG 1.1//EN" "http://www.w3.org/Graphics/SVG/1.1/DTD/svg11.dtd">
<svg version="1.1" id="Layer_1" xmlns="http://www.w3.org/2000/svg" x="0px" y="0px"
     width="102.079px" height="147.821px" viewBox="41.759 60.472 102.079 147.821"
     enable-background="new 41.759 60.472 102.079 147.821" xml:space="preserve">
<g id="Award">
	<g>
		<path fill="#FBC08D" d="M52.286,171.185c0.668,1.212,1.192,2.511,1.611,3.846c0.427,1.336,0.741,2.712,0.96,4.105
			c0.415,2.78,0.43,5.69-0.303,8.4c0.147-2.802-0.01-5.551-0.432-8.273c-0.199-1.361-0.473-2.711-0.78-4.057
			C53.022,173.863,52.69,172.52,52.286,171.185z"/>
		<path fill="#A67C52" d="M142.251,205.889c-0.019,0.843-0.666,1.549-1.44,1.574c-31.748,0.998-63.5,1.097-95.253,0.29
			c-0.774-0.02-1.425-0.718-1.449-1.561c-1.423-47.758-2.204-95.519-2.349-143.281c-0.002-0.843,0.65-1.548,1.458-1.572
			c33.044-1.042,66.09-1.143,99.14-0.305c0.807,0.019,1.464,0.721,1.465,1.564C143.937,110.36,143.416,158.122,142.251,205.889z"/>

			<radialGradient id="SVGID_1_" cx="-5206.3433" cy="5020.2549" r="0.7916" gradientTransform="matrix(-0.4806 79.9869 -75.0547 -0.5122 374384.5 419145)" gradientUnits="userSpaceOnUse">
			<stop  offset="0" style="stop-color:#A67C52"/>
			<stop  offset="0.435" style="stop-color:#A47A50"/>
			<stop  offset="0.6494" style="stop-color:#9C7249"/>
			<stop  offset="0.8155" style="stop-color:#8F663C"/>
			<stop  offset="0.9561" style="stop-color:#7D532B"/>
			<stop  offset="1" style="stop-color:#754C24"/>
		</radialGradient>
		<path fill="url(#SVGID_1_)" d="M45.511,206.226c-1.383-47.785-2.147-95.574-2.29-143.361c33.043-1.021,66.091-1.123,99.139-0.305
			c0.117,47.788-0.388,95.581-1.514,143.372C109.071,206.914,77.293,207.011,45.511,206.226z"/>

			<radialGradient id="SVGID_2_" cx="-5208.8545" cy="5023.605" r="0.7917" gradientTransform="matrix(-0.678 112.8473 -105.8889 -0.7225 528505.875 591570.25)" gradientUnits="userSpaceOnUse">
			<stop  offset="0" style="stop-color:#A67C52"/>
			<stop  offset="0.435" style="stop-color:#A47A50"/>
			<stop  offset="0.6494" style="stop-color:#9C7249"/>
			<stop  offset="0.8155" style="stop-color:#8F663C"/>
			<stop  offset="0.9561" style="stop-color:#7D532B"/>
			<stop  offset="1" style="stop-color:#754C24"/>
		</radialGradient>
		<path fill="url(#SVGID_2_)" d="M46.195,205.481c-1.346-47.29-2.093-94.581-2.24-141.875c32.556-0.982,65.116-1.082,97.678-0.299
			c0.108,47.293-0.383,94.587-1.471,141.883C108.841,206.135,77.519,206.23,46.195,205.481z"/>
		<path fill="#85613E" d="M53.103,190.317c-0.864-39.071-1.385-78.142-1.56-117.217c27.515-0.631,55.035-0.716,82.556-0.255
			c0.035,39.076-0.273,78.151-0.926,117.225C106.483,190.627,79.792,190.711,53.103,190.317z"/>
		<path fill="#85613E" d="M107.47,179.616c1.63-0.067,3.26-0.137,4.89-0.207c1.642,0.009,3.282,0.02,4.923,0.027
			c0.207,6.918,0.406,13.836,0.595,20.752c-1.829-1.05-3.66-2.104-5.494-3.161c-1.834,1.135-3.665,2.268-5.494,3.399
			C107.085,193.489,107.278,186.551,107.47,179.616z"/>
		<path fill="#EAEAEA" d="M53.794,189.561c-0.836-38.567-1.343-77.139-1.52-115.712c27.03-0.602,54.06-0.686,81.091-0.249
			c0.032,38.574-0.266,77.147-0.892,115.72C106.249,189.851,80.022,189.931,53.794,189.561z"/>

			<radialGradient id="SVGID_3_" cx="-5207.3779" cy="5021.6558" r="0.7919" gradientTransform="matrix(-0.5471 91.0618 -85.4467 -0.5831 426328.2813 477253.4063)" gradientUnits="userSpaceOnUse">
			<stop  offset="0" style="stop-color:#FAFAFA"/>
			<stop  offset="0.551" style="stop-color:#F8F8F8"/>
			<stop  offset="0.7503" style="stop-color:#F1F1F1"/>
			<stop  offset="0.8922" style="stop-color:#E6E6E6"/>
			<stop  offset="1" style="stop-color:#D6D6D6"/>
		</radialGradient>
		<path fill="url(#SVGID_3_)" d="M131.778,188.567c-25.763,0.508-51.526,0.587-77.291,0.237c-0.806-38.064-1.3-76.133-1.476-114.205
			c26.54-0.577,53.081-0.658,79.625-0.245C132.664,112.428,132.378,150.497,131.778,188.567z"/>
		<path fill="#EAEAEA" d="M114.501,187.721c-0.191,0.073-0.382,0.146-0.574,0.219c-0.17-0.107-0.343-0.218-0.515-0.326
			c-0.196,0.057-0.393,0.114-0.589,0.169c-0.163-0.123-0.324-0.25-0.489-0.373c-0.199,0.037-0.397,0.075-0.597,0.114
			c-0.153-0.14-0.306-0.278-0.459-0.419c-0.202,0.021-0.404,0.041-0.604,0.06c-0.142-0.151-0.283-0.303-0.424-0.457
			c-0.203,0.003-0.404,0.003-0.606,0.005c-0.13-0.166-0.258-0.333-0.387-0.496c-0.202-0.018-0.402-0.035-0.603-0.049
			c-0.115-0.177-0.232-0.354-0.348-0.531c-0.198-0.035-0.397-0.07-0.597-0.105c-0.102-0.186-0.206-0.373-0.305-0.56
			c-0.196-0.052-0.392-0.107-0.587-0.157c-0.087-0.197-0.174-0.393-0.261-0.589c-0.192-0.072-0.382-0.141-0.574-0.212
			c-0.073-0.203-0.144-0.405-0.215-0.608c-0.185-0.088-0.371-0.175-0.554-0.264c-0.056-0.208-0.109-0.419-0.166-0.626
			c-0.178-0.103-0.356-0.207-0.534-0.311c-0.04-0.216-0.077-0.428-0.117-0.644c-0.168-0.119-0.336-0.238-0.505-0.36
			c-0.024-0.216-0.046-0.43-0.068-0.646c-0.159-0.135-0.317-0.27-0.476-0.405c-0.005-0.218-0.013-0.438-0.017-0.655
			c-0.149-0.151-0.297-0.299-0.444-0.448c0.012-0.218,0.02-0.435,0.033-0.653c-0.138-0.162-0.273-0.323-0.408-0.482
			c0.028-0.221,0.056-0.436,0.084-0.653c-0.123-0.174-0.246-0.345-0.368-0.521c0.046-0.215,0.09-0.427,0.133-0.637
			c-0.108-0.184-0.217-0.368-0.326-0.551c0.061-0.208,0.123-0.42,0.183-0.627c-0.095-0.193-0.189-0.387-0.283-0.58
			c0.078-0.201,0.155-0.405,0.23-0.607c-0.078-0.201-0.157-0.401-0.235-0.603c0.091-0.194,0.183-0.391,0.276-0.584
			c-0.063-0.207-0.126-0.417-0.189-0.625c0.107-0.185,0.215-0.373,0.322-0.558c-0.047-0.212-0.094-0.424-0.139-0.635
			c0.12-0.178,0.241-0.352,0.364-0.53c-0.03-0.216-0.062-0.43-0.091-0.645c0.135-0.166,0.267-0.329,0.402-0.496
			c-0.013-0.218-0.025-0.437-0.04-0.656c0.146-0.152,0.295-0.303,0.441-0.455c0.003-0.218,0.007-0.436,0.01-0.652
			c0.161-0.14,0.317-0.279,0.475-0.419c0.02-0.218,0.042-0.433,0.064-0.651c0.169-0.124,0.336-0.249,0.504-0.373
			c0.038-0.215,0.077-0.428,0.114-0.643c0.178-0.108,0.354-0.216,0.531-0.326c0.053-0.21,0.108-0.421,0.163-0.634
			c0.185-0.09,0.371-0.182,0.557-0.274c0.07-0.206,0.14-0.409,0.211-0.613c0.192-0.077,0.384-0.152,0.574-0.229
			c0.087-0.195,0.173-0.395,0.26-0.592c0.196-0.057,0.394-0.116,0.592-0.175c0.102-0.19,0.203-0.377,0.305-0.568
			c0.201-0.041,0.401-0.082,0.599-0.122c0.116-0.179,0.233-0.36,0.348-0.542c0.203-0.023,0.408-0.043,0.611-0.065
			c0.13-0.169,0.259-0.338,0.388-0.507c0.204-0.003,0.408-0.008,0.612-0.01c0.142-0.157,0.283-0.313,0.426-0.469
			c0.204,0.014,0.406,0.028,0.611,0.042c0.155-0.143,0.308-0.287,0.461-0.43c0.202,0.032,0.404,0.065,0.606,0.097
			c0.163-0.131,0.329-0.258,0.491-0.386c0.199,0.048,0.399,0.1,0.595,0.149c0.175-0.114,0.349-0.227,0.521-0.343
			c0.194,0.069,0.387,0.136,0.58,0.202c0.181-0.096,0.363-0.195,0.545-0.293c0.188,0.086,0.373,0.173,0.562,0.255
			c0.188-0.082,0.376-0.162,0.566-0.244c0.179,0.101,0.358,0.202,0.538,0.304c0.194-0.065,0.388-0.129,0.583-0.193
			c0.17,0.116,0.342,0.235,0.513,0.35c0.198-0.047,0.395-0.091,0.594-0.138c0.16,0.133,0.323,0.263,0.483,0.394
			c0.201-0.028,0.404-0.056,0.604-0.085c0.15,0.147,0.3,0.291,0.45,0.438c0.202-0.01,0.404-0.021,0.607-0.03
			c0.137,0.157,0.274,0.317,0.413,0.475c0.201,0.009,0.405,0.016,0.606,0.024c0.125,0.171,0.251,0.343,0.375,0.512
			c0.202,0.027,0.401,0.054,0.602,0.077c0.112,0.182,0.221,0.362,0.333,0.544c0.197,0.046,0.395,0.088,0.59,0.135
			c0.097,0.189,0.194,0.38,0.29,0.571c0.192,0.062,0.387,0.124,0.581,0.184c0.079,0.201,0.16,0.397,0.239,0.597
			c0.188,0.079,0.375,0.157,0.562,0.236c0.064,0.206,0.13,0.409,0.193,0.616c0.18,0.095,0.361,0.19,0.54,0.285
			c0.049,0.212,0.098,0.422,0.146,0.631c0.172,0.113,0.343,0.224,0.514,0.336c0.032,0.212,0.063,0.428,0.096,0.641
			c0.161,0.129,0.323,0.254,0.485,0.38c0.014,0.217,0.029,0.434,0.042,0.651c0.152,0.141,0.305,0.282,0.455,0.423
			c-0.003,0.218-0.005,0.434-0.009,0.652c0.14,0.155,0.279,0.306,0.419,0.461c-0.02,0.217-0.04,0.435-0.059,0.652
			c0.127,0.164,0.251,0.333,0.38,0.496c-0.036,0.217-0.072,0.432-0.11,0.645c0.114,0.178,0.226,0.356,0.339,0.535
			c-0.053,0.21-0.107,0.42-0.161,0.632c0.099,0.186,0.197,0.375,0.296,0.562c-0.07,0.206-0.14,0.409-0.208,0.616
			c0.082,0.197,0.168,0.394,0.25,0.589c-0.085,0.198-0.171,0.396-0.254,0.597c0.068,0.202,0.135,0.405,0.202,0.61
			c-0.1,0.19-0.201,0.38-0.301,0.573c0.051,0.207,0.105,0.416,0.156,0.624c-0.114,0.18-0.229,0.365-0.343,0.546
			c0.034,0.212,0.069,0.428,0.103,0.641c-0.127,0.17-0.253,0.343-0.382,0.514c0.018,0.216,0.034,0.433,0.052,0.648
			c-0.14,0.159-0.281,0.316-0.42,0.477c0.002,0.217,0.003,0.435,0.004,0.653c-0.152,0.145-0.305,0.291-0.456,0.438
			c-0.018,0.216-0.034,0.433-0.05,0.651c-0.16,0.13-0.323,0.263-0.484,0.394c-0.033,0.218-0.067,0.432-0.099,0.648
			c-0.17,0.118-0.343,0.235-0.514,0.352c-0.049,0.212-0.098,0.424-0.146,0.637c-0.181,0.102-0.361,0.204-0.54,0.304
			c-0.065,0.21-0.131,0.417-0.198,0.625c-0.185,0.085-0.373,0.171-0.559,0.255c-0.08,0.199-0.159,0.401-0.241,0.604
			c-0.192,0.067-0.382,0.135-0.574,0.206c-0.097,0.193-0.192,0.387-0.29,0.582c-0.197,0.051-0.393,0.101-0.59,0.151
			c-0.109,0.186-0.219,0.371-0.33,0.556c-0.2,0.033-0.397,0.065-0.596,0.097c-0.124,0.175-0.247,0.35-0.372,0.526
			c-0.201,0.014-0.4,0.029-0.602,0.042c-0.137,0.164-0.273,0.326-0.411,0.493c-0.201-0.005-0.4-0.009-0.601-0.013
			c-0.15,0.151-0.3,0.301-0.448,0.45c-0.198-0.021-0.396-0.043-0.594-0.064c-0.161,0.136-0.321,0.273-0.481,0.41
			c-0.196-0.041-0.392-0.08-0.587-0.121c-0.171,0.122-0.342,0.244-0.51,0.367c-0.191-0.058-0.382-0.118-0.574-0.175
			c-0.178,0.105-0.354,0.213-0.531,0.321c-0.189-0.077-0.375-0.152-0.562-0.227c-0.185,0.089-0.372,0.178-0.555,0.27
			C114.861,187.905,114.682,187.811,114.501,187.721z"/>

			<linearGradient id="SVGID_4_" gradientUnits="userSpaceOnUse" x1="-5183.5796" y1="4994.8896" x2="-5182.7153" y2="4994.8896" gradientTransform="matrix(0.0646 22.2645 -22.2645 0.0646 111658.8672 115272.6094)">
			<stop  offset="0" style="stop-color:#000D2C"/>
			<stop  offset="0.0279" style="stop-color:#001F4B"/>
			<stop  offset="0.0979" style="stop-color:#001F52"/>
			<stop  offset="0.1782" style="stop-color:#003A7A"/>
			<stop  offset="0.2721" style="stop-color:#00477A"/>
			<stop  offset="0.388" style="stop-color:#00538E"/>
			<stop  offset="0.5533" style="stop-color:#00538E"/>
			<stop  offset="1" style="stop-color:#00538E"/>
		</linearGradient>
		<path fill="url(#SVGID_4_)" d="M115.353,201.868c1.942,1.101,3.88,2.199,5.815,3.295c-0.211-7.478-0.43-14.956-0.659-22.438
			c-1.722-0.005-3.446-0.018-5.168-0.028c-1.722,0.073-3.444,0.146-5.164,0.217c-0.212,7.5-0.426,14.997-0.639,22.497
			C111.474,204.234,113.411,203.051,115.353,201.868z"/>

			<linearGradient id="SVGID_5_" gradientUnits="userSpaceOnUse" x1="-5177.1045" y1="4987.2036" x2="-5176.2402" y2="4987.2036" gradientTransform="matrix(0.0535 18.4483 -18.4483 0.0535 92393.9297 95427.9063)">
			<stop  offset="0" style="stop-color:#170000"/>
			<stop  offset="0.0195" style="stop-color:#330000"/>
			<stop  offset="0.0723" style="stop-color:#4E0000"/>
			<stop  offset="0.1537" style="stop-color:#6A0000"/>
			<stop  offset="0.2526" style="stop-color:#7E0000"/>
			<stop  offset="0.3716" style="stop-color:#990000"/>
			<stop  offset="0.5383" style="stop-color:#990000"/>
			<stop  offset="1" style="stop-color:#C50000"/>
		</linearGradient>
		<path fill="url(#SVGID_5_)" d="M111.277,202.456l-0.006,0.001c-0.196-0.001-0.349-0.174-0.344-0.382
			c0.182-6.018,0.362-12.032,0.542-18.048c0.005-0.21,0.171-0.365,0.361-0.377c0.192,0.001,0.348,0.175,0.344,0.385
			c-0.18,6.015-0.366,12.028-0.551,18.047C111.62,202.287,111.466,202.45,111.277,202.456z"/>

			<linearGradient id="SVGID_6_" gradientUnits="userSpaceOnUse" x1="-5177.0103" y1="4987.1987" x2="-5176.146" y2="4987.1987" gradientTransform="matrix(0.0534 18.411 -18.411 0.0534 92214.8672 95233.4141)">
			<stop  offset="0" style="stop-color:#170000"/>
			<stop  offset="0.0195" style="stop-color:#330000"/>
			<stop  offset="0.0723" style="stop-color:#4E0000"/>
			<stop  offset="0.1537" style="stop-color:#6A0000"/>
			<stop  offset="0.2526" style="stop-color:#7E0000"/>
			<stop  offset="0.3716" style="stop-color:#990000"/>
			<stop  offset="0.5383" style="stop-color:#990000"/>
			<stop  offset="1" style="stop-color:#C50000"/>
		</linearGradient>
		<path fill="url(#SVGID_6_)" d="M119.4,202.287c-0.186,0.005-0.344-0.157-0.349-0.365c-0.182-5.999-0.372-12.003-0.566-18.005
			c-0.005-0.212,0.149-0.388,0.343-0.396c0.208,0.009,0.356,0.154,0.362,0.365c0.192,6.003,0.381,12.004,0.563,18.004
			c0.003,0.211-0.15,0.387-0.344,0.397L119.4,202.287L119.4,202.287z"/>

			<radialGradient id="SVGID_7_" cx="-5154.0278" cy="5077.9966" r="0.8967" gradientTransform="matrix(14.0223 -0.0434 0.0407 14.9438 72179.9297 -75934.5313)" gradientUnits="userSpaceOnUse">
			<stop  offset="0.0027" style="stop-color:#002467"/>
			<stop  offset="0.0571" style="stop-color:#00256B"/>
			<stop  offset="0.2753" style="stop-color:#00297A"/>
			<stop  offset="0.8509" style="stop-color:#00498E"/>
			<stop  offset="1" style="stop-color:#00538E"/>
		</radialGradient>
		<path fill="url(#SVGID_7_)" d="M125.714,180.832c-0.161,0.109-0.321,0.221-0.481,0.328c-0.044,0.201-0.092,0.399-0.137,0.595
			c-0.168,0.095-0.336,0.191-0.501,0.285c-0.062,0.195-0.123,0.389-0.185,0.58c-0.174,0.084-0.347,0.161-0.523,0.24
			c-0.074,0.189-0.151,0.376-0.226,0.564c-0.178,0.062-0.357,0.128-0.536,0.191c-0.09,0.182-0.179,0.362-0.268,0.544
			c-0.185,0.046-0.367,0.094-0.551,0.142c-0.102,0.171-0.206,0.345-0.309,0.516c-0.187,0.032-0.372,0.062-0.559,0.093
			c-0.114,0.162-0.232,0.326-0.345,0.49c-0.19,0.012-0.375,0.025-0.564,0.041c-0.128,0.151-0.254,0.305-0.382,0.456
			c-0.187-0.005-0.373-0.007-0.561-0.01c-0.14,0.14-0.279,0.281-0.418,0.421c-0.185-0.02-0.371-0.041-0.556-0.062
			c-0.149,0.13-0.299,0.258-0.448,0.385c-0.183-0.039-0.366-0.076-0.549-0.114c-0.158,0.115-0.316,0.23-0.476,0.343
			c-0.178-0.054-0.357-0.108-0.536-0.163c-0.166,0.1-0.333,0.201-0.499,0.3c-0.174-0.07-0.349-0.142-0.522-0.211
			c-0.174,0.084-0.348,0.168-0.519,0.25c-0.17-0.085-0.337-0.17-0.504-0.257c-0.178,0.069-0.358,0.137-0.536,0.206
			c-0.159-0.102-0.321-0.204-0.48-0.306c-0.182,0.053-0.368,0.105-0.55,0.157c-0.152-0.115-0.305-0.232-0.457-0.349
			c-0.186,0.035-0.372,0.07-0.559,0.109c-0.142-0.131-0.285-0.262-0.427-0.392c-0.189,0.019-0.376,0.038-0.565,0.057
			c-0.131-0.142-0.263-0.285-0.394-0.429c-0.191,0.004-0.378,0.005-0.569,0.007c-0.119-0.155-0.239-0.311-0.36-0.465
			c-0.188-0.016-0.375-0.032-0.564-0.047c-0.108-0.164-0.217-0.328-0.324-0.495c-0.186-0.032-0.372-0.065-0.558-0.098
			c-0.095-0.174-0.19-0.347-0.284-0.522c-0.184-0.051-0.366-0.098-0.548-0.149c-0.081-0.182-0.163-0.364-0.243-0.547
			c-0.178-0.065-0.357-0.13-0.536-0.197c-0.065-0.19-0.134-0.378-0.2-0.569c-0.173-0.081-0.345-0.164-0.516-0.246
			c-0.053-0.194-0.104-0.389-0.156-0.584c-0.164-0.098-0.329-0.195-0.498-0.292c-0.036-0.201-0.074-0.399-0.109-0.599
			c-0.156-0.112-0.314-0.222-0.471-0.335c-0.021-0.203-0.043-0.404-0.063-0.606c-0.148-0.124-0.296-0.25-0.443-0.377
			c-0.008-0.203-0.012-0.405-0.018-0.611c-0.139-0.136-0.276-0.277-0.414-0.415c0.01-0.206,0.021-0.408,0.03-0.612
			c-0.127-0.15-0.252-0.299-0.38-0.452c0.026-0.203,0.051-0.404,0.078-0.606c-0.115-0.161-0.229-0.323-0.344-0.486
			c0.042-0.198,0.084-0.396,0.126-0.598c-0.102-0.17-0.202-0.344-0.306-0.514c0.058-0.195,0.115-0.388,0.171-0.584
			c-0.087-0.182-0.174-0.361-0.263-0.542c0.074-0.189,0.144-0.38,0.216-0.568c-0.075-0.186-0.146-0.376-0.221-0.563
			c0.085-0.183,0.173-0.364,0.258-0.546c-0.058-0.194-0.118-0.387-0.176-0.58c0.1-0.175,0.2-0.348,0.3-0.522
			c-0.044-0.198-0.087-0.396-0.13-0.593c0.111-0.166,0.224-0.329,0.338-0.495c-0.029-0.201-0.056-0.402-0.084-0.603
			c0.125-0.154,0.25-0.308,0.376-0.462c-0.013-0.203-0.024-0.409-0.037-0.612c0.137-0.141,0.274-0.284,0.412-0.425
			c0.004-0.204,0.007-0.406,0.01-0.612c0.148-0.129,0.295-0.258,0.443-0.387c0.019-0.204,0.039-0.406,0.058-0.61
			c0.157-0.115,0.314-0.231,0.472-0.347c0.036-0.199,0.07-0.4,0.107-0.601c0.167-0.1,0.329-0.202,0.495-0.304
			c0.052-0.197,0.102-0.395,0.152-0.59c0.173-0.085,0.346-0.173,0.519-0.257c0.066-0.191,0.133-0.383,0.197-0.576
			c0.179-0.069,0.359-0.14,0.538-0.211c0.08-0.184,0.159-0.371,0.24-0.554c0.184-0.054,0.366-0.108,0.551-0.164
			c0.093-0.177,0.189-0.352,0.285-0.529c0.187-0.036,0.375-0.075,0.56-0.113c0.108-0.168,0.215-0.336,0.323-0.505
			c0.19-0.021,0.38-0.041,0.569-0.061c0.12-0.158,0.242-0.316,0.361-0.472c0.191-0.004,0.382-0.008,0.571-0.01
			c0.135-0.146,0.265-0.292,0.399-0.438c0.189,0.012,0.38,0.025,0.569,0.037c0.145-0.133,0.287-0.266,0.431-0.4
			c0.187,0.029,0.377,0.058,0.565,0.09c0.153-0.122,0.306-0.239,0.46-0.359c0.186,0.045,0.369,0.091,0.554,0.137
			c0.163-0.107,0.323-0.212,0.488-0.317c0.178,0.062,0.359,0.125,0.538,0.19c0.17-0.094,0.339-0.184,0.508-0.275
			c0.176,0.08,0.351,0.158,0.527,0.238c0.174-0.077,0.351-0.152,0.526-0.229c0.168,0.096,0.337,0.189,0.504,0.283
			c0.181-0.057,0.362-0.117,0.541-0.178c0.162,0.11,0.32,0.218,0.48,0.326c0.185-0.04,0.371-0.085,0.555-0.128
			c0.15,0.123,0.3,0.245,0.453,0.367c0.186-0.025,0.373-0.052,0.56-0.079c0.141,0.135,0.282,0.273,0.42,0.408
			c0.19-0.008,0.378-0.02,0.566-0.028c0.13,0.147,0.257,0.299,0.386,0.443c0.188,0.008,0.377,0.014,0.565,0.025
			c0.118,0.157,0.234,0.316,0.351,0.476c0.187,0.025,0.373,0.048,0.56,0.073c0.103,0.17,0.206,0.339,0.31,0.507
			c0.184,0.04,0.368,0.085,0.552,0.123c0.09,0.179,0.18,0.357,0.269,0.535c0.181,0.06,0.361,0.116,0.541,0.175
			c0.075,0.184,0.151,0.368,0.226,0.555c0.174,0.073,0.347,0.146,0.522,0.221c0.061,0.191,0.121,0.385,0.181,0.575
			c0.168,0.086,0.335,0.177,0.504,0.266c0.045,0.197,0.089,0.395,0.135,0.59c0.159,0.105,0.318,0.207,0.48,0.313
			c0.029,0.201,0.059,0.4,0.088,0.599c0.152,0.118,0.301,0.236,0.453,0.356c0.013,0.203,0.029,0.405,0.041,0.607
			c0.14,0.131,0.283,0.262,0.424,0.393c-0.004,0.204-0.005,0.409-0.009,0.611c0.131,0.143,0.26,0.287,0.389,0.432
			c-0.019,0.203-0.036,0.405-0.055,0.606c0.118,0.155,0.237,0.314,0.356,0.466c-0.036,0.201-0.068,0.401-0.102,0.599
			c0.106,0.168,0.211,0.333,0.316,0.498c-0.05,0.197-0.099,0.394-0.149,0.591c0.091,0.175,0.184,0.348,0.277,0.524
			c-0.063,0.191-0.13,0.385-0.195,0.576c0.079,0.183,0.157,0.367,0.234,0.55c-0.08,0.186-0.157,0.372-0.238,0.556
			c0.064,0.19,0.126,0.38,0.19,0.57c-0.094,0.177-0.188,0.356-0.281,0.533c0.048,0.195,0.096,0.392,0.146,0.585
			c-0.107,0.169-0.213,0.339-0.32,0.508c0.031,0.202,0.064,0.4,0.097,0.601c-0.119,0.158-0.238,0.319-0.357,0.479
			c0.017,0.201,0.032,0.404,0.05,0.606c-0.131,0.149-0.261,0.296-0.394,0.444c0.003,0.206,0.003,0.408,0.004,0.611
			c-0.141,0.136-0.283,0.271-0.425,0.409c-0.014,0.203-0.03,0.404-0.044,0.606c-0.151,0.125-0.301,0.248-0.454,0.372
			C125.774,180.429,125.745,180.63,125.714,180.832z"/>
		<path fill="#990000" d="M125.934,173.365c-0.018,6.294-4.763,11.507-10.59,11.619c-5.828,0.109-10.581-4.945-10.62-11.263
			c-0.041-6.318,4.694-11.502,10.58-11.589C121.185,162.043,125.95,167.067,125.934,173.365z"/>
		<path fill="#00538E" d="M125.346,173.375c-0.014,5.951-4.496,10.871-10.002,10.976c-5.507,0.105-9.999-4.669-10.035-10.638
			c-0.037-5.97,4.437-10.867,9.995-10.952C120.862,162.678,125.361,167.426,125.346,173.375z"/>
		<path fill="#448BC9" d="M89.857,176.713c-0.565,0.012-1.07,0.12-1.565,0.185c-0.245,0.034-0.487,0.064-0.709,0.064
			c-0.217,0.008-0.428-0.043-0.465-0.092l-0.019-0.057l-0.004-0.073l0.013-0.203c0.004-0.092,0.01-0.185-0.013-0.322
			c-0.01-0.063-0.031-0.155-0.084-0.26c-0.049-0.108-0.183-0.249-0.332-0.3c-0.314-0.087-0.435,0.008-0.531,0.037
			c-0.101,0.046-0.168,0.087-0.237,0.128c-0.497,0.332-0.865,0.634-1.284,0.905c-0.41,0.271-0.83,0.492-1.262,0.644
			c-0.402,0.139-0.911,0.238-1.257,0.19c-0.375-0.064-0.492-0.186-0.58-0.499c-0.08-0.329-0.032-0.806,0.088-1.249
			c0.029-0.11,0.067-0.228,0.105-0.326l0.065-0.171l0.052-0.137c0.02-0.075,0.052-0.141,0.058-0.334
			c-0.003-0.061-0.002-0.1-0.017-0.175c-0.022-0.097-0.055-0.189-0.109-0.272c-0.146-0.227-0.349-0.311-0.489-0.333
			c-0.235-0.024-0.306,0.023-0.382,0.038c-0.137,0.052-0.21,0.091-0.289,0.133c-0.144,0.081-0.261,0.163-0.378,0.244
			c-0.459,0.32-0.865,0.646-1.279,0.975c-0.645,0.504-1.294,1.032-1.931,1.475c0.094-0.198,0.19-0.405,0.275-0.622
			c0.213-0.546,0.466-1.235,0.277-2.083c-0.024-0.098-0.057-0.208-0.108-0.326c-0.067-0.156-0.045-0.102-0.126-0.262
			c-0.136-0.256-0.439-0.425-0.626-0.447c-0.189-0.032-0.315-0.008-0.43,0.01c-0.411,0.098-0.646,0.247-0.901,0.391
			c-0.963,0.591-1.759,1.257-2.586,1.907c-0.308,0.238-0.614,0.487-0.923,0.728c0.031-0.06,0.066-0.118,0.096-0.19
			c0.071-0.185,0.18-0.455,0.08-0.862c-0.031-0.096-0.068-0.186-0.129-0.282c-0.055-0.088-0.184-0.217-0.182-0.209l-0.038-0.033
			l-0.072-0.056l-0.023-0.013l-0.094-0.061c-0.128-0.083-0.257-0.16-0.389-0.225c-0.145-0.073-0.291-0.138-0.439-0.198
			c0.411-0.982,0.793-2.013,1.365-2.803l0.007-0.01c0.115-0.162,0.093-0.394-0.054-0.527c-0.15-0.14-0.375-0.122-0.503,0.037
			c-0.719,0.907-1.141,1.922-1.599,2.906l-0.067,0.151c-0.134-0.025-0.273-0.041-0.415-0.051c-0.321-0.005-0.633,0.007-1.022,0.188
			l-0.143,0.079l-0.08,0.054l-0.038,0.028c-0.095,0.075-0.069,0.057-0.108,0.092l-0.119,0.131c-0.133,0.171-0.206,0.324-0.273,0.477
			c-0.251,0.597-0.361,1.164-0.432,1.766c-0.031,0.301-0.049,0.603-0.021,0.944c0.019,0.173,0.036,0.348,0.13,0.585
			c0.049,0.117,0.124,0.266,0.291,0.401c0.181,0.137,0.406,0.186,0.633,0.126c0.096-0.033,0.02-0.002,0.162-0.062l0.168-0.108
			c0.08-0.072,0.156-0.147,0.208-0.212c0.116-0.139,0.196-0.27,0.276-0.397c0.151-0.26,0.275-0.513,0.392-0.767
			c0.282-0.623,0.532-1.242,0.777-1.864c0.135,0.055,0.267,0.115,0.395,0.183c0.067,0.037,0.13,0.078,0.194,0.119l-0.086,0.141
			c-0.261,0.367-0.628,0.733-0.993,1.199c-0.093,0.124-0.187,0.246-0.286,0.439c-0.047,0.1-0.102,0.207-0.134,0.403
			c-0.038,0.183-0.001,0.54,0.203,0.769c0.102,0.106,0.137,0.153,0.307,0.24l0.035,0.014l0.136,0.041
			c0.111,0.025,0.137,0.015,0.186,0.019c0.176-0.008,0.283-0.042,0.374-0.073c0.185-0.067,0.316-0.141,0.446-0.212
			c0.981-0.591,1.756-1.253,2.59-1.893c0.815-0.63,1.64-1.291,2.452-1.776c0.075-0.047,0.154-0.089,0.23-0.125
			c0.004,0.246-0.078,0.584-0.232,0.942c-0.185,0.461-0.452,0.884-0.679,1.545c-0.052,0.179-0.115,0.379-0.103,0.686
			c0.007,0.156,0.045,0.345,0.138,0.524l0.074,0.128c0.163,0.198,0.012,0.026,0.147,0.164c0.105,0.095,0.24,0.155,0.29,0.167
			c0.077,0.026,0.137,0.036,0.189,0.041c0.414,0.012,0.533-0.093,0.701-0.155c0.153-0.073,0.282-0.146,0.407-0.222
			c0.954-0.614,1.735-1.296,2.555-1.952c0.158-0.128,0.316-0.256,0.473-0.383c-0.034,0.378-0.019,0.774,0.091,1.201
			c0.1,0.367,0.323,0.76,0.651,1.021c0.327,0.261,0.702,0.367,1.027,0.393c1.286,0.053,2.298-0.503,3.206-1.136
			c0.346-0.239,0.678-0.531,0.977-0.778l0.02,0.116c0.048,0.224,0.196,0.482,0.395,0.616c0.398,0.265,0.728,0.234,1.013,0.228
			c0.29-0.019,0.552-0.067,0.811-0.12c0.511-0.108,1.006-0.246,1.46-0.289l0.01-0.001c0.189-0.018,0.332-0.189,0.327-0.392
			C90.217,176.877,90.054,176.71,89.857,176.713z M70.969,175.662l0.025,0.022l-0.03-0.025L70.969,175.662z M67.939,177.586
			l0.019-0.001L67.939,177.586z M68.573,176.619c-0.106,0.21-0.218,0.41-0.332,0.592c0.006-0.14,0.016-0.287,0.034-0.435
			c0.066-0.486,0.189-0.999,0.367-1.393c0.043-0.092,0.095-0.179,0.127-0.217l0.01-0.008l0.006-0.006l0.081-0.053l0.031-0.007
			c0.072-0.03,0.239-0.062,0.409-0.056C69.069,175.577,68.828,176.109,68.573,176.619z M76.549,174.637h-0.002H76.549z
			 M86.163,176.429l-0.002-0.021L86.163,176.429z"/>
		<g>
			<path fill="#CDD1DB" d="M125.825,99.417c0,0.638-0.905,1.153-2.02,1.154c-20.407-0.015-40.815,0.02-61.222,0.101
				c-1.116,0.006-2.024-0.509-2.031-1.148c-0.006-0.637,0.893-1.158,2.01-1.163c20.415-0.086,40.828-0.12,61.243-0.102
				C124.919,98.261,125.824,98.778,125.825,99.417z"/>
		</g>
		<path fill="#CDD1DB" d="M116.681,112.773c-0.002,0.639-0.491,1.153-1.092,1.153c-15.107-0.009-30.212,0.037-45.318,0.139
			c-0.602,0.005-1.095-0.507-1.098-1.145c-0.005-0.638,0.48-1.159,1.081-1.163c15.113-0.108,30.225-0.155,45.338-0.14
			C116.195,111.615,116.683,112.135,116.681,112.773z"/>
		<path fill="#CDD1DB" d="M116.666,120.467c-0.002,0.637-0.49,1.156-1.091,1.156c-15.083,0.01-30.164,0.057-45.247,0.139
			c-0.601,0.001-1.093-0.509-1.097-1.148c-0.005-0.637,0.479-1.157,1.08-1.161c15.089-0.088,30.178-0.134,45.267-0.138
			C116.18,119.313,116.667,119.83,116.666,120.467z"/>
		<path fill="#CDD1DB" d="M116.644,128.162c-0.002,0.638-0.491,1.156-1.09,1.156c-15.056,0.032-30.11,0.079-45.163,0.141
			c-0.601,0.001-1.092-0.51-1.098-1.153c-0.004-0.637,0.476-1.153,1.078-1.158c15.063-0.067,30.127-0.114,45.189-0.138
			C116.16,127.01,116.645,127.524,116.644,128.162z"/>
		<path fill="#CDD1DB" d="M116.616,135.855c-0.001,0.639-0.489,1.158-1.088,1.16c-15.023,0.051-30.048,0.098-45.071,0.139
			c-0.598,0.003-1.091-0.513-1.096-1.152c-0.004-0.639,0.477-1.154,1.076-1.158c15.033-0.048,30.067-0.092,45.102-0.14
			C116.135,134.704,116.619,135.221,116.616,135.855z"/>
		<path fill="none" d="M114.737,145.121c-0.004,1.68-0.465,3.047-1.032,3.053c-14.218,0.185-28.436,0.314-42.654,0.365
			c-0.565,0-1.032-1.356-1.038-3.034c-0.004-1.675,0.45-3.039,1.017-3.039c14.229-0.071,28.456-0.191,42.684-0.365
			C114.282,142.096,114.74,143.447,114.737,145.121z"/>
		<path fill="#CDD1DB" d="M125.825,151.247c-0.007,0.638-0.69,1.158-1.528,1.162c-21.018,0.09-42.036,0.136-63.055,0.139
			c-0.838-0.003-1.525-0.519-1.535-1.156c-0.01-0.637,0.663-1.153,1.501-1.154c21.035-0.007,42.07-0.053,63.104-0.137
			C125.149,150.097,125.829,150.61,125.825,151.247z"/>
	</g>
	<g>
		<rect x="64.29" y="87.907" fill="none" width="65.267" height="15.217"/>
		<path d="M73.377,93.443l-0.933,3.462c-0.382,1.414-0.671,2.238-0.868,2.473c-0.197,0.234-0.72,0.379-1.57,0.435
			c0.433-0.583,0.892-1.505,1.375-2.765c-0.843,0.804-1.712,1.205-2.606,1.205c-0.906,0-1.656-0.304-2.249-0.913
			c-0.593-0.609-0.889-1.379-0.889-2.313c0-1.497,0.637-2.827,1.911-3.991c1.274-1.164,2.73-1.746,4.369-1.746
			c1.091,0,1.637,0.218,1.637,0.656c0,0.185-0.189,0.494-0.567,0.928c-0.04,0.043-0.095,0.108-0.166,0.195
			c-0.275-0.653-0.84-0.98-1.694-0.981c-1.145,0.001-2.139,0.458-2.98,1.371s-1.263,1.993-1.264,3.237
			c0.001,0.835,0.215,1.503,0.641,2.003c0.427,0.5,0.992,0.75,1.696,0.751c0.634-0.001,1.186-0.239,1.659-0.716
			c0.472-0.476,0.787-1.116,0.944-1.92l0.047-0.254c-1.216,0-2.19,0.168-2.922,0.502c0.15-0.504,0.329-0.822,0.537-0.954
			c0.208-0.132,0.689-0.233,1.44-0.304l0.738-0.059C72.248,93.697,72.818,93.597,73.377,93.443z"/>
		<path d="M74.553,96.191c0,0.642,0.176,1.146,0.529,1.513c0.353,0.366,0.84,0.549,1.462,0.549c0.551,0,1.03-0.166,1.435-0.496
			c0.405-0.331,0.608-0.719,0.608-1.164c0-0.476-0.447-1.132-1.341-1.967l-0.65-0.603c-0.831-0.772-1.247-1.483-1.247-2.133
			c0-0.756,0.295-1.378,0.886-1.867c0.591-0.488,1.343-0.733,2.257-0.733c0.485,0,0.876,0.074,1.176,0.222
			c0.299,0.148,0.449,0.34,0.449,0.576c0,0.233-0.106,0.502-0.319,0.81c-0.343-0.662-0.9-0.993-1.672-0.993
			c-0.481,0-0.885,0.149-1.214,0.446c-0.329,0.298-0.493,0.664-0.493,1.102c0,0.291,0.054,0.514,0.162,0.668
			c0.108,0.153,0.444,0.488,1.008,1.004l0.532,0.491c0.969,0.902,1.454,1.712,1.454,2.428c0,0.835-0.331,1.527-0.993,2.077
			c-0.662,0.549-1.495,0.824-2.499,0.824c-0.674,0-1.23-0.158-1.669-0.472c-0.439-0.315-0.659-0.713-0.659-1.193
			C73.755,96.951,74.021,96.589,74.553,96.191z"/>
		<path d="M82.948,95.346L82.83,95.57c-0.496,0.926-0.745,1.642-0.745,2.151c0,0.15,0.057,0.295,0.172,0.437
			c-0.095,0.032-0.307,0.108-0.638,0.23c-0.153,0.055-0.299,0.082-0.437,0.082c-0.276,0-0.414-0.132-0.414-0.396
			c0-0.547,0.34-1.383,1.022-2.505l0.183-0.301h-0.301c-0.646,0-1.146,0.101-1.501,0.301c0.185-0.665,0.684-0.998,1.495-0.998
			l0.733,0.018l0.16-0.237c0.618-0.929,1.564-2.18,2.836-3.752c0.429-0.532,0.75-0.862,0.963-0.993s0.624-0.248,1.235-0.355
			c-0.114,0.709-0.172,1.369-0.172,1.979c0,1.619,0.187,3.259,0.562,4.921c0.205,0.914,0.518,1.503,0.939,1.767
			c-0.37,0.366-0.688,0.549-0.951,0.549c-0.623,0-1.103-1.067-1.442-3.202c-0.65,0.071-1.306,0.106-1.967,0.106L82.948,95.346z
			 M83.373,94.648l1.194,0.03c0.815,0,1.439-0.027,1.873-0.083c-0.182-1.383-0.272-2.529-0.272-3.439l0.006-0.443
			c-0.13,0.166-0.422,0.524-0.874,1.075c-0.819,1.004-1.42,1.881-1.802,2.629L83.373,94.648z"/>
		<path d="M94.629,96.191c0,0.642,0.176,1.146,0.529,1.513c0.353,0.366,0.84,0.549,1.462,0.549c0.552,0,1.03-0.166,1.436-0.496
			c0.405-0.331,0.608-0.719,0.608-1.164c0-0.476-0.447-1.132-1.341-1.967l-0.65-0.603c-0.832-0.772-1.247-1.483-1.247-2.133
			c0-0.756,0.295-1.378,0.886-1.867c0.591-0.488,1.344-0.733,2.257-0.733c0.485,0,0.877,0.074,1.176,0.222
			c0.299,0.148,0.449,0.34,0.449,0.576c0,0.233-0.106,0.502-0.319,0.81c-0.343-0.662-0.9-0.993-1.673-0.993
			c-0.48,0-0.885,0.149-1.214,0.446c-0.329,0.298-0.493,0.664-0.493,1.102c0,0.291,0.054,0.514,0.162,0.668s0.444,0.488,1.008,1.004
			l0.532,0.491c0.969,0.902,1.454,1.712,1.454,2.428c0,0.835-0.331,1.527-0.993,2.077c-0.662,0.549-1.495,0.824-2.5,0.824
			c-0.674,0-1.23-0.158-1.669-0.472c-0.439-0.315-0.659-0.713-0.659-1.193C93.831,96.951,94.097,96.589,94.629,96.191z"/>
		<path d="M106.457,94.643c-0.505,1.044-1.127,1.931-1.866,2.661c-0.74,0.731-1.384,1.096-1.932,1.096
			c-0.418,0-0.752-0.186-1.003-0.558c-0.25-0.372-0.376-0.867-0.376-1.486c0-1.233,0.373-2.318,1.121-3.255
			c0.747-0.937,1.611-1.406,2.593-1.406c0.596,0,1.24,0.185,1.934,0.555c0.103-0.366,0.52-0.549,1.252-0.549
			c0.047,0,0.124,0.002,0.23,0.006c-0.224,0.343-0.396,0.812-0.514,1.406l-0.101,0.502c-0.114,0.559-0.172,1.213-0.172,1.961
			c0,0.862,0.201,1.294,0.603,1.294c0.425,0,1.007-0.355,1.746-1.066c0.738-0.711,1.464-1.616,2.177-2.715l0.461,0.319
			c-0.729,1.3-1.562,2.384-2.499,3.253s-1.743,1.303-2.417,1.303c-0.851,0-1.276-0.709-1.276-2.127
			C106.421,95.541,106.433,95.143,106.457,94.643z M106.734,93.23c-0.828-0.54-1.517-0.81-2.065-0.81
			c-0.596,0-1.11,0.361-1.544,1.084c-0.434,0.723-0.651,1.581-0.651,2.573c0,0.796,0.261,1.193,0.781,1.193
			c0.564,0,1.642-1.237,3.236-3.71C106.511,93.53,106.593,93.42,106.734,93.23z"/>
		<path d="M117.517,93.437c-0.815,1.548-1.635,2.762-2.458,3.643c-0.823,0.881-1.552,1.321-2.186,1.321
			c-0.461,0-0.833-0.178-1.117-0.535c-0.284-0.356-0.425-0.822-0.425-1.398c0-0.323,0.059-0.78,0.177-1.371l1.176-5.92
			c-0.153,0.024-0.287,0.035-0.401,0.035c-0.906,0-1.359-0.378-1.359-1.135v-0.136c0.472,0.268,1.007,0.402,1.601,0.402
			s1.114-0.148,1.56-0.443l-1.371,7.108c-0.122,0.638-0.183,1.077-0.183,1.318c0,0.665,0.244,0.998,0.733,0.998
			c0.472,0,0.949-0.267,1.427-0.801c0.479-0.534,1.264-1.671,2.355-3.412L117.517,93.437z"/>
		<path d="M117.074,95.792c0,1.152,0.488,1.728,1.465,1.728c0.847,0,1.78-0.403,2.801-1.208s1.94-1.867,2.759-3.183l0.502,0.277
			c-0.772,1.441-1.775,2.633-3.011,3.578c-1.234,0.945-2.405,1.417-3.512,1.417c-0.709,0-1.269-0.228-1.681-0.685
			c-0.412-0.457-0.618-1.081-0.618-1.873c0-1.142,0.373-2.119,1.119-2.93c0.746-0.811,1.646-1.217,2.697-1.217
			c0.508,0,0.915,0.128,1.22,0.384c0.305,0.256,0.458,0.598,0.458,1.027c0,0.705-0.424,1.329-1.273,1.872
			C119.153,95.521,118.176,95.792,117.074,95.792z M117.121,95.225c0.823-0.043,1.529-0.279,2.118-0.707
			c0.589-0.428,0.883-0.923,0.883-1.485c0-0.503-0.224-0.754-0.674-0.754c-0.536,0-1.03,0.287-1.483,0.86
			C117.513,93.713,117.231,94.409,117.121,95.225z"/>
	</g>
	<g>
		<rect x="55.123" y="142.101" fill="none" width="73.783" height="11.377"/>
		<path d="M64.219,143.161l-1.214,6.241c0.332-0.046,0.586-0.069,0.762-0.069c0.401,0,0.669,0.062,0.804,0.185
			c0.134,0.123,0.201,0.369,0.201,0.737c-0.161-0.106-0.379-0.159-0.653-0.159c-0.301,0-0.667,0.026-1.096,0.078l-0.662,0.082
			c-0.204,0.027-0.484,0.069-0.84,0.124c-0.115,0.018-0.23,0.028-0.343,0.028c-0.335,0-0.53-0.287-0.585-0.859
			c0.158,0.079,0.317,0.119,0.475,0.119c0.329,0,0.661-0.04,0.995-0.119l1.009-5.086c-0.502,0.246-0.899,0.37-1.192,0.37
			c-0.438,0-0.657-0.283-0.657-0.849v-0.128c0.183,0.162,0.394,0.242,0.635,0.242c0.399,0,1.076-0.261,2.032-0.781
			C63.929,143.295,64.039,143.243,64.219,143.161z"/>
		<path d="M68.432,150.264c-0.596,0-1.072-0.224-1.427-0.673c-0.355-0.449-0.532-1.053-0.532-1.811c0-1.245,0.353-2.325,1.057-3.239
			c0.705-0.915,1.538-1.372,2.499-1.372c0.627,0,1.119,0.224,1.475,0.672c0.356,0.448,0.534,1.064,0.534,1.849
			c0,1.245-0.356,2.319-1.068,3.221C70.258,149.812,69.412,150.264,68.432,150.264z M68.807,149.758
			c0.591,0,1.111-0.387,1.561-1.162c0.45-0.775,0.676-1.669,0.676-2.682c0-1.486-0.457-2.228-1.37-2.228
			c-0.591,0-1.107,0.384-1.548,1.153c-0.441,0.769-0.662,1.665-0.662,2.692C67.464,149.015,67.912,149.758,68.807,149.758z"/>
		<path d="M72.651,151.05c0.101,0.021,0.184,0.032,0.251,0.032c0.216,0,0.4-0.092,0.552-0.276c0.152-0.184,0.228-0.406,0.228-0.664
			c0-0.381-0.189-0.7-0.566-0.959c0.32-0.219,0.607-0.329,0.863-0.329c0.423,0,0.635,0.245,0.635,0.735
			c0,0.469-0.168,0.91-0.504,1.324c-0.336,0.414-0.695,0.621-1.075,0.621C72.821,151.534,72.694,151.373,72.651,151.05z"/>
		<path d="M78.002,150.264c-0.596,0-1.072-0.224-1.427-0.673s-0.532-1.053-0.532-1.811c0-1.245,0.353-2.325,1.057-3.239
			c0.705-0.915,1.538-1.372,2.499-1.372c0.627,0,1.119,0.224,1.475,0.672c0.356,0.448,0.534,1.064,0.534,1.849
			c0,1.245-0.356,2.319-1.068,3.221C79.828,149.812,78.981,150.264,78.002,150.264z M78.376,149.758
			c0.591,0,1.111-0.387,1.561-1.162c0.45-0.775,0.676-1.669,0.676-2.682c0-1.486-0.457-2.228-1.369-2.228
			c-0.591,0-1.107,0.384-1.548,1.153c-0.441,0.769-0.662,1.665-0.662,2.692C77.034,149.015,77.481,149.758,78.376,149.758z"/>
		<path d="M84.311,150.264c-0.596,0-1.072-0.224-1.427-0.673c-0.355-0.449-0.532-1.053-0.532-1.811c0-1.245,0.353-2.325,1.057-3.239
			c0.705-0.915,1.538-1.372,2.499-1.372c0.627,0,1.119,0.224,1.475,0.672c0.356,0.448,0.534,1.064,0.534,1.849
			c0,1.245-0.356,2.319-1.068,3.221C86.137,149.812,85.291,150.264,84.311,150.264z M84.685,149.758
			c0.591,0,1.111-0.387,1.561-1.162c0.45-0.775,0.676-1.669,0.676-2.682c0-1.486-0.457-2.228-1.369-2.228
			c-0.591,0-1.107,0.384-1.548,1.153c-0.441,0.769-0.662,1.665-0.662,2.692C83.343,149.015,83.79,149.758,84.685,149.758z"/>
		<path d="M90.62,150.264c-0.596,0-1.072-0.224-1.427-0.673c-0.355-0.449-0.532-1.053-0.532-1.811c0-1.245,0.353-2.325,1.057-3.239
			c0.705-0.915,1.538-1.372,2.499-1.372c0.628,0,1.119,0.224,1.475,0.672c0.356,0.448,0.534,1.064,0.534,1.849
			c0,1.245-0.355,2.319-1.068,3.221C92.447,149.812,91.6,150.264,90.62,150.264z M90.994,149.758c0.591,0,1.112-0.387,1.562-1.162
			c0.45-0.775,0.676-1.669,0.676-2.682c0-1.486-0.457-2.228-1.369-2.228c-0.591,0-1.107,0.384-1.548,1.153
			c-0.441,0.769-0.662,1.665-0.662,2.692C89.652,149.015,90.1,149.758,90.994,149.758z"/>
		<path d="M102.851,148.064c-0.916,1.318-1.816,1.977-2.698,1.977c-0.478,0-0.872-0.174-1.182-0.522
			c-0.31-0.349-0.466-0.791-0.466-1.327c0-1.074,0.417-2.5,1.251-4.277c-0.253,0.048-0.487,0.073-0.703,0.073
			c-0.283,0-0.492-0.071-0.625-0.212c-0.134-0.142-0.227-0.388-0.278-0.738c0.228,0.179,0.523,0.269,0.885,0.269
			c0.207,0,0.898-0.053,2.073-0.16c-1.075,2.1-1.612,3.702-1.612,4.807c0,0.396,0.098,0.72,0.294,0.973
			c0.196,0.252,0.448,0.378,0.756,0.378c0.432,0,0.86-0.212,1.285-0.636c0.424-0.425,0.824-1.041,1.198-1.847
			c0.268-1.482,0.506-2.394,0.714-2.735c0.208-0.341,0.63-0.512,1.262-0.512c-0.277,0.356-0.551,1.099-0.822,2.23
			c-0.271,1.131-0.406,2.097-0.406,2.897c0,0.63,0.192,0.945,0.575,0.945c0.241,0,0.524-0.129,0.849-0.388
			c0.012,0.073,0.018,0.128,0.018,0.164c0,0.207-0.125,0.399-0.375,0.575c-0.25,0.177-0.52,0.265-0.813,0.265
			c-0.818,0-1.228-0.52-1.228-1.561C102.806,148.557,102.821,148.344,102.851,148.064z"/>
		<path d="M107.796,148.457c1.081-2.285,2.051-3.428,2.913-3.428c0.673,0,1.009,0.669,1.009,2.009l0.009,0.552
			c0,0.639,0.033,1.081,0.098,1.327c0.065,0.245,0.185,0.367,0.358,0.367c0.262,0,0.559-0.208,0.893-0.626
			c0.333-0.417,0.876-1.255,1.627-2.515l0.383,0.223c-0.67,1.263-1.269,2.201-1.799,2.812c-0.53,0.612-1.004,0.918-1.424,0.918
			c-0.387,0-0.658-0.188-0.815-0.562s-0.235-1.022-0.235-1.945l-0.005-0.393c0-0.499-0.032-0.85-0.096-1.052
			c-0.064-0.202-0.175-0.304-0.333-0.304c-0.401,0-1.049,0.802-1.94,2.406c-0.219,0.393-0.36,0.646-0.425,0.758
			c-0.234,0.408-0.351,0.703-0.351,0.885c0,0.073,0.02,0.144,0.059,0.21c-0.176,0.073-0.326,0.109-0.447,0.109
			c-0.308,0-0.461-0.171-0.461-0.511c0-0.097,0.04-0.536,0.119-1.315l0.101-0.991c0.046-0.42,0.068-0.746,0.068-0.977
			c0-0.323-0.073-0.577-0.219-0.763c0.064-0.021,0.171-0.057,0.32-0.109c0.189-0.067,0.339-0.101,0.452-0.101
			c0.238,0,0.356,0.173,0.356,0.52c0,0.183-0.023,0.496-0.069,0.94c-0.009,0.098-0.018,0.19-0.027,0.279L107.796,148.457z"/>
		<path d="M119.237,146.359c-0.688,1.206-1.384,2.149-2.087,2.83c-0.703,0.681-1.335,1.02-1.894,1.02
			c-0.341,0-0.616-0.111-0.824-0.333c-0.208-0.222-0.312-0.515-0.312-0.877c0-0.137,0.031-0.355,0.091-0.653l0.101-0.502
			c0.149-0.724,0.223-1.233,0.223-1.525c0-0.173-0.052-0.315-0.155-0.425c0.395-0.091,0.644-0.137,0.744-0.137
			c0.225,0,0.338,0.158,0.338,0.474c0,0.234-0.044,0.57-0.132,1.008l-0.178,0.889c-0.088,0.428-0.132,0.707-0.132,0.835
			c0,0.377,0.159,0.565,0.479,0.565c0.38,0,0.887-0.32,1.52-0.96c0.633-0.64,1.247-1.451,1.84-2.433L119.237,146.359z
			 M115.173,144.061l0.064,0.005c0.203-0.009,0.497-0.112,0.879-0.309c0.382-0.196,0.681-0.397,0.897-0.601
			c-0.134,0.42-0.371,0.771-0.712,1.054c-0.517,0.432-0.867,0.648-1.05,0.648c-0.122,0-0.183-0.074-0.183-0.223
			C115.069,144.423,115.104,144.231,115.173,144.061z"/>
		<path d="M121.429,148.288c0.081,0.149,0.123,0.28,0.123,0.393c0,0.298-0.252,0.628-0.756,0.988
			c-0.504,0.361-0.963,0.541-1.376,0.541c-0.365,0-0.663-0.163-0.893-0.488c-0.23-0.326-0.345-0.746-0.345-1.26
			c0-0.573,0.15-1.387,0.452-2.443l0.21-0.767h-0.771c-0.323,0-0.58,0.046-0.771,0.137c0.176-0.321,0.322-0.521,0.438-0.603
			c0.116-0.081,0.311-0.123,0.589-0.123h0.69l0.091-0.316c0.14-0.47,0.307-0.793,0.502-0.969c0.195-0.175,0.487-0.263,0.877-0.263
			c0.046,0,0.119,0.003,0.219,0.009c-0.238,0.306-0.483,0.818-0.739,1.539h2.411c0.423,0,0.745-0.056,0.968-0.165
			c-0.076,0.311-0.178,0.516-0.304,0.611c-0.126,0.096-0.361,0.143-0.705,0.143h-2.566c-0.031,0.101-0.053,0.175-0.069,0.224
			c-0.368,1.253-0.552,2.201-0.552,2.84c0,0.706,0.254,1.059,0.763,1.059c0.262,0,0.547-0.111,0.856-0.333
			C121.078,148.819,121.298,148.568,121.429,148.288z"/>
		<path d="M124.793,148.488c0.103,0.231,0.155,0.452,0.155,0.662c0,0.466-0.195,0.871-0.585,1.217
			c-0.389,0.345-0.846,0.518-1.37,0.518c-0.307,0-0.569-0.079-0.785-0.238c-0.216-0.158-0.324-0.349-0.324-0.57
			c0-0.238,0.149-0.478,0.445-0.722c0.297-0.244,0.794-0.533,1.491-0.867l-0.365-0.589c-0.445-0.715-0.667-1.273-0.667-1.675
			c0-0.579,0.337-1.044,1.009-1.397c0.414,0.158,0.621,0.357,0.621,0.598c0,0.341-0.263,0.668-0.79,0.982l0.521,0.959l0.406,0.74
			c0.581-0.347,1.02-0.645,1.315-0.893s0.668-0.63,1.118-1.148l0.365,0.224C126.7,147.165,125.846,147.898,124.793,148.488z
			 M124.017,148.9c-0.895,0.481-1.342,0.854-1.342,1.118c0,0.25,0.181,0.375,0.543,0.375c0.267,0,0.485-0.09,0.653-0.271
			c0.168-0.181,0.251-0.415,0.251-0.701C124.122,149.249,124.087,149.076,124.017,148.9z"/>
	</g>
</g>
<g id="Layer_2">
	<path fill="#FFFFFF" d="M117.607,174.984c0,1.613-1.267,2.287-2.728,2.24c-0.519-0.016-1.024-0.148-1.574-0.327l0.125-1.161
		c0.466,0.192,1.069,0.399,1.575,0.392c0.66-0.01,1.32-0.317,1.32-1.081c0-0.589-0.471-0.878-0.927-1.109
		c-1.008-0.512-2.167-0.866-2.167-2.295c0-1.351,1.074-2.055,2.405-2.055c0.484,0,1.061,0.084,1.642,0.29l-0.174,1.143
		c-0.631-0.247-0.908-0.335-1.426-0.335c-0.574,0-1.165,0.202-1.165,0.865c0,0.518,0.531,0.786,0.927,0.984
		C116.509,173.067,117.607,173.506,117.607,174.984"/>
	<path fill="#FFFFFF" d="M111.595,176.877c-0.465,0.159-1.176,0.347-2.311,0.347c-2.329,0-3.888-1.506-3.888-3.849
		c0-2.274,1.655-3.788,3.899-3.788c1.065,0,1.541,0.158,2.214,0.391l-0.101,1.274c-0.62-0.405-1.147-0.567-2.061-0.567
		c-1.605,0-2.676,1.161-2.669,2.721c0.008,1.678,1.174,2.721,2.617,2.721c0.43,0,0.796-0.031,1.059-0.101v-1.912h-1.388v-1.077h2.63
		L111.595,176.877"/>
	<polyline fill="#FFFFFF" points="121.743,169.425 123.512,173.367 122.279,173.367 121.743,172.057 121.205,173.367
		119.973,173.367 121.743,169.425 	"/>
	<polyline fill="#FFFFFF" points="123.532,173.413 125.18,177.094 123.885,177.094 122.654,174.236 123.532,173.413 	"/>
	<polyline fill="#FFFFFF" points="119.952,173.414 120.83,174.236 120.182,175.719 121.74,174.902 122.637,175.593 119.569,177.094
		118.305,177.094 119.952,173.414 	"/>
</g>
</svg>
