<?xml version="1.0" encoding="utf-8"?>
<!-- Generator: Adobe Illustrator 17.0.0, SVG Export Plug-In . SVG Version: 6.00 Build 0)  -->
<!DOCTYPE svg PUBLIC "-//W3C//DTD SVG 1.1//EN" "http://www.w3.org/Graphics/SVG/1.1/DTD/svg11.dtd">
<svg version="1.1" id="Award" xmlns="http://www.w3.org/2000/svg" x="0px" y="0px"
     width="163.234px" height="225.857px" viewBox="66.778 92.396 163.234 225.857"
     enable-background="new 66.778 92.396 163.234 225.857" xml:space="preserve">
<g>

		<radialGradient id="SVGID_1_" cx="757.212" cy="495.641" r="32.5151" gradientTransform="matrix(0.9046 0 0 0.964 -517.1352 -234.768)" gradientUnits="userSpaceOnUse">
		<stop  offset="0" style="stop-color:#546262"/>
		<stop  offset="0.398" style="stop-color:#515F5F"/>
		<stop  offset="0.7214" style="stop-color:#485555"/>
		<stop  offset="1" style="stop-color:#394545"/>
	</radialGradient>
	<path fill="url(#SVGID_1_)" d="M185.763,256.512c0-0.001-0.788,0.072-2.198,0.13c-1.41,0.059-3.448,0.101-5.943-0.053
		c-2.494-0.16-5.453-0.522-8.632-1.33c-3.173-0.8-6.564-2.072-9.777-3.894c-2.694-1.517-5.248-3.426-7.46-5.58
		c-2.218-2.151-4.095-4.534-5.591-6.913c-3.004-4.78-4.495-9.474-5.016-12.767c-0.229-1.328,0.443-3.429,2.417-3.914
		c1.946-0.481,3.417,0.469,3.998,1.384c1.415,2.289,3.487,5.635,6.362,8.66c2.853,3.049,6.521,5.629,10.41,6.994
		c4.635,1.687,9.497,1.688,13.091,1.238c3.606-0.455,5.956-1.19,5.954-1.169c0,0,1.305,0.118,2.848,1.065
		c1.533,0.953,3.375,2.707,4.212,6.319c0.838,3.618-0.227,6.118-1.629,7.685C187.418,255.933,185.761,256.518,185.763,256.512z"/>
	<path fill="#485454" d="M190.437,246.682c-0.837-3.612-2.679-5.366-4.212-6.319c-1.543-0.947-2.845-1.063-2.845-1.063
		c-0.003-0.006-0.96,0.269-2.592,0.614c-0.378,1.31-1.108,4.193-0.884,8.519c0.226,4.33,1.539,7.061,2.347,8.252
		c2.224-0.053,3.511-0.177,3.512-0.172c-0.003,0.006,1.654-0.58,3.045-2.146C190.21,252.8,191.275,250.3,190.437,246.682z"/>

		<radialGradient id="SVGID_2_" cx="777.8912" cy="502.5998" r="10.7926" gradientTransform="matrix(0.9046 0 0 0.964 -517.1352 -234.768)" gradientUnits="userSpaceOnUse">
		<stop  offset="0" style="stop-color:#546262"/>
		<stop  offset="0.398" style="stop-color:#515F5F"/>
		<stop  offset="0.7214" style="stop-color:#485555"/>
		<stop  offset="1" style="stop-color:#394545"/>
	</radialGradient>
	<path fill="url(#SVGID_2_)" d="M190.255,256.01c-1.94,0.477-3.919,0.88-5.936,1.19c-0.419,0.062-0.969-0.121-1.189-0.43
		c-0.788-1.073-2.271-3.833-2.562-8.387c-0.289-4.542,0.494-7.511,0.848-8.715c0.108-0.347,0.465-0.642,0.774-0.673
		c1.5-0.161,3.017-0.397,4.544-0.701c0.316-0.067,0.761,0.106,0.974,0.393c0.726,1.022,2.383,3.522,3.418,7.815
		c1.035,4.293,0.484,7.376,0.087,8.663C191.104,255.536,190.656,255.908,190.255,256.01z"/>

		<radialGradient id="SVGID_3_" cx="687.4232" cy="501.8613" r="26.7953" gradientTransform="matrix(0.9046 0 0 0.964 -517.1352 -234.768)" gradientUnits="userSpaceOnUse">
		<stop  offset="0" style="stop-color:#546262"/>
		<stop  offset="0.398" style="stop-color:#515F5F"/>
		<stop  offset="0.7214" style="stop-color:#485555"/>
		<stop  offset="1" style="stop-color:#394545"/>
	</radialGradient>
	<path fill="url(#SVGID_3_)" d="M91.187,266.457c0.012,0.002,0.27-2.65,0.986-6.697c0.708-4.046,1.948-9.474,3.756-14.955
		c1.497-4.597,3.4-9.223,5.487-13.139c2.076-3.923,4.324-7.128,6.235-9.06c0.755-0.786,2.709-1.194,4.632,0.349
		c1.908,1.534,2.419,3.305,2.173,4.24c-0.619,2.312-1.76,5.578-2.921,9.333c-1.169,3.75-2.351,7.993-3.259,12.152
		c-1.097,4.962-1.777,9.796-2.158,13.378c-0.384,3.583-0.502,5.915-0.51,5.914c0,0-0.466,1.205-1.635,2.386
		c-1.178,1.175-3.006,2.372-5.954,2.213c-2.952-0.156-4.649-1.643-5.634-3.146C91.404,267.925,91.185,266.454,91.187,266.457z"/>
	<path fill="#485454" d="M98.02,272.569c2.948,0.158,4.776-1.038,5.954-2.213c1.169-1.181,1.637-2.383,1.637-2.383l0.187-2.575
		c-0.973-0.623-3.239-1.829-6.941-2.372c-3.709-0.546-6.19,0.075-7.291,0.513c-0.259,1.836-0.375,2.918-0.375,2.918
		s0.213,1.467,1.195,2.965C93.371,270.926,95.067,272.413,98.02,272.569z"/>

		<radialGradient id="SVGID_4_" cx="681.219" cy="522.9455" r="9.878" gradientTransform="matrix(0.9046 0 0 0.964 -517.1352 -234.768)" gradientUnits="userSpaceOnUse">
		<stop  offset="0" style="stop-color:#546262"/>
		<stop  offset="0.398" style="stop-color:#515F5F"/>
		<stop  offset="0.7214" style="stop-color:#485555"/>
		<stop  offset="1" style="stop-color:#394545"/>
	</radialGradient>
	<path fill="url(#SVGID_4_)" d="M90.82,270.255c-0.023-1.702-0.017-3.409,0.025-5.118c0.009-0.355,0.24-0.767,0.529-0.892
		c0.994-0.438,3.529-1.176,7.41-0.626c3.884,0.55,6.167,1.838,7.056,2.424c0.258,0.172,0.399,0.571,0.34,0.874
		c-0.282,1.455-0.533,2.921-0.76,4.394c-0.046,0.305-0.307,0.672-0.593,0.792c-0.994,0.415-3.347,1.268-6.84,1.1
		c-3.493-0.166-5.744-1.355-6.685-1.97C91.037,271.058,90.826,270.608,90.82,270.255z"/>

		<linearGradient id="SVGID_5_" gradientUnits="userSpaceOnUse" x1="647.3571" y1="568.6472" x2="647.3571" y2="521.1067" gradientTransform="matrix(1 0 0 1 -519.5 -251.583)">
		<stop  offset="0" style="stop-color:#546262"/>
		<stop  offset="0.5767" style="stop-color:#526060"/>
		<stop  offset="0.7844" style="stop-color:#4C5959"/>
		<stop  offset="0.932" style="stop-color:#414E4E"/>
		<stop  offset="1" style="stop-color:#394545"/>
	</linearGradient>
	<path fill="url(#SVGID_5_)" d="M149.119,297.497c-0.249-9.521,0.104-21.113-0.322-26.415c0.402-3.534,0.202-6.902-0.85-7.893
		c-3.931-3.709-37.371-3.589-41.169,0c-1.18,1.113-1.288,5.209-0.686,9.175c-0.236,5.381,0.419,16.595,0.432,25.858
		c-0.005,7.819-0.419,14.589-0.433,15.001c-0.039,0.95,0.535,1.49,1.3,1.254c1.816-0.562,3.296-1.444,8.988-0.674
		c5.322,0.72,7.252,3.083,9.096,3.512c0.777,0.182,1.319-0.373,1.235-1.286c-0.049-0.46-0.843-8.98-0.962-18.232
		c-0.105-6.946,0.218-14.392,0.364-19.953c0.415,0.005,0.822,0.012,1.251,0.012c0.554,0,1.088-0.008,1.618-0.015
		c0.307,5.576,0.822,12.944,0.911,19.84c0.138,9.345-0.409,17.989-0.444,18.459c-0.058,0.927,0.502,1.47,1.273,1.26
		c1.831-0.497,3.692-2.951,8.99-3.852c5.667-0.963,7.17-0.121,9.002,0.382c0.771,0.215,1.33-0.35,1.263-1.305
		C149.948,312.207,149.342,305.392,149.119,297.497z"/>

		<radialGradient id="SVGID_6_" cx="-4654.5317" cy="-4323.3936" r="0.7919" gradientTransform="matrix(-3.2894 70.4677 66.1225 3.5055 270690.25 343368.5)" gradientUnits="userSpaceOnUse">
		<stop  offset="0" style="stop-color:#EAE7E8"/>
		<stop  offset="0.4967" style="stop-color:#E8E5E6"/>
		<stop  offset="0.6767" style="stop-color:#E2DEE0"/>
		<stop  offset="0.8051" style="stop-color:#D7D2D5"/>
		<stop  offset="0.9083" style="stop-color:#C7C2C5"/>
		<stop  offset="0.9964" style="stop-color:#B3ACB0"/>
		<stop  offset="1" style="stop-color:#B2ABAF"/>
	</radialGradient>
	<path fill="url(#SVGID_6_)" d="M144.399,221.788c0,0,5.909,19.844,5.145,47.758c0,0-7.21,1.96-22.27,1.96
		c-15.06,0-22.27-1.96-22.27-1.96c-0.761-27.914,5.148-47.758,5.148-47.758S125.84,206.958,144.399,221.788z"/>
	<path fill="#DADADA" d="M133.255,229.285l11.504-8.009l-0.031-0.436c-17.084-13.106-31.736-2.657-34.905-0.055l-0.031,0.491
		l11.503,8.009l5.981-4.753L133.255,229.285z"/>
	<path fill="#B8B8B8" d="M130.897,230.207c-0.047-0.438-0.348-1.047-0.669-1.36l-1.087-1.06c0.241-0.198,0.926-0.581,0.928-1.127
		c0.01-1.559-1.355-2.191-2.996-2.191s-3.012,0.633-3.023,2.191c-0.003,0.546,0.679,0.929,0.915,1.127l-1.1,1.059
		c-0.325,0.314-0.631,0.923-0.684,1.361l-3.937,32.503c-0.053,0.437,0.199,1.01,0.561,1.28l6.349,4.706
		c0.362,0.268,0.954,0.268,1.319,0l6.404-4.705c0.367-0.27,0.624-0.843,0.577-1.28L130.897,230.207z"/>

		<linearGradient id="SVGID_7_" gradientUnits="userSpaceOnUse" x1="-4654.1416" y1="-4324.4409" x2="-4653.3779" y2="-4324.4409" gradientTransform="matrix(0 72.6447 72.6447 0 314275 338320.625)">
		<stop  offset="0" style="stop-color:#667AC6"/>
		<stop  offset="1" style="stop-color:#7388D8"/>
	</linearGradient>
	<path fill="url(#SVGID_7_)" d="M130.917,229.484c-0.048-0.437-0.335-1.045-0.639-1.358l-1.033-1.06
		c0.226-0.197,0.87-0.58,0.87-1.127c0-1.559-1.29-2.19-2.841-2.19c-1.549,0-2.84,0.632-2.84,2.19c0,0.547,0.645,0.93,0.87,1.127
		l-1.033,1.06c-0.305,0.313-0.592,0.921-0.64,1.358l-3.538,32.495c-0.047,0.438,0.195,1.01,0.538,1.281l6.02,4.704
		c0.344,0.27,0.902,0.27,1.245,0l6.019-4.704c0.345-0.271,0.585-0.843,0.537-1.281L130.917,229.484z"/>

		<linearGradient id="SVGID_8_" gradientUnits="userSpaceOnUse" x1="-4654.1563" y1="-4337.3931" x2="-4653.3916" y2="-4337.3931" gradientTransform="matrix(0 72.884 -72.884 0 -315999.4688 339435.4063)">
		<stop  offset="0" style="stop-color:#6F81C6"/>
		<stop  offset="1" style="stop-color:#7B8FD7"/>
	</linearGradient>
	<polygon fill="url(#SVGID_8_)" points="131.008,230.322 123.254,232.962 122.643,238.571 131.575,235.52 	"/>

		<linearGradient id="SVGID_9_" gradientUnits="userSpaceOnUse" x1="-4654.1484" y1="-4337.4185" x2="-4653.3857" y2="-4337.4185" gradientTransform="matrix(0 72.6451 -72.6451 0 -314965.1563 338323.0313)">
		<stop  offset="0" style="stop-color:#6F81C6"/>
		<stop  offset="1" style="stop-color:#7B8FD7"/>
	</linearGradient>
	<polygon fill="url(#SVGID_9_)" points="132.291,242.103 121.873,245.648 121.262,251.259 132.856,247.298 	"/>

		<linearGradient id="SVGID_10_" gradientUnits="userSpaceOnUse" x1="-4654.1514" y1="-4337.4229" x2="-4653.3882" y2="-4337.4229" gradientTransform="matrix(0 72.6451 -72.6451 0 -314965.4688 338323.2188)">
		<stop  offset="0" style="stop-color:#6F81C6"/>
		<stop  offset="1" style="stop-color:#7B8FD7"/>
	</linearGradient>
	<path fill="url(#SVGID_10_)" d="M133.493,253.146l-12.915,4.396l-0.483,4.436c0,0.379,0.079,0.643,0.203,0.871l0.1,0.157
		l13.661-4.666L133.493,253.146z"/>

		<radialGradient id="SVGID_11_" cx="-4648.937" cy="-4312.2192" r="0.7919" gradientTransform="matrix(-1.3228 28.3379 26.5905 1.4097 108641.8516 138034.7188)" gradientUnits="userSpaceOnUse">
		<stop  offset="0" style="stop-color:#F6F6F6"/>
		<stop  offset="0.655" style="stop-color:#F4F4F4"/>
		<stop  offset="0.8948" style="stop-color:#EEEDEE"/>
		<stop  offset="1" style="stop-color:#E9E7E8"/>
	</radialGradient>
	<path fill="url(#SVGID_11_)" d="M133.255,228.522l11.504-7.246l-0.031-1.199c-17.084-13.107-31.736-2.657-34.905-0.055
		l-0.031,1.254l11.503,7.246l5.981-4.751L133.255,228.522z"/>

		<radialGradient id="SVGID_12_" cx="-4649.3086" cy="-4335.6587" r="0.7922" gradientTransform="matrix(54.2053 0 0 -59.8581 252141.3594 -259276.6875)" gradientUnits="userSpaceOnUse">
		<stop  offset="0" style="stop-color:#4F5C5C"/>
		<stop  offset="0.4118" style="stop-color:#4C5959"/>
		<stop  offset="0.7428" style="stop-color:#434F4F"/>
		<stop  offset="1" style="stop-color:#364141"/>
	</radialGradient>
	<path fill="url(#SVGID_12_)" d="M129.399,275.325c-12.126,0-22.062-1.334-24.32-1.776c-0.377-0.075-0.689-0.483-0.698-0.905
		c-0.61-27.482,4.994-51.12,5.052-51.319c0,0,0.025-0.089,0.057-0.2c0.031-0.112,0.121-0.265,0.2-0.34l0.143-0.14
		c0.16-0.155,1.831-2.346,5.62-4.194l13.253,27.635L129.399,275.325z"/>

		<radialGradient id="SVGID_13_" cx="-4649.0239" cy="-4335.8022" r="0.7918" gradientTransform="matrix(52.5129 0 0 -57.9892 244257.7188 -251182.0781)" gradientUnits="userSpaceOnUse">
		<stop  offset="0" style="stop-color:#546262"/>
		<stop  offset="0.398" style="stop-color:#515F5F"/>
		<stop  offset="0.7214" style="stop-color:#485555"/>
		<stop  offset="1" style="stop-color:#394545"/>
	</radialGradient>
	<path fill="url(#SVGID_13_)" d="M128.663,274.561c-12.141-0.054-21.705-1.421-23.455-1.764l-0.112-0.172
		c-0.609-27.464,4.964-50.877,5.021-51.081l0.056-0.193l0.143-0.144c0.022-0.021,0.066-0.068,0.129-0.142
		c1.443-1.66,3.25-2.842,4.687-3.605l12.861,26.819L128.663,274.561z"/>
	<path fill="#455050" d="M109.823,220.784c0,0-0.21,0.817-0.541,2.319l7.287,5.987l-2.621,5.548l14.758,9.448l-11.729-27.564
		C113.447,218.007,110.931,219.875,109.823,220.784z"/>

		<radialGradient id="SVGID_14_" cx="-4640.2197" cy="-4341.022" r="0.7926" gradientTransform="matrix(26.8473 0 0 -28.6115 124706.1094 -123975.8594)" gradientUnits="userSpaceOnUse">
		<stop  offset="0" style="stop-color:#515F5F"/>
		<stop  offset="0.4054" style="stop-color:#4E5C5C"/>
		<stop  offset="0.7317" style="stop-color:#455252"/>
		<stop  offset="1" style="stop-color:#374343"/>
	</radialGradient>
	<path fill="url(#SVGID_14_)" d="M109.823,220.021c0,0-0.21,0.816-0.541,2.32l7.287,5.986l-2.621,4.783l14.758,10.975
		l-11.729-28.328C113.447,217.243,110.931,219.112,109.823,220.021z"/>

		<radialGradient id="SVGID_15_" cx="-4649.355" cy="-4335.6875" r="0.7918" gradientTransform="matrix(53.793 0 0 -59.4028 250250.6875 -257302.9219)" gradientUnits="userSpaceOnUse">
		<stop  offset="0" style="stop-color:#4F5C5C"/>
		<stop  offset="0.4118" style="stop-color:#4C5959"/>
		<stop  offset="0.7428" style="stop-color:#434F4F"/>
		<stop  offset="1" style="stop-color:#364141"/>
	</radialGradient>
	<path fill="url(#SVGID_15_)" d="M138.02,216.01c2.259,1.099,4.44,2.755,6.612,4.555c0,0,0.08,0.065,0.178,0.146
		c0.097,0.083,0.207,0.252,0.244,0.381l0.067,0.233c0.057,0.199,5.662,23.836,5.048,51.319c-0.009,0.422-0.322,0.832-0.699,0.905
		c-2.259,0.443-11.502,1.776-23.628,1.776l-0.002-31.239L138.02,216.01z"/>

		<radialGradient id="SVGID_16_" cx="-4649.0767" cy="-4335.8325" r="0.7926" gradientTransform="matrix(52.1553 0 0 -57.5942 242621.125 -249469.625)" gradientUnits="userSpaceOnUse">
		<stop  offset="0" style="stop-color:#546262"/>
		<stop  offset="0.398" style="stop-color:#515F5F"/>
		<stop  offset="0.7214" style="stop-color:#485555"/>
		<stop  offset="1" style="stop-color:#394545"/>
	</radialGradient>
	<path fill="url(#SVGID_16_)" d="M126.556,244.253l11.808-27.218c2.078,1.115,4.097,2.701,5.828,4.134l0.177,0.145l0.066,0.235
		c0.056,0.202,5.631,23.575,5.017,51.079l-0.113,0.171c-2.45,0.48-11.235,1.713-22.781,1.763L126.556,244.253z"/>

		<radialGradient id="SVGID_17_" cx="-4438.8442" cy="-4450.1172" r="0.7919" gradientTransform="matrix(2.2102 0 0 -2.3554 9940.9453 -10226.3115)" gradientUnits="userSpaceOnUse">
		<stop  offset="0" style="stop-color:#455050"/>
		<stop  offset="0.7135" style="stop-color:#434E4E"/>
		<stop  offset="0.9715" style="stop-color:#3C4848"/>
		<stop  offset="1" style="stop-color:#3B4747"/>
	</radialGradient>
	<ellipse fill="url(#SVGID_17_)" cx="130.2" cy="255.575" rx="1.785" ry="1.904"/>

		<radialGradient id="SVGID_18_" cx="-4438.8442" cy="-4448.9443" r="0.7919" gradientTransform="matrix(2.2102 0 0 -2.3554 9940.9453 -10213.0234)" gradientUnits="userSpaceOnUse">
		<stop  offset="0" style="stop-color:#455050"/>
		<stop  offset="0.7135" style="stop-color:#434E4E"/>
		<stop  offset="0.9715" style="stop-color:#3C4848"/>
		<stop  offset="1" style="stop-color:#3B4747"/>
	</radialGradient>
	<ellipse fill="url(#SVGID_18_)" cx="130.2" cy="266.1" rx="1.785" ry="1.902"/>
	<path fill="#465151" d="M144.728,220.839c-2.569-1.971-5.082-3.401-7.51-4.413l-11.377,27.658l14.761-9.448l-2.621-5.548
		l7.278-5.979C144.934,221.636,144.728,220.839,144.728,220.839z"/>

		<radialGradient id="SVGID_19_" cx="-4641.0303" cy="-4340.5293" r="0.7916" gradientTransform="matrix(28.1733 0 0 -30.0247 130879.1172 -130095.625)" gradientUnits="userSpaceOnUse">
		<stop  offset="0" style="stop-color:#515F5F"/>
		<stop  offset="0.4054" style="stop-color:#4E5C5C"/>
		<stop  offset="0.7317" style="stop-color:#455252"/>
		<stop  offset="1" style="stop-color:#374343"/>
	</radialGradient>
	<path fill="url(#SVGID_19_)" d="M144.728,220.076c-2.569-1.972-5.082-3.401-7.51-4.414l-11.377,28.423l14.761-10.975l-2.621-4.783
		l7.278-5.98C144.934,220.872,144.728,220.076,144.728,220.076z"/>

		<radialGradient id="SVGID_20_" cx="-4637.9253" cy="-4342.2949" r="0.7911" gradientTransform="matrix(23.8391 0 0 -25.4057 110691.1797 -110092.0625)" gradientUnits="userSpaceOnUse">
		<stop  offset="0" style="stop-color:#546262"/>
		<stop  offset="0.398" style="stop-color:#515F5F"/>
		<stop  offset="0.7214" style="stop-color:#485555"/>
		<stop  offset="1" style="stop-color:#394545"/>
	</radialGradient>
	<path fill="url(#SVGID_20_)" d="M114.899,232.888l2.606-4.755l-7.419-6.095c0.168-0.752,0.296-1.281,0.366-1.567
		c1.127-0.904,3.243-2.421,6.15-3.726l10.415,25.153L114.899,232.888z"/>

		<radialGradient id="SVGID_21_" cx="-4638.7173" cy="-4341.8496" r="0.7917" gradientTransform="matrix(24.8004 0 0 -26.4302 115169.7266 -114528.7813)" gradientUnits="userSpaceOnUse">
		<stop  offset="0" style="stop-color:#546262"/>
		<stop  offset="0.398" style="stop-color:#515F5F"/>
		<stop  offset="0.7214" style="stop-color:#485555"/>
		<stop  offset="1" style="stop-color:#394545"/>
	</radialGradient>
	<path fill="url(#SVGID_21_)" d="M137.6,216.652c2.209,0.986,4.392,2.291,6.502,3.886c0.07,0.283,0.192,0.792,0.354,1.507
		l-7.41,6.088l2.604,4.755l-12.169,9.048L137.6,216.652z"/>

		<radialGradient id="SVGID_22_" cx="-4613.1235" cy="-4378.8286" r="0.7919" gradientTransform="matrix(8.1632 -2.9472 -2.7078 -9.0282 25878.2207 -52943.7617)" gradientUnits="userSpaceOnUse">
		<stop  offset="0" style="stop-color:#FCCD97"/>
		<stop  offset="0.6214" style="stop-color:#FCCB95"/>
		<stop  offset="0.845" style="stop-color:#FCC490"/>
		<stop  offset="1" style="stop-color:#FCB986"/>
	</radialGradient>
	<path fill="url(#SVGID_22_)" d="M70.892,186.461c1.209,4.094,4.966,6.424,8.39,5.205c3.423-1.218,5.215-5.523,4.003-9.616
		c-1.211-4.093-4.964-6.423-8.389-5.204C71.473,178.065,69.68,182.371,70.892,186.461z"/>

		<radialGradient id="SVGID_23_" cx="-4718.1592" cy="-4351.8452" r="0.7918" gradientTransform="matrix(-8.457 -1.7738 1.5668 -9.3304 -32910.8594 -48795.2578)" gradientUnits="userSpaceOnUse">
		<stop  offset="0" style="stop-color:#FCCD97"/>
		<stop  offset="0.6214" style="stop-color:#FCCB95"/>
		<stop  offset="0.845" style="stop-color:#FCC490"/>
		<stop  offset="1" style="stop-color:#FCB986"/>
	</radialGradient>
	<path fill="url(#SVGID_23_)" d="M178.683,178.852c-0.691,4.227-4.127,7.065-7.671,6.338s-5.854-4.743-5.161-8.969
		c0.694-4.227,4.127-7.066,7.672-6.339C177.067,170.609,179.378,174.625,178.683,178.852z"/>
	<path fill="#FBB078" d="M127.431,225.187c-26.251,1.853-50.665-15.639-53.06-51.162c-0.167-2.461-0.359-4.934-0.55-7.406
		c-1.454-18.801-2.956-38.236,7.21-51.361c7.302-9.429,19.913-14.71,38.553-16.145c18.672-1.199,31.827,2.264,40.23,10.581
		c11.705,11.582,12.621,31.059,13.506,49.892c0.116,2.485,0.232,4.964,0.372,7.425C175.718,202.563,153.682,223.332,127.431,225.187
		z"/>

		<radialGradient id="SVGID_24_" cx="-4665.3794" cy="-4335.4727" r="0.792" gradientTransform="matrix(-65.9971 3.9331 -3.876 -72.8965 -324582 -297522.6875)" gradientUnits="userSpaceOnUse">
		<stop  offset="0" style="stop-color:#FCCD97"/>
		<stop  offset="0.7026" style="stop-color:#FCCD97"/>
		<stop  offset="0.8874" style="stop-color:#FCCB95"/>
		<stop  offset="0.9539" style="stop-color:#FCC490"/>
		<stop  offset="1" style="stop-color:#FCB986"/>
	</radialGradient>
	<path fill="url(#SVGID_24_)" d="M119.736,101.398c18.119-1.163,31.09,2.161,39.207,10.194
		c11.274,11.157,12.174,30.311,13.047,48.835c0.117,2.483,0.233,4.968,0.373,7.435c1.953,34.318-18.939,54.814-44.973,56.651
		c-26.033,1.837-49.28-15.54-51.592-49.833c-0.166-2.466-0.357-4.945-0.55-7.422c-1.428-18.484-2.907-37.6,6.887-50.244
		C89.184,107.912,101.631,102.792,119.736,101.398z"/>
	<path fill="#F3B977" d="M119.736,101.398c-18.105,1.394-30.553,6.514-37.603,15.617c-9.794,12.644-8.315,31.759-6.887,50.244
		c0.192,2.477,0.384,4.956,0.55,7.422c0.11,1.632,0.282,3.213,0.485,4.769l2.33-6.136c0.122-5.722-5.364-16.91-0.767-32.071
		l3.906-8.899c0,0,17.47,7.62,40.314,5.859c22.861-1.467,39.235-11.476,39.235-11.476l5.455,9.395
		c5.752,13.991,1.921,25.269,2.728,30.777l2.99,5.56c0.004-1.507-0.021-3.031-0.111-4.596c-0.14-2.468-0.256-4.952-0.373-7.435
		c-0.873-18.525-1.772-37.678-13.047-48.835C150.826,103.559,137.856,100.235,119.736,101.398z"/>

		<linearGradient id="SVGID_25_" gradientUnits="userSpaceOnUse" x1="-4655.0571" y1="-4327.0234" x2="-4654.2915" y2="-4327.0234" gradientTransform="matrix(7.6309 115.1916 115.1916 -7.6309 534077.8125 503292.7813)">
		<stop  offset="0" style="stop-color:#57453A"/>
		<stop  offset="0.3077" style="stop-color:#47372D"/>
		<stop  offset="1" style="stop-color:#241911"/>
	</linearGradient>
	<path fill="url(#SVGID_25_)" d="M161.953,100.005c8.962,5.655,13.314,17.758,13.314,17.758c2.498,17.31,1.245,38.839,0.481,49.771
		l-1.802,8.722c-0.085,0.411-0.288,0.434-0.451,0.049l-4.013-9.407c-0.807-5.509,2.883-19.072-2.87-33.064l-5.454-9.391
		c0,0-16.375,10.007-39.236,11.475c-22.844,1.759-40.314-5.86-40.314-5.86l-3.907,8.898c-4.597,15.162,1.031,28.635,0.909,34.357
		l-2.813,9.89c-0.115,0.405-0.328,0.413-0.477,0.024l-3.185-8.376c-1.945-10.597-5.648-33.333-5.341-49.431
		c0,0,2.544-12.569,10.564-19.413c8.045-6.867,21.363-11.821,41.863-13.267C139.181,91.331,152.992,94.35,161.953,100.005z"/>

		<linearGradient id="SVGID_26_" gradientUnits="userSpaceOnUse" x1="-4655.001" y1="-4326.9551" x2="-4654.2378" y2="-4326.9551" gradientTransform="matrix(7.497 113.1697 113.1697 -7.497 524697.5625 494454.9063)">
		<stop  offset="0" style="stop-color:#7E513A"/>
		<stop  offset="0.3077" style="stop-color:#47372D"/>
		<stop  offset="1" style="stop-color:#241911"/>
	</linearGradient>
	<path fill="url(#SVGID_26_)" d="M121.749,133.186c-19.777,1.397-36.326-3.709-38.466-5.476
		c-2.064-1.707-10.166-15.191-4.122-20.349c8.326-7.108,21.846-11.366,40.183-12.66c17.94-1.268,31.736,1.057,41.005,6.906
		c6.869,4.334,0.698,18.738-1.15,20.744C157.288,124.425,141.482,131.794,121.749,133.186z"/>
	<path fill="#815E48" d="M79.161,107.361c2.573-2.614,5.702-4.56,8.944-6.098c3.263-1.513,6.67-2.633,10.115-3.491
		c3.441-0.89,6.934-1.466,10.423-1.979c3.495-0.477,6.998-0.796,10.498-1.076c7.005-0.46,14.068-0.68,21.119,0.075
		c3.521,0.37,7.037,1.003,10.457,2.05c3.406,1.075,6.74,2.563,9.631,4.765c-3.187-1.62-6.53-2.68-9.931-3.336
		c-3.395-0.69-6.846-0.991-10.297-1.156c-3.455-0.122-6.918-0.146-10.386,0.005c-3.468,0.107-6.931,0.303-10.407,0.573
		c-3.473,0.219-6.937,0.525-10.387,0.9c-3.455,0.346-6.887,0.849-10.298,1.454c-3.402,0.644-6.784,1.426-10.068,2.582
		C85.286,103.755,82.1,105.275,79.161,107.361z"/>
	<path fill="#F3B977" d="M110.88,214.693c0.688,0.353,1.391,0.648,2.112,0.892c0.714,0.26,1.439,0.482,2.173,0.664
		c1.466,0.366,2.949,0.639,4.446,0.8c1.494,0.173,2.998,0.219,4.502,0.168c0.752-0.026,1.504-0.09,2.252-0.199
		c0.752-0.085,1.497-0.229,2.239-0.421c-1.403,0.663-2.929,0.98-4.454,1.162c-1.53,0.18-3.077,0.153-4.606-0.012
		c-1.527-0.182-3.046-0.481-4.511-0.978C113.57,216.27,112.127,215.644,110.88,214.693z"/>

		<radialGradient id="SVGID_27_" cx="-4643.2588" cy="-4338.6343" r="0.7917" gradientTransform="matrix(33.3797 2.0596 1.8865 -34.7482 163297.3281 -141008.1406)" gradientUnits="userSpaceOnUse">
		<stop  offset="0" style="stop-color:#D82E2B"/>
		<stop  offset="0.343" style="stop-color:#D52E2B"/>
		<stop  offset="0.5495" style="stop-color:#CD2F2C"/>
		<stop  offset="0.7198" style="stop-color:#BF312D"/>
		<stop  offset="0.8695" style="stop-color:#AB332E"/>
		<stop  offset="1" style="stop-color:#923530"/>
	</radialGradient>
	<path fill="url(#SVGID_27_)" d="M103.61,200.031c-0.058-1.016,0.794-1.779,1.77-1.697l31.656,2.62
		c0.976,0.081,1.708,0.972,1.5,1.97c-0.851,4.134-4.365,13.78-18.499,12.61C105.903,214.365,103.846,204.26,103.61,200.031z"/>

		<linearGradient id="SVGID_28_" gradientUnits="userSpaceOnUse" x1="-4708.4907" y1="-4430.9014" x2="-4707.7114" y2="-4430.9014" gradientTransform="matrix(0.4153 -5.3233 -4.9439 -0.3852 -19829.6035 -26567.459)">
		<stop  offset="0" style="stop-color:#F7F7F7"/>
		<stop  offset="0.5013" style="stop-color:#F5F5F5"/>
		<stop  offset="0.6833" style="stop-color:#EEEEEF"/>
		<stop  offset="0.8133" style="stop-color:#E2E3E3"/>
		<stop  offset="0.9178" style="stop-color:#D2D2D3"/>
		<stop  offset="1" style="stop-color:#BEBFC0"/>
	</linearGradient>
	<path fill="url(#SVGID_28_)" d="M135.742,203.536c0.579-0.474,0.965-1.108,1.223-1.717c0.222-0.521-0.079-1.013-0.582-1.054
		l-30.279-2.526c-0.506-0.042-0.872,0.394-0.729,0.947c0.167,0.647,0.455,1.341,0.96,1.908
		C107.693,202.63,134.177,204.831,135.742,203.536z"/>

		<linearGradient id="SVGID_29_" gradientUnits="userSpaceOnUse" x1="-4613.9307" y1="-4248.0283" x2="-4613.1675" y2="-4248.0283" gradientTransform="matrix(-0.4647 5.9638 5.9638 0.4647 23310.7285 29701.6328)">
		<stop  offset="0" style="stop-color:#F7F7F7"/>
		<stop  offset="0.5013" style="stop-color:#F5F5F5"/>
		<stop  offset="0.6833" style="stop-color:#EEEEEF"/>
		<stop  offset="0.8133" style="stop-color:#E2E3E3"/>
		<stop  offset="0.9178" style="stop-color:#D2D2D3"/>
		<stop  offset="1" style="stop-color:#BEBFC0"/>
	</linearGradient>
	<path fill="url(#SVGID_29_)" d="M110.964,213.068c2.295,1.338,5.253,2.308,9.075,2.631c3.865,0.319,6.954-0.164,9.431-1.13
		c0.475-0.185,0.784-0.597,0.672-0.874c-0.07-0.17-0.148-0.332-0.242-0.485c-0.858-1.389-18.1-2.824-19.149-1.591
		c-0.117,0.143-0.224,0.292-0.32,0.458C110.273,212.344,110.522,212.809,110.964,213.068z"/>
	<path fill="#FFD9AE" d="M107.745,175.828c-0.026,5.468-4.55,9.929-10.106,9.964c-5.557,0.033-10.041-4.372-10.017-9.84
		c0.025-5.467,4.55-9.927,10.106-9.962S107.768,170.361,107.745,175.828z"/>
	<path fill="#F3B977" d="M107.671,170.9c-0.024,5.469-4.55,9.928-10.106,9.962s-10.041-4.37-10.016-9.839
		c0.025-5.467,4.549-9.928,10.106-9.962C103.212,161.027,107.696,165.431,107.671,170.9z"/>

		<radialGradient id="SVGID_30_" cx="-4616.9751" cy="-4355.2715" r="0.792" gradientTransform="matrix(11.9919 -0.0742 0.0568 -12.5715 55711.4336 -54921.4805)" gradientUnits="userSpaceOnUse">
		<stop  offset="0" style="stop-color:#292929"/>
		<stop  offset="0.4766" style="stop-color:#272727"/>
		<stop  offset="0.7322" style="stop-color:#1F1F1F"/>
		<stop  offset="0.9347" style="stop-color:#111111"/>
		<stop  offset="1" style="stop-color:#0B0B0B"/>
	</radialGradient>
	<path fill="url(#SVGID_30_)" d="M107.322,173.693c0.029,5.754-4.283,9.382-9.782,9.43c-5.49,0.093-9.585-3.571-9.571-9.337
		c-0.029-5.754,4.236-10.144,9.736-10.191C103.194,163.502,107.337,167.927,107.322,173.693z"/>

		<radialGradient id="SVGID_31_" cx="-4603.3271" cy="-4370.9033" r="0.7921" gradientTransform="matrix(8.5796 -0.6109 -0.5286 -8.4361 37283.9375 -39516.5547)" gradientUnits="userSpaceOnUse">
		<stop  offset="0" style="stop-color:#FFFFFF"/>
		<stop  offset="0.4051" style="stop-color:#FFFFFF"/>
		<stop  offset="0.4868" style="stop-color:#FBFBFB"/>
		<stop  offset="0.5665" style="stop-color:#EFEFEF"/>
		<stop  offset="0.6455" style="stop-color:#DCDCDC"/>
		<stop  offset="0.7239" style="stop-color:#C0C0C0"/>
		<stop  offset="0.802" style="stop-color:#9D9D9D"/>
		<stop  offset="0.8799" style="stop-color:#717171"/>
		<stop  offset="0.9562" style="stop-color:#3F3F3F"/>
		<stop  offset="1" style="stop-color:#1E1E1E"/>
	</radialGradient>
	<path fill="url(#SVGID_31_)" d="M103.399,166.795c2.381,2.278,2.198,5.451,1.24,5.749c-0.969,0.357-2.197-1.432-3.931-3.03
		c-1.67-1.663-3.523-2.821-3.188-3.786C97.801,164.781,101.019,164.513,103.399,166.795z"/>
	<path fill="#FFD9AE" d="M160.644,172.096c-0.024,5.467-4.549,9.927-10.106,9.963c-5.557,0.033-10.04-4.371-10.015-9.84
		c0.024-5.468,4.548-9.928,10.106-9.961C156.184,162.221,160.669,166.626,160.644,172.096z"/>
	<path fill="#F3B977" d="M160.572,167.165c-0.025,5.469-4.549,9.927-10.106,9.963c-5.556,0.034-10.041-4.371-10.016-9.839
		c0.025-5.467,4.549-9.928,10.106-9.962C156.111,157.293,160.596,161.697,160.572,167.165z"/>

		<radialGradient id="SVGID_32_" cx="-4618.1704" cy="-4355.3193" r="0.792" gradientTransform="matrix(11.992 -0.0742 0.0568 -12.5715 55779.1016 -54925.9102)" gradientUnits="userSpaceOnUse">
		<stop  offset="0" style="stop-color:#292929"/>
		<stop  offset="0.4766" style="stop-color:#272727"/>
		<stop  offset="0.7322" style="stop-color:#1F1F1F"/>
		<stop  offset="0.9347" style="stop-color:#111111"/>
		<stop  offset="1" style="stop-color:#0B0B0B"/>
	</radialGradient>
	<path fill="url(#SVGID_32_)" d="M160.222,169.959c0.028,5.754-4.283,9.385-9.782,9.429c-5.491,0.093-9.585-3.57-9.572-9.336
		c-0.03-5.754,4.236-10.145,9.737-10.192C156.094,159.768,160.237,164.193,160.222,169.959z"/>

		<radialGradient id="SVGID_33_" cx="-4604.9678" cy="-4370.915" r="0.7921" gradientTransform="matrix(8.5798 -0.6109 -0.5286 -8.4363 37351.7695 -39522.2461)" gradientUnits="userSpaceOnUse">
		<stop  offset="0" style="stop-color:#FFFFFF"/>
		<stop  offset="0.4051" style="stop-color:#FFFFFF"/>
		<stop  offset="0.4868" style="stop-color:#FBFBFB"/>
		<stop  offset="0.5665" style="stop-color:#EFEFEF"/>
		<stop  offset="0.6455" style="stop-color:#DCDCDC"/>
		<stop  offset="0.7239" style="stop-color:#C0C0C0"/>
		<stop  offset="0.802" style="stop-color:#9D9D9D"/>
		<stop  offset="0.8799" style="stop-color:#717171"/>
		<stop  offset="0.9562" style="stop-color:#3F3F3F"/>
		<stop  offset="1" style="stop-color:#1E1E1E"/>
	</radialGradient>
	<path fill="url(#SVGID_33_)" d="M156.298,163.06c2.382,2.278,2.198,5.451,1.242,5.75c-0.969,0.357-2.197-1.433-3.932-3.032
		c-1.669-1.661-3.523-2.819-3.187-3.784C150.701,161.045,153.918,160.778,156.298,163.06z"/>
	<path fill="#F3B977" d="M137.516,200.585l-32.566-2.712c-1.006-0.084-1.883,0.721-1.825,1.791
		c0.238,4.45,2.341,15.091,16.882,16.299c14.542,1.211,18.166-8.951,19.051-13.305C139.271,201.609,138.518,200.669,137.516,200.585
		z M138.165,202.453c-0.842,4.153-4.289,13.688-18.081,12.544h-0.007c-13.797-1.149-15.815-11.143-16.042-15.388
		c-0.015-0.257,0.096-0.43,0.192-0.528c0.165-0.171,0.402-0.26,0.649-0.237l32.569,2.711c0.249,0.021,0.47,0.146,0.609,0.342
		C138.132,202.011,138.218,202.2,138.165,202.453z"/>

		<radialGradient id="SVGID_34_" cx="-4671.6074" cy="-4315.2495" r="0.7922" gradientTransform="matrix(-21.605 11.336 12.291 26.605 -47745.1367 168075.4219)" gradientUnits="userSpaceOnUse">
		<stop  offset="0" style="stop-color:#4B5457"/>
		<stop  offset="1" style="stop-color:#2B3536"/>
	</radialGradient>
	<path fill="url(#SVGID_34_)" d="M130.079,318.253h21.902c0.89-0.003-0.527-10.38-9.187-10.411
		c-11.627-0.04-13.542,8.789-13.749,9.423C128.853,317.852,129.309,318.253,130.079,318.253z"/>
	<path fill="#283233" d="M152.151,316.726h-22.947c-0.085,0.273-0.134,0.465-0.159,0.54l-0.037,0.183
		c0.02,0.216,0.109,0.423,0.255,0.575c0.189,0.144,0.468,0.23,0.816,0.23h21.902C152.196,318.253,152.274,317.644,152.151,316.726z"
		/>

		<radialGradient id="SVGID_35_" cx="-4639.3765" cy="-4329.7622" r="0.7925" gradientTransform="matrix(24.3303 16.0798 18.6347 -32.0238 193704.625 -63745.168)" gradientUnits="userSpaceOnUse">
		<stop  offset="0" style="stop-color:#576163"/>
		<stop  offset="1" style="stop-color:#3A4446"/>
	</radialGradient>
	<path fill="url(#SVGID_35_)" d="M138.184,309.29c1.482-0.916,5.384-0.779,6.463-0.517c1.988,0.483,5.356,3.087,5.939,5.311
		c0,0-3.195-2.594-6.141-3.665C142.164,309.592,138.184,309.29,138.184,309.29z"/>

		<radialGradient id="SVGID_36_" cx="-4635.4434" cy="-4330.6587" r="0.7918" gradientTransform="matrix(21.605 11.336 -12.291 26.605 47030.5586 168075.4219)" gradientUnits="userSpaceOnUse">
		<stop  offset="0" style="stop-color:#4B5457"/>
		<stop  offset="1" style="stop-color:#2B3536"/>
	</radialGradient>
	<path fill="url(#SVGID_36_)" d="M126.059,318.253h-21.903c-0.89-0.003,0.527-10.38,9.187-10.411
		c11.627-0.04,13.542,8.789,13.75,9.423C127.284,317.852,126.828,318.253,126.059,318.253z"/>
	<path fill="#283233" d="M103.987,316.726h22.947c0.085,0.273,0.135,0.465,0.16,0.54l0.036,0.183
		c-0.02,0.216-0.109,0.423-0.255,0.575c-0.189,0.144-0.467,0.23-0.816,0.23h-21.903
		C103.942,318.253,103.863,317.644,103.987,316.726z"/>

		<radialGradient id="SVGID_37_" cx="-4668.1924" cy="-4344.2305" r="0.7925" gradientTransform="matrix(-24.3303 16.0798 -18.6347 -32.0238 -194419.2188 -63745.168)" gradientUnits="userSpaceOnUse">
		<stop  offset="0" style="stop-color:#576163"/>
		<stop  offset="1" style="stop-color:#3A4446"/>
	</radialGradient>
	<path fill="url(#SVGID_37_)" d="M117.953,309.29c-1.482-0.916-5.384-0.779-6.463-0.517c-1.989,0.483-5.356,3.087-5.939,5.311
		c0,0,3.195-2.594,6.141-3.665C113.972,309.592,117.953,309.29,117.953,309.29z"/>

		<radialGradient id="SVGID_38_" cx="-4630.7739" cy="-4345.0186" r="0.7916" gradientTransform="matrix(17.9509 0.0396 0.0398 -19.3482 83397.0313 -83604.2031)" gradientUnits="userSpaceOnUse">
		<stop  offset="0" style="stop-color:#FCCD97"/>
		<stop  offset="0.5688" style="stop-color:#FCCB95"/>
		<stop  offset="0.8294" style="stop-color:#FCC38F"/>
		<stop  offset="1" style="stop-color:#FCB986"/>
	</radialGradient>
	<path fill="url(#SVGID_38_)" d="M97.177,294.264c1.437,1.206,4.19,0.062,4.256-1.38c0.119-2.562-1.264-7.862-1.201-11.761
		c0.023-1.383-0.107-3.569,0.736-3.412c1.634,0.305-0.356,4.806,1.068,7.241c0.91,1.559,3.82,1.278,4.367-0.157
		c0.647-1.693-0.596-4.769,0.048-9.94c0.535-4.306-2.91-10.371-10.809-9.36c-6.269,0.804-7.456,6.761-7.605,13.766
		c-0.177,8.233-0.389,10.424,2.346,11.39c0,0,0.143,1.883,3.01,2.326C93.393,292.977,94.632,294.693,97.177,294.264z"/>
	<path fill="#FBC08D" d="M97.118,293.588c-0.649-1.976-0.98-4.058-1.119-6.148c-0.117-2.088-0.025-4.224,0.518-6.24
		c-0.163,2.085-0.161,4.143-0.035,6.207c0.058,1.03,0.153,2.059,0.26,3.087C96.856,291.525,96.971,292.555,97.118,293.588z"/>
	<path fill="#FBC08D" d="M93.516,292.339c-0.515-1.933-0.73-3.945-0.786-5.953c-0.034-2.007,0.11-4.045,0.639-5.976
		c-0.15,2.001-0.201,3.978-0.154,5.964c0.017,0.992,0.063,1.983,0.113,2.976C93.385,290.344,93.44,291.339,93.516,292.339z"/>
	<path fill="#FBC08D" d="M90.643,289.82c-0.373-1.782-0.53-3.601-0.579-5.421c-0.027-1.817,0.047-3.661,0.48-5.433
		c-0.052,1.82-0.035,3.616,0.005,5.421C90.58,286.192,90.649,287.996,90.643,289.82z"/>
	<path fill="#FCCD97" d="M97.338,293.824c0.199,0.515,2.544,0.452,2.433-0.247S96.994,292.942,97.338,293.824z"/>
	<path fill="#FCCD97" d="M93.676,292.649c-0.042,0.621,2.059,1.261,2.256,0.465S93.742,291.582,93.676,292.649z"/>
	<path fill="#FCCD97" d="M90.712,290.942c-0.084,0.477,1.559,1.339,1.784,0.752C92.72,291.108,90.855,290.124,90.712,290.942z"/>
	<path fill="#FCCD97" d="M88.537,288.462c-0.201,0.391,0.947,1.305,1.296,0.839C90.182,288.834,88.882,287.791,88.537,288.462z"/>
	<path fill="#FCD2A1" d="M104.05,285.143c0.328,0.43,2.559-0.34,2.268-0.977C106.023,283.53,103.486,284.399,104.05,285.143z"/>

		<radialGradient id="SVGID_39_" cx="-4646.3613" cy="-4322.8848" r="0.7921" gradientTransform="matrix(16.4101 35.6655 33.4663 -17.4884 221123.0781 90357.5234)" gradientUnits="userSpaceOnUse">
		<stop  offset="0" style="stop-color:#FCCD97"/>
		<stop  offset="0.5688" style="stop-color:#FCCB95"/>
		<stop  offset="0.8294" style="stop-color:#FCC38F"/>
		<stop  offset="1" style="stop-color:#FCB986"/>
	</radialGradient>
	<path fill="url(#SVGID_39_)" d="M223.96,261.231c1.752-0.869,1.831-5.796,0.515-6.795c-1.638-1.239-9.809-0.367-14.88-1.202
		c0.029-0.327,0.057-0.657,0.082-0.992c4.219,0.243,17.454,0.018,19.29-1.269c1.759-1.233,1.091-6.488-0.486-7.318
		c-1.731-0.908-11.818,1.364-18.862,1.964c-0.031-0.262-0.064-0.523-0.101-0.784c3.726-0.478,17.876-2.634,19.593-4.25
		c1.597-1.497,0.147-6.73-1.564-7.346c-1.921-0.689-12.476,2.997-19.541,4.868c-0.126-0.417-0.207-0.665-0.207-0.665
		s14.739-4.682,16.341-6.841c1.29-1.735-0.939-6.695-2.678-7.034c-2.562-0.501-17.731,8.912-22.46,9.619l-0.627-0.637
		c0,0,6.107-7.93,5.08-11.904c-0.717-2.774-4.583-4.925-7.479-2.927c-3.233,2.232-1.877,10.539-7.525,14.467
		c0,0-3.565,2.166-4.539,4.794c-0.936,2.521-1.539,7.357,0.58,11.27c-0.969,3.97,0.347,8.12,2.234,10.505
		c3.399,4.301,18.677,1.515,21.509,0.957C213.053,260.813,222.361,262.023,223.96,261.231z"/>
	<path fill="#FBC08D" d="M197.212,250.044c-1.703-2.929-3.237-4.564-3.237-4.564c0.168-0.164,0.336-0.328,0.493-0.507
		c0.841-0.94,1.52-2.069,1.928-3.299c0.401-1.22,0.56-2.569,0.243-3.799c-0.161,1.245-0.554,2.378-1.061,3.422
		c-0.515,1.046-1.181,1.981-1.94,2.835c-0.762,0.849-1.618,1.618-2.534,2.327c-0.915,0.713-1.891,1.362-2.88,2.056
		c1.167-0.222,2.293-0.65,3.352-1.244c0.548-0.307,1.078-0.662,1.581-1.06c0,0,1.096,0.686,3.592,4.192
		c0.812,1.139,1.41,2.428,2.052,3.743C198.589,252.679,197.954,251.322,197.212,250.044z"/>

		<radialGradient id="SVGID_40_" cx="-4646.854" cy="-4322.1509" r="0.7913" gradientTransform="matrix(14.313 36.6076 34.3502 -15.2536 215182.625 104424.375)" gradientUnits="userSpaceOnUse">
		<stop  offset="0" style="stop-color:#FCCD97"/>
		<stop  offset="0.5688" style="stop-color:#FCCB95"/>
		<stop  offset="0.8294" style="stop-color:#FCC38F"/>
		<stop  offset="1" style="stop-color:#FCB986"/>
	</radialGradient>
	<path fill="url(#SVGID_40_)" d="M198.374,232.55c0,0,6.107-7.93,5.08-11.904c-0.717-2.774-4.583-4.925-7.479-2.927
		c-3.233,2.232-1.877,10.539-7.525,14.467c0,0-3.565,2.166-4.539,4.794c-0.936,2.521-0.664,18.93,10.627,7.226
		C198.171,240.439,198.374,232.55,198.374,232.55z"/>
	<path fill="#FBC08D" d="M193.974,245.48c0.168-0.164,0.336-0.328,0.493-0.507c0.841-0.94,1.52-2.069,1.928-3.299
		c0.401-1.22,0.56-2.569,0.243-3.799c-0.161,1.245-0.554,2.378-1.061,3.422c-0.515,1.046-1.181,1.981-1.94,2.835
		c-0.762,0.849-1.618,1.618-2.534,2.327c-0.915,0.713-1.891,1.362-2.88,2.056c1.167-0.222,2.293-0.65,3.352-1.244
		c0.548-0.307,1.078-0.662,1.581-1.06L193.974,245.48z"/>
</g>
</svg>
