<svg xmlns="http://www.w3.org/2000/svg" viewBox="0 0 215.5 78.11"><defs><style>.cls-1{fill:#94002d;}.cls-2{fill:#00548e;}.cls-3{fill:#fff;}.cls-4{fill:#005087;}</style></defs><title>elib</title><g id="Layer_2" data-name="Layer 2"><g id="Layer_5" data-name="Layer 5"><path class="cls-1" d="M104.66,61.49H93.4V62a5.18,5.18,0,0,0,.95,3.26,2.85,2.85,0,0,0,2.29,1.22q2.2,0,3.48-2.82l4,.82A10,10,0,0,1,101,68.9a7.21,7.21,0,0,1-4.4,1.46,6.77,6.77,0,0,1-5.38-2.52A10.22,10.22,0,0,1,89.08,61a14.09,14.09,0,0,1,2.44-8.21,7.78,7.78,0,0,1,6.81-3.55,5.89,5.89,0,0,1,4.79,2.23c1.23,1.5,1.84,3.65,1.84,6.47A19,19,0,0,1,104.66,61.49Zm-3.79-3.33,0-.54a5.65,5.65,0,0,0-.85-3.41,2.67,2.67,0,0,0-2.2-1.1,3.28,3.28,0,0,0-2.49,1.28,7.3,7.3,0,0,0-1.49,3.77Z"/><path class="cls-1" d="M106.45,69.91,111.23,42H116l-4,23.25h11.69l-.8,4.67Z"/><path class="cls-1" d="M129.32,49.68h4.47l-3.46,20.23h-4.48ZM130.63,42h4.49l-.85,4.95h-4.48Z"/><path class="cls-1" d="M134.38,69.91,139.16,42h4.5l-1.6,9.33a9,9,0,0,1,2.36-1.65,5.56,5.56,0,0,1,2.24-.44,5,5,0,0,1,4.2,2.11q1.59,2.11,1.59,6.26a17.84,17.84,0,0,1-1.24,6.83,10.61,10.61,0,0,1-3.13,4.49,6.24,6.24,0,0,1-3.82,1.44c-2.37,0-4.12-1.25-5.23-3.77l-.57,3.32Zm6-8.24a5.36,5.36,0,0,0,1,3.34,2.76,2.76,0,0,0,2.21,1.26,3.06,3.06,0,0,0,2-.85,7.08,7.08,0,0,0,1.74-3.05,14,14,0,0,0,.76-4.63,5.51,5.51,0,0,0-.92-3.43,2.69,2.69,0,0,0-2.19-1.2c-1.29,0-2.38.84-3.25,2.52A13,13,0,0,0,140.42,61.67Z"/><path class="cls-1" d="M157.38,49.68h4.21l-.67,3.93c1.57-2.92,3.27-4.38,5.12-4.38a4.68,4.68,0,0,1,2.1.57l-1.71,4.47a3.17,3.17,0,0,0-1.29-.26,3.22,3.22,0,0,0-2,.7A6.93,6.93,0,0,0,161,57.55a29.94,29.94,0,0,0-1.49,6l-1.11,6.35h-4.47Z"/><path class="cls-1" d="M173,55.41,168.66,55a7.77,7.77,0,0,1,2.72-4.27,7.92,7.92,0,0,1,4.92-1.46,6.64,6.64,0,0,1,4.66,1.5,5.13,5.13,0,0,1,1.63,4,12.22,12.22,0,0,1-.15,1.85c-.1.66-.49,2.45-1.15,5.38a26.84,26.84,0,0,0-.82,5.06,11,11,0,0,0,.44,2.91h-4.46a11.6,11.6,0,0,1-.34-2.3,7,7,0,0,1-2.19,2,4.94,4.94,0,0,1-2.47.7,4.06,4.06,0,0,1-3.26-1.6,6.46,6.46,0,0,1-1.32-4.26,6.6,6.6,0,0,1,1.56-4.72c1-1.11,2.75-1.78,5.18-2a18,18,0,0,0,4.28-.78,6.75,6.75,0,0,0,.36-1.85,1.9,1.9,0,0,0-.63-1.48,2.5,2.5,0,0,0-1.71-.56A2.67,2.67,0,0,0,173,55.41Zm4.12,5.07a8.42,8.42,0,0,1-1.06.25,9.48,9.48,0,0,0-4,1.22,2.48,2.48,0,0,0-1,2.06,2.35,2.35,0,0,0,.55,1.63,1.8,1.8,0,0,0,1.41.63,3.08,3.08,0,0,0,1.7-.52,3.79,3.79,0,0,0,1.31-1.46A12.94,12.94,0,0,0,177,61.2Z"/><path class="cls-1" d="M187.6,49.68h4.21l-.67,3.93c1.57-2.92,3.27-4.38,5.12-4.38a4.75,4.75,0,0,1,2.11.57l-1.72,4.47a3.17,3.17,0,0,0-1.29-.26,3.22,3.22,0,0,0-2,.7,6.93,6.93,0,0,0-2.16,2.84,29.94,29.94,0,0,0-1.49,6l-1.1,6.35h-4.48Z"/><path class="cls-1" d="M198.32,49.68h4.46l1.13,10.08c.28,2.57.43,4.39.47,5.44a50.35,50.35,0,0,1,2.4-6.55l4-9h4.74L205.26,71.89A27.74,27.74,0,0,1,203,76.07a5.1,5.1,0,0,1-1.76,1.55,4.83,4.83,0,0,1-2.22.49,10,10,0,0,1-3.2-.61l.4-4.07a4.6,4.6,0,0,0,1.56.28c1.37,0,2.51-1.26,3.4-3.8Z"/><rect class="cls-2" width="75.75" height="75.82"/><polygon class="cls-3" points="61.1 51.37 59.4 47.26 57.58 51.37 53.46 51.37 59.26 38.61 65.08 51.37 61.1 51.37"/><polygon class="cls-3" points="56.05 54.16 53.92 59.01 59.11 56.35 61.96 58.61 51.87 63.52 47.88 63.52 53.19 51.57 56.05 54.16"/><polygon class="cls-3" points="70.33 63.52 66.02 63.52 62.09 54.24 64.9 51.49 70.33 63.52"/><path class="cls-3" d="M44.78,39.38s-.59,3.6-.53,3.77C42,42,38.82,41.35,36.7,42.53a2.94,2.94,0,0,0-1,3.47c3.47,3.8,9.63,2.91,10,10.24a7.05,7.05,0,0,1-2.29,5.26c-3.24,2.53-7.95,2.35-11.7,1l.4-4c2.18,1.18,6.21,2.24,8.56.06a4,4,0,0,0,.89-3.3c-1.34-3.92-12-3.75-10-11.86a6.48,6.48,0,0,1,4.08-4.37C38.37,37.79,42.11,38.54,44.78,39.38Z"/><path class="cls-3" d="M25.27,39.88l-.13,4c-3-1.9-8.2-2.6-11.59-.6-3,1.78-4,4.39-4.06,7.59a8.74,8.74,0,0,0,4.67,8.36c2.2,1.15,7.34.59,7.34.59l0-6.07H17l0-3.76h8.55l0,12.78c-4.71,1.4-10.9,1.49-15-1.32-4.43-3-5.2-6.71-5.2-10.59,0-5.2,3.11-10.74,9.26-11.92A19.49,19.49,0,0,1,25.27,39.88Z"/><path class="cls-4" d="M83.48,2.89a.84.84,0,0,0,.83-.84.79.79,0,0,0-.45-.67,1.93,1.93,0,0,0-.79-.09h-1V4.18h.47V3h.28c.36,0,.49.13.86.78l.26.45h.57l-.35-.56C83.86,3.15,83.7,3,83.48,2.89Zm-.37-.34h-.57V1.68h.53c.55,0,.74.11.74.43S83.59,2.55,83.11,2.55Z"/><path class="cls-4" d="M83.26,0A2.7,2.7,0,1,0,86,2.69,2.7,2.7,0,0,0,83.26,0Zm0,4.94A2.25,2.25,0,1,1,85.5,2.69,2.25,2.25,0,0,1,83.26,4.94Z"/></g></g></svg>