<svg xmlns="http://www.w3.org/2000/svg" viewBox="0 0 273.87 61.09"><defs><style>.cls-1{fill:#231f20;}.cls-2{fill:#fff;}.cls-3{fill:none;}.cls-4{fill:#16191e;}.cls-5{fill:#7d7a7e;}.cls-6{fill:#1153a0;}.cls-7{fill:#ee2425;}.cls-8{fill:#819cc8;}.cls-9{fill:#829dca;}</style></defs><title>FPDSNG</title><g id="Layer_2" data-name="Layer 2"><g id="Layer_3" data-name="Layer 3"><path class="cls-1" d="M71,6.67H87.45v4.61H77.71V15H86v4.34H77.71v8.77H71Z"/><path class="cls-1" d="M91,6.67h11a7.53,7.53,0,0,1,5.39,1.71,6.42,6.42,0,0,1,1.8,4.88,6.59,6.59,0,0,1-2,5.08q-2,1.83-6,1.83H97.66v8H91Zm6.66,9.15h1.63a4.2,4.2,0,0,0,2.69-.66,2.16,2.16,0,0,0,.78-1.71,2.37,2.37,0,0,0-.68-1.71A3.48,3.48,0,0,0,99.55,11H97.66Z"/><path class="cls-1" d="M112.78,6.67h9.86a11.79,11.79,0,0,1,4.71.79,7.66,7.66,0,0,1,3,2.27,9.4,9.4,0,0,1,1.7,3.44,16.07,16.07,0,0,1,.53,4.16,14.24,14.24,0,0,1-.79,5.34,8.69,8.69,0,0,1-2.17,3.18,7.21,7.21,0,0,1-3,1.71,15.34,15.34,0,0,1-4,.58h-9.86Zm6.63,4.86V23.26H121a6.81,6.81,0,0,0,3-.46,3.15,3.15,0,0,0,1.38-1.61,10.22,10.22,0,0,0,.49-3.73c0-2.27-.37-3.83-1.11-4.67a4.7,4.7,0,0,0-3.69-1.26Z"/><path class="cls-1" d="M134.87,21l6.31-.4A4.87,4.87,0,0,0,142,23a3.53,3.53,0,0,0,2.93,1.3,3.24,3.24,0,0,0,2.19-.67,1.92,1.92,0,0,0,0-3,8.48,8.48,0,0,0-3.4-1.24,14.53,14.53,0,0,1-6.22-2.61,5.23,5.23,0,0,1-1.88-4.14,5.62,5.62,0,0,1,1-3.13,6.42,6.42,0,0,1,2.89-2.32,13.48,13.48,0,0,1,5.28-.84,10.82,10.82,0,0,1,6.28,1.53,6.64,6.64,0,0,1,2.57,4.87l-6.26.37a3.29,3.29,0,0,0-1-2.11,3.34,3.34,0,0,0-2.2-.66,2.64,2.64,0,0,0-1.74.49,1.52,1.52,0,0,0-.59,1.19,1.21,1.21,0,0,0,.48.93,5.67,5.67,0,0,0,2.23.79,27.43,27.43,0,0,1,6.23,1.9A6.5,6.5,0,0,1,153.49,18a6,6,0,0,1,.86,3.17A6.81,6.81,0,0,1,153.21,25a7.1,7.1,0,0,1-3.2,2.65,12.89,12.89,0,0,1-5.17.9q-5.47,0-7.58-2.11A8.28,8.28,0,0,1,134.87,21Z"/><path class="cls-1" d="M70.54,39.28h4.75l6.2,9.11V39.28h4.79V55.74H81.49l-6.17-9v9H70.54Z"/><path class="cls-1" d="M102.6,50.91H93.43a3,3,0,0,0,.6,1.64,2.16,2.16,0,0,0,1.73.78A2.53,2.53,0,0,0,97,53a3,3,0,0,0,.8-.75l4.5.41a6.46,6.46,0,0,1-2.49,2.58,9.08,9.08,0,0,1-4.19.78,8.52,8.52,0,0,1-3.73-.67,5.37,5.37,0,0,1-2.25-2.12,6.36,6.36,0,0,1-.89-3.42,6,6,0,0,1,1.79-4.52,6.78,6.78,0,0,1,4.94-1.73,8.79,8.79,0,0,1,4,.77,5.26,5.26,0,0,1,2.25,2.25,8.14,8.14,0,0,1,.78,3.83ZM98,48.72a3.07,3.07,0,0,0-.71-1.89,2.23,2.23,0,0,0-3.27.29,3.17,3.17,0,0,0-.52,1.6Z"/><path class="cls-1" d="M103.08,43.82h5.43l1.89,3.32,2.21-3.32h5l-4.07,5.68,4.36,6.24h-5.33L110.4,51.9l-2.59,3.84h-5l4.33-6.24Z"/><path class="cls-1" d="M125,39.28v4.54h2.51v3.34H125v4.23a2.43,2.43,0,0,0,.14,1,.85.85,0,0,0,.79.38,5.2,5.2,0,0,0,1.42-.29l.33,3.15a14.63,14.63,0,0,1-3.16.37,5.41,5.41,0,0,1-2.52-.44,2.67,2.67,0,0,1-1.2-1.32,8.06,8.06,0,0,1-.38-2.89v-4.2h-1.69V43.82h1.69V41.63Z"/><path class="cls-1" d="M145.9,49.78V46.35h7.86v7a15.84,15.84,0,0,1-4,2.1,13.54,13.54,0,0,1-4.11.55,10,10,0,0,1-4.78-1,6.82,6.82,0,0,1-2.87-3,9.89,9.89,0,0,1-1-4.54,9.48,9.48,0,0,1,1.11-4.69,7.21,7.21,0,0,1,3.26-3,10.59,10.59,0,0,1,4.5-.79,12.63,12.63,0,0,1,4.08.49A5.38,5.38,0,0,1,152.2,41a7,7,0,0,1,1.34,2.64l-4.91.87a2.64,2.64,0,0,0-1-1.42,3.23,3.23,0,0,0-1.85-.5,3.32,3.32,0,0,0-2.67,1.17,5.59,5.59,0,0,0-1,3.67,5.76,5.76,0,0,0,1,3.82,3.52,3.52,0,0,0,2.8,1.15,5.15,5.15,0,0,0,1.63-.25,8.4,8.4,0,0,0,1.78-.84V49.78Z"/><path class="cls-1" d="M169.72,50.91h-9.16a3,3,0,0,0,.59,1.64,2.18,2.18,0,0,0,1.73.78,2.53,2.53,0,0,0,1.28-.34,2.85,2.85,0,0,0,.8-.75l4.51.41a6.42,6.42,0,0,1-2.5,2.58,9.06,9.06,0,0,1-4.19.78,8.52,8.52,0,0,1-3.73-.67,5.49,5.49,0,0,1-2.25-2.12,6.45,6.45,0,0,1-.89-3.42,6,6,0,0,1,1.79-4.52,6.8,6.8,0,0,1,5-1.73,8.75,8.75,0,0,1,4,.77A5.28,5.28,0,0,1,169,46.57a8.15,8.15,0,0,1,.77,3.83Zm-4.65-2.19a3,3,0,0,0-.71-1.89,2,2,0,0,0-1.52-.58,2.05,2.05,0,0,0-1.74.87,3.17,3.17,0,0,0-.53,1.6Z"/><path class="cls-1" d="M171.82,43.82h4.26v1.94a6.29,6.29,0,0,1,1.93-1.7,5.1,5.1,0,0,1,2.38-.51,3.89,3.89,0,0,1,3,1.12,4.91,4.91,0,0,1,1.08,3.49v7.58h-4.6V49.18a2.47,2.47,0,0,0-.41-1.59,1.49,1.49,0,0,0-1.17-.46,1.66,1.66,0,0,0-1.35.63,3.68,3.68,0,0,0-.52,2.25v5.73h-4.57Z"/><path class="cls-1" d="M200.4,50.91h-9.16a2.88,2.88,0,0,0,.6,1.64,2.15,2.15,0,0,0,1.73.78,2.58,2.58,0,0,0,1.28-.34,3,3,0,0,0,.79-.75l4.51.41a6.42,6.42,0,0,1-2.5,2.58,9.06,9.06,0,0,1-4.19.78,8.45,8.45,0,0,1-3.72-.67,5.45,5.45,0,0,1-2.26-2.12,6.45,6.45,0,0,1-.89-3.42,6,6,0,0,1,1.79-4.52,6.82,6.82,0,0,1,5-1.73,8.75,8.75,0,0,1,4,.77,5.28,5.28,0,0,1,2.26,2.25,8.15,8.15,0,0,1,.77,3.83Zm-4.64-2.19a3,3,0,0,0-.72-1.89,2,2,0,0,0-1.52-.58,2.05,2.05,0,0,0-1.74.87,3.17,3.17,0,0,0-.53,1.6Z"/><path class="cls-1" d="M202.55,43.82h4.28v2A4.72,4.72,0,0,1,208.1,44a2.75,2.75,0,0,1,1.63-.47,4.92,4.92,0,0,1,2.21.62l-1.42,3.26a3.69,3.69,0,0,0-1.28-.34,1.57,1.57,0,0,0-1.39.75,7.49,7.49,0,0,0-.71,3.9v4h-4.59Z"/><path class="cls-1" d="M217.27,47.68l-4.37-.46a5,5,0,0,1,.72-1.8A3.91,3.91,0,0,1,215,44.28a5.27,5.27,0,0,1,1.73-.54,13.67,13.67,0,0,1,2.38-.19,18.27,18.27,0,0,1,3.3.23,4.22,4.22,0,0,1,2.08,1,3.26,3.26,0,0,1,.92,1.43,5.32,5.32,0,0,1,.34,1.77V53.2a6.41,6.41,0,0,0,.1,1.32,5.77,5.77,0,0,0,.47,1.22H222a5.2,5.2,0,0,1-.34-.7,5.27,5.27,0,0,1-.15-.76,6,6,0,0,1-1.79,1.24,7.44,7.44,0,0,1-2.82.49,4.72,4.72,0,0,1-3.24-1,3.11,3.11,0,0,1-1.1-2.43,3.21,3.21,0,0,1,.79-2.24,5.38,5.38,0,0,1,2.94-1.3c1.72-.34,2.83-.59,3.34-.73a14.63,14.63,0,0,0,1.62-.54,1.63,1.63,0,0,0-.35-1.18,1.76,1.76,0,0,0-1.22-.34,3.19,3.19,0,0,0-1.69.36A2,2,0,0,0,217.27,47.68Zm4,2.4c-.63.23-1.29.42-2,.6a4.42,4.42,0,0,0-1.76.73,1.11,1.11,0,0,0-.38.84,1.13,1.13,0,0,0,.37.88,1.59,1.59,0,0,0,1.11.34A2.81,2.81,0,0,0,220,53.1a2.19,2.19,0,0,0,.93-.9,3,3,0,0,0,.28-1.39Z"/><path class="cls-1" d="M233.57,39.28v4.54h2.51v3.34h-2.51v4.23a2.43,2.43,0,0,0,.14,1,.85.85,0,0,0,.79.38,5.2,5.2,0,0,0,1.42-.29l.33,3.15a14.63,14.63,0,0,1-3.16.37,5.41,5.41,0,0,1-2.52-.44,2.67,2.67,0,0,1-1.2-1.32,8.06,8.06,0,0,1-.38-2.89v-4.2H227.3V43.82H229V41.63Z"/><path class="cls-1" d="M238.43,39.28H243v3.11h-4.57Zm0,4.54H243V55.74h-4.57Z"/><path class="cls-1" d="M245.36,49.81a6,6,0,0,1,1.84-4.5,6.93,6.93,0,0,1,5-1.76,6.84,6.84,0,0,1,5.41,2.07,6.5,6.5,0,0,1-.35,8.63A7,7,0,0,1,252.19,56a7,7,0,0,1-4.65-1.46A5.86,5.86,0,0,1,245.36,49.81Zm4.58,0a3.61,3.61,0,0,0,.65,2.36,2.12,2.12,0,0,0,3.24,0,3.68,3.68,0,0,0,.64-2.41,3.48,3.48,0,0,0-.64-2.31,2,2,0,0,0-1.59-.76,2.09,2.09,0,0,0-1.65.77A3.57,3.57,0,0,0,249.94,49.8Z"/><path class="cls-1" d="M261.26,43.82h4.26v1.94a6.29,6.29,0,0,1,1.93-1.7,5.1,5.1,0,0,1,2.38-.51,3.89,3.89,0,0,1,3,1.12,4.91,4.91,0,0,1,1.07,3.49v7.58h-4.59V49.18a2.47,2.47,0,0,0-.41-1.59,1.49,1.49,0,0,0-1.17-.46,1.65,1.65,0,0,0-1.35.63,3.68,3.68,0,0,0-.52,2.25v5.73h-4.57Z"/><path class="cls-1" d="M0,48.85V13.17C0,6.48-.2,0,6.61,0l48,.3c6.82,0,8.68,1.87,8.68,8.55v40c-1,14,1.46,12.16-12.39,12.16H12.39C2.61,61.09-.09,59.86,0,48.85Z"/><path class="cls-2" d="M60.66,14.22V46.88a12,12,0,0,1-12,12H7.73c-6.6,0-5.4-5.4-5.4-12V14.22a12,12,0,0,1,12-12l37.28,0C61,2.22,60.66,7.62,60.66,14.22Z"/><path class="cls-3" d="M3.74,57.51l.14.12a.37.37,0,0,0,0-.55C3.83,57.22,3.79,57.37,3.74,57.51Z"/><path class="cls-3" d="M23.89,58.79c-1.34,0-2.69,0-4,0l4.12,0S23.91,58.82,23.89,58.79Z"/><path class="cls-3" d="M35.54,2.07h.14C30.32,1.91,24.94,2,19.57,2,24.89,2,30.22,1.91,35.54,2.07Z"/><path class="cls-3" d="M31.23,58.88c.78-.05,3.83-.06,7.6-.06-3.82,0-6.92,0-7.76.06Z"/><path class="cls-3" d="M60.61,5.93c-.32-4.7-5.77-3.59-9-3.67-3.84-.09-7.68-.15-11.52-.23q0,.06-.12,0c5.62.12,11.47-.25,17.06.39,4,.47,3.44,4.84,3.48,7.91q.27,17.87.44,35.73c0,3.09,1.37,12.36-3.27,12.82,4.22,0,3.51-6.9,3.49-9.68Q61.08,41,61,32.73C60.88,23.87,61.34,14.77,60.61,5.93Z"/><polygon class="cls-4" points="35.94 34.63 35.93 34.63 35.94 34.64 35.94 34.63"/><path class="cls-5" d="M62.36,58.34l0-.39,0,.4Z"/><path class="cls-6" d="M23.89,58.91s1.71-29.14,3.73-30.72,5.33.75,5.33.75L36.09,6,13.39,21.21s5.25,1.26,5.35,3.5S6.3,59,6.3,59l17.59-.05Z"/><polygon class="cls-7" points="39.99 2.49 35.94 34.64 29.87 31.89 27.33 57.26 50.14 36.08 46.48 35.59 55.87 2.22 40.31 2.09 39.99 2.49 39.99 2.49"/><path class="cls-8" d="M10.65,35.32c1.1-3.45,4-8.52-.67-10.19-1.07-.38-4.82-.6-5.15-1.77-.26-.95,3.57-2.91,4.32-3.42C17.87,14.05,27.32,8.63,35.54,2.07,26.47,1.8,11.77,1.78,7.92,2c-5.45.37-5.55,2.75-5.61,7-.16,11.57-.17,25-.13,36.59,0,2.74-1.05,10,1.52,12C6.08,50.21,8.27,42.74,10.65,35.32Z"/><path class="cls-9" d="M61,53.36c0-8.3-.17-16.6-.27-24.89-.09-7.48.44-14.32-.09-21.78-1.81,5.31-4.17,9.81-6.29,15-1.13,2.77-6.3,10.45-.58,10.81,1.42.08,4.48-1.05,4.44,1.11,0,1-1.33,2-2,2.67-1.24,1.22-2.62,2.33-3.92,3.48-7.19,6.37-14.45,12.67-21.59,19.11,6.9.24,13.87,0,20.77,0C56.09,58.87,61,59.72,61,53.36Z"/></g></g></svg>