<?xml version="1.0" encoding="utf-8"?>
<!-- Generator: Adobe Illustrator 17.0.0, SVG Export Plug-In . SVG Version: 6.00 Build 0)  -->
<svg version="1.2" baseProfile="tiny" id="Layer_1" xmlns="http://www.w3.org/2000/svg"
     x="0px" y="0px" width="439.5px" height="103.5px" viewBox="0 0 439.5 103.5" xml:space="preserve">
<g>
	<g>
		<path fill="#0A2743" d="M16.40201,50.37676c0.10248-0.00452,0.31346-0.00754,0.41897-0.01205
			c0.80931,1.4061,1.50407,2.88002,2.27568,4.31174c1.68491,0.35115,3.37888,0.68723,5.07133,1.03235
			c-1.17854,1.32623-2.36613,2.64493-3.5341,3.98322c0.22606,1.77232,0.43404,3.54916,0.64201,5.3245
			c-1.57642-0.71435-3.10609-1.51612-4.6629-2.26363c-1.55682,0.73997-3.07594,1.56133-4.66289,2.24102
			c0.20798-1.7693,0.41595-3.53711,0.64201-5.3019c-1.16798-1.32623-2.33144-2.65246-3.5341-3.94855
			c1.68189-0.41143,3.39394-0.69928,5.08639-1.07304C14.90247,53.24171,15.59422,51.77533,16.40201,50.37676z"/>
	</g>
	<g>
		<path fill="#0A2743" d="M35.75506,50.37676c0.10247-0.00452,0.31346-0.00754,0.41897-0.01205
			c0.8093,1.4061,1.50407,2.88002,2.27568,4.31174c1.68491,0.35115,3.37887,0.68723,5.07132,1.03235
			c-1.17853,1.32623-2.36612,2.64493-3.5341,3.98322c0.22605,1.77232,0.43403,3.54916,0.64201,5.3245
			c-1.57641-0.71435-3.10609-1.51612-4.66289-2.26363c-1.55682,0.73997-3.07595,1.56133-4.66289,2.24102
			c0.20798-1.7693,0.41595-3.53711,0.64201-5.3019c-1.16798-1.32623-2.33144-2.65246-3.5341-3.94855
			c1.6819-0.41143,3.39394-0.69928,5.08639-1.07304C34.25552,53.24171,34.94727,51.77533,35.75506,50.37676z"/>
	</g>
	<g>
		<path fill="#0A2743" d="M55.1081,50.37676c0.10247-0.00452,0.31346-0.00754,0.41897-0.01205
			c0.8093,1.4061,1.50407,2.88002,2.27568,4.31174c1.68491,0.35115,3.37887,0.68723,5.07132,1.03235
			c-1.17853,1.32623-2.36612,2.64493-3.5341,3.98322c0.22605,1.77232,0.43403,3.54916,0.64201,5.3245
			c-1.57641-0.71435-3.10609-1.51612-4.66289-2.26363c-1.55682,0.73997-3.07595,1.56133-4.66289,2.24102
			c0.20798-1.7693,0.41595-3.53711,0.64201-5.3019c-1.16798-1.32623-2.33144-2.65246-3.5341-3.94855
			c1.6819-0.41143,3.39394-0.69928,5.08639-1.07304C53.60857,53.24171,54.30032,51.77533,55.1081,50.37676z"/>
	</g>
	<g>
		<path fill="#0A2743" d="M74.46115,50.37676c0.10247-0.00452,0.31346-0.00754,0.41897-0.01205
			c0.8093,1.4061,1.50407,2.88002,2.27568,4.31174c1.68491,0.35115,3.37888,0.68723,5.07133,1.03235
			c-1.17854,1.32623-2.36613,2.64493-3.5341,3.98322c0.22605,1.77232,0.43403,3.54916,0.64201,5.3245
			c-1.57641-0.71435-3.10609-1.51612-4.66289-2.26363c-1.55682,0.73997-3.07594,1.56133-4.66289,2.24102
			c0.20798-1.7693,0.41595-3.53711,0.64201-5.3019c-1.16798-1.32623-2.33144-2.65246-3.5341-3.94855
			c1.6819-0.41143,3.39394-0.69928,5.0864-1.07304C72.96162,53.24171,73.65337,51.77533,74.46115,50.37676z"/>
	</g>
	<g>
		<path fill="#0A2743" d="M93.8142,50.37676c0.10247-0.00452,0.31346-0.00754,0.41897-0.01205
			c0.8093,1.4061,1.50406,2.88002,2.27567,4.31174c1.68491,0.35115,3.37888,0.68723,5.07133,1.03235
			c-1.17853,1.32623-2.36612,2.64493-3.5341,3.98322c0.22605,1.77232,0.43403,3.54916,0.64201,5.3245
			c-1.57641-0.71435-3.10609-1.51612-4.66289-2.26363c-1.55682,0.73997-3.07595,1.56133-4.6629,2.24102
			c0.20798-1.7693,0.41595-3.53711,0.64201-5.3019c-1.16798-1.32623-2.33144-2.65246-3.5341-3.94855
			c1.68189-0.41143,3.39394-0.69928,5.08639-1.07304C92.31467,53.24171,93.00642,51.77533,93.8142,50.37676z"/>
	</g>
	<g>
		<path fill="#0A2743" d="M113.16724,50.37676c0.10247-0.00452,0.31346-0.00754,0.41897-0.01205
			c0.80931,1.4061,1.50407,2.88002,2.27568,4.31174c1.68491,0.35115,3.37888,0.68723,5.07133,1.03235
			c-1.17854,1.32623-2.36613,2.64493-3.5341,3.98322c0.22605,1.77232,0.43403,3.54916,0.64201,5.3245
			c-1.57641-0.71435-3.10609-1.51612-4.66289-2.26363c-1.55682,0.73997-3.07594,1.56133-4.66289,2.24102
			c0.20798-1.7693,0.41595-3.53711,0.64201-5.3019c-1.16798-1.32623-2.33144-2.65246-3.5341-3.94855
			c1.68189-0.41143,3.39394-0.69928,5.08639-1.07304C111.66771,53.24171,112.35946,51.77533,113.16724,50.37676z"/>
	</g>
	<g>
		<path fill="#0A2743" d="M132.52029,50.37676c0.10248-0.00452,0.31346-0.00754,0.41898-0.01205
			c0.8093,1.4061,1.50406,2.88002,2.27567,4.31174c1.68491,0.35115,3.37888,0.68723,5.07133,1.03235
			c-1.17854,1.32623-2.36613,2.64493-3.5341,3.98322c0.22604,1.77232,0.43402,3.54916,0.642,5.3245
			c-1.5764-0.71435-3.10608-1.51612-4.66287-2.26363c-1.55682,0.73997-3.07596,1.56133-4.6629,2.24102
			c0.20798-1.7693,0.41595-3.53711,0.64201-5.3019c-1.16798-1.32623-2.33145-2.65246-3.5341-3.94855
			c1.6819-0.41143,3.39394-0.69928,5.0864-1.07304C131.02075,53.24171,131.71251,51.77533,132.52029,50.37676z"/>
	</g>
	<g>
		<path fill="#0A2743" d="M151.87334,50.37676c0.10248-0.00452,0.31346-0.00754,0.41898-0.01205
			c0.8093,1.4061,1.50406,2.88002,2.27568,4.31174c1.68491,0.35115,3.37888,0.68723,5.07132,1.03235
			c-1.17853,1.32623-2.36612,2.64493-3.5341,3.98322c0.22606,1.77232,0.43404,3.54916,0.64201,5.3245
			c-1.57642-0.71435-3.10609-1.51612-4.66289-2.26363c-1.55682,0.73997-3.07594,1.56133-4.66289,2.24102
			c0.20798-1.7693,0.41595-3.53711,0.642-5.3019c-1.16797-1.32623-2.33145-2.65246-3.53409-3.94855
			c1.68188-0.41143,3.39392-0.69928,5.08638-1.07304C150.37381,53.24171,151.06555,51.77533,151.87334,50.37676z"/>
	</g>
	<g>
		<path fill="#0A2743" d="M171.22638,50.37676c0.10248-0.00452,0.31348-0.00754,0.41898-0.01205
			c0.8093,1.4061,1.50406,2.88002,2.27568,4.31174c1.68491,0.35115,3.37888,0.68723,5.07132,1.03235
			c-1.17853,1.32623-2.36612,2.64493-3.5341,3.98322c0.22606,1.77232,0.43404,3.54916,0.64201,5.3245
			c-1.5764-0.71435-3.10609-1.51612-4.66289-2.26363c-1.55682,0.73997-3.07594,1.56133-4.66289,2.24102
			c0.20798-1.7693,0.41595-3.53711,0.64201-5.3019c-1.16798-1.32623-2.33145-2.65246-3.53412-3.94855
			c1.68192-0.41143,3.39395-0.69928,5.0864-1.07304C169.72685,53.24171,170.41861,51.77533,171.22638,50.37676z"/>
	</g>
	<g>
		<path fill="#0A2743" d="M190.57944,50.37676c0.10248-0.00452,0.31346-0.00754,0.41898-0.01205
			c0.8093,1.4061,1.50406,2.88002,2.27567,4.31174c1.68491,0.35115,3.37888,0.68723,5.07132,1.03235
			c-1.17853,1.32623-2.36612,2.64493-3.53409,3.98322c0.22604,1.77232,0.43402,3.54916,0.642,5.3245
			c-1.57642-0.71435-3.10608-1.51612-4.66289-2.26363c-1.55681,0.73997-3.07594,1.56133-4.66289,2.24102
			c0.20798-1.7693,0.41595-3.53711,0.642-5.3019c-1.16797-1.32623-2.33144-2.65246-3.53409-3.94855
			c1.68188-0.41143,3.39394-0.69928,5.0864-1.07304C189.0799,53.24171,189.77164,51.77533,190.57944,50.37676z"/>
	</g>
	<g>
		<path fill="#0A2743" d="M209.93248,50.37676c0.10246-0.00452,0.31346-0.00754,0.41896-0.01205
			c0.80931,1.4061,1.50407,2.88002,2.2757,4.31174c1.68491,0.35115,3.37888,0.68723,5.07132,1.03235
			c-1.17853,1.32623-2.36612,2.64493-3.5341,3.98322c0.22606,1.77232,0.43404,3.54916,0.64201,5.3245
			c-1.57642-0.71435-3.10611-1.51612-4.6629-2.26363c-1.55681,0.73997-3.07593,1.56133-4.66287,2.24102
			c0.20798-1.7693,0.41595-3.53711,0.642-5.3019c-1.16797-1.32623-2.33145-2.65246-3.53409-3.94855
			c1.68188-0.41143,3.39392-0.69928,5.08638-1.07304C208.43295,53.24171,209.12469,51.77533,209.93248,50.37676z"/>
	</g>
	<g>
		<path fill="#0A2743" d="M229.28552,50.37676c0.10248-0.00452,0.31346-0.00754,0.41898-0.01205
			c0.8093,1.4061,1.50406,2.88002,2.27568,4.31174c1.68491,0.35115,3.37888,0.68723,5.07132,1.03235
			c-1.17853,1.32623-2.36612,2.64493-3.5341,3.98322c0.22606,1.77232,0.43404,3.54916,0.64201,5.3245
			c-1.57642-0.71435-3.10609-1.51612-4.66289-2.26363c-1.55682,0.73997-3.07594,1.56133-4.66289,2.24102
			c0.20798-1.7693,0.41595-3.53711,0.642-5.3019c-1.16797-1.32623-2.33144-2.65246-3.53409-3.94855
			c1.68188-0.41143,3.39394-0.69928,5.08638-1.07304C227.786,53.24171,228.47774,51.77533,229.28552,50.37676z"/>
	</g>
	<g>
		<path fill="#0A2743" d="M248.63858,50.37676c0.10246-0.00452,0.31346-0.00754,0.41896-0.01205
			c0.80931,1.4061,1.50407,2.88002,2.27568,4.31174c1.68491,0.35115,3.37888,0.68723,5.07132,1.03235
			c-1.17853,1.32623-2.36612,2.64493-3.53409,3.98322c0.22604,1.77232,0.43402,3.54916,0.642,5.3245
			c-1.5764-0.71435-3.10609-1.51612-4.66289-2.26363c-1.55682,0.73997-3.07594,1.56133-4.66289,2.24102
			c0.20798-1.7693,0.41595-3.53711,0.64201-5.3019c-1.16798-1.32623-2.33145-2.65246-3.5341-3.94855
			c1.6819-0.41143,3.39394-0.69928,5.08638-1.07304C247.13904,53.24171,247.8308,51.77533,248.63858,50.37676z"/>
	</g>
	<g>
		<path fill="#0A2743" d="M267.99164,50.37676c0.10245-0.00452,0.31345-0.00754,0.41895-0.01205
			c0.80933,1.4061,1.50409,2.88002,2.2757,4.31174c1.68488,0.35115,3.37885,0.68723,5.07132,1.03235
			c-1.17856,1.32623-2.36612,2.64493-3.53409,3.98322c0.22601,1.77232,0.43402,3.54916,0.642,5.3245
			c-1.57642-0.71435-3.10611-1.51612-4.6629-2.26363c-1.55679,0.73997-3.07596,1.56133-4.66287,2.24102
			c0.20795-1.7693,0.41595-3.53711,0.642-5.3019c-1.168-1.32623-2.33145-2.65246-3.53409-3.94855
			c1.68188-0.41143,3.39392-0.69928,5.08636-1.07304C266.49207,53.24171,267.18384,51.77533,267.99164,50.37676z"/>
	</g>
	<g>
		<path fill="#0A2743" d="M287.34467,50.37676c0.10248-0.00452,0.31348-0.00754,0.41898-0.01205
			c0.8093,1.4061,1.50406,2.88002,2.27567,4.31174c1.68494,0.35115,3.37891,0.68723,5.07135,1.03235
			c-1.17853,1.32623-2.36615,2.64493-3.53412,3.98322c0.22607,1.77232,0.43402,3.54916,0.64203,5.3245
			c-1.57642-0.71435-3.10611-1.51612-4.6629-2.26363c-1.55682,0.73997-3.07596,1.56133-4.6629,2.24102
			c0.20801-1.7693,0.41595-3.53711,0.64203-5.3019c-1.16797-1.32623-2.33145-2.65246-3.53412-3.94855
			c1.68188-0.41143,3.39395-0.69928,5.0864-1.07304C285.84515,53.24171,286.53687,51.77533,287.34467,50.37676z"/>
	</g>
	<g>
		<path fill="#0A2743" d="M306.69772,50.37676c0.10245-0.00452,0.31345-0.00754,0.41898-0.01205
			c0.8093,1.4061,1.50403,2.88002,2.27567,4.31174c1.68491,0.35115,3.37888,0.68723,5.07132,1.03235
			c-1.17853,1.32623-2.36612,2.64493-3.53412,3.98322c0.22607,1.77232,0.43405,3.54916,0.64203,5.3245
			c-1.57642-0.71435-3.10608-1.51612-4.6629-2.26363c-1.55682,0.73997-3.07593,1.56133-4.66287,2.24102
			c0.20798-1.7693,0.41595-3.53711,0.642-5.3019c-1.16797-1.32623-2.33142-2.65246-3.53409-3.94855
			c1.68188-0.41143,3.39395-0.69928,5.0864-1.07304C305.19818,53.24171,305.88992,51.77533,306.69772,50.37676z"/>
	</g>
	<g>
		<path fill="#0A2743" d="M326.05078,50.37676c0.10245-0.00452,0.31345-0.00754,0.41895-0.01205
			c0.80933,1.4061,1.50409,2.88002,2.2757,4.31174c1.68488,0.35115,3.37885,0.68723,5.07129,1.03235
			c-1.17853,1.32623-2.36609,2.64493-3.53406,3.98322c0.22601,1.77232,0.43402,3.54916,0.64197,5.3245
			c-1.57639-0.71435-3.10608-1.51612-4.66287-2.26363c-1.55679,0.73997-3.07596,1.56133-4.66287,2.24102
			c0.20795-1.7693,0.41595-3.53711,0.642-5.3019c-1.168-1.32623-2.33145-2.65246-3.53409-3.94855
			c1.68188-0.41143,3.39392-0.69928,5.08636-1.07304C324.55121,53.24171,325.24298,51.77533,326.05078,50.37676z"/>
	</g>
	<g>
		<path fill="#0A2743" d="M345.40381,50.37676c0.10248-0.00452,0.31348-0.00754,0.41898-0.01205
			c0.8093,1.4061,1.50406,2.88002,2.27567,4.31174c1.68491,0.35115,3.37888,0.68723,5.07132,1.03235
			c-1.17853,1.32623-2.36612,2.64493-3.53409,3.98322c0.22604,1.77232,0.43402,3.54916,0.642,5.3245
			c-1.57639-0.71435-3.10608-1.51612-4.66287-2.26363c-1.55682,0.73997-3.07596,1.56133-4.6629,2.24102
			c0.20798-1.7693,0.41595-3.53711,0.64203-5.3019c-1.16797-1.32623-2.33148-2.65246-3.53412-3.94855
			c1.68188-0.41143,3.39392-0.69928,5.0864-1.07304C343.9043,53.24171,344.59601,51.77533,345.40381,50.37676z"/>
	</g>
	<g>
		<path fill="#0A2743" d="M364.75687,50.37676c0.10245-0.00452,0.31345-0.00754,0.41895-0.01205
			c0.80933,1.4061,1.50409,2.88002,2.2757,4.31174c1.68491,0.35115,3.37888,0.68723,5.07132,1.03235
			c-1.17853,1.32623-2.36612,2.64493-3.53409,3.98322c0.22604,1.77232,0.43402,3.54916,0.642,5.3245
			c-1.57642-0.71435-3.10611-1.51612-4.6629-2.26363c-1.55679,0.73997-3.07593,1.56133-4.66287,2.24102
			c0.20798-1.7693,0.41595-3.53711,0.642-5.3019c-1.16797-1.32623-2.33145-2.65246-3.53409-3.94855
			c1.68188-0.41143,3.39392-0.69928,5.0864-1.07304C363.25732,53.24171,363.94907,51.77533,364.75687,50.37676z"/>
	</g>
	<g>
		<path fill="#0A2743" d="M384.10989,50.37676c0.10248-0.00452,0.31348-0.00754,0.41898-0.01205
			c0.8093,1.4061,1.50406,2.88002,2.2757,4.31174c1.68491,0.35115,3.37885,0.68723,5.07132,1.03235
			c-1.17853,1.32623-2.36612,2.64493-3.53412,3.98322c0.22607,1.77232,0.43405,3.54916,0.64203,5.3245
			c-1.57642-0.71435-3.10611-1.51612-4.6629-2.26363c-1.55682,0.73997-3.07596,1.56133-4.6629,2.24102
			c0.20798-1.7693,0.41595-3.53711,0.64203-5.3019c-1.16797-1.32623-2.33145-2.65246-3.53412-3.94855
			c1.68192-0.41143,3.39395-0.69928,5.0864-1.07304C382.61038,53.24171,383.30212,51.77533,384.10989,50.37676z"/>
	</g>
	<g>
		<path fill="#0A2743" d="M403.46295,50.37676c0.10248-0.00452,0.31345-0.00754,0.41898-0.01205
			c0.8093,1.4061,1.50406,2.88002,2.27567,4.31174c1.68491,0.35115,3.37888,0.68723,5.07132,1.03235
			c-1.17853,1.32623-2.36612,2.64493-3.53409,3.98322c0.22604,1.77232,0.43402,3.54916,0.642,5.3245
			c-1.57642-0.71435-3.10608-1.51612-4.66287-2.26363c-1.55682,0.73997-3.07596,1.56133-4.6629,2.24102
			c0.20798-1.7693,0.41595-3.53711,0.642-5.3019c-1.16797-1.32623-2.33142-2.65246-3.53409-3.94855
			c1.68188-0.41143,3.39395-0.69928,5.0864-1.07304C401.96341,53.24171,402.65515,51.77533,403.46295,50.37676z"/>
	</g>
	<g>
		<path fill="#0A2743" d="M422.81601,50.37676c0.10245-0.00452,0.31345-0.00754,0.41895-0.01205
			c0.80933,1.4061,1.50409,2.88002,2.2757,4.31174c1.68491,0.35115,3.37888,0.68723,5.07132,1.03235
			c-1.17853,1.32623-2.36612,2.64493-3.53409,3.98322c0.22604,1.77232,0.43402,3.54916,0.642,5.3245
			c-1.57642-0.71435-3.10611-1.51612-4.6629-2.26363c-1.55679,0.73997-3.07593,1.56133-4.66287,2.24102
			c0.20798-1.7693,0.41595-3.53711,0.642-5.3019c-1.16797-1.32623-2.33145-2.65246-3.53409-3.94855
			c1.68188-0.41143,3.39392-0.69928,5.08636-1.07304C421.31647,53.24171,422.00821,51.77533,422.81601,50.37676z"/>
	</g>
</g>
<g>
	<rect y="12" fill="none" width="439.5" height="39.06399"/>
	<path fill="#6C0D0F" d="M68.84863,43.29932c-0.26855-0.67188-0.61768-1.00732-1.04736-1.00732
		c-0.23291,0-0.45654,0.05811-0.67139,0.17432c-0.21484,0.1167-0.59082,0.37207-1.12793,0.76563
		c-1.28906,0.98486-2.61865,1.72803-3.98779,2.229c-1.37012,0.50098-2.90527,0.75195-4.60596,0.75195
		c-3.75977,0-6.9917-0.77881-9.69482-2.33643c-2.70361-1.55762-4.7666-3.8042-6.19043-6.74072
		c-1.42285-2.93604-2.13477-6.43604-2.13477-10.50049c0-4.20703,0.75635-7.89111,2.26953-11.05078
		c1.5127-3.16016,3.61182-5.59521,6.29736-7.30469c2.68555-1.70996,5.729-2.56494,9.13086-2.56494
		c1.48584,0,2.80615,0.15674,3.96143,0.47021c1.1543,0.31299,2.15723,0.71143,3.00781,1.19482
		c0.8501,0.4834,1.83008,1.11914,2.94043,1.90674c0.46533,0.37598,0.83252,0.56396,1.10107,0.56396
		c0.69824,0,1.15479-1.11865,1.36963-3.35693h1.26221c-0.14355,2.38135-0.21484,6.59766-0.21484,12.64893h-1.26221
		c-0.32227-1.96924-0.67139-3.58545-1.04736-4.84717c-0.37598-1.2627-0.94922-2.35889-1.71875-3.29004
		c-1.07422-1.32471-2.46191-2.37207-4.1626-3.14209c-1.70117-0.76953-3.48242-1.15479-5.34424-1.15479
		c-2.41699,0-4.53857,0.78809-6.36475,2.36328c-1.82617,1.57568-3.24072,3.81787-4.24316,6.72754
		c-1.00293,2.90918-1.50391,6.31543-1.50391,10.21826c0,4.4043,0.46973,8.01221,1.41016,10.82275
		c0.93945,2.81104,2.37207,4.89209,4.29688,6.24414c1.92432,1.35156,4.39063,2.02734,7.39844,2.02734
		c2.20215,0,4.10889-0.57275,5.72021-1.71875c0.66211-0.44727,1.0918-0.87695,1.28906-1.28906
		c0.19678-0.41162,0.29541-0.98438,0.29541-1.71875v-5.29053c0-1.52148-0.14355-2.63623-0.42969-3.34326
		c-0.28662-0.70752-0.80566-1.19092-1.55762-1.4502c-0.75195-0.25977-1.94287-0.42529-3.57178-0.49707v-1.10107
		c1.80811,0.12549,4.39502,0.18799,7.76123,0.18799c2.57813,0,4.48486-0.0625,5.72021-0.18799v1.10107
		c-0.85938,0.07178-1.47266,0.21924-1.83936,0.44336c-0.36719,0.22363-0.61816,0.64014-0.75195,1.24854
		c-0.13477,0.60889-0.20166,1.62061-0.20166,3.03467v10.90332h-1.10107C69.26904,44.68213,69.11719,43.97021,68.84863,43.29932z"/>
	<path fill="#6C0D0F" d="M103.81445,13.24756c2.54199,1.35205,4.51172,3.31689,5.9082,5.89502s2.09473,5.65771,2.09473,9.23828
		c0,3.50928-0.7207,6.61084-2.16162,9.30518c-1.44141,2.69482-3.44678,4.78955-6.01563,6.28418
		c-2.56934,1.49512-5.49219,2.24268-8.76855,2.24268c-3.38379,0-6.34229-0.67578-8.87598-2.02783
		c-2.5332-1.35156-4.49805-3.31641-5.89453-5.89453s-2.09473-5.65723-2.09473-9.23828c0-3.50879,0.7207-6.61523,2.16211-9.31885
		c1.44092-2.70313,3.44141-4.79785,6.00195-6.28418c2.56006-1.48584,5.47852-2.229,8.75488-2.229
		C98.30908,11.22021,101.27197,11.896,103.81445,13.24756z M88.80225,14.32178c-1.70117,1.40576-3.01221,3.36621-3.93457,5.88184
		c-0.92188,2.51514-1.38281,5.39355-1.38281,8.63379c0,3.25879,0.51465,6.13232,1.54395,8.62061
		c1.02979,2.48877,2.42627,4.4043,4.18945,5.74707c1.76367,1.34277,3.71973,2.01416,5.86816,2.01416
		c2.23779,0,4.20703-0.70264,5.9082-2.1084c1.70068-1.40527,3.01221-3.36572,3.93457-5.88086
		c0.92188-2.51563,1.38281-5.39355,1.38281-8.63428c0-3.2583-0.51465-6.13184-1.54395-8.62061
		c-1.02979-2.48828-2.42627-4.4043-4.18945-5.74707c-1.76367-1.34277-3.71973-2.01416-5.86816-2.01416
		C92.47217,12.21387,90.50293,12.9165,88.80225,14.32178z"/>
	<path fill="#6C0D0F" d="M144.39307,12.16016c1.52148,0,2.75684-0.05371,3.70605-0.16113v1.10107
		c-0.71631,0.1792-1.32031,0.46582-1.8125,0.85938c-0.49268,0.39404-0.94922,0.93555-1.37012,1.625
		c-0.42041,0.68896-0.89941,1.65137-1.43652,2.88672l-12.05811,27.23145h-0.88623l-12.86377-29.08447
		c-0.98486-2.27344-2.24707-3.44629-3.78662-3.51807v-1.10107c1.46777,0.10742,3.42822,0.16113,5.88135,0.16113
		c3.15088,0,5.49609-0.05371,7.03613-0.16113v1.10107c-1.37891,0.05371-2.37646,0.22412-2.99463,0.51025
		c-0.61719,0.28662-0.92627,0.78809-0.92627,1.50391c0,0.62695,0.2417,1.49512,0.7251,2.60498l9.45313,21.3501l8.21777-18.28857
		c0.89502-2.00488,1.34277-3.57178,1.34277-4.69971c0-1.02051-0.3584-1.75928-1.07422-2.21533
		c-0.71631-0.45703-1.79932-0.71191-3.24951-0.76563v-1.10107C139.38867,12.10645,141.4209,12.16016,144.39307,12.16016z"/>
	<path fill="#6C0D0F" d="M177.29102,38.93506c0,1.93359,0.125,4.1001,0.37598,6.49902
		c-2.38135-0.10742-6.40088-0.16113-12.05811-0.16113c-6.76758,0-11.89697,0.05371-15.38818,0.16113v-1.10107
		c1.32471-0.05371,2.28711-0.19678,2.88721-0.42969c0.59961-0.23242,1.01123-0.66211,1.23535-1.28906
		c0.22363-0.62646,0.33545-1.62891,0.33545-3.00781V17.82666c0-1.37842-0.11182-2.38086-0.33545-3.00781
		c-0.22412-0.62646-0.63574-1.05615-1.23535-1.28906c-0.6001-0.23242-1.5625-0.37598-2.88721-0.42969v-1.10107
		c3.49121,0.10742,8.62061,0.16113,15.38818,0.16113c5.13818,0,8.79053-0.05371,10.95703-0.16113
		c-0.25098,2.20215-0.37598,4.18066-0.37598,5.93506c0,1.43262,0.05371,2.56934,0.16113,3.41064h-1.26221
		c-0.19727-2.04102-0.5415-3.64307-1.03369-4.80713c-0.49268-1.16357-1.19971-2.00098-2.12207-2.51074
		c-0.92188-0.51074-2.14404-0.76563-3.66553-0.76563h-4.02832c-1.3252,0-2.28711,0.10303-2.88721,0.30859
		c-0.59961,0.20605-1.01123,0.62256-1.23535,1.24902c-0.22363,0.62695-0.33545,1.62939-0.33545,3.00781v10.23193h4.56543
		c1.16357,0,2.06348-0.2998,2.69873-0.8999c0.63574-0.59961,1.06104-1.26172,1.27588-1.9873
		c0.21484-0.72461,0.41162-1.6333,0.59082-2.72559h1.26221c-0.12549,1.43262-0.18799,2.79297-0.18799,4.08203l0.02686,2.06787
		c0,1.46826,0.11621,3.52734,0.34912,6.17676h-1.28906c-0.14355-1.12793-0.34473-2.08545-0.604-2.87354
		c-0.25977-0.7876-0.71631-1.44092-1.37012-1.96045c-0.65332-0.51904-1.5708-0.77881-2.75244-0.77881h-4.56543v10.44678
		c0,1.37891,0.11182,2.37646,0.33545,2.99463c0.22412,0.61719,0.63574,1.03369,1.23535,1.24854
		c0.6001,0.21484,1.56201,0.32227,2.88721,0.32227h4.02832c1.80811,0,3.24951-0.29102,4.32373-0.87256
		c1.07422-0.58203,1.88867-1.53125,2.44385-2.84668c0.55469-1.31641,0.93994-3.1377,1.15479-5.46533h1.26221
		C177.34473,35.97217,177.29102,37.28809,177.29102,38.93506z"/>
	<path fill="#6C0D0F" d="M213.02246,45.42041c-0.88672,0.52832-1.96533,0.79248-3.23633,0.79248
		c-3.04395,0-4.93262-1.39648-5.6665-4.18945l-1.69189-6.875c-0.34033-1.39648-0.80127-2.46631-1.38281-3.20947
		c-0.58203-0.74268-1.29395-1.25293-2.13525-1.53027c-0.8418-0.27783-1.9248-0.4165-3.24951-0.4165h-3.14209v9.61426
		c0,1.37891,0.11182,2.38135,0.33545,3.00781c0.22412,0.62695,0.63574,1.05664,1.23535,1.28906
		c0.6001,0.23291,1.56201,0.37598,2.88721,0.42969v1.10107c-1.70117-0.10742-4.02832-0.16113-6.98242-0.16113
		c-3.16895,0-5.51465,0.05371-7.03613,0.16113v-1.10107c1.32471-0.05371,2.28711-0.19678,2.88721-0.42969
		c0.59961-0.23242,1.01123-0.66211,1.23535-1.28906c0.22363-0.62646,0.33545-1.62891,0.33545-3.00781V17.82666
		c0-1.39648-0.11182-2.40771-0.33545-3.03467c-0.22412-0.62646-0.63135-1.05176-1.22217-1.27588
		c-0.59082-0.22363-1.55762-0.3623-2.90039-0.41602v-1.10107c1.52148,0.10742,3.75977,0.16113,6.71387,0.16113
		c1.34277,0,2.82422-0.01758,4.44482-0.05371c1.62012-0.03564,2.72559-0.05371,3.31641-0.05371
		c2.73926,0,5.0625,0.3584,6.96875,1.07422c1.90723,0.71631,3.33936,1.69629,4.29688,2.94092
		c0.95801,1.24414,1.43701,2.67188,1.43701,4.2832c0,1.34277-0.34473,2.64551-1.03369,3.90723
		c-0.68945,1.2627-1.84912,2.37695-3.47803,3.34375c-1.62939,0.9668-3.77783,1.62061-6.44531,1.96045
		c0.64453,0.03613,1.271,0.09863,1.87988,0.18799c1.95117,0.30469,3.49561,0.89551,4.63232,1.77246
		c1.13721,0.87744,1.93799,2.29199,2.40381,4.24316l1.2085,4.99512c0.3042,1.28906,0.62646,2.19775,0.9668,2.72559
		c0.33984,0.52832,0.7876,0.79248,1.34277,0.79248c0.91309,0,1.92432-0.62646,3.03467-1.87988l0.75195,0.7251
		C214.70068,44.12744,213.9082,44.89258,213.02246,45.42041z M201.38037,27.88428c1.23535-0.67188,2.08545-1.58496,2.55127-2.73926
		c0.46533-1.15527,0.69824-2.54688,0.69824-4.17627c0-2.64941-0.66699-4.62354-2.00098-5.92139
		c-1.3335-1.29834-3.53125-1.94727-6.59277-1.94727c-0.98486,0-1.72314,0.12988-2.21582,0.38965
		c-0.49219,0.25928-0.83203,0.7207-1.02051,1.38281c-0.1875,0.6626-0.28174,1.64746-0.28174,2.9541v11.06445h3.70605
		C198.42627,28.89111,200.14502,28.55518,201.38037,27.88428z"/>
	<path fill="#6C0D0F" d="M247.88086,13.65088c-0.61719,0.31299-1.04297,0.82813-1.27539,1.54395
		c-0.23242,0.71631-0.34961,1.77246-0.34961,3.16895v27.33887h-1.26172l-21.99512-30.4541v23.79395
		c0,1.41455,0.125,2.47998,0.37598,3.1958c0.25098,0.71631,0.7207,1.23096,1.41016,1.54443
		c0.68945,0.31299,1.75977,0.49658,3.20898,0.55029v1.10107c-1.30664-0.10742-3.17773-0.16113-5.6123-0.16113
		c-2.18457,0-3.88574,0.05371-5.10303,0.16113v-1.10107c1.271-0.05371,2.21533-0.2373,2.8335-0.55029
		c0.61719-0.31348,1.04297-0.82813,1.27539-1.54443c0.23242-0.71582,0.34961-1.78125,0.34961-3.1958V17.82666
		c0-1.37842-0.1123-2.38086-0.33594-3.00781c-0.22363-0.62646-0.63574-1.05615-1.23535-1.28906
		c-0.59961-0.23242-1.5625-0.37598-2.88721-0.42969v-1.10107c1.19922,0.10742,2.90088,0.16113,5.10303,0.16113
		c2.02246,0,3.71582-0.05371,5.0752-0.16113l17.53711,24.41162V18.36377c0-1.41406-0.12109-2.4751-0.36328-3.18262
		c-0.24023-0.70703-0.71094-1.21729-1.41016-1.53027c-0.69727-0.31348-1.77148-0.49707-3.22266-0.55078v-1.10107
		c1.30859,0.10742,3.17969,0.16113,5.61328,0.16113c2.20313,0,3.9043-0.05371,5.10352-0.16113v1.10107
		C249.44336,13.15381,248.49805,13.3374,247.88086,13.65088z"/>
	<path fill="#6C0D0F" d="M293.93945,13.52979c-0.60059,0.23291-1.01172,0.6626-1.23535,1.28906
		c-0.22461,0.62695-0.33594,1.62939-0.33594,3.00781v21.77979c0,1.37891,0.11133,2.38135,0.33594,3.00781
		c0.22363,0.62695,0.63477,1.05664,1.23535,1.28906c0.59961,0.23291,1.56152,0.37598,2.88672,0.42969v1.10107
		c-1.71875-0.10742-4.0459-0.16113-6.98242-0.16113c-3.15137,0-5.49609,0.05371-7.03613,0.16113v-1.10107
		c1.3252-0.05371,2.28223-0.19678,2.87402-0.42969c0.58984-0.23242,0.99707-0.66211,1.22168-1.28906
		c0.22363-0.62646,0.33496-1.62891,0.33496-3.00781V15.46338l-13.23926,30.23926h-0.88574l-12.75684-30.18555v23.52539
		c0,1.41455,0.125,2.47998,0.37598,3.1958c0.25098,0.71631,0.7207,1.23096,1.41016,1.54443
		c0.68848,0.31299,1.75879,0.49658,3.20898,0.55029v1.10107c-1.30664-0.10742-3.17773-0.16113-5.61328-0.16113
		c-2.18359,0-3.88477,0.05371-5.10156,0.16113v-1.10107c1.27051-0.05371,2.21484-0.2373,2.83301-0.55029
		c0.61719-0.31348,1.04297-0.82813,1.27539-1.54443c0.23242-0.71582,0.34863-1.78125,0.34863-3.1958V17.82666
		c0-1.37842-0.11133-2.38086-0.33496-3.00781c-0.22461-0.62646-0.63574-1.05615-1.23535-1.28906
		c-0.60059-0.23242-1.5625-0.37598-2.88672-0.42969v-1.10107c1.19922,0.10742,2.90039,0.16113,5.10156,0.16113
		c1.7373,0,3.30371-0.05371,4.7002-0.16113l11.01074,26.80176l11.78906-26.64063h2.60547c2.93652,0,5.26367-0.05371,6.98242-0.16113
		v1.10107C295.50098,13.15381,294.53906,13.29736,293.93945,13.52979z"/>
	<path fill="#6C0D0F" d="M328.51563,38.93506c0,1.93359,0.125,4.1001,0.375,6.49902
		c-2.38086-0.10742-6.40039-0.16113-12.05762-0.16113c-6.76758,0-11.89746,0.05371-15.3877,0.16113v-1.10107
		c1.32422-0.05371,2.28613-0.19678,2.88672-0.42969c0.59961-0.23242,1.01074-0.66211,1.23535-1.28906
		c0.22363-0.62646,0.33496-1.62891,0.33496-3.00781V17.82666c0-1.37842-0.11133-2.38086-0.33496-3.00781
		c-0.22461-0.62646-0.63574-1.05615-1.23535-1.28906c-0.60059-0.23242-1.5625-0.37598-2.88672-0.42969v-1.10107
		c3.49023,0.10742,8.62012,0.16113,15.3877,0.16113c5.13867,0,8.79102-0.05371,10.95703-0.16113
		c-0.25098,2.20215-0.37598,4.18066-0.37598,5.93506c0,1.43262,0.05371,2.56934,0.16113,3.41064h-1.2627
		c-0.19629-2.04102-0.54102-3.64307-1.0332-4.80713c-0.49316-1.16357-1.2002-2.00098-2.12207-2.51074
		c-0.92188-0.51074-2.14355-0.76563-3.66504-0.76563h-4.0293c-1.32422,0-2.28711,0.10303-2.88672,0.30859
		c-0.59961,0.20605-1.01172,0.62256-1.23535,1.24902c-0.22363,0.62695-0.33496,1.62939-0.33496,3.00781v10.23193h4.56445
		c1.16406,0,2.06348-0.2998,2.69922-0.8999c0.63574-0.59961,1.06055-1.26172,1.27539-1.9873
		c0.21484-0.72461,0.41211-1.6333,0.5918-2.72559h1.26172c-0.125,1.43262-0.1875,2.79297-0.1875,4.08203l0.02637,2.06787
		c0,1.46826,0.11621,3.52734,0.34863,6.17676h-1.28906c-0.14258-1.12793-0.34473-2.08545-0.60352-2.87354
		c-0.25977-0.7876-0.7168-1.44092-1.37012-1.96045c-0.65332-0.51904-1.57129-0.77881-2.75293-0.77881h-4.56445v10.44678
		c0,1.37891,0.11133,2.37646,0.33496,2.99463c0.22363,0.61719,0.63574,1.03369,1.23535,1.24854s1.5625,0.32227,2.88672,0.32227
		h4.0293c1.80762,0,3.24902-0.29102,4.32324-0.87256c1.07422-0.58203,1.88867-1.53125,2.44434-2.84668
		c0.55469-1.31641,0.93945-3.1377,1.1543-5.46533h1.26172C328.56836,35.97217,328.51563,37.28809,328.51563,38.93506z"/>
	<path fill="#6C0D0F" d="M364.7832,13.65088c-0.61816,0.31299-1.04297,0.82813-1.27539,1.54395
		c-0.2334,0.71631-0.34961,1.77246-0.34961,3.16895v27.33887h-1.26172l-21.99512-30.4541v23.79395
		c0,1.41455,0.125,2.47998,0.37598,3.1958c0.25098,0.71631,0.7207,1.23096,1.41016,1.54443
		c0.68848,0.31299,1.75879,0.49658,3.20898,0.55029v1.10107c-1.30664-0.10742-3.17773-0.16113-5.61328-0.16113
		c-2.18359,0-3.88477,0.05371-5.10156,0.16113v-1.10107c1.27051-0.05371,2.21484-0.2373,2.83301-0.55029
		c0.61719-0.31348,1.04297-0.82813,1.27539-1.54443c0.23242-0.71582,0.34863-1.78125,0.34863-3.1958V17.82666
		c0-1.37842-0.11133-2.38086-0.33496-3.00781c-0.22461-0.62646-0.63574-1.05615-1.23535-1.28906
		c-0.60059-0.23242-1.5625-0.37598-2.88672-0.42969v-1.10107c1.19922,0.10742,2.90039,0.16113,5.10156,0.16113
		c2.02344,0,3.71582-0.05371,5.07617-0.16113l17.53711,24.41162V18.36377c0-1.41406-0.12109-2.4751-0.36328-3.18262
		c-0.24121-0.70703-0.71094-1.21729-1.41016-1.53027c-0.69727-0.31348-1.77148-0.49707-3.22266-0.55078v-1.10107
		c1.30762,0.10742,3.17871,0.16113,5.61328,0.16113c2.20215,0,3.90332-0.05371,5.10254-0.16113v1.10107
		C366.34473,13.15381,365.40039,13.3374,364.7832,13.65088z"/>
	<path fill="#6C0D0F" d="M371.80469,18.47119c0-1.91553-0.125-4.07275-0.375-6.47217
		c3.04297,0.10742,8.20801,0.16113,15.49512,0.16113c7.26855,0,12.4248-0.05371,15.46875-0.16113
		c-0.26855,2.3457-0.40332,4.50293-0.40332,6.47217c0,1.89795,0.05469,3.40186,0.16211,4.51172h-1.2627
		c-0.21484-2.56006-0.55957-4.51611-1.03418-5.86816c-0.47461-1.35156-1.24414-2.33154-2.30957-2.94043
		c-1.06543-0.6084-2.59082-0.91309-4.5791-0.91309h-3.51758v25.78125c0,1.52197,0.14355,2.63623,0.42969,3.34375
		c0.28613,0.70703,0.80566,1.19482,1.55762,1.46338s1.94238,0.42969,3.57129,0.4834v1.10107
		c-1.89746-0.10742-4.5918-0.16113-8.08301-0.16113c-3.65234,0-6.36426,0.05371-8.1377,0.16113v-1.10107
		c1.62988-0.05371,2.82031-0.21484,3.57227-0.4834s1.27148-0.75635,1.55762-1.46338
		c0.28613-0.70752,0.42969-1.82178,0.42969-3.34375V13.26123h-3.51855c-1.98633,0-3.50879,0.30469-4.56445,0.91309
		c-1.05664,0.60889-1.82617,1.59375-2.31055,2.9541c-0.48242,1.36084-0.83203,3.3125-1.04688,5.85449h-1.26172
		C371.75195,21.81934,371.80469,20.31543,371.80469,18.47119z"/>
</g>
<g>
	<rect y="72.5" fill="none" width="439.5" height="31"/>
	<path fill="#6C0D0F" d="M56.45654,89.38184c-0.1123-0.27832-0.27588-0.41699-0.49072-0.41699
		c-0.15625,0-0.36133,0.08301-0.61523,0.24902c-0.5957,0.41992-1.14502,0.76367-1.64795,1.03223s-1.07666,0.48828-1.72119,0.65918
		s-1.37207,0.25684-2.18262,0.25684c-1.9043,0-3.57178-0.42969-5.00244-1.28906s-2.53906-2.10742-3.3252-3.74316
		s-1.1792-3.58105-1.1792-5.83691c0-2.20703,0.40527-4.16016,1.21582-5.85938s1.93848-3.01758,3.38379-3.95508
		s3.09082-1.40625,4.93652-1.40625c1.19141,0,2.20947,0.1709,3.0542,0.5127s1.66748,0.82031,2.46826,1.43555
		c0.21484,0.17578,0.41016,0.26367,0.58594,0.26367c0.41016,0,0.66406-0.5957,0.76172-1.78711h0.68848
		c-0.07813,1.29883-0.11719,3.59863-0.11719,6.89941h-0.68848c-0.14648-0.89844-0.28076-1.59668-0.40283-2.09473
		s-0.26611-0.9209-0.43213-1.26758s-0.39063-0.70508-0.67383-1.07617c-0.60547-0.78125-1.37207-1.36719-2.2998-1.75781
		s-1.92871-0.58594-3.00293-0.58594c-1.29883,0-2.43652,0.42969-3.41309,1.28906s-1.7334,2.08496-2.27051,3.67676
		s-0.80566,3.45703-0.80566,5.5957c0,2.17773,0.29297,4.04785,0.87891,5.61035s1.3916,2.74902,2.41699,3.55957
		s2.1875,1.21582,3.48633,1.21582c0.99609,0,1.96777-0.19043,2.91504-0.57129s1.68457-0.95215,2.21191-1.71387
		c0.41016-0.54688,0.70313-1.14063,0.87891-1.78027s0.34668-1.62793,0.5127-2.96582h0.68848
		c0,3.44727,0.03906,5.84961,0.11719,7.20703h-0.68848C56.64941,90.1123,56.56885,89.66016,56.45654,89.38184z"/>
	<path fill="#6C0D0F" d="M75.00879,73.18066c1.38672,0.7373,2.46094,1.80957,3.22266,3.21582s1.14258,3.08594,1.14258,5.03906
		c0,1.91406-0.39307,3.60547-1.1792,5.0752s-1.87988,2.6123-3.28125,3.42773s-2.99561,1.22363-4.78271,1.22363
		c-1.8457,0-3.45947-0.36914-4.84131-1.10645s-2.45361-1.80859-3.21533-3.21484s-1.14258-3.08594-1.14258-5.03906
		c0-1.91406,0.39307-3.6084,1.1792-5.08301s1.87744-2.61719,3.27393-3.42773s2.98828-1.21582,4.77539-1.21582
		C72.00586,72.0752,73.62207,72.44336,75.00879,73.18066z M66.82031,73.7666c-0.92773,0.7666-1.64307,1.83594-2.146,3.20801
		s-0.75439,2.94238-0.75439,4.70996c0,1.77734,0.28076,3.34473,0.84229,4.70215s1.32324,2.40234,2.28516,3.13477
		s2.02881,1.09863,3.20068,1.09863c1.2207,0,2.29492-0.38379,3.22266-1.15039s1.64307-1.83594,2.146-3.20801
		s0.75439-2.94141,0.75439-4.70898c0-1.77734-0.28076-3.34473-0.84229-4.70215s-1.32324-2.40234-2.28516-3.13477
		s-2.02881-1.09863-3.20068-1.09863C68.82227,72.61719,67.74805,73,66.82031,73.7666z"/>
	<path fill="#6C0D0F" d="M98.65869,73.40039c-0.33691,0.1709-0.56885,0.45215-0.6958,0.84277s-0.19043,0.9668-0.19043,1.72852
		v14.91211h-0.68848L85.08691,74.27246v12.97852c0,0.77148,0.06836,1.35254,0.20508,1.74316s0.39307,0.6709,0.76904,0.8418
		s0.95947,0.27148,1.75049,0.30078v0.60059c-0.71289-0.05859-1.7334-0.08789-3.06152-0.08789
		c-1.19141,0-2.11914,0.0293-2.7832,0.08789v-0.60059c0.69336-0.0293,1.2085-0.12988,1.54541-0.30078s0.56885-0.45117,0.6958-0.8418
		s0.19043-0.97168,0.19043-1.74316V75.67871c0-0.75195-0.06104-1.29883-0.18311-1.64063s-0.34668-0.57617-0.67383-0.70313
		s-0.85205-0.20508-1.57471-0.23438V72.5c0.6543,0.05859,1.58203,0.08789,2.7832,0.08789c1.10352,0,2.02637-0.0293,2.76855-0.08789
		l9.56543,13.31543v-9.84375c0-0.77148-0.06592-1.35059-0.19775-1.73633s-0.38818-0.66406-0.76904-0.83496
		s-0.9668-0.27051-1.75781-0.2998V72.5c0.71289,0.05859,1.7334,0.08789,3.06152,0.08789c1.20117,0,2.12891-0.0293,2.7832-0.08789
		v0.60059C99.51074,73.12988,98.99561,73.22949,98.65869,73.40039z"/>
	<path fill="#6C0D0F" d="M102.48926,76.03027c0-1.04492-0.06836-2.22168-0.20508-3.53027
		c1.66016,0.05859,4.47754,0.08789,8.45215,0.08789c3.96484,0,6.77734-0.0293,8.4375-0.08789
		c-0.14648,1.2793-0.21973,2.45605-0.21973,3.53027c0,1.03516,0.0293,1.85547,0.08789,2.46094h-0.68848
		c-0.11719-1.39648-0.30518-2.46387-0.56396-3.20117s-0.67871-1.27148-1.25977-1.60352s-1.41357-0.49805-2.49756-0.49805h-1.91895
		v14.0625c0,0.83008,0.07813,1.4375,0.23438,1.82324s0.43945,0.65234,0.84961,0.79883s1.05957,0.23438,1.94824,0.26367v0.60059
		c-1.03516-0.05859-2.50488-0.08789-4.40918-0.08789c-1.99219,0-3.47168,0.0293-4.43848,0.08789v-0.60059
		c0.88867-0.0293,1.53809-0.11719,1.94824-0.26367s0.69336-0.41309,0.84961-0.79883s0.23438-0.99316,0.23438-1.82324v-14.0625
		h-1.91895c-1.08398,0-1.91406,0.16602-2.49023,0.49805s-0.99609,0.86914-1.25977,1.61133s-0.4541,1.80664-0.57129,3.19336h-0.68848
		C102.45996,77.85645,102.48926,77.03613,102.48926,76.03027z"/>
	<path fill="#6C0D0F" d="M137.84326,90.72949c-0.4834,0.28809-1.07178,0.43262-1.76514,0.43262
		c-1.66016,0-2.69043-0.76172-3.09082-2.28516l-0.92285-3.75c-0.18555-0.76172-0.43701-1.3457-0.75439-1.75098
		s-0.70557-0.68359-1.16455-0.83496s-1.0498-0.22656-1.77246-0.22656h-1.71387v5.24414c0,0.75195,0.06104,1.29883,0.18311,1.64063
		s0.34668,0.57617,0.67383,0.70313s0.85205,0.20508,1.57471,0.23438v0.60059c-0.92773-0.05859-2.19727-0.08789-3.80859-0.08789
		c-1.72852,0-3.00781,0.0293-3.83789,0.08789v-0.60059c0.72266-0.0293,1.24756-0.10742,1.57471-0.23438
		s0.55176-0.36133,0.67383-0.70313s0.18311-0.88867,0.18311-1.64063V75.67871c0-0.76172-0.06104-1.31348-0.18311-1.65527
		s-0.34424-0.57422-0.6665-0.69629s-0.84961-0.19727-1.58203-0.22656V72.5c0.83008,0.05859,2.05078,0.08789,3.66211,0.08789
		c0.73242,0,1.54053-0.00977,2.42432-0.0293s1.48682-0.0293,1.80908-0.0293c1.49414,0,2.76123,0.19531,3.80127,0.58594
		s1.82129,0.9248,2.34375,1.60352s0.78369,1.45801,0.78369,2.33691c0,0.73242-0.18799,1.44238-0.56396,2.13086
		s-1.0083,1.29688-1.89697,1.82422s-2.06055,0.88379-3.51563,1.06934c0.35156,0.01953,0.69336,0.05371,1.02539,0.10254
		c1.06445,0.16602,1.90674,0.48828,2.52686,0.9668s1.05713,1.25,1.31104,2.31445l0.65918,2.72461
		c0.16602,0.70313,0.3418,1.19824,0.52734,1.48633s0.42969,0.43262,0.73242,0.43262c0.49805,0,1.0498-0.3418,1.65527-1.02539
		l0.41016,0.39551C138.75879,90.02441,138.32666,90.44141,137.84326,90.72949z M131.49316,81.16406
		c0.67383-0.36621,1.1377-0.86426,1.3916-1.49414s0.38086-1.38867,0.38086-2.27734c0-1.44531-0.36377-2.52246-1.09131-3.23047
		s-1.92627-1.06152-3.59619-1.06152c-0.53711,0-0.93994,0.07031-1.2085,0.21191s-0.4541,0.39355-0.55664,0.75488
		s-0.15381,0.89844-0.15381,1.61133v6.03516h2.02148C129.88184,81.71387,130.81934,81.53027,131.49316,81.16406z"/>
	<path fill="#6C0D0F" d="M157.49414,90.13672v0.60059c-0.82031-0.05859-1.88965-0.08789-3.20801-0.08789
		c-1.71875,0-3.00293,0.0293-3.85254,0.08789v-0.60059c0.75195-0.0293,1.29883-0.12207,1.64063-0.27832
		s0.5127-0.42969,0.5127-0.82031c0-0.36133-0.13672-0.83496-0.41016-1.4209l-1.50879-3.41309h-7.32422l-1.01074,2.24121
		c-0.33203,0.77148-0.49805,1.41113-0.49805,1.91895c0,1.05469,0.77637,1.64551,2.3291,1.77246v0.60059
		c-0.5957-0.05859-1.50391-0.08789-2.72461-0.08789s-2.08984,0.0293-2.60742,0.08789v-0.60059
		c0.52734-0.13672,0.98633-0.44238,1.37695-0.91602s0.75195-1.0957,1.08398-1.86719l6.62109-15h0.4834l7.0166,15.86426
		C155.96094,89.45801,156.6543,90.09766,157.49414,90.13672z M147.02051,75.97168l-3.41309,7.63184h6.79688L147.02051,75.97168z"/>
	<path fill="#6C0D0F" d="M172.99219,88.9209c-0.15625,0-0.35645,0.09766-0.60059,0.29297
		c-0.76172,0.63477-1.50635,1.11816-2.23389,1.4502s-1.604,0.49805-2.62939,0.49805c-1.78711,0-3.34961-0.36914-4.6875-1.10645
		s-2.37549-1.80859-3.11279-3.21484s-1.10596-3.08594-1.10596-5.03906c0-1.91406,0.38086-3.6084,1.14258-5.08301
		s1.81885-2.61719,3.17139-3.42773s2.89307-1.21582,4.62158-1.21582c0.67383,0,1.28174,0.08496,1.82373,0.25586
		s1.02051,0.39355,1.43555,0.66699s0.8667,0.61523,1.35498,1.02539c0.24414,0.19531,0.43945,0.29297,0.58594,0.29297
		c0.41016,0,0.66406-0.60547,0.76172-1.81641h0.70313c-0.08789,1.15234-0.13184,3.25195-0.13184,6.29883h-0.68848
		c-0.19531-1.04492-0.39307-1.81445-0.59326-2.30762s-0.50049-1.00293-0.90088-1.53027
		c-0.56641-0.74219-1.23779-1.30859-2.01416-1.69922s-1.59424-0.58594-2.45361-0.58594c-1.17188,0-2.19727,0.36133-3.07617,1.08398
		s-1.55762,1.7627-2.03613,3.12012s-0.71777,2.95898-0.71777,4.80469c0,1.875,0.26611,3.47852,0.79834,4.81152
		s1.25488,2.34375,2.16797,3.03223s1.93604,1.0332,3.06885,1.0332c0.88867,0,1.73828-0.19531,2.54883-0.58594
		s1.48926-0.95703,2.03613-1.69922c0.39063-0.51758,0.68115-1.06738,0.87158-1.64844s0.36377-1.41309,0.52002-2.49707h0.68848
		c0,3.1543,0.03906,5.35645,0.11719,6.60645h-0.68848C173.6416,89.52637,173.39258,88.9209,172.99219,88.9209z"/>
	<path fill="#6C0D0F" d="M177.51855,76.03027c0-1.04492-0.06836-2.22168-0.20508-3.53027
		c1.66016,0.05859,4.47754,0.08789,8.45215,0.08789c3.96484,0,6.77734-0.0293,8.4375-0.08789
		c-0.14648,1.2793-0.21973,2.45605-0.21973,3.53027c0,1.03516,0.0293,1.85547,0.08789,2.46094h-0.68848
		c-0.11719-1.39648-0.30518-2.46387-0.56396-3.20117s-0.67871-1.27148-1.25977-1.60352s-1.41357-0.49805-2.49756-0.49805h-1.91895
		v14.0625c0,0.83008,0.07813,1.4375,0.23438,1.82324s0.43945,0.65234,0.84961,0.79883s1.05957,0.23438,1.94824,0.26367v0.60059
		c-1.03516-0.05859-2.50488-0.08789-4.40918-0.08789c-1.99219,0-3.47168,0.0293-4.43848,0.08789v-0.60059
		c0.88867-0.0293,1.53809-0.11719,1.94824-0.26367s0.69336-0.41309,0.84961-0.79883s0.23438-0.99316,0.23438-1.82324v-14.0625
		h-1.91895c-1.08398,0-1.91406,0.16602-2.49023,0.49805s-0.99609,0.86914-1.25977,1.61133s-0.4541,1.80664-0.57129,3.19336h-0.68848
		C177.48926,77.85645,177.51855,77.03613,177.51855,76.03027z"/>
	<path fill="#6C0D0F" d="M206.21484,88.67871c0.85938,1.25488,2.18262,1.88281,3.96973,1.88281
		c0.68359,0,1.3208-0.1416,1.91162-0.4248s1.06934-0.72559,1.43555-1.32617s0.54932-1.34961,0.54932-2.24805
		c0-0.77148-0.18799-1.46289-0.56396-2.07324s-0.88623-1.16895-1.53076-1.67676s-1.50391-1.08398-2.57813-1.72852
		c-1.19141-0.71289-2.14844-1.35254-2.87109-1.91895s-1.31592-1.24316-1.77979-2.0293s-0.6958-1.71094-0.6958-2.77539
		c0-1.13281,0.25635-2.08984,0.76904-2.87109s1.19629-1.36523,2.05078-1.75098s1.79443-0.57813,2.81982-0.57813
		c0.61523,0,1.14502,0.05078,1.58936,0.15332s0.81299,0.22949,1.10596,0.38086s0.61523,0.34473,0.9668,0.5791
		c0.44922,0.2832,0.79102,0.4248,1.02539,0.4248c0.18555,0,0.32715-0.10547,0.4248-0.31543s0.17578-0.54395,0.23438-1.00293h0.68848
		c-0.09766,1.17188-0.14648,3.21289-0.14648,6.12305h-0.68848c-0.07813-1.02539-0.30029-1.97266-0.6665-2.8418
		s-0.90332-1.5752-1.61133-2.11719s-1.58936-0.8125-2.64404-0.8125c-0.70313,0-1.33301,0.14648-1.88965,0.43945
		s-0.99121,0.70313-1.30371,1.23047s-0.46875,1.13281-0.46875,1.81641c0,1.08398,0.32715,1.95801,0.98145,2.62207
		s1.41846,1.26172,2.29248,1.79395s1.4624,0.8916,1.76514,1.07715c1.25977,0.79102,2.25586,1.47656,2.98828,2.05762
		s1.31836,1.25488,1.75781,2.02148s0.65918,1.6582,0.65918,2.67383c0,1.23047-0.2832,2.27246-0.84961,3.12695
		s-1.33057,1.49707-2.29248,1.92676s-2.03857,0.64453-3.22998,0.64453c-0.95703,0-1.74316-0.10059-2.3584-0.30078
		s-1.19629-0.4707-1.74316-0.8125c-0.44922-0.2832-0.79102-0.4248-1.02539-0.4248c-0.18555,0-0.32715,0.10449-0.4248,0.31445
		s-0.17578,0.54492-0.23438,1.00391h-0.68848c0.07813-1.09375,0.11719-3.49121,0.11719-7.19238h0.68848
		C204.85742,85.78125,205.35547,87.42383,206.21484,88.67871z"/>
	<path fill="#6C0D0F" d="M234.25195,87.19238c0,1.05469,0.06836,2.23633,0.20508,3.54492
		c-1.29883-0.05859-3.49121-0.08789-6.57715-0.08789c-3.69141,0-6.48926,0.0293-8.39355,0.08789v-0.60059
		c0.72266-0.0293,1.24805-0.10742,1.5752-0.23438s0.55176-0.36133,0.67383-0.70313s0.18262-0.88867,0.18262-1.64063V75.67871
		c0-0.75195-0.06055-1.29883-0.18262-1.64063s-0.34668-0.57617-0.67383-0.70313s-0.85254-0.20508-1.5752-0.23438V72.5
		c1.9043,0.05859,4.70215,0.08789,8.39355,0.08789c2.80273,0,4.79492-0.0293,5.97656-0.08789
		c-0.13672,1.20117-0.20508,2.28027-0.20508,3.2373c0,0.78125,0.0293,1.40137,0.08789,1.86035h-0.68848
		c-0.10742-1.11328-0.29492-1.9873-0.56348-2.62207s-0.6543-1.0918-1.15723-1.37012s-1.16992-0.41699-2-0.41699h-2.19727
		c-0.72266,0-1.24707,0.05566-1.57422,0.16797s-0.55176,0.33984-0.67383,0.68164s-0.18359,0.88867-0.18359,1.64063v5.58105h2.49023
		c0.63477,0,1.12598-0.16406,1.47266-0.49121s0.57813-0.68848,0.69531-1.08398s0.22461-0.89063,0.32227-1.48633h0.68848
		c-0.06836,0.78125-0.10254,1.52344-0.10254,2.22656l0.01465,1.12793c0,0.80078,0.06348,1.92383,0.19043,3.36914h-0.70313
		c-0.07813-0.61523-0.1875-1.1377-0.3291-1.56738s-0.39063-0.78613-0.74707-1.06934s-0.85742-0.4248-1.50195-0.4248h-2.49023
		v5.69824c0,0.75195,0.06152,1.2959,0.18359,1.63281s0.34668,0.56445,0.67383,0.68164s0.85156,0.17578,1.57422,0.17578h2.19727
		c0.98633,0,1.77246-0.15918,2.3584-0.47656s1.03027-0.83496,1.33301-1.55273s0.5127-1.71094,0.62988-2.98047h0.68848
		C234.28125,85.57617,234.25195,86.29395,234.25195,87.19238z"/>
	<path fill="#6C0D0F" d="M253.74219,90.72949c-0.48438,0.28809-1.07227,0.43262-1.76563,0.43262
		c-1.66016,0-2.69043-0.76172-3.09082-2.28516l-0.92285-3.75c-0.18555-0.76172-0.4375-1.3457-0.75391-1.75098
		c-0.31836-0.40527-0.70605-0.68359-1.16504-0.83496s-1.0498-0.22656-1.77246-0.22656h-1.71387v5.24414
		c0,0.75195,0.06055,1.29883,0.18262,1.64063s0.34668,0.57617,0.67383,0.70313s0.85254,0.20508,1.5752,0.23438v0.60059
		c-0.92773-0.05859-2.19727-0.08789-3.80859-0.08789c-1.72852,0-3.00781,0.0293-3.83789,0.08789v-0.60059
		c0.72266-0.0293,1.24707-0.10742,1.5752-0.23438c0.32617-0.12695,0.55078-0.36133,0.67383-0.70313
		c0.12109-0.3418,0.18262-0.88867,0.18262-1.64063V75.67871c0-0.76172-0.06152-1.31348-0.18262-1.65527
		c-0.12305-0.3418-0.34473-0.57422-0.66699-0.69629s-0.84961-0.19727-1.58203-0.22656V72.5
		c0.83008,0.05859,2.05078,0.08789,3.66211,0.08789c0.73242,0,1.54004-0.00977,2.4248-0.0293
		c0.88281-0.01953,1.48633-0.0293,1.80859-0.0293c1.49414,0,2.76172,0.19531,3.80078,0.58594
		c1.04102,0.39063,1.82129,0.9248,2.34375,1.60352s0.78418,1.45801,0.78418,2.33691c0,0.73242-0.18848,1.44238-0.56348,2.13086
		c-0.37695,0.68848-1.00879,1.29688-1.89746,1.82422s-2.06055,0.88379-3.51563,1.06934
		c0.35156,0.01953,0.69336,0.05371,1.02539,0.10254c1.06445,0.16602,1.90625,0.48828,2.52637,0.9668s1.05762,1.25,1.31152,2.31445
		l0.65918,2.72461c0.16602,0.70313,0.3418,1.19824,0.52734,1.48633s0.42969,0.43262,0.73242,0.43262
		c0.49805,0,1.0498-0.3418,1.65527-1.02539l0.41016,0.39551C254.65723,90.02441,254.22461,90.44141,253.74219,90.72949z
		 M247.3916,81.16406c0.67383-0.36621,1.1377-0.86426,1.3916-1.49414s0.38086-1.38867,0.38086-2.27734
		c0-1.44531-0.36426-2.52246-1.0918-3.23047s-1.92578-1.06152-3.5957-1.06152c-0.53711,0-0.94043,0.07031-1.20898,0.21191
		s-0.45313,0.39355-0.55664,0.75488c-0.10156,0.36133-0.15332,0.89844-0.15332,1.61133v6.03516h2.02148
		C245.78027,81.71387,246.71777,81.53027,247.3916,81.16406z"/>
	<path fill="#6C0D0F" d="M270.7998,72.58789c0.83008,0,1.50391-0.0293,2.02148-0.08789v0.60059
		c-0.39063,0.09766-0.7207,0.25391-0.98828,0.46875c-0.26953,0.21484-0.51855,0.50977-0.74805,0.88574
		s-0.49023,0.90137-0.7832,1.5752l-6.57715,14.85352h-0.4834l-7.0166-15.86426c-0.53711-1.24023-1.22559-1.87988-2.06543-1.91895
		V72.5c0.80078,0.05859,1.87012,0.08789,3.20801,0.08789c1.71875,0,2.99805-0.0293,3.83789-0.08789v0.60059
		c-0.75195,0.0293-1.2959,0.12207-1.63379,0.27832c-0.33594,0.15625-0.50488,0.42969-0.50488,0.82031
		c0,0.3418,0.13184,0.81543,0.39551,1.4209l5.15625,11.64551l4.48242-9.97559c0.48828-1.09375,0.73242-1.94824,0.73242-2.56348
		c0-0.55664-0.19531-0.95996-0.58594-1.20898s-0.98145-0.3877-1.77246-0.41699V72.5
		C268.07031,72.55859,269.17871,72.58789,270.7998,72.58789z"/>
	<path fill="#6C0D0F" d="M280.0498,73.33496c-0.32715,0.12695-0.55176,0.36133-0.67383,0.70313s-0.18262,0.88867-0.18262,1.64063
		v11.87988c0,0.75195,0.06055,1.29883,0.18262,1.64063s0.34668,0.57617,0.67383,0.70313s0.85254,0.20508,1.5752,0.23438v0.60059
		c-0.91797-0.05859-2.1875-0.08789-3.80859-0.08789c-1.71875,0-2.99805,0.0293-3.83789,0.08789v-0.60059
		c0.72266-0.0293,1.24707-0.10742,1.5752-0.23438c0.32617-0.12695,0.55078-0.36133,0.67383-0.70313
		c0.12109-0.3418,0.18262-0.88867,0.18262-1.64063V75.67871c0-0.75195-0.06152-1.29883-0.18262-1.64063
		c-0.12305-0.3418-0.34766-0.57617-0.67383-0.70313c-0.32813-0.12695-0.85254-0.20508-1.5752-0.23438V72.5
		c0.83008,0.05859,2.10938,0.08789,3.83789,0.08789c1.62109,0,2.89063-0.0293,3.80859-0.08789v0.60059
		C280.90234,73.12988,280.37695,73.20801,280.0498,73.33496z"/>
	<path fill="#6C0D0F" d="M298.61719,88.9209c-0.15625,0-0.35645,0.09766-0.60059,0.29297
		c-0.76172,0.63477-1.50684,1.11816-2.23438,1.4502s-1.60352,0.49805-2.62891,0.49805c-1.78711,0-3.34961-0.36914-4.6875-1.10645
		s-2.37598-1.80859-3.11328-3.21484s-1.10547-3.08594-1.10547-5.03906c0-1.91406,0.38086-3.6084,1.14258-5.08301
		s1.81836-2.61719,3.17188-3.42773c1.35156-0.81055,2.89258-1.21582,4.62109-1.21582c0.67383,0,1.28125,0.08496,1.82422,0.25586
		c0.54102,0.1709,1.01953,0.39355,1.43555,0.66699c0.41406,0.27344,0.86621,0.61523,1.35449,1.02539
		c0.24414,0.19531,0.43945,0.29297,0.58594,0.29297c0.41016,0,0.66406-0.60547,0.76172-1.81641h0.70313
		c-0.08789,1.15234-0.13184,3.25195-0.13184,6.29883h-0.68848c-0.19531-1.04492-0.39355-1.81445-0.59277-2.30762
		c-0.20117-0.49316-0.50098-1.00293-0.90137-1.53027c-0.56641-0.74219-1.2373-1.30859-2.01465-1.69922
		c-0.77539-0.39063-1.59375-0.58594-2.45313-0.58594c-1.17188,0-2.19727,0.36133-3.07617,1.08398s-1.55762,1.7627-2.03613,3.12012
		s-0.71777,2.95898-0.71777,4.80469c0,1.875,0.26563,3.47852,0.79883,4.81152c0.53125,1.33301,1.25391,2.34375,2.16797,3.03223
		c0.91211,0.68848,1.93555,1.0332,3.06836,1.0332c0.88867,0,1.73828-0.19531,2.54883-0.58594s1.48926-0.95703,2.03613-1.69922
		c0.39063-0.51758,0.68066-1.06738,0.87207-1.64844c0.18945-0.58105,0.36328-1.41309,0.51953-2.49707h0.68848
		c0,3.1543,0.03906,5.35645,0.11719,6.60645h-0.68848C299.2666,89.52637,299.01758,88.9209,298.61719,88.9209z"/>
	<path fill="#6C0D0F" d="M317.93848,87.19238c0,1.05469,0.06836,2.23633,0.20508,3.54492
		c-1.29883-0.05859-3.49121-0.08789-6.57715-0.08789c-3.69141,0-6.48926,0.0293-8.39355,0.08789v-0.60059
		c0.72266-0.0293,1.24707-0.10742,1.5752-0.23438c0.32617-0.12695,0.55078-0.36133,0.67383-0.70313
		c0.12109-0.3418,0.18262-0.88867,0.18262-1.64063V75.67871c0-0.75195-0.06152-1.29883-0.18262-1.64063
		c-0.12305-0.3418-0.34766-0.57617-0.67383-0.70313c-0.32813-0.12695-0.85254-0.20508-1.5752-0.23438V72.5
		c1.9043,0.05859,4.70215,0.08789,8.39355,0.08789c2.80273,0,4.79492-0.0293,5.97656-0.08789
		c-0.13672,1.20117-0.20508,2.28027-0.20508,3.2373c0,0.78125,0.0293,1.40137,0.08789,1.86035h-0.68848
		c-0.10742-1.11328-0.2959-1.9873-0.56348-2.62207c-0.26953-0.63477-0.65527-1.0918-1.1582-1.37012
		s-1.16895-0.41699-1.99902-0.41699h-2.19727c-0.72266,0-1.24805,0.05566-1.5752,0.16797s-0.55176,0.33984-0.67383,0.68164
		s-0.18262,0.88867-0.18262,1.64063v5.58105h2.49023c0.63477,0,1.125-0.16406,1.47168-0.49121s0.5791-0.68848,0.69629-1.08398
		s0.22461-0.89063,0.32227-1.48633h0.68848c-0.06836,0.78125-0.10254,1.52344-0.10254,2.22656l0.01465,1.12793
		c0,0.80078,0.06348,1.92383,0.19043,3.36914h-0.70313c-0.07813-0.61523-0.18848-1.1377-0.3291-1.56738
		c-0.14258-0.42969-0.3916-0.78613-0.74805-1.06934s-0.85645-0.4248-1.50098-0.4248h-2.49023v5.69824
		c0,0.75195,0.06055,1.2959,0.18262,1.63281s0.34668,0.56445,0.67383,0.68164s0.85254,0.17578,1.5752,0.17578h2.19727
		c0.98633,0,1.77246-0.15918,2.3584-0.47656s1.03027-0.83496,1.33301-1.55273s0.5127-1.71094,0.62988-2.98047h0.68848
		C317.96777,85.57617,317.93848,86.29395,317.93848,87.19238z"/>
	<path fill="#6C0D0F" d="M323.95898,88.84766c0.85938,1.14258,2.18262,1.71387,3.96973,1.71387
		c0.63477,0,1.23242-0.12207,1.79492-0.36621c0.56055-0.24414,1.01758-0.62012,1.36914-1.12793s0.52734-1.14258,0.52734-1.9043
		c0-0.66406-0.19336-1.25-0.57813-1.75781c-0.38672-0.50781-0.89648-0.96484-1.53125-1.37012s-1.52344-0.90039-2.66602-1.48633
		c-1.06445-0.54688-1.95117-1.07227-2.6582-1.5752c-0.70898-0.50293-1.28223-1.10059-1.72168-1.79395
		s-0.65918-1.49902-0.65918-2.41699c0-0.99609,0.25879-1.84863,0.77637-2.55664s1.20313-1.24023,2.05762-1.59668
		s1.79004-0.53418,2.80566-0.53418c0.61523,0,1.14453,0.05078,1.58887,0.15332s0.81348,0.22949,1.10645,0.38086
		s0.61523,0.34473,0.9668,0.5791c0.46875,0.2832,0.81055,0.4248,1.02539,0.4248c0.18555,0,0.32715-0.10742,0.4248-0.32227
		s0.17578-0.55176,0.23438-1.01074h0.68848c-0.09766,1.04492-0.14648,2.88574-0.14648,5.52246h-0.68848
		c-0.07813-0.91797-0.30078-1.76563-0.66602-2.54199c-0.36719-0.77637-0.9043-1.40625-1.61133-1.88965
		c-0.70898-0.4834-1.58984-0.72461-2.64453-0.72461c-0.70313,0-1.33301,0.12891-1.88965,0.3877s-0.99121,0.61328-1.30371,1.0625
		s-0.46875,0.95703-0.46875,1.52344c0,0.88867,0.29492,1.60156,0.88672,2.13867c0.58984,0.53711,1.29785,1.02734,2.12305,1.47168
		s1.39941,0.75977,1.72168,0.94531c1.24023,0.6543,2.23828,1.24512,2.99512,1.77246s1.36328,1.125,1.81641,1.79395
		c0.45508,0.66895,0.68164,1.44336,0.68164,2.32227c0,1.09375-0.27344,2.02344-0.82031,2.79004s-1.28711,1.34277-2.21875,1.72852
		c-0.93359,0.38574-1.9707,0.5791-3.11328,0.5791c-0.95703,0-1.74316-0.10059-2.3584-0.30078s-1.19629-0.4707-1.74316-0.8125
		c-0.44922-0.2832-0.79102-0.4248-1.02539-0.4248c-0.18555,0-0.32715,0.10449-0.4248,0.31445s-0.17578,0.54492-0.23438,1.00391
		h-0.68848c0.07813-0.97656,0.11719-3.17383,0.11719-6.5918h0.68848C322.60156,86.20605,323.09961,87.70508,323.95898,88.84766z"/>
	<path fill="#6C0D0F" d="M340.13086,93.10254c0.44922-0.56152,0.67383-1.12988,0.67383-1.70605
		c0-0.24414-0.0293-0.4541-0.08789-0.62988c-0.3418,0.26367-0.71289,0.39551-1.11328,0.39551
		c-0.54688,0-1.00293-0.17383-1.37012-0.52051c-0.36523-0.34668-0.54883-0.8125-0.54883-1.39844
		c0-0.54688,0.18555-1.00391,0.55664-1.37012s0.8252-0.54883,1.3623-0.54883c0.77148,0,1.3623,0.31738,1.77246,0.95215
		c0.3418,0.52734,0.5127,1.18652,0.5127,1.97754c0,1.00586-0.25684,1.90625-0.76855,2.70215
		c-0.51367,0.7959-1.28711,1.43848-2.32227,1.92676l-0.27832-0.54199C339.14453,94.07715,339.68164,93.66406,340.13086,93.10254z"/>
	<path fill="#6C0D0F" d="M358.46289,70.33203c-0.32715,0.12695-0.55176,0.36133-0.67383,0.70313s-0.18262,0.88867-0.18262,1.64063
		v14.88281c0,0.75195,0.06055,1.29883,0.18262,1.64063s0.34668,0.57617,0.67383,0.70313s0.85254,0.20508,1.5752,0.23438v0.60059
		c-0.91797-0.05859-2.1875-0.08789-3.80859-0.08789c-1.71875,0-2.99805,0.0293-3.83789,0.08789v-0.60059
		c0.72266-0.0293,1.24707-0.10742,1.5752-0.23438c0.32617-0.12695,0.55078-0.36133,0.67383-0.70313
		c0.12109-0.3418,0.18262-0.88867,0.18262-1.64063V72.67578c0-0.75195-0.06152-1.29883-0.18262-1.64063
		c-0.12305-0.3418-0.34766-0.57617-0.67383-0.70313c-0.32813-0.12695-0.85254-0.20508-1.5752-0.23438v-0.60059
		c0.83008,0.05859,2.10938,0.08789,3.83789,0.08789c1.62109,0,2.89063-0.0293,3.80859-0.08789v0.60059
		C359.31543,70.12695,358.79004,70.20508,358.46289,70.33203z"/>
	<path fill="#6C0D0F" d="M379.25,73.40039c-0.33789,0.1709-0.56934,0.45215-0.69629,0.84277s-0.19043,0.9668-0.19043,1.72852
		v14.91211h-0.68848l-11.99707-16.61133v12.97852c0,0.77148,0.06836,1.35254,0.20508,1.74316s0.39258,0.6709,0.76953,0.8418
		c0.375,0.1709,0.95898,0.27148,1.75,0.30078v0.60059c-0.71289-0.05859-1.7334-0.08789-3.06152-0.08789
		c-1.19141,0-2.11914,0.0293-2.7832,0.08789v-0.60059c0.69336-0.0293,1.20801-0.12988,1.5459-0.30078
		c0.33594-0.1709,0.56836-0.45117,0.69531-0.8418s0.19043-0.97168,0.19043-1.74316V75.67871
		c0-0.75195-0.06152-1.29883-0.18262-1.64063c-0.12305-0.3418-0.34766-0.57617-0.67383-0.70313
		c-0.32813-0.12695-0.85254-0.20508-1.5752-0.23438V72.5c0.6543,0.05859,1.58203,0.08789,2.7832,0.08789
		c1.10352,0,2.02637-0.0293,2.76855-0.08789l9.56543,13.31543v-9.84375c0-0.77148-0.06543-1.35059-0.19824-1.73633
		c-0.13086-0.38574-0.3877-0.66406-0.76855-0.83496s-0.9668-0.27051-1.75781-0.2998V72.5
		c0.71289,0.05859,1.7334,0.08789,3.06152,0.08789c1.20117,0,2.12891-0.0293,2.7832-0.08789v0.60059
		C380.10156,73.12988,379.58594,73.22949,379.25,73.40039z"/>
	<path fill="#6C0D0F" d="M397.47949,88.9209c-0.15625,0-0.35645,0.09766-0.60059,0.29297
		c-0.76172,0.63477-1.50684,1.11816-2.23438,1.4502s-1.60352,0.49805-2.62891,0.49805c-1.78711,0-3.34961-0.36914-4.6875-1.10645
		s-2.37598-1.80859-3.11328-3.21484s-1.10547-3.08594-1.10547-5.03906c0-1.91406,0.38086-3.6084,1.14258-5.08301
		s1.81836-2.61719,3.17188-3.42773c1.35156-0.81055,2.89258-1.21582,4.62109-1.21582c0.67383,0,1.28125,0.08496,1.82422,0.25586
		c0.54102,0.1709,1.01953,0.39355,1.43555,0.66699c0.41406,0.27344,0.86621,0.61523,1.35449,1.02539
		c0.24414,0.19531,0.43945,0.29297,0.58594,0.29297c0.41016,0,0.66406-0.60547,0.76172-1.81641h0.70313
		c-0.08789,1.15234-0.13184,3.25195-0.13184,6.29883h-0.68848c-0.19531-1.04492-0.39355-1.81445-0.59277-2.30762
		c-0.20117-0.49316-0.50098-1.00293-0.90137-1.53027c-0.56641-0.74219-1.2373-1.30859-2.01465-1.69922
		c-0.77539-0.39063-1.59375-0.58594-2.45313-0.58594c-1.17188,0-2.19727,0.36133-3.07617,1.08398s-1.55762,1.7627-2.03613,3.12012
		s-0.71777,2.95898-0.71777,4.80469c0,1.875,0.26563,3.47852,0.79883,4.81152c0.53125,1.33301,1.25391,2.34375,2.16797,3.03223
		c0.91211,0.68848,1.93555,1.0332,3.06836,1.0332c0.88867,0,1.73828-0.19531,2.54883-0.58594s1.48926-0.95703,2.03613-1.69922
		c0.39063-0.51758,0.68066-1.06738,0.87207-1.64844c0.18945-0.58105,0.36328-1.41309,0.51953-2.49707h0.68848
		c0,3.1543,0.03906,5.35645,0.11719,6.60645h-0.68848C398.12891,89.52637,397.87988,88.9209,397.47949,88.9209z"/>
</g>
</svg>
