<svg xmlns="http://www.w3.org/2000/svg" viewBox="0 0 186.28 42.36"><defs><style>.cls-1{fill:#cd202a;}.cls-1,.cls-2,.cls-3{fill-rule:evenodd;}.cls-2,.cls-4{fill:#122e50;}.cls-3{fill:#fff;}</style></defs><title>Asset 1</title><g id="Layer_2" data-name="Layer 2"><g id="Layer_1-2" data-name="Layer 1"><path class="cls-1" d="M15.84,26.37c.93-.26,2-.49,3.05-.68V.84a31.85,31.85,0,0,0-7.82,2.6V28.68h0A10.56,10.56,0,0,1,15.84,26.37Z"/><path class="cls-2" d="M45.17,31.73C45.09,29.12,37.45,27,28,27S11,29.12,10.9,31.73h0v5.36a112.39,112.39,0,0,0,16.37,1.15,141.9,141.9,0,0,0,17.9-.94V31.73Z"/><g id="VxsX7h.tif"><path class="cls-3" d="M13.66,32.2h.08l1.24,0,.54,0s.05,0,.05,0c.18-.46.34-.92.51-1.38l.12-.3a.25.25,0,0,1,0-.07c.06.16.12.3.17.44s.15.42.23.64.17.43.24.65a.09.09,0,0,0,.09.06l1.74.06h.09l-.1.09-1.28,1c-.1.07-.1.08-.06.2.11.41.23.82.35,1.24,0,.14.07.27.11.41a.07.07,0,0,1,0,.05L17.47,35l-.72-.48-.46-.31a.09.09,0,0,0-.12,0l-1.47,1,0,0c0-.11,0-.21.08-.31L15,34l.15-.56s0-.05,0-.07l-1-.81Z"/></g><g id="VxsX7h.tif-2" data-name="VxsX7h.tif"><path class="cls-3" d="M24.85,31.85l.09,0,1.67-.07.73,0a.09.09,0,0,0,.07-.05c.23-.62.46-1.23.68-1.85l.15-.41,0-.09.22.59c.11.28.21.57.32.85s.22.59.32.88c0,.06.05.08.12.08l2.33.09h.13l-.14.12-1.72,1.36c-.13.11-.13.11-.08.27.15.56.31,1.11.46,1.67.06.18.11.37.16.55a.15.15,0,0,1,0,.07l-.46-.3-1-.64c-.21-.14-.42-.27-.62-.42a.14.14,0,0,0-.16,0l-2,1.34-.06,0c0-.15.07-.28.11-.41l.34-1.24.21-.75a.06.06,0,0,0,0-.09L25.42,32.3Z"/></g><g id="VxsX7h.tif-3" data-name="VxsX7h.tif"><path class="cls-3" d="M37.51,32.2h.07l1.24,0,.55,0a.07.07,0,0,0,.05,0l.51-1.38c0-.1.07-.2.11-.3a.36.36,0,0,1,0-.07l.16.44.24.64.24.65s0,.06.08.06l1.75.06h.09l-.1.09-1.29,1c-.1.07-.09.08-.06.2.12.41.23.82.35,1.24l.12.41a.11.11,0,0,0,0,.05L41.31,35l-.71-.48-.47-.31a.08.08,0,0,0-.11,0l-1.48,1,0,0,.09-.31c.08-.31.17-.61.25-.92s.1-.37.16-.56a.06.06,0,0,0,0-.07l-1-.81Z"/></g><path class="cls-1" d="M28.21,25c1.17,0,2.34,0,3.47.1V.1C30.62,0,29.52,0,28.37,0c-1.61,0-3.11.07-4.52.2V25.11C25.26,25,26.72,25,28.21,25Z"/><path class="cls-1" d="M40.58,26.56a11.19,11.19,0,0,1,4.52,2.12h.13V3.82A30,30,0,0,0,37.41,1.1V25.86A31.18,31.18,0,0,1,40.58,26.56Z"/><path class="cls-2" d="M0,37,0,40c.81.15,1.69.31,2.65.47a151.31,151.31,0,0,0,24.54,1.91c15,0,23.82-1,29-2V37h0a1.24,1.24,0,0,0-.09-.38,1.34,1.34,0,0,0-1.74-.76l-.44.18c-2.1.87-8.47,3.5-26.61,3.5A88.93,88.93,0,0,1,8.61,37.66a46.3,46.3,0,0,1-6.77-1.91A1.34,1.34,0,0,0,.1,36.5a1.12,1.12,0,0,0-.1.39H0V37Z"/><path class="cls-4" d="M123,22.59c-.22.67-.4,1.35-.66,2-1.13,2.7-2.28,5.37-3.43,8.06-.27.63-.57,1.25-.83,1.89a.62.62,0,0,1-.67.43c-.65,0-1.31,0-2,0a1,1,0,0,1-.66-.41c-1.25-2.74-2.49-5.48-3.67-8.25-.43-1-.7-2.1-1-3.15,0-.17-.12-.33-.18-.5h-.14c0,.19,0,.39,0,.58.44,4.9.47,9.8.44,14.71,0,1,0,1-1,1-1.18,0-2.36,0-3.54,0-.51,0-.72-.16-.72-.69q0-13.67,0-27.32c0-.5.15-.73.69-.72,1.13,0,2.25,0,3.38,0a.68.68,0,0,1,.74.48c2,4.75,4,9.5,6,14.25.27.66.43,1.37.68,2.18.07-.23.11-.35.15-.47.87-2.21,1.71-4.43,2.61-6.62,1.28-3.11,2.6-6.19,3.89-9.28a.71.71,0,0,1,.76-.54c1.12,0,2.25,0,3.38,0,.53,0,.68.2.68.71q0,13.64,0,27.27c0,.68-.06.74-.75.74-1.26,0-2.51,0-3.77,0-.48,0-.71-.17-.69-.66q.18-6.81.37-13.62c0-.67.09-1.33.14-2Z"/><path class="cls-4" d="M101.14,38l-5-16.39q-1.66-5.43-3.31-10.87a.67.67,0,0,0-.77-.57c-.92,0-1.85,0-2.78,0-.49,0-.69.17-.83.63q-2.43,8-4.88,16-1.72,5.67-3.44,11.34c-.17.58-.07.72.55.72,1.42,0,2.84,0,4.26,0a.62.62,0,0,0,.68-.54c.39-1.42.81-2.83,1.19-4.24a.7.7,0,0,1,.79-.62q3,0,6,0a.7.7,0,0,1,.8.61c.38,1.42.81,2.82,1.2,4.24a.65.65,0,0,0,.74.55c.71,0,1.42,0,2.13,0h2C101.31,38.88,101.38,38.79,101.14,38Zm-8.58-9.32a1,1,0,0,1-.32,0c-1,0-2.11,0-3.16,0l-.22,0c-.58,0-.31-.65-.31-.65l2.09-8.87s1.45,6.15,2,8.33c.05.17.09.35.13.52a1,1,0,0,1,0,.21.37.37,0,0,1,0,.28h0v0A.31.31,0,0,1,92.56,28.67Z"/><path class="cls-4" d="M73,23.77a25.44,25.44,0,0,0-2.55-1.45c-1.31-.65-2.67-1.22-4-1.88A3,3,0,0,1,64.56,18,3.13,3.13,0,0,1,66.09,15a3.76,3.76,0,0,1,5.13,1.08,6.48,6.48,0,0,1,.53,1c.17.39.39.46.77.26,1.23-.64,2.48-1.28,3.73-1.9a.48.48,0,0,0,.26-.74,10.21,10.21,0,0,0-2.05-2.92s-.17-.17-.48-.41c-.13-.11-.28-.21-.42-.31h0a8.13,8.13,0,0,0-1.6-.82h0l-.14,0-.18-.06-.07,0-.18-.06-.08,0L71.1,10,71,10l-.18,0-.12,0-.16,0-.15,0-.15,0-.18,0H70l-.32,0h0a21.08,21.08,0,0,0-2.28-.07h0c-.32,0-.61,0-.89.07h0l-.16,0h0l-.15,0h0l-.15,0h0a5.29,5.29,0,0,0-.6.13h0l-.11,0,0,0-.09,0,0,0-.09,0H64.9l-.08,0-.49.17h0l-.67.28h0l-.13,0c-4.07,2-5.08,7-3.42,10.71A8.44,8.44,0,0,0,64,25.26c1.75.95,3.55,1.81,5.32,2.74a6.75,6.75,0,0,1,1.3.88,3.09,3.09,0,0,1,.91,3.55c0,.13-.11.26-.17.38h0A2.9,2.9,0,0,1,70,34.21l-.23.1h0a6.25,6.25,0,0,1-3.8.16h0A2.44,2.44,0,0,1,65,34a1.57,1.57,0,0,1-.39-.42h0c-.14-.17-.27-.35-.4-.54h0c-.24-.35-.46-.71-.68-1.07s-.32-.47-.68-.29l-3.87,2a.43.43,0,0,0-.23.67,8.11,8.11,0,0,0,4.94,4.61,15.55,15.55,0,0,0,6.11.33,9.08,9.08,0,0,0,3.11-.87,7.11,7.11,0,0,0,4.07-6.2A8.5,8.5,0,0,0,73,23.77Z"/><g id="VxsX7h.tif-4" data-name="VxsX7h.tif"><path class="cls-1" d="M130.17,35.62l.14,0,2.4-.1,1,0a.13.13,0,0,0,.1-.07l1-2.67c.07-.2.14-.39.22-.59a.78.78,0,0,1,.05-.12c.11.3.21.57.32.84l.45,1.24c.16.41.32.83.47,1.25a.16.16,0,0,0,.17.13l3.36.12.18,0-.19.16-2.49,2c-.19.14-.19.15-.12.38.23.8.45,1.6.68,2.4.07.27.15.53.22.8a.56.56,0,0,1,0,.1l-.66-.44-1.39-.92c-.3-.2-.6-.39-.9-.6a.18.18,0,0,0-.22,0l-2.86,1.92-.09,0c.06-.21.11-.4.16-.59l.5-1.79L133,38a.11.11,0,0,0,0-.14l-2-1.57Z"/></g><path class="cls-4" d="M149.19,21.8c.3,0,.6.05.9.11A5.66,5.66,0,0,1,154.24,25a9.64,9.64,0,0,1,.86,2.41v.09h-1.64c-.06-.22-.11-.44-.18-.65a6,6,0,0,0-.89-1.91A3.92,3.92,0,0,0,150,23.4a5.5,5.5,0,0,0-3.06.22,4.15,4.15,0,0,0-1.91,1.5,7.39,7.39,0,0,0-1.2,3.16,16.31,16.31,0,0,0-.12,4.3,9.39,9.39,0,0,0,.73,3,4.6,4.6,0,0,0,1.91,2.24,4.33,4.33,0,0,0,1.57.55,5.54,5.54,0,0,0,2.65-.2,3.86,3.86,0,0,0,1.85-1.36A6.4,6.4,0,0,0,153.55,34c.12-.71.18-1.42.25-2.13a1.62,1.62,0,0,0,0-.23h-5V30.16h6.64l0,.36a16.37,16.37,0,0,1-.37,3.88,8.48,8.48,0,0,1-1.52,3.36,5.48,5.48,0,0,1-3.72,2.13L149,40h-.4l-.9-.09a5.76,5.76,0,0,1-4-2.32,8.37,8.37,0,0,1-1.42-3.09,13.7,13.7,0,0,1-.41-2.92c0-.17,0-.34,0-.52v-.27l0-.19c.05-.66.08-1.33.16-2a9.58,9.58,0,0,1,1.39-4,5.8,5.8,0,0,1,4.2-2.72c.22,0,.44-.06.67-.09Z"/><path class="cls-4" d="M164.44,40l-.9-.09a5.79,5.79,0,0,1-3.82-2.14,8.17,8.17,0,0,1-1.5-3,13.31,13.31,0,0,1-.44-2.66,16.48,16.48,0,0,1,.07-3.06A11,11,0,0,1,159,25.2a5.91,5.91,0,0,1,3.61-3.1,13.93,13.93,0,0,1,1.46-.27l.15,0h1l.87.12a5.81,5.81,0,0,1,4,2.8A9.41,9.41,0,0,1,171.25,28a15.22,15.22,0,0,1,.27,3.3,13.76,13.76,0,0,1-.39,3.13,8.4,8.4,0,0,1-1.63,3.42,5.58,5.58,0,0,1-3.38,2A11.13,11.13,0,0,1,165,40l-.12,0Zm5.42-9.14a15.61,15.61,0,0,0-.21-2.6,7.55,7.55,0,0,0-1.15-3.06A4.13,4.13,0,0,0,166,23.44a5.58,5.58,0,0,0-3.11.13,4.05,4.05,0,0,0-2.06,1.56,7.82,7.82,0,0,0-1.26,3.56,16.76,16.76,0,0,0-.13,2.92A13.68,13.68,0,0,0,159.7,34a7.06,7.06,0,0,0,1,2.56,4.2,4.2,0,0,0,2.73,1.81,5.61,5.61,0,0,0,2.79-.11,4,4,0,0,0,1.81-1.12,6.14,6.14,0,0,0,1.4-2.73A14.4,14.4,0,0,0,169.86,30.84Z"/><path class="cls-4" d="M186.28,22.19c-.13.4-.26.77-.38,1.15q-2.75,8-5.48,16.1a.17.17,0,0,1-.21.14h-1.35c-.12,0-.17,0-.21-.15l-3.88-11.34-2-5.76,0-.13h1.61a.16.16,0,0,1,.18.13Q177,29.64,179.45,37a.41.41,0,0,0,.1.16l.06-.15,4.86-14.57c.05-.16.11-.21.27-.2Z"/></g></g></svg>