<?xml version="1.0" encoding="UTF-8" ?>
<!DOCTYPE svg PUBLIC "-//W3C//DTD SVG 1.1//EN" "http://www.w3.org/Graphics/SVG/1.1/DTD/svg11.dtd">
<svg width="550pt" height="130pt" viewBox="0 0 550 130" version="1.1" xmlns="http://www.w3.org/2000/svg">
<path fill="#000000" stroke="#000000" stroke-width="0.09375" opacity="1.00" d=" M 371.82 0.00 L 372.55 0.00 C 380.24 20.47 387.11 41.25 394.41 61.86 C 395.94 65.73 396.70 70.20 399.75 73.23 C 402.95 74.89 407.03 74.11 409.97 76.48 C 404.34 77.11 398.68 76.72 393.04 76.80 C 387.42 76.71 381.77 77.15 376.18 76.44 C 379.42 73.82 384.04 75.47 387.41 73.37 C 388.11 71.32 387.19 69.17 386.66 67.19 C 384.44 60.69 382.15 54.21 380.04 47.68 C 371.84 47.68 363.64 47.74 355.45 47.64 C 353.19 54.00 350.69 60.29 348.85 66.80 C 348.42 68.89 347.59 71.74 349.72 73.20 C 353.32 74.86 357.45 74.77 361.19 76.09 C 355.26 77.85 349.05 76.61 342.98 76.88 C 338.70 76.79 334.15 77.80 330.11 75.91 C 333.08 74.89 336.32 74.62 339.15 73.20 C 342.28 70.75 343.56 66.76 345.07 63.24 C 350.56 48.59 355.76 33.83 361.12 19.14 C 362.67 14.69 365.20 10.22 363.99 5.34 C 366.52 3.45 369.09 1.60 371.82 0.00 M 366.72 15.90 C 363.63 25.12 360.07 34.17 357.04 43.40 C 364.24 43.32 371.43 43.34 378.62 43.38 C 375.06 33.28 371.85 23.05 368.39 12.91 C 367.26 13.43 367.23 14.92 366.72 15.90 Z" />
<path fill="#ffffff" stroke="#ffffff" stroke-width="0.09375" opacity="1.00" d=" M 0.00 2.23 C 20.33 2.03 40.66 2.30 60.98 2.10 C 69.29 15.97 77.83 29.70 86.01 43.65 C 94.26 29.74 102.82 16.01 111.18 2.17 C 131.58 2.12 151.99 2.25 172.38 2.10 C 165.29 13.25 158.64 24.68 151.64 35.89 C 150.83 37.35 149.16 37.87 147.93 38.88 C 147.67 56.79 147.94 74.72 147.79 92.64 C 148.42 92.67 149.66 92.72 150.28 92.75 C 157.78 104.68 164.89 116.86 172.41 128.78 C 114.94 128.66 57.47 128.68 0.00 128.76 L 0.00 128.63 C 7.25 116.66 14.56 104.72 21.86 92.76 C 22.46 92.74 23.68 92.69 24.29 92.66 C 24.20 74.38 24.26 56.10 24.26 37.82 C 23.61 37.80 22.30 37.77 21.64 37.75 C 14.45 26.00 7.46 14.11 0.02 2.52 L 0.00 4.06 L 0.00 2.23 M 6.38 5.63 C 12.39 15.09 18.02 24.79 23.92 34.33 C 25.34 34.32 26.76 34.31 28.19 34.32 C 28.18 55.07 28.19 75.81 28.18 96.56 C 26.75 96.56 25.32 96.54 23.89 96.52 C 17.99 106.07 12.34 115.77 6.33 125.26 C 32.17 125.18 58.01 125.20 83.85 125.25 C 77.91 115.71 72.22 106.01 66.28 96.46 C 64.94 96.52 63.59 96.58 62.25 96.64 C 62.22 90.08 62.20 83.52 62.24 76.96 C 69.44 89.24 76.97 101.31 84.19 113.57 C 84.78 114.52 85.35 115.50 86.18 116.27 C 94.17 103.12 102.09 89.92 110.19 76.84 C 110.13 83.41 110.15 89.98 110.16 96.55 C 108.73 96.54 107.30 96.52 105.87 96.50 C 100.00 106.07 94.28 115.73 88.33 125.25 C 114.16 125.19 139.98 125.20 165.80 125.24 C 159.88 115.68 154.17 106.00 148.24 96.45 C 146.91 96.51 145.59 96.57 144.26 96.63 C 144.26 75.83 144.26 55.03 144.26 34.23 C 145.57 34.29 146.87 34.34 148.18 34.40 C 154.17 24.89 159.79 15.15 165.79 5.65 C 148.85 5.69 131.91 5.69 114.97 5.65 C 113.33 5.13 112.74 6.92 111.98 7.92 C 103.35 22.23 94.53 36.41 86.00 50.77 C 77.16 35.62 67.83 20.76 58.89 5.67 C 41.38 5.65 23.88 5.73 6.38 5.63 Z" />
<path fill="#000000" stroke="#000000" stroke-width="0.09375" opacity="1.00" d=" M 192.52 2.41 C 200.56 2.35 208.63 2.13 216.65 2.50 C 217.70 4.21 218.31 6.14 219.05 8.00 C 225.97 26.40 233.21 44.68 240.00 63.13 C 246.75 46.51 253.19 29.77 259.80 13.11 C 261.29 9.57 262.30 5.79 264.29 2.49 C 272.09 2.10 279.92 2.46 287.74 2.28 C 287.63 2.76 287.43 3.73 287.33 4.21 C 284.19 4.32 281.02 4.19 277.92 4.74 C 275.32 5.66 275.79 8.79 275.78 10.96 C 276.80 31.29 276.26 51.69 277.53 72.01 C 279.50 76.35 285.77 73.49 289.25 76.04 C 280.67 77.82 271.75 76.28 263.03 76.85 C 260.85 76.49 257.75 77.81 256.28 75.76 C 259.18 74.10 262.70 74.92 265.81 73.96 C 267.76 73.08 267.84 70.84 267.79 69.01 C 267.51 48.92 266.90 28.83 266.41 8.75 C 257.05 31.23 248.73 54.15 239.26 76.58 C 234.40 77.01 233.98 71.70 232.50 68.39 C 224.78 48.56 217.42 28.57 209.46 8.84 C 208.26 25.85 208.73 42.94 207.99 59.97 C 207.80 64.39 207.26 68.94 208.64 73.23 C 212.35 74.40 216.26 74.41 220.03 75.14 C 220.36 75.53 221.01 76.32 221.34 76.72 C 211.04 76.87 200.73 76.89 190.44 76.71 C 192.13 73.64 196.16 75.13 198.95 74.25 C 202.07 74.09 203.57 70.84 203.38 68.07 C 203.68 48.69 204.67 29.33 204.77 9.94 C 204.68 8.69 204.76 7.19 203.67 6.30 C 200.66 3.20 195.00 6.17 192.52 2.41 Z" />
<path fill="#000000" stroke="#000000" stroke-width="0.09375" opacity="1.00" d=" M 293.60 3.19 C 295.71 1.42 298.47 2.01 300.97 2.05 C 309.27 2.43 317.60 1.94 325.90 2.08 L 326.92 3.31 C 323.99 4.37 320.81 4.10 317.83 4.86 C 315.72 5.61 315.16 7.97 315.30 9.97 C 315.31 29.67 315.32 49.37 315.29 69.07 C 315.24 70.82 315.49 72.93 317.28 73.79 C 320.08 74.95 323.24 74.49 326.18 75.10 C 326.21 75.52 326.29 76.38 326.32 76.81 C 318.21 76.93 310.08 76.68 301.96 76.85 C 299.12 76.83 296.16 77.15 293.49 75.93 C 296.49 74.66 299.79 74.77 302.93 74.09 C 305.16 73.45 305.79 71.04 305.62 68.99 C 305.61 49.31 305.60 29.64 305.63 9.97 C 305.76 7.95 305.28 5.52 303.06 4.84 C 299.94 4.11 296.69 4.12 293.60 3.19 Z" />
<path fill="#000000" stroke="#000000" stroke-width="0.09375" opacity="1.00" d=" M 414.40 2.91 C 418.85 1.86 423.45 2.45 427.97 2.34 C 431.69 2.44 435.45 2.00 439.14 2.62 C 447.31 22.58 454.49 42.97 462.53 62.99 C 470.52 42.76 478.37 22.48 486.51 2.32 C 494.46 2.44 502.40 2.17 510.34 2.39 C 507.90 6.50 501.79 2.58 498.60 5.72 C 497.68 8.82 498.29 12.10 498.24 15.28 C 498.50 33.84 498.99 52.39 499.51 70.94 C 499.49 72.18 500.12 73.32 501.15 74.02 C 504.56 74.82 508.23 74.42 511.46 76.00 C 508.42 77.20 505.13 76.82 501.95 76.83 C 494.13 76.70 486.31 76.94 478.50 76.76 C 480.59 72.52 487.14 76.48 489.52 72.42 C 490.97 69.15 489.70 65.45 489.79 62.01 C 489.54 44.32 489.14 26.63 488.54 8.96 C 479.85 30.86 471.31 52.84 462.53 74.70 C 461.64 77.47 457.32 76.55 456.98 73.85 C 450.22 56.39 443.57 38.89 436.81 21.43 C 435.14 17.17 433.76 12.79 431.66 8.71 C 431.08 28.48 430.58 48.24 430.23 68.01 C 430.34 69.78 429.94 72.16 431.80 73.18 C 435.65 75.24 440.42 73.85 444.27 76.06 C 438.31 77.67 432.05 76.45 425.96 76.80 C 421.44 76.45 416.60 77.83 412.36 75.81 C 416.46 73.66 423.41 76.22 425.35 70.94 C 426.66 52.01 426.25 32.98 427.29 14.02 C 427.17 11.25 428.01 7.60 425.41 5.71 C 421.97 3.97 417.72 5.09 414.40 2.91 Z" />
<path fill="#000000" stroke="#000000" stroke-width="0.09375" opacity="1.00" d=" M 516.55 1.93 C 526.72 2.33 536.90 2.17 547.07 2.00 C 547.73 2.30 549.04 2.92 549.69 3.23 C 545.93 4.84 540.21 2.94 537.93 7.12 C 537.33 10.06 537.65 13.09 537.60 16.07 C 537.61 33.38 537.64 50.69 537.58 68.00 C 537.70 69.73 537.34 71.83 538.79 73.12 C 541.72 75.92 546.92 73.14 549.43 76.62 C 538.49 77.03 527.52 76.75 516.56 76.77 C 517.68 73.72 521.51 75.15 523.96 74.38 C 526.81 74.40 528.31 71.55 528.09 69.01 C 528.19 49.67 528.08 30.32 528.14 10.98 C 528.27 8.46 527.68 4.98 524.62 4.62 C 521.93 3.70 517.61 5.42 516.55 1.93 Z" />
<path fill="#000000" stroke="#000000" stroke-width="0.09375" opacity="1.00" d=" M 6.38 5.63 C 23.88 5.73 41.38 5.65 58.89 5.67 C 67.83 20.76 77.16 35.62 86.00 50.77 C 94.53 36.41 103.35 22.23 111.98 7.92 C 112.74 6.92 113.33 5.13 114.97 5.65 C 131.91 5.69 148.85 5.69 165.79 5.65 C 159.79 15.15 154.17 24.89 148.18 34.40 C 146.87 34.34 145.57 34.29 144.26 34.23 C 144.26 55.03 144.26 75.83 144.26 96.63 C 145.59 96.57 146.91 96.51 148.24 96.45 C 154.17 106.00 159.88 115.68 165.80 125.24 C 139.98 125.20 114.16 125.19 88.33 125.25 C 94.28 115.73 100.00 106.07 105.87 96.50 C 107.30 96.52 108.73 96.54 110.16 96.55 C 110.15 89.98 110.13 83.41 110.19 76.84 C 102.09 89.92 94.17 103.12 86.18 116.27 C 85.35 115.50 84.78 114.52 84.19 113.57 C 76.97 101.31 69.44 89.24 62.24 76.96 C 62.20 83.52 62.22 90.08 62.25 96.64 C 63.59 96.58 64.94 96.52 66.28 96.46 C 72.22 106.01 77.91 115.71 83.85 125.25 C 58.01 125.20 32.17 125.18 6.33 125.26 C 12.34 115.77 17.99 106.07 23.89 96.52 C 25.32 96.54 26.75 96.56 28.18 96.56 C 28.19 75.81 28.18 55.07 28.19 34.32 C 26.76 34.31 25.34 34.32 23.92 34.33 C 18.02 24.79 12.39 15.09 6.38 5.63 M 19.75 13.14 C 22.49 17.75 25.28 22.34 28.09 26.91 C 30.55 26.86 33.01 26.81 35.46 26.76 C 35.70 52.46 35.47 78.16 35.58 103.86 C 33.09 103.85 30.60 103.85 28.11 103.85 C 25.30 108.43 22.52 113.02 19.76 117.63 C 36.67 117.63 53.58 117.53 70.48 117.68 C 67.70 113.03 64.81 108.44 61.95 103.84 C 59.50 103.84 57.05 103.85 54.61 103.87 C 54.65 86.06 54.58 68.26 54.64 50.45 C 65.29 67.58 75.73 84.84 86.00 102.20 C 96.51 84.94 106.88 67.60 117.56 50.46 C 117.53 68.25 117.47 86.04 117.58 103.83 C 115.13 103.85 112.68 103.86 110.23 103.89 C 107.40 108.46 104.59 113.05 101.64 117.55 C 118.59 117.73 135.54 117.51 152.48 117.66 C 149.71 113.02 146.88 108.41 144.03 103.81 C 141.57 103.84 139.10 103.87 136.64 103.91 C 136.65 78.21 136.64 52.50 136.65 26.80 C 139.12 26.83 141.60 26.87 144.08 26.92 C 146.91 22.33 149.73 17.72 152.53 13.11 C 140.92 13.14 129.31 13.28 117.70 13.04 C 106.97 30.26 96.49 47.65 86.03 65.05 C 75.72 47.70 65.12 30.53 54.78 13.20 C 43.11 13.10 31.43 13.20 19.75 13.14 Z" />
<path fill="#c41230" stroke="#c41230" stroke-width="0.09375" opacity="1.00" d=" M 19.75 13.14 C 31.43 13.20 43.11 13.10 54.78 13.20 C 65.12 30.53 75.72 47.70 86.03 65.05 C 96.49 47.65 106.97 30.26 117.70 13.04 C 129.31 13.28 140.92 13.14 152.53 13.11 C 149.73 17.72 146.91 22.33 144.08 26.92 C 141.60 26.87 139.12 26.83 136.65 26.80 C 136.64 52.50 136.65 78.21 136.64 103.91 C 139.10 103.87 141.57 103.84 144.03 103.81 C 146.88 108.41 149.71 113.02 152.48 117.66 C 135.54 117.51 118.59 117.73 101.64 117.55 C 104.59 113.05 107.40 108.46 110.23 103.89 C 112.68 103.86 115.13 103.85 117.58 103.83 C 117.47 86.04 117.53 68.25 117.56 50.46 C 106.88 67.60 96.51 84.94 86.00 102.20 C 75.73 84.84 65.29 67.58 54.64 50.45 C 54.58 68.26 54.65 86.06 54.61 103.87 C 57.05 103.85 59.50 103.84 61.95 103.84 C 64.81 108.44 67.70 113.03 70.48 117.68 C 53.58 117.53 36.67 117.63 19.76 117.63 C 22.52 113.02 25.30 108.43 28.11 103.85 C 30.60 103.85 33.09 103.85 35.58 103.86 C 35.47 78.16 35.70 52.46 35.46 26.76 C 33.01 26.81 30.55 26.86 28.09 26.91 C 25.28 22.34 22.49 17.75 19.75 13.14 Z" />
<path fill="#000000" stroke="#000000" stroke-width="0.09375" opacity="1.00" d=" M 191.25 89.75 C 197.08 89.95 202.91 89.94 208.74 89.75 C 208.75 90.11 208.76 90.82 208.77 91.17 C 206.61 91.62 203.17 90.92 202.94 93.97 C 202.87 101.92 202.16 110.03 203.51 117.90 C 204.86 126.59 217.86 128.42 222.54 121.57 C 225.48 117.69 224.74 112.56 224.84 108.01 C 224.62 103.47 225.17 98.93 225.06 94.39 C 224.49 91.33 220.94 91.58 218.57 91.16 C 218.57 90.81 218.58 90.11 218.58 89.77 C 223.89 90.42 229.52 88.84 234.62 90.66 C 232.60 91.62 228.76 91.14 228.35 94.04 C 227.79 101.71 227.96 109.42 227.63 117.10 C 227.42 122.66 223.50 127.98 217.94 129.17 C 213.04 130.16 207.67 130.09 203.06 128.00 C 199.20 126.24 197.27 122.02 196.99 117.98 C 196.31 109.75 197.19 101.47 196.59 93.24 C 196.21 90.73 192.92 91.78 191.13 91.18 C 191.16 90.82 191.22 90.10 191.25 89.75 Z" />
<path fill="#000000" stroke="#000000" stroke-width="0.09375" opacity="1.00" d=" M 236.40 89.76 C 240.35 89.90 244.29 89.92 248.24 89.84 C 256.15 99.46 263.62 109.43 271.36 119.18 C 271.24 111.07 271.45 102.94 271.10 94.83 C 270.95 91.08 266.42 91.65 263.91 90.62 C 269.05 89.05 274.51 90.28 279.79 89.75 C 279.82 90.10 279.88 90.79 279.92 91.14 C 277.95 91.57 274.79 91.41 274.51 94.06 C 273.91 104.34 274.42 114.67 274.15 124.97 C 274.10 126.67 273.71 128.34 273.31 129.99 C 271.85 128.70 270.46 127.32 269.25 125.78 C 261.42 115.79 253.54 105.83 245.68 95.87 C 245.62 104.23 245.78 112.60 245.73 120.96 C 245.81 122.85 245.59 125.29 247.34 126.53 C 248.83 127.11 250.43 127.31 251.99 127.63 C 251.98 127.91 251.97 128.46 251.96 128.74 C 247.00 128.48 242.04 128.45 237.09 128.79 C 237.09 128.49 237.10 127.90 237.10 127.61 C 239.29 127.19 242.68 127.03 242.59 124.01 C 242.86 114.69 242.78 105.35 242.63 96.03 C 242.73 92.63 239.29 91.45 236.52 91.06 C 236.49 90.74 236.43 90.09 236.40 89.76 Z" />
<path fill="#000000" stroke="#000000" stroke-width="0.09375" opacity="1.00" d=" M 303.32 89.83 C 309.06 89.98 314.81 89.98 320.55 89.84 C 320.60 90.19 320.68 90.89 320.72 91.25 C 318.98 91.64 316.93 91.48 315.67 92.97 C 316.05 97.10 318.00 100.85 319.28 104.74 C 321.47 110.43 323.14 116.33 325.66 121.89 C 327.90 114.87 330.61 108.01 333.05 101.06 C 333.85 98.56 334.89 95.99 334.60 93.30 C 333.17 91.44 330.57 91.73 328.51 91.27 L 328.71 89.82 C 333.95 90.39 339.24 90.49 344.47 89.87 L 344.62 91.12 C 342.39 91.77 339.71 92.26 338.83 94.74 C 333.53 106.09 330.48 118.42 325.17 129.76 C 322.17 130.49 321.64 127.17 320.75 125.15 C 317.39 115.93 313.94 106.73 310.59 97.51 C 309.81 95.68 309.25 93.57 307.66 92.26 C 306.25 91.67 304.69 91.55 303.21 91.26 C 303.23 90.91 303.29 90.19 303.32 89.83 Z" />
<path fill="#000000" stroke="#000000" stroke-width="0.09375" opacity="1.00" d=" M 383.26 89.76 C 390.60 90.07 398.01 89.49 405.28 90.73 C 410.21 91.51 414.72 95.79 414.36 101.02 C 414.34 106.11 410.48 110.09 406.02 111.97 C 409.05 116.06 411.61 120.47 414.62 124.57 C 416.28 126.93 419.28 127.55 421.64 128.97 C 418.75 129.11 415.86 129.09 412.99 128.89 C 411.72 128.73 410.11 128.94 409.45 127.58 C 405.87 122.39 402.83 116.84 399.34 111.59 C 397.63 111.42 395.93 111.25 394.23 111.07 C 394.40 116.12 393.86 121.22 394.55 126.24 C 396.45 127.07 398.48 127.58 400.37 128.46 C 394.64 128.80 388.88 128.32 383.15 128.75 C 383.14 128.41 383.13 127.72 383.13 127.37 C 384.54 127.32 385.97 127.27 387.39 127.21 C 387.94 125.19 388.38 123.13 388.32 121.02 C 388.25 112.66 388.30 104.30 388.30 95.93 C 388.20 94.50 388.48 92.68 387.01 91.83 C 385.73 91.55 384.45 91.31 383.17 91.12 C 383.19 90.78 383.24 90.10 383.26 89.76 M 394.22 93.16 C 394.25 98.21 394.25 103.26 394.23 108.31 C 397.67 108.75 401.51 109.56 404.68 107.69 C 408.29 105.59 408.55 100.44 407.07 96.96 C 404.46 92.46 398.61 93.32 394.22 93.16 Z" />
<path fill="#000000" stroke="#000000" stroke-width="0.09375" opacity="1.00" d=" M 428.68 91.65 C 433.41 88.03 439.89 88.89 445.28 90.29 C 446.07 89.97 446.87 89.65 447.66 89.33 C 447.71 93.30 447.92 97.26 448.16 101.21 C 445.23 99.43 445.45 95.15 442.57 93.28 C 438.68 90.52 431.58 91.02 429.83 96.05 C 428.66 99.40 431.51 102.48 434.41 103.68 C 439.39 106.05 445.72 107.03 448.79 112.14 C 451.98 117.62 448.98 124.95 443.50 127.65 C 437.33 130.83 430.03 129.26 423.74 127.28 C 423.64 123.60 423.42 119.93 423.56 116.25 C 426.00 119.59 426.88 124.40 431.18 126.00 C 435.02 127.24 440.24 127.58 443.11 124.17 C 445.43 121.47 444.95 116.95 442.28 114.66 C 437.78 110.68 430.86 110.73 426.85 106.04 C 423.05 101.89 424.29 94.88 428.68 91.65 Z" />
<path fill="#000000" stroke="#000000" stroke-width="0.09375" opacity="1.00" d=" M 509.78 90.28 C 515.64 89.81 521.54 89.93 527.42 89.85 C 527.53 90.13 527.75 90.70 527.86 90.98 C 526.48 91.33 525.12 91.73 523.78 92.17 C 523.28 93.55 524.25 94.86 524.74 96.09 C 527.00 100.42 529.60 104.58 531.93 108.88 C 534.65 103.27 538.57 98.16 539.84 91.94 C 538.25 91.71 536.68 91.49 535.11 91.28 C 535.13 90.91 535.16 90.16 535.18 89.78 C 540.12 89.92 545.06 89.91 550.00 89.80 L 550.00 90.73 C 547.71 91.64 545.00 92.20 543.57 94.41 C 540.55 98.61 538.33 103.31 535.70 107.76 C 532.35 112.96 534.11 119.40 533.69 125.19 C 534.02 125.64 534.70 126.52 535.04 126.96 C 537.00 127.32 538.96 127.69 540.91 128.17 C 534.20 128.98 527.42 128.47 520.68 128.52 C 522.87 127.78 525.14 127.27 527.22 126.24 C 527.87 122.51 527.67 118.70 527.60 114.94 C 527.66 111.56 525.43 108.82 523.89 106.01 C 521.45 102.09 519.44 97.92 516.86 94.10 C 515.30 91.70 512.14 91.47 509.78 90.28 Z" />
<path fill="#000000" stroke="#000000" stroke-width="0.09375" opacity="1.00" d=" M 283.47 89.68 C 289.06 90.43 294.69 90.11 300.30 89.82 C 300.49 90.14 300.88 90.77 301.07 91.08 C 299.26 91.43 297.41 91.58 295.58 91.81 C 294.87 98.85 295.39 105.93 295.24 112.98 C 295.38 117.41 294.84 121.90 295.56 126.29 C 297.05 127.39 299.01 127.24 300.76 127.56 C 300.77 127.86 300.79 128.46 300.81 128.77 C 294.69 128.30 288.56 128.85 282.46 128.39 C 284.41 127.63 286.73 127.62 288.44 126.40 C 290.13 117.36 288.38 108.11 289.04 98.99 C 288.99 96.67 289.49 93.91 288.05 91.93 C 286.52 91.45 284.90 91.36 283.33 91.12 L 283.47 89.68 Z" />
<path fill="#000000" stroke="#000000" stroke-width="0.09375" opacity="1.00" d=" M 346.36 89.96 C 356.52 90.37 366.72 89.99 376.88 90.35 C 378.16 94.57 377.52 99.55 377.60 104.04 C 375.27 100.72 375.43 95.20 370.92 93.84 C 366.92 92.86 362.72 92.68 358.62 92.84 C 358.46 93.08 358.13 93.55 357.97 93.78 C 357.80 98.35 357.52 103.00 358.17 107.54 C 361.06 107.67 364.09 107.84 366.89 106.94 C 369.64 106.08 368.74 102.24 371.02 100.84 C 371.32 106.36 371.28 111.92 370.96 117.44 C 369.95 115.59 369.26 113.59 368.28 111.73 C 365.23 109.68 361.24 110.59 357.77 110.34 C 357.87 115.42 358.16 120.51 357.76 125.58 C 362.97 126.09 368.68 127.03 373.51 124.45 C 377.00 122.29 376.98 117.62 379.53 114.69 C 379.42 119.54 378.43 124.31 377.50 129.06 C 368.35 128.70 359.18 128.80 350.03 129.05 C 348.73 128.99 347.47 128.72 346.25 128.25 C 348.08 127.40 350.86 127.90 352.08 126.02 C 352.72 120.73 352.21 115.38 352.36 110.06 C 352.22 104.34 352.69 98.60 352.12 92.90 C 350.65 91.30 348.13 91.19 346.36 89.96 Z" />
<path fill="#000000" stroke="#000000" stroke-width="0.09375" opacity="1.00" d=" M 452.29 89.92 C 458.38 89.98 464.47 90.50 470.54 89.68 L 470.48 91.31 C 468.79 91.42 467.11 91.54 465.43 91.67 C 464.18 98.39 464.99 105.24 464.78 112.02 C 464.89 117.05 464.24 122.18 465.61 127.09 C 467.52 127.26 469.44 127.44 471.36 127.73 C 469.51 129.11 467.13 128.57 465.01 128.61 C 460.73 128.44 456.44 128.78 452.16 128.42 C 454.22 127.68 456.46 127.41 458.38 126.32 C 458.97 116.57 458.40 106.77 458.65 97.00 C 458.43 95.41 459.04 93.42 457.89 92.13 C 455.99 91.46 453.84 91.36 452.29 89.92 Z" />
<path fill="#000000" stroke="#000000" stroke-width="0.09375" opacity="1.00" d=" M 474.76 90.16 C 485.72 90.25 496.67 90.19 507.63 90.19 C 508.20 94.67 508.77 99.18 508.65 103.72 C 506.15 100.29 505.89 94.65 500.94 93.63 C 498.72 93.40 495.39 91.66 493.85 93.70 C 493.55 103.12 493.86 112.56 493.71 121.98 C 493.87 123.60 493.37 125.86 495.01 126.88 C 496.88 127.43 498.89 127.63 500.64 128.58 C 494.12 128.85 487.54 128.96 481.03 128.48 C 483.17 127.71 485.43 127.34 487.54 126.49 C 488.11 115.20 487.81 103.83 487.66 92.52 C 484.04 93.17 479.77 93.21 477.16 96.23 C 475.37 98.52 474.66 101.46 472.82 103.73 C 473.06 99.16 473.98 94.66 474.76 90.16 Z" />
</svg>
