<?xml version="1.0" encoding="UTF-8"?><svg id="twixer_logo" xmlns="http://www.w3.org/2000/svg" viewBox="0 0 375 214"><polygon points="28 83 28 58 0 58 0 131.9 14 146 53 146 53 118 28 118 28 111 53 111 53 83 28 83" fill="#9146ff"/><polygon points="131 83 131 118 124 118 124 83 95 83 95 118 88 118 88 83 60 83 60 132 74.1 146 159 146 159 83 131 83" fill="#9146ff"/><path d="m216,115h-71.1c-5.5,0-9.9,5.4-9.9,12v68c0,6.6,4.5,12,9.9,12h212.2c5.5,0,10.9-5.4,10.9-12v-16" fill="none" stroke="#1fbaed" stroke-miterlimit="10" stroke-width="14"/><polygon points="172 81 180 81 180 146 172 146 172 81" fill="#9146ff"/><polygon points="172 54 180 54 180 70 172 70 172 54" fill="#9146ff"/><path id="Purple_Line" d="m241,147h69c6.6,0,12-5.4,12-12V19c0-6.6-5.4-12-12-12H20c-6.6,0-12,5.4-12,12v24" fill="none" stroke="#9146ff" stroke-miterlimit="10" stroke-width="14"/><path d="m179,146h6c1.1,0,2-.9,2-2v-55c0-4.2-3.4-7.7-7.7-7.7" fill="#fff"/><path d="m213.6,84.4c-2.7-3.6-7.9-4.2-11.3-1.1-2.9,2.7-3.2,7.3-.8,10.5l15.4,20.6-15.5,20.8c-2.4,3.2-2.2,7.8.8,10.5,3.4,3.1,8.6,2.5,11.3-1.1l21.6-29c.5-.7.5-1.7,0-2.4l-21.5-28.9Z" fill="#fff"/><path d="m248.2,114.5c2.7-3.6,7.9-4.2,11.3-1.1,2.9,2.7,3.2,7.3.8,10.5l-15.4,20.6,15.5,20.8c2.4,3.2,2.2,7.8-.8,10.5-3.4,3.1-8.6,2.5-11.3-1.1l-21.5-29c-.5-.7-.5-1.7,0-2.4l21.4-28.8Z" fill="#1fbaed"/><path d="m289.4,128.3c2.7-2.7,5.8-4,9.4-4s7,1.2,9.2,3.6c2.1,2.3,3.2,5.7,3.3,10.1h-26.8c.7-3.9,2.4-7.2,4.9-9.7m24.8,35.6c-.5-.6-1.3-.8-2-.6h0c-8,2.8-26.4,4.4-27.8-14.3h35.3c3.7,0,6.8-3,6.8-6.8,0-8.5-1.5-16.7-7.3-23-14.1-15.6-50.5-9.7-50.5,25.6s34.2,35.8,49.7,28.7c1.2-.5,1.5-2,.7-3l-5-6.6Z" fill="#1fbaed"/><path d="m372.8,112.8h0c-2.7-.7-7.1-.6-8.5-.3-5.5,1.6-9.5,5.4-11.9,11-.8-6.5-6.4-11.6-13.2-11.6h-2.1v62c0,1.1.9,2,2,2h11c1.1,0,2-.9,2-2v-30.3c0-12.5,7.1-21.3,19.3-16.9,1.3.5,2.7-.5,2.7-1.9v-10.4c0-.9-.6-1.7-1.4-2" fill="#1fbaed"/><path d="m179.7,70.7c4.5,0,8.2-3.7,8.2-8.2s-3.7-8.2-8.2-8.2" fill="#fff"/></svg>