<?xml version="1.0" encoding="UTF-8"?>
<svg id="Layer_2" data-name="Layer 2" xmlns="http://www.w3.org/2000/svg" xmlns:xlink="http://www.w3.org/1999/xlink" viewBox="0 0 375 192">
  <defs>
    <linearGradient id="linear-gradient" x1="172" y1="46.5" x2="186.83" y2="46.5" gradientUnits="userSpaceOnUse">
      <stop offset="0" stop-color="#9146ff"/>
      <stop offset=".5" stop-color="#9c5aff"/>
      <stop offset=".51" stop-color="#e3d8ff"/>
      <stop offset="1" stop-color="#f0f0ff"/>
    </linearGradient>
    <linearGradient id="linear-gradient-2" x1="171.99" y1="98" x2="186.83" y2="98" gradientUnits="userSpaceOnUse">
      <stop offset="0" stop-color="#9146ff"/>
      <stop offset=".49" stop-color="#a365ff"/>
      <stop offset=".51" stop-color="#e0d4ff"/>
      <stop offset="1" stop-color="#f0f0ff"/>
    </linearGradient>
  </defs>
  <g id="Layer_1-2" data-name="Layer 1">
    <polygon points="28 67.5 27.99 42.5 0 42.5 0 116.42 14 130.5 53 130.5 53 102.5 28 102.5 28 95.5 53 95.5 53 67.5 28 67.5" fill="#9146ff"/>
    <polygon points="131 67.5 131 102.5 124 102.5 124 67.5 95 67.5 95 102.5 88 102.5 88 67.5 60 67.5 60 116.5 74.14 130.5 159 130.5 159 67.5 131 67.5" fill="#9146ff"/>
    <path d="m216.79,99h-71.4c-5.44,0-9.89,5.4-9.89,12v63c0,6.6,4.45,11,9.89,11h211.72c5.44,0,10.89-4.4,10.89-11v-5.5" fill="none" stroke="#1fbaed" stroke-miterlimit="10" stroke-width="14"/>
    <path d="m172.01,38.5h6.69c4.49,0,8.13,3.64,8.13,8.13h0c0,4.35-3.52,7.87-7.87,7.87h-6.96s0-16,0-16Z" fill="url(#linear-gradient)"/>
    <path id="Purple_Line" data-name="Purple Line" d="m240,131h71.37c5.57,0,10.13-4.56,10.13-10.13V17.13c0-5.57-4.56-10.13-10.13-10.13H17.63c-5.57,0-10.13,4.56-10.13,10.13v15.33" fill="none" stroke="#9146ff" stroke-miterlimit="10" stroke-width="14"/>
    <path id="I-right" d="m179,130.5h5.99c1.11,0,2.01-.9,2.01-2.01v-54.97c0-4.25-3.41-7.66-7.66-7.66" fill="#fff"/>
    <path d="m171.99,65.5h6.84c4.42,0,8,3.58,8,8v55c0,1.1-.9,2-2,2h-12.83s0-65,0-65Z" fill="url(#linear-gradient-2)"/>
    <path id="X-left" d="m213.56,68.93c-2.66-3.6-7.89-4.16-11.3-1.07-2.94,2.71-3.18,7.29-.8,10.51l15.37,20.6-15.46,20.78c-2.38,3.22-2.2,7.8.8,10.51,3.41,3.08,8.64,2.52,11.3-1.07l21.58-29c.52-.7.52-1.68,0-2.38l-21.48-28.86Z" fill="#fff"/>
    <path id="X-right" d="m248.25,99.02c2.66-3.6,7.89-4.16,11.3-1.07,2.94,2.71,3.18,7.29.8,10.51l-15.37,20.6,15.46,20.78c2.38,3.22,2.2,7.8-.8,10.51-3.41,3.08-8.64,2.52-11.3-1.07l-21.53-29.05c-.52-.7-.52-1.68,0-2.38l21.43-28.82Z" fill="#1fbaed"/>
    <path id="E" d="m289.39,112.78c2.66-2.66,5.79-4.02,9.39-4.02,3.92,0,7,1.22,9.2,3.64,2.05,2.33,3.18,5.7,3.27,10.09h-26.76c.75-3.92,2.43-7.19,4.9-9.72m24.8,35.61c-.47-.61-1.26-.84-1.96-.61h0c-7.99,2.75-26.44,4.39-27.79-14.29h35.31c3.74,0,6.82-3.02,6.82-6.77,0-8.47-1.53-16.67-7.29-22.99-14.06-15.55-50.53-9.67-50.53,25.59s34.19,35.77,49.69,28.67c1.17-.52,1.5-2.01.75-2.99l-5-6.63Z" fill="#1fbaed"/>
    <path d="m372.76,97.34h0c-2.71-.75-7.1-.56-8.5-.28-5.47,1.63-9.48,5.37-11.91,11.02-.84-6.54-6.45-11.59-13.22-11.59h-2.13v61.99c0,1.11.9,2.01,2.01,2.01h10.99c1.11,0,2.01-.9,2.01-2.01v-30.26c0-12.52,7.14-21.3,19.26-16.86,1.32.47,2.74-.47,2.74-1.87v-10.44c.05-.88-.61-1.73-1.44-1.96" fill="#1fbaed"/>
  </g>
</svg>