<?xml version="1.0" encoding="utf-8"?>
<!-- Generator: Adobe Illustrator 27.4.0, SVG Export Plug-In . SVG Version: 6.00 Build 0)  -->
<svg version="1.1" id="Layer_2_00000059283337125690563120000008748561491192504230_"
	 xmlns="http://www.w3.org/2000/svg" xmlns:xlink="http://www.w3.org/1999/xlink" x="0px" y="0px" viewBox="0 0 276.1 278"
	 style="enable-background:new 0 0 276.1 278;" xml:space="preserve">
<style type="text/css">
	.st0{fill:#7FC29B;}
	.st1{fill:#2975A8;}
	.st2{fill:#BD2C44;}
</style>
<path class="st0" d="M44,46.6l227.4-0.5c-0.1,1.9,0,3.4-0.3,4.8c-2.8,15.7-5.6,31.4-8.4,47.1c-4.9,27.5-10,55-14.4,82.5
	c-4.2,26.4-27.8,47.3-54.4,47.3c-58.7,0-117.3,0-175.9,0h-5.7c2.8-15.6,5.5-30.6,8.2-45.7H27c50.5,0,101-0.2,151.4,0.1
	c14.9,0.1,26.4-12.2,28-23.6c1.7-12.2,4.3-24.2,6.4-36.3c1.8-10.1,3.4-20.1,5.3-30.8H36.4C39,76.3,44,46.6,44,46.6z"/>
<path class="st1" d="M270.4,41.5c4.8,0.6,6.3,2.8,5.5,7.5c-3.6,20.1-7.1,40.3-10.7,60.4c-4.2,23.8-9.3,47.4-12.5,71.3
	c-3.6,27.1-29.6,52.6-62.5,52.1c-40.8-0.6-81.7-0.1-122.5-0.1h-6.3c-2.2,12.2-4.3,24.2-6.3,36.1c-1.5,8.9-2,9.3-10.8,9.3
	c-12.2,0-24.3,0-36.5,0c-7.3,0-8.7-1.5-7.5-8.6c4.8-27.2,9.6-54.4,14.4-81.6c0.3-1.6,0.5-3.3,0.8-4.9c0.6-3.3,2.6-4.9,5.9-4.9h155
	c14.7,0,23.3-7.3,25.9-21.7c3.2-18.2,6.5-36.4,9.7-54.5c0.3-1.6,0.4-3.3,0.7-5.7H40.9c-8.2,0-9.6-1.9-8.2-9.9
	c2.3-12.6,7-39.5,7.2-40.3c0.3-1.1,0.7-2.2,1.5-2.9c0.4-0.4,1-0.7,1.5-0.8c0.2-0.1,7.8-0.2,8.8-0.2c1.9,0,180.7-0.5,214.2-0.5
	C267.4,41.4,268.9,41.3,270.4,41.5z M271.4,46.2L44,46.6c0,0-5,29.7-7.6,45h181.8c-1.8,10.7-3.5,20.8-5.3,30.8
	c-2.1,12.1-4.7,24.2-6.4,36.3c-1.6,11.4-13.1,23.7-28,23.6c-50.5-0.3-101-0.1-151.4-0.1h-6.7c-2.7,15.1-5.4,30.1-8.2,45.7h5.7
	c58.7,0,117.3,0,175.9,0c26.6,0,50.2-20.9,54.4-47.3c4.4-27.6,9.6-55,14.4-82.5c2.8-15.7,5.6-31.4,8.4-47.1
	C271.3,49.6,271.3,48.1,271.4,46.2z"/>
<path class="st2" d="M44.8,41.9c2.5-14,5-28,7.5-41.9c15,0,30,0,45,0c-1.5,9.9-3,19.9-4.5,29.8c-0.6,3.9-1.2,7.8-1.8,11.8
	c-0.2,1.4-0.5,2.7-0.9,4.6h181.3c-0.1,1.9,0,3.4-0.3,4.8c-2.8,15.7-5.6,31.4-8.4,47.1c-4.9,27.5-10,55-14.4,82.5
	c-4.2,26.4-27.8,47.3-54.4,47.3c-58.7,0-117.3,0-175.9,0c-1.8,0-3.6,0-5.8,0c2.8-15.6,5.5-30.6,8.2-45.7c2.7,0,4.7,0,6.7,0
	c50.5,0,101-0.2,151.4,0.1c14.9,0.1,26.4-12.2,28-23.6c1.7-12.2,4.3-24.2,6.4-36.3c1.8-10.1,3.4-20.1,5.3-30.8H36.4
	C39.2,74.7,42,58.3,44.8,41.9z"/>
</svg>
