<svg xmlns="http://www.w3.org/2000/svg" width="1280" height="720" viewBox="0 0 1280 720">
  <path fill="#FFFFFE" fill-rule="evenodd" d="M724.4205,449.867 C733.69669,449.867 742.555106,453.056969 749.661138,458.891956 L750.094,459.2525 L745.4185,466.6905 C739.6665,461.434 732.234,458.5425 724.4205,458.5425 C707.2485,458.5425 693.2795,472.514 693.2795,489.6805 C693.2795,506.853 707.2485,520.8255 724.4205,520.8255 C739.964985,520.8255 752.885252,509.376462 755.194771,494.474134 L755.2615,494.0215 L728.5925,494.0215 L734.0125,485.346 L764.235,485.346 L764.235,489.6805 C764.235,511.634 746.375,529.5 724.4205,529.5 C702.467,529.5 684.607,511.634 684.607,489.6805 C684.607,467.7325 702.467,449.867 724.4205,449.867 Z M303.8135,449.867 C314.676875,449.867 325.095456,454.385048 332.555251,462.141804 L332.932,462.539 L328.032,470.1085 C322.0855,462.7395 313.333,458.5425 303.8135,458.5425 C286.6425,458.5425 272.6725,472.514 272.6725,489.6805 C272.6725,506.853 286.6425,520.8255 303.8135,520.8255 C312.800598,520.8255 321.305394,516.964188 327.228968,510.218785 L327.5495,509.848 L334.1565,515.465 C326.572,524.3805 315.512,529.5 303.8135,529.5 C281.86,529.5 264,511.634 264,489.6805 C264,467.7325 281.86,449.867 303.8135,449.867 Z M380.164,450.3365 C400.161,450.3365 408.1355,459.733 408.1355,473.2815 C408.1355,484.631277 402.364042,492.664839 388.704186,495.376534 L388.251,495.464 L410.211,529.116 L399.7225,529.116 L378.9725,496.008 L363.995,496.008 L363.995,529.116 L355.4715,529.116 L355.4715,450.3365 L380.164,450.3365 Z M564.146,521.466 L564.146,529.116 L510.2725,529.116 L510.2725,521.466 L564.146,521.466 Z M438.437,450.3365 L460.072,486.2855 C460.836,487.5965 461.2735,489.016 461.492,489.893 C461.794714,488.978357 462.100446,487.782191 462.841551,486.478645 L463.0205,486.176 L484.545,450.3365 L493.833,450.3365 L444.9005,529.116 L436.3765,529.116 L456.627,496.254 L429.04,450.3365 L438.437,450.3365 Z M986.72,521.466 L986.72,529.116 L932.85,529.116 L932.85,521.466 L986.72,521.466 Z M843.985,450.3365 L891.295,515.568 C890.8825,513.722062 890.667754,513.032326 890.642522,511.604061 L890.64,511.308 L890.64,450.3365 L899.16,450.3365 L899.16,529.116 L891.075,529.116 L843.655,463.6675 C843.965588,464.696206 844.373616,466.111126 844.420544,468.097761 L844.425,468.477 L844.425,529.116 L835.9,529.116 L835.9,450.3365 L843.985,450.3365 Z M801.415,450.3365 L801.415,529.116 L792.895,529.116 L792.895,450.3365 L801.415,450.3365 Z M601.294,450.3365 L648.604,515.568 C648.193844,513.722062 647.977047,513.032326 647.951549,511.604061 L647.949,511.308 L647.949,450.3365 L656.4725,450.3365 L656.4725,529.116 L648.387,529.116 L600.968,463.6675 C601.274824,464.696206 601.680858,466.111126 601.727565,468.097761 L601.732,468.477 L601.732,529.116 L593.209,529.116 L593.209,450.3365 L601.294,450.3365 Z M986.72,483.6625 L986.72,491.421 L932.85,491.421 L932.85,483.6625 L986.72,483.6625 Z M564.146,483.6625 L564.146,491.421 L510.2725,491.421 L510.2725,483.6625 L564.146,483.6625 Z M380.274,457.9865 L363.995,457.9865 L363.995,488.249 L380.164,488.249 C392.1845,488.249 399.3955,484.756 399.3955,473.2815 C399.3955,461.812 392.1845,457.9865 380.274,457.9865 Z M1005.85,440.236 C1010.905,440.236 1015.01,444.3185 1015.01,449.375 C1015.01,454.431 1010.905,458.5135 1005.85,458.5135 C1000.795,458.5135 996.69,454.431 996.69,449.375 C996.69,444.3185 1000.795,440.236 1005.85,440.236 Z M986.72,450.3365 L986.72,457.9865 L932.85,457.9865 L932.85,450.3365 L986.72,450.3365 Z M564.146,450.3365 L564.146,457.9865 L518.154,457.9865 L522.884,450.3365 L564.146,450.3365 Z M1005.85,441.7875 C1001.645,441.7875 998.265,445.1715 998.265,449.375 C998.265,453.5775 1001.645,456.962 1005.85,456.962 C1010.05,456.962 1013.44,453.5775 1013.44,449.375 C1013.44,445.1715 1010.05,441.7875 1005.85,441.7875 Z M1005.91,444.628 C1008.265,444.628 1009.3,445.8015 1009.3,447.485 C1009.3,448.723095 1008.72857,449.685907 1007.46478,450.125946 L1007.27,450.188 L1009.765,454.0415 L1007.94,454.0415 L1005.85,450.795 C1005.802,450.7306 1005.754,450.57468 1005.73672,450.441928 L1005.73,450.3485 L1003.9,450.3485 L1003.9,454.0415 L1002.4,454.0415 L1002.4,444.628 L1005.91,444.628 Z M1005.93,446.0475 L1003.9,446.0475 L1003.9,448.8875 L1005.91,448.8875 C1007.19,448.8875 1007.78,448.5445 1007.78,447.485 C1007.78,446.4715 1007.19,446.0475 1005.93,446.0475 Z M605.365417,190.923953 L608.12,190.7095 C534.2805,207.8995 490.438,263.689 490.438,270.932 L490.438601,270.947818 C490.44331,270.977407 490.474503,270.660629 490.489688,272.079899 L490.4915,272.2665 L490.51,272.2665 C492.006,280.1975 513.8235,318.419 598.2005,341.128 C501.505715,333.447085 457.586865,286.441618 455.424749,272.673468 L455.372,272.2665 L455.3365,272.2665 C455.327875,270.817911 455.314864,271.103753 455.310492,271.188847 L455.309,271.196 L455.327174,270.777642 C456.51356,256.658095 515.692577,198.449874 605.365417,190.923953 L608.12,190.7095 Z M636.0545,190.326 C736.48,195.5595 794.9,255.2715 795.41565,271.9805 L795.413,271.951 C795.405335,271.896354 795.391713,271.945714 795.381644,272.968817 L795.38,273.1485 L795.34,273.1485 C794.565,281.52 762.6485,315.63 714.881,331.3365 C656.5265,350.519 562.616,343.534 562.616,270.377 C562.616,236.0435 590.592,208.111 624.936,208.111 C659.6105,208.111 687.4365,236.1865 687.4365,270.5255 C687.4365,287.2575 680.2125,303.468 669.2675,314.926 C679.5085,314.7485 716.7225,312.011 751.823,283.1065 C755.691,279.3265 758.1795,276.16 759.2215,274.2135 C759.4875,273.698 759.9,272.8165 759.8405,271.9515 C759.8405,264.5135 719.508,206.806 636.0545,190.326 Z M624.895,235.007 C605.344,235.007 589.5015,250.8455 589.5015,270.394 C589.5015,289.937 605.344,305.781 624.895,305.781 C644.4365,305.781 660.283,289.937 660.283,270.394 C660.283,250.8455 644.4365,235.007 624.895,235.007 Z M795.415,271.984 C795.416253,271.99607 795.416179,271.994322 795.415832,271.988523 L795.415,271.984 Z"/>
</svg>
