<?xml version="1.0" encoding="UTF-8"?>
<svg id="Layer_2" data-name="Layer 2" xmlns="http://www.w3.org/2000/svg" viewBox="0 0 135 40">
  <g id="artwork">
    <g>
      <rect width="135" height="40" rx="5" ry="5"/>
      <path d="m130,.8c2.32,0,4.2,1.88,4.2,4.2v30c0,2.32-1.88,4.2-4.2,4.2H5c-2.32,0-4.2-1.88-4.2-4.2V5C.8,2.68,2.68.8,5,.8h125M130,0H5C2.25,0,0,2.25,0,5v30c0,2.75,2.25,5,5,5h125c2.75,0,5-2.25,5-5V5C135,2.25,132.75,0,130,0h0Z" fill="#a6a6a6"/>
      <g>
        <path d="m35.79,12.03h.51v.04c-.07.36.01.64.25.85s.57.31,1.01.31.82-.14,1.13-.41.52-.66.61-1.16c.08-.47.01-.83-.21-1.08-.22-.25-.56-.37-.99-.37-.25,0-.5.06-.77.17-.26.12-.49.26-.68.44l-.39-.2.84-3.02h3.13l-.09.48h-2.7l-.63,2.22c.16-.14.37-.26.65-.38s.55-.17.81-.17c.54,0,.96.17,1.26.5.3.33.4.8.29,1.4-.11.63-.38,1.12-.82,1.48s-.94.54-1.52.54-1.03-.15-1.35-.44-.43-.68-.35-1.17v-.05Z" fill="#fff" stroke="#fff" stroke-miterlimit="10" stroke-width=".2"/>
        <path d="m41.21,9.61c.11-.66.37-1.17.77-1.55s.9-.56,1.5-.56,1.03.19,1.29.56c.27.38.34.89.23,1.55l-.35,1.98c-.12.66-.38,1.18-.78,1.55-.4.37-.9.56-1.49.56s-1.03-.19-1.3-.56c-.27-.37-.34-.89-.22-1.55l.35-1.98Zm.31,3.19c.18.3.49.44.94.44s.82-.15,1.1-.44c.28-.3.47-.69.55-1.18l.36-2.03c.08-.49.04-.88-.14-1.18-.18-.3-.49-.45-.94-.45s-.82.15-1.1.45c-.28.3-.46.7-.55,1.18l-.36,2.03c-.08.49-.04.88.14,1.18Z" fill="#fff" stroke="#fff" stroke-miterlimit="10" stroke-width=".2"/>
        <path d="m46.11,9.61c.11-.66.37-1.17.77-1.55s.9-.56,1.5-.56,1.03.19,1.29.56c.27.38.34.89.23,1.55l-.35,1.98c-.12.66-.38,1.18-.78,1.55-.4.37-.9.56-1.49.56s-1.03-.19-1.3-.56c-.27-.37-.34-.89-.22-1.55l.35-1.98Zm.31,3.19c.18.3.49.44.94.44s.82-.15,1.1-.44c.28-.3.47-.69.55-1.18l.36-2.03c.08-.49.04-.88-.14-1.18-.18-.3-.49-.45-.94-.45s-.82.15-1.1.45c-.28.3-.46.7-.55,1.18l-.36,2.03c-.08.49-.04.88.14,1.18Z" fill="#fff" stroke="#fff" stroke-miterlimit="10" stroke-width=".2"/>
        <path d="m50.57,13.86c.08-.15.13-.33.17-.53l.09-.51h.54l-.09.51c-.04.25-.13.47-.26.67-.13.2-.28.37-.46.53l-.29-.22c.12-.15.22-.29.3-.44Z" fill="#fff" stroke="#fff" stroke-miterlimit="10" stroke-width=".2"/>
        <path d="m53.34,9.61c.11-.66.37-1.17.77-1.55s.9-.56,1.5-.56,1.03.19,1.29.56c.27.38.34.89.23,1.55l-.35,1.98c-.12.66-.38,1.18-.78,1.55-.4.37-.9.56-1.49.56s-1.03-.19-1.3-.56c-.27-.37-.34-.89-.22-1.55l.35-1.98Zm.31,3.19c.18.3.49.44.94.44s.82-.15,1.1-.44c.28-.3.47-.69.55-1.18l.36-2.03c.08-.49.04-.88-.14-1.18-.18-.3-.49-.45-.94-.45s-.82.15-1.1.45c-.28.3-.46.7-.55,1.18l-.36,2.03c-.08.49-.04.88.14,1.18Z" fill="#fff" stroke="#fff" stroke-miterlimit="10" stroke-width=".2"/>
        <path d="m58.24,9.61c.11-.66.37-1.17.77-1.55s.9-.56,1.5-.56,1.03.19,1.29.56c.27.38.34.89.23,1.55l-.35,1.98c-.12.66-.38,1.18-.78,1.55-.4.37-.9.56-1.49.56s-1.03-.19-1.3-.56c-.27-.37-.34-.89-.22-1.55l.35-1.98Zm.31,3.19c.18.3.49.44.94.44s.82-.15,1.1-.44c.28-.3.47-.69.55-1.18l.36-2.03c.08-.49.04-.88-.14-1.18-.18-.3-.49-.45-.94-.45s-.82.15-1.1.45c-.28.3-.46.7-.55,1.18l-.36,2.03c-.08.49-.04.88.14,1.18Z" fill="#fff" stroke="#fff" stroke-miterlimit="10" stroke-width=".2"/>
        <path d="m63.14,9.61c.11-.66.37-1.17.77-1.55s.9-.56,1.5-.56,1.03.19,1.29.56c.27.38.34.89.23,1.55l-.35,1.98c-.12.66-.38,1.18-.78,1.55-.4.37-.9.56-1.49.56s-1.03-.19-1.3-.56c-.27-.37-.34-.89-.22-1.55l.35-1.98Zm.31,3.19c.18.3.49.44.94.44s.82-.15,1.1-.44c.28-.3.47-.69.55-1.18l.36-2.03c.08-.49.04-.88-.14-1.18-.18-.3-.49-.45-.94-.45s-.82.15-1.1.45c-.28.3-.46.7-.55,1.18l-.36,2.03c-.08.49-.04.88.14,1.18Z" fill="#fff" stroke="#fff" stroke-miterlimit="10" stroke-width=".2"/>
        <path d="m70.85,7.61h.52l-1.05,5.96h-.52l1.05-5.96Z" fill="#fff" stroke="#fff" stroke-miterlimit="10" stroke-width=".2"/>
        <path d="m72.59,9.27h.47l-.09.63h.01c.21-.23.45-.4.72-.53s.56-.19.87-.19c.43,0,.76.12.97.36.21.24.27.64.17,1.21l-.5,2.81h-.51l.5-2.82c.07-.4.03-.68-.13-.85-.15-.17-.4-.26-.75-.26-.29,0-.55.08-.8.23s-.45.34-.62.57l-.55,3.14h-.51l.76-4.3Z" fill="#fff" stroke="#fff" stroke-miterlimit="10" stroke-width=".2"/>
        <path d="m77.02,12.3v.02c-.06.31.01.55.21.7.19.15.47.23.84.23s.66-.08.9-.23c.23-.15.37-.35.41-.59.04-.24,0-.42-.16-.53-.15-.11-.46-.22-.93-.33-.47-.11-.81-.26-1.03-.46-.22-.2-.3-.46-.24-.79.06-.34.25-.63.58-.85.32-.22.72-.33,1.2-.33s.84.12,1.09.36c.25.24.34.55.27.92v.02h-.51v-.02c.05-.25,0-.45-.16-.61-.16-.16-.41-.23-.76-.23s-.63.06-.83.19-.32.29-.35.51c-.04.2.02.37.16.49.15.12.46.24.92.35.47.11.81.26,1.03.45.22.19.3.47.23.83-.06.37-.26.68-.58.92s-.76.37-1.32.37-.97-.12-1.22-.37c-.25-.25-.34-.58-.26-1v-.02h.52Z" fill="#fff" stroke="#fff" stroke-miterlimit="10" stroke-width=".2"/>
        <path d="m80.93,9.27h2.5l-.07.42h-2.5l.07-.42Zm.86.25l.02-.08.21-1.23h.51l-.76,4.3c-.05.26-.03.45.04.57.07.11.21.17.41.17.08,0,.16,0,.24-.02.08-.02.16-.04.24-.06l-.08.44c-.07.03-.16.05-.27.07s-.22.03-.35.03c-.29,0-.51-.1-.65-.29-.14-.19-.17-.49-.1-.91l.53-2.98Z" fill="#fff" stroke="#fff" stroke-miterlimit="10" stroke-width=".2"/>
        <path d="m84.34,11.36c.38-.23.84-.35,1.37-.35h1.14l.07-.38c.05-.31.02-.57-.1-.76-.12-.19-.39-.29-.79-.29s-.7.08-.9.25c-.2.17-.32.37-.36.6v.02h-.51v-.02c.07-.36.27-.66.61-.91.34-.25.76-.37,1.26-.37s.86.12,1.09.37c.23.25.3.62.21,1.11l-.35,1.96c-.03.18-.04.34-.04.5,0,.16.02.3.05.42v.07h-.5c-.03-.07-.05-.17-.07-.29s-.01-.24,0-.36c-.15.18-.36.34-.64.5-.28.15-.61.23-1.01.23-.41,0-.74-.11-.98-.32-.24-.21-.33-.54-.25-.98.08-.43.31-.76.69-1Zm-.03,1.64c.15.15.41.22.78.22s.7-.11,1.02-.35c.32-.23.5-.48.54-.74l.13-.74h-1.05c-.46,0-.82.08-1.09.25-.27.17-.43.39-.48.69s0,.51.15.66Z" fill="#fff" stroke="#fff" stroke-miterlimit="10" stroke-width=".2"/>
        <path d="m89.45,7.29h.51l-1.11,6.28h-.51l1.11-6.28Z" fill="#fff" stroke="#fff" stroke-miterlimit="10" stroke-width=".2"/>
        <path d="m91.43,7.29h.51l-1.11,6.28h-.51l1.11-6.28Z" fill="#fff" stroke="#fff" stroke-miterlimit="10" stroke-width=".2"/>
        <path d="m92.71,12.3v.02c-.06.31.01.55.21.7.19.15.47.23.84.23s.66-.08.9-.23c.23-.15.37-.35.41-.59.04-.24,0-.42-.16-.53-.15-.11-.46-.22-.93-.33-.47-.11-.81-.26-1.03-.46-.22-.2-.3-.46-.24-.79.06-.34.25-.63.58-.85.32-.22.72-.33,1.2-.33s.84.12,1.09.36c.25.24.34.55.27.92v.02h-.51v-.02c.05-.25,0-.45-.16-.61-.16-.16-.41-.23-.76-.23s-.63.06-.83.19-.32.29-.35.51c-.04.2.02.37.16.49.15.12.46.24.92.35.47.11.81.26,1.03.45.22.19.3.47.23.83-.06.37-.26.68-.58.92s-.76.37-1.32.37-.97-.12-1.22-.37c-.25-.25-.34-.58-.26-1v-.02h.52Z" fill="#fff" stroke="#fff" stroke-miterlimit="10" stroke-width=".2"/>
        <path d="m98.82,11.35c.11-.65.39-1.18.83-1.59.44-.41.96-.62,1.58-.62s1.06.21,1.36.62c.29.41.38.94.27,1.59l-.03.13c-.11.65-.39,1.18-.83,1.59s-.96.62-1.58.62-1.07-.21-1.36-.62c-.29-.41-.38-.94-.27-1.59l.02-.13Zm.5.13c-.09.51-.04.93.16,1.26.2.33.54.5,1.03.5s.89-.17,1.2-.5c.31-.33.51-.75.6-1.26l.02-.13c.09-.51.03-.93-.16-1.26-.19-.33-.54-.5-1.03-.5s-.9.17-1.21.5-.51.75-.6,1.26l-.02.13Z" fill="#fff" stroke="#fff" stroke-miterlimit="10" stroke-width=".2"/>
        <path d="m104.37,9.27h.47l-.09.63h.01c.21-.23.45-.4.72-.53s.56-.19.87-.19c.43,0,.76.12.97.36.21.24.27.64.17,1.21l-.5,2.81h-.51l.5-2.82c.07-.4.03-.68-.13-.85-.15-.17-.4-.26-.75-.26-.29,0-.55.08-.8.23s-.45.34-.62.57l-.55,3.14h-.51l.76-4.3Z" fill="#fff" stroke="#fff" stroke-miterlimit="10" stroke-width=".2"/>
      </g>
      <path d="m68.14,21.75c-2.35,0-4.27,1.79-4.27,4.25s1.92,4.25,4.27,4.25,4.27-1.8,4.27-4.25-1.92-4.25-4.27-4.25Zm0,6.83c-1.29,0-2.4-1.06-2.4-2.58s1.11-2.58,2.4-2.58,2.4,1.05,2.4,2.58-1.11,2.58-2.4,2.58Zm-9.31-6.83c-2.35,0-4.27,1.79-4.27,4.25s1.92,4.25,4.27,4.25,4.27-1.8,4.27-4.25-1.92-4.25-4.27-4.25Zm0,6.83c-1.29,0-2.4-1.06-2.4-2.58s1.11-2.58,2.4-2.58,2.4,1.05,2.4,2.58-1.11,2.58-2.4,2.58Zm-11.08-5.53v1.8h4.32c-.13,1.01-.47,1.76-.98,2.27-.63.63-1.61,1.32-3.33,1.32-2.66,0-4.74-2.14-4.74-4.8s2.08-4.8,4.74-4.8c1.43,0,2.48.56,3.25,1.29l1.27-1.27c-1.08-1.03-2.51-1.82-4.53-1.82-3.64,0-6.7,2.96-6.7,6.61s3.06,6.61,6.7,6.61c1.97,0,3.45-.64,4.61-1.85,1.19-1.19,1.56-2.87,1.56-4.22,0-.42-.03-.81-.1-1.13h-6.07Zm45.31,1.4c-.35-.95-1.43-2.71-3.64-2.71s-4.01,1.72-4.01,4.25c0,2.38,1.8,4.25,4.22,4.25,1.95,0,3.08-1.19,3.54-1.88l-1.45-.97c-.48.71-1.14,1.18-2.09,1.18s-1.63-.43-2.06-1.29l5.69-2.35-.19-.48Zm-5.8,1.42c-.05-1.64,1.27-2.48,2.22-2.48.74,0,1.37.37,1.58.9l-3.8,1.58Zm-4.62,4.12h1.87v-12.5h-1.87v12.5Zm-3.06-7.3h-.06c-.42-.5-1.22-.95-2.24-.95-2.13,0-4.08,1.87-4.08,4.27s1.95,4.24,4.08,4.24c1.01,0,1.82-.45,2.24-.97h.06v.61c0,1.63-.87,2.5-2.27,2.5-1.14,0-1.85-.82-2.14-1.51l-1.63.68c.47,1.13,1.71,2.51,3.77,2.51,2.19,0,4.04-1.29,4.04-4.43v-7.64h-1.77v.69Zm-2.14,5.88c-1.29,0-2.37-1.08-2.37-2.56s1.08-2.59,2.37-2.59,2.27,1.1,2.27,2.59-1,2.56-2.27,2.56Zm24.38-11.08h-4.47v12.5h1.87v-4.74h2.61c2.07,0,4.1-1.5,4.1-3.88s-2.03-3.88-4.1-3.88Zm.05,6.03h-2.65v-4.29h2.65c1.4,0,2.19,1.16,2.19,2.14s-.79,2.14-2.19,2.14Zm11.53-1.8c-1.35,0-2.75.6-3.33,1.91l1.66.69c.35-.69,1.01-.92,1.7-.92.96,0,1.95.58,1.96,1.61v.13c-.34-.19-1.06-.48-1.95-.48-1.79,0-3.6.98-3.6,2.81,0,1.67,1.46,2.75,3.1,2.75,1.25,0,1.95-.56,2.38-1.22h.06v.96h1.8v-4.79c0-2.22-1.66-3.46-3.8-3.46Zm-.23,6.85c-.61,0-1.46-.31-1.46-1.06,0-.96,1.06-1.33,1.98-1.33.82,0,1.21.18,1.7.42-.14,1.16-1.14,1.98-2.22,1.98Zm10.58-6.58l-2.14,5.42h-.06l-2.22-5.42h-2.01l3.33,7.58-1.9,4.21h1.95l5.13-11.79h-2.07Zm-16.81,8h1.87v-12.5h-1.87v12.5Z" fill="#fff"/>
      <g>
        <path d="m20.72,19.42l-10.65,11.3s0,0,0,0c.33,1.23,1.45,2.13,2.78,2.13.53,0,1.03-.14,1.46-.4l.03-.02,11.98-6.91-5.61-6.11Z" fill="#ea4335"/>
        <path d="m31.49,17.5h-.01s-5.17-3.01-5.17-3.01l-5.83,5.19,5.85,5.85,5.15-2.97c.9-.49,1.51-1.44,1.51-2.53s-.6-2.04-1.5-2.52Z" fill="#fbbc04"/>
        <path d="m10.07,9.28c-.06.24-.1.48-.1.74v19.97c0,.26.03.5.1.74l11.01-11.01-11.01-10.44Z" fill="#4285f4"/>
        <path d="m20.8,20l5.51-5.51-11.97-6.94c-.43-.26-.94-.41-1.49-.41-1.33,0-2.45.91-2.78,2.13,0,0,0,0,0,0l10.73,10.72Z" fill="#34a853"/>
      </g>
    </g>
  </g>
</svg>