<?xml version="1.0" encoding="UTF-8"?>
<svg id="Layer_2" data-name="Layer 2" xmlns="http://www.w3.org/2000/svg" viewBox="0 0 351.74 404.41">
  <g id="Layer_1-2" data-name="Layer 1">
    <g>
      <g>
        <path d="m190.85,36.26c7.62-1.49,14.67-4.68,21.37-8.53,1.64,17.52-.07,35.35.75,52.96,10.76-18.04,39.33-14.27,43.19,6.94,6.98,29.2-24.49,54.53-49.75,35.3-2.56,2.33-4.29,5.41-6.97,7.61-1.49-27.15.28-55.21-.4-82.66.46-12.28-12-6.15-8.19-11.62Zm29.98,42.04c-13.33,4.2-6.46,22.81-7.99,33.52.9,11.7,17.4,18.6,26.12,10.35,13.53-13.71,4.39-49.08-18.13-43.87Z" fill="#fff"/>
        <path d="m19.43,33.42c21.77,3.87,47.28-8.42,66.33,6.05,13.25,9.72,10.72,31.99-4.45,38.38-.95.66-2.82.91-2.44,2.48,5.06,9.25,10.39,18.37,15.52,27.59,4.08,8.24,9.46,13.46,19.19,11.46-.14,1.38-.24,3.06-1.66,3.79-9.49,7.12-22.89,5.88-29.05-4.85-6.01-8.39-10.48-17.73-15.17-26.88-3.02-9.04-12.35-9.67-20.46-8.03-.56,11.45-1.69,23.69,1.81,34.75,1.88,4.32,6.87,5.27,11.01,5.95,2.13.12,1.87,4.16-.37,3.81-5.39-.22-10.77-.77-16.17-.58-3.7-1.24-24.58,4.56-22.21-1.53,5.58-2.6,10.13-5.02,9.52-12.13.12-18.96.04-37.93.07-56.9,1.81-24.48-15.12-14.95-15.89-22.03-.16-2.39,3.04-1.11,4.42-1.33Zm30.48,4.98c-5.87,2.96-2.31,28.53-2.88,35.73-1.05,5.47,21.56,3.28,24.64,1.8,19.31-13.27-.98-45.23-21.76-37.53Z" fill="#fff"/>
        <path d="m128.62,68.57c3.18-.35,6.21-1.61,9.45-1.65,1.14,12.78-5.86,46.38,5.78,53.38,16.5,5.59,20.22-8.15,18.81-21.57-.32-8.09.78-16.31-.87-24.29-2.58-1.94-7.03-.62-8.61-3.63l1.06-1.47c7.43-.89,15.04-.56,22.37-2.44.01,15.95-.03,31.9.02,47.85-.46,7.14,2.55,7.99,8.93,7.75,2.25-.62,2.57,3.18.64,3.58-7.79.7-15.61.83-23.34,2.42-.26-3-.12-6.02-.18-9.04-2.04.53-3.27,2.29-4.7,3.67-7.41,7.91-21.19,8.47-29.4,1.57-11.51-13.36-3.61-33.04-5.81-48.98-1.1-3.49-5.33-2.19-7.95-3.26-1.54-5.97,10.36-2.6,13.8-3.89Z" fill="#fff"/>
      </g>
      <path d="m16.85.13C122.07-.11,227.32.11,332.56.02c10.18-.5,19.36,8.54,19.17,18.7,0,122.32.03,244.63-.01,366.95.25,9.79-8.26,18.94-18.18,18.72-105.03.02-210.06.02-315.09.01-9.97.35-18.64-8.79-18.43-18.63C0,263.47,0,141.18.01,18.88-.19,9.53,7.47.84,16.85.13ZM6.77,10.79c2.18,62.51,4.27,126.79,10.02,188.57-.24.2-.73.6-.97.8-.01,3.35.17,6.71.4,10.06l-.1.08c3.43,53.36,4.52,106.9,8.87,160.2-2.71,8.73,6.92,10.91,13.58,10.32,6.69.08,13.35.97,20.04.64,6.51,1.96,14.29,1.51,21.16,1.14,19.11,3.09,39.46,2.52,58.9,4l.53-.48c7.88,1.63,16.01,1.49,24.01,2.12.11-.35.34-1.05.45-1.4,1.39,1.9,3.89,1.39,5.93,1.67,14.62-.05,29.29,2.9,43.83,1.85l.07.6c41.3,2.67,82.68,4.86,124,7.37,13.55.54,7.42-17.35,7.84-25.69-.1-6.4-.7-12.77-.72-19.16h-.39c-4.7-106.59-11.02-213.23-15.81-319.81.13-4.24-1.87-9.72-6.7-10.24C219.68,17.44,117.58,11.58,15.52,5.63c-3.72-.61-7.85,1.27-8.74,5.16Z" fill="#7b0100"/>
      <g>
        <path d="m6.77,10.79c.89-3.89,5.02-5.77,8.74-5.16,102.07,5.95,204.17,11.81,306.2,17.8,4.83.52,6.83,6,6.7,10.24,2.23,57.08,6.27,114.13,8.23,171.25-1.19-4.12-5.86-2.99-9.12-3.11-26.15.38-52.35-.44-78.45.38-.31,2.9-.66,5.8-1.12,8.69-.45-4.09-.61-8.21-.84-12.31-.86,3.24-1.76,6.49-2.43,9.78-4.11-66.42-59.39-57.06-108.67-56.76-.76-2.55-1.47-5.11-2.26-7.65.26,2.56.59,5.12.97,7.66-12.33.66-25.15-1-37.23,1.11-19.12,9.4-39.15,17.4-57.97,27.15-7.61,6.46-15.07,13.09-22.73,19.5C11.05,137.57,8.95,73.3,6.77,10.79Zm184.08,25.47c-3.83,5.44,8.66-.63,8.19,11.62.68,27.45-1.09,55.51.4,82.66,2.68-2.2,4.41-5.28,6.97-7.61,25.27,19.22,56.73-6.1,49.75-35.3-3.86-21.21-32.43-24.98-43.19-6.94-.82-17.61.89-35.44-.75-52.96-6.7,3.85-13.75,7.04-21.37,8.53Zm-171.42-2.84c-1.38.22-4.58-1.06-4.42,1.33.64,7.01,17.72-2.44,15.89,22.03-.03,18.97.05,37.94-.07,56.9.62,7.07-3.96,9.56-9.52,12.13-2.41,6.11,18.54.28,22.21,1.53,5.4-.19,10.78.36,16.17.58,2.24.35,2.5-3.69.37-3.81-4.14-.68-9.13-1.63-11.01-5.95-3.5-11.06-2.37-23.3-1.81-34.75,8.13-1.62,17.42-1.03,20.46,8.03,4.69,9.15,9.16,18.49,15.17,26.88,6.15,10.72,19.57,11.98,29.05,4.85,1.42-.73,1.52-2.41,1.66-3.79-9.78,1.96-15.07-3.16-19.19-11.46-5.13-9.22-10.46-18.34-15.52-27.59-.38-1.57,1.49-1.82,2.44-2.48,15.17-6.38,17.7-28.67,4.45-38.38-19.06-14.47-44.54-2.17-66.33-6.05Zm109.19,35.15c-3.43,1.29-15.34-2.08-13.8,3.89,2.62,1.07,6.85-.23,7.95,3.26,2.2,15.93-5.7,35.62,5.81,48.98,8.21,6.9,21.99,6.34,29.4-1.57,1.43-1.38,2.66-3.14,4.7-3.67.06,3.02-.08,6.04.18,9.04,7.73-1.59,15.55-1.72,23.34-2.42,1.93-.4,1.61-4.2-.64-3.58-6.4.24-9.39-.62-8.93-7.75-.05-15.95-.01-31.9-.02-47.85-7.33,1.88-14.94,1.55-22.37,2.44l-1.06,1.47c1.58,3.01,6.03,1.69,8.61,3.63,1.65,7.98.55,16.2.87,24.29,1.41,13.41-2.32,27.17-18.81,21.57-11.64-6.98-4.64-40.58-5.78-53.38-3.24.04-6.27,1.3-9.45,1.65Zm130.31,3.03c.72,2.8,4.87,2.79,5.95,5.62,8.09,15.58,15.9,31.32,23.91,46.94,6.4,10.1-6.99,17.97-10.01,26.65,3.11-.25,8.19,1.97,9.55-2.11,8.08-14.63,23.77-72.56,35.43-75.9.05-.62.16-1.86.21-2.48-7.88.74-15.76.02-23.63-.13-.31,2.69,2.32,2.8,4.13,3.61,11.73,4.25-2.45,29.13-5.99,36.74-6.41-9.95-12.38-20.84-16.59-31.89-.52-6.61,9.02-2.37,7.43-8.02-9.52-.25-19.36,1.12-29-.25-.35.3-1.05.92-1.39,1.22Z" fill="#a40c01"/>
        <path d="m49.91,38.4c20.78-7.7,41.07,24.26,21.76,37.53-3.05,1.48-25.68,3.66-24.64-1.8.59-7.31-3.01-32.61,2.88-35.73Z" fill="#a40c01"/>
        <path d="m220.84,78.3c22.52-5.21,31.65,30.15,18.13,43.87-8.72,8.25-25.23,1.35-26.12-10.35,1.53-10.72-5.34-29.3,7.99-33.52Z" fill="#a40c01"/>
      </g>
      <path d="m258.93,71.6c.34-.3,1.04-.92,1.39-1.22,9.64,1.37,19.48,0,29,.25,1.59,5.64-7.96,1.42-7.43,8.02,4.21,11.05,10.18,21.94,16.59,31.89,3.53-7.58,17.73-32.47,5.99-36.74-1.81-.81-4.44-.92-4.13-3.61,7.87.15,15.75.87,23.63.13-.05.62-.16,1.86-.21,2.48-11.65,3.32-27.38,61.33-35.43,75.9-1.36,4.08-6.44,1.86-9.55,2.11,3.02-8.67,16.42-16.55,10.01-26.65-8.01-15.62-15.82-31.36-23.91-46.94-1.08-2.83-5.23-2.82-5.95-5.62Z" fill="#fdfefe"/>
      <path d="m133.76,143.94c.79,2.54,1.5,5.1,2.26,7.65,19.48.04,38.96-.38,58.44-.2,50.54,5.05,55.97,57.71,47.92,98.3-6.21,47.21-12.13,94.57-16.38,142-1.8-.08-3.59-.14-5.37-.19,2.94-43.48,6.97-86.92,9.85-130.41-6.76,17.41-16.3,33.55-26.19,49.33,4.17,26.92,7.95,53.9,11.95,80.86-.92-.12-1.83-.22-2.74-.32-3.63-25.87-7.54-51.7-11.35-77.54-14.34,21.67-30.47,42.13-48.05,61.25,5.09,4.7,10.33,9.23,15.5,13.84-7.72.27-11.55-8.49-17.78-12.02-5.46,1.13-8.69,6.98-13.14,10.11l-3.8-.24c4.54-3.69,8.76-7.76,13.1-11.69-36.59-11.76-73.17-23.51-109.77-35.24,7.35,14.26,14.82,28.47,22.13,42.76-9.91-11.38-14.65-28.72-23.35-41.77-3.85,12.28-7.23,24.71-11.32,36.91-3.18-9.69,6.53-22.36,6.84-32.89-2.86.36-5.7.78-8.53,1.26-.2,1.54-.39,3.08-.59,4.62-.16-5.48-.8-10.96-.64-16.45,46.73-26.25,103.91-80.48,109.6-136.23-13.47,2.06-26.83,5.09-40.19,7.62,12.86-5.22,26.89-8.9,40.04-13.9-.2-5.55-3.9-9.07-7.86-12.45,1.53.55,3.07,1.1,4.62,1.64-23.45-36.17-90.19,9.32-112.73,29.67-.23-3.35-.41-6.71-.4-10.06,8.01-6.64,15.77-13.57,23.7-20.3,18.82-9.75,38.85-17.75,57.97-27.15,12.08-2.11,24.9-.45,37.23-1.11-.38-2.54-.71-5.1-.97-7.66Zm-18.09,13.34c6.15,6.98,14.76,11.59,22.2,17.13-.58-5.85-1.61-11.62-2.26-17.47-6.65-.38-13.32-.37-19.94.34Zm22.07-.22c2.52,7.44,4.17,15.16,7.17,22.47,13.37-7.53,26.92-14.72,40.27-22.33-15.8-.23-31.63-.2-47.44-.14Zm17.37,19.07c-.7,1.86-1.4,3.73-2.1,5.6,3.21.42,6.42.85,9.63,1.31l-.36,1.28c-3.28-.51-6.55-1-9.84-1.43-2.02,5.28,4.91,2.51,7.67,2.2,1.12-.39,3.16-.31,2.86-2.13,11.86,1.5,23.89-3.35,35.69-4.78-12.99,4.61-26.23,8.44-39.35,12.68,14.73,12.7,30.06,24.71,45.07,37.07,6.55,4.22,21.62,20.5,27.72,20.43,5.21-17.31,8.09-36.01,3.82-53.81-18.31-2.3-36.45-5.17-54.76-7.53-.5.53-3.82-.81-1.69-1.29,18.55,1.73,37.05,5.14,55.57,7.5-4.46-20.77-24.03-34.28-44.37-36.56-11.97,6.26-23.64,13.1-35.56,19.46Zm-4.79,30.69c.04.68.11,2.04.14,2.71l.41-.14c1.13,10.09,2.92,20.13,4.22,30.2l.21-.39c.13,4.71,1.25,9.34,1.82,14.02,22.76-1.71,45.58-2.75,68.31-4.8-15.25-12.23-30.29-24.75-45.49-37.04-6.78-4.14-11.93-13.29-20.34-13.43.83,3.52,4.05,5.72,6.79,7.74-5.71-1.74-10.89-4.71-16.47-6.79-.35,2.64-.55,5.37.4,7.92Zm-11.07-.42c-4.99,16.36-10.3,32.64-15.38,48.98,11.05-.63,22.1-1.43,33.15-2.18-3.68-13.66-7.13-27.37-11.04-40.97l.17-.06c-1.22-3.75-1.66-7.73-3.35-11.31-2.29.9-3.05,3.35-3.55,5.54Zm26.74,51.62c-12.89.44-25.77,1.65-38.65,2.43,23.71,16.12,49.15,30.17,73.45,45.55,10.55-16.5,20.28-33.7,26.88-52.2-20.56,1.3-41.15,2.48-61.68,4.22Zm-40.88,3.08c9.08,35.9,17.98,71.85,27.25,107.7,17.57-19.22,33.61-39.87,47.73-61.75-6.89-4.19-13.8-8.36-20.63-12.65l-.12.1c-17.99-11.28-36.19-22.21-54.23-33.4Zm-18.86,14.07c-22.81,19.81-44.91,40.93-66.85,61.8,36.05,11.55,72.08,23.21,108.15,34.69-8.56-33.78-16.74-67.82-25.63-101.39-5.43-.06-12.56-.59-15.67,4.9Z" fill="#fcfdfd"/>
      <path d="m115.66,157.28c4-.4,8.02-.77,12.04-.44-1.32.51-2.61,1.1-3.9,1.67,1.84,3.7,4,7.24,6.59,10.46-5.05-3.6-10.91-6.71-14.73-11.69Z" fill="#f4d0cd"/>
      <path d="m127.7,156.84c1.2-.09,2.41-.15,3.62-.18-4.36,4.13,2.13,11.65,5,15.26.22-1.42.41-2.85.58-4.28.54,2.22.81,4.49.96,6.77-6.62-3.38-10.97-9.29-14.06-15.9,1.29-.57,2.58-1.16,3.9-1.67Z" fill="#efb1ac"/>
      <path d="m131.32,156.66c1.42.11,2.85.2,4.28.28.53,5,1.89,9.99.72,14.98-2.86-3.6-9.36-11.13-5-15.26Z" fill="#e79690"/>
      <path d="m137.73,157.06c2.23-.07,4.45-.1,6.68-.05,1.9,6.14,4.03,13.84,9.7,17.4-1.67.96-3.34,1.9-5,2.85-2.47-2.2-3.22-5.5-4.75-8.3-2.61-3.9-6.02-6.96-6.63-11.9Z" fill="#d95f55"/>
      <path d="m144.41,157.01c13.59.12,27.18-.1,40.76.19-9,5.17-18.14,10.07-27.22,15.08-4.94-3.01-4.74-10.11-8.69-14.21-1.56-.35-3.16-.46-4.73-.68l-.12-.38Z" fill="#c61a0e"/>
      <path d="m155.1,176.13c11.92-6.36,23.59-13.2,35.56-19.46,20.34,2.27,39.91,15.79,44.37,36.56-18.52-2.36-37.02-5.77-55.57-7.5-2.13.48,1.19,1.82,1.69,1.29,10.77,1.91,22.29,1.46,32.11,6.37-3.67,2.27-8.17,3.92-9.89,8.25-2.07.19-4.14.35-6.21.5-.4,1.27-.78,2.54-1.17,3.82-.98.69-1.96,1.39-2.94,2.09,0,1.12.02,2.25.04,3.39-1.23-.37-2.47-.74-3.69-1.11-.29,1.56-.57,3.13-.86,4.69-9.71-8.08-19.78-15.78-29.24-24.16,13.12-4.24,26.36-8.07,39.35-12.68-11.79,1.43-23.83,6.28-35.69,4.78.3,1.82-1.74,1.74-2.86,2.13-2.76.31-9.69,3.08-7.67-2.2,3.29.43,6.56.92,9.84,1.43l.36-1.28c-3.21-.46-6.42-.89-9.63-1.31.7-1.87,1.4-3.74,2.1-5.6Z" fill="#9f120b"/>
      <path d="m144.53,157.39c1.57.22,3.17.33,4.73.68,3.95,4.1,3.75,11.2,8.69,14.21-1.36.56-2.7,1.19-3.84,2.13-5.54-3.48-7.74-11-9.58-17.02Z" fill="#cf4033"/>
      <path d="m139.93,163.36c4.55,3.68,5.36,9.76,9.18,13.9-1.41.75-2.82,1.5-4.21,2.27-2.08-5.24-3.86-10.64-4.97-16.17Z" fill="#dd7471"/>
      <path d="m68.31,176.05c11.63-4.95,24.05-9,36.83-8.75-2.29.78-4.57,1.6-6.85,2.39,6.25,6.63,13.47,12.42,19.11,19.59,3,1.11,6,2.32,8.56,4.29-11.13,4.1-23.02,7.22-33.8,11.69-1.27.08-2.53.17-3.79.26.95-1.18,1.88-2.37,2.81-3.57-5.12-9.76-9.46-6.84-13.32-15.56-1.36-.6-2.71-1.2-4.05-1.81-1.41-3.1-3.32-5.93-5.5-8.53Z" fill="#c51903"/>
      <path d="m105.14,167.3c9.61-.34,19.41,4.49,23.82,13.25-1.55-.54-3.09-1.09-4.62-1.64,3.96,3.38,7.66,6.9,7.86,12.45-2.07.76-4.15,1.51-6.24,2.21-2.56-1.97-5.56-3.18-8.56-4.29-5.64-7.17-12.86-12.96-19.11-19.59,2.28-.79,4.56-1.61,6.85-2.39Z" fill="#d01e04"/>
      <path d="m53.24,183.57c4.92-2.7,9.91-5.27,15.06-7.52,2.18,2.6,4.09,5.43,5.5,8.53,1.34.61,2.69,1.21,4.05,1.81,3.84,8.69,8.22,5.84,13.32,15.56-.93,1.2-1.86,2.39-2.81,3.57,4.69.05,9.09-1.43,13.65-2.29-2.31,3.37-6.59,3.4-10.11,4.56,3.03,1.53,6.41.67,9.58.2,1.55,3.02,2.94,6.13,3.61,9.47,2.37.22,4.75.43,7.13.64.19,2.43.4,4.86.6,7.3,2.02.26,4.05.52,6.08.78.45,1.24.91,2.48,1.37,3.73.7.41,2.1,1.22,2.8,1.62-2.14,4.51-4.49,8.92-7.05,13.2-.53-.07-1.57-.22-2.09-.3-1.71,2.54-3.35,5.13-4.87,7.79-3.36-3.12-8.06-2.47-12.26-2.65-.19-2.54-.37-5.07-.55-7.6-2.51-.16-5.02-.33-7.53-.49-.16-2.48-.32-4.96-.47-7.45-2.5-.17-5-.33-7.5-.5-.19-2.51-.37-5.01-.56-7.51-2.47-.18-4.94-.36-7.4-.54-.18-2.49-.35-4.98-.52-7.47-2.5-.18-5.01-.36-7.51-.53-.18-2.5-.35-5-.52-7.5-2.5-.18-5-.35-7.5-.51-.14-2.51-.28-5.01-.41-7.51-2.57-.15-5.14-.3-7.71-.44-.57-4.26-.39-8.39,3.47-11.03.26-2.32.63-4.63,1.15-6.92Z" fill="#b41400"/>
      <path d="m16.22,210.22c11.36-10.14,23.77-19.12,37.02-26.65-.52,2.29-.89,4.6-1.15,6.92-3.86,2.64-4.04,6.77-3.47,11.03,2.57.14,5.14.29,7.71.44.13,2.5.27,5,.41,7.51,2.5.16,5,.33,7.5.51.17,2.5.34,5,.52,7.5,2.5.17,5.01.35,7.51.53.17,2.49.34,4.98.52,7.47,2.46.18,4.93.36,7.4.54.19,2.5.37,5,.56,7.51,2.5.17,5,.33,7.5.5.15,2.49.31,4.97.47,7.45,2.51.16,5.02.33,7.53.49.18,2.53.36,5.06.55,7.6,4.2.18,8.9-.47,12.26,2.65,1.52-2.66,3.16-5.25,4.87-7.79.52.08,1.56.23,2.09.3-12.65,21.33-29.49,39.85-47.81,56.43-.68-.34-2.04-1.03-2.72-1.37-1.78,2.25-3.8,4.31-6.13,6-5.13-13.31-20.23-20.01-27.45-31.78-2.32-.21-4.64-.4-6.96-.6-.2-2.39-.4-4.79-.6-7.18-1.15-.35-2.31-.7-3.45-1.04-2.78-18.21-3.91-36.45-4.78-54.89l.1-.08Z" fill="#ac1300"/>
      <path d="m208.27,190.92c9.25.87,18.4,2.61,27.64,3.63,1.84,4.96.62,9.9.08,14.97-.3.01-.9.05-1.2.07-.17-2.53-.34-5.06-.4-7.59-6.98,6.91-13.84,14.41-21.54,20.61,0,1.34,0,2.68.01,4.03-2.94-.56-6.13-1.06-8.49,1.29-5.33-4.23-10.54-8.62-15.83-12.91.29-1.56.57-3.13.86-4.69,1.22.37,2.46.74,3.69,1.11-.02-1.14-.03-2.27-.04-3.39.98-.7,1.96-1.4,2.94-2.09.39-1.28.77-2.55,1.17-3.82,2.07-.15,4.14-.31,6.21-.5,1.72-4.33,6.22-5.98,9.89-8.25-1.77-.61-3.53-1.29-4.99-2.47Z" fill="#8e120b"/>
      <path d="m102.01,203.23c10.12-1.81,20.16-4.07,30.33-5.59-.42,11.84-4.33,23.23-9.27,33.89-.7-.4-2.1-1.21-2.8-1.62-.46-1.25-.92-2.49-1.37-3.73-2.03-.26-4.06-.52-6.08-.78-.2-2.44-.41-4.87-.6-7.3-2.38-.21-4.76-.42-7.13-.64-.67-3.34-2.06-6.45-3.61-9.47-3.17.47-6.55,1.33-9.58-.2,3.52-1.16,7.8-1.19,10.11-4.56Z" fill="#c41803"/>
      <path d="m150.31,206.82c-.95-2.55-.75-5.28-.4-7.92,2.61.97,5.17,2.06,7.64,3.33-2.14.43-4.28.85-6.42,1.26-.29,1.1-.56,2.21-.82,3.33Z" fill="#ecb3a9"/>
      <path d="m159.6,197.95c3.05-.44,5.59,1.08,7.78,3.01-1.21.96-2.44,1.88-3.69,2.77-1.64-1.7-3.65-3.31-4.09-5.78Z" fill="#e69384"/>
      <path d="m244.68,208.35c.67-3.29,1.57-6.54,2.43-9.78.23,4.1.39,8.22.84,12.31.46-2.89.81-5.79,1.12-8.69,26.1-.82,52.3,0,78.45-.38,3.26.12,7.93-1.01,9.12,3.11,1.15,14.88,1.84,29.81,2.45,44.72-.69-.34-1.36-.68-2.03-1.01-29.24,3.13-59.44-.28-88.96,1.33-.41,1.2-.8,2.4-1.2,3.61-.31-1.72-.62-3.42-.93-5.13-1.1,1.76-2.15,3.56-3.12,5.4-.1-15.05,4.2-30.21,1.83-45.49Z" fill="#b51600"/>
      <path d="m139.24,206.4c.5-2.19,1.26-4.64,3.55-5.54.74,1.68,1.36,3.41,1.77,5.21-1.78.11-3.55.22-5.32.33Z" fill="#e8b1a4"/>
      <path d="m163.68,203.73c1.25-.89,2.48-1.81,3.69-2.77,1.21,1.08,2.44,2.14,3.68,3.19-6.42,3.27-14.1,1.71-20.6,5.38-.29-2.03.07-4.11.68-6.04,2.14-.41,4.28-.83,6.42-1.26,2.88,1.31,5.83,2.45,8.83,3.46-.9-.66-1.8-1.32-2.7-1.96Z" fill="#e76a4b"/>
      <path d="m234.39,202c.06,2.53.23,5.06.4,7.59.3-.02.9-.06,1.2-.07.24-2.83.64-5.63,1.09-8.42,2.48,15.84-.47,32.04-4.99,47.26-6.01.13-21.24-16.26-27.72-20.43,2.36-2.35,5.55-1.85,8.49-1.29-.01-1.35-.02-2.69-.01-4.03,7.7-6.2,14.56-13.7,21.54-20.61Z" fill="#7d120d"/>
      <path d="m171.06,204.15c1.49,1.15,2.94,2.33,4.37,3.55-7.41,3.62-16.17,3.87-24.09,6.22-.17-1.52-.32-3.03-.47-4.53,6.36-3.62,13.92-1.95,20.19-5.24Z" fill="#da4e30"/>
      <path d="m139.24,206.4c1.77-.11,3.54-.22,5.32-.33.41,2.06.98,4.08,1.58,6.1-2.58.84-5.13,1.96-7.86,2.1-.26-.32-.79-.97-1.05-1.29.65-2.2,1.42-4.37,2.01-6.58Z" fill="#e25e41"/>
      <path d="m175.43,207.7c1.5,1.23,3,2.45,4.51,3.68-8.87,3.65-18.4,5.63-27.9,6.68-.24-1.39-.46-2.76-.7-4.14,7.92-2.35,16.68-2.6,24.09-6.22Z" fill="#d0371f"/>
      <path d="m152.03,218.06c9.5-1.05,19.03-3.03,27.9-6.68,7.69,6.29,15.44,12.52,23.1,18.85-.26.45-.78,1.35-1.03,1.8-4-1.53-8.29-.84-12.45-.81-5.67,5.85-16.25.18-22.49,5.97-2.63.98-5.53.79-8.29,1.09-.02,1.61-.04,3.23-.07,4.85-.96-1.74-1.85-3.52-2.77-5.28-.25.51-.57,1.25-.85,1.74-.98-7.18-2.09-14.35-3.05-21.53Z" fill="#bf1d0b"/>
      <path d="m134.82,220.79c.74-2.62,1.54-5.23,2.41-7.81.26.32.79.97,1.05,1.29,2.67-.13,5.17-1.22,7.69-2.04.69,2.17,1.31,4.37,1.87,6.58-4.32.79-8.66,1.52-13.02,1.98Z" fill="#d53f26"/>
      <path d="m134.82,220.79c4.36-.46,8.7-1.19,13.02-1.98,1.56,5.82,3.08,11.65,4.7,17.45-2.94,11.74-17.15,7.13-24.87,12.74-.34-.36-1.02-1.07-1.36-1.43,2.82-8.93,5.59-17.88,8.51-26.78Z" fill="#be1d0a"/>
      <path d="m189.56,231.22c4.16-.03,8.45-.72,12.45.81.25-.45.77-1.35,1.03-1.8,7.49,6.03,14.84,12.24,22.39,18.19-22.73,2.05-45.55,3.09-68.31,4.8-.2-5.03-2.86-10.57-1.18-15.37.92,1.76,1.81,3.54,2.77,5.28.03-1.62.05-3.24.07-4.85,2.76-.3,5.66-.11,8.29-1.09,6.25-5.79,16.81-.12,22.49-5.97Z" fill="#ae1103"/>
      <path d="m147.31,243.35c3.04-1.03,3.84-4.57,5.24-7.09,1.43,5.66,3.01,11.28,4.47,16.94-11.05.75-22.1,1.55-33.15,2.18.82-2.61,1.66-5.2,2.45-7.81.34.36,1.02,1.07,1.36,1.43,5.63-4,13.34-2.88,19.63-5.65Z" fill="#b11404"/>
      <path d="m337.06,248.63c.67.33,1.34.67,2.03,1.01.64,13.58,1.71,27.14,2.04,40.73-1.05-.03-2.09-.05-3.12-.07-.32,2.51-.64,5.03-.98,7.55-.36-2.25-.69-4.48-1.02-6.72-31.3-.88-62.88-.78-94.14-.07-.87.95-1.29,2.2-1.87,3.33-.35-2.04-.89-4.09-2.63-5.4,1.56-13.11,2.72-26.28,5-39.3.15,1.38.31,2.77.48,4.15.97-1.84,2.02-3.64,3.12-5.4.31,1.71.62,3.41.93,5.13.4-1.21.79-2.41,1.2-3.61,29.52-1.61,59.72,1.8,88.96-1.33Z" fill="#c82100"/>
      <path d="m18.7,250.24c1.43,4.86,1.81,9.92,2.2,14.95,1.14.34,2.3.69,3.45,1.04.2,2.39.4,4.79.6,7.18,2.32.2,4.64.39,6.96.6,7.22,11.77,22.32,18.47,27.45,31.78,2.33-1.69,4.35-3.75,6.13-6,.68.34,2.04,1.03,2.72,1.37-6.04,5.53-12.21,10.94-18.82,15.78-2.98-.13-8.02,3.76-9.07-.91,1.45.04,2.91.1,4.37.16.13-.29.39-.88.52-1.17-1.42-.85-2.92-1.6-4.18-2.67-.51-1.71-.71-3.48-.99-5.23-2.23-.59-4.45-1.2-6.65-1.87-.98-1.86-2.38-3.4-4.22-4.41-.45-.94-.89-1.87-1.32-2.8-1.52.04-3.04.08-4.55.13-2.49-15.81-5.54-31.91-4.6-47.93Z" fill="#a21501"/>
      <path d="m165.98,258.02c20.53-1.74,41.12-2.92,61.68-4.22-6.6,18.5-16.33,35.7-26.88,52.2-9.04-5.55-18.13-11.03-27.14-16.65.4-.21,1.2-.64,1.6-.85,5.26,1.99,9.4,6.19,14.79,7.99-2.25-3.19-7.08-4.03-8.08-8.12-.54-9.83.84-19.66-.61-29.57-5.13-.3-10.3.28-15.36-.78Z" fill="#8e0d04"/>
      <path d="m127.34,260.45c18.04-1.35,35.96-2.86,54.01-1.65,1.45,9.91.07,19.73.61,29.57,1,4.09,5.83,4.93,8.08,8.12-5.39-1.8-9.53-6-14.79-7.99-.4.21-1.2.64-1.6.85-15.31-9.75-31.62-18.38-46.31-28.9Z" fill="#9f0d02"/>
      <path d="m125.1,261.1c18.04,11.19,36.24,22.12,54.23,33.4-2.34,3.15-5.9,1.74-8.9.57.53.79,1.06,1.59,1.59,2.39-1.08.22-2.16.44-3.24.67-.2,2.44-.4,4.89-.6,7.34-2.47.16-4.93.32-7.39.48-.18,2.47-.36,4.95-.54,7.43-2.1.21-4.2.43-6.3.65-.68,2.73-1.37,5.46-2.05,8.19-2.22.25-4.44.51-6.65.79-.1,2.27-.91,4.33-3.49,4.25-5.52-22.06-11.15-44.1-16.66-66.16Z" fill="#970c02"/>
      <path d="m204.28,310.42c9.89-15.78,19.43-31.92,26.19-49.33-1.71,26.1-3.88,52.17-5.99,78.25-.57-2.42-1.09-4.85-1.5-7.29-3.65,1.28-6.8,3.55-9.91,5.79-.38.85-.75,1.72-1.11,2.58-.59-.74-1.18-1.47-1.75-2.2-.43.11-1.28.33-1.71.45-1.42-9.42-2.63-18.86-4.22-28.25Z" fill="#9a0000"/>
      <path d="m106.24,275.17c3.11-5.49,10.24-4.96,15.67-4.9.59,1.73,1.19,3.47,1.82,5.21-5.49-2.25-11.67.4-17.49-.31Z" fill="#f8e1d9"/>
      <path d="m119.43,274.49c1.52-.26,2.91.5,4.3.99.12,1.2.25,2.41.38,3.62-7.8-.32-15.58,1.69-23.34.63,4.32-6.58,12.01-3.99,18.66-5.24Z" fill="#f2bdad"/>
      <path d="m19.73,274.37c1.52,7.88,1.78,15.96,3.57,23.8,1.51-.05,3.03-.09,4.55-.13.43.93.87,1.86,1.32,2.8,1.84,1.01,3.24,2.55,4.22,4.41,2.2.67,4.42,1.28,6.65,1.87.28,1.75.48,3.52.99,5.23,1.26,1.07,2.76,1.82,4.18,2.67-.13.29-.39.88-.52,1.17-1.46-.06-2.92-.12-4.37-.16,1.05,4.67,6.09.78,9.07.91-8.3,6.49-17.29,12.1-26.65,16.93-.19-19.8-3.72-39.7-3.01-59.5Z" fill="#951102"/>
      <path d="m100.77,279.73c7.76,1.06,15.54-.95,23.34-.63.58,1.79,1.13,3.59,1.63,5.4-9.5-3.28-20.39.32-30.33.15,1.75-1.68,3.54-3.32,5.36-4.92Z" fill="#ec9d84"/>
      <path d="m122.78,283.31c1.07.12,2,.73,2.96,1.19.08.42.25,1.25.33,1.67-11.25.13-22.49,1.17-33.76,1.3,1.03-.94,2.06-1.88,3.1-2.82,9.12-.47,18.22-1.66,27.37-1.34Z" fill="#e68567"/>
      <path d="m104.51,287.14c7.21.15,14.35-1.43,21.57-.97.59,2.62,1.29,5.21,1.95,7.81-14.59-1.01-29.21,2.28-43.86,1.15,2.63-2.65,5.4-5.14,8.15-7.66,4.05-.28,8.12-.39,12.19-.33Z" fill="#e16948"/>
      <path d="m233.01,326.09c1.44-12.36,2.82-24.74,4.37-37.1,1.74,1.31,2.28,3.36,2.63,5.4.58-1.13,1-2.38,1.87-3.33,31.26-.71,62.84-.81,94.14.07.33,2.24.66,4.47,1.02,6.72.34-2.52.66-5.04.98-7.55,1.03.02,2.07.04,3.12.07.7,13.3,3.33,26.68-2.09,39.26-.65-2.63-1.33-5.26-2-7.88-.36,1.24-.71,2.48-1.05,3.73-32.31.04-64.75.8-97-.18-1.17-2.17-1.99-4.49-2.96-6.74-.3,2.53-.53,5.08-.7,7.63-.58-.03-1.75-.07-2.33-.1Z" fill="#d62900"/>
      <path d="m110.61,294.27c5.8-.04,11.63-1.15,17.41-.29.75,3.01,1.52,6.01,2.22,9.03-19.27,1.66-38.81,2.96-58.13,3.28,3.84-3.91,8.07-7.4,12.05-11.16,8.82.36,17.67.09,26.45-.86Z" fill="#d34c32"/>
      <path d="m170.43,295.07c3.07,1.23,6.64,2.54,9.02-.67,6.83,4.29,13.74,8.46,20.63,12.65-14.12,21.88-30.16,42.53-47.73,61.75-3.71-13.8-6.99-27.71-10.59-41.54,2.58.08,3.39-1.98,3.49-4.25,2.21-.28,4.43-.54,6.65-.79.68-2.73,1.37-5.46,2.05-8.19,2.1-.22,4.2-.44,6.3-.65.18-2.48.36-4.96.54-7.43,2.46-.16,4.92-.32,7.39-.48.2-2.45.4-4.9.6-7.34,1.08-.23,2.16-.45,3.24-.67-.53-.8-1.06-1.6-1.59-2.39Z" fill="#8a0f06"/>
      <path d="m111.39,304.43c6.27-.73,12.65-.03,18.86-1.42.87,3.31,1.74,6.62,2.55,9.95-24.25.97-48.46,2.83-72.69,4.38,3.93-3.76,8.04-7.32,12.01-11.05,13.07.48,26.17-1.67,39.27-1.86Z" fill="#c62c1a"/>
      <path d="m110.55,314.27c7.38-.93,14.82-1.19,22.25-1.31,2.25,8.83,4.42,17.68,6.75,26.5-9.91-4.44-21.58-.21-32.08-.73-15.43.5-31.05-1.34-46.31.32.17.31.51.94.68,1.25-.98.97-1.96,1.94-2.93,2.93-6.52-2.03-13-4.19-19.51-6.26,6.46-6.98,13.92-12.97,20.71-19.63,16.8-1.25,33.62-2.24,50.44-3.07Z" fill="#b71609"/>
      <path d="m154.1,374.67c17.58-19.12,33.71-39.58,48.05-61.25,3.8,25.64,7.63,51.28,11.28,76.94-14.54,1.05-29.21-1.9-43.83-1.85-5.17-4.61-10.41-9.14-15.5-13.84Z" fill="#8b1104"/>
      <path d="m342.7,317.81c.17,11.91,1.51,23.78,1.52,35.68-37.27.81-74.65-.67-111.87.64-.34,1.71-.77,3.43-1.67,4.95-1.48-11.02,1.39-22.02,2.32-32.99.58.03,1.75.07,2.33.1.17-2.55.4-5.1.7-7.63.97,2.25,1.79,4.57,2.96,6.74,32.25.98,64.69.22,97,.18.34-1.25.69-2.49,1.05-3.73.67,2.62,1.35,5.25,2,7.88.98-4.01,2.49-7.86,3.66-11.82Z" fill="#e33200"/>
      <path d="m213.07,337.84c3.11-2.24,6.26-4.51,9.91-5.79,2.93,10.79-.12,21.91-.39,32.89-.46-.54-1.37-1.62-1.83-2.17-.16,1.5-.32,2.99-.47,4.49-1.52-.78-3.04-1.54-4.55-2.31.17,1.3.34,2.6.52,3.9-.74.17-1.48.35-2.21.54-.16.6-.48,1.82-.64,2.43-1.6-11.06-3.32-22.09-4.91-33.15.43-.12,1.28-.34,1.71-.45.57.73,1.16,1.46,1.75,2.2.36-.86.73-1.73,1.11-2.58Z" fill="#ae0c09"/>
      <path d="m61.15,339.05c15.26-1.66,30.88.18,46.31-.32,10.5.52,22.17-3.71,32.08.73,2.51,10.77,5.46,21.43,8,32.2-29.57-9.39-59.09-18.97-88.64-28.43.97-.99,1.95-1.96,2.93-2.93-.17-.31-.51-.94-.68-1.25Z" fill="#aa0e02"/>
      <path d="m38.2,339.43c16.41,6.55,35.56,8.4,50.11,18.44-2.74-.25-5.49-.42-8.25-.36,4.87,2.29,10.43,2.48,15.26,4.94.89-.54,1.79-1.08,2.69-1.62-.72,5.35-.02,10.8-1.04,16.12-.44-3.98.09-8.15-1.52-11.92-1.72,5.41-.65,11.12-.11,16.63-11.72.08-23.27,2.15-35.01.53-7.31-14.29-14.78-28.5-22.13-42.76Z" fill="#9a0c02"/>
      <path d="m36.98,340.42c7.69,13.41,14.28,27.44,21.63,41.04-8.29-.8-27.68,1.61-32.95-4.13,4.09-12.2,7.47-24.63,11.32-36.91Z" fill="#a10c08"/>
      <path d="m23.97,345.7c2.83-.48,5.67-.9,8.53-1.26-.34,2.33-.69,4.67-1.35,6.94-2.45-1.11-5.13-1.18-7.77-1.06.2-1.54.39-3.08.59-4.62Z" fill="#f6d0c8"/>
      <path d="m227.94,369.62c.71-6.68,1.54-13.35,2.3-20.03-.15,3.16,0,6.34.44,9.49.9-1.52,1.33-3.24,1.67-4.95,37.35-1.31,74.86.18,112.26-.65.02,6.39.62,12.76.72,19.16-38.66.56-77.35-.54-115.98.48-.49-1.17-.96-2.33-1.41-3.5Z" fill="#ef3600"/>
      <path d="m23.39,350.32c2.64-.12,5.32-.05,7.77,1.06-.36,1.08-.72,2.17-1.09,3.26-2.19-.26-4.38-.5-6.57-.74-.03-.89-.08-2.68-.11-3.58Z" fill="#f2b1a0"/>
      <path d="m23.49,353.9c2.19.24,4.38.48,6.57.74-.79,2.38-1.52,4.78-2.22,7.19-.07-.71-.21-2.11-.28-2.81-.95-.02-2.83-.06-3.77-.08-.1-1.68-.21-3.36-.3-5.04Z" fill="#e7967b"/>
      <path d="m83.35,353.99c21.58,6.75,43.08,13.79,64.62,20.68-8.04,6.83-11.64,14.47-23.41,11.08-14.81-1.08-30.39-.39-44.79-3.15,5.11-1.21,10.38-.59,15.57-.94-.54-5.51-1.61-11.22.11-16.63,1.61,3.77,1.08,7.94,1.52,11.92,1.02-5.32.32-10.77,1.04-16.12-.9.54-1.8,1.08-2.69,1.62-4.83-2.46-10.39-2.65-15.26-4.94,2.76-.06,5.51.11,8.25.36-1.71-1.23-3.34-2.55-4.96-3.88Z" fill="#8c0d05"/>
      <path d="m23.8,358.94c.94.02,2.82.06,3.77.08.83,4-1.43,7.74-2.57,11.48-1.21-3.73-.86-7.7-1.2-11.56Z" fill="#e1794d"/>
      <path d="m220.3,367.26c.15-1.5.31-2.99.47-4.49.46.55,1.37,1.63,1.83,2.17-.64,8.86-1.54,17.69-1.97,26.56-1.47-.07-2.93-.15-4.39-.22-.47-7.24-3.52-14.77-2.18-21.89.73-.19,1.47-.37,2.21-.54-.18-1.3-.35-2.6-.52-3.9,1.51.77,3.03,1.53,4.55,2.31Z" fill="#c81a13"/>
      <path d="m225.99,391.69c.43-7.37.93-14.75,1.95-22.07.45,1.17.92,2.33,1.41,3.5,38.63-1.02,77.32.08,115.98-.48-.4,8.32,5.71,26.24-7.84,25.69-37.16-2.27-74.35-4.2-111.5-6.64Z" fill="#f63c02"/>
      <path d="m139.2,386.12c4.27-2.99,7.34-8.62,12.61-9.63,4.2,3.13,7.97,6.82,11.85,10.35-.11.35-.34,1.05-.45,1.4-8-.63-16.13-.49-24.01-2.12Z" fill="#ac0a08"/>
    </g>
  </g>
</svg>