<?xml version="1.0" encoding="UTF-8"?>
<svg id="Layer_2" data-name="Layer 2" xmlns="http://www.w3.org/2000/svg" viewBox="0 0 488.31 489.39">
  <g id="Layer_2-2" data-name="Layer 2">
    <g>
      <path d="m24.28,395.54V46.93h6.7v-13.41h6.7v-13.41h13.41v-6.7h6.7v-6.7h20.11V0h321.79v6.7h20.11v6.7h6.7v6.7h13.41v13.41h6.7v13.41h6.7v348.61H24.28Z" fill="#2e3e43"/>
      <path d="m24.28,429.06v-13.41h429.06v13.41H24.28Z" fill="#636363"/>
      <path d="m406.41,489.39H71.21v-6.7h-26.82v-6.7h388.83v6.7h-26.82v6.7Z" fill="#3d3d3d"/>
      <path d="m24.28,455.87v-6.7h429.06v6.7c-129.08.02-258.17-.03-387.24.02-.95.09-1.6.59-1.59,1.66,0,1.67,0,3.35,0,5.02h-13.31c-.26-2.37.11-4.57-.25-6.7h-26.66Z" fill="#4f4f4f"/>
      <path d="m24.28,442.47v-6.7h429.06v6.7H24.28Z" fill="#585858"/>
      <path d="m24.28,395.54h429.06v6.7H24.28v-6.7Z" fill="#5f6364"/>
      <path d="m24.28,402.24h429.06v6.7H24.28v-6.7Z" fill="#6e6e6e"/>
      <path d="m24.28,408.94h429.06v6.7H24.28v-6.7Z" fill="#696969"/>
      <path d="m453.34,435.76H24.28v-6.7h429.06v6.7Z" fill="#5c5c5c"/>
      <path d="m24.28,442.47h429.06v6.7H24.28v-6.7Z" fill="#535353"/>
      <path d="m406.41,6.7h-6.7V0h6.7v6.7Z" fill="#535353"/>
      <path d="m24.28,40.22h6.7v6.7h-6.7v-6.7Z" fill="#464646"/>
      <path d="m57.8,489.39v-6.7h6.7v6.7h-6.7Z" fill="#5c5c5c"/>
      <path d="m64.51,489.39v-6.7h6.7v6.7h-6.7Z" fill="#464646"/>
      <path d="m406.41,489.39v-6.7h6.7v6.7h-6.7Z" fill="#464646"/>
      <path d="m44.4,20.11v-6.7h6.7v6.7h-6.7Z" fill="#424242"/>
      <path d="m426.52,13.41h6.7v6.7h-6.7v-6.7Z" fill="#424242"/>
      <path d="m30.99,33.52v-6.7h6.7v6.7h-6.7Z" fill="#464646"/>
      <path d="m439.93,26.82h6.7v6.7h-6.7v-6.7Z" fill="#464646"/>
      <path d="m446.64,40.22h6.7v6.7h-6.7v-6.7Z" fill="#464646"/>
      <path d="m44.4,475.99h-6.7v-6.7h402.24v6.7H44.4Z" fill="#424242"/>
      <path d="m71.21,469.28h-6.7c0-3.91,0-7.82,0-11.73,0-1.07.64-1.57,1.59-1.66,126.84-.05,253.69,0,380.54-.02v6.7c-125.07.32-250.57-.62-375.42.33v6.38Z" fill="#4b4b4b"/>
      <path d="m64.51,462.58v6.7h-26.82v-6.7h-6.7v-6.7h19.96c.36,2.13-.01,4.33.25,6.7h13.31Z" fill="#464646"/>
      <path d="m439.93,462.58v6.7H71.21v-6.38c122.62-.94,245.89,0,368.72-.33Z" fill="#464646"/>
    </g>
  </g>
  <g id="Layer_1-2" data-name="Layer 1">
    <path d="m315.84,24.86c2.73-1.42,5.88-1.58,8.75-2.62,1.91.45,3.86.74,5.82.89.69,1.54.38,3.57-1.57,3.81-4.04-1.56-8.52-.1-12.39,1.34-2.35.69-2.64-3.09-.61-3.42Z" fill="#ebebeb" stroke="#ebebeb" stroke-miterlimit="10.43" stroke-width=".09"/>
    <path d="m337.01,24.98c1.92-1.59,3.98,1.63,2.22,2.97-1.75,1.6-3.74-1.5-2.22-2.97Z" fill="#ebebeb" stroke="#ebebeb" stroke-miterlimit="10.43" stroke-width=".09"/>
    <path d="m343.11,29.33c-1.5-1.22-1.01-4.85,1.42-3.92,2.08.03.65,2.63.79,3.85.73,1.76.1,3.18-1.38,4.22,2.14-.91,4.36-1.65,6.61-2.28-.77-.13-2.32-.37-3.09-.49.13-.48.39-1.46.52-1.95.69-2.17,3.14-.42,4.69-.3.04.63.12,1.9.16,2.53,1.15-.16,2.33-.38,3.48-.05.72,1.6-.58,2.99-1.09,4.42,3.24.06,8.43-2.76,9.75,1.65,1.41.81,2.52,1.86,1.99,3.63-1.95.02-3.9.03-5.83.16,1.64,1.69,4.59.22,5.61,2.71-.77.87-1.52,1.76-2.27,2.64,2.01.25,4.02.49,6.03.77-.34,1.04.08,3.44-1.73,3.02-.74,0-2.2.04-2.94.05-.01.31-.04.93-.06,1.23,2.15.14,4.6-.61,6.47.8.29,1.2-.06,2.4-.69,3.43-1.97-.24-3.92-.62-5.89-.84-.03,1.36-.04,2.72-.05,4.08,2.39-.05,4.79-.26,7.19-.15,1.35.11,1.89,1.57,1.43,2.71-1.41.92-3.23.68-4.8,1.05,1.42,2.85,4.47,3.41,7.38,3.16-.85-3.19,2.2-3.65,4.51-3.83.48-2.11,1.25-4.16,2.48-5.96,1.05-1.99,3.71-1.3,5.55-1.82.31-1.93,2.03-1.7,3.44-1.41-.11.71-.33,2.12-.44,2.83-3.92-.51-6.04,3.34-7,6.51.05.7.14,2.1.19,2.8-1.3.17-2.58.33-3.87.47,2.03.23,4.92.69,3.82,3.49-3.76,1.41-8.21-.93-11.82,1.25,2.51-.02,5.02-.06,7.53.25.01.79.04,2.36.05,3.15,2.51-.24,5.09-.6,7.55.16.1.72.31,2.16.41,2.88.88,1.06,1.11,2.37,1.08,3.72,1.94.01,3.9.01,5.85.02-.54.94-2.21,1.93-1.26,3.12,1.27,1.15.92,2.63.39,4.05,2.07-.43,3.97.09,4.6,2.29,2.24.07,4.5.58,4.53,3.26.95.35,1.9.7,2.86,1.05.4,1.33.87,2.69,2.29,3.25-.05.68-.14,2.03-.19,2.7,1.8.29,3,1.28,2.98,3.22,1.77.14,3.55.31,5.32.47-.08.78-.23,2.33-.31,3.1.68.31,2.05.93,2.73,1.24.09.55.28,1.66.37,2.21,1.03.96,1.83,2.11,2.57,3.31,1.25-.1,2.74-1,3.63.35.22,1.4-.68,2.25-1.78,2.87-.4-.3-1.2-.89-1.6-1.19l-.71.18c-2.83,3.27-7.35,1.39-11.06,2.25-.37-.54-1.09-1.64-1.45-2.18.81-.76,1.63-1.51,2.46-2.26-2.57-1.24-2.65-4.37-3.6-6.7-.38,1.91-.75,3.83-1.14,5.74,2.11,1.09,2.74,2.92,1.32,4.9,1.16.41,2.33.82,3.51,1.22,3.58-.43,7.19-.13,10.79-.14.49,1.67.94,3.36,1.28,5.07-3.44.64-6.93.97-10.35,1.74,3.14.76,6.39-.06,9.57.44.08,2.85.82,6.14-1.97,8.03.54.53,1.63,1.59,2.17,2.12-.57,2-1.09,4.03-1.67,6.03.78-.12,2.33-.37,3.1-.5,1.46.17,1.71,3.65.09,3.31-3.77-.42-7.58-.18-11.24.84,3.27-.04,6.53-.22,9.81-.12-.07.77-.22,2.31-.29,3.08.59.15,1.77.44,2.35.59.16.56.47,1.69.62,2.25.75.14,2.24.42,2.99.56l-.52,2.64c-2.19.51-4.44.66-6.66.96,1.71,3.29,5.64-.32,7.99,2.03-.42,1.48-.7,3.01-.45,4.55-.35.32-1.05.95-1.4,1.26,1.7.02,3.07.58,3.33,2.45.67-.08,2.02-.24,2.7-.32.5.83,1,1.65,1.51,2.48,2.03-.13,6.44-2.56,6.6,1.03-1.39,2.74-5.48,1.92-7.97,2.96.23,1.21.46,2.42.68,3.64-1.58.13-3.15.25-4.72.36.39,1.34.72,2.69,1.04,4.06-2.91.26-5.87.36-8.61,1.46,3.19.12,6.45-.52,9.58.33.19,1.82.39,3.65,1.03,5.38-1.32,1.57-3.5,1.03-5.27,1.37-2.92.16-5.77,1.04-8.14,2.76,3.75-.38,7.51-.59,11.29-.47-.12,2.18.52,4.53-.47,6.58-6.14.52-12.61.47-18.3,3.09,3.51-.08,7.05-.76,10.57-.29,2.63-.07,1.95,3.57-.1,3.39-4.96-.21-9.9.3-14.75,1.27-1.04.96-2.08,1.91-3.11,2.86,4.39-.18,8.67-1.14,12.97-1.99,1.93-.76,2.05,1.72,2.24,2.94-2.15.83-5.29.46-6.36,2.91,1.99-.23,3.99-.89,6.02-.69,2.17,3.38-2.67,3.83-4.91,4.06-.11-.84-.33-2.52-.45-3.36-3.19.5-2.65,4.86-6.14,4.49-1.59,1.54-3.68,2.15-5.63.84-8.72.89-17.34,2.46-25.98,3.91.08.75.25,2.26.33,3.01-3.85,2.32-8.48,2.25-12.8,2.79-.16-.75-.48-2.26-.64-3.01-2.21.46-4.41.92-6.62,1.35.27.53.81,1.6,1.08,2.13.92.41,1.83.83,2.76,1.26-.8-.26-1.6-.52-2.39-.77-1.61,1.37-3.7,1.53-5.72,1.53.02-.85.05-2.55.06-3.39-7.54,1.65-15.13,3.04-22.72,4.44l1.36,1.44c-.31.63-.92,1.88-1.23,2.51-3.81.57-8.35-.21-11.57,2.21,3.66-.07,7.29-.6,10.95-.45.15.77.43,2.3.57,3.06-3.46.49-6.93.9-10.39,1.36,2.69.31,5.38.78,8.11.76,5.04-.45,9.93-2.17,15.03-2.15,1.72,3.57-2.44,4.48-5.07,4.61,2.22-.05,4.44-.07,6.66-.04-.42-1.02-.83-2.04-1.23-3.05,1.29-.43,2.61-.79,3.96-1.07-.02.79-.07,2.36-.09,3.15,1.27-.1,2.54-.19,3.82-.27.49.94.98,1.88,1.47,2.83.46.09,1.4.26,1.86.34-.26-1.34-.56-2.68-.86-4,2.2.24,5.68-.32,5.58,2.97,2.16-.42,4.32-.87,6.48-1.32,1.03,1.24.81,2.74.38,4.18,1.76.1,3.53.21,5.3.35.01-.69.04-2.05.06-2.74,2.21-1.25,4.93-2.22,7.48-1.77,1.76,1.67-.21,2.99-1.7,3.69,4.63-.49,9.28-1.48,13.95-.94.26.49.77,1.48,1.03,1.98,4.5-1.09,9.62-.31,13.69-2.66-.15,1.54-.27,3.08-.38,4.62,2.82-.41,5.64-.76,8.49-1.01-.9-.59-1.81-1.17-2.7-1.75l1.48.77,1-1.29c.08.53.24,1.6.32,2.13,3.33-.45,6.67-.89,10.03-1.14-.05.78-.13,2.36-.18,3.15-8.16,1.81-16.57,2.02-24.76,3.69,3.63.17,7.28.86,10.92.47,8.32-1.26,16.52-3.25,24.83-4.6,3.23-.61,6.68-.09,9.74-1.48-.26,1.26-.66,2.45-.82,3.76,4.57-.66,9.21-1.53,13.82-.66.3.51.89,1.53,1.19,2.04,2.72-.05,5.44-.25,8.18-.12.74-.92,1.48-1.85,2.21-2.78.17.98.1,1.98-.07,2.96,1.38.3,2.76.61,4.15.93-.42,1.04-.34,3.49-2.17,2.83-7.08-1.59-14.17.64-21.21,1.35-5.89.87-11.91,1.54-17.3,4.26-1.49,1.02-2.99-.07-4.4-.63-1.4.08-2.79.17-4.18.25-2.38-1.18-5.07-1.07-7.65-1.13-.61.87-.55,3.01-2.18,2.67-4.65-.11-9.28.67-13.28,3.16,4.67,1.04,9.34-.35,13.98-.76.48.52,1.44,1.57,1.91,2.09-1.06.57-2.11,1.15-3.17,1.72,2.59,0,5.49-.88,7.86.54.67,1.74,1.96,3.63,1.39,5.56-1.05.8-2.4.79-3.62,1.07-.17,1.88-.93,3.37-2.96,3.6.98.07,1.97.16,2.96.26-.02.77-.06,2.3-.08,3.07-2.29.03-4.57.07-6.84.12-.05,1.27-.07,2.54-.05,3.82-4.41.13-8.87.11-13.2,1.05-.15.56-.46,1.68-.61,2.24,2.64-.27,5.25-.71,7.85-1.28.54,1.64.43,3.37.32,5.07-.09-.37-.25-1.13-.34-1.5-.7.16-2.11.48-2.82.64.11,1.48.14,2.99-.45,4.39-1.81.1-3.61.23-5.4.4-.03,2.19-.78,3.8-3.21,3.61-.22,1.11.33,3.36-1.45,3.31-4.09.55-8.14,1.6-12.26,1.78-.23-.63-.7-1.91-.94-2.54,1.05-.58,2.12-1.14,3.19-1.71-5.34,1.3-10.81,1.9-16.15,3.12-2.1.59-4.3.49-6.44.33-.55-.84-1.1-1.67-1.64-2.5-2.9.58-5.73,2.46-8.73,1.82-.75-1.8.58-2.94,1.82-3.93-2.98.98-6,1.81-9.03,2.6.26.59.79,1.75,1.05,2.33-5.61,2.64-11.98,2.62-17.85,4.45-3.62.71-7.36,2.86-11.09,1.52-.46-2.55,1.25-4.85,1.79-7.27-1.35.42-2.7.85-4.03,1.29.36.98.71,1.97,1.03,2.97-1.2,1.13-2.64,1.97-3.85,3.1,1.6.08,3.2.18,4.8.32,1.45,4.03-3.58,3.81-6.08,3.96,1.33,1.31,3.4.14,4.75,1.17.91,1.72,1.27,3.66,1.74,5.53-3.13.22-6.5-.27-9.32,1.41,2.08-.15,4.15-.48,6.14-1.11.89,1.05,2.35,2.01,1.69,3.7-.89.04-2.67.13-3.56.17,2.12.73,4.83,1.16,4.97,3.93,1.57.06,3.14.05,4.71.23.72,1.16.14,2.38-.27,3.54,2.99-.52,7.05-3.33,9.3-.07-.39.58-1.16,1.73-1.55,2.31-1.35.06-2.68.14-4.02.23,2.78.1,5.56.24,8.35.38.95-1.07,1.99-2.06,3.07-3-.55-.93-1.09-1.85-1.64-2.77.16-.4.47-1.19.62-1.59-1.01-1.28-.68-2.66-.03-4-.61-1.2-.99-2.49-.85-3.85,3.41-.3,6.73-1.1,10.07-1.83-.08-.69-.24-2.08-.33-2.78.12.49.36,1.46.48,1.95.92.85,1.58,1.85,1.97,3.02-.85.53-2.54,1.6-3.39,2.13.64.41,1.91,1.25,2.55,1.66-.17.48-.52,1.43-.69,1.9.42.33,1.28.99,1.7,1.32,1.53,3.78-4.3,2.58-6.36,3.5,1.32.82,2.66,1.6,3.95,2.5-.33.85-.68,1.71-1.04,2.56,1.32.09,2.64.19,3.97.29.29-1.13.59-2.23.9-3.35,2.49.22,4.95-.35,7.4-.75.04-.74.14-2.2.19-2.93,3.79-1.26,7.75-1.98,11.75-2.05-.66-1.14-1.64-2.41-.92-3.78,5.04-1,10.17-1.42,15.25-2.14.02-.72.07-2.16.09-2.88,3.23-.87,6.58-1.5,9.94-.95,1.76-.11,1.85,2.03,2.14,3.25,2.86-.09,5.72-.23,8.59-.27.03.75.1,2.26.14,3.02,1.55-.21,3.09-.43,4.66-.63-.06-.55-.17-1.66-.23-2.22.38.63.76,1.27,1.15,1.9,2.38-.09,5.04-.47,6.92,1.35.97.5,1.95,1,2.93,1.5,1.69.03,3.37.05,5.06.09-.1.78-.29,2.32-.39,3.1-4.41.69-8.95.22-13.3,1.39,6.99,1.39,14.11-.41,21.12-.06,2.33.11.58,2.67.33,3.84-.55-.19-1.66-.57-2.21-.76-.65.26-1.3.53-1.95.8,2.5-.24,4.9.27,7.09,1.51,7.2-.64,14.45-1.46,21.66-1.64.18.63.53,1.91.71,2.54.4.27,1.19.81,1.58,1.08-.15.71-.44,2.12-.58,2.83-2.03,0-3.15-1.29-3.13-3.32-1.62.29-3.23.58-4.84.87l-.96,2.76c-1.2-.6-2.27-1.43-2.87-2.67-1.55.04-3.09.09-4.63.16l-2.43,2.61c2.38-.05,4.76-.05,7.15,0,.05.74.14,2.22.18,2.96-1.6.22-3.19.41-4.79.55,0,.23,0,.71.01.95,2.92-.25,5.86-.11,8.77.3.07.64.21,1.91.28,2.55,1.21.08,2.32.42,3.33,1.02.64,2.21-2.15,3.14-3.26,4.59,2.48.52,4.99.9,7.5,1.28.01.56.04,1.66.05,2.22-2.7,1.04-3.25,4.57.16,4.9.06.66.17,1.98.23,2.63-.77.04-2.3.12-3.07.16-1.04,1.32-2.13,2.6-3.21,3.89,3.02-.06,6.05-.39,9.09-.28.02.8.05,2.4.07,3.2-2.57.37-5.17.46-7.75.6,0,.26.02.76.03,1.01,2.97-.15,5.93-.43,8.88-.84,1.29,4.46-4.12,3.65-6.82,4.82,3.15-.3,6.3-.66,9.47-.7.01.76.04,2.26.05,3.01-3.12.62-6.29,1.02-9.46,1.18.14.77.42,2.3.56,3.07,2.55-.41,5.12-1.56,7.73-.99.1.44.3,1.33.4,1.78-1.93,2.19-5.13,2.19-7.81,2.53.33,1.21.65,2.41.99,3.64,2.49.13,5.06-.11,7.49.64.02.73.07,2.2.1,2.93-2.68.03-5.35.04-8.01.06-.11.81-.33,2.45-.44,3.27l3.56.28c.15,1.03.55,2.15-.06,3.13-1.74.48-3.57.19-5.33.21-.82,1.39-1.67,2.76-2.57,4.11.54.04,1.61.12,2.15.16-.58,3.66-4.3,5.57-7.46,6.72,2.31.01,4.62.18,6.92.42-.02.7-.08,2.1-.1,2.8-1.77.12-3.54.21-5.3.3-.71,1.37-1.62,2.62-2.63,3.8,2.74.11,5.46.53,8.14,1.11v2.96c-3.44-.07-6.85-.46-10.24-.98-.44,1.15-.85,2.32-1.28,3.47,1.79.21,3.58.43,5.37.65,0,.68-.02,2.04-.03,2.72-1.95.21-3.91.28-5.85.14-1.37.92-2.71,1.87-4.03,2.85,3.23,3.6,11.77-1.46,12.11,4.9-5.19.77-10.5-.99-15.6.4-.03.6-.08,1.82-.11,2.42,1.59.21,3.18.43,4.77.66-.07.65-.22,1.94-.3,2.59-2.57.51-5.23.19-7.79.73,3.04.67,6.81-.69,9.37,1.37,1.01,3.37-3.34,2.67-5.34,2.63-.5,1.02.2,3.7-1.77,3.4-4.09.62-9.22-2.66-12.17,1.4,2.04-.3,4.06-.7,6.12-.79,1.88-.36,1.5,1.97,1.71,3.11-4.77,1.91-10,.92-14.95,1.79-2.24.41-4.45.9-6.7,1.2,3,.4,5.98.89,8.99,1.25.27,1.46,0,2.86-1.49,3.53l-.26.09-.58-.26c-3.52-.75-7.13-.59-10.7-.88l-.03.69c-.07.71-.22,2.15-.3,2.86-5.21-.52-10.23-2.13-15.4-2.89-.06,1.2.86,2.9-.49,3.69-3.37.05-6.7-.58-10.04-.92-.06-.75-.17-2.25-.23-3l.31-.73c-3.4-.25-6.79-.6-10.16-1.08.4-1.26.22-3.52,2.18-3.38,1.7.04,3.37.47,5.04.76-6.07-2.12-12.7-1.74-18.82-3.66-1.16-.97-.71-2.85.77-3.2,3.43.34,6.8,1.23,10.26,1.21-6.31-4.02-14.17-2.32-21.15-3.83.02-.77.07-2.32.09-3.09,3.82-.12,7.64.12,11.43.55.04-.2.1-.62.13-.82-4.18-.5-8.45-1.99-12.64-1.3-.06.6-.16,1.8-.22,2.4-.73-.71-1.53-.75-2.42-.11.78-.67,1.8-1.71.92-2.74-.11-.78-.32-2.34-.43-3.12,2.81-.41,5.66-.06,8.48.01-3.92-2.61-8.98-1.47-13.35-2.79.09-.87.28-2.6.37-3.47-2.52-.4-5.12-.55-7.53-1.42-1.07-.64-.09-2.13.05-3.01,2.34-.25,4.66.36,6.99.62-2.51-3.5-7.03-2.62-10.74-2.78-1.48-3.99,3.63-3.91,6.14-4.19-1.63-1.98-5.35-2.26-6.79.06-.02-.33-.04-.98-.05-1.31-1.29-.75-1.93-1.92-1.91-3.52,1.93-.07,3.88-.12,5.82-.26-.87-1.44-2.49-.76-3.79-.69l-.14-1.32c-1.1.25-2.18.65-3.29.81.15-1.23,1.81-1.39,2.59-2.11-1.5-.49-3.04-.77-4.62-.84-1.14-3.82,3.31-3.99,5.93-4.07-2.56-.81-7.48-1.07-5.77-5.01,1.47.2,2.93.41,4.41.63-1.5-2.58-4.17-4.64-4.57-7.73,1.21-.33,2.43-.66,3.64-.99-1.15-1.15-2.36-2.23-3.41-3.46.22-1.59,1.19-3.13.83-4.74-.79-.73-2.33-.84-2.73-1.84,2.63-2.49,6.31-3.22,9.75-3.84-1.46-.09-2.92-.18-4.37-.28.23-2.82.23-5.89,2.18-8.16,1.94-.54,2.52,1.36,3.33,2.66,1.81.55,3.63,1.07,5.45,1.58.57.71,1.13,1.44,1.7,2.17,2.06-2.8,5.14-4.56,8.53-5.16l-3.36.24c-1.24.79-2.49,1.58-3.71,2.4-.36-.79-1.08-2.36-1.44-3.15-1.35.99-2.75,1.91-4.22,2.71-.9-2.14-1.87-4.25-3.16-6.17-2.11-.2-3.6-1.41-4.05-3.48-1.75-.44-3.06-1.54-3.59-3.28-1.17-.15-2.33-.33-3.48-.54-.34-.96-.61-1.94-.81-2.93-1.99-.38-4.82.52-5.67-1.97-2.3.52-6.16-.38-6.55,2.75-.09-.47-.28-1.41-.37-1.88-3.05.6-6.07,1.55-9.2,1.52-.88-1.06-1.7-2.16-2.46-3.3-.16,1.49-.27,3-.51,4.49-.12-1.17-.19-2.34-.22-3.51-4.17.95-8.31,2.14-12.21,3.94-.99-.57-1.98-1.13-2.97-1.69,2.31-1.93,5-3.36,7.93-4.07,6.01-1.57,12.01-3.22,17.99-4.92-3.07.27-6.24.29-9.13,1.49-2.33.78-4.5,2.25-7.01,2.32-1.68-2.64,1.12-3.93,3.07-4.9-2.65.19-5.3.28-7.96.22-2.63-3.4-6.45-.72-9.88-.67-.38-.49-1.14-1.48-1.52-1.98-2.12-.4-6.96.63-6.26-2.91.36-.44,1.09-1.3,1.46-1.73-2.73,1.13-5.67,1.51-8.58,1.78-.13-.64-.38-1.91-.51-2.54-2.12.25-4.24.46-6.36.64.07.44.2,1.31.26,1.75-.59-1.68-1.1-3.4-1.25-5.18-2.07.91-4.48,1.09-5-1.67-1.12.11-2.24.24-3.35.36-1.25-3.99-5.69-1.44-8.65-1.72.8-.7,1.6-1.4,2.39-2.1-1.95-.64-3.46-1.98-5.02-3.24-.75-1.17-1.48-2.36-2.11-3.58-1.27-.34-3.67-.72-3.08-2.63.91-1.55,3.06-1.03,4.55-1.53-2.24-.37-4.29-1.32-6.19-2.53-1.63-2.37-2.75-5.03-2.69-7.95-4.68-.96-8.79,1.84-13.27,2.6,2.37-.16,4.77-.61,7.13-.16.26,1.57-.31,3.09-2.06,3.23-6.59,1.3-12.93,3.59-19.04,6.36-1.97,1.31-4.03-.37-3.5-2.55-1.16-.07-2.28-.3-3.35-.68-.57-2.42,1.64-3.94,3.7-4.41-1.21-1.88-.83-3.97,1.34-4.9-.54-.82-1.07-1.63-1.59-2.44.31-.46.92-1.38,1.23-1.84-.67-.19-2.01-.57-2.68-.75-.28-3.22,3.31-3.14,5.53-3.9-1.1-1.72-2.99-3.43-1.85-5.63-1.61-1.37-1.73-2.98-.34-4.55.92-2.6-.21-5-1.21-7.35,1.41-1.87,4.12-2.42,6.11-3.66-2.21.86-4.44,1.65-6.77,2.08.02-1.49.28-2.93.96-4.25-.32-.59-.95-1.78-1.27-2.37,2.19-1.25,4.42-2.45,6.64-3.65-2.14.92-6.7,4.02-6.75-.37,1.78-1.41,3.98-2.24,5.54-3.94-2.12.29-6.18,2.83-6.29-1.02,1.8-2.09,4.93-2.2,7.01-4-1.93.4-3.8,1.02-5.65,1.67-.41-.71-1.21-2.12-1.62-2.83,2.34-1.19,4.85-1.98,7.25-3.01-.93-.16-2.79-.48-3.72-.63.06-1.87,1.22-3.26,2.45-4.52-1.33-.03-4.17,1.44-4.25-.71-.81-1.95,2.01-2.39,3.17-3.26-1.8.04-3.75-.45-3.01-2.7,1.27-.96,2.71-1.67,4.11-2.42-.11-.32-.34-.96-.45-1.28-1.52.28-3.19,1.92-4.63.61-1.29-2.6,2.16-3.45,3.75-4.6-1.81.61-3.74,2.57-5.66,1.55-1.63-1.37.07-3.21,1.63-3.44-1.45-.18-2.88-.47-4.29-.79,1.08-1.67-.73-2.98-1.47-4.34-2.2-1.28-4.07-3.01-5.88-4.76-1.99,1.3-3.95,2.65-5.93,3.97-.13,1.03-.26,2.05-.39,3.09-.67.18-2.02.55-2.7.73-.25,3.19-3.44,3.85-5.89,4.84.17.72.51,2.15.68,2.87-1.24.47-2.48.94-3.71,1.42.31,1.18.64,2.36.87,3.57-2.19,1.07-4.5,1.9-6.58,3.2.96,1.15.99,2.27.07,3.37-2.17,1.3-4.46,2.38-6.53,3.86,1.33.13,2.66.26,3.99.4-.04.71-.13,2.12-.18,2.82-2.63.66-5.64.91-7.53,3.09,1.89.19,3.79.33,5.69.46.04.78.11,2.33.15,3.11-3.6.28-7.21.1-10.81.36-.05.27-.15.82-.19,1.09.89-.25,1.79-.46,2.7-.64,1.22.48,2.49,1.08,2.15,2.66-2.52,2.1-6.31,1.1-9.1,2.82,3.42-.13,6.81-.73,10.21-1.11.03.75.1,2.25.13,3,1.43.5,2.11,1.74,2.61,3.08-.66.18-1.97.54-2.63.72,1.36.61,3.89,1.45,2.35,3.31-1.52.62-3.11,1.09-4.69,1.55,2.79.07,5.59.24,8.37.51,0,.83-.02,2.51-.03,3.34-3.39-.16-6.8-.26-10.18.11l.87,1.42c5.05-.12,10.24-.38,14.91,1.96-.49-.11-1.46-.32-1.94-.42l-1.4,2.52c-2.49-.32-4.98-.56-7.48-.69.01.45.02,1.36.03,1.82,3.4.28,6.87.24,10.2,1.1.21.53.63,1.6.84,2.14.47,1.24,2.19,2.55.85,3.84-3.57,1.13-8.97-1.98-10.53,3.21,1.03-.05,3.11-.15,4.14-.2.01-.43.04-1.28.05-1.7l.02,1.57c2.06-.1,4.12-.21,6.18-.37-.5,1.23-1.08,2.44-1.85,3.53-1.88.44-3.82.43-5.74.56.03.53.1,1.59.13,2.11,2.32-.24,4.66-.26,6.96.21l-1.56,1.69c1.09.58,2.21,1.13,3.36,1.62-3.98-.66-7.99.05-11.9.76,1.9,2.69,5.91,1.02,8.75,1.69,2-.15,1.76,2.91.15,3.45-2.56.23-5.84-1.05-7.4,1.71,3.68.13,7.37.13,11.03.61-.15,1.05-.29,2.09-.44,3.15-2.57-.01-5.15-.1-7.72-.21l.28,1.58c-.38-.48-1.14-1.43-1.52-1.91-.23,1.28-.45,2.57-.66,3.87,1.49.12,2.99.25,4.49.4l-.08,3.12c-2.08.4-4.21,0-6.3-.05.13,3.27,4.2,1.86,6.31,2.54.59-1.18,1.1-3.81,3.02-2.61,2.23,1,.21,3.85-1.78,3.56-.46,3.87-4.99,1.94-7.53,2-1.34,1.04-2.67,2.09-4.01,3.14,2.93,0,6.01-.42,8.81.66-.01,1.01-.06,2.02-.15,3.04-3.13-.12-6.27-.26-9.4-.35-1.14,1.37-2.3,2.72-3.45,4.08,3.11-.39,6.25-.58,9.39-.45l-.08,3.16c-2.87.25-5.75.49-8.62.76v1.68c2.44-.32,7.82-1.84,6.58,2.42-3.28,1.28-6.94.75-10.3,1.73-.26.46-.8,1.37-1.06,1.83,3.84.49,7.46-1.62,11.25-1.15.54,1.86.26,4.04-.74,5.69-4.07,1.84-8.6,2.29-12.87,3.46,1.61.77,4.62,1.11,4.16,3.59-.82,1.78-2.74,1.46-4.26,1.05-2.92.65-6.02,1.12-8.44,3.04,2.53-.26,4.99-.91,7.49-1.39,1.99-.78,1.81,1.76,2.02,2.96-4.77,2.05-11.52.98-14.43,6.1-12.23,4.16-25.75,4.44-37.18,10.78-.99-.43-1.76-1.17-2.3-2.22-3.11.69-6.95-.05-9.33,2.5-1.39,1.23-2.69,2.56-4.03,3.85-1-.85-3.3-1.77-1.63-3.27,1.86-2.2,4.15-3.99,6.21-5.99-2.73.52-5.5.43-8.21-.13-1.23,1.25-1.97,3.44-4.17,2.79-1.62.44-4.27-.85-2.94-2.73,3.15-2.67,7.28-3.76,10.54-6.28-4.31.45-8.67,1.05-12.67,2.8-1.7.87-3.62.81-5.47.83.35-1.09.7-2.18,1.05-3.26-3.4-1.68-6.02,1.8-9.27,1.43-2.04-3.39,3.05-4.24,4.91-5.87-3.4-2.89-7.25,2.56-10.74.55-1.86-2.63,1.4-3.29,3.35-3.63-.06-.71-.17-2.14-.23-2.86-2.76-.14-5.19,1.05-7.61,2.18-2.67.07-2.25-2.97-.44-3.98-.07-1.35-.15-2.7-.23-4.03-.61.55-1.23,1.1-1.85,1.67-.6.26-1.79.8-2.38,1.06-.6-.79-1.2-1.58-1.79-2.36,1.15-1.24,2.18-2.58,3.05-4.03-1.08.18-2.17.34-3.26.46-1.63-1.47-2.33-3.72-3.4-5.59-.52-.25-1.55-.75-2.07-.99-.33-1.28-.65-2.54-.98-3.8-1.11-.55-2.23-1.1-3.35-1.64.93-1.3,1.83-2.61,2.71-3.93-.99-.11-1.97-.19-2.96-.28-1.2-.06-2.77-.07-3.05-1.59.33-1.02.98-1.79,1.97-2.31-.52-1.6-2-3.08-1.57-4.83.87-.65,1.77-1.28,2.68-1.87-1.38.02-4.26,1.02-4.27-1.28.15-2.14,2.84-3.01,3.57-5.02-1.58.03-3.17.06-4.75.11-.06-.8-.17-2.41-.23-3.22,2.37-.15,5.09-.55,5.47-3.34-2.18.38-4.46,2.43-6.58,1.45-1.4-2.17,1.01-3.4,2.67-4.06.31-1.17.62-2.33.9-3.5-1.56.69-2.45,2.2-3.87,3.07-2.2.2-2.54-2.55-1.37-3.9-1.76-.04-2.84-2.06-1.61-3.43,2.13-1.11,4.45-1.78,6.71-2.53.48-1.08.97-2.14,1.48-3.19-1.26.61-2.67,1.77-4.11.85-1.44-2.76,2.22-3.69,3.36-5.59-.45-.45-1.36-1.34-1.82-1.79-1.07-3.9,6.05-.74,4.66-4.83-.85.04-2.56.11-3.41.14l.12-2.96c1.33-.57,2.42-1.45,3.26-2.65-2.2,1.56-5.13-1.4-3.1-3.29.62-.18,1.86-.55,2.48-.73-.13-1.21,0-2.37.43-3.47,3.75-2.46,9.09-1.99,12.12-5.47-1.73.12-3.45.31-5.16.51.45-3.09,3.22-4.5,5.79-5.63-.18-1.36-.37-2.72-.56-4.07.8-.31,1.6-.62,2.39-.93,3.24-1.16,6.39-2.68,8.99-4.98-.27-.91-.8-2.72-1.06-3.63,3.96-4.09,9.76-6.02,14.88-8.39.36-.92.76-1.82,1.19-2.71,4.09-1.06,8.34-1.3,12.49-2.09.15-1.39.45-2.94,1.94-3.46,3.58-2.04,7.89-1.65,11.82-1.15.07.78.22,2.34.3,3.12-3.14.16-6.29.12-9.43.33,6.54.99,13.15-.86,19.68-.62,2.42,1.19,4.95.39,7.35-.34l.76,1.14c-1.16-.08-2.23.16-3.21.73l.83-.85c-1.3.17-2.59.34-3.88.52-.83,2.18-3.11,2.22-5.08,2.54.25.18.76.54,1.01.72,5.21-.78,10.46-1.52,15.75-1.21.15,1.16.3,2.31.45,3.48,2.05-.46,4.11-.89,6.18-1.28.18-.44.54-1.33.72-1.77,1.48.58,3,1.09,4.43,1.82-.05.97-.22,1.94-.49,2.88-3.25.43-6.64.68-9.59,2.24,2.71.71,5.64,1.44,8.33.21,3.18-1.03,7.52-2.78,10.07.32,3.26-.37,6.52-.66,9.81-.73-1.09-2.47.89-3.76,2.85-4.66-.65-3.73,3.74-4.18,6.13-5.68-.29-.94-.55-1.88-.79-2.82,1.43-1.16,3.32-1.48,5.01-2.11-.27-.45-.8-1.34-1.07-1.79,1.82-1.72.52-3.64-1.45-4.25.15-.93.3-1.86.46-2.79.44-.13,1.32-.39,1.76-.53.26.3.78.88,1.04,1.17-.25,1.3.27,3.84,2.15,3.06-.43-4.58,5.34-4.22,8.29-5.7-.52-1-.93-2.03-1.24-3.09.62-1.08,1.87-1.53,2.82-2.25-.93-3.08,1.9-4.14,4.22-5,.01-.67.02-2,.03-2.67,4.41-2.38,9.6-1.88,14.07-3.88-3.25.07-6.31,1.53-9.56,1.44-1.63-3.29,2.21-3.73,4.4-4.21-.62-.9-1.24-1.79-1.85-2.68-2.67.98-5.65,1.6-7.59,3.86-.6.01-1.78.03-2.38.04-.04-1.36-.81-3.28.81-4.06,2.53-1.51,5.45-2.16,8.12-3.35-5.14.49-9.87,2.59-14.66,4.34-2.97-2.6,1.7-4.78,3.85-5.55-2.75.3-5.41,2.22-8.17,1.25.03-.79.08-2.35.11-3.14-1.79.49-3.83,2.79-5.57,1.04.04-.88.13-2.62.17-3.5-.73.59-2.19,1.76-2.93,2.35-1.91-.12-2.66-1.87-2.97-3.49-1.62.39-3.21.87-4.86,1.12-1.09-.91-1.24-2.44-1.83-3.63-1.01.85-1.91,1.81-2.67,2.89-1.66.08-3.32.12-4.98.15.31-1.53.65-3.04.92-4.57-.88.92-1.15,2.17-1.49,3.36-2.38.46-5.41,2.03-6.6-1.15-2.95.72-5.47,3.2-8.52,3.16-1.2-1.54-.2-2.82.9-3.96-4.53,1.76-9.22,3.07-13.64,5.11-1.17.38-2.57,1.43-3.76.52-.2-.65-.59-1.95-.78-2.59-2.18.96-4.3,2.45-6.76,2.43-.28-.71-.85-2.11-1.14-2.82-1.72.71-5.42,3.5-5.91.24.89-2.97,4.93-3.27,7.04-5.26-3.2,1.82-6.58,3.3-9.92,4.84-1.38-.27-1.12-1.99-1.66-2.96,6.21-3.39,12.79-6.03,19.3-8.8,4.06-1.49,8.07-3.43,12.43-3.84.5.51,1.49,1.53,1.99,2.04,2.96-1.26,6-2.35,9.13-3.11.4,1.06.79,2.12,1.18,3.19,3.13-1.21,6.38-2.13,9.75-2.32.08.81.23,2.41.31,3.21,3.15-1.07,6.35-1.97,9.58-2.77.58,1.12,1.18,2.23,1.81,3.33,1.73-.45,3.46-.88,5.2-1.31-.38-.84-1.13-2.53-1.51-3.37.66.98,1.19,2.04,1.7,3.12.65.09,1.96.29,2.62.39-.02.71-.05,2.13-.07,2.84,1.51-.45,3-.94,4.55-1.22,2.2-.11,1.11,2.83,1.11,4.08,2.01-.84,4.05-1.64,6.03-2.56,1.34.92,2.08,2.21,1.98,3.89,2.21-.61,4.44-1.4,6.76-1.37.55.85,1.08,1.72,1.57,2.6,1.4-.33,2.79-.66,4.19-.98-.11-.68-.32-2.05-.43-2.73,4.22-3.72,9.52-5.7,14.69-7.69-3.51.71-6.58,2.66-10.01,3.59-3.07-1.82.29-3.59,1.98-4.69-.61-1.49-.29-2.98.38-4.38,1.52-.58,3.03-1.19,4.55-1.8-.3-.45-.88-1.36-1.17-1.81l.6-2.44c.65-.08,1.96-.26,2.61-.34-2.76-4.63,3.06-6.36,6.36-7.41-.65-1.04-1.5-2.4-.26-3.42,3.03-1.51,6.3-2.48,9.53-3.49-1.25-.27-3.13-1.33-1.97-2.85,2.76-1.76,6.04-2.9,9.34-3,.41,2.64-1.81,3.81-3.84,4.77,1.75-.33,3.83-1.73,5.47-.49.4,1.87-.5,3.81.07,5.71.57-.91,1.13-1.83,1.68-2.75,1.91-.66,3.84-1.29,5.78-1.89-.87-.11-2.61-.34-3.48-.45-2.14-3.09,2.24-3.79,4.22-4.82-2.31.67-7.41,3.25-6.92-1.11,2.75-1.98,6.27-2.3,9.25-3.8.65-1.73.45-3.92,2.18-5.03-.19-2.14-.79-4.24-.72-6.39.81-1.31,2.56-1.39,3.76-2.17-.5-.22-1.5-.67-2-.89.88-2.52,2.54-4.52,5.29-4.97,4.4-6.18,12.44-7.17,19.24-8.99,3.36.68,1.17,3.77-1.13,4.22,3.55.09,7.63-2.43,10.64.32,3.16-1.18,6.48-2.36,9.91-2.07.16.73.46,2.18.62,2.91.76.22,1.52.44,2.29.67.26-1.19.59-2.35,1.01-3.48,2.63-.85,5.37-1.22,8.07-1.79.2-.52.6-1.58.79-2.1,3.3-.44,6.42-1.59,9.64-2.32.56.3,1.66.89,2.21,1.18,5.02-.25,9.98-1.12,14.96-1.76,1.82-.54,3.28.4,3.73,2.21,3.31-1.92,7.1-2.65,10.57-4.21-2.94.53-5.83,1.34-8.82,1.45-.65-1.94-3.43-3.76-2.31-5.89,2.54-1.22,5.32-1.81,7.96-2.79-4.3.08-8.48,1.21-12.76,1.4-.22-.74-.66-2.23-.89-2.97,2.23-.51,4.48-.93,6.71-1.4-1.96-.04-3.92-.03-5.87-.09-1.35-2.52-4.37-4.74-2.82-7.9.83.1,2.48.3,3.31.39.11-.64.34-1.94.45-2.58.66-.21,1.98-.63,2.64-.83-.1-3.12-3.41-2.29-5.55-2.8,3.8-5.74,11.84-4.4,17.23-7.61-5.05.56-9.79,3.31-14.98,2.27-.23-2.34,1.94-3.15,2.8-4.94-1-1.72-4.79-3.03-2.2-5.17,2.27-.74,2.53,2.11,3.55,3.42,1.48-.64,2.98-1.25,4.5-1.81-.28-1.03-.56-2.05-.82-3.08-.67-.03-2-.08-2.67-.11.19-1.09.39-2.17.6-3.26-2.24.48-4.35.07-4.76-2.54-2.86.32-5.68.86-8.49,1.44,1.92.14,3.47.89,3.67,3.01.58.23,1.73.68,2.31.91-.08.75-.23,2.25-.31,3-2.05.07-3.95-.5-4.12-2.84-1.86-.42-3.52-1.22-3.73-3.33-2.21.43-4.59.33-4.07-2.7-4.43.93-8.85,1.94-13.15,3.37.85.11,2.56.33,3.42.44.47,1.22.51,2.48-.17,3.63-3.91-.6-7.69,1.01-11.59,1.02.69-1.58,1.9-2.83,3-4.12.13-.94-.81-2.33.27-2.9,3.52-1.87,7.52-2.48,11.36-3.41-2.4.27-4.77.74-7.16,1.05-2.85-.37-.87-3.41.85-3.9-.12-1.87.62-3.45,2.59-3.92-.02-.62-.07-1.86-.09-2.48,1.59-.69,3.19-1.37,4.78-2.06-.09-1.33-.42-2.71.02-4.01,1.48-.73,3.15-.89,4.75-1.27.12-1.08.24-2.17.36-3.25,1.23-.27,2.47-.53,3.7-.79-.36-.94-.71-1.87-1.06-2.8,2.87-1.48,5.98-2.42,9.13-3.1-.33-1.49-2.72-3.32-.96-4.56,3.32-.69,6.71-1.07,10.07-1.56-.97-.71-3.57-.86-2.94-2.6.12-1.44,1.87-1.31,2.89-1.43,5.57-.07,10.75-2.34,16.21-3.1,3.06-.25,6.11.28,9.16.4,0,.81,0,2.43,0,3.24,2.72-.5,5.43-1,8.17-1.41Zm-17.24,3.01c1.65.7,4.86.27,5.51-1.42-1.71-.67-4.48.15-5.51,1.42Zm-21.47,7.11l.88.03c1.23-1.14,3.05-1.12,4.55-1.75,1.32.06,2.41-.34,3.24-1.21-2.68,1.1-7.25-.12-8.67,2.93Zm-17.45,18.41c.32,1.24,1.11,1.44,2.4.59-.32-1.25-1.12-1.45-2.4-.59Zm9.65,5.82c-.49.15-1.47.46-1.96.62,1.58-.2,3.17-.48,4.77-.37.9,1.03,1.67,2.29,3.02,2.8-.69-1.27-1.59-2.49-1.46-4.01-1.48.23-2.95.51-4.37.96Zm16.39,4.21c.56.96,1.05,1.95,1.34,3.04,1.57,0,3.14,0,4.72.01l.44-2.28c1.09-.64,2.2-1.27,3.29-1.93-3.29.15-6.53.76-9.79,1.16Zm61.82,5.12c-1.3,2.49,3.68,1.76,3.33-.14-1.14-.71-2.25-.66-3.33.14Zm-61.2,4.97c.95.33,1.9.66,2.86.99.19.84.38,1.68.58,2.52.33-1.3.72-2.58,1.15-3.85-1.53.12-3.06.24-4.59.34Zm64.98,2.2c2.99.42,6.02.12,9.03-.1-2.92-1.22-6.07-.48-9.03.1Zm-67.55,1.54c-.74.06-3.04,1.41-1.43,1.98,1.73.95,4.51-2.58,1.43-1.98Zm73.56,5.46c2.99.4,6.02.23,9.02-.05-3-.36-6.04-.49-9.02.05Zm5.03,3.67c1.69,2.25,3.91,3.86,6.87,3.63.94,1.07,1.92,2.12,2.93,3.14-.22-3.02-4.48-3.59-4.61-6.74-1.73-.03-3.46-.03-5.19-.03Zm11.78,7.69c.34.55,1.03,1.64,1.37,2.19,1.65-.02,3.3-.16,4.93-.5-1.97-1-4.12-1.49-6.3-1.69Zm-73,10.4c.5,2.86-2.62,3.8-4.77,2.71.51,2.18-1.23,3.22-2.99,3.82,2.31-.13,4.51-1.04,5.85-2.99.72.04,2.14.13,2.85.17.08-.74.22-2.23.3-2.97.85-.43,1.59-1,2.22-1.71-1.16.29-2.32.62-3.46.97Zm-14.5,4.47c.88.65,3.4.87,3.51-.55-.9-.66-3.39-.82-3.51.55Zm101.04-.42c-.07,1.46,3.45,1.35,3.41-.05-1.16-.69-2.3-.67-3.41.05Zm-71.13,20.83c.08.66.22,1.99.3,2.66-.26-.96-.51-1.91-.75-2.87-1.84.52-3.68,1.01-5.53,1.49-.14.55-.41,1.65-.55,2.2-8.04,2.76-16.35,4.73-24.24,7.91-1.38.84-2.7.1-3.28-1.27-1.79,1.04-5.57.62-5.12,3.56-.04-.47-.11-1.43-.15-1.9-1.95.47-3.88,1.04-5.86,1.32-1.02-2.22-3.24-1.52-5.14-1.31-.11-.75-.32-2.23-.43-2.98-.77.44-1.54.88-2.3,1.33l1.6.96c2.39,2.62-1.87,3.88-3.81,4.33-1.52.81-2.35-.68-3.16-1.66-1.25.45-2.51.89-3.77,1.31-1.51-.93-3.3-1.38-4.94-.46-4.02,1.61-7.91,3.58-12.05,4.91,1.39-.13,2.79-.25,4.19-.38.11,1.49,1.25,3.39-.42,4.42-2.55,1.66-5.62.5-8.37.2l.4-1.66c-2.19,1.24-4.44,2.38-6.72,3.45,2.87-.37,5.79-1.84,8.63-.59-.2,3.98-4.97,2.96-7.52,4.54.92,1.7,4.32,1.78,3.5,4.27-1.05,1.87-3.1,5.06-5.48,3.02-.85-2.1,1.08-3.15,2.68-3.86-2.37.56-4.58,1.58-6.84,2.44,1.63-.07,4.08,0,3.42,2.39-2.69,1.63-5.54,3.22-8.51,4.36-.44-1.01-.88-2.01-1.32-3.01-4.6,1.44-2.17-4.2-4.29-6.26-.61.96-1.22,1.92-1.8,2.9-1.42.27-2.84.49-4.28.44,1.02.69,1.88,1.57,2.66,2.54-4.61,3.7-11.81,2.99-16.29,7.12,2.07-1,3.03.65,4.32,1.87,5.23-3.34,11.03-5.49,16.88-7.46.51.66,1.52,1.98,2.02,2.64-4.35,2.55-9.4,3.52-13.74,6.09-4.31,2.49-8.61,4.97-12.99,7.32.5-.07,1.52-.21,2.03-.28,3.77,1.44.19,4.29-2.19,4.4,2.13.1,4.43.01,5.93,1.79,1.35-.93,2.85-1.57,4.42-2.04.03-3.48,3.85-3.8,6.42-4.49.17-.63.49-1.87.66-2.5,2.79-.77,6.55-2.81,9.03-.67.93-.78,1.92-1.48,3.01-2.03-.27-.42-.8-1.27-1.07-1.69l1.36-1.92c-.37-.51-1.11-1.53-1.48-2.03.27-.48.81-1.42,1.08-1.89,1.37-.11,2.49.53,3.26,1.65-2.43,1.83,1.25,6.36-3.05,6.17,1.1,1.72,1.68,4.27.35,6.03-3.6.86-7.38,1-10.82,2.46,4.65-.73,9.39-.98,13.95-2.26,1.58-1.01,3.77.94,2.65,2.55-2.51,1.72-5.66,1.6-8.56,1.78,2.61.22,5.24.13,7.78-.58,2.01-.41,2.3,1.55,2.43,3l1.05-.31c-.68,1.15-.49,3.52-2.3,3.3-2.44.8-7.06-1.03-7.46,2.66,3.84.14,7.53-1.24,11.35-1.49.17-.22.5-.64.67-.86-.82,2.35-.07,4.81.03,7.21,2.72-.67,5.49-1.23,8.3-1.39,1.01.69,1.28,1.64.82,2.85-1.58.7-3.26,1.1-4.88,1.7,4.06.15,7.97-2.72,12.02-1.62,2.2,1.37-.12,3.62-1.91,3.76,2.05-.39,4.1-.75,6.13-1.21,1.28,1.09,2.54,3.42.11,4.11-2.32,1-4.95.13-7.35.84,2.65.94,5.28.09,7.84-.66,2.03-.41,5.38-1.11,5.74,1.83,1.58-.09,3.17-.03,4.75.27-.02.77-.05,2.31-.07,3.08,3.03-.64,5.9-1.87,8.91-2.6-1.14.02-2.28-.03-3.41-.13-1.32-3.19,2.12-3.91,4.34-4.67-4.32.25-1.9-6.48,1.61-4.1-1.07-2.49-.15-4.95,2.86-4.71,0-.43.01-1.3.02-1.73l.2,1.65c9.4-2.21,18.99-3.66,28.26-6.35-7.89-.24-15.53,2.38-22.93,4.79-1.9-.98-1.87-2.91-1.73-4.78.89.15,2.67.44,3.56.58-.12-.44-.35-1.33-.47-1.77.3.34.91,1.01,1.21,1.35,2.55-.79,5.08-1.67,7.67-2.37.3-1.18.31-2.63,1.68-3.1-.46,1.04-.93,2.06-1.42,3.09,1.39-.28,2.79-.56,4.19-.83-.5-.81-1-1.62-1.49-2.43.9-1.33,2.26-2.14,3.9-1.96,5.26-.28,10.4-1.6,15.35-3.35-.55-1.53-.88-3.11-1.07-4.72l.41,1.83c1.54-.19,2.17-.87,1.88-2.03.66-1.44,1.28-2.9,1.86-4.37l-2.2.71c.86-.83,1.69-1.69,2.47-2.61-.06,2.53-1,4.9-1.85,7.25,2.5-.98,5.11-1.63,7.75-2.1l-.43-1.11c.34.21,1.04.61,1.38.81,1.92-.55,3.87-1.02,5.83-1.41-.02-.43-.05-1.28-.07-1.71l.25,1.56c6.37-1.1,12.57-3.02,18.95-4.1.12-.64.37-1.92.49-2.55,1.19-.5,2.37-.99,3.56-1.49-.22-1.35.01-2.59.69-3.72-.19-.47-.57-1.42-.76-1.89,1.8-3.91,7.01-3.18,10.45-4.62-3.5-.3-6.66,1.49-9.99,2.21-2.14-.77-.8-3.5.73-4.21-1.97,1.22-3.98-.55-3.56-2.68-2.19.81-4.91.33-4.37-2.61,2.3-.97,5.15-.8,7.1-2.46-3.14.36-6.04,1.66-9.07,2.44-2.29.29-1.81-1.88-1.51-3.32-2.15,1.04-3.77-.53-3.53-2.67-.67.02-2.01.05-2.67.07-.08-.7-.22-2.11-.29-2.81-1.92.32-3.33-.69-2.89-2.76-2.21.35-3.64-.92-3.22-3.27h-1.4c.06.67.19,2.01.25,2.68-.15-1.83-2.29-3.91-1.18-5.53,3.32-1.62,7.12-1.86,10.62-3-5.61-.76-10.34,3.71-15.89,3.22l.03-.47,1.32.09c-.33-1.53-.9-2.97-1.71-4.3-1.23.38-2.46.74-3.65,1.23Zm-102.98,5.21l.1.61c1.92-.54,5.71-3.54,6.3-.1-.7,3-4.73,2.88-7.09,4.01.06,1.24.11,2.49.18,3.74-.72.14-2.15.42-2.87.56,1.19.93,2.79,1.82,2.07,3.61-1.95.96-4.02,1.64-5.85,2.82,2.16-.26,4.9-1.97,6.43.46,1.14.48,2.26-.94,3.33-1.31-1.07-1.19-1.13-2.98.57-3.55,5.72-3.47,12.02-5.83,17.96-8.88-.07-1.4-.24-2.78-.51-4.14-1.73.32-3.42.81-5.1,1.27-.76-.94-1.2-2.02-1.33-3.23-4.72,1.41-9.45,2.78-14.19,4.13Zm63.78-.64c3.2.2,6.21-1.03,9.02-2.42-3.2-.26-6.02,1.63-9.02,2.42Zm-27.91,3.35v.9c4-.34,8.09.31,12.04-.59-3.99-.6-8.03-.15-12.04-.31Zm85.96,3.52c2.43-.49,5.1-.78,7.06-2.45-2.43.58-4.78,1.45-7.06,2.45Zm-126.78,11.57c-.79,1.35,1.61,2.53,2.57,1.58.98-1.45-1.6-2.59-2.57-1.58Zm-35.23,7.84c-2.97.82-5.95,1.64-8.91,2.51,3.9.63,7.37-1.71,10.75-3.31l-1.84.8Zm182.29,2.14c.26,1.29,1.02,1.49,2.28.61-.27-1.29-1.03-1.49-2.28-.61Zm37.01,1c.2,1.26.97,1.5,2.31.7-.22-1.27-.98-1.5-2.31-.7Zm-61.32,15.5c-3.04.71-6.16,1.17-9.06,2.35-2.1.2-4.31.29-5.94,1.79.49-.21,1.46-.64,1.95-.85,10.77-1.9,21.35-4.83,32.2-6.3,2.03-.58,4.93.03,5.93-2.3-8.48,1.13-16.69,3.69-25.08,5.31Zm65.09,2.13c.46.1,1.37.31,1.83.41,2.7-.92-2.25-2.5-1.83-.41Zm-93.05,8.88c5.13.18,10-1.57,14.93-2.72,1.28-.17,2.28-.94,3.16-1.82-6.1,1.25-11.94,3.52-18.09,4.54Zm-222.69-2.51c.21,1.3.96,1.52,2.24.69-.22-1.3-.97-1.53-2.24-.69Zm64.96,5.48c1.29.48,4.14-.44,3.5-2.19-1.3-.55-3.59.74-3.5,2.19Zm-91.44,6.28c2.29-.44,5.24-.83,6.38-3.17-2.25.79-4.39,1.87-6.38,3.17Zm217.17,10.67c2.14-.53,4.3-.95,6.49-1.2.75-.76,1.5-1.51,2.25-2.25-2.91,1.16-5.97,1.96-8.74,3.45Zm68.55,4.11c-12.87,2.51-25.8,4.81-38.55,7.85-.68.29-1.34.62-1.98.98,17.38-3.21,34.69-6.87,52.06-10.15-3.9-.34-7.71.8-11.53,1.32Zm-210.8,24.12c2.63-1.03,4.23-3.56,5.93-5.67-2.09,1.76-4.25,3.49-5.93,5.67Zm45.46,1.61c-.04,1.26-.07,2.53-.09,3.79-.74.53-1.48,1.06-2.21,1.6.82-.14,2.46-.4,3.28-.54.41,1.05,1.66,3.52-.33,3.65-1.58.32-3.26.57-4.35,1.89,1.03.33,4.08,1.72,2.32,3.25-.74,1.02-3.78,1.3-1.95,2.9,2.04.22,4.58-.66,5.89,1.47,4.09-1.37,8.44-2.15,12.27-4.19-2.81-.79-8.29,3.32-8.33-1.78-1.28.57-2.55,1.2-3.88,1.63-1.93.28-1.7-1.69-2-2.97,3.87-2.02,8.11-3.08,12.38-3.86.16-.6.48-1.78.65-2.37-3.36-.98-5.79,4.15-8.72,2.08-.89-3.75,4.23-4.44,6.68-5.79-1.64.27-3.27.59-4.91.86-1.96.82-1.91-1.76-2.27-2.91-1.47.45-2.96.87-4.43,1.29Zm-50.14,4.68c-1.4,1.35-4.35,1.09-4.16,3.78,1.51-.74,3.27-1.34,3.99-3.01,1.14-2.15,3.15-3.68,4.18-5.88-1.79,1.27-4.29,2.49-4.01,5.11Zm97.74-2.65c1.19,3-1.52,4.14-3.78,4.92.78.02,2.35.07,3.13.1,0,.77,0,2.33-.01,3.1,2.66-.23,2.87,2.51,1.2,3.95,1.21.05,2.42.15,3.63.3.22,2.47,2.51,2.36,4.39,2.76,1.68,3.34-3.14,4.3-5.51,3.73-2.41,1.04-7.41.38-7.04,4.04,2.06-.12,5.23-2.28,6.37.52.57,1.16,1.98,1.77,2.13,3.15-.44,2.67-3.41,1.54-5.24,2.05.28.43.86,1.3,1.15,1.74,2.44.08,6.1-2.99,7.46.16.36,2.23-2.36,2.14-3.78,2.75,2.34.02,4.87-.79,7.09.3.63,1.84.2,3.84.31,5.76.7,1.07,1.08,2.24,1.12,3.5-1.73.58-4.9-.35-5.29,2.18,2.43.4,5.81.41,5.5,3.87-1.81.23-3.62.44-5.42.67,2.35,1.66,3.67,4.35,5.8,6.17,2.43-.25,4.75-1.54,6.95-2.64-2.55.44-4.83-.8-3.52-3.61,1.37-.32,3.63.21,3.45-1.96-1.72.78-3.37,1.67-5,2.61-1.88-2.05-.54-4.34,1.73-5.2-1.38.46-3.52,1.39-4.24-.54-.34-2.16,1.92-2.59,3.34-3.44-.59-1.09-1.6-1.75-2.7-2.24-1.89-1.4.4-3.19,1.89-3.16-.01-2.15-.01-4.29.04-6.44-1.9.64-3.57.33-4.65-1.44,1.19-1.52,2.98-2.16,4.72-2.78-1.85-.13-3.5.76-5.19,1.35-2.54-.38-1.49-3.12-.22-4.25-1.38-.31-1.98-1.15-1.81-2.53,2.3-1.72,5.18-2.24,7.83-3.22.05-.35.17-1.04.23-1.39-1.9.76-3.75,3.27-5.94,1.91-1.22-4.74,5.28-3.89,6.84-6.9-1.89.31-3.77.64-5.67.88-.21-.5-.65-1.51-.87-2.01,1.41-1.89,3.73-2.26,5.81-2.99-2.92-.03-5.42,1.53-8.09,2.43-1.68.46-2.96-2.22-1.37-3.11,2.81-1.95,6.39-2.11,9.54-3.25-4.18-1.46-7.39,1.93-11.12,2.73-2.52-.94-.81-3.72.8-4.65-2-.25-4.01-.24-5.99.12Zm37.2.88c1.56.53,3.08,1.84,2.09,3.64-2,.91-4.43.78-6.27,2.04-.18,2.16,3.19,1.01,3.64,3.02.9-.97,2.59-1.66,2.38-3.26.12-2.69,3.26-3.42,5.31-4.21-.64-.67-1.3-1.31-1.98-1.92-1.57-1.44-3.48.46-5.17.69Zm104.39,3.8c-.81.55-1.63,1.1-2.43,1.66,3.03-.64,6.12-.84,9.15-1.48-2.23-.23-4.48-.23-6.72-.18Zm36.41,4.61c3.29-.32,6.51-1.15,9.83-1.2.31-.21.91-.63,1.21-.83,1.05-.1,2.11-.19,3.17-.27-4.82-.3-9.6,1.03-14.21,2.3Zm-282.46-1.25c-.64.78-2.6,3.47-.37,3.64,2.08-.11,1.77-2.82.37-3.64Zm299.14,2.52c2.87-.7,5.94-.64,8.71-1.74-2.97-.62-6.44-.57-8.71,1.74Zm-161.48,1.28c.32.45.95,1.36,1.26,1.82-.3.55-.9,1.66-1.2,2.21.42.89.84,1.78,1.27,2.67-.3.52-.9,1.57-1.2,2.09.28.91.56,1.82.84,2.74-1.6,2.75-.97,6.05-1.48,9.07-.17,2.57-1.11,5.16-.52,7.74,2.18-1.05,5.03-1.08,6.71-2.96-1.68.12-3.36.37-5.04.27-1.88-2.09.65-3.47,2.16-4.54.74.11,2.24.33,2.99.44l-.08-.72c-1.36.12-2.71.2-4.07.23-1.4-2.96,2.39-3.69,4.22-4.83-1.46-.23-5.18,1.33-4.58-1.45-.42-2.39,2.92-2.16,4.41-2.9-.4-.92-1.62-1.68-1.29-2.76.18-2.03,3.05-1.86,3.01-4.04-1.45-.66-1.7-2.55-3.26-3,1.23.2,2.33-.12,3.31-.96-1.38-.48-3.2-.43-3.83-2.02-1.21.28-2.43.58-3.63.9Zm-37.83-.09c-2.75,1.49,1.15,2.82,2.26,1.06,1.58-1.43-1.48-1.88-2.26-1.06Zm-104.11,1.84c-1.2.82-.07,3.52,1.29,2.34,1.03-.89.23-3.63-1.29-2.34Zm178.87,3.36c1.11.16,2.23.31,3.36.44.34,1.05.58,2.12.73,3.22-2.05.35-4.07.83-6.06,1.41,1.55.21,3.11.42,4.67.67.02.66.05,1.98.06,2.64-2.31.98-6.04-.63-7.03,2.38.61-.07,1.84-.21,2.46-.27,1.9-.3,2.6,2.6.94,3.37-1.98,1.29-6.01,0-6.02,3.23,2.37-.24,6.13-2.08,7.57.52.73,5.53-9.03-.61-7.99,5.1,1.44-.37,2.89-.75,4.34-1.12.31,1.01,1.32,2.24.39,3.25-1.67,1.08-3.69,1.49-5.47,2.38,1.76-.02,3.6-.77,5.31-.06-.03.78-.11,2.33-.15,3.11-1.59.52-3.93-.02-4.88,1.65,2.56-.37,6.77-1.33,6.04,2.75-1.31.42-3.16-.01-4,1.34,2.73-.47,4.08,2.41,1.88,4l.09.52c.83-.41,1.66-.81,2.5-1.21-.51-1.85-.16-3.71,1.99-4.16-2.41-1.53-1.46-4.43,1.4-4.45-1.49-.03-3.56-1.56-2.13-3.09,1.09-1.53.46-4.27,3.01-4.28-.5-.81-1.44-1.44-1.55-2.41.09-1.6,1.85-1.98,2.99-2.61-1.72-1.91-.7-3.84,1.65-4.3-.64-.85-1.28-1.69-1.92-2.54.73-.88,1.51-1.72,2.34-2.51.3-2.1.54-4.21.69-6.32.37-.33,1.1-.98,1.47-1.31.34-.92.67-1.85.99-2.78,1.86-.42,3.68-.98,5.4-1.81-2.55-.09-5.31,2.47-7.51.26.71,4.29-5.01,2.36-7.56,2.99Zm16.79.31c2.41.01,4.82-.08,7.22-.28,1.37.42,1.45-2.75-.04-2.06-2.53.22-4.86,1.38-7.18,2.34Zm-124.47-.21c-.31,1.53,3.64,1.5,3.37,0-1.13-.52-2.26-.52-3.37,0Zm-78.37,4.66c2.19-1.33,4.57-2.45,6.42-4.27-2.88-.07-4.95,2.05-6.42,4.27Zm66.1-2.32c3.42.65,3.15,4.53,3.56,7.21-.85.55-1.7,1.1-2.54,1.66.76-.06,2.29-.17,3.05-.23.35,1.75.02,3.63-2.01,3.98.97.75,3.49.7,2.83,2.44-.46,1.45.06,2.47,1.57,3.04-.31,1.26-1.03,2.22-2.17,2.88,2.5-.55,3.67,1.27,2.95,3.51-1.33.1-2.66.2-3.98.32,1.64,4.06,7.61,1.85,9.87-.69-1.58.29-3.43,1.77-4.92.55-1.39-1.41.54-2.55,1.4-3.49-.39-1.04-1.71-2.83-.08-3.47,1.03-.46,2.1-.82,3.2-1.08-1.58-.11-3.77-.23-3.36-2.46,1.73-1.5,3.92-2.33,5.67-3.81-2.04,1.07-6.16,2.41-6.28-1.14,1.57-2.16,4.98-1.96,7.36-2.96.13-.5.39-1.51.52-2.01-2.31.16-4.26,3.31-6.51,1.75-1.41-2.04,1.28-3.38,2.48-4.56-2.65.68-5.02,2-7.39,3.3-1.44-1.01-1.29-2.49-.71-3.94-1.29-.2-2.07-.98-2.34-2.33-.69.44-2.87.12-2.17,1.53Zm-89.31,1.45c1.15.89,2.56,1.2,3.97,1.41.37-.87.74-1.75,1.1-2.63-1.74.17-3.44.59-5.07,1.22Zm9.6.05c.91.99,4.91,1.75,5.4-.03-1.6-.95-3.7-.37-5.4.03Zm215.51.49c-.13.76-.38,2.3-.51,3.06,1.53-.14,4.8-.52,4.44,1.97-.82,2.37-4.23,1.06-5.76,2.89.8,0,2.41,0,3.21.01,1.29.92,2.79,1.35,4.38,1.04.75-.98,1.1-2.5,2.4-2.91,4.09-.58,8.34-.85,12.13-2.68-3.1.57-6.44,1.45-9.49.19-1.71-2.27,1.27-4.07,3.34-2.82-.94-.6-1.88-1.21-2.8-1.82-3.75.69-7.63.33-11.34,1.07Zm-285.45,4.61c-.45.91-.89,1.82-1.34,2.74,8.32-1.88,16.49-5.22,25.05-5.49.56,2.7-1.45,3.67-3.74,3.81-.02.66-.05,1.96-.07,2.61-1.57,1.89-4.17.27-4.99-1.52-4.47,1.12-8.94,2.28-13.34,3.68-5.29,1.21-10.75,1.59-16.01,2.95-1.09.1-2.94,1.21-1.47,2.3,2.12.79,6.26-2.47,6.18,1.73-3.98,3.03-9.81,2.84-13.65,6.43,2.49,1.25,7.3-3.28,7.51,1.28-1.7,2.66-5.74,2.08-8.51,2.99-.23.45-.7,1.35-.94,1.8,1.95.27,4.62-.65,5.9,1.3.71,4.25-6.05.46-5.9,4.38,2.17-.07,6.84.48,4.89,3.75-3.08.02-7.41-.43-9.26,2.63,1.47.07,2.94.13,4.41.18,0,.73.03,2.18.04,2.9-2.95.22-5.58,1.53-7.35,3.93,2.39-.1,4.77-.11,7.16-.05.34,1.98.64,4,.22,6.01-3.56.25-8.64.47-10.41,4.09,3.06-.05,6.13-.48,9.17.1.31,3.58-3.29,3.22-5.82,3.39.17,1.41.35,2.82.51,4.24-.57.82-1.14,1.65-1.71,2.47,2.43.25,5.46-1.12,7.49.54,1.49,2.6-2.62,2.91-4.35,2.88.52,1.9,1.56,3.55,3.53,4.18-.01.92-.02,1.84-.03,2.77,2.72.84,2.07,3.57-.38,4.25.65.45,1.33,2.14,2.25,1.34.93,0,2.79-.02,3.72-.03,1.24,2.38-.64,4.02-3.1,3.67.33,1.53,2.26,1.2,3.38,1.82.86,1.43-.53,2.57-1.13,3.77,1.75.04,3.54-.1,5.28.23.85,2.04,2.86,2.97,4.33,4.47-.49.47-1.48,1.42-1.97,1.89,4.37-.45,8.78-.87,13.18-.65,1.4.51,1.66,2.29.53,3.31-2.85.4-5.74.1-8.6.4-2.18.31-5.19-.2-5.84,2.69,3.32.03,6.63-.36,9.94-.35,1.32-.25,2.24,1.11,2.42,2.24-.36,1.96-2.54,1.04-3.92,1.37-.12.63-.35,1.9-.47,2.54,3.16-.46,6.31-2.11,9.55-1.33,0,.63-.03,1.9-.04,2.54-1.87.66-4.71.73-4.02,3.51,3.67-.93,7.34-1.98,11.15-2.2.23.51.7,1.55.93,2.07,3.68-.18,7.45.41,11.05-.56,3.65-.88,7.83-1.7,11.19.54,2.28.07,4.16-1.29,5.96-2.48,9.98-4.19,21.41-2.93,31.31-7.35-3.07-.39-6.01,2.04-8.98.78,0-.63,0-1.9,0-2.53,4.09-1.26,8.26-2.23,12.51-2.81,0-.62.01-1.88.01-2.5-1.42.91-2.75,2.5-4.61,1.71-1.74-3.19,2.35-4.83,4.82-5.18,2.71-.22,5.07-1.41,7.06-3.22-1.69-.5-4.42-.01-4.61-2.41.36-2.02,2.15-1.69,3.67-1.53.91-1.51.64-3.2.3-4.82.56-.3,1.68-.91,2.24-1.21-.67-2.9,1.21-4.99,2.9-7.07,1.51-.47,3.05-.86,4.53-1.41.32-2.23-2.01-1.59-3.39-1.82-.4-1.03-.64-2.09-.71-3.19,1.91-.18,5.04.36,4.78-2.63-2.2.55-6.19,1.55-5.67-2.1,1.54-.71,3.16-1.23,4.81-1.64.49-.84.98-1.68,1.47-2.51-2.31.31-4.26-.73-6.29-1.57,2.68-.02,1.62-2.25-.42-2.43-1.22-3.14,3-3.29,5.04-3.68.7-1,1.41-1.99,2.12-2.97-2.59.09-5.17,1.23-7.76.67-1.32-1.71-3.4-1.56-5.32-1.57,1.33-.2,2.67-.12,4-.03.07-2.41,2.86-1.65,4.41-2.22.22-.52.68-1.57.9-2.09-1.3.2-2.5-.03-3.6-.67-.55-2.06,1.68-2.96,2.69-4.36-1.89-.35-5.74-.02-4.9-3.06,1.08-1.14,3.05-.51,4.03-1.81-2.35-.2-4.7-.34-7.04-.57-.11-.44-.32-1.32-.43-1.76-.34-2.61,2.4-1.8,3.9-1.42.03-.63.1-1.89.14-2.52-1.3.27-2.54.76-3.77,1.27-2.14.29-1.75-2.79-3.86-2.45.09,3.19-3.72,3.4-5.94,4.4-.18,4.98-6.76,3.29-9.11,6.06,1-.08,2.99-.24,3.99-.32,1.19,2.38-.53,3.71-2.78,4.15.26.98.52,1.96.76,2.95-1.59.35-3.37.24-4.79,1.12-1.25,1.32-1.09,2.65.21,3.82,1.41,3.23-3.31,2.62-4.55,4.71,1.9.03,5.08-1.48,5.66,1.38-1.18,2.94-5.45,1.81-7.85,3.21,3.38,1.89,7.19.32,10.76.05.44,1.26.35,2.62-.3,3.81-2.06.04-4.12.13-6.16.36,2.27.11,4.54-.02,6.8.11,1.38.29,1.68,2.92.17,3.2-3.05,1.02-6.9-.2-9.46,2.02,2.08-.29,4.14-.77,6.24-.95,1.02.81,1.32,1.84.91,3.07-5.08,2.12-11.41,1.16-15.94,4.58,3.99-1.36,8.32-1.32,12.44-2.17,2.66-.67,1.76,2.83,1.94,4.36-.28-.23-.84-.7-1.11-.93-5.27.96-10.54,1.96-15.85,2.66-.12.76-.24,1.53-.36,2.29-.03-.55-.09-1.66-.12-2.22-2.2.38-4.39,1.96-6.66,1.46-1.56-2.31,1.11-3.64,2.75-4.66-.95.24-1.91.46-2.87.64-2,.45-1.53-1.95-1.85-3.02-.86,0-2.57-.02-3.43-.02.14,1.81.3,3.64-.03,5.46.57,1.45,1.22,2.96.23,4.42-1.61.06-3.1-.26-3.93-1.75.38-.52,1.13-1.57,1.51-2.09-1.18-1.51-.91-3.44-.99-5.21-2.29.57-3.13-1.22-2.85-3.19,2.28-.84,5.91.18,6.84-2.68-2.03-.11-4.66,1.75-6.3.01-1.29-2,1.36-2.74,2.56-3.6-2.32.43-4.55,1.19-6.78,1.92-2.09,1.12-2.72-1.66-2.36-3.12-.99-.84-3.12-1.55-2.23-3.27,1.58-1.58,3.84-2.14,5.69-3.34-1.23-.82-2.78-1.63-1.79-3.31,3.44-1.9,7.61-2.2,10.67-4.83-1.58.51-4.18,1.66-4.56-.87-.71-2.49-5.05-3.17-3.23-6.28,3.32-.93,3.07,2.75,4.85,4.36.69-.23,2.08-.67,2.77-.9-.38-.95-1.73-1.8-1.12-2.88.98-2.36,4.33-1.84,5.6-3.88-1.01-.35-2.02-.69-3.03-1.01-1.6,1.73-3.84.86-4.78-1.06-1.67.75-2.12,3.58-4.28,2.97-.67-.52-2-1.57-2.66-2.1,1.29,3.14-1.65,4.91-3.68,6.56-.18.46-.53,1.37-.7,1.83-.52.26-1.56.77-2.07,1.03.87,2.25,2.38,4.11,4.55,5.21.87,2.09-1.07,3.14-2.86,2.43.45-2.32-1.86-3.16-3.66-3.09-.47-.23-1.4-.69-1.87-.92-1.83,1.55-4.04,2.65-6.51,2.34-.03-5.36,5.51-7.84,9.63-9.81,1.18-2.01,3.37-3.06,4.63-4.97-1.88.8-3.54,1.99-5.12,3.27-.65-.8-2.43-1.96-1.31-3.17,2.15-3.37,6.71-3.43,10.27-3.87.07-.68.21-2.04.28-2.71,1.8-.72,3.71-1.08,5.6-1.41.32-1.25,1.33-1.05,2.07-.26,1.83,1.46,3.87-.37,5.76-.73,1.39,1,2.47,2.35,3.64,3.57-.33.87-.67,1.74-1,2.61,1.19-.57,2.37-1.14,3.55-1.72l-1.2-2.16c.86-1.6,2.75-1.62,4.27-2.07.72-.95,1.43-1.91,2.14-2.86.02-1.14.03-2.28.04-3.42,1.4-.35,2.77-.8,4.07-1.42-.58-1.01-1.13-2.02-1.65-3.04.5-2.56,3.51-1.29,5.27-1.67-.18-1.33-.28-2.66-.28-3.99.97-1.45,2.95-1.57,4.42-2.31-2.12-3.24,1.74-4.39,4.27-4.47-2.78-2.25-6.72-1.78-9.57.13-2.29-.66-7.77-.19-5.88-4.01,2.4-.68,5-.04,7.33-1.09-5.29-1.11-10.65.19-15.93.74-2.26-.75-4.63.13-6.9-.31-.58-.95-1.15-1.91-1.7-2.86-2.86.35-5.9,2.08-8.72.73-6.4,1.68-12.94,2.79-19.31,4.63Zm363.48,2.57c-1.29.17-2.58.35-3.87.53,1.7.1,3.51.27,5.07-.6,1.58-.21,3.19-.36,4.79-.53-2.02-.25-4.18-.53-5.99.6Zm-285.46,4.38c.08-.52.26-1.55.35-2.07-2.87-1.59-3.46,4.42-.35,2.07Zm92.77-1.34c-1.34.74-1.38,1.41-.1,2.03,1.35-.74,1.38-1.42.1-2.03Zm-104.08,8.44c2.56-1.1,6.19-.54,8.01-2.88-1.83.33-4.02,0-3.7-2.37-1.57,1.63-3.19,3.25-4.31,5.25Zm-3.72,4.21c1.12.47,2.99-.35,2.92-1.71-.83-2.03-3.81.11-2.92,1.71Zm167.78-2.68c.08,1.22.15,2.44.24,3.67,2.32-.71,4.66-1.44,6.83-2.57-2.02-.32-3.96.64-5.93.89-.29-.49-.86-1.49-1.14-1.99Zm-153.91,3.04c-1.6.26-1.15,2.81.48,1.89,1.57-.3,1.14-2.79-.48-1.89Zm149.72,2.27c.35,1.67,2.28.99,3.47,1.37-.04.77-.12,2.3-.15,3.07-1.11.18-2.2.37-3.29.55,2.75.42,4.01,3.66.76,4.48.03,1.5-.41,3-.33,4.5,1.32.95,2.17,2.11,1.56,3.83-.51.11-1.54.35-2.06.46.83.26,2.48.76,3.3,1.02.92-.69,1.86-1.34,2.82-1.96-1.38-.05-4.4-.49-3.12-2.59.41-2.17,3.59-.97,4.44-2.9-1.54.02-3.07.07-4.59.17.02-.86.05-2.57.07-3.42,2.02-.57,5.34.28,5.93-2.43-2.23,1.31-6.49.63-5.03-2.79,2.13-.41,4.26-.8,6.38-1.31-2.34-.79-6.37,1.57-6.81-2.02-1.12-.03-2.24-.04-3.35-.03Zm-64.53.91c-1.14-.26-3.24,1.3-1.48,2.12,1.73,1.15,4.41-2.5,1.48-2.12Zm-107.69,4.13c.55.89,1.15,1.75,1.8,2.59.86-1.26,1.73-2.51,2.62-3.74-1.46.43-2.95.79-4.42,1.15Zm108.48.82c1.15.23,2.25.66,3.33,1.14,1.53-1.21,3.16-2.28,4.8-3.34-2.87-.02-5.55,1.1-8.13,2.2Zm-8.96-1.05c-.63,1.38-.22,1.84,1.24,1.38.64-1.4.23-1.86-1.24-1.38Zm17.41,2.89c-.35.91-.71,1.82-1.07,2.74.04-.45.14-1.34.18-1.78-1.36.45-2.73,1.18-4.17.65-.04.15-.13.44-.18.59,1.23.91,2.49,1.79,3.79,2.61.53,2.15.79,4.37,1.44,6.49,1.02.93,2.37,1.58,3.01,2.87,2.16,3.79,5.22,7.02,8.64,9.71-.03-.71-.08-2.11-.11-2.82-1.07-.74-2.72-1.46-2.21-3.11,1.81-1.91,4.71-2.19,6.84-3.69-2.95.09-7.58,4.56-9.2.52,1.13-3.25,5.68-1.97,7.48-4.4-2.34.35-5.89,3.22-7.56.51-.11-4,5.67-2.06,7.55-4.69-3.71-1.7-6.55,3.84-10.05,1.93-1.43-3.54,3.89-3.15,4.81-5.73-1.89.66-3.74,1.47-5.75,1.64-.21-.57-.62-1.71-.83-2.28,1.06-.97,2.09-2.04,3.52-2.41-.71-.1-2.14-.3-2.85-.4-1.1.34-2.19.69-3.28,1.05Zm118.21.37c-.94-.1-1.6.27-1.97,1.11,3.72-.35,7.55-.54,10.96-2.27-2.94.76-5.99.84-8.99,1.16Zm-263.77.55c-.53,1.53.04,2.05,1.7,1.57.59-1.58.02-2.1-1.7-1.57Zm22.85,2.55c1.69.5,3.92,1.94,2.11,3.94-1.98.73-5.01-.35-6.31,1.57,1.67,0,3.38-.1,5,.45,3.12-1.22,3.75-4.57,5.26-7.18-2.03.47-4.37-.28-6.06,1.22Zm165.99.06c1.72,1.8,1.21,3.82-.64,5.28,1.77-.03,3.63.47,5.33-.26.01-1.85-.79-3.57-1.06-5.37-1.2.27-2.41.38-3.63.35Zm55.76,1.27c3.15-.13,6.29-.51,9.36-1.24-3.15-1.11-6.68-.9-9.36,1.24Zm16.67.35c.28,1.29,1.04,1.49,2.27.6-.29-1.29-1.05-1.49-2.27-.6Zm-132.73,1.04c.14,2.17-.38,4.3-.57,6.46,2.08-.68,4.18-1.44,6.41-1.31.06.62.16,1.88.21,2.51-2.47,2.23-6.91,1.54-8.71,4.65,3.9-2.04,9.12-1.67,12.12-5.21-3.22-2.34-6.26-4.76-9.46-7.1Zm120.95,1.18c-1.09.25-3.58-.34-3.44,1.41.87,1.85,6.3-1.36,3.44-1.41Zm-61.16,4.94c-.78-.03-3.36,1-1.65,1.73,1.6-.33,3.47-.49,4.84-1.43-.1-1.57-2.33-.52-3.19-.3Zm-175.94,3.49c1.49.37,4.96-.57,4.66,2.03-.96,4.11-6.61-.43-7.96,3.36,1.53-.02,3.06.01,4.59.1,1.67,1.45.38,4.15-1.62,4.45-2.33-1.4-5.59-1.19-7.44.89,1.9-.13,3.81-.14,5.7.15,0,.76.01,2.26.02,3.02.32.01.96.02,1.28.03-.29-.44-.85-1.31-1.14-1.75,2.02-2.66,5.29-3.46,8.36-4.2-.39-1.2-.72-2.42-.98-3.65,1.65-.54,3.43-.95,4.64-2.3-.58-.51-1.74-1.52-2.32-2.02.77-.96,1.64-1.82,2.58-2.61-3.55-.58-7.99-.67-10.37,2.5Zm146.16,9.48c2.41,1.24,4.87-.01,7.23-.58-.48-.42-1.42-1.27-1.89-1.7.56-.99,1.1-2,1.62-3.01-2.89.83-5.93,2.22-6.96,5.29Zm6.19,3.22c.82.15,2.45.44,3.27.58.07,1.05.18,2.09.31,3.14,1.93.17,4.59-.07,5.36,2.22,1.66-.12,3.51-.7,4.74.84,1.25,1.39,3.12.26,4.65.21-2.93-1.21-5.84-2.52-7.86-5.07-1.44.69-2.78,1.66-4.35,2-.46-.63-1.38-1.9-1.84-2.54,1.76-1.43,4.07-1.95,5.82-3.38-3.4.48-6.74,1.33-10.1,2Zm-149.5,0c-1.09,1.88,2.83.81,3.4,0,.06-1.68-2.73-.84-3.4,0Zm281.51.87c-1.07-.04-1.87.74-2.75,1.19,5.82-1.42,11.9-1.68,17.88-2.14-5.08-.72-10.09.63-15.13.95Zm.02,4.14c-4.27.91-8.88-.03-12.86,2.08,9.24-1.49,18.67-1.79,27.92-3.33,2.71-.6,5.68-.16,8.21-1.39,1.26-.22,2.54-.37,3.81-.54-9.03.73-18.03,2.31-27.08,3.18Zm-143.41,1.45c.48.45.96.9,1.45,1.35.93-2.25,4.23-1.12,5.28-3.28-2.3.43-4.52,1.18-6.73,1.93Zm34.39.98c-.19.8-.37,1.6-.55,2.41,2.48.08,6.67-2.38,7.15,1.49.67-1.55,2.01-2.54,3.44-3.34-1.35.08-2.63.47-3.74,1.24-1.95-1.08-4.05-1.8-6.3-1.8Zm13.11.61c.5,1.94,4.26,1.31,5.14-.23-1.72.02-3.43.12-5.14.23Zm7.99,1.01c1.73,1.09,3.77,1.22,5.76,1.07-.03-.62-.11-1.85-.15-2.47-1.92.23-3.79.74-5.61,1.4Zm63.81,3.99c2.79-.64,5.56-1.4,8.28-2.29-2.76.21-6.43-.22-8.28,2.29Zm-18.6.96c2.05,2.39,5.16,1.18,7.82.93-2.59-.44-5.19-.83-7.82-.93Zm-5.85,2.31c-.46,1.24-.91,2.49-1.36,3.74,1.36-.36,2.71-.73,4.07-1.08-.9-.9-1.81-1.78-2.71-2.66Zm11.84,2.78c2.87-1.12,6.17-.74,8.86-2.32-3.01.43-6.21.7-8.86,2.32Zm33.93,4.72c.15,2.86,2.07,4.6,4.91,4.73-.07.69-.22,2.08-.29,2.78-3.2,1.21-4.14-2.01-6.06-3.7-3.16,3.27-7.9,3.29-11.74,5.3,2.68-.68,5.34.31,7.96.83-.01.64-.04,1.92-.05,2.56-4.81,1.65-9.22-2.62-14.08-2.79.49,2.24,3.48.98,4.4,2.96,1.05,1.64,3.05,1.66,4.77,2.04.13.59.39,1.75.52,2.33,1.08-.08,2.16-.17,3.25-.25.13.7.41,2.09.55,2.79,1.33.5,2.07,1.56,2.4,2.92,3.31-.85,7.36-.77,9.86-3.39l2.11.55c-.06-3.45-3.32-4.2-6.15-4.11-.8.53-1.71.71-2.71.54.99-.78,2.54-1.29,2.33-2.92.45-1.74,2.76-.73,3.97-.62.09.75.26,2.26.35,3.02,1.09-.82,2.31-1.31,3.66-1.47.12-.38.37-1.16.49-1.55-.23,1.63.14,3.47-.99,4.87.83,1.68,2.65,1.71,4.25,1.14-.88-2.08.88-3.75,2.93-2.91.11.73.32,2.2.43,2.93,1.89-.22,3.79-.63,5.71-.56,1.85.57.65,2.55.36,3.74,1.87-.71,3.62-1.91,5.64-2.08,1.36.81,1.25,2.42,1.32,3.81,2.06-.17,6.51-2.42,6.83,1.04-1.03,3.77-6.03,1.51-8.86,2.58,2.62.54,5.29.45,7.91-.02,2-.85,3.29.85,3.06,2.77,1.59-.07,3.19-.14,4.8-.18.01.75.03,2.24.04,2.99-1.86.45-3.76.79-5.64,1.17.73,1.86,3,1.12,4.51,1.29,1.17,1.12.74,2.45.07,3.72-.69-.04-2.05-.11-2.73-.15l-.06.8c1.75-.11,4.96-1.77,5.47,1-.59,3.15-5.68.84-6.2,3.62,1.66.22,5.21-.33,4.15,2.49-.82,2.56-5.17-.22-5.54,2.62,1.82-.74,4.78-1.54,5.02,1.33-1.46,3.17-5.99,1.16-8.16,3.61,2.45-.83,4.86.28,4.02,3.17-1.93.33-3.86.65-5.8.87,1.28.03,2.57.08,3.86.17,1.13,2.41,5.45.75,4.68-1.76.36-2.53,4.83-.28,2.95,1.78-1.72,1.2-4.17,1.73-6.31,2l-.66,1.1c-2.89.65-5.95.58-8.72,1.79.81-.11,2.43-.33,3.24-.45.16.65.47,1.95.63,2.6-1.86,1.76-4.73,1.14-7.06,1.64-.04.6-.14,1.8-.19,2.4-.01-.63-.02-1.88-.02-2.51-2.29.34-5.96,1.79-5.38-2.18-2.8.49-5.6,1.63-8.47.95,0-.78.04-2.35.05-3.13,3.03-.53,6.06-1.12,9.1-1.64-5.67-2.04-11.41,3.02-17,1.79-1.6-4,4.18-3.12,6.3-4.69-3.16-.1-6.18.84-9.15,1.79-2.24,1.34-2.75-1.72-2.17-3.19-1.93-.46-3.91-.62-5.81.06-1.01-.89-1.55-3.32-3.36-2.3-1.4,1.63-2.99-.42-4.38-.96-.04-1.74-.41-3.29-2.53-3.17.29-1.27.69-2.51,1.05-3.76-2.15-.7-3.62-2.91-1.03-4.37-2.89.26-2.41-2.53-1-4-.35-1.86-.86-3.72-.88-5.62,1.95-2.35,5.14-3.06,8.02-3.46-1.18-.63-2.36-1.27-3.53-1.9-2.5.82-7.01-1.52-7.64,2.16-2.29.59-4.07,2.68-6.57,2.38-.25.43-.76,1.28-1.01,1.71,1.51,1.02,2.86.66,4-.67,1.37,1.29,4.99,2.11,3.56,4.56-1.39,1.83-3.19-.04-4.6-.72.96,1.53,1.88,3.25.99,5.08.99.33,1.98.66,2.98.99.19,1.58-.37,3.01-2.15,3.2,1.52,1.57,2.02,3.58-.54,4.38,4.21.98,3.13,5.71,4.09,8.91.33.86-.67,1.48-.98,2.21,1.39,1.09,3.87,1.84,2.89,4.08,1.78.38,4.52,1.24,3.15,3.61-2.42,1.09-5.1-.39-7.64-.29,3.25,2.4,8.32.58,11.05,3.66.05,3.27-3,2.33-4.9,1.48,2.57,1.9,5.98,1.46,8.98,2.04.61,1.43.26,2.93-.09,4.39,2.03-.05,4.02.34,5.53,1.81.11,1.21.3,2.4.56,3.59,4.12,1.07,8.42,1.32,12.52,2.48,1.24.93.06,2.37-.27,3.45,5.42,1.87,11.21.7,16.81,1.46.02-.66.07-2,.09-2.66,5.24-1.86,11.13-.17,16.56-1.08l2.32-2.36c-.96.03-2.88.09-3.83.12-.64-.91-1.66-1.93-.88-3.09,3.31-1.5,7.58,1.23,10.44-1.68,2.17-1.9,5.19-2.36,7.83-1.19.08-.31.24-.92.32-1.23-2.68-.26-5.63.98-8.08-.36,0-.77.02-2.32.02-3.09,3.6-.17,7.2-.2,10.81-.18.65-.93,1.32-1.85,2-2.76-1.53.33-3.08.51-4.63.54-1.39-.98-1.02-3.58.86-3.67,2.61-.39,5.44-.57,7.04-3.04-1.33-1.01-3.79-.39-4.33-2.28-.54-.97.6-1.81,1.46-1.95,2.13-.47,5.37-3.32,2.34-5.01l.18-1.52c-1.1-.16-2.18-.35-3.25-.57-.36-1.61,1.98-.99,2.93-.61,2.58,1.51,4.2-2.03,5.7-3.48-1.88.1-3.74.26-5.61.42-1.29-1.71-4.32-3.48-2.13-5.7,1.56.05,2.87.71,3.78,2,2.43.38,6.14-1.18,4.03-4.1-1.67.03-3.34.07-5,.07-.02-.78-.07-2.34-.1-3.12,2.35-.42,4.73-.47,7.11-.32-.86-1.07-1.72-2.14-2.55-3.21-3.84,3-4.9-3.31-1.55-4.49-1.89.31-3.08-.37-3.58-2.02,1.57-3.03,5.28-3.24,8.25-3.62.03-.19.07-.57.09-.77-2.61.36-5.23.78-7.75,1.57-1.63.96-3.59-.26-2.92-2.2,2.7-2.19,6.38-2.19,9.68-2.6-.05-.19-.15-.58-.2-.78-3.43.86-6.99.38-10.47.88-2.77.46-2.51-3.18-.33-3.69-1.89-4.18,4-2.94,6.27-4.32-3.88.81-7.84.99-11.77,1.36-.29-.46-.85-1.38-1.13-1.84l.5-1.48c-.37-.31-1.11-.92-1.49-1.23-.06-.79-.18-2.36-.24-3.14-2.76.42-7.37,3.48-8.08-1.01,2.66-1.6,5.64-2.48,8.63-3.19-2.49-3.22-6.36-1.23-9.43-.21-2.2.89-2.5-1.77-2.29-3.26-.77.02-2.32.04-3.09.05l.06,1.46c-.86-.94-1.76-1.85-2.53-2.85-.08-1.29,1.28-1.95,1.92-2.89-3.14.59-6.3,1.04-9.48,1.31-.05-.83-.14-2.5-.18-3.34-10.23.27-20.11,3.26-30.26,4.27Zm-46.86.42c.44-.25,1.32-.75,1.76-.99,1.57.02,3.14.04,4.72.06l.07-.7c-2.33-.22-4.77-.09-6.55,1.63Zm-8.17,5.38c-.42-.2-1.25-.6-1.67-.81l-2.07,2.13c1.56.22,2,2.34,3.82,1.88,1.86-2.26,4.46-3.59,6.86-5.18-2.37.48-4.67,1.2-6.94,1.98Zm34.56,2.16c1.21,1.05,2.75-1.2,2.04-2.28-1.4-1.4-3.53,1.01-2.04,2.28Zm-51.51,1.26c3.92-1.18,7.99-1.63,12.04-2.17-4.07-.45-8.34.48-12.04,2.17Zm22.13,2.49c.3.89.61,1.78.93,2.67.66-.09,1.98-.28,2.64-.38-.99-1.05-2.03-2.19-3.57-2.29Zm107.62,1.85c2.27-.1,4.54-.28,6.81-.44.04-.33.12-1,.16-1.33-2.2.59-6.03-1.02-6.97,1.77Zm-98.59,3.42c.35,1.23,1.14,1.37,2.36.41-.36-1.24-1.15-1.38-2.36-.41Zm2.27,3.27c-1.11.99-.09,2.96,1.11,3.45-2.1-1.61.41-2.89,1.8-3.6.23,2.1,1.63,2.51,3.38,2.14-.41-1.04-.83-2.08-1.23-3.1-1.69.39-3.41.62-5.06,1.11Zm35.26,5.92l2.08.4c6.37-1.33,12.42-4.26,19.01-4.45-7.29-.68-13.98,3.12-21.09,4.05Zm-11.7,8.08c2.59-.85,5.2-1.63,7.84-2.35-2.73.22-5.64.58-7.84,2.35Zm-1.52,4.46c.53-.07,1.57-.21,2.1-.28l.68-1.05c1.15.02,2.31.05,3.47.1l.04-.96c.57.03,1.73.1,2.3.13l.04-1.17c-2.81,1.13-6.73.6-8.63,3.23Zm-13.41,9.22c-1,1.47,1.64,2.51,2.62,1.55.71-1.36-1.69-2.53-2.62-1.55Zm57.9,45.12c2.63.7,5.44,1.37,7.98-.03-2.66.06-5.32.2-7.98.03Z" fill="#ebebeb" stroke="#ebebeb" stroke-miterlimit="10.43" stroke-width=".09"/>
    <path d="m325.87,32.34c1.03-1.27,3.8-2.09,5.51-1.42-.65,1.69-3.86,2.12-5.51,1.42Z" fill="#a4b7c8" stroke="#a4b7c8" stroke-miterlimit="10.43" stroke-width=".09"/>
    <path d="m304.4,39.45c1.42-3.05,5.99-1.83,8.67-2.93-.83.87-1.92,1.27-3.24,1.21-1.5.63-3.32.61-4.55,1.75l-.88-.03Z" fill="#a4b7c8" stroke="#a4b7c8" stroke-miterlimit="10.43" stroke-width=".09"/>
    <path d="m286.95,57.86c1.28-.86,2.08-.66,2.4.59-1.29.85-2.08.65-2.4-.59Z" fill="#a4b7c8" stroke="#a4b7c8" stroke-miterlimit="10.43" stroke-width=".09"/>
    <path d="m296.6,63.68c1.42-.45,2.89-.73,4.37-.96-.13,1.52.77,2.74,1.46,4.01-1.35-.51-2.12-1.77-3.02-2.8-1.6-.11-3.19.17-4.77.37.49-.16,1.47-.47,1.96-.62Z" fill="#111c33" stroke="#111c33" stroke-miterlimit="10.43" stroke-width=".09"/>
    <path d="m437.65,69.86c-1.48-.9-1.52-1.75-.12-2.57,1.44.9,1.48,1.76.12,2.57Z" fill="#a4b7c8" stroke="#a4b7c8" stroke-miterlimit="10.43" stroke-width=".09"/>
    <path d="m374.81,73.01c1.08-.8,2.19-.85,3.33-.14.35,1.9-4.63,2.63-3.33.14Z" fill="#a4b7c8" stroke="#a4b7c8" stroke-miterlimit="10.43" stroke-width=".09"/>
    <path d="m313.61,77.98c1.53-.1,3.06-.22,4.59-.34-.43,1.27-.82,2.55-1.15,3.85-.2-.84-.39-1.68-.58-2.52-.96-.33-1.91-.66-2.86-.99Z" fill="#111c33" stroke="#111c33" stroke-miterlimit="10.43" stroke-width=".09"/>
    <path d="m378.59,80.18c2.96-.58,6.11-1.32,9.03-.1-3.01.22-6.04.52-9.03.1Z" fill="#111c33" stroke="#111c33" stroke-miterlimit="10.43" stroke-width=".09"/>
    <path d="m311.04,81.72c3.08-.6.3,2.93-1.43,1.98-1.61-.57.69-1.92,1.43-1.98Z" fill="#a4b7c8" stroke="#a4b7c8" stroke-miterlimit="10.43" stroke-width=".09"/>
    <path d="m384.6,87.18c2.98-.54,6.02-.41,9.02-.05-3,.28-6.03.45-9.02.05Z" fill="#111c33" stroke="#111c33" stroke-miterlimit="10.43" stroke-width=".09"/>
    <path d="m389.63,90.85c1.73,0,3.46,0,5.19.03.13,3.15,4.39,3.72,4.61,6.74-1.01-1.02-1.99-2.07-2.93-3.14-2.96.23-5.18-1.38-6.87-3.63Z" fill="#111c33" stroke="#111c33" stroke-miterlimit="10.43" stroke-width=".09"/>
    <path d="m401.41,98.54c2.18.2,4.33.69,6.3,1.69-1.63.34-3.28.48-4.93.5-.34-.55-1.03-1.64-1.37-2.19Z" fill="#a4b7c8" stroke="#a4b7c8" stroke-miterlimit="10.43" stroke-width=".09"/>
    <path d="m421.44,109.52c-1.67-2.04,1.02-3.85,2.87-2.84.61,1.86-.66,4.32-2.87,2.84Z" fill="#ebebeb" stroke="#ebebeb" stroke-miterlimit="10.43" stroke-width=".09"/>
    <path d="m328.41,108.94c1.14-.35,2.3-.68,3.46-.97-.63.71-1.37,1.28-2.22,1.71-.08.74-.22,2.23-.3,2.97-.71-.04-2.13-.13-2.85-.17-1.34,1.95-3.54,2.86-5.85,2.99,1.76-.6,3.5-1.64,2.99-3.82,2.15,1.09,5.27.15,4.77-2.71Z" fill="#111c33" stroke="#111c33" stroke-miterlimit="10.43" stroke-width=".09"/>
    <path d="m313.91,113.41c.12-1.37,2.61-1.21,3.51-.55-.11,1.42-2.63,1.2-3.51.55Z" fill="#a4b7c8" stroke="#a4b7c8" stroke-miterlimit="10.43" stroke-width=".09"/>
    <path d="m414.95,112.99c1.11-.72,2.25-.74,3.41-.05.04,1.4-3.48,1.51-3.41.05Z" fill="#a4b7c8" stroke="#a4b7c8" stroke-miterlimit="10.43" stroke-width=".09"/>
    <path d="m428.83,112.85c.71-.04,2.15-.12,2.87-.17.14,1.2.12,2.41-.31,3.55-.93-.19-1.85-.37-2.76-.56.05-.7.15-2.12.2-2.82Z" fill="#ebebeb" stroke="#ebebeb" stroke-miterlimit="10.43" stroke-width=".09"/>
    <path d="m275.53,114.05c1.4-.51,3.39,1.07,3.86,2.25-1.37.28-4.69-.25-3.86-2.25Z" fill="#a4b7c8" stroke="#a4b7c8" stroke-miterlimit="10.43" stroke-width=".09"/>
    <path d="m169.68,130.61c.62-1.56,3.26-.44,3.33.99-.53,1.66-3.37.5-3.33-.99Z" fill="#a4b7c8" stroke="#a4b7c8" stroke-miterlimit="10.43" stroke-width=".09"/>
    <path d="m304.62,138.39c3-.79,5.82-2.68,9.02-2.42-2.81,1.39-5.82,2.62-9.02,2.42Z" fill="#a4b7c8" stroke="#a4b7c8" stroke-miterlimit="10.43" stroke-width=".09"/>
    <path d="m276.71,141.74c4.01.16,8.05-.29,12.04.31-3.95.9-8.04.25-12.05.59v-.9Z" fill="#a4b7c8" stroke="#a4b7c8" stroke-miterlimit="10.43" stroke-width=".09"/>
    <path d="m206.83,147.64c.47-2.85,4.59-1.99,5.49-4.67-.03.61-.1,1.82-.13,2.43l1.1-.11-.88.11c.09.49.28,1.46.37,1.95,1.87-.63,4.94-.36,3.94,2.45-2.29.93-4.55,2.34-7.03,2.58-1.54-.98-1.72-3.29-2.86-4.74Z" fill="#ebebeb" stroke="#ebebeb" stroke-miterlimit="10.43" stroke-width=".09"/>
    <path d="m362.67,145.26c2.28-1,4.63-1.87,7.06-2.45-1.96,1.67-4.63,1.96-7.06,2.45Z" fill="#111c33" stroke="#111c33" stroke-miterlimit="10.43" stroke-width=".09"/>
    <path d="m328.92,144.84c1.57-.5,2.11.09,1.6,1.75-1.59.49-2.12-.1-1.6-1.75Z" fill="#a4b7c8" stroke="#a4b7c8" stroke-miterlimit="10.43" stroke-width=".09"/>
    <path d="m432.8,156.97c2.74-.39,5.55-1.54,8.33-.87,2.06,4.06-4.17,3.49-6.53,3.98-2.23.42-1.99-1.61-1.8-3.11Z" fill="#ebebeb" stroke="#ebebeb" stroke-miterlimit="10.43" stroke-width=".09"/>
    <path d="m235.89,156.83c.97-1.01,3.55.13,2.57,1.58-.96.95-3.36-.23-2.57-1.58Z" fill="#a4b7c8" stroke="#a4b7c8" stroke-miterlimit="10.43" stroke-width=".09"/>
    <path d="m329.05,156.75c1.39-.44,1.88.05,1.46,1.45-1.38.42-1.87-.06-1.46-1.45Z" fill="#a4b7c8" stroke="#a4b7c8" stroke-miterlimit="10.43" stroke-width=".09"/>
    <path d="m432.32,163.49c.15-3.98,7.37-1.41,4.44,1.93-1.47-.44-3.98.06-4.44-1.93Z" fill="#ebebeb" stroke="#ebebeb" stroke-miterlimit="10.43" stroke-width=".09"/>
    <path d="m200.66,164.67l1.84-.8c-3.38,1.6-6.85,3.94-10.75,3.31,2.96-.87,5.94-1.69,8.91-2.51Z" fill="#111c33" stroke="#111c33" stroke-miterlimit="10.43" stroke-width=".09"/>
    <path d="m382.95,166.81c1.25-.88,2.01-.68,2.28.61-1.26.88-2.02.68-2.28-.61Z" fill="#a4b7c8" stroke="#a4b7c8" stroke-miterlimit="10.43" stroke-width=".09"/>
    <path d="m419.96,167.81c1.33-.8,2.09-.57,2.31.7-1.34.8-2.11.56-2.31-.7Z" fill="#a4b7c8" stroke="#a4b7c8" stroke-miterlimit="10.43" stroke-width=".09"/>
    <path d="m293.79,174.05c1.35-.39,1.82.12,1.39,1.54-1.38.41-1.84-.1-1.39-1.54Z" fill="#a4b7c8" stroke="#a4b7c8" stroke-miterlimit="10.43" stroke-width=".09"/>
    <path d="m358.64,183.31c8.39-1.62,16.6-4.18,25.08-5.31-1,2.33-3.9,1.72-5.93,2.3-10.85,1.47-21.43,4.4-32.2,6.3-.49.21-1.46.64-1.95.85,1.63-1.5,3.84-1.59,5.94-1.79,2.9-1.18,6.02-1.64,9.06-2.35Z" fill="#111c33" stroke="#111c33" stroke-miterlimit="10.43" stroke-width=".09"/>
    <path d="m423.73,185.44c-.42-2.09,4.53-.51,1.83.41-.46-.1-1.37-.31-1.83-.41Z" fill="#a4b7c8" stroke="#a4b7c8" stroke-miterlimit="10.43" stroke-width=".09"/>
    <path d="m276.96,189.72c1.66-.72,2.18-.24,1.57,1.43-1.62.69-2.15.21-1.57-1.43Z" fill="#a4b7c8" stroke="#a4b7c8" stroke-miterlimit="10.43" stroke-width=".09"/>
    <path d="m330.68,194.32c6.15-1.02,11.99-3.29,18.09-4.54-.88.88-1.88,1.65-3.16,1.82-4.93,1.15-9.8,2.9-14.93,2.72Z" fill="#111c33" stroke="#111c33" stroke-miterlimit="10.43" stroke-width=".09"/>
    <path d="m289.86,190.88c1.18.68,1.12,1.41-.17,2.21-1.17-.69-1.11-1.43.17-2.21Z" fill="#a4b7c8" stroke="#a4b7c8" stroke-miterlimit="10.43" stroke-width=".09"/>
    <path d="m107.99,191.81c1.27-.84,2.02-.61,2.24.69-1.28.83-2.03.61-2.24-.69Z" fill="#a4b7c8" stroke="#a4b7c8" stroke-miterlimit="10.43" stroke-width=".09"/>
    <path d="m172.95,197.29c-.09-1.45,2.2-2.74,3.5-2.19.64,1.75-2.21,2.67-3.5,2.19Z" fill="#111c33" stroke="#111c33" stroke-miterlimit="10.43" stroke-width=".09"/>
    <path d="m276.99,196.74c1.36-.46,1.86.03,1.5,1.46-1.36.44-1.86-.04-1.5-1.46Z" fill="#a4b7c8" stroke="#a4b7c8" stroke-miterlimit="10.43" stroke-width=".09"/>
    <path d="m457.15,197.88c1.66-2.15,9.04-2.28,7.25,1.81-1.67,1.36-4.17.12-6.14.25-.75-.64-1.51-1.24-2.29-1.81.3-.06.89-.19,1.18-.25Z" fill="#ebebeb" stroke="#ebebeb" stroke-miterlimit="10.43" stroke-width=".09"/>
    <path d="m300.75,199.86c1.61-.51,2.14.05,1.58,1.66-1.65.53-2.17-.02-1.58-1.66Z" fill="#a4b7c8" stroke="#a4b7c8" stroke-miterlimit="10.43" stroke-width=".09"/>
    <path d="m81.51,203.57c1.99-1.3,4.13-2.38,6.38-3.17-1.14,2.34-4.09,2.73-6.38,3.17Z" fill="#a4b7c8" stroke="#a4b7c8" stroke-miterlimit="10.43" stroke-width=".09"/>
    <path d="m424.44,203.5c3.14-1.25,6.61-1.36,9.9-.72-.03.61-.09,1.83-.12,2.43-1.23.5-3.19,3.32-3.91.85-2.06-.64-4.93,2.29-6.19-.3.08-.56.24-1.69.32-2.26Z" fill="#ebebeb" stroke="#ebebeb" stroke-miterlimit="10.43" stroke-width=".09"/>
    <path d="m298.68,214.24c2.77-1.49,5.83-2.29,8.74-3.45-.75.74-1.5,1.49-2.25,2.25-2.19.25-4.35.67-6.49,1.2Z" fill="#111c33" stroke="#111c33" stroke-miterlimit="10.43" stroke-width=".09"/>
    <path d="m367.23,218.35c3.82-.52,7.63-1.66,11.53-1.32-17.37,3.28-34.68,6.94-52.06,10.15.64-.36,1.3-.69,1.98-.98,12.75-3.04,25.68-5.34,38.55-7.85Z" fill="#111c33" stroke="#111c33" stroke-miterlimit="10.43" stroke-width=".09"/>
    <path d="m148.92,231.12c-.97-2.18.25-4.1,2.68-3.41.22,1.11.28,2.25-.19,3.31-.62.03-1.87.07-2.49.1Z" fill="#ebebeb" stroke="#ebebeb" stroke-miterlimit="10.43" stroke-width=".09"/>
    <path d="m344.6,227.63c2.17-1.46,4,1.79,2.11,3.14-3.27,1.05-6.67,1.81-10.03,2.55-1.83.58-2.4-3.02-.72-3.37,2.73-1.21,5.73-1.67,8.64-2.32Z" fill="#ebebeb" stroke="#ebebeb" stroke-miterlimit="10.43" stroke-width=".09"/>
    <path d="m143.42,235.54c.62-1.28,2.26-2.86,3.63-1.41.13.58.38,1.74.51,2.32-1.6,1.3-2.96.42-4.14-.91Z" fill="#ebebeb" stroke="#ebebeb" stroke-miterlimit="10.43" stroke-width=".09"/>
    <path d="m156.43,242.47c1.68-2.18,3.84-3.91,5.93-5.67-1.7,2.11-3.3,4.64-5.93,5.67Z" fill="#111c33" stroke="#111c33" stroke-miterlimit="10.43" stroke-width=".09"/>
    <path d="m135.95,243.98c2.29-1.75,4.08,2.52,1.64,3.31-1.99.73-3-2.1-1.64-3.31Z" fill="#ebebeb" stroke="#ebebeb" stroke-miterlimit="10.43" stroke-width=".09"/>
    <path d="m151.75,248.76c-.28-2.62,2.22-3.84,4.01-5.11-1.03,2.2-3.04,3.73-4.18,5.88-.72,1.67-2.48,2.27-3.99,3.01-.19-2.69,2.76-2.43,4.16-3.78Z" fill="#111c33" stroke="#111c33" stroke-miterlimit="10.43" stroke-width=".09"/>
    <path d="m286.69,246.99c1.69-.23,3.6-2.13,5.17-.69.68.61,1.34,1.25,1.98,1.92-2.05.79-5.19,1.52-5.31,4.21.21,1.6-1.48,2.29-2.38,3.26-.45-2.01-3.82-.86-3.64-3.02,1.84-1.26,4.27-1.13,6.27-2.04.99-1.8-.53-3.11-2.09-3.64Z" fill="#111c33" stroke="#111c33" stroke-miterlimit="10.43" stroke-width=".09"/>
    <path d="m133.18,247.84c.75.37,1.5.75,2.25,1.13-.3.92-.6,1.84-.91,2.76-1.81.27-2.81-.95-3.56-2.38.56-.38,1.66-1.13,2.22-1.51Z" fill="#ebebeb" stroke="#ebebeb" stroke-miterlimit="10.43" stroke-width=".09"/>
    <path d="m391.08,250.79c2.24-.05,4.49-.05,6.72.18-3.03.64-6.12.84-9.15,1.48.8-.56,1.62-1.11,2.43-1.66Z" fill="#a4b7c8" stroke="#a4b7c8" stroke-miterlimit="10.43" stroke-width=".09"/>
    <path d="m124.9,255.28c-1.38-3.88,3.03-3.56,5.54-3.37.64,1.13.73,2.36-.01,3.49-1.84-.03-3.69-.06-5.53-.12Z" fill="#ebebeb" stroke="#ebebeb" stroke-miterlimit="10.43" stroke-width=".09"/>
    <path d="m427.49,255.4c4.61-1.27,9.39-2.6,14.21-2.3-1.06.08-2.12.17-3.17.27-.3.2-.9.62-1.21.83-3.32.05-6.54.88-9.83,1.2Z" fill="#111c33" stroke="#111c33" stroke-miterlimit="10.43" stroke-width=".09"/>
    <path d="m145.03,254.15c1.4.82,1.71,3.53-.37,3.64-2.23-.17-.27-2.86.37-3.64Z" fill="#111c33" stroke="#111c33" stroke-miterlimit="10.43" stroke-width=".09"/>
    <path d="m444.17,256.67c2.27-2.31,5.74-2.36,8.71-1.74-2.77,1.1-5.84,1.04-8.71,1.74Z" fill="#a4b7c8" stroke="#a4b7c8" stroke-miterlimit="10.43" stroke-width=".09"/>
    <path d="m475.3,257.08c2.52-.57,5.43-2.07,7.67.09-.42.66-.86,1.31-1.31,1.95-3.14.91-6.53,1.89-9.73.65,1.47-.43,3.44-.52,3.37-2.69Z" fill="#ebebeb" stroke="#ebebeb" stroke-miterlimit="10.43" stroke-width=".09"/>
    <path d="m244.86,257.86c.78-.82,3.84-.37,2.26,1.06-1.11,1.76-5.01.43-2.26-1.06Z" fill="#111c33" stroke="#111c33" stroke-miterlimit="10.43" stroke-width=".09"/>
    <path d="m140.75,259.7c1.52-1.29,2.32,1.45,1.29,2.34-1.36,1.18-2.49-1.52-1.29-2.34Z" fill="#111c33" stroke="#111c33" stroke-miterlimit="10.43" stroke-width=".09"/>
    <path d="m336.41,263.37c2.32-.96,4.65-2.12,7.18-2.34,1.49-.69,1.41,2.48.04,2.06-2.4.2-4.81.29-7.22.28Z" fill="#111c33" stroke="#111c33" stroke-miterlimit="10.43" stroke-width=".09"/>
    <path d="m211.94,263.16c1.11-.52,2.24-.52,3.37,0,.27,1.5-3.68,1.53-3.37,0Z" fill="#111c33" stroke="#111c33" stroke-miterlimit="10.43" stroke-width=".09"/>
    <path d="m133.57,267.82c1.47-2.22,3.54-4.34,6.42-4.27-1.85,1.82-4.23,2.94-6.42,4.27Z" fill="#111c33" stroke="#111c33" stroke-miterlimit="10.43" stroke-width=".09"/>
    <path d="m110.36,266.95c1.63-.63,3.33-1.05,5.07-1.22-.36.88-.73,1.76-1.1,2.63-1.41-.21-2.82-.52-3.97-1.41Z" fill="#111c33" stroke="#111c33" stroke-miterlimit="10.43" stroke-width=".09"/>
    <path d="m119.96,267c1.7-.4,3.8-.98,5.4-.03-.49,1.78-4.49,1.02-5.4.03Z" fill="#111c33" stroke="#111c33" stroke-miterlimit="10.43" stroke-width=".09"/>
    <path d="m435.64,274.53c-.06-2.52,3.3-1.89,4.91-2.83-.8,1.13-1.4,2.39-1.73,3.74-1.03.98-2.98.62-3.18-.91Z" fill="#ebebeb" stroke="#ebebeb" stroke-miterlimit="10.43" stroke-width=".09"/>
    <path d="m413.5,274.67c1.81-1.13,3.97-.85,5.99-.6-1.6.17-3.21.32-4.79.53-1.56.87-3.37.7-5.07.6,1.29-.18,2.58-.36,3.87-.53Z" fill="#111c33" stroke="#111c33" stroke-miterlimit="10.43" stroke-width=".09"/>
    <path d="m425.76,274.81c2.18-1.84,4.29,2.21,1.86,2.96-1.96,1.06-3.33-1.63-1.86-2.96Z" fill="#ebebeb" stroke="#ebebeb" stroke-miterlimit="10.43" stroke-width=".09"/>
    <path d="m128.04,279.05c-3.11,2.35-2.52-3.66.35-2.07-.09.52-.27,1.55-.35,2.07Z" fill="#111c33" stroke="#111c33" stroke-miterlimit="10.43" stroke-width=".09"/>
    <path d="m220.81,277.71c1.28.61,1.25,1.29-.1,2.03-1.28-.62-1.24-1.29.1-2.03Z" fill="#a4b7c8" stroke="#a4b7c8" stroke-miterlimit="10.43" stroke-width=".09"/>
    <path d="m116.73,286.15c1.12-2,2.74-3.62,4.31-5.25-.32,2.37,1.87,2.7,3.7,2.37-1.82,2.34-5.45,1.78-8.01,2.88Z" fill="#111c33" stroke="#111c33" stroke-miterlimit="10.43" stroke-width=".09"/>
    <path d="m113.01,290.36c-.89-1.6,2.09-3.74,2.92-1.71.07,1.36-1.8,2.18-2.92,1.71Z" fill="#111c33" stroke="#111c33" stroke-miterlimit="10.43" stroke-width=".09"/>
    <path d="m280.79,287.68c.28.5.85,1.5,1.14,1.99,1.97-.25,3.91-1.21,5.93-.89-2.17,1.13-4.51,1.86-6.83,2.57-.09-1.23-.16-2.45-.24-3.67Z" fill="#111c33" stroke="#111c33" stroke-miterlimit="10.43" stroke-width=".09"/>
    <path d="m126.88,290.72c1.62-.9,2.05,1.59.48,1.89-1.63.92-2.08-1.63-.48-1.89Z" fill="#a4b7c8" stroke="#a4b7c8" stroke-miterlimit="10.43" stroke-width=".09"/>
    <path d="m70.09,292.12c1.94-1.43,3.93.2,3.36,2.36-1.76,1.67-4.59,0-3.36-2.36Z" fill="#ebebeb" stroke="#ebebeb" stroke-miterlimit="10.43" stroke-width=".09"/>
    <path d="m276.6,292.99c1.11,0,2.23,0,3.35.03.44,3.59,4.47,1.23,6.81,2.02-2.12.51-4.25.9-6.38,1.31-1.46,3.42,2.8,4.1,5.03,2.79-.59,2.71-3.91,1.86-5.93,2.43-.02.85-.05,2.56-.07,3.42,1.52-.1,3.05-.15,4.59-.17-.85,1.93-4.03.73-4.44,2.9-1.28,2.1,1.74,2.54,3.12,2.59-.96.62-1.9,1.27-2.82,1.96-.82-.26-2.47-.76-3.3-1.02.52-.11,1.55-.35,2.06-.46.61-1.72-.24-2.88-1.56-3.83-.08-1.5.36-3,.33-4.5,3.25-.82,1.99-4.06-.76-4.48,1.09-.18,2.18-.37,3.29-.55.03-.77.11-2.3.15-3.07-1.19-.38-3.12.3-3.47-1.37Z" fill="#111c33" stroke="#111c33" stroke-miterlimit="10.43" stroke-width=".09"/>
    <path d="m212.07,293.9c2.93-.38.25,3.27-1.48,2.12-1.76-.82.34-2.38,1.48-2.12Z" fill="#111c33" stroke="#111c33" stroke-miterlimit="10.43" stroke-width=".09"/>
    <path d="m36.31,295.99c.83-1,2.09-.46,3.11-.2.21,1.87-1.13,3.17-2.17,4.54-.46-1.36-1.93-2.92-.94-4.34Z" fill="#ebebeb" stroke="#ebebeb" stroke-miterlimit="10.43" stroke-width=".09"/>
    <path d="m165.81,294.96c1.4-.66,1.82-.26,1.28,1.2-1.42.69-1.84.29-1.28-1.2Z" fill="#a4b7c8" stroke="#a4b7c8" stroke-miterlimit="10.43" stroke-width=".09"/>
    <path d="m104.38,298.03c1.47-.36,2.96-.72,4.42-1.15-.89,1.23-1.76,2.48-2.62,3.74-.65-.84-1.25-1.7-1.8-2.59Z" fill="#111c33" stroke="#111c33" stroke-miterlimit="10.43" stroke-width=".09"/>
    <path d="m212.86,298.85c2.58-1.1,5.26-2.22,8.13-2.2-1.64,1.06-3.27,2.13-4.8,3.34-1.08-.48-2.18-.91-3.33-1.14Z" fill="#111c33" stroke="#111c33" stroke-miterlimit="10.43" stroke-width=".09"/>
    <path d="m203.9,297.8c1.47-.48,1.88-.02,1.24,1.38-1.46.46-1.87,0-1.24-1.38Z" fill="#a4b7c8" stroke="#a4b7c8" stroke-miterlimit="10.43" stroke-width=".09"/>
    <path d="m339.52,301.06c3-.32,6.05-.4,8.99-1.16-3.41,1.73-7.24,1.92-10.96,2.27.37-.84,1.03-1.21,1.97-1.11Z" fill="#111c33" stroke="#111c33" stroke-miterlimit="10.43" stroke-width=".09"/>
    <path d="m75.75,301.61c1.72-.53,2.29,0,1.7,1.57-1.66.48-2.23-.04-1.7-1.57Z" fill="#111c33" stroke="#111c33" stroke-miterlimit="10.43" stroke-width=".09"/>
    <path d="m42.8,302.51c1.59.02,3.31.94,2.43,2.81-1.1,1.57-2.75.66-3.61-.58.29-.55.88-1.67,1.18-2.23Z" fill="#ebebeb" stroke="#ebebeb" stroke-miterlimit="10.43" stroke-width=".09"/>
    <path d="m98.6,304.16c1.69-1.5,4.03-.75,6.06-1.22-1.51,2.61-2.14,5.96-5.26,7.18-1.62-.55-3.33-.45-5-.45,1.3-1.92,4.33-.84,6.31-1.57,1.81-2-.42-3.44-2.11-3.94Z" fill="#111c33" stroke="#111c33" stroke-miterlimit="10.43" stroke-width=".09"/>
    <path d="m264.59,304.22c1.22.03,2.43-.08,3.63-.35.27,1.8,1.07,3.52,1.06,5.37-1.7.73-3.56.23-5.33.26,1.85-1.46,2.36-3.48.64-5.28Z" fill="#111c33" stroke="#111c33" stroke-miterlimit="10.43" stroke-width=".09"/>
    <path d="m320.35,305.49c2.68-2.14,6.21-2.35,9.36-1.24-3.07.73-6.21,1.11-9.36,1.24Z" fill="#111c33" stroke="#111c33" stroke-miterlimit="10.43" stroke-width=".09"/>
    <path d="m337.02,305.84c1.22-.89,1.98-.69,2.27.6-1.23.89-1.99.69-2.27-.6Z" fill="#a4b7c8" stroke="#a4b7c8" stroke-miterlimit="10.43" stroke-width=".09"/>
    <path d="m47.14,306.4c.48.65.98,1.29,1.48,1.92,1.54.05,3.61.31,3.03,2.44-.66,1.33-2.6,1.71-3.66.61-.46-1.63-.83-3.28-.85-4.97Z" fill="#ebebeb" stroke="#ebebeb" stroke-miterlimit="10.43" stroke-width=".09"/>
    <path d="m325.24,308.06c2.86.05-2.57,3.26-3.44,1.41-.14-1.75,2.35-1.16,3.44-1.41Z" fill="#111c33" stroke="#111c33" stroke-miterlimit="10.43" stroke-width=".09"/>
    <path d="m327.04,314.12c4.74-2.58,10.26-2.73,15.49-3.51.44.35,1.32,1.07,1.76,1.42-.96,1.04-1.82,2.28-3.34,2.43.36,1.02,2.13,1.99.91,3.11-.41,1.66-2.3.55-3.38.52-3.74-.94-6.65,3.09-10.36,2.16.1-1.08.21-2.15.31-3.22-1.23-.56-1.35-1.74-1.39-2.91Z" fill="#ebebeb" stroke="#ebebeb" stroke-miterlimit="10.43" stroke-width=".09"/>
    <path d="m116.86,313.58c1.26-.53,2.38.88,3.72.46,2.41-.65,1.87,3.64-.11,3.46-2.42-.11-1.29-3.5-3.61-3.92Z" fill="#ebebeb" stroke="#ebebeb" stroke-miterlimit="10.43" stroke-width=".09"/>
    <path d="m264.08,313c.86-.22,3.09-1.27,3.19.3-1.37.94-3.24,1.1-4.84,1.43-1.71-.73.87-1.76,1.65-1.73Z" fill="#111c33" stroke="#111c33" stroke-miterlimit="10.43" stroke-width=".09"/>
    <path d="m88.14,316.49c2.38-3.17,6.82-3.08,10.37-2.5-.94.79-1.81,1.65-2.58,2.61.58.5,1.74,1.51,2.32,2.02-1.21,1.35-2.99,1.76-4.64,2.3.26,1.23.59,2.45.98,3.65-3.07.74-6.34,1.54-8.36,4.2.29.44.85,1.31,1.14,1.75-.32-.01-.96-.02-1.28-.03-.01-.76-.02-2.26-.02-3.02-1.89-.29-3.8-.28-5.7-.15,1.85-2.08,5.11-2.29,7.44-.89,2-.3,3.29-3,1.62-4.45-1.53-.09-3.06-.12-4.59-.1,1.35-3.79,7,.75,7.96-3.36.3-2.6-3.17-1.66-4.66-2.03Z" fill="#111c33" stroke="#111c33" stroke-miterlimit="10.43" stroke-width=".09"/>
    <path d="m109.6,316.5c1.66-.14,4.09.81,2.69,2.82-1.77,2.49-4.25-.9-2.69-2.82Z" fill="#ebebeb" stroke="#ebebeb" stroke-miterlimit="10.43" stroke-width=".09"/>
    <path d="m333.62,319.42c1.85-.35,4.17-1.22,5.81.17,2.33,4.37-8.39,4.49-5.81-.17Z" fill="#ebebeb" stroke="#ebebeb" stroke-miterlimit="10.43" stroke-width=".09"/>
    <path d="m234.3,325.97c1.03-3.07,4.07-4.46,6.96-5.29-.52,1.01-1.06,2.02-1.62,3.01.47.43,1.41,1.28,1.89,1.7-2.36.57-4.82,1.82-7.23.58Z" fill="#111c33" stroke="#111c33" stroke-miterlimit="10.43" stroke-width=".09"/>
    <path d="m51.79,322.6c2.03-1.04,4.59-2.08,6.81-1.05,1.29,2.7-1.8,3.24-3.66,3.52-.44,1.62-.69,3.27-.62,4.96,1.34.05,4.01-1.54,4.41.61.28,1.39-.71,2.61-.95,3.93,1.04,1.37,3.23,2.98,1.46,4.73-1.69.56-2.96-.69-3.76-2-1.4-.05-2.78-.2-4.16-.45,1.25-1.61,5.28.8,3.01-3.66-2.24-.35-2.33-2.95-3.15-4.62.16-1.95-1.29-4.58.61-5.97Z" fill="#ebebeb" stroke="#ebebeb" stroke-miterlimit="10.43" stroke-width=".09"/>
    <path d="m240.49,329.19c3.36-.67,6.7-1.52,10.1-2-1.75,1.43-4.06,1.95-5.82,3.38.46.64,1.38,1.91,1.84,2.54,1.57-.34,2.91-1.31,4.35-2,2.02,2.55,4.93,3.86,7.86,5.07-1.53.05-3.4,1.18-4.65-.21-1.23-1.54-3.08-.96-4.74-.84-.77-2.29-3.43-2.05-5.36-2.22-.13-1.05-.24-2.09-.31-3.14-.82-.14-2.45-.43-3.27-.58Z" fill="#111c33" stroke="#111c33" stroke-miterlimit="10.43" stroke-width=".09"/>
    <path d="m426.92,328.95c.46-.23,1.39-.68,1.86-.91,1.4.87,2.25,2.25.76,3.54-1.85,1.03-3.02-.93-2.62-2.63Z" fill="#ebebeb" stroke="#ebebeb" stroke-miterlimit="10.43" stroke-width=".09"/>
    <path d="m437.9,329.47c.98-1.29,2.32-1.59,3.79-.81.26,2.11-.8,3.24-2.92,3.06-.22-.56-.65-1.68-.87-2.25Z" fill="#ebebeb" stroke="#ebebeb" stroke-miterlimit="10.43" stroke-width=".09"/>
    <path d="m451.97,331.25c-.52-1.43-.21-3.5,1.68-3.39,1.76.26,1.54,2.37.87,3.54-.64-.04-1.91-.11-2.55-.15Z" fill="#ebebeb" stroke="#ebebeb" stroke-miterlimit="10.43" stroke-width=".09"/>
    <path d="m59.91,328.95c2.55-1.94,4.43,2.45,1.61,3.16-2.15.57-2.24-1.78-1.61-3.16Z" fill="#ebebeb" stroke="#ebebeb" stroke-miterlimit="10.43" stroke-width=".09"/>
    <path d="m90.99,329.19c.67-.83,3.46-1.67,3.4,0-.57.8-4.49,1.87-3.4,0Z" fill="#111c33" stroke="#111c33" stroke-miterlimit="10.43" stroke-width=".09"/>
    <path d="m372.5,330.06c5.04-.32,10.05-1.67,15.13-.95-5.98.46-12.06.72-17.88,2.14.88-.45,1.68-1.23,2.75-1.19Z" fill="#111c33" stroke="#111c33" stroke-miterlimit="10.43" stroke-width=".09"/>
    <path d="m372.52,334.2c9.05-.87,18.05-2.45,27.08-3.18-1.27.17-2.55.32-3.81.54-2.53,1.23-5.5.79-8.21,1.39-9.25,1.54-18.68,1.84-27.92,3.33,3.98-2.11,8.59-1.17,12.86-2.08Z" fill="#111c33" stroke="#111c33" stroke-miterlimit="10.43" stroke-width=".09"/>
    <path d="m229.11,335.65c2.21-.75,4.43-1.5,6.73-1.93-1.05,2.16-4.35,1.03-5.28,3.28-.49-.45-.97-.9-1.45-1.35Z" fill="#111c33" stroke="#111c33" stroke-miterlimit="10.43" stroke-width=".09"/>
    <path d="m65.08,342.67c.4-3.23,2.63-7.87,6.52-7.18.71,2.22.93,5.04-2.02,5.41.23.41.69,1.22.92,1.63-.67,1.04-1,2.17-.98,3.39,1.11-.59,2.34-2.11,3.56-.79.13.59.38,1.77.5,2.36-2.11,1.76-3.65-1.28-5.89-.25-1.79-1.11-3.83-1.74-5.55-2.96-1.57-.23-3.98-1.03-3.11-3.11,2.02-1.76,4.74-.46,6.05,1.5Z" fill="#ebebeb" stroke="#ebebeb" stroke-miterlimit="10.43" stroke-width=".09"/>
    <path d="m263.5,336.63c2.25,0,4.35.72,6.3,1.8,1.11-.77,2.39-1.16,3.74-1.24-1.43.8-2.77,1.79-3.44,3.34-.48-3.87-4.67-1.41-7.15-1.49.18-.81.36-1.61.55-2.41Z" fill="#111c33" stroke="#111c33" stroke-miterlimit="10.43" stroke-width=".09"/>
    <path d="m276.61,337.24c1.71-.11,3.42-.21,5.14-.23-.88,1.54-4.64,2.17-5.14.23Z" fill="#111c33" stroke="#111c33" stroke-miterlimit="10.43" stroke-width=".09"/>
    <path d="m284.6,338.25c1.82-.66,3.69-1.17,5.61-1.4.04.62.12,1.85.15,2.47-1.99.15-4.03.02-5.76-1.07Z" fill="#111c33" stroke="#111c33" stroke-miterlimit="10.43" stroke-width=".09"/>
    <path d="m43.62,341.5c.05-1.42-.2-3.24,1.83-3.05,2.22.22,1.76,2.64.64,3.78-.82-.25-1.65-.49-2.47-.73Z" fill="#ebebeb" stroke="#ebebeb" stroke-miterlimit="10.43" stroke-width=".09"/>
    <path d="m164.91,340.98c1.43-.82,3.82-2.76,4.9-.46-.17.65-.51,1.97-.69,2.63-1.5-.49-3.49-.49-4.21-2.17Z" fill="#ebebeb" stroke="#ebebeb" stroke-miterlimit="10.43" stroke-width=".09"/>
    <path d="m181.27,342.81c-.05-1.62.54-3.13,2.32-3.43.4.47,1.2,1.42,1.6,1.89-.52.73-1.02,1.47-1.48,2.23-.61-.17-1.83-.52-2.44-.69Z" fill="#ebebeb" stroke="#ebebeb" stroke-miterlimit="10.43" stroke-width=".09"/>
    <path d="m348.41,342.24c1.85-2.51,5.52-2.08,8.28-2.29-2.72.89-5.49,1.65-8.28,2.29Z" fill="#111c33" stroke="#111c33" stroke-miterlimit="10.43" stroke-width=".09"/>
    <path d="m463.54,341.72c.08-2.11,2.52-1.51,3.5-.5-.2.81-.4,1.62-.59,2.44-1.29.19-3.59-.03-2.91-1.94Z" fill="#ebebeb" stroke="#ebebeb" stroke-miterlimit="10.43" stroke-width=".09"/>
    <path d="m473.76,340.69c.75-.01,2.24-.03,2.99-.04-.05.73-.14,2.21-.19,2.95-2.19,1.6-3.52-.93-2.8-2.91Z" fill="#ebebeb" stroke="#ebebeb" stroke-miterlimit="10.43" stroke-width=".09"/>
    <path d="m33.01,343.01c1,.86,2.79,1.96,1.46,3.4-1.07,1.42-2.31.26-3.41-.37.49-1.11,1.03-2.22,1.95-3.03Z" fill="#ebebeb" stroke="#ebebeb" stroke-miterlimit="10.43" stroke-width=".09"/>
    <path d="m329.81,343.2c2.63.1,5.23.49,7.82.93-2.66.25-5.77,1.46-7.82-.93Z" fill="#111c33" stroke="#111c33" stroke-miterlimit="10.43" stroke-width=".09"/>
    <path d="m191.85,347.02c.45-.72.91-1.42,1.37-2.12.04,1.21.01,2.42-.07,3.63,2.61-1.91,2.42,1.32,3.16,2.66-2.13.85-4.46,1.71-6.76.94-1.61-.45-.61-3-.98-4.02l-2.72.16c-.25-.36-.75-1.07-1-1.43,1.23,1.06,2.68.57,4.03.11-.07.52-.22,1.57-.3,2.1,1.12-.05,3.34-.14,4.46-.19-.4-.62-.79-1.23-1.19-1.84Z" fill="#ebebeb" stroke="#ebebeb" stroke-miterlimit="10.43" stroke-width=".09"/>
    <path d="m323.96,345.51c.9.88,1.81,1.76,2.71,2.66-1.36.35-2.71.72-4.07,1.08.45-1.25.9-2.5,1.36-3.74Z" fill="#111c33" stroke="#111c33" stroke-miterlimit="10.43" stroke-width=".09"/>
    <path d="m335.8,348.29c2.65-1.62,5.85-1.89,8.86-2.32-2.69,1.58-5.99,1.2-8.86,2.32Z" fill="#111c33" stroke="#111c33" stroke-miterlimit="10.43" stroke-width=".09"/>
    <path d="m230.06,346.73c1.41-.42,1.9.07,1.48,1.46-1.4.4-1.9-.09-1.48-1.46Z" fill="#a4b7c8" stroke="#a4b7c8" stroke-miterlimit="10.43" stroke-width=".09"/>
    <path d="m81.88,350.09c3.52-2.69,4.11,4.75.77,4.79-2.35-.51-1.36-3.26-.77-4.79Z" fill="#ebebeb" stroke="#ebebeb" stroke-miterlimit="10.43" stroke-width=".09"/>
    <path d="m85.98,352.18c-1.52-1.03-.09-3.47,1.53-3.05,1.09.88,1.67,2.29,3.03,2.86.25,1.25.47,2.49.71,3.75.36.39,1.08,1.18,1.43,1.57-.39-.33-1.18-1-1.57-1.33-3.44,2.34-3.41-2.16-5.13-3.8Z" fill="#ebebeb" stroke="#ebebeb" stroke-miterlimit="10.43" stroke-width=".09"/>
    <path d="m98.17,354.28c-1.2-1.8,1.47-3.75,2.92-2.19.11.62.34,1.84.45,2.45-1.1.45-2.64,1.19-3.37-.26Z" fill="#ebebeb" stroke="#ebebeb" stroke-miterlimit="10.43" stroke-width=".09"/>
    <path d="m322.87,353.43c1.78-1.72,4.22-1.85,6.55-1.63l-.07.7c-1.58-.02-3.15-.04-4.72-.06-.44.24-1.32.74-1.76.99Z" fill="#111c33" stroke="#111c33" stroke-miterlimit="10.43" stroke-width=".09"/>
    <path d="m53.83,353c1.23-1.02,3.28-.06,2.8,1.67-.32,1.26-.85,2.48-1.41,3.67-.43-1.83-2.84-3.42-1.39-5.34Z" fill="#ebebeb" stroke="#ebebeb" stroke-miterlimit="10.43" stroke-width=".09"/>
    <path d="m164.01,356.19c-.5-1.43-.33-3.44,1.61-3.34,1.93.05,1.72,2.45.89,3.62-.62-.07-1.88-.21-2.5-.28Z" fill="#ebebeb" stroke="#ebebeb" stroke-miterlimit="10.43" stroke-width=".09"/>
    <path d="m462.65,354.52c2.63-.23,5.28-.2,7.93-.19,2.07-.32,2.11,3.81-.04,3.36-2.61.34-5.23.04-7.82-.17-.02-.75-.05-2.25-.07-3Z" fill="#ebebeb" stroke="#ebebeb" stroke-miterlimit="10.43" stroke-width=".09"/>
    <path d="m149.74,357.18c1.91.04,4.08-.68,5.61.86-.61.74-.43,2.62-1.81,2.34-2.05.53-1.78-1.71-2.17-2.98-.41-.06-1.22-.16-1.63-.22Z" fill="#ebebeb" stroke="#ebebeb" stroke-miterlimit="10.43" stroke-width=".09"/>
    <path d="m314.7,358.81c2.27-.78,4.57-1.5,6.94-1.98-2.4,1.59-5,2.92-6.86,5.18-1.82.46-2.26-1.66-3.82-1.88l2.07-2.13c.42.21,1.25.61,1.67.81Z" fill="#111c33" stroke="#111c33" stroke-miterlimit="10.43" stroke-width=".09"/>
    <path d="m107.13,361.68c.63-1.19,1.26-2.38,1.59-3.69-.38,1.67,1.09,2.55,2.06,3.64.74.94-.03,2.45-1.16,2.63-1.61.6-2.37-1.34-2.49-2.58Z" fill="#ebebeb" stroke="#ebebeb" stroke-miterlimit="10.43" stroke-width=".09"/>
    <path d="m42.99,359.99c1.07-.9,2.26-.92,3.44-.19-.03.64-.09,1.92-.12,2.57-2,.88-3.72-.16-3.32-2.38Z" fill="#ebebeb" stroke="#ebebeb" stroke-miterlimit="10.43" stroke-width=".09"/>
    <path d="m349.26,360.97c-1.49-1.27.64-3.68,2.04-2.28.71,1.08-.83,3.33-2.04,2.28Z" fill="#111c33" stroke="#111c33" stroke-miterlimit="10.43" stroke-width=".09"/>
    <path d="m379.56,359.48c1.06-1.09,3.03.38,2.54,1.78,1.21,1.12,2.79,1.76,4.42,1.15.9.64,1.68,1.42,2.33,2.33,1.72.91,3.56,1.7,4.66,3.42-.54.84-1.07,1.69-1.59,2.56-3.13.24-2.3-3.83-4.78-4.19-2.35,0-3-2.74-4.81-3.76-1.27-.67-1.88.74-2.35,1.61l-2.8-.64c.01-.09.01-.27.01-.37l1.77.33c.16-1.34-.88-3.39.6-4.22Z" fill="#ebebeb" stroke="#ebebeb" stroke-miterlimit="10.43" stroke-width=".09"/>
    <path d="m297.75,362.23c3.7-1.69,7.97-2.62,12.04-2.17-4.05.54-8.12.99-12.04,2.17Z" fill="#111c33" stroke="#111c33" stroke-miterlimit="10.43" stroke-width=".09"/>
    <path d="m154.08,363.99c2.67-1.18,5.69-1.22,8.55-1.5,1.39.03,1.27,1.77,1.87,2.66-2.5,1.17-5.31.98-7.95,1.59-1.69.85-3.62,3.82-5.41,1.46-.46-1.99,1.52-3.29,2.94-4.21Z" fill="#ebebeb" stroke="#ebebeb" stroke-miterlimit="10.43" stroke-width=".09"/>
    <path d="m365.77,363.79c.78-.18,1.55-.36,2.34-.53,2.31,1.64-.78,5.38-2.39,3.13.01-.65.04-1.95.05-2.6Z" fill="#ebebeb" stroke="#ebebeb" stroke-miterlimit="10.43" stroke-width=".09"/>
    <path d="m258.94,363.92c1.65.42-.35,2.38-1.37,2.02-1.9-.49.26-2.41,1.37-2.02Z" fill="#a4b7c8" stroke="#a4b7c8" stroke-miterlimit="10.43" stroke-width=".09"/>
    <path d="m80.81,365.77c1.11-.99,2.41-.38,3.54.15-.1,1.49-.54,2.9-1.3,4.2-.77-.24-1.55-.48-2.32-.72-.34-1.21-.92-2.55.08-3.63Z" fill="#ebebeb" stroke="#ebebeb" stroke-miterlimit="10.43" stroke-width=".09"/>
    <path d="m319.88,364.72c1.54.1,2.58,1.24,3.57,2.29-.66.1-1.98.29-2.64.38-.32-.89-.63-1.78-.93-2.67Z" fill="#111c33" stroke="#111c33" stroke-miterlimit="10.43" stroke-width=".09"/>
    <path d="m412.97,364.96c1.95-.79,3.05,1.28,2.94,2.92-.64.84-1.27,1.7-1.88,2.58.01-.37.03-1.1.04-1.46-1.75-.55-3.15-2.88-1.1-4.04Z" fill="#ebebeb" stroke="#ebebeb" stroke-miterlimit="10.43" stroke-width=".09"/>
    <path d="m427.5,366.57c.94-2.79,4.77-1.18,6.97-1.77-.04.33-.12,1-.16,1.33-2.27.16-4.54.34-6.81.44Z" fill="#111c33" stroke="#111c33" stroke-miterlimit="10.43" stroke-width=".09"/>
    <path d="m91.02,368.31c.74-2.12,4.33-3.84,5.15-.73-.49.65-.99,1.31-1.48,1.98-1.22-.44-2.49-.72-3.67-1.25Z" fill="#ebebeb" stroke="#ebebeb" stroke-miterlimit="10.43" stroke-width=".09"/>
    <path d="m396.54,371.82c-1.22-3.16,3.83-4.38,4.07-1.38.69,2.63-2.8.93-4.07,1.38Z" fill="#ebebeb" stroke="#ebebeb" stroke-miterlimit="10.43" stroke-width=".09"/>
    <path d="m328.91,369.99c1.21-.97,2-.83,2.36.41-1.22.96-2.01.82-2.36-.41Z" fill="#a4b7c8" stroke="#a4b7c8" stroke-miterlimit="10.43" stroke-width=".09"/>
    <path d="m405.81,371.75c.89-.15,2.21-1.31,2.91-.14,1.04.71-.12,2.04-.02,3-.65-.09-1.95-.26-2.6-.34-.07-.63-.22-1.89-.29-2.52Z" fill="#ebebeb" stroke="#ebebeb" stroke-miterlimit="10.43" stroke-width=".09"/>
    <path d="m198.99,372.06c.76.25,1.51.54,2.25.86-1.06.94-3.33,1.89-1.27,3.71-2.32,2.42-6.91,1.28-9.61,3.72-1.33-.62-2.28-1.55-2.16-3.1,2.88-1.73,6.19-2.45,9.5-2.77.44-.81.87-1.62,1.29-2.42Z" fill="#ebebeb" stroke="#ebebeb" stroke-miterlimit="10.43" stroke-width=".09"/>
    <path d="m331.18,373.26c1.65-.49,3.37-.72,5.06-1.11.4,1.02.82,2.06,1.23,3.1-1.75.37-3.15-.04-3.38-2.14-1.39.71-3.9,1.99-1.8,3.6-1.2-.49-2.22-2.46-1.11-3.45Z" fill="#111c33" stroke="#111c33" stroke-miterlimit="10.43" stroke-width=".09"/>
    <path d="m149.11,373.07c2.52-.1,5.04-.12,7.55-.43.2.85.41,1.71.61,2.57-2.26,2.15-10.45,2.63-8.16-2.14Z" fill="#ebebeb" stroke="#ebebeb" stroke-miterlimit="10.43" stroke-width=".09"/>
    <path d="m366.44,379.18c7.11-.93,13.8-4.73,21.09-4.05-6.59.19-12.64,3.12-19.01,4.45l-2.08-.4Z" fill="#111c33" stroke="#111c33" stroke-miterlimit="10.43" stroke-width=".09"/>
    <path d="m78.69,378.46c.35-1.13.09-3.18,1.97-2.88,1.87-.16,2.1,2.09.97,3.09-.69,1.15-2.05-.12-2.94-.21Z" fill="#ebebeb" stroke="#ebebeb" stroke-miterlimit="10.43" stroke-width=".09"/>
    <path d="m426.1,378.02c2.21-.52,2.2,2.33,1.61,3.71-2.51.73-4.42-2.83-1.61-3.71Z" fill="#ebebeb" stroke="#ebebeb" stroke-miterlimit="10.43" stroke-width=".09"/>
    <path d="m225.08,383.04c-2.25-3.55,2.73-3.98,5.11-3.65-.83.89-1.66,1.77-2.48,2.68.46.26,1.36.79,1.81,1.06-1.48-.13-2.96-.09-4.44-.09Z" fill="#ebebeb" stroke="#ebebeb" stroke-miterlimit="10.43" stroke-width=".09"/>
    <path d="m466.21,380.19c1.48-1.69,4.6.27,3.11,2.27-1.45,1.78-4.71-.25-3.11-2.27Z" fill="#ebebeb" stroke="#ebebeb" stroke-miterlimit="10.43" stroke-width=".09"/>
    <path d="m475.47,382.62c.35-1.23.25-3.01,2.01-2.99,2.05.45,2.2,3.07.24,3.78-.56-.2-1.69-.59-2.25-.79Z" fill="#ebebeb" stroke="#ebebeb" stroke-miterlimit="10.43" stroke-width=".09"/>
    <path d="m485.86,379.96c1.98-.88,3.5,2.51,1.37,3.22-2.2,1.36-3.82-2.64-1.37-3.22Z" fill="#ebebeb" stroke="#ebebeb" stroke-miterlimit="10.43" stroke-width=".09"/>
    <path d="m141.43,383.56c5.56-2.59,11.87-3.23,17.93-2.66-.21,1.04.4,2.95-1.19,3.08-3.66.5-7.42.31-11,1.35-1.68.39-3.35,1.25-5.12.87-.16-.66-.47-1.98-.62-2.64Z" fill="#ebebeb" stroke="#ebebeb" stroke-miterlimit="10.43" stroke-width=".09"/>
    <path d="m417.59,382.78c1.38.73,2.56-.16,3.45-1.04l.5,1.76c-.36-.07-1.08-.21-1.45-.28.14,2.15-1.17,3.08-3.06,3-.1-1.11-1.03-2.99.56-3.44Z" fill="#ebebeb" stroke="#ebebeb" stroke-miterlimit="10.43" stroke-width=".09"/>
    <path d="m354.74,387.26c2.2-1.77,5.11-2.13,7.84-2.35-2.64.72-5.25,1.5-7.84,2.35Z" fill="#111c33" stroke="#111c33" stroke-miterlimit="10.43" stroke-width=".09"/>
    <path d="m129.76,391.53c-2.28-2.21,1.33-4.57,3.47-3.71-.5,1.86-.75,4.75-3.47,3.71Z" fill="#ebebeb" stroke="#ebebeb" stroke-miterlimit="10.43" stroke-width=".09"/>
    <path d="m476.48,392.44c-3.27-1.68.25-5.86,2.73-3.55-.04.55-.13,1.65-.17,2.19-.86.45-1.71.9-2.56,1.36Z" fill="#ebebeb" stroke="#ebebeb" stroke-miterlimit="10.43" stroke-width=".09"/>
    <path d="m353.22,391.72c1.9-2.63,5.82-2.1,8.63-3.23l-.04,1.17c-.57-.03-1.73-.1-2.3-.13l-.04.96c-1.16-.05-2.32-.08-3.47-.1l-.68,1.05c-.53.07-1.57.21-2.1.28Z" fill="#a4b7c8" stroke="#a4b7c8" stroke-miterlimit="10.43" stroke-width=".09"/>
    <path d="m273.02,390.75c1.38-.44,1.86.05,1.44,1.48-1.37.42-1.86-.08-1.44-1.48Z" fill="#a4b7c8" stroke="#a4b7c8" stroke-miterlimit="10.43" stroke-width=".09"/>
    <path d="m246.91,391.47c1.8.35,3.41,5.17.14,3.99-.49-1.33-.54-2.67-.14-3.99Z" fill="#a4b7c8" stroke="#a4b7c8" stroke-miterlimit="10.43" stroke-width=".09"/>
    <path d="m89.85,400.02c6.22-3.8,13.62-5.2,20.83-5.37,1.28,1.22.76,3.3-1.05,3.45-3.49.5-7,.88-10.45,1.63l-.08,1.8-.23-1.64c-2.46.75-4.73,2.01-7.18,2.77-1.44.01-1.28-1.75-1.84-2.64Z" fill="#ebebeb" stroke="#ebebeb" stroke-miterlimit="10.43" stroke-width=".09"/>
    <path d="m420.62,400.74c1.72-.73,3.54-1.45,5.38-.6-.17.82-.34,1.64-.5,2.47-1.46.3-3.1,2.05-4.5.76-1.03-.62-.3-1.78-.38-2.63Z" fill="#ebebeb" stroke="#ebebeb" stroke-miterlimit="10.43" stroke-width=".09"/>
    <path d="m339.81,400.94c.93-.98,3.33.19,2.62,1.55-.98.96-3.62-.08-2.62-1.55Z" fill="#a4b7c8" stroke="#a4b7c8" stroke-miterlimit="10.43" stroke-width=".09"/>
    <path d="m102.32,403.58c.42-2.06,2.63-1.42,3.87-.61-.27.86-.54,1.72-.81,2.59-1.54.06-3.2.07-3.06-1.98Z" fill="#ebebeb" stroke="#ebebeb" stroke-miterlimit="10.43" stroke-width=".09"/>
    <path d="m279.69,404.94c1.08-.28,2.72,1.07,1.9,2.17-1.27.92-3.97-1.42-1.9-2.17Z" fill="#a4b7c8" stroke="#a4b7c8" stroke-miterlimit="10.43" stroke-width=".09"/>
    <path d="m463.92,405.06c1.37-.67,3.7-.88,4.21.98.32,2.52-3.12,2.5-4.73,3.33-2.88-.01-1.73-4,.52-4.31Z" fill="#ebebeb" stroke="#ebebeb" stroke-miterlimit="10.43" stroke-width=".09"/>
    <path d="m363.14,413.22c.8.17,1.61.36,2.43.55.63,2.18-.88,4.19-3.12,2.97-.42-1.27.08-2.44.69-3.52Z" fill="#ebebeb" stroke="#ebebeb" stroke-miterlimit="10.43" stroke-width=".09"/>
    <path d="m419.38,415.36c1.5,0,3.71-.64,3.8,1.79-.88.66-1.76,1.32-2.65,1.97-1.76-.61-1.08-2.41-1.15-3.76Z" fill="#ebebeb" stroke="#ebebeb" stroke-miterlimit="10.43" stroke-width=".09"/>
    <path d="m461.06,415c1.97-1.28,5.59,1.01,4.33,3.4-1.09.66-2.39.81-3.6,1.14-.91-1.29-1.75-3.06-.73-4.54Z" fill="#ebebeb" stroke="#ebebeb" stroke-miterlimit="10.43" stroke-width=".09"/>
    <path d="m423.18,417.15c2.13-.14,1.85,3.01,2.14,4.46-1.89-.41-2.77-2.7-4.79-2.49.89-.65,1.77-1.31,2.65-1.97Z" fill="#a4b7c8" stroke="#a4b7c8" stroke-miterlimit="10.43" stroke-width=".09"/>
    <path d="m357.84,423.3c-.19-1.38-.29-3.59,1.65-3.58,2,.33,1.78,2.36,1.01,3.71-.67-.04-1.99-.1-2.66-.13Z" fill="#ebebeb" stroke="#ebebeb" stroke-miterlimit="10.43" stroke-width=".09"/>
    <path d="m381.82,422.78c2.08-1.93,3.73.74,2.91,2.8-1.94.52-4.5-.57-2.91-2.8Z" fill="#ebebeb" stroke="#ebebeb" stroke-miterlimit="10.43" stroke-width=".09"/>
    <path d="m395.65,428.54c-1.01-1.66-.28-4.41,2.01-4.19,2.46.39,1.1,3.2.48,4.65-.83-.16-1.67-.31-2.49-.46Z" fill="#ebebeb" stroke="#ebebeb" stroke-miterlimit="10.43" stroke-width=".09"/>
    <path d="m455.61,427.76c-.24-1.6,1.73-1.39,2.68-1.87.3.86,1.2,1.77.52,2.72-.33,2.05-3.57.95-3.2-.85Z" fill="#ebebeb" stroke="#ebebeb" stroke-miterlimit="10.43" stroke-width=".09"/>
    <path d="m385.41,438.26c.2-.37.6-1.12.8-1.5-.37,1.51-.17,3.05-.05,4.59-.61,1.77-3.68,1.06-3.33-.78-.16-1.42,1.72-1.63,2.58-2.31Z" fill="#ebebeb" stroke="#ebebeb" stroke-miterlimit="10.43" stroke-width=".09"/>
    <path d="m450.55,437.7c.62-1.59,3.28-.82,3.13.85.2,1.91-1.64,1.7-2.9,2-.21-.94-1.05-1.98-.23-2.85Z" fill="#ebebeb" stroke="#ebebeb" stroke-miterlimit="10.43" stroke-width=".09"/>
    <path d="m397.71,446.06c2.66.17,5.32.03,7.98-.03-2.54,1.4-5.35.73-7.98.03Z" fill="#111c33" stroke="#111c33" stroke-miterlimit="10.43" stroke-width=".09"/>
    <path d="m441.96,447.43c1.06-1.01,2.41-1.56,3.81-1.99,1.13,1.25,1.67,2.9.04,4.02-.77.02-2.3.07-3.07.09-.19-.53-.59-1.59-.78-2.12Z" fill="#ebebeb" stroke="#ebebeb" stroke-miterlimit="10.43" stroke-width=".09"/>
    <path d="m401.75,466.04c3.57.29,7.18.13,10.7.88l.58.26c-3.31,1.63-7.16.88-10.71.93-.15-.35-.45-1.04-.6-1.38l.03-.69Z" fill="#111c33" stroke="#111c33" stroke-miterlimit="10.43" stroke-width=".09"/>
  </g>
</svg>