<?xml version="1.0" encoding="UTF-8" ?>
<!DOCTYPE svg PUBLIC "-//W3C//DTD SVG 1.1//EN" "http://www.w3.org/Graphics/SVG/1.1/DTD/svg11.dtd">
<svg width="256pt" height="256pt" viewBox="0 0 256 256" version="1.1" xmlns="http://www.w3.org/2000/svg">
<g id="#000000ff">
<path fill="#000000" opacity="1.00" d=" M 73.73 0.00 L 248.93 0.00 C 249.00 39.66 248.86 79.33 249.00 118.99 C 248.80 122.90 249.96 127.71 246.62 130.64 C 232.72 144.05 219.40 158.07 205.47 171.47 C 194.34 182.66 183.06 193.73 171.96 204.95 C 169.58 207.11 167.61 210.62 164.01 210.62 C 153.66 210.84 143.29 210.48 132.93 210.61 C 129.32 210.32 126.90 213.32 124.60 215.60 C 111.45 229.24 97.53 242.12 84.64 256.00 L 83.18 256.00 C 83.60 245.34 83.25 234.67 83.39 224.00 C 83.37 219.66 83.65 215.29 83.03 210.97 C 77.05 210.21 71.01 210.76 65.00 210.65 C 52.79 210.50 40.58 210.86 28.38 210.56 C 27.75 205.73 28.15 200.85 28.09 196.00 C 28.08 146.98 28.12 97.95 28.06 48.92 C 28.02 47.05 28.53 45.16 30.02 43.92 C 42.42 32.03 54.33 19.63 66.61 7.62 C 69.10 5.18 71.37 2.55 73.73 0.00 M 84.15 18.97 C 83.96 20.30 83.85 21.64 83.83 22.99 C 83.85 62.66 83.84 102.33 83.84 142.00 C 83.88 146.32 83.56 150.66 84.20 154.95 C 88.42 155.76 92.74 155.23 97.00 155.33 C 106.27 155.41 115.55 155.22 124.82 155.38 C 125.81 165.61 124.84 175.95 125.25 186.22 C 126.44 185.44 127.56 184.57 128.58 183.58 C 137.50 174.50 146.58 165.58 155.52 156.52 C 156.58 155.16 158.41 155.38 159.93 155.29 C 170.31 155.33 180.68 155.38 191.05 155.34 C 193.32 155.62 194.93 153.82 196.42 152.41 C 206.96 141.63 217.77 131.12 228.37 120.40 C 230.21 118.81 230.12 116.24 230.18 114.02 C 230.12 83.68 230.14 53.34 230.17 23.01 C 230.16 21.62 230.08 20.25 229.94 18.88 C 225.64 18.33 221.31 18.64 217.00 18.60 C 173.99 18.58 130.98 18.63 87.97 18.58 C 86.69 18.60 85.41 18.73 84.15 18.97 Z" />
</g>
<g id="#ffffffff">
<path fill="#ffffff" opacity="1.00" d=" M 84.15 18.97 C 85.41 18.73 86.69 18.60 87.97 18.58 C 130.98 18.63 173.99 18.58 217.00 18.60 C 221.31 18.64 225.64 18.33 229.94 18.88 C 230.08 20.25 230.16 21.62 230.17 23.01 C 230.14 53.34 230.12 83.68 230.18 114.02 C 230.12 116.24 230.21 118.81 228.37 120.40 C 217.77 131.12 206.96 141.63 196.42 152.41 C 194.93 153.82 193.32 155.62 191.05 155.34 C 180.68 155.38 170.31 155.33 159.93 155.29 C 158.41 155.38 156.58 155.16 155.52 156.52 C 146.58 165.58 137.50 174.50 128.58 183.58 C 127.56 184.57 126.44 185.44 125.25 186.22 C 124.84 175.95 125.81 165.61 124.82 155.38 C 115.55 155.22 106.27 155.41 97.00 155.33 C 92.74 155.23 88.42 155.76 84.20 154.95 C 83.56 150.66 83.88 146.32 83.84 142.00 C 83.84 102.33 83.85 62.66 83.83 22.99 C 83.85 21.64 83.96 20.30 84.15 18.97 M 128.40 33.43 C 124.02 33.97 120.09 37.51 119.64 41.99 C 119.10 45.40 120.86 48.55 122.80 51.19 C 128.33 58.65 133.84 66.13 139.49 73.51 C 140.16 74.71 141.89 76.13 140.71 77.57 C 134.13 86.97 126.76 95.83 120.41 105.39 C 116.37 111.97 123.04 120.12 129.94 120.22 C 133.70 119.50 136.66 116.81 138.80 113.77 C 147.09 102.44 155.53 91.21 163.99 80.00 C 164.70 78.81 165.85 77.62 165.72 76.14 C 164.92 73.87 163.26 72.05 161.86 70.13 C 153.80 59.50 145.88 48.77 137.91 38.08 C 135.81 35.04 132.15 32.97 128.40 33.43 M 203.31 34.19 C 200.75 35.11 199.05 37.35 197.43 39.42 C 189.22 50.53 181.04 61.68 172.66 72.67 C 171.84 73.79 171.00 74.93 170.42 76.20 C 170.51 77.56 171.55 78.62 172.24 79.73 C 180.40 90.59 188.60 101.43 196.59 112.43 C 199.11 115.99 202.33 119.78 206.96 120.30 C 212.13 119.53 216.90 115.35 217.42 109.99 C 217.33 106.26 214.68 103.29 212.62 100.41 C 207.40 93.61 202.38 86.65 197.15 79.85 C 196.24 78.42 194.26 76.57 195.93 74.92 C 201.94 66.63 208.22 58.53 214.28 50.29 C 216.21 47.47 218.31 43.82 216.56 40.40 C 214.81 35.14 208.50 31.99 203.31 34.19 Z" />
</g>
<g id="#4b84b6ff">
<path fill="#4b84b6" opacity="1.00" d=" M 128.40 33.43 C 132.15 32.97 135.81 35.04 137.91 38.08 C 145.88 48.77 153.80 59.50 161.86 70.13 C 163.26 72.05 164.92 73.87 165.72 76.14 C 165.85 77.62 164.70 78.81 163.99 80.00 C 155.53 91.21 147.09 102.44 138.80 113.77 C 136.66 116.81 133.70 119.50 129.94 120.22 C 123.04 120.12 116.37 111.97 120.41 105.39 C 126.76 95.83 134.13 86.97 140.71 77.57 C 141.89 76.13 140.16 74.71 139.49 73.51 C 133.84 66.13 128.33 58.65 122.80 51.19 C 120.86 48.55 119.10 45.40 119.64 41.99 C 120.09 37.51 124.02 33.97 128.40 33.43 Z" />
</g>
<g id="#27455fff">
<path fill="#27455f" opacity="1.00" d=" M 203.31 34.19 C 208.50 31.99 214.81 35.14 216.56 40.40 C 218.31 43.82 216.21 47.47 214.28 50.29 C 208.22 58.53 201.94 66.63 195.93 74.92 C 194.26 76.57 196.24 78.42 197.15 79.85 C 202.38 86.65 207.40 93.61 212.62 100.41 C 214.68 103.29 217.33 106.26 217.42 109.99 C 216.90 115.35 212.13 119.53 206.96 120.30 C 202.33 119.78 199.11 115.99 196.59 112.43 C 188.60 101.43 180.40 90.59 172.24 79.73 C 171.55 78.62 170.51 77.56 170.42 76.20 C 171.00 74.93 171.84 73.79 172.66 72.67 C 181.04 61.68 189.22 50.53 197.43 39.42 C 199.05 37.35 200.75 35.11 203.31 34.19 Z" />
</g>
</svg>
