<?xml version="1.0" encoding="UTF-8"?><svg xmlns="http://www.w3.org/2000/svg" xmlns:xlink="http://www.w3.org/1999/xlink" viewBox="0 0 340.26 413.42"><defs><clipPath id="clippath"><polygon points="8.24 109.49 163.73 10.63 328.8 109.49 332.13 305.36 168.55 405.95 5.59 308.06 8.24 109.49" fill="none"/></clipPath></defs><g id="Layer_7"><g clip-path="url(#clippath)"><path d="m168.6-46.24c15.39,2.7,30.78,5.41,46.17,8.11-.47,2.94-.94,5.87-1.4,8.81-.31,1.14-.62,2.29-.94,3.43-.41,1.17-.81,2.33-1.22,3.5.01.94.02,1.88.04,2.82.04.23.08.46.12.68-2.1,7.5-4.2,15.01-6.3,22.51-1.45,2.6-2.55,5.53-4.41,7.72-6.63,7.8-13.77,15.1-20.26,23.02-14.94,18.22-29.9,36.42-44.2,55.21-4.17,5.48-12.27,8.54-11.38,17.8-.74,1.34-1.48,2.69-2.22,4.03-2.25-1.87-3.63.25-5.21,1.46l2.31,1.62c-.7.45-1.4.91-2.1,1.36-3.03-.57-6.06-1.14-9.08-1.72-3.88,4.55,3.56,3.21,2.65,6.22-4.34-1.38-1.22,3.15-3.18,4.65-8.45,6.42-14.42,15.57-20.42,24.55-3.01-.39-6.03-.79-9.04-1.18-1.02-.62-2.03-1.25-3.05-1.87,0-3.63-.02-7.26-.03-11.43q-7.41,7.33-19.16,8.34c-1.74.15-1.58,1.3-.8,1.93,8.33,6.79,5.32,14.12.46,21.58.31.09.61.18.92.27,2.13-1.22,4.26-2.43,6.4-3.65.35-.24.69-.47,1.04-.71,0,0-.03.1-.03.1,1.19-.42,2.37-.85,3.56-1.27,1.67,1.57,3.35,3.13,5.02,4.7-8.76,10.31-17.66,20.49-26.25,30.96-10.78,13.13-21.11,26.69-32.11,39.6-2.09,2.45-3.08,3.44-1.05,5.87-1.41-.24-2.82-.47-4.23-.71-.79-.08-1.57-.16-2.36-.24-.51-.11-1.01-.23-1.52-.34-.28-.07-.55-.15-.83-.22-1.05-.31-2.1-.62-3.15-.93-.86-.32-1.72-.64-2.58-.96-1.55-.3-3.11-.59-4.66-.89-1.31-.36-2.62-.72-3.93-1.07-.8-.35-1.6-.7-2.41-1.05-1.6-.28-3.2-.55-4.8-.83-1.06-.28-2.11-.57-3.17-.85-.82-.34-1.64-.69-2.46-1.03-.78-.09-1.56-.18-2.34-.27-1.05-.33-2.1-.65-3.15-.98-1.09-.39-2.17-.78-3.26-1.17-1.32-.23-2.64-.47-3.96-.7-3.94-1.06-7.87-2.12-11.81-3.18-1.67-.55-3.34-1.1-5-1.65-.11-.13-.24-.23-.38-.31,1.64-1.02,3.66-1.67,4.84-3.12,9.14-11.17,18.09-22.53,27.16-33.77C-.92,164.2,18.76,139.92,38.42,115.62c.67.48,1.35.96,2.02,1.44.45.26.91.53,1.36.79.01-.86.03-1.71.04-2.57-2.54-9.18,3.88-11.53,9.56-14.62.59-.32,4.51.51,1.66-2.65,7.72-10.25,15.43-20.5,23.15-30.75l.21-.02.18.11c.34.25.69.5,1.03.74,2.82,1.43,4.51,2.75,1.5,6.42-2.09,2.55-3.04,6.18-4.5,9.33-.33.67-.66,1.35-1,2.02.49.05.98.1,1.46.15,1.32-.71,2.63-1.42,3.95-2.13,3.36.11,6.56-4.03,10.03-.72,2.3,2.73,4.59,5.47,6.89,8.2.16.13.33.25.49.38-.05-.43-.1-.86-.15-1.28-3.51-9.67-.05-14.94,9.22-16.63.86-.16,1.65-.77,2.48-1.17-.85-.52-1.71-1.03-2.56-1.55-2.19-.58-4.39-1.17-6.58-1.75-3.77.36-4.57-2.21-4.65-5.5-.41-4.07,3.56-9.13-2.03-12.03,3.63-9.23,10.37-15.8,16.53-22.99,12.33-14.39,24.11-29.31,36.16-43.98,1.83-2.22-.89-1.72-1.17-2.65,5.86-.84,12.35-6.61,17.02,1.99.89,1.07,1.79,2.14,2.68,3.21.44.52.88,1.04,1.32,1.56.08-.47.15-.94.23-1.42-.37-2.49-.74-4.99-1.11-7.48-.75-4.73,2.44-5.98,5.57-7.29,2.63-.65,5.26-1.31,9.69-2.41-3.62-1.16-5.41-1.74-7.2-2.31-.99-.58-1.99-1.16-2.98-1.73-1.5-.57-3.01-1.15-4.51-1.72-.14-1.13-.28-2.27-.43-3.4,1.54-2.48,3.08-4.96,4.62-7.45Zm-12.25,93.87l-.06.04c1.15-.45,2.3-.9,3.45-1.34-.74-.33-1.48-.66-2.21-.99-9.2-.46-15.03-4.14-12.7-15.61-.37-.16-.73-.32-1.1-.48-4.16,10.24-10.16,13.21-20.49,3.3,3.7,7.62,5.97,12.29,8.24,16.97-.19.37-.38.73-.56,1.1-1.59,2.36-3.18,4.73-4.77,7.09-.12.63-.24,1.26-.36,1.89,7.29-3.68,14.29-5.59,19.53,3.18.84.83,1.68,1.65,3.55,3.49-.86-3-1.25-4.36-1.64-5.72-4.35-8.65,1.71-10.24,7.27-12.16.62-.25,1.24-.5,1.86-.75ZM3.29,176.71c4.48,3.86,2.67,7.67-.37,11.47-.85,1.29-1.7,2.58-2.54,3.88-2.11,3.28-1.79,4.55-.2,3.45,9.53-6.61,17-4.9,23.11,8.13-.84-6.49-1.31-10.06-1.77-13.63.02-.51.04-1.02.06-1.53,2.5-4.17,6.83-4.5,10.55-6.13.83-.37,1.58-.98,2.36-1.48-.81-.38-1.63-.75-2.44-1.13-.36-.17-.72-.33-1.08-.5-4.37-1.77-11.11-.26-10.6-8.78.18-1.31.52-2.64.49-3.94-.05-2.26-.34-4.51-.52-6.77-1.11,2.08-2.17,4.19-3.34,6.23-2.03,3.55-3.44,8.13-8.7,6.76-3.34-1.12-6.67-2.24-11.26-3.78,2.56,3.17,4.4,5.46,6.25,7.75Z" fill="#1a1b46"/><path d="m-94.06,170.28c5.92-33.68,11.83-67.36,17.75-101.04,13.13-13.02,25.06-27.13,34.62-43.44l-.14-.16.16.13c2.85-.17,4.03-1.96,4.07-4.86.18-.24.28-.52.29-.83,4.36-2.63,7.99-10.88,13.82-2.5.08.11,1.35-.51,1.33-.62C-23.82,6.96-16.6,3.58-10.64-.73c-.2-.31-.4-.63-.6-.94-.54-.1-1.09-.19-1.63-.29-.93.04-1.85.08-2.78.12-3.85-2.85.49-4.85.82-7.27,4.49,2.11,4.8-1.88,5.88-4.76.14-.2.21-.43.21-.68C-1.83-18.99,2.29-26.19,6.9-32.9c.26-.52.52-1.04.79-1.56,2.39,5.41,12.32,9.52,2.05,17.17-1.16.87-1.75,2.66-2.6,4.02,1.8-.03,3.87.57,5.34-.21,6.16-3.29,11.28-4.31,13.83,4.42.31,1.06,1.76,1.71,4.04,3.77-5.02-11.95,1.13-15.22,8.74-17.56.74-.23,1.32-1.12,1.97-1.71-.71-.36-1.42-.72-2.13-1.08-1.08-.21-2.17-.43-3.25-.64-7.88-1.18-7.41-7.43-6.9-13.7-.41-1.49,2.19-3.56-.65-4.58-2.69,4.1-5.38,8.2-8.06,12.3-.82-.16-1.63-.33-2.45-.49-2-.82-4-1.65-6-2.47-1.08-.42-2.16-.84-3.25-1.26.39-.38.79-.75,1.18-1.13,1.04-.17,2.52.07,3.04-.58,8.34-10.3,16.57-20.71,24.82-31.1,12.96,2.28,25.92,4.55,38.88,6.83-2.18,8.73-6.63,11.39-14,6.53-.96-.64-2.18-.83-3.29-1.23.37,1.21.4,2.86,1.17,3.55,6.28,5.64,4.75,11.04-.52,16.56-.68.72-.95,1.9-1.41,2.87,1.1-.22,2.2-.47,3.31-.67,4.73-.84,10.31-9.75,13.8,1.27-1.39.31-3.4.09-4.08,1.01C59.4-16.62,45.44-2.72,34.64,14.35c-6.98,11.04-17.46,19.55-26.36,29.2,0-1.55.12-3.11-.04-4.63-.16-1.57-.59-3.11-1.34-6.83-3.21,10.69-7.97,14.9-16.28,9.99-.42-.25-1.18.15-1.79.25.45,1.18.63,2.66,1.41,3.48,5.03,5.28,3.71,9.94-1.23,14.51-.94.87-1.51,2.19-2.25,3.31,1.29-.01,2.57-.02,3.86-.03,1.22,9.58-6.91,13.66-11.17,19.39-14.04,18.88-30.52,35.6-43.59,55.42-.13-1.64-.27-3.28-.45-5.56-3.05,3.7-5.84,7.08-8.63,10.46-1.45-.11-2.9-.22-4.35-.32-2.75-1.02-5.5-2.03-8.22-3.03,2.18,3.87,4.24,7.52,6.29,11.16-.18.87-.37,1.73-.55,2.6-1.96,3.28-3.91,6.57-5.87,9.85-2.71,2.24-5.42,4.48-8.13,6.73ZM-29.32,77.3l.2-1.26c-1.59-.41-3.18-.82-4.77-1.23-1.02-.41-2.04-.82-3.06-1.23-11.73-1.13-3.94-11.63-7.35-18.33-3.53,13.39-10.86,14.7-20.26,8.87-.18.09-.36.17-.55.26.18.13.35.25.53.38,10.01,7.07,10.17,14.65.57,23.16,3.38-1.64,6.77-3.27,10.15-4.91,1.17.23,2.35.45,3.52.68,2.53,3.76,5.07,7.52,9.88,14.66-5.35-16.21.03-21.11,11.14-21.04Z" fill="#1a1b46"/><path d="m5.34,241.5c.51.11,1.01.23,1.52.34.84.3,1.67.61,2.51.91,1.34.23,2.68.47,4.03.7.22.15.45.27.7.34,1.85.56,3.7,1.13,5.55,1.69.81.11,1.63.21,2.44.32,1.05.31,2.11.63,3.16.94.54.12,1.08.24,1.61.36,1.99-.11,3.99-.23,5.98-.34,5.67-.72,10.62-3.06,14.73-7.59,8.87-9.77,15.5-23.49,31.18-21.39.82.15,1.65.3,2.47.44,3.58.64,7.16,1.28,10.74,1.91.74.15,1.47.29,2.21.44-1.12,1.18-2.32,2.27-3.34,3.54-14.6,18.37-29.18,36.76-43.76,55.15-3.74-.63-7.49-1.26-11.23-1.89-3.79-.61-7.58-1.21-11.37-1.82-1.17-.02-2.34-.03-3.52-.05-2.83.42-5.66.84-8.49,1.27-.64.5-1.28.99-1.92,1.49l-.07.05c-4.43,4.98-8.85,9.97-13.28,14.95-1.69,1.3-3.38,2.61-5.07,3.91-.09.28-.27.43-.55.45-1.94-.93-4.01-3.09-5.44.82-1.38.09-2.76.19-4.14.28-6-1.05-12-2.11-18-3.16-1.27-.37-2.54-.75-3.81-1.12-.8-.31-1.61-.62-2.41-.93-1.1-.17-2.21-.35-3.31-.52-.48-.12-.96-.23-1.44-.35-1.7-.31-3.41-.62-5.11-.93-.95-.53-1.9-1.06-2.85-1.59-1.08-.39-2.16-.78-3.25-1.17-1.9-.35-3.8-.69-5.7-1.04-.46-.18-.92-.35-1.39-.53-.84-.33-1.68-.66-2.52-.99-2.14-.38-4.27-.76-6.41-1.15l.08-.14c-.57-.12-1.14-.25-1.71-.37-1.02-.21-2.04-.42-3.06-.64-.63-.22-1.25-.44-1.88-.66-9.2-1.47-18.4-2.94-27.6-4.41-1-.18-2.01-.36-3.01-.53-.5-.34-1-.68-1.5-1.02,1.96-11.13,3.91-22.26,5.87-33.39,5.66-2.12,8.16-7.04,9.76-12.75,7.26-6.73,15.64-9.64,25-9.26,1.43.07,2.86.14,4.3.21,2.97.38,5.94.77,8.9,1.15,1.79.72,3.58,1.44,5.37,2.17.52.29,1.05.59,1.57.88,1.65.29,3.3.58,4.95.88,3.94,1.06,7.87,2.12,11.81,3.18,1.34.45,2.69.9,4.03,1.35,1.07.17,2.13.34,3.2.52,1.05.33,2.1.65,3.15.98.84.32,1.68.64,2.53.95.76.12,1.52.23,2.28.35,1.06.28,2.11.57,3.17.85,1.61.49,3.22.98,4.83,1.47.79.14,1.58.27,2.37.41,1.31.36,2.62.71,3.93,1.07,1.6.5,3.2,1.01,4.8,1.51.82.11,1.63.22,2.45.34,1.05.31,2.1.62,3.15.93.28.07.55.15.83.22Z" fill="#e6e6e8"/><path d="m-72.26,222.08c-9.36-.38-17.74,2.53-25,9.26-2.64.73-5.27,1.47-7.91,2.2,1.13-6.44,2.26-12.89,3.4-19.33,8.24-9.5,16.71-18.78,24.62-28.58,4.1-5.07,7.21-11.07,10.76-16.65.52.79,1.04,1.59,1.56,2.38.77-1.26,1.42-2.64,2.34-3.78,9.86-12.2,18.3-25.87,31.08-35.06,4.43-1.91,8.93-4.67,12.21,1.77.41.8,1.96.89,2.99,1.31.21-1.32.43-2.65.64-3.97.06-.12.17-.24.16-.35-.02-.24-.11-.48-.16-.72,0-.56-.02-1.12-.02-1.69.09-.1.25-.2.24-.29-.02-.25-.1-.49-.16-.73.98-7.39,8.52-5.11,11.83-9.77-2.63-.46-5.13-.9-7.64-1.34-.82-1.3-1.64-2.61-2.46-3.91-.1-.33-.19-.66-.29-.99l.36-.11c3.11-7.69,7.18-14.7,12.34-21.07,14.41-17.76,28.68-35.67,43-53.51,0,0,.09.13.09.13l1.39-1.5-.07.06c.34-.19.69-.38,1.03-.57,6.84-5.44,9.68,1.58,15.28,6.52-6.28-14.94,3.71-16.05,11.05-19.33.24-.41.48-.81.73-1.22-.98-.04-1.96-.07-2.93-.11-.79-.05-1.58-.1-2.37-.16-.62-.02-1.25-.04-1.87-.06-.73-.05-1.45-.1-2.18-.14-.77-.38-1.54-.76-2.31-1.13.02-1.01-.35-2.38.12-2.96,10.83-13.39,21.88-26.57,32.62-40.04,8.37-10.5,16.38-21.33,24.55-32.01,3.24.57,6.48,1.14,9.72,1.71.59.93,1.19,1.85,1.78,2.78.22-.79.43-1.57.65-2.36,5.94,1.04,11.88,2.09,17.82,3.13-9.44,13.48-19.42,26.46-30.88,38.04-1.49.74-2.97,1.48-4.46,2.22-3.63-1.55-3.58-5.29-3.95-8.92-3.07,3.3-5.86,6.29-8.64,9.28-.36.07-.73.15-1.09.22l-6.31-1.1c-.83,0-1.67.01-2.5.02.64,1.31,1.28,2.61,1.92,3.92.45.34.91.69,1.36,1.03,5.18,6.5-5.09,7.73-3.99,13.12,3.95-2.17,7.06-6.26,11.86-6.17.81.9,1.61,1.81,2.42,2.71-.3,1.24-.6,2.48-.91,3.72-1.06,1.4-2.11,2.8-3.17,4.2-11.52,12.26-23.65,23.98-31.3,39.75-.28.25-.56.49-.85.74-8.09,2.41-10.36,11.23-15.29,16.97-3.47,4.05-10.13,6.47-9.38,13.97-1.22.43-2.44.86-3.66,1.29-5.43-2.79.9-7.57-1.45-11.02-2.37,3.07-5.31,5.86-6.99,9.32-2.2,4.55-17.56-2.64-8.98,11.72.75,1.26-3.55,6.12-5.5,9.31,3.14-1.59,6.28-3.17,9.41-4.76-2.36,8.93-9.81,13.79-14.48,20.85-4.82,7.28-12.47,12.16-15.42,20.99-6.42.96-7.94,6.94-10.47,11.87-.39-.3-.79-.61-1.18-.91.12.88.24,1.76.37,2.63-.48.5-.95,1.01-1.43,1.51-6.28,7.29-12.55,14.59-18.83,21.88-6.89,3.64-5.26-.74-2.95-5.62-6.35,3.26-8.52,10.58-14.79,11.79-.83-.09-1.66-.18-2.48-.28-.85.28-1.69.56-2.54.84,5.68,7.76-3.46,10.19-5.1,15.31,4.69,1.37,6.51-9.04,12.14-3.72-5.91,8.31-11.82,16.62-17.73,24.92-.59.17-1.18.34-1.76.51Z" fill="#293b8e"/><path d="m-31.42,132.53c-12.78,9.19-21.22,22.86-31.08,35.06-.91,1.13-1.56,2.51-2.34,3.78-.52-.79-1.04-1.59-1.56-2.38l.25-.24c3.32.29,1.48-2.02,1.25-3.11-1.43-6.81.14-11.54,7.09-13.58,2.14-.63,3.97-2.67,5.94-4.07-2.1-.36-4.2-.72-6.3-1.09-.85-.1-1.7-.19-2.54-.29-.51-.05-1.02-.11-1.53-.16-.32-.05-.63-.1-.95-.15-2.33-2.29-1.62-5.1-.96-7.9,13.08-19.81,29.55-36.54,43.59-55.42,4.26-5.73,12.39-9.81,11.17-19.39,5.63-4.83,10.57-6.13,14.27,2.21.74,1.66,2.87,2.56,4.35,3.81.09-.48.39-1.07.25-1.44-4.4-10.95,2.39-14.54,10.12-17.53.24-.07.48-.15.72-.22-.16-.17-.33-.34-.49-.51l-.09-.08c-2.64-.67-5.29-1.35-7.93-2.02-1.99-.63-4.93-.33-3.54-4.26,8.91-9.65,19.39-18.16,26.36-29.2,10.8-17.07,24.76-30.98,36.59-46.92.68-.92,2.69-.7,4.08-1.01.69,1.3,1.37,2.59,2.06,3.89.18.3.36.6.54.9l.05.06,1.44,2.02c.22-.54.45-1.09.67-1.63.07-.56.14-1.12.21-1.68.07-.6.15-1.2.22-1.81.12-.9.24-1.8.36-2.69.41-1.74.82-3.48,1.23-5.23,2.96-1.45,5.93-2.9,8.67-4.24-1.23-.7-2.59-1.47-3.95-2.25-1.98-6.67,3.83-9.09,6.46-13.24,4.86.85,9.72,1.71,14.58,2.56-.05.85-.09,1.7-.14,2.55,1.4-.61,2.79-1.23,4.19-1.84,1.62.28,3.24.57,4.86.85-8.17,10.68-16.17,21.52-24.55,32.01-10.74,13.47-21.79,26.65-32.62,40.04-.47.58-.1,1.96-.12,2.96-.28-.07-.55-.14-.82-.21-.08-1.46-.16-2.92-.24-4.38.04-.34.08-.68.12-1.03.06-.54.12-1.08.18-1.62-.03-1-.06-2.01-.09-3.01-3.04,2.83-6.08,5.67-9.12,8.5-.59.15-1.18.31-1.77.46-.52-.03-1.04-.06-1.56-.1-1.36-.24-2.71-.49-4.07-.73-1.07.13-2.14.26-3.21.4,1.31,1.74,2.61,3.48,3.92,5.22,2.16,4.84-1.35,8.22-2.96,12.09-.34.83-.56,1.71-.84,2.57.87-.22,1.74-.44,2.62-.66C27.31,55.02,13.04,72.92-1.37,90.68c-5.17,6.37-9.24,13.38-12.34,21.07,0-.52,0-1.04,0-1.56.05-.33.1-.67.15-1,.17-.86.33-1.72.5-2.59,0-.45,0-.89-.01-1.34-.58-.12-1.61-.46-1.67-.33-3.96,9.1-9.82,13.45-19.9,8.84,9.02,7.55,5.28,13.67-2.43,20.32,3.12-.86,4.39-1.22,5.66-1.57Z" fill="#2a3271"/><path d="m326.55-18.49c40.23,7.07,80.46,14.14,120.69,21.2-4.2,11.8-12.8,19.55-19.8,28.09.04.02.67,1.43-.63,3.49-5.21-.83-10.43-1.65-15.64-2.48-1.58-.3-3.16-.59-4.75-.89-3.84-.43-7.68-.86-11.52-1.29-.54-.02-1.09-.04-1.63-.05-9.19-1.61-18.37-3.23-27.56-4.84-1.33-.32-2.67-.64-4-.96-2.64-.71-5.29-1.42-7.93-2.13-.27-.08-.55-.15-.82-.23-1.64-.5-3.28-1.01-4.91-1.51-1.06-.17-2.12-.34-3.19-.52-5.74-2.03-11.48-4.06-17.22-6.09-1.34-.28-2.68-.56-4.02-.84-.77-.38-1.54-.76-2.31-1.14-2.1-.62-4.2-1.23-6.3-1.85-2.94-.5-5.87-1.01-8.81-1.51-.33-.17-.66-.34-.98-.51,10.04-5.86,15.27-16.3,21.34-25.93Z" fill="#9c1c24"/><path d="m265.7,399.23c-40.77-7.16-81.54-14.33-122.31-21.49,7.89-12.41,16.81-23.86,27.34-33.8,8.9,3.66,17.81,7.32,26.71,10.97.76.32,1.52.64,2.28.96,7.89,2.94,15.77,5.88,23.66,8.81,1.51.54,3.02,1.08,4.53,1.62,2.16.77,4.32,1.53,6.48,2.3,1.23.42,2.46.85,3.69,1.27.85.26,1.7.53,2.56.79,1.03.36,2.07.73,3.1,1.09,2.4.75,4.8,1.5,7.2,2.26,1.82.61,3.63,1.21,5.45,1.82l.13.05c.22.06.44.12.66.18.79.21,1.57.43,2.36.64,1.31.43,2.62.86,3.93,1.28.56.17,1.12.34,1.67.51.55.24,1.1.48,1.65.71,1.03.23,2.05.45,3.08.68,1.32.51,2.64,1.02,3.97,1.52,1.36.28,2.71.56,4.07.83.23.13.47.22.72.27.04.19.06.38.08.57-4.33,5.38-8.67,10.76-13,16.14Z" fill="#949598"/><path d="m-65.5,7.74c3.96-22.55,7.92-45.1,11.89-67.65,1.83,1.83,2.75,1.44,2.66-1.35.08-1.82.17-3.64.25-5.47,3.02-4.64,9.72-2.49,12.27-7.99-2.46-.4-4.92-.8-7.38-1.2-.5-.08-1.01-.15-1.51-.23.42-2.6.85-5.19,1.27-7.79,18.9,3.32,37.8,6.64,56.7,9.96-.61,2.91-2.09,4.75-5.03,4.81-2.95-.3-5.91-.59-8.86-.89,5.93,7.31,2.14,12.53-5.59,18.01,3.14-.45,4.28-.62,5.43-.78.27.63.55,1.25.82,1.88-3.37,4.23-6.81,8.39-10.09,12.7-6.07,7.99-12.05,16.06-18.07,24.09-.6.13-1.21.27-1.81.4,0,0-.08.02-.08.02-.63.11-1.25.22-1.88.33-5.32,10.76-12.7,19.61-20.78,27.2.81.43,2.39,1.27,3.97,2.11-2.34-.44-4.67-.87-7.01-1.31-.25-.14-.5-.29-.75-.43-.04-2.68-.09-5.36-.13-8.05.41-1.61.83-3.23,1.24-4.84-1.5,1.06-3.07,2.02-4.48,3.21-1.12.95-2.05,2.16-3.07,3.26ZM-22.41-42.56c-2.7-.49-5.4-.98-8.11-1.47-3.03-2.17.53-4.14.33-6.22.34-.8.67-1.61,1.01-2.41-.53.11-1.06.22-1.59.33-3.18,2.55-6.35,5.1-9.53,7.65-2.26-.24-4.52-.48-6.77-.73,1.24,6.62-1.09,11.82-5.65,16.6,3.15-1.39,6.29-2.77,9.44-4.16,1.06.21,2.13.41,3.19.62,1.32,1.84,2.64,3.68,3.96,5.51,3.6-1.72,2.68-4.93,2.42-7.92,2.8-3.79,6.99-4.59,10.85-6.1.63-.24,1.19-.7,1.78-1.05-.44-.22-.89-.43-1.33-.65Z" fill="#2a3271"/><path d="m462.53,433.81c-56.7-9.96-113.4-19.92-170.1-29.88.07-6.63,9.01-6.23,8.97-12.95,1.35.26,2.69.51,4.04.77,1.58.36,3.17.71,4.75,1.07.58.26,1.17.53,1.75.79,1.83.36,3.66.72,5.5,1.07.51.17,1.02.33,1.53.5,2.7.69,5.41,1.38,8.11,2.07,2.17.35,4.34.69,6.51,1.04,4,.83,7.99,1.66,11.99,2.49,13.25,2.32,26.51,4.64,39.76,6.97,1.33.14,2.66.27,3.98.41,18.1,3.27,36.2,6.53,54.3,9.8,4.4.93,8.8,1.86,13.21,2.79,4.2.83,8.4,1.66,12.6,2.49l-.13.13c-.03.24-.02.48.03.72-3.54,2.22-5.35,5.83-6.79,9.73Z" fill="#e6e6e8"/><path d="m128.8,375.19c-16.2-2.85-32.4-5.69-48.6-8.54,1.3-4.77,8.09-6.94,5.74-13.44.62-.18,1.24-.36,1.85-.54,3.62.08,7.72.08,9.74-3.48,6.71-11.87,16.96-17.42,28.74-20.65.73.11,1.46.21,2.19.32.91-.06,1.81-.12,2.72-.18l.84-.16,8.09,1.41-.06.19c1.88.61,3.76,1.22,5.65,1.83,3.25,1.46,6.5,2.92,9.74,4.38,1.08.56,2.15,1.13,3.23,1.69-9.96,12.39-19.92,24.78-29.87,37.18Z" fill="#e6e6e8"/><path d="m85.94,353.21c2.35,6.5-4.44,8.67-5.74,13.44-35.64-6.26-71.28-12.52-106.92-18.78,1.3-4.76,4.05-8.38,7.78-11.22.6.14,1.19.29,1.79.43l.18.34.33-.2c.17-.07.33-.17.47-.28.71.19,1.43.38,2.14.56.26.07.51.13.77.2.2.02.37-.03.54-.15.36.15.72.3,1.08.45.64.27,1.28.55,1.91.82,11.41,2.04,22.83,4.08,34.24,6.12,1.71.12,3.43.24,5.14.35,1.86.24,3.72.47,5.58.71,4.28.7,8.56,1.4,12.84,2.1,1.21.05,2.42.09,3.63.14,1.09.09,2.18.19,3.27.28,4.26.72,8.53,1.44,12.79,2.16,4.95.69,9.9,1.39,14.85,2.08,1.11.14,2.22.29,3.32.43Z" fill="#bebfc2"/><path d="m326.55-18.49c-6.08,9.63-11.3,20.07-21.34,25.93-1.14.13-2.27.26-3.41.39-8.26-.11-16.11,2.43-23.97,4.93-1.31-.31-2.62-.63-3.93-.94,1.12-1.94,2.05-4.05,3.38-5.81,5.27-6.94,11.83-12.87,14.53-21.76,5.32-.71,10.19-2.67,14.48-6.3,6.75,1.19,13.5,2.37,20.25,3.56Z" fill="#d62027"/><path d="m115.85-12.04c11.46-11.59,21.43-24.56,30.88-38.04,4.86.85,9.72,1.71,14.58,2.56-2.58,5.36-6.04,9.1-12.17,7.93-1.15.06-2.3.12-3.45.18-1.28,0-2.56,0-3.28,0,.38,5.36,12.7,6.15,3.33,14.57-2.26-.88-2.16,1.53-3.03,2.58C133.42-11.01,124.14.25,114.85,11.5c-4.86-10.76,7.49-10.54,9.69-17.59-5.64,2.36-10.16,2.6-8.69-5.95Z" fill="#2267a8"/><path d="m128.8,375.19c9.96-12.39,19.92-24.78,29.87-37.18,1.83.83,3.65,1.66,5.48,2.49,1.76,1,3.52,1.99,5.27,2.99.32.08.64.17.96.25l.21.02.12.19c-10.53,9.94-19.45,21.39-27.34,33.8-4.86-.85-9.72-1.71-14.58-2.56Z" fill="#bebfc2"/><path d="m301.4,390.98c.03,6.72-8.9,6.32-8.97,12.95-8.91-1.57-17.82-3.13-26.73-4.7,4.33-5.38,8.67-10.76,13-16.14,1.28.29,2.56.57,3.84.86.8.22,1.6.45,2.4.67,1.37.46,2.73.93,4.1,1.39.73.28,1.47.55,2.2.83.31.2.62.41.93.61,1.03.18,2.05.36,3.08.54,2.08.74,4.16,1.49,6.23,2.23-.02.25-.04.5-.09.75Z" fill="#bebfc2"/><path d="m25.25,246.75c-1.05-.31-2.11-.63-3.16-.94-.82-.3-1.64-.59-2.46-.89-1.84-.38-3.69-.75-5.53-1.13-.25-.08-.48-.19-.7-.34.03-.22.04-.44.05-.66-2.03-2.44-1.04-3.42,1.05-5.87,11-12.9,21.33-26.47,32.11-39.6,8.59-10.47,17.49-20.65,26.25-30.96,2.03,2.22,4.06,4.45,6.32,6.92-.11-2.52-.21-4.77-.31-7.02,1.1-3.45,2.19-6.91,3.29-10.36l-.06.06c.93-.47,1.86-.95,2.78-1.42l-.07.05c2.67-.66,5.65-.55,7.38-3.58-.77-.37-1.53-.73-2.3-1.1-.78-.12-1.55-.24-2.33-.36,6-8.98,11.97-18.12,20.42-24.55,1.96-1.49-1.16-6.02,3.18-4.65,4.41,3.39,4.11,4.77-2.33,12.64-.77.94-.88,2.51-1.3,3.78.96-.42,1.88-1.04,2.87-1.23,4.34-.84,6.69-8.13,12.31-4.76-10.73,12.31-19.08,26.62-30.09,38.86-18.82,20.92-36.19,43.39-53.68,65.65-2.44,3.1-8.97,4.84-6.09,11.46-1.99.11-3.99.23-5.98.34-.54-.12-1.08-.24-1.61-.36Z" fill="#2a3271"/><path d="m124.82,107.39c-.89-9.26,7.21-12.32,11.38-17.8,14.3-18.79,29.27-36.99,44.2-55.21,6.49-7.92,13.63-15.23,20.26-23.02,1.86-2.19,2.96-5.13,4.41-7.72-.89,4.28-1.79,8.57-2.68,12.85-.18.38-.36.76-.54,1.14-.91,4.71-1.81,9.41-2.72,14.12,0,0,.08-.12.08-.12-.33.31-.67.62-1,.93-.03,1.17-.06,2.33-.1,3.5-.59,3.1-1.17,6.2-1.76,9.3-.2-.1-.39-.08-.57.06-1.57.59-3.68.67-4.64,1.85-12.72,15.41-25.34,30.91-37.84,46.53-5.85,7.31-11.38,14.92-17.06,22.39-.17.04-.3.14-.4.3-.26-.05-.52-.07-.79-.05-1.85-.41-3.7-.82-5.54-1.24-.02-2.04-.04-4.08-.06-6.12.54-2.31,1.1-4.68-1.23-6.13-.14-.09-1.4,1.85-2.14,2.85-.42.53-.85,1.06-1.27,1.59Z" fill="#2a3271"/><path d="m202.39,16.49c.89-4.28,1.79-8.57,2.68-12.85,2.1-7.5,4.2-15.01,6.3-22.51,2.68.45,5.36.9,8.04,1.35,1.7.07,3.4.14,5.11.21,0,0,.02,0,.02,0,1.94.06,3.87.11,5.81.17,3.06-.04,6.13-.07,9.19-.11-5.18,15.02-17.11,24.59-25.8,36.79-2.56,3.59-8.35,5.06-6.93,11.4-1.42.11-2.84.21-4.27.32-1.14.17-2.27.33-3.41.5.91-4.71,1.81-9.41,2.72-14.12.18-.38.36-.76.54-1.14Z" fill="#680c0f"/><path d="m-53.7,225.6c-1.79-.72-3.58-1.44-5.37-2.17,20.11-17.97,34.8-41.26,52.24-61.86,12.94-15.29,25.66-30.8,38.47-46.22.26,0,.52,0,.78.01-.04-.15-.08-.3-.12-.44-.22.15-.43.31-.65.46-.29-.38-.57-.76-.86-1.14,3.08-2.56,5.44-1.08,7.62,1.37C18.76,139.92-.92,164.2-20.55,188.52c-9.07,11.24-18.02,22.59-27.16,33.77-1.18,1.45-3.21,2.1-4.85,3.12-.38.07-.76.13-1.13.2Z" fill="#25588c"/><path d="m145.74-24.85c-.29,2.47-4.66,3.68-2.04,7.06.29.93,3,.43,1.17,2.65-12.05,14.67-23.83,29.59-36.16,43.98-6.17,7.2-12.9,13.77-16.54,22.99,0,0,.04-.08.04-.08-6.52.64-7.34,9.04-12.8,11.12-.84-.18-1.69-.36-2.53-.54-1.03-.4-2.06-.81-3.09-1.21,12.87-15.94,25.74-31.89,38.62-47.83,2.37,1.94,2.54.3,2.45-1.78,9.29-11.26,18.57-22.51,27.86-33.77.87-1.05.77-3.46,3.03-2.58Z" fill="#25588c"/><path d="m154.49,48.38c-5.57,1.92-11.62,3.5-7.27,12.16-.63.75-1.27,1.49-1.9,2.24-5.24-8.77-12.24-6.86-19.53-3.18.12-.63.24-1.26.36-1.89,1.59-2.36,3.18-4.73,4.77-7.09.19-.37.38-.73.56-1.1-2.27-4.68-4.54-9.35-8.24-16.97,10.33,9.91,16.33,6.95,20.49-3.3.37.16.73.32,1.1.48-2.33,11.47,3.5,15.15,12.7,15.61-.41.78-.83,1.55-1.24,2.33,0,0,.06-.04.06-.04-.62.25-1.24.5-1.85.75Z" fill="#949598"/><path d="m135.06,116.43c.26-.02.53,0,.79.05,1.4.01,2.79.03,4.19.04l3.69.65c-3.43,1.82-6.17,3.26-8.9,4.71-1.36.67-2.73,1.35-4.09,2.02,0,0-.31.22-.31.22s-.23.23-.23.23c-.28,1.51-.57,3.03-.85,4.54.27,2.72.54,5.45.91,9.19-2.94-2.84-5.24-5.07-7.55-7.3-5.62-3.37-7.97,3.92-12.31,4.76-.99.19-1.92.81-2.87,1.23.42-1.28.53-2.84,1.3-3.78,6.44-7.87,6.75-9.25,2.33-12.64.91-3-6.53-1.67-2.65-6.22,3.03.57,6.06,1.14,9.08,1.72.7-.45,1.4-.91,2.09-1.36.23-.16.45-.32.68-.48.62-.62,1.24-1.24,1.86-1.87.19-.2.31-.44.36-.73.74-1.34,1.48-2.69,2.22-4.03.42-.53.85-1.06,1.27-1.59,5.11-3.65,1.19,3.45,3.37,3.28.02,2.04.04,4.08.06,6.12,1.44,2.32,3.51,1.67,5.54,1.24Z" fill="#e6e6e8"/><path d="m38.42,115.62c-2.18-2.45-4.54-3.92-7.62-1.37-2.63,1.56-5.27,3.12-10.12,6,3.45-4.29,5.94-6.31,6.98-8.95,1.26-3.18,1.59-6.9,1.61-10.38,0-.74-3.04-1.41-4.68-2.12,3.5-5.68,6.72-11.66,13.31-13.89,1.22-.43,2.44-.86,3.66-1.29.96.36,1.92.72,2.87,1.07-.71.86-1.32,1.88-2.16,2.55-2.55,2.05-5.2,3.96-7.81,5.92-.59,2.27-3.74,4.96.75,6.38,1.52-1.87,3.05-3.72,4.55-5.61,1.35-1.71,2.65-3.46,3.98-5.2,1.87,2.57-.72,4.56-.94,6.86,2.66,4.19,6.72,2.15,10.26,2.4,2.85,3.16-1.07,2.33-1.66,2.65-5.68,3.08-12.1,5.44-9.56,14.62-.47.59-.94,1.19-1.4,1.78-.67-.48-1.35-.96-2.02-1.44Z" fill="#e6e6e8"/><path d="m32.05,179.73c.81.38,1.63.75,2.44,1.13-.78.5-1.53,1.11-2.36,1.48-3.72,1.63-8.05,1.96-10.55,6.13-.02.51-.04,1.02-.06,1.53.46,3.57.93,7.14,1.77,13.63-6.11-13.03-13.59-14.74-23.11-8.13-1.59,1.1-1.91-.17.2-3.45.84-1.3,1.69-2.59,2.54-3.88.18.35.36.69.54,1.04.2-.19.41-.37.59-.58,5.45-6.06,8.19-14.94,16.32-18.19-.5,8.52,6.23,7.02,10.6,8.78.36.17.72.33,1.07.5Z" fill="#949598"/><path d="m53.07,98.01c-3.54-.25-7.6,1.79-10.26-2.4,3.37.68,5.28-1.83,7.19-4.13,7.47-9.01,14.88-18.09,22.31-27.14,1.3.97,2.6,1.95,3.91,2.92-7.72,10.25-15.43,20.5-23.15,30.75Z" fill="#25588c"/><path d="m63.27,163.53c-2.13,1.22-4.26,2.43-6.4,3.65-.31-.09-.61-.18-.92-.27,4.86-7.46,7.86-14.79-.46-21.58-.77-.63-.94-1.79.8-1.93q11.75-.99,19.16-8.34c0,4.17.02,7.8.03,11.43-3.73,5.48-7.46,10.96-11.19,16.43,0,0,.03-.1.03-.1-.35.24-.69.47-1.04.71Z" fill="#949598"/><path d="m76.21,67.27c-1.3-.97-2.6-1.95-3.9-2.92-1.01-1.67-.31-2.32,1.29-2.44,1.09.14,2.19.27,3.28.41.84.18,1.69.36,2.53.54,9.89,3.94,9.19-6.52,12.81-11.12,0,0-.04.08-.04.08,5.59,2.9,1.62,7.96,2.03,12.03-2.9,3.31-5.98,6.47-8.65,9.98-2.4,3.15-4.36,6.68-6.51,10.05-1.32.71-2.63,1.42-3.94,2.13-.16-.72-.31-1.44-.47-2.16,1.46-3.15,2.41-6.78,4.5-9.33,3.01-3.67,1.32-4.99-1.5-6.42-.34-.25-.69-.5-1.03-.74l-.18-.11-.21.02Z" fill="#e6e6e8"/><path d="m87.56,149.55c.78.12,1.55.24,2.32.36.48.4.96.8,1.44,1.2-2.17,1.16-4.35,2.32-6.52,3.48,0,0,.07-.05.07-.05-.93.47-1.86.95-2.78,1.42,0,0,.06-.06.06-.06-6.72,1.52-4.48,6.12-3.29,10.36.1,2.25.2,4.5.31,7.02-2.26-2.48-4.29-4.7-6.32-6.92-1.67-1.57-3.34-3.13-5.02-4.7,3.56-4.43,7.12-8.86,10.68-13.29,3.01.39,6.03.79,9.04,1.18Z" fill="#e6e6e8"/><path d="m79.05,83.88c2.15-3.36,4.11-6.9,6.51-10.05,2.67-3.51,5.75-6.67,8.65-9.98.08,3.29.88,5.86,4.65,5.5.17.25.34.5.51.75-3.53,4.26-8.88,6.86-10.29,13.05-3.47-3.31-6.67.84-10.03.72Z" fill="#bebfc2"/><path d="m20.37,170.45c-8.14,3.25-10.88,12.14-16.32,18.19-.19.21-.39.39-.59.58-.18-.35-.36-.69-.54-1.04,3.04-3.8,4.85-7.61.37-11.47,1.67-1.32,3.34-2.65,5.01-3.97,5.27,1.37,6.67-3.21,8.7-6.76,1.17-2.04,2.23-4.15,3.34-6.23.19,2.25.47,4.5.52,6.77.03,1.3-.32,2.63-.49,3.94Z" fill="#bebfc2"/><path d="m89.08,83.16c1.41-6.19,6.76-8.79,10.29-13.05,2.02.33,4.05.66,6.07,1,.85.52,1.71,1.03,2.56,1.55-.82.4-1.62,1.02-2.48,1.17-9.27,1.69-12.73,6.96-9.22,16.63-.11.3-.23.6-.34.9-2.3-2.73-4.59-5.47-6.89-8.2Z" fill="#949598"/><path d="m78.52,148.36c-3.56,4.43-7.12,8.86-10.68,13.29-1.19.42-2.37.85-3.56,1.27,3.73-5.48,7.46-10.95,11.19-16.43,1.02.62,2.03,1.25,3.05,1.87Z" fill="#bebfc2"/><path d="m8.3,172.74c-1.67,1.32-3.34,2.65-5.01,3.97-1.85-2.29-3.7-4.58-6.25-7.75,4.59,1.54,7.93,2.66,11.26,3.78Z" fill="#e6e6e8"/><path d="m120.37,114.01c-.23.16-.45.32-.68.48-.77-.54-1.54-1.08-2.31-1.62,1.58-1.21,2.96-3.33,5.21-1.46-.05.28-.17.52-.36.73-.62.62-1.24,1.24-1.86,1.87Z" fill="#2a3271"/><path d="m145.32,62.77c.63-.75,1.27-1.49,1.9-2.24.39,1.36.78,2.72,1.64,5.72-1.87-1.83-2.71-2.66-3.55-3.49Z" fill="#bebfc2"/><path d="m117.6,115.85c-3.03-.57-6.06-1.14-9.08-1.72,3.03.57,6.06,1.14,9.08,1.72Z" fill="#949598"/><path d="m156.29,47.67c.41-.78.83-1.55,1.24-2.33.74.33,1.48.66,2.21.99-1.15.45-2.3.9-3.45,1.34Z" fill="#bebfc2"/><path d="m105.44,71.1c-2.02-.33-4.05-.66-6.07-1-.17-.25-.34-.5-.51-.75,2.19.58,4.39,1.17,6.58,1.75Z" fill="#4c4c67"/><path d="m13.45,242.79c0,.22-.03.44-.05.66-1.34-.23-2.68-.47-4.03-.7-.06-.22-.11-.45-.15-.67,1.41.24,2.82.47,4.23.71Z" fill="#4c4c67"/><path d="m74.63,83.85c.16.72.32,1.44.47,2.16-.49-.05-.98-.1-1.47-.15.33-.67.66-1.35,1-2.02Z" fill="#71779d"/><path d="m40.45,117.06c.47-.59.94-1.19,1.4-1.78-.01.86-.03,1.71-.04,2.57-.45-.26-.91-.53-1.36-.79Z" fill="#949598"/><path d="m9.22,242.08c.04.23.09.45.15.67-.84-.3-1.67-.61-2.51-.91.79.08,1.57.16,2.36.24Z" fill="#9195b7"/><path d="m126.14,57.71c-.12.63-.24,1.26-.36,1.89.12-.63.24-1.26.36-1.89Z" fill="#4c4c67"/><path d="m-1.08,240.01c-.04-.21-.08-.42-.14-.62.86.32,1.72.64,2.58.96-.82-.11-1.63-.22-2.45-.34Z" fill="#4c4c67"/><path d="m154.49,48.38c.62-.25,1.24-.5,1.85-.75-.62.25-1.24.5-1.85.75Z" fill="#bebfc2"/><path d="m95.96,91.36c.11-.3.23-.6.34-.9.05.43.1.86.15,1.28-.16-.13-.33-.25-.49-.38Z" fill="#4c4c67"/><path d="m144.83,29.73c-.37-.16-.73-.32-1.1-.48.37.16.73.32,1.1.48Z" fill="#4c4c67"/><path d="m63.27,163.53c.35-.24.69-.47,1.04-.71-.35.24-.69.47-1.04.71Z" fill="#bebfc2"/><path d="m131.48,49.51c-.19.37-.38.73-.56,1.1.19-.37.38-.73.56-1.1Z" fill="#4c4c67"/><path d="m21.52,190.01c.02-.51.04-1.02.06-1.53-.02.51-.04,1.02-.06,1.53Z" fill="#4c4c67"/><path d="m55.95,166.91c.31.09.61.18.92.27-.31-.09-.61-.18-.92-.27Z" fill="#4c4c67"/><path d="m76.6,67.36c.34.25.69.5,1.03.74-.34-.25-.69-.5-1.03-.74Z" fill="#25588c"/><path d="m5.34,241.5c-.28-.07-.55-.15-.83-.22.28.07.55.15.83.22Z" fill="#9195b7"/><path d="m32.05,179.73c-.36-.17-.72-.34-1.07-.5.36.17.72.33,1.07.5Z" fill="#4c4c67"/><path d="m8.27,43.55c-1.39,3.92,1.55,3.63,3.54,4.26,2.64.67,5.29,1.35,7.93,2.02,0,0,.09.08.09.08-.16.22-.23.46-.23.74-7.73,2.99-14.52,6.59-10.12,17.53.15.37-.15.95-.25,1.44-1.49-1.25-3.62-2.16-4.35-3.81-3.71-8.34-8.65-7.04-14.27-2.21-1.29.01-2.57.02-3.86.03.74-1.11,1.31-2.44,2.25-3.31,4.94-4.57,6.26-9.23,1.23-14.51-.78-.82-.95-2.3-1.41-3.48.6-.1,1.37-.5,1.79-.25,8.31,4.92,13.07.71,16.28-9.99.75,3.72,1.18,5.25,1.34,6.83.16,1.52.04,3.09.04,4.63Z" fill="#e6e6e8"/><path d="m47.08,279.26c14.58-18.39,29.16-36.78,43.76-55.15,1.01-1.27,2.22-2.36,3.34-3.54.25-.11.5-.15.76-.13,1.51.65,3.01,1.3,4.52,1.95,2.94,1.16,5.88,2.33,8.82,3.49,1.61.51,3.22,1.01,4.83,1.52l.35.11.37-.05c4.14,1.93,8.27,3.86,12.41,5.79.78.16,1.55.32,2.33.48.49.18.99.36,1.48.53.81.35,1.62.7,2.43,1.05.57.15,1.13.31,1.7.46,1.55.52,3.1,1.05,4.64,1.57.56.14,1.13.28,1.69.43.23.05.46.11.69.16.5.12,1,.23,1.51.35,1.64.48,3.28.95,4.93,1.43,2.13.49,4.27.98,6.4,1.46,2.23.58,4.45,1.15,6.68,1.73,6.13.85,12.26,1.7,18.39,2.55.83.09,1.66.18,2.48.27.91,0,1.82,0,2.73-.01.49,0,.98.02,1.46.02.24,0,.48.02.71.02.82.09,1.64.18,2.46.27-.92,2.11-1.44,4.59-2.81,6.27-12.89,15.79-25.93,31.44-38.92,47.13l-.1.32c-.27-.17-.54-.35-.82-.52-.81-.14-1.62-.29-2.42-.43-2.16-.35-4.32-.69-6.47-1.04-2.15-.62-4.3-1.23-6.45-1.85-1.34-.21-2.69-.43-4.03-.64-1.55-.37-3.1-.75-4.66-1.12-7.81-1.59-15.62-3.18-23.43-4.76-1.62-.36-3.25-.72-4.87-1.08-15.63-3.02-31.26-6.03-46.9-9.05Z" fill="#bebfc2"/><path d="m134.83,121.88c2.73-1.45,5.46-2.89,8.9-4.71-1.76-.31-2.73-.48-3.69-.65-1.26-.12-2.53-.23-3.79-.35,5.68-7.47,11.21-15.08,17.06-22.39,12.5-15.62,25.12-31.12,37.84-46.53.97-1.17,3.07-1.26,4.64-1.84-.04,1-.09,1.99-.13,2.99-.13.82-.25,1.64-.38,2.46-.11.57-.23,1.13-.34,1.7-.12.59-.24,1.19-.36,1.78-.17.86-.34,1.73-.51,2.59-.13.3-.26.6-.39.9-.14.58-.27,1.15-.41,1.73-.13.56-.27,1.12-.4,1.68-.24.61-.48,1.22-.72,1.83-.19,1.17-.39,2.34-.58,3.51-.31,1.16-.62,2.31-.93,3.47-.57,1.98-1.15,3.96-1.72,5.94-.23.85-.47,1.71-.7,2.56l-1.19,3.44c-.15.93-.29,1.86-.44,2.79-.57,1.16-1.15,2.31-1.72,3.47-6.03,1.83-7.6,8.59-11.8,12.45-.09.23-.11.47-.06.72,0,0-.16.08-.16.08-.18-.17-.4-.27-.64-.3-.37.39-.74.78-1.11,1.16-5.56,4.3-11.11,8.61-16.67,12.91,0,0,.05-.06.05-.06-.34.24-.67.49-1.01.73,0,0,.03-.01.03-.01l-1.61.61c-8.75,7.87-13.17,18.42-16.34,29.75-.56,1.73-1.11,3.45-1.67,5.18l-.08-.09c-.45-.33-1.26-1-1.3-.95-7.35,9.2-14.6,18.49-21.94,27.7-10.57,13.25-21.19,26.45-31.79,39.67-15.68-2.09-22.31,11.62-31.18,21.39-4.11,4.53-9.06,6.87-14.73,7.59-2.87-6.63,3.66-8.36,6.1-11.46,17.49-22.27,34.86-44.73,53.68-65.65,11.02-12.25,19.37-26.55,30.09-38.86,2.31,2.23,4.62,4.46,7.55,7.3-.37-3.74-.64-6.46-.91-9.19.19-.63.37-1.26.55-1.89l.53-2.89s.31-.22.31-.22c1.98.87,3.3.07,4.09-2.02Zm-30.89,52.11c-6.67,5.09-14.15,9.07-18.01,17.17-.36.75-.4,1.66-.59,2.5.87-.3,2.02-.32,2.57-.94,5.4-6.18,10.7-12.47,16.03-18.72Z" fill="#293b8e"/><path d="m24.59,98.81c1.64.7,4.69,1.38,4.68,2.12-.02,3.47-.36,7.19-1.61,10.38-1.04,2.64-3.53,4.66-6.98,8.95,4.85-2.87,7.48-4.44,10.12-6,.28.38.57.76.86,1.14l-.02-.03c-12.82,15.41-25.53,30.93-38.47,46.22-17.44,20.59-32.13,43.88-52.24,61.86-2.97-.38-5.93-.77-8.9-1.15-.84-.24-1.69-.48-2.54-.72,5.91-8.31,11.82-16.62,17.73-24.92,2.84-4.71,4.53-10.21,10.21-12.61,4.75-2.01,5.04-3.07,5.5-5.7,6.28-7.29,12.55-14.59,18.83-21.88-.2,1.18-.39,2.36-.59,3.54-.3.84-.61,1.69-.91,2.53.47-.25.94-.51,1.41-.76,3.94-7.03,13.19-8.08,15.81-16.99,1.3-4.41,10.56-7.35,8.46-9.51-4.91-5.04-6.86,5.2-11.46,6.09,2.95-8.84,10.6-13.71,15.42-20.99,4.68-7.06,12.13-11.93,14.48-20.85.06-.23.13-.46.19-.68Z" fill="#2267a8"/><path d="m12.47,276.78c2.83-.42,5.66-.84,8.49-1.27,1.1.2,2.2.4,3.31.59,2.98.59,5.96,1.18,8.93,1.78-9.43,12.35-18.17,25.44-28.55,36.78-6.54,7.14-10.49,16.96-19.21,21.79-.57,0-1.14.01-1.71.02-2.18-.49-4.35-.98-6.53-1.47,0,0,.05-.09.05-.09-2.67-.78-5.34-1.57-8.01-2.35,1.03-1.86,1.92-3.84,3.12-5.58,5.75-8.36,11.58-16.66,17.38-24.98,0,0,.11-.09.1-.09,8.89-5.82,15.46-14.01,20.65-23.59,0,0,.07-.05.07-.05.64-.5,1.28-.99,1.92-1.49Z" fill="#e62930"/><path d="m78.75,217.78c10.6-13.22,21.23-26.42,31.79-39.67,7.34-9.21,14.59-18.49,21.94-27.7.04-.05.85.62,1.3.95-.15.9-.3,1.8-.45,2.7-.4,1.2-.8,2.4-1.19,3.6-.5,2.27-.99,4.54-1.49,6.81-.39.86-.79,1.71-1.18,2.57l-1.51,4.39c-.75,1-1.5,1.99-2.26,2.99-6.75,3.93-10.99,10.69-15.45,16.93-6.46,9.04-15.44,15.98-19.6,26.92-.5.12-1,.23-1.5.35-2.64-.13-5.28-.27-7.92-.4-.82-.15-1.65-.3-2.47-.44Z" fill="#2267a8"/><path d="m89.15,218.63c.5-.12,1-.23,1.5-.35,13.19-12.97,24.03-28.19,35.5-42.81.27.5.53,1,.8,1.5-.39,1.85-.78,3.7-1.18,5.54-11.9,11.13-22.14,23.81-30.83,37.94-.26-.02-.52.02-.76.13-.74-.15-1.47-.29-2.21-.44-.94-.5-1.87-1.01-2.81-1.51Z" fill="#1a1b46"/><path d="m10.48,278.31c-5.19,9.58-11.76,17.77-20.65,23.59-.15-1.01-.3-2.02-.45-3.03.73-.41,1.46-.83,2.19-1.24.27-.02.46-.17.55-.45,1.69-1.3,3.38-2.61,5.07-3.91,4.43-4.98,8.85-9.97,13.28-14.95Z" fill="#d62027"/><path d="m47.08,279.26c15.63,3.02,31.26,6.03,46.9,9.05-2.51-.34-5.02-.67-7.53-1.01-16.84-3.1-33.68-6.2-50.52-9.3,0-.21-.03-.42-.08-.62,3.74.63,7.49,1.26,11.23,1.89Z" fill="#bea0a9"/><path d="m35.85,277.38c.05.2.07.41.08.62-.91-.04-1.82-.08-2.73-.12-2.98-.59-5.96-1.18-8.93-1.78.08-.18.15-.36.21-.54,3.79.61,7.58,1.21,11.37,1.82Z" fill="#d8565f"/><path d="m89.15,218.63c.94.5,1.87,1.01,2.81,1.51-3.58-.64-7.16-1.27-10.74-1.91,2.64.13,5.28.27,7.93.4Z" fill="#92b6d5"/><path d="m14.09,243.8c1.84.38,3.69.75,5.53,1.12,0,.19.02.38.02.57-1.85-.56-3.7-1.13-5.55-1.69Z" fill="#9195b7"/><path d="m24.47,275.56c-.06.19-.13.37-.21.54-1.1-.2-2.2-.4-3.31-.59,1.17.02,2.34.03,3.52.05Z" fill="#e1747c"/><path d="m12.47,276.78c-.64.5-1.28.99-1.92,1.49.64-.5,1.28-.99,1.92-1.49Z" fill="#d62027"/><path d="m19.65,245.49c0-.19-.02-.38-.02-.57.82.3,1.64.59,2.46.89-.81-.11-1.63-.21-2.44-.32Z" fill="#5a5a8f"/><path d="m25.25,246.75c.54.12,1.08.24,1.61.36-.54-.12-1.08-.24-1.61-.36Z" fill="#bebfc2"/><path d="m73.6,61.91c-1.6.12-2.3.76-1.29,2.44-7.43,9.05-14.84,18.12-22.31,27.14-1.91,2.3-3.82,4.81-7.19,4.13.21-2.3,2.8-4.29.94-6.86-1.32,1.73-2.63,3.49-3.98,5.2-1.49,1.89-3.03,3.74-4.55,5.61-3.21-1.63-.09-4.32-.75-6.38,2.61-1.96,5.25-3.87,7.81-5.92.84-.67,1.45-1.69,2.16-2.55-.96-.36-1.92-.72-2.87-1.07-.75-7.51,5.9-9.93,9.38-13.98,4.93-5.75,7.2-14.56,15.29-16.97-2.02,3.46-4.12,6.87-6.01,10.41-.37.69.03,1.85.08,2.79.65-.39,1.49-.61,1.92-1.19,6.17-8.42,12.29-16.89,18.39-25.37.53-.73.75-1.71,1.12-2.58-.8.52-1.73.9-2.36,1.59-4.13,4.5-8.2,9.07-12.29,13.61,7.65-15.78,19.78-27.49,31.3-39.76-.83,2.02-1.65,4.04-2.35,5.75,5.06-1.23,7.13-11.79,14.73-5.7.5.43,1.01.86,1.51,1.29l.13-.24c-12.87,15.94-25.74,31.89-38.62,47.83-.09.26-.15.53-.19.8Z" fill="#2267a8"/><path d="m58.71,12.43c-.06.54-.12,1.08-.18,1.62-.08.1-.23.2-.23.29,0,.25.07.49.11.73.08,1.46.16,2.92.24,4.38,1.05.45,2.09.9,3.14,1.34.73.05,1.45.1,2.18.14.62.02,1.25.04,1.87.06.79.05,1.58.1,2.37.16.74.44,1.47.88,2.21,1.33-7.34,3.28-17.33,4.38-11.05,19.33-5.6-4.93-8.44-11.95-15.29-6.52-.34.19-.69.38-1.03.57,0,0,.07-.06.06-.06-.46.5-.93,1-1.39,1.5,0,0-.09-.13-.09-.13-.87.22-1.74.44-2.61.66.28-.86.5-1.74.84-2.57,1.61-3.87,5.12-7.25,2.96-12.09,3.33-1.16-.01-3.37.79-4.93.85.02,1.71.03,2.56.05.52.03,1.04.06,1.56.1.59-.15,1.18-.31,1.77-.46,3.04-2.83,6.08-5.67,9.12-8.5.03,1,.06,2.01.09,3.01Z" fill="#bebfc2"/><path d="m110.76,12.24c-7.6-6.09-9.67,4.48-14.73,5.7.7-1.71,1.53-3.73,2.35-5.75,1.06-1.4,2.11-2.8,3.17-4.2.3-1.24.6-2.48.91-3.72-.81-.9-1.61-1.81-2.42-2.71,3.78-3.8,7.57-7.6,11.35-11.39,1.49-.74,2.97-1.48,4.46-2.22-1.47,8.55,3.05,8.31,8.69,5.95-2.2,7.05-14.55,6.83-9.69,17.59.09,2.08-.08,3.72-2.45,1.78,0,0-.13.24-.13.24-.5-.43-1.01-.86-1.52-1.29Z" fill="#e6e6e8"/><path d="m111.39-9.82c-3.78,3.8-7.57,7.6-11.35,11.39-4.79-.09-7.91,4.01-11.86,6.17-1.1-5.39,9.17-6.62,3.99-13.12-.45-.34-.91-.69-1.36-1.03-.64-1.31-1.28-2.61-1.92-3.92.83,0,1.67-.01,2.5-.02,2.1.37,4.21.73,6.31,1.1.36-.07.73-.15,1.09-.22,2.78-2.99,5.57-5.98,8.64-9.28.37,3.63.33,7.36,3.95,8.92Z" fill="#bebfc2"/><path d="m24.59,98.81c-.07.23-.13.45-.19.68-3.14,1.59-6.27,3.17-9.41,4.76,1.95-3.19,6.25-8.05,5.5-9.31-8.58-14.36,6.78-7.17,8.98-11.72,1.67-3.47,4.62-6.25,6.99-9.32,2.35,3.45-3.98,8.23,1.45,11.02-6.59,2.22-9.81,8.21-13.31,13.89Z" fill="#bebfc2"/><path d="m-18.81,159.98c.2-1.18.39-2.36.59-3.54.48-.5.95-1,1.43-1.51.27-.58.54-1.15.82-1.73,2.53-4.94,4.06-10.92,10.47-11.87,4.6-.89,6.56-11.13,11.46-6.09,2.1,2.16-7.17,5.1-8.46,9.51-2.62,8.91-11.87,9.96-15.81,16.99-.17-.59-.33-1.18-.5-1.77Z" fill="#e6e6e8"/><path d="m67.08,51.96c4.09-4.55,8.16-9.11,12.29-13.61.64-.69,1.57-1.07,2.36-1.59-.37.86-.59,1.84-1.12,2.58-6.09,8.49-12.22,16.95-18.39,25.37-.42.58-1.27.8-1.92,1.19-.05-.94-.45-2.1-.08-2.79,1.89-3.54,3.99-6.95,6.01-10.41.28-.25.56-.49.85-.74Z" fill="#e6e6e8"/><path d="m70.41,22.48c-.74-.44-1.47-.88-2.21-1.33.98.04,1.96.07,2.93.11-.24.41-.48.81-.73,1.22Z" fill="#5e679c"/><path d="m61.78,20.8c-1.05-.45-2.09-.9-3.14-1.34.27.07.55.14.82.21.77.38,1.54.76,2.31,1.14Z" fill="#71779d"/><path d="m102.46,4.29c-.3,1.24-.6,2.48-.91,3.72.3-1.24.6-2.48.91-3.72Z" fill="#71779d"/><path d="m65.83,21c-.62-.02-1.25-.04-1.87-.06.62.02,1.25.04,1.87.06Z" fill="#71779d"/><path d="m41.72,37.3c.46-.5.93-1,1.39-1.5-.46.5-.93,1-1.39,1.5Z" fill="#2a3271"/><path d="m43.05,35.86c.34-.19.69-.38,1.03-.57-.34.19-.69.38-1.03.57Z" fill="#2a3271"/><path d="m43.61,18.23c-.81,1.56,2.53,3.77-.79,4.93-1.31-1.74-2.61-3.48-3.92-5.22,1.07-.13,2.14-.26,3.21-.4.5.23,1,.46,1.51.68Z" fill="#e6e6e8"/><path d="m19.74,49.83c-2.64-.67-5.29-1.35-7.93-2.02,2.64.67,5.29,1.35,7.93,2.02Z" fill="#9195b7"/><path d="m43.61,18.23c-.5-.23-1-.46-1.51-.68,1.36.24,2.71.49,4.07.73-.85-.02-1.71-.03-2.56-.05Z" fill="#949598"/><path d="m58.71,12.43c-.03-1-.06-2.01-.09-3.01.03,1,.06,2.01.09,3.01Z" fill="#71779d"/><path d="m49.5,17.92c-.59.15-1.18.31-1.77.46.59-.15,1.18-.31,1.77-.46Z" fill="#949598"/><path d="m58.41,15.08c-.04-.24-.11-.49-.11-.73,0-.09.15-.19.23-.29-.04.34-.08.68-.12,1.02Z" fill="#71779d"/><path d="m19.6,50.64c0-.27.07-.52.23-.74.16.17.33.34.49.51-.24.07-.48.15-.72.22Z" fill="#9195b7"/><path d="m188.2,78.54c.23-.85.47-1.71.7-2.56.57-1.98,1.15-3.96,1.72-5.94.31-1.16.62-2.31.93-3.47.4-1.19.79-2.38,1.19-3.56.04-.59.07-1.18.11-1.77.13-.56.27-1.12.4-1.68.14-.58.27-1.15.41-1.73.13-.3.26-.6.39-.9.17-.86.34-1.73.51-2.59.12-.59.24-1.19.36-1.78.11-.57.23-1.13.34-1.7.13-.82.25-1.64.38-2.46.23-1.02.47-2.03.7-3.05.59-3.1,1.18-6.2,1.76-9.3.27-1.18.53-2.37.8-3.55.1-.29.2-.58.3-.87,0,0-.08.12-.08.12,1.14-.17,2.27-.33,3.41-.5,2.2.36,4.41.72,6.61,1.07,1.85.36,3.7.71,5.54,1.07,1.49.02,2.99.03,4.48.05,17.08.4,32.02-7.46,46.91-15.47,1.72-.8,3.44-1.61,5.17-2.41,2.19-.93,4.39-1.86,6.58-2.79,7.86-2.5,15.71-5.04,23.97-4.93,1.34.21,2.67.43,4.01.64,3.11.52,6.22,1.04,9.33,1.57,2.05.42,4.11.84,6.16,1.27.77.38,1.54.76,2.31,1.14,1.34.28,2.68.56,4.02.84,5.74,2.03,11.48,4.06,17.22,6.09-.08.23-.1.46-.06.69-3.41,4.44-7.09,8.67-10.17,13.37-9.56,14.59-23.96,25-31.15,41.61-.8-.17-1.61-.33-2.41-.5-1.37-.4-2.73-.8-4.1-1.2-2.14-.4-4.27-.79-6.41-1.19l.1-.14c-2.67-.72-5.33-1.44-8-2.16-1.09-.17-2.19-.34-3.28-.51-.52-.18-1.04-.36-1.55-.53-1.15-.38-2.31-.75-3.46-1.13l-4.45-.87c-.54-.2-1.09-.4-1.63-.6-1.15-.39-2.3-.79-3.45-1.18-1.8-.17-3.6-.35-5.39-.52-.3-.21-.6-.43-.9-.64-3.98-2.45-8.34-2.87-12.86-2.49,0,0,.03.25.03.25-1.04-.18-2.07-.36-3.11-.54-.66.04-1.32.08-1.98.12-8.32-.13-15.94,2.37-22.87,7.58-10.35,5.44-19.01,14.9-31.19,15.99.15-.93.29-1.86.44-2.79.4-1.15.8-2.3,1.19-3.44Z" fill="#e6e6e8"/><path d="m430.71,35.35c1.31.24,2.63.49,3.94.73.5.31,1,.63,1.5.94.22.1.45.17.69.22-7.32,10-16.83,18.07-22.51,29.52-1.2.41-2.41.83-3.61,1.24-4.66.98-9.32,1.97-13.98,2.95-18.95,3.07-38.3.92-57.03,6.81-3.05.18-6.1.36-9.14.54,2.47-2.91,5-5.77,7.41-8.73,10.39-12.75,20.46-25.83,31.31-38.11,2.92-3.31,2.8-3.83-.4-5.28,8.13,1.14,16.27,2.28,24.4,3.41.54.02,1.09.04,1.63.05,3.81.62,7.62,1.25,11.44,1.87,1.51.27,3.03.54,4.54.8,6.61,1.01,13.22,2.03,19.83,3.04Z" fill="#e6e6e8"/><path d="m368.88,26.16c3.2,1.45,3.33,1.97.4,5.28-10.84,12.28-20.92,25.36-31.31,38.11-2.41,2.96-4.94,5.82-7.41,8.73-.15.26-.3.52-.45.78-.16-.1-.33-.1-.5,0-1.43-.07-2.87-.14-4.3-.21-1.07-.18-2.14-.36-3.21-.55-.3.05-.59.1-.89.14-5.95-1.03-11.9-2.06-17.86-3.09l.12-.32c7.19-16.61,21.59-27.02,31.15-41.61,3.07-4.69,6.76-8.92,10.17-13.37.61.15,1.22.3,1.83.45.72.12,1.44.23,2.17.35.56.1,1.13.19,1.69.29,1.19.34,2.39.69,3.58,1.03,2.55.52,5.1,1.05,7.65,1.57,1.33.32,2.67.64,4,.96,1.05.48,2.11.95,3.16,1.43Z" fill="#bebfc2"/><path d="m315.15,10.04c-3.11-.52-6.22-1.04-9.33-1.57.13-.18.26-.35.39-.53,2.94.5,5.87,1.01,8.81,1.51.04.2.09.39.14.58Z" fill="#daadad"/><path d="m315.15,10.04c-.05-.19-.1-.39-.14-.58,2.1.62,4.2,1.23,6.3,1.85-2.05-.42-4.11-.84-6.16-1.27Z" fill="#9c5059"/><path d="m327.64,13.29c-1.34-.28-2.68-.56-4.02-.84,1.34.28,2.68.56,4.02.84Z" fill="#9c5059"/><path d="m306.2,7.95c-.13.18-.26.35-.39.53-1.34-.21-2.67-.43-4.01-.64,1.14-.13,2.27-.26,3.41-.39.33.17.66.34.98.51Z" fill="#d8565f"/><path d="m301.48,390.23c-2.08-.74-4.16-1.49-6.23-2.23-1.1-.4-2.19-.8-3.29-1.21-.24-.08-.48-.06-.72.06-.73-.28-1.47-.55-2.2-.83-.01-.26-.04-.52-.1-.77-2.65-1.29-5.29-2.58-8.2-3.99,3.04.17,5.03-1.09,6.93-3.46,6.68-8.33,14.32-15.89,20.26-24.76,6.42-9.6,16.32-16.25,20.18-27.89,1.39.14,2.78.28,4.18.42.11.11.23.2.36.28,2.27.64,4.55,1.27,6.82,1.91.73.09,1.46.18,2.19.27,1.33.39,2.66.77,3.99,1.16,1.28.46,2.56.91,3.84,1.37.35.03.7.07,1.05.1.8.19,1.61.37,2.41.56,2.32.7,4.65,1.41,6.97,2.11,0,0,.01.07.01.07,1.61.53,3.22,1.06,4.83,1.58.5.14,1,.28,1.5.42,1.61.56,3.21,1.12,4.82,1.67,1.33.21,2.66.42,3.98.63.78.22,1.56.44,2.34.67,5.4.94,10.81,1.88,16.21,2.82,11.12.06,22.25.11,33.37.17,1.1.18,2.2.36,3.3.54,2.45.2,4.9.4,7.36.59,1.41,0,2.83.01,4.24.02.53,0,1.06.01,1.58.02,2.16.36,4.31.72,6.47,1.08,2.2.39,4.39.77,6.59,1.16,2.15.39,4.31.78,6.46,1.17l1.56.4c1.58.53,3.17,1.07,4.75,1.6,0,0-.07.18-.07.18,1.3.51,2.6,1.02,3.9,1.53.79.17,1.58.34,2.37.51,1.08.42,2.16.84,3.24,1.26,10.09,4.22,20.18,8.43,30.27,12.65,1.08.42,2.16.85,3.24,1.27.24.03.46.13.64.3,1.39.54,2.79,1.08,4.18,1.62.64.19,1.27.37,1.91.56,1.35.77,2.7,1.54,4.05,2.31,0,0-.09.09-.09.09-9.46,12.13-18.86,24.32-28.41,36.36-4.98,6.28-10.24,12.31-15.38,18.45-.58-.15-1.15-.31-1.73-.46-.48-.13-.96-.26-1.44-.4l-.16.37c-.81-.13-1.63-.25-2.44-.38-.8-.16-1.6-.33-2.4-.49-.56-.11-1.12-.22-1.68-.33,0,0,.13-.13.13-.13-4.19-1.01-8.38-2.02-12.56-3.03-3.04-.62-6.09-1.23-9.13-1.85-19.47-3.4-38.94-6.8-58.41-10.21-1.33-.14-2.66-.27-3.99-.41-12.15-2.24-24.29-4.49-36.44-6.73-5.09-1.14-10.18-2.29-15.27-3.43-2.24-.34-4.48-.68-6.73-1.02-2.65-.46-5.29-.92-7.94-1.38-.51-.17-1.02-.33-1.53-.5-1.88-.58-3.76-1.16-5.64-1.74l-1.61-.12c-1.58-.36-3.17-.71-4.75-1.07-1.32-.51-2.64-1.01-3.96-1.52Z" fill="#d62027"/><path d="m169.43,343.49c-1.76-1-3.52-1.99-5.27-2.99,10.3-12.8,20.83-25.39,30.8-38.48,5.03-6.6,11.87-11.78,14.57-20.3,1.34.47,2.67.95,4.01,1.42-.08.08-.15.15-.22.23.07-.09.13-.18.2-.27.27,0,.54,0,.81-.01,4.63,2.05,9.27,4.09,13.9,6.14,18.66,7.9,37.32,15.8,55.97,23.71.3.11.6.23.9.34.52.21,1.03.42,1.55.63.43.13.87.27,1.3.4.6.17,1.2.34,1.8.51,1.56.52,3.12,1.04,4.67,1.56.8.19,1.6.38,2.41.57,1.36.43,2.73.85,4.09,1.28.49.18.98.36,1.47.55-2.44.7-6.71.91-7.02,2.16-2.86,11.42-12.74,16.84-18.47,25.77-6.37,9.93-13.98,18.93-21.06,28.34-1.63-.34-3.26-.68-4.89-1.03-2.4-.75-4.8-1.5-7.2-2.26-1.03-.36-2.07-.73-3.11-1.09-.85-.26-1.7-.53-2.55-.79-1.23-.42-2.46-.85-3.7-1.27-2.16-.77-4.32-1.53-6.48-2.3-1.51-.54-3.02-1.08-4.53-1.62-7.89-2.94-15.77-5.88-23.66-8.81-.76-.32-1.52-.64-2.28-.96-8.9-3.66-17.81-7.32-26.71-10.97,0,0-.12-.19-.12-.19,0,0-.21-.02-.21-.02-.32-.08-.64-.17-.96-.25Z" fill="#680c0f"/><path d="m255.84,375.05c7.07-9.41,14.69-18.42,21.06-28.34,5.73-8.93,15.61-14.36,18.47-25.77.31-1.26,4.59-1.47,7.02-2.16.56.08,1.12.17,1.68.25,3.19.83,6.38,1.65,9.57,2.48.8.19,1.61.39,2.41.58,2.38.68,4.75,1.35,7.13,2.03,1.11.16,2.22.32,3.32.48.54.19,1.07.37,1.61.56-3.86,11.64-13.77,18.3-20.18,27.89-5.93,8.88-13.57,16.43-20.26,24.76-1.9,2.37-3.89,3.63-6.93,3.46,2.91,1.42,5.56,2.7,8.2,3.99-1.33-.21-2.67-.42-4-.63-.8-.22-1.6-.45-2.4-.67-1.3-.48-2.61-.95-3.91-1.43-.25-.05-.49-.14-.72-.27-1.36-.28-2.71-.56-4.07-.83-1.32-.51-2.64-1.02-3.97-1.52-1.01-.41-2.01-.82-3.02-1.23-.57-.05-1.14-.11-1.71-.16-.56-.17-1.12-.34-1.67-.51-1.31-.43-2.62-.86-3.93-1.28-.79-.21-1.57-.43-2.36-.64-.19-.18-.41-.24-.67-.18,0,0-.13-.05-.13-.05-.18-.26-.37-.53-.55-.79Z" fill="#9c1c24"/><path d="m255.84,375.05c.18.26.37.53.55.79-1.82-.61-3.63-1.21-5.45-1.82,1.63.34,3.26.68,4.89,1.03Z" fill="#9c5059"/><path d="m223.37,364.7c1.51.54,3.02,1.08,4.53,1.62-1.51-.54-3.02-1.08-4.53-1.62Z" fill="#9c5059"/><path d="m234.39,368.61c1.23.42,2.47.85,3.7,1.27-1.23-.42-2.46-.85-3.7-1.27Z" fill="#9c5059"/><path d="m259.54,376.71c1.31.43,2.62.86,3.93,1.28-1.31-.43-2.62-.86-3.93-1.28Z" fill="#9c5059"/><path d="m273.84,381.42c1.35.28,2.71.56,4.07.83-1.35-.28-2.71-.56-4.07-.83Z" fill="#a73342"/><path d="m278.62,382.52c1.3.48,2.61.95,3.91,1.43-1.28-.29-2.56-.57-3.84-.86-.01-.19-.04-.39-.08-.57Z" fill="#9c5059"/><path d="m266.85,378.67c1.01.41,2.01.82,3.02,1.23-1.03-.23-2.05-.45-3.08-.68.02-.18.04-.37.06-.55Z" fill="#a73342"/><path d="m240.64,370.67c1.04.36,2.07.73,3.11,1.09-1.04-.36-2.07-.73-3.11-1.09Z" fill="#9c5059"/><path d="m197.44,354.92c.76.32,1.52.64,2.28.96-.76-.32-1.52-.64-2.28-.96Z" fill="#9c5059"/><path d="m266.85,378.67c-.02.18-.04.37-.06.55-.55-.24-1.1-.48-1.65-.71.57.05,1.14.11,1.71.16Z" fill="#9c5059"/><path d="m256.52,375.88c.25-.06.48,0,.67.18-.22-.06-.44-.12-.67-.18Z" fill="#9c5059"/><path d="m348.9,401.01c-1.11-.08-2.22-.16-3.32-.24-4-.83-7.99-1.66-11.99-2.49.04-.23.06-.47.05-.71,5.09,1.14,10.18,2.29,15.27,3.43Z" fill="#e62930"/><path d="m318.97,395.18c2.65.46,5.29.92,7.94,1.38.05.23.1.46.17.69-2.7-.69-5.41-1.38-8.11-2.07Z" fill="#daadad"/><path d="m327.08,397.25c-.07-.23-.12-.45-.17-.69,2.24.34,4.48.68,6.73,1.02.01.24,0,.47-.05.71-2.17-.35-4.34-.69-6.51-1.04Z" fill="#d8565f"/><path d="m311.8,392.94c1.88.58,3.76,1.16,5.64,1.74-1.83-.36-3.66-.72-5.5-1.07-.04-.23-.08-.45-.14-.67Z" fill="#d8565f"/><path d="m301.48,390.23c1.32.51,2.64,1.01,3.96,1.52-1.35-.26-2.69-.51-4.04-.77.04-.25.07-.5.09-.75Z" fill="#bea0a9"/><path d="m311.8,392.94c.05.22.1.45.14.67-.58-.26-1.17-.53-1.75-.79.54.04,1.07.08,1.61.12Z" fill="#daadad"/><path d="m86.44,287.3c2.51.34,5.02.67,7.53,1.01,1.62.36,3.25.72,4.87,1.08,7.81,1.59,15.62,3.18,23.43,4.76,1.55.37,3.1.75,4.66,1.12,1.39.44,2.78.87,4.17,1.31,2.1.39,4.21.78,6.31,1.17,2.16.35,4.32.69,6.47,1.04.81.14,1.62.29,2.42.43.27.17.54.35.82.52-8.06,9.21-16.12,18.42-24.4,27.89,1.47.37,2.51.63,3.54.89-11.77,3.23-22.02,8.78-28.74,20.65-2.02,3.56-6.12,3.56-9.74,3.48-1.97-.11-3.95-.23-5.92-.34-4.59-.73-9.18-1.46-13.76-2.19-4.38-.54-8.75-1.07-13.13-1.61-1.09-.09-2.18-.19-3.27-.28-1.09-.24-2.17-.48-3.26-.72-2.95-.56-5.91-1.12-8.86-1.68,7.13-12.7,17.08-22.9,26.06-33.96,6.78-8.34,13.85-16.41,20.8-24.59Z" fill="#9c1c24"/><path d="m126.27,328.54c-1.04-.26-2.07-.52-3.54-.89,8.29-9.47,16.34-18.68,24.4-27.89,0,0,.1-.32.1-.32,5.74-1.18,10.17-4.28,13.57-9.67,6.31-10.01,14.9-15.32,26.27-14.06,4.6.8,9.21,1.61,13.81,2.41.77.22,1.54.44,2.31.66.03.22.05.45.06.67-1.86,1.01-4.25,1.54-5.51,3.12-14.2,17.82-28.22,35.8-42.29,53.74-3.25-1.46-6.5-2.92-9.74-4.38-1.88-.61-3.76-1.22-5.64-1.83,0,0,.06-.19.06-.19-2.7-.47-5.39-.94-8.09-1.41-.28.05-.56.11-.84.16-.91.06-1.81.12-2.72.18-.73-.11-1.46-.21-2.19-.32Z" fill="#d62027"/><path d="m155.44,336.32c14.07-17.94,28.1-35.92,42.29-53.74,1.25-1.57,3.64-2.1,5.51-3.11,1.33.27,2.67.54,4,.81.76.49,1.52.97,2.28,1.46-2.7,8.53-9.55,13.7-14.57,20.3-9.97,13.09-20.5,25.68-30.8,38.48-1.83-.83-3.65-1.66-5.48-2.49-1.08-.56-2.15-1.13-3.23-1.69Z" fill="#9c1c24"/><path d="m132.02,328.51c2.7.47,5.39.94,8.09,1.41-2.7-.47-5.39-.94-8.09-1.41Z" fill="#e62930"/><path d="m140.06,330.11c1.88.61,3.76,1.22,5.64,1.83-1.88-.61-3.76-1.22-5.64-1.83Z" fill="#e89595"/><path d="m81.87,352.33c1.97.11,3.95.23,5.92.34-.62.18-1.24.36-1.85.54-1.11-.14-2.22-.29-3.32-.43-.25-.15-.5-.3-.75-.44Z" fill="#9c5059"/><path d="m128.46,328.86c.91-.06,1.81-.12,2.72-.18-.91.06-1.81.12-2.72.18Z" fill="#e89595"/><path d="m86.44,287.3c-6.94,8.19-14.02,16.25-20.8,24.59-8.98,11.05-18.94,21.26-26.06,33.96-1.45.05-2.9.11-4.34.16-1.86-.24-3.72-.47-5.58-.71-1.54-.3-3.09-.6-4.63-.91-11.57-2.04-23.14-4.09-34.71-6.13-.65-.09-1.3-.18-1.95-.27-.36-.15-.72-.3-1.08-.45-.61-.37-1.23-.73-1.85-1.1,8.72-4.83,12.67-14.65,19.21-21.79,10.38-11.34,19.12-24.43,28.55-36.78.91.04,1.82.08,2.73.12,16.84,3.1,33.68,6.2,50.52,9.3Z" fill="#d62027"/><path d="m-9.69,338.27c11.57,2.04,23.14,4.09,34.71,6.13-.17.18-.34.37-.51.55-11.41-2.04-22.83-4.08-34.24-6.12-.02-.19,0-.37.04-.56Z" fill="#9c5059"/><path d="m81.87,352.33c.25.15.5.3.75.44-4.95-.69-9.9-1.39-14.85-2.08.12-.18.23-.36.34-.56,4.59.73,9.18,1.46,13.76,2.19Z" fill="#bea0a9"/><path d="m68.1,350.14c-.11.19-.22.38-.34.56-4.26-.72-8.53-1.44-12.79-2.16,4.38.54,8.75,1.07,13.13,1.61Z" fill="#9c5059"/><path d="m35.24,346.01c1.45-.05,2.9-.11,4.34-.16,2.95.56,5.91,1.12,8.86,1.68-.12.2-.24.39-.37.58-4.28-.7-8.56-1.4-12.84-2.1Z" fill="#9c5059"/><path d="m24.52,344.95c.17-.19.34-.37.51-.55,1.54.3,3.09.6,4.63.91-1.71-.12-3.43-.24-5.14-.35Z" fill="#bea0a9"/><path d="m48.08,348.11c.13-.19.25-.38.37-.58,1.08.24,2.17.48,3.26.72-1.21-.05-2.42-.09-3.63-.14Z" fill="#bea0a9"/><path d="m277.83,12.76c-2.19.93-4.39,1.86-6.58,2.78-1.57-3.52-3.97.22-5.85-.6l.68,3.01c-14.9,8.01-29.83,15.87-46.91,15.47-1.37-.26-2.74-.51-4.11-.77-1.97-.38-3.94-.76-5.91-1.14-.78-.2-1.56-.4-2.35-.6-1.42-6.34,4.38-7.82,6.93-11.4,8.69-12.19,20.62-21.77,25.8-36.79,5.78,0,11.55-.01,17.33-.02,1.74.05,3.48.11,5.22.16.24-.04.47-.07.71-.11,1.07.22,2.13.44,3.2.66,2.24.13,4.47.25,6.71.38,0,0-.03-.17-.03-.17,1.1.22,2.19.45,3.29.67,1.41.02,2.82.04,4.23.06.52.05,1.05.09,1.57.14,1.42,0,2.83,0,4.25,0,0,0-.06-.25-.06-.25,1.96,0,3.91,0,5.87,0-2.7,8.89-9.27,14.82-14.53,21.76-1.33,1.76-2.27,3.86-3.38,5.81,1.31.31,2.62.63,3.93.94Z" fill="#9c1c24"/><path d="m169.43,343.49c.32.08.64.17.96.25-.32-.08-.64-.17-.96-.25Z" fill="#949598"/><path d="m284.94,384.63c1.33.21,2.67.42,4,.63.06.25.09.51.1.77-1.37-.46-2.73-.93-4.1-1.39Z" fill="#9c5059"/><path d="m291.96,386.79c1.1.4,2.19.8,3.29,1.21-1.03-.18-2.05-.36-3.08-.54-.08-.22-.15-.44-.21-.67Z" fill="#9c5059"/><path d="m291.96,386.79c.06.23.13.45.21.67-.31-.2-.62-.41-.93-.61.24-.12.47-.14.72-.06Z" fill="#bea0a9"/><path d="m78.86,166.25c-1.19-4.24-3.43-8.84,3.29-10.36-1.1,3.45-2.19,6.91-3.29,10.36Z" fill="#1a1b46"/><path d="m84.81,154.58c2.17-1.16,4.35-2.32,6.52-3.48.29-.03.57-.07.86-.1-1.73,3.03-4.71,2.92-7.38,3.58Z" fill="#1a1b46"/><path d="m82.1,155.95c.93-.47,1.86-.95,2.78-1.42-.93.47-1.86.95-2.78,1.42Z" fill="#1a1b46"/><path d="m92.19,151c-.29.03-.57.07-.86.1-.48-.4-.96-.8-1.44-1.2.77.37,1.53.73,2.3,1.1Z" fill="#5a5a8f"/><path d="m129.46,109.08c-2.18.17,1.74-6.93-3.37-3.28.74-1,2-2.94,2.14-2.85,2.32,1.45,1.77,3.82,1.23,6.13Z" fill="#1a1b46"/><path d="m135.06,116.43c-2.03.44-4.11,1.08-5.54-1.24,1.85.41,3.7.82,5.54,1.24Z" fill="#9195b7"/><path d="m136.24,116.18c1.26.12,2.53.23,3.79.35-1.4-.01-2.79-.03-4.19-.04.1-.16.23-.26.4-.3Z" fill="#9195b7"/><path d="m198.91,32.5c-.27,1.18-.53,2.37-.8,3.55.03-1.17.06-2.33.1-3.5.23-.05.47-.07.7-.05Z" fill="#71779d"/><path d="m196.35,45.35c-.23,1.02-.47,2.03-.7,3.05.04-1,.09-1.99.13-2.99.18-.14.37-.15.57-.06Z" fill="#71779d"/><path d="m202.39,16.49c-.18.38-.36.76-.54,1.14.18-.38.36-.76.54-1.14Z" fill="#511e39"/><path d="m198.91,32.5c-.24-.01-.47,0-.7.05.33-.31.67-.62,1-.93-.1.29-.2.58-.3.87Z" fill="#3e2655"/><path d="m206.8,30.93c.78.2,1.56.4,2.35.6.03.26.03.53,0,.79-2.2-.36-4.41-.72-6.61-1.07,1.42-.11,2.84-.21,4.27-.32Z" fill="#9c5059"/><path d="m31.66,115.39c.22-.15.43-.31.65-.46.04.15.08.3.12.44-.26,0-.52,0-.78-.01,0,0,.02.03.02.03Z" fill="#2267a8"/><path d="m92.22,51.75c-3.61,4.59-2.91,15.05-12.81,11.12,5.47-2.07,6.28-10.47,12.81-11.12Z" fill="#1a1b46"/><path d="m73.6,61.91c.04-.27.1-.54.19-.8,1.03.4,2.06.81,3.09,1.21-1.09-.14-2.19-.27-3.28-.41Z" fill="#71779d"/><path d="m134.83,121.88c-.79,2.08-2.1,2.88-4.09,2.02,1.36-.67,2.73-1.35,4.09-2.02Z" fill="#2a3271"/><path d="m129.9,127.01c-.18.63-.37,1.26-.55,1.89.28-1.52.57-3.03.85-4.55-.1.88-.2,1.77-.3,2.65Z" fill="#5a5a8f"/><path d="m129.9,127.01c.1-.88.2-1.77.3-2.65,0,0,.23-.23.23-.23-.18.96-.35,1.93-.53,2.89Z" fill="#2a3271"/><path d="m120.37,114.01c.62-.62,1.24-1.24,1.86-1.87-.62.62-1.24,1.24-1.86,1.87Z" fill="#1a1b46"/><path d="m34.47,93.18c.66,2.06-2.46,4.75.75,6.38-4.49-1.42-1.35-4.11-.75-6.38Z" fill="#92b6d5"/><path d="m125.77,182.5c.39-1.85.78-3.7,1.18-5.54.48-.94.95-1.88,1.43-2.82.43-1.22.85-2.44,1.28-3.66.07-.23.15-.46.25-.68,7.62-1.16,12.89,4.94,19.5,6.89,1.35.36,2.7.73,4.04,1.09,1.16.37,2.32.73,3.48,1.1,1.19.53,2.37,1.05,3.56,1.58,1.38.25,2.76.49,4.14.74.81.11,1.61.23,2.42.34.24.13.49.27.73.4,1.17.4,2.34.8,3.51,1.19,2.02.45,4.03.9,6.05,1.35.18.28.37.56.55.84,2.74.53,5.48,1.05,8.22,1.57,5.66.98,11.33,1.95,16.99,2.93,2.22.14,4.44.28,6.66.42v-.23c2.06.33,4.14.65,6.22.98,1.21.02,2.42.05,3.63.07.29,0,.57.01.86.02,1.4.02,2.81.04,4.21.06,9.2.13,18.38.07,26.78-5.3,3.4-1.53,6.8-3.06,10.2-4.6-2.09,6.56-7.31,10.55-11.2,15.63-6.19,8.07-12.31,16.21-18.46,24.32-1.96.82-4.01,1.44-5.87,2.48-12.6,7.03-21.42,21.6-37.15,22.36-.82-.09-1.64-.18-2.46-.27-.23-.16-.47-.17-.71-.02-.49,0-.98-.02-1.46-.02-.91,0-1.82,0-2.73.01-.83-.09-1.66-.18-2.48-.27-6.23-1.07-12.46-2.15-18.68-3.22-2.13-.35-4.26-.7-6.39-1.05-2.13-.49-4.27-.98-6.4-1.46-1.64-.48-3.28-.95-4.93-1.43-.5-.12-1-.23-1.5-.35-.2-.2-.43-.26-.7-.16-.56-.14-1.13-.28-1.69-.43-1.55-.52-3.1-1.05-4.64-1.57-.57-.15-1.13-.31-1.7-.46-.81-.35-1.62-.7-2.43-1.05-.49-.18-.99-.36-1.48-.53-.78-.16-1.55-.32-2.33-.48-4.14-1.93-8.27-3.86-12.41-5.79.51-.69,1.02-1.37,1.53-2.06.29-.94.58-1.88.88-2.81.65-3.2,1.3-6.39,1.95-9.59.62-2.32,1.25-4.64,1.87-6.96.91-3.74,1.81-7.47,2.72-11.21.19-.91.37-1.81.56-2.72h.04c.42-1.5.84-3.01,1.26-4.51.38-1.7.76-3.4,1.14-5.1Z" fill="#9c1c24"/><path d="m188.96,246.04c15.73-.76,24.56-15.33,37.15-22.36,1.86-1.04,3.91-1.66,5.87-2.48,2.49-.2,4.98-.39,7.47-.59,1.04.15,2.08.31,3.12.46,3.86.69,7.72,1.39,11.57,2.08,1.3.26,2.6.52,3.9.77.55.16,1.09.32,1.64.48.96.71,1.91,1.42,2.87,2.13-8.18,10.52-15.82,21.61-24.69,31.39-7.71,8.5-12.89,19.86-23.54,25.16-.27,0-.54,0-.81.01l.03.04c-1.34-.47-2.67-.95-4.01-1.42-.76-.49-1.52-.97-2.28-1.46-1.35-.49-2.71-.99-4.06-1.48-.77-.22-1.54-.44-2.31-.66-4.6-.8-9.21-1.61-13.81-2.41-11.37-1.27-19.97,4.05-26.27,14.06-3.4,5.39-7.83,8.49-13.57,9.67,13-15.69,26.03-31.34,38.92-47.13,1.37-1.68,1.9-4.16,2.81-6.27Z" fill="#e6e6e8"/><path d="m118.18,213.01c-.65,3.2-1.3,6.39-1.95,9.59-.29.94-.58,1.88-.88,2.81-.51.69-1.02,1.37-1.53,2.06,0,0-.37.05-.37.05,0,0-.35-.11-.35-.11-1.61-.51-3.22-1.01-4.83-1.52-2.94-1.16-5.88-2.33-8.82-3.49,5.51-11.47,13.04-21.09,22.8-28.65.17.36.34.72.51,1.09-.91,3.74-1.81,7.47-2.72,11.21-.62,2.32-1.25,4.64-1.87,6.96Z" fill="#1a1b46"/><path d="m122.26,193.75c-9.76,7.56-17.29,17.17-22.8,28.65-1.51-.65-3.02-1.3-4.52-1.95,8.69-14.14,18.93-26.82,30.83-37.94-.38,1.7-.76,3.4-1.14,5.1-.42,1.51-.84,3.01-1.26,4.52,0,0-.04,0-.04,0-.36.55-.71,1.09-1.07,1.64Z" fill="#2a3271"/><path d="m122.27,294.15c-7.81-1.59-15.62-3.18-23.43-4.76,7.81,1.59,15.62,3.18,23.43,4.76Z" fill="#9c5059"/><path d="m160.42,242.24c6.23,1.07,12.46,2.15,18.68,3.22-6.13-.85-12.26-1.7-18.39-2.55-.09-.23-.19-.45-.29-.67Z" fill="#9c5059"/><path d="m137.41,297.76c-2.1-.39-4.21-.78-6.31-1.17-.02-.23-.06-.46-.14-.67,2.15.62,4.3,1.23,6.45,1.85Z" fill="#bea0a9"/><path d="m160.42,242.24c.1.22.2.45.29.67-2.23-.58-4.45-1.15-6.68-1.73,2.13.35,4.26.7,6.39,1.05Z" fill="#bea0a9"/><path d="m108.27,225.89c1.61.51,3.22,1.01,4.83,1.52-1.61-.51-3.22-1.01-4.83-1.52Z" fill="#949598"/><path d="m134.17,235.79c1.55.52,3.1,1.05,4.64,1.57-1.55-.52-3.1-1.05-4.64-1.57Z" fill="#9c5059"/><path d="m142.71,238.3c1.64.48,3.28.95,4.93,1.43-1.64-.48-3.28-.95-4.93-1.43Z" fill="#9c5059"/><path d="m130.96,295.91c.08.22.12.44.14.67-1.39-.44-2.78-.87-4.17-1.31,1.34.21,2.69.43,4.03.64Z" fill="#9c5059"/><path d="m126.23,233.26c.78.16,1.55.32,2.33.48-.78-.16-1.55-.32-2.33-.48Z" fill="#a73342"/><path d="m130.05,234.28c.81.35,1.62.7,2.43,1.05-.81-.35-1.62-.7-2.43-1.05Z" fill="#9c5059"/><path d="m181.59,245.74c.91,0,1.82,0,2.73-.01-.91,0-1.82,0-2.73.01Z" fill="#9c5059"/><path d="m146.31,299.23c-.81-.14-1.62-.29-2.42-.43.81.14,1.62.29,2.42.43Z" fill="#bea0a9"/><path d="m140.51,237.79c.27-.1.5-.04.7.16-.23-.05-.46-.11-.7-.16Z" fill="#9c5059"/><path d="m185.79,245.75c.25-.14.48-.13.71.02-.24,0-.48-.02-.71-.02Z" fill="#9c5059"/><path d="m177.87,185.32c-.18-.28-.37-.56-.55-.84-2.1-.68-4.21-1.36-6.31-2.04-1.08-.17-2.16-.33-3.24-.5-.24-.13-.49-.27-.73-.4-.83-.32-1.65-.65-2.48-.97-1.31-.26-2.61-.52-3.92-.78-1.31-.53-2.62-1.06-3.94-1.59-.81-.18-1.62-.36-2.42-.53-1.62-.32-3.25-.65-4.87-.97-6.61-1.95-11.87-8.04-19.5-6.89.25-1.77.5-3.55.76-5.32.5-2.27.99-4.54,1.49-6.81.4-1.2.8-2.4,1.19-3.6.15-.9.3-1.8.45-2.7,0,0,.08.09.08.09.56-1.73,1.11-3.45,1.67-5.18,3.17-11.33,7.59-21.88,16.34-29.75.54-.2,1.07-.4,1.61-.61,0,0-.03.01-.03.01.34-.24.67-.49,1.01-.73,0,0-.05.06-.05.06,4.26-.52,8.53-1.04,12.79-1.56,1.34.26,2.69.52,4.03.78,3.81.63,7.63,1.27,11.44,1.9,1.87.44,3.75.89,5.62,1.33,1.05.21,2.1.42,3.14.63.31.21.62.42.93.64,1.02.2,2.05.39,3.07.59,1.32.35,2.63.69,3.95,1.04.8.35,1.6.71,2.4,1.06,1.82.58,3.63,1.17,5.45,1.75,1.59.35,3.18.7,4.76,1.05l.03.07c.25.27.5.55.75.82.19.05.37.09.56.12.41-.15.83-.3,1.24-.45,1.01.2,2.01.41,3.02.61,1.14.36,2.27.71,3.41,1.07,3.2.59,6.39,1.18,9.59,1.77.78.23,1.56.47,2.34.7.3.06.59.13.89.19,1.86.33,3.72.66,5.58.99.43.08.85.15,1.28.23,1.35.22,2.7.44,4.05.66-8.67,16.45-22.73,28.19-32.75,43.38-3,4.55-10.29,6.48-8.67,14.22-5.71-.88-11.43-1.76-17.14-2.64-2.77-.3-5.53-.59-8.3-.89Z" fill="#e6e6e8"/><path d="m171.23,114.48c-1.34-.26-2.69-.52-4.03-.78-1.35-4.96,6.9-5.72,4.43-11.17l.08-.31c.37-.24.74-.49,1.11-.73,0,0,.16-.08.16-.08.35-.23.7-.46,1.05-.69,4.8-2.95,8.79-6.72,10.81-12.48.57-1.16,1.15-2.31,1.72-3.47,12.18-1.08,20.84-10.54,31.19-15.98-3.63,4.86-7.43,9.58-10.85,14.6-7.58,11.16-18.46,19.47-24.19,32.23-3.83-.38-7.66-.76-11.49-1.14Z" fill="#9c1c24"/><path d="m171.63,102.53c2.47,5.45-5.78,6.21-4.43,11.17-4.26.52-8.53,1.04-12.79,1.56,5.56-4.3,11.11-8.61,16.67-12.91.18.09.36.15.56.18Z" fill="#680c0f"/><path d="m103.94,173.99c-5.33,6.26-10.63,12.54-16.03,18.72-.55.63-1.7.64-2.57.94.19-.84.23-1.75.59-2.5,3.86-8.1,11.34-12.08,18.01-17.17Z" fill="#e6e6e8"/><path d="m184.84,88.25c-2.02,5.75-6.01,9.52-10.81,12.48-.33,0-.66-.02-.99-.03,4.2-3.86,5.77-10.62,11.8-12.45Z" fill="#2267a8"/><path d="m190.63,70.04c-.57,1.98-1.15,3.96-1.72,5.94.57-1.98,1.15-3.96,1.72-5.94Z" fill="#5a5a8f"/><path d="m135.53,146.29c-.56,1.73-1.11,3.45-1.67,5.18.56-1.73,1.11-3.45,1.67-5.18Z" fill="#6a93c4"/><path d="m188.2,78.54c-.4,1.15-.8,2.3-1.19,3.44.4-1.15.8-2.3,1.19-3.44Z" fill="#5e679c"/><path d="m192.74,63.01c-.4,1.19-.79,2.38-1.19,3.56.19-1.17.39-2.34.58-3.51.2-.03.41-.05.61-.06Z" fill="#9195b7"/><path d="m194.57,54.34c-.17.86-.34,1.73-.51,2.59.17-.86.34-1.73.51-2.59Z" fill="#bebfc2"/><path d="m171.63,102.53c-.19-.03-.38-.09-.56-.18.37-.39.74-.78,1.11-1.16-.16.35-.32.69-.47,1.04l-.08.31Z" fill="#2267a8"/><path d="m192.74,63.01c-.2,0-.41.02-.61.06.24-.61.48-1.22.72-1.83-.04.59-.07,1.18-.11,1.77Z" fill="#5e679c"/><path d="m195.27,50.86c-.11.57-.23,1.13-.34,1.7.11-.57.23-1.13.34-1.7Z" fill="#bebfc2"/><path d="m153.48,115.93c-.54.2-1.07.4-1.61.61.54-.2,1.07-.4,1.61-.61Z" fill="#3e2655"/><path d="m193.67,57.83c-.14.58-.27,1.15-.41,1.73.14-.58.27-1.15.41-1.73Z" fill="#5e679c"/><path d="m154.46,115.21c-.34.24-.67.49-1.01.73.34-.24.67-.49,1.01-.73Z" fill="#3e2655"/><path d="m171.71,102.23c.16-.35.31-.69.47-1.04.24.04.45.14.64.3-.37.24-.74.49-1.11.73Z" fill="#3e2655"/><path d="m173.04,100.7c.33,0,.66.02.99.03-.35.23-.7.46-1.05.69-.05-.24-.03-.48.06-.72Z" fill="#3e2655"/><path d="m126.15,175.46c-11.47,14.62-22.31,29.84-35.5,42.81,4.16-10.94,13.15-17.88,19.61-26.92,4.46-6.24,8.7-13,15.45-16.93.15.35.3.69.44,1.04Z" fill="#25588c"/><path d="m126.15,175.46c-.15-.35-.3-.69-.44-1.04.75-1,1.5-1.99,2.26-2.99.24,0,.47-.01.71-.01-.1.9-.2,1.81-.29,2.71-.48.94-.95,1.88-1.43,2.82-.27-.5-.53-1-.8-1.5Z" fill="#4c4c67"/><path d="m130.65,164.48c-.25,1.77-.5,3.55-.76,5.32-.1.22-.18.45-.25.68-.18.02-.36.03-.55.05.12-1.16.25-2.32.37-3.48.39-.86.79-1.71,1.18-2.57Z" fill="#9195b7"/><path d="m129.47,167.05c-.12,1.16-.25,2.32-.37,3.48-.15.3-.29.6-.43.9-.24,0-.47,0-.71.01.5-1.46,1.01-2.93,1.51-4.39Z" fill="#25588c"/><path d="m133.33,154.07c-.4,1.2-.8,2.4-1.19,3.6.4-1.2.8-2.4,1.19-3.6Z" fill="#6a93c4"/><path d="m110.76,12.24c.51.43,1.01.86,1.52,1.29-.51-.43-1.01-.86-1.52-1.29Z" fill="#25588c"/><path d="m437.73,147.53c2.12.53,4.23,1.06,6.35,1.59-9.68,5.83-14.47,16.78-22.19,24.67-8.86,9.05-14.35,21.62-25.44,28.35-2.21-.26-4.42-.51-6.64-.77-.53-.12-1.06-.24-1.59-.35-2.13-.47-4.26-.93-6.39-1.4-2.16-.48-4.31-.97-6.47-1.45-1.32-.41-2.64-.82-3.96-1.23-16.14-3.79-30.14-12.9-44.93-20.04,15.18-18.34,30.36-36.69,45.54-55.03,15.41,7.01,30.13,15.77,46.55,20.2,1.06.34,2.11.68,3.17,1.02,1.08.26,2.17.53,3.25.79l4.7,1.56c.54.12,1.08.24,1.62.36,2.14.58,4.29,1.16,6.43,1.74Z" fill="#949598"/><path d="m389.81,201.36c3.77.78,7.55,1.57,11.32,2.35.53.15,1.06.3,1.59.45-11.06,13.87-22.14,27.72-33.17,41.62-4.12,5.19-8.12,10.49-12.17,15.74-2.91-.51-5.82-1.03-8.73-1.54-1.45-.29-2.89-.58-4.34-.86-2.04-.58-4.08-1.15-6.13-1.73-21.86-4.86-41.57-15.42-61.48-25.45,0,0,.09-.27.09-.27-1.07-3.72,2.55-2.52,3.73-4,13.9-17.49,28-34.81,42.05-52.17,1.3.46,2.59.93,3.89,1.39,14.79,7.13,28.79,16.24,44.93,20.04,1.32.41,2.64.82,3.96,1.23,2.16.48,4.31.97,6.47,1.45,2.13.47,4.26.93,6.39,1.4.53.12,1.06.24,1.59.35Zm-33.61,58.05c-.25.07-.5.14-.75.21.16.18.31.5.47.5.32,0,.64-.19.96-.29-.22-.14-.45-.27-.68-.41Z" fill="#680c0f"/><path d="m325.31,78.87c1.43.07,2.87.14,4.3.21-1.45,2.28,4.03,1.53,1.47,4.65-10.36,12.63-20.59,25.37-30.74,38.19-2.04,2.58-4.61,5.15-4.02,9.13-2.12.59-4.24,1.19-6.35,1.78-5.59.21-11.18.43-16.77.64-1.16.01-2.31.02-3.47.03-.8-.08-1.6-.16-2.4-.24-1.95-.1-3.9-.19-5.85-.29-.53,0-1.06-.01-1.6-.02-1.32-.23-2.65-.46-3.97-.7-2.98-.51-5.95-1.02-8.93-1.54-5.46-.95-10.92-1.91-16.38-2.86-3.19-.58-6.38-1.16-9.57-1.74-.56-.18-1.11-.35-1.67-.53,1.33-1.26,2.82-2.37,3.95-3.8,14.69-18.46,29.32-36.96,43.97-55.45.33-.04.67-.09,1-.13.54.2,1.09.4,1.63.6,1.55.5,3.1,1,4.65,1.5,1.09.17,2.18.33,3.26.5.52.18,1.04.36,1.55.53,1.12.36,2.24.71,3.37,1.07,2.64.53,5.27,1.07,7.91,1.6,0,0-.1.14-.1.14,2.16.61,4.31,1.23,6.47,1.84,1.35.18,2.69.36,4.04.55.8.17,1.61.33,2.41.5,0,0-.12.32-.12.32,5.95,1.03,11.9,2.06,17.86,3.09.3-.05.59-.1.89-.14,1.07.18,2.14.36,3.21.55Z" fill="#9c1c24"/><path d="m267.28,66.35c-14.65,18.49-29.28,36.99-43.97,55.45-1.14,1.43-2.63,2.54-3.95,3.8-.59.02-1.17.04-1.76.05-1.01-.2-2.01-.41-3.02-.61-.41.15-.83.3-1.24.45-.19-.03-.38-.07-.56-.12-.25-.27-.5-.55-.75-.82,0,0-.03-.07-.03-.07-1.59-.35-3.18-.7-4.76-1.05-1.82-.58-3.63-1.17-5.45-1.75-.8-.35-1.6-.71-2.4-1.06-1.32-.35-2.63-.69-3.95-1.04-1.07-.41-2.13-.81-3.2-1.22-.26-.13-.53-.13-.8,0-1.05-.21-2.1-.42-3.14-.63-1.87-.65-3.74-1.29-5.61-1.94l.04-.16c5.72-12.76,16.6-21.06,24.19-32.23,3.41-5.02,7.22-9.74,10.85-14.6,6.92-5.21,14.55-7.72,22.87-7.58.52.17,1.04.34,1.55.51,1.18-.03,2.36-.06,3.54-.09,0,0-.03-.25-.03-.25,4.29.83,8.57,1.66,12.86,2.49.3.21.6.43.9.64,1.86.39,3.72.78,5.58,1.17.75.22,1.51.45,2.26.67Z" fill="#d62027"/><path d="m266.09,17.96l-.68-3.01c1.88.82,4.28-2.92,5.85.6-1.72.8-3.45,1.61-5.17,2.41Z" fill="#d62027"/><path d="m258.54,63.87c-4.29-.83-8.57-1.66-12.86-2.49,4.52-.38,8.88.04,12.86,2.49Z" fill="#e9b4bc"/><path d="m290.66,72.03c-2.64-.53-5.27-1.07-7.91-1.6-.02-.19-.05-.38-.09-.56,2.67.72,5.33,1.44,8,2.16Z" fill="#bea0a9"/><path d="m297.02,74.01c-2.16-.61-4.31-1.23-6.47-1.84,2.14.4,4.27.79,6.41,1.19,0,.22.02.44.06.65Z" fill="#9c5059"/><path d="m265.02,65.68c-1.86-.39-3.72-.78-5.58-1.17,1.8.17,3.6.35,5.4.52.05.22.11.43.18.64Z" fill="#9c5059"/><path d="m209.15,32.32c.04-.26.04-.53,0-.79,1.97.38,3.94.76,5.91,1.14-.16.22-.28.46-.37.72-1.85-.36-3.7-.71-5.54-1.07Z" fill="#680c0f"/><path d="m274.56,68.32c-1.55-.5-3.1-1-4.65-1.5,1.49.29,2.97.58,4.45.87.06.21.12.42.2.63Z" fill="#9c5059"/><path d="m214.69,33.39c.09-.26.21-.5.37-.72,1.37.26,2.74.51,4.11.77-1.49-.02-2.99-.03-4.48-.05Z" fill="#9c5059"/><path d="m297.02,74.01c-.04-.22-.06-.43-.06-.65,1.37.4,2.73.8,4.1,1.2-1.35-.18-2.69-.36-4.04-.55Z" fill="#bea0a9"/><path d="m282.66,69.87c.04.18.07.37.09.56-1.12-.36-2.24-.71-3.37-1.07,1.09.17,2.19.34,3.28.51Z" fill="#9c5059"/><path d="m274.56,68.32c-.07-.2-.14-.41-.2-.63,1.15.38,2.31.75,3.46,1.13-1.09-.17-2.18-.33-3.26-.5Z" fill="#daadad"/><path d="m265.02,65.68c-.07-.21-.13-.43-.18-.64,1.15.39,2.3.79,3.44,1.18-.33.04-.67.09-1,.13-.75-.22-1.51-.45-2.26-.67Z" fill="#daadad"/><path d="m245.71,61.63c-1.18.03-2.36.06-3.54.09.14-.22.28-.43.43-.63,1.04.18,2.07.36,3.11.54Z" fill="#e62930"/><path d="m242.6,61.09c-.15.21-.29.42-.43.63-.52-.17-1.04-.34-1.55-.51.66-.04,1.32-.08,1.98-.12Z" fill="#e89595"/><path d="m296.32,131.05c-.58-3.98,1.98-6.55,4.02-9.13,10.15-12.82,20.38-25.57,30.74-38.19,2.56-3.12-2.92-2.37-1.47-4.65.17-.11.33-.11.5,0,3.58,3.68,6.64,1.68,9.6-1.32,18.73-5.89,38.08-3.73,57.04-6.81-6.49,12.93-17.23,22.13-25.54,33.47-3.13,4.27-6.27,8.51-9.41,12.77-.78-.07-1.57-.15-2.35-.22-1.05-.2-2.11-.41-3.16-.61-6.92-.94-13.94-2.12-20.8.28-13.11,4.59-26.11,9.59-39.16,14.42Z" fill="#d62027"/><path d="m339.71,77.75c-2.96,3-6.01,5-9.6,1.32.15-.26.3-.52.45-.78,3.05-.18,6.1-.36,9.14-.54Z" fill="#9c1c24"/><path d="m321.21,78.46c-5.95-1.03-11.9-2.06-17.86-3.09,5.95,1.03,11.9,2.06,17.86,3.09Z" fill="#a73342"/><path d="m325.31,78.87c-1.07-.18-2.14-.36-3.21-.55,1.07.18,2.14.36,3.21.55Z" fill="#bea0a9"/><path d="m276.72,231.94c19.91,10.03,39.62,20.59,61.47,25.45,2.04.58,4.08,1.15,6.13,1.73,1.45.29,2.89.58,4.34.86,2.93.72,5.87,1.45,8.81,2.17,2.15.44,4.31.87,6.46,1.3.24.05.49.1.73.15.55.1,1.1.2,1.65.3,3.45.85,6.9,1.71,10.35,2.56-2.6,9.78-10.7,15.12-16.14,22.58-9.08,12.45-18.79,24.37-28.24,36.51-1.39-.14-2.78-.28-4.18-.42-.54-.18-1.07-.37-1.61-.55-1.1-.36-2.2-.72-3.31-1.07-2.38-.48-4.76-.96-7.14-1.43-.8-.19-1.61-.39-2.41-.58-3.19-.83-6.38-1.65-9.57-2.48-.56-.08-1.12-.17-1.68-.25-.49-.18-.98-.36-1.47-.55-1.36-.43-2.73-.85-4.09-1.28-.8-.19-1.6-.38-2.41-.57-1.56-.52-3.12-1.04-4.67-1.56-.6-.17-1.2-.34-1.8-.51-.43-.13-.87-.27-1.3-.4-.52-.21-1.03-.42-1.55-.63-.3-.11-.6-.23-.9-.34-18.66-7.9-37.32-15.8-55.97-23.71,3.77-4.08,7.72-7.99,11.29-12.27,12.47-14.94,24.81-30,37.2-45.01Z" fill="#949598"/><path d="m332.28,325.57c9.45-12.14,19.16-24.06,28.24-36.51,5.44-7.46,13.54-12.8,16.14-22.58,7.55,1.38,15.09,2.75,22.64,4.13-1.08,7.62-7.07,11.71-11.14,17.05-10.55,13.82-21.54,27.26-32.52,40.69-1.1,1.34-3.38,1.57-5.11,2.32-.35-.03-.7-.07-1.04-.1-1.28-.46-2.56-.91-3.84-1.37-1.33-.39-2.66-.77-3.99-1.16-.77-.33-1.54-.65-2.3-.98-2.23-.4-4.47-.8-6.7-1.2-.13-.07-.25-.16-.36-.28Z" fill="#bebfc2"/><path d="m332.64,325.84c2.23.4,4.47.8,6.7,1.2.04.24.08.47.12.71-2.27-.64-4.55-1.27-6.82-1.91Z" fill="#9c5059"/><path d="m339.46,327.76c-.04-.24-.08-.47-.12-.71.77.33,1.54.65,2.3.98-.73-.09-1.46-.18-2.19-.27Z" fill="#bea0a9"/><path d="m276.72,231.94c-12.39,15.01-24.73,30.08-37.2,45.01-3.57,4.28-7.52,8.19-11.29,12.27-4.63-2.05-9.27-4.09-13.9-6.14,10.64-5.3,15.83-16.66,23.54-25.16,8.88-9.78,16.52-20.87,24.69-31.39.29.03.58.07.87.1,2.11.63,4.23,1.26,6.34,1.89,2.35,1.05,4.7,2.09,7.04,3.14,0,0-.09.27-.09.27Z" fill="#bebfc2"/><path d="m289.75,314.81c1.56.52,3.12,1.04,4.67,1.56-1.56-.52-3.12-1.04-4.67-1.56Z" fill="#9c5059"/><path d="m296.83,316.95c1.36.43,2.73.85,4.09,1.28-1.36-.43-2.73-.85-4.09-1.28Z" fill="#9c5059"/><path d="m286.64,313.9c.44.13.87.27,1.3.4-.44-.13-.87-.27-1.3-.4Z" fill="#9c5059"/><path d="m284.19,312.93c.3.11.6.23.9.34-.3-.11-.6-.23-.9-.34Z" fill="#9c5059"/><path d="m213.51,283.1c-.07.09-.13.18-.2.27.07-.08.15-.15.22-.23,0,0-.03-.04-.03-.04Z" fill="#9c1c24"/><path d="m304.06,319.02c3.19.83,6.38,1.65,9.57,2.48-3.19-.83-6.38-1.65-9.57-2.48Z" fill="#9c5059"/><path d="m316.04,322.08c2.38.48,4.76.96,7.14,1.43-.01.2-.02.4-.02.59-2.38-.68-4.75-1.35-7.13-2.03Z" fill="#a73342"/><path d="m323.17,324.11c0-.2,0-.4.02-.59,1.1.36,2.2.72,3.31,1.07-1.11-.16-2.22-.32-3.32-.48Z" fill="#9c5059"/><path d="m187.07,275.71c4.6.8,9.21,1.61,13.81,2.41-4.6-.8-9.21-1.61-13.81-2.41Z" fill="#e1747c"/><path d="m203.19,278.78c1.35.49,2.71.99,4.06,1.48-1.33-.27-2.67-.54-4-.81,0-.23-.03-.45-.06-.67Z" fill="#9c5059"/><path d="m362.67,118.26c.24.06.46.16.67.3-14.85,18.16-29.7,36.32-44.55,54.48-.81-.19-1.62-.37-2.43-.56-1.05-.41-2.1-.82-3.15-1.22-3.21-.53-6.42-1.06-9.62-1.59-1.14,0-2.29,0-3.43,0-13.83-.39-26.48,4.26-38.51,11.58-3.4,1.53-6.8,3.06-10.2,4.6.22-1.28.05-2.93.73-3.78,8.82-11.03,17.99-21.75,26.57-32.99,3.96-5.19,10.1-8.8,11.23-16.25,2.12-.59,4.23-1.19,6.35-1.78,13.05-4.83,26.05-9.83,39.16-14.42,6.86-2.4,13.88-1.23,20.8-.28,1.04.43,2.09.86,3.13,1.29,1.08.21,2.17.42,3.25.63Z" fill="#e6e6e8"/><path d="m289.97,132.83c-1.13,7.46-7.27,11.06-11.23,16.25-8.58,11.24-17.75,21.96-26.57,32.99-.68.85-.51,2.5-.73,3.78-8.41,5.36-17.58,5.42-26.78,5.3-1.4-.02-2.81-.04-4.21-.06-.29,0-.57-.01-.86-.02-1.07-.21-2.14-.41-3.21-.62-2.22-.14-4.43-.28-6.65-.43,0,0,.01.23.01.23-2.19-.34-4.38-.68-6.57-1.01l.13-.38c-1.62-7.75,5.67-9.68,8.67-14.22,10.02-15.18,24.08-26.93,32.75-43.38.68.01,1.36.02,2.03.03,2.9.49,5.79.99,8.69,1.48,1.48.06,2.95.13,4.43.19.53,0,1.06.01,1.6.02,1.95.1,3.9.19,5.85.29.8.08,1.6.16,2.4.24,1.16-.01,2.31-.02,3.47-.03,5.59-.21,11.18-.43,16.77-.64Z" fill="#bebfc2"/><path d="m261.65,181.25c12.03-7.32,24.68-11.97,38.51-11.58,1.08.19,2.16.37,3.24.56,3.28.56,6.56,1.11,9.84,1.67.74.24,1.48.48,2.23.72-15.24,18.63-30.48,37.27-45.71,55.9-2.11-.63-4.23-1.26-6.34-1.89-.39-2.36-2.15-2.13-3.74-2.23-.55-.16-1.09-.32-1.64-.48-1.32-.47-2.64-.95-3.96-1.42-3.75-.66-7.49-1.32-11.24-1.98-1.13.03-2.26.05-3.39.08-2.49.2-4.98.39-7.47.59,6.15-8.11,12.27-16.25,18.46-24.32,3.9-5.08,9.11-9.07,11.2-15.63Z" fill="#d62027"/><path d="m186.17,186.21c5.71.88,11.43,1.76,17.14,2.64,0,0-.13.38-.13.38-.01.2-.04.4-.09.6-5.66-.98-11.33-1.95-16.99-2.93.01-.23.04-.46.08-.68Z" fill="#9c5059"/><path d="m186.17,186.21c-.04.23-.07.45-.08.68-2.74-.52-5.48-1.05-8.22-1.57,2.77.3,5.53.59,8.3.89Z" fill="#a73342"/><path d="m118.18,213.01c.62-2.32,1.25-4.64,1.87-6.96-.62,2.32-1.25,4.64-1.87,6.96Z" fill="#731b3d"/><path d="m203.09,189.83c.05-.2.08-.4.09-.6,2.19.34,4.38.68,6.57,1.01-2.22-.14-4.44-.28-6.66-.42Z" fill="#a73342"/><path d="m171,182.44c2.1.68,4.21,1.36,6.31,2.04-2.02-.45-4.03-.9-6.05-1.35-.08-.24-.17-.47-.26-.69Z" fill="#bea0a9"/><path d="m209.74,190.02c2.22.14,4.43.28,6.65.43-.16.17-.3.35-.42.55-2.08-.33-4.15-.65-6.23-.98Z" fill="#bea0a9"/><path d="m156.69,178.19c1.31.53,2.62,1.06,3.94,1.59-.03.23-.08.45-.15.67-1.19-.53-2.37-1.05-3.56-1.58-.07-.23-.14-.46-.22-.69Z" fill="#bea0a9"/><path d="m149.39,176.68c1.62.32,3.25.65,4.87.97-.28.04-.55.08-.83.12-1.35-.36-2.7-.73-4.04-1.09Z" fill="#9c5059"/><path d="m160.48,180.45c.07-.22.12-.44.15-.67,1.31.26,2.61.52,3.92.78.01.21.03.42.06.63-1.38-.25-2.76-.49-4.14-.74Z" fill="#9c5059"/><path d="m220.45,191.08c1.4.02,2.81.04,4.21.06-1.4-.02-2.81-.04-4.21-.06Z" fill="#9c5059"/><path d="m123.37,192.13c.42-1.51.84-3.01,1.26-4.52-.42,1.51-.84,3.01-1.26,4.52Z" fill="#731b3d"/><path d="m215.97,190.99c.12-.2.26-.39.42-.55,1.07.21,2.14.41,3.21.62-1.21-.02-2.42-.05-3.63-.07Z" fill="#a73342"/><path d="m171,182.44c.1.23.19.46.26.69-1.17-.4-2.34-.8-3.51-1.19,1.08.17,2.16.33,3.24.5Z" fill="#a73342"/><path d="m153.44,177.77c.28-.04.55-.08.83-.12.81.18,1.62.36,2.42.53.08.23.16.46.22.69-1.16-.37-2.32-.73-3.48-1.1Z" fill="#a73342"/><path d="m128.66,171.43c.14-.3.29-.6.43-.9.18-.02.37-.03.55-.05-.43,1.22-.85,2.44-1.28,3.66.1-.9.2-1.81.29-2.71Z" fill="#731b3d"/><path d="m115.35,225.41c.29-.94.59-1.88.88-2.81-.29.94-.59,1.88-.88,2.81Z" fill="#511e39"/><path d="m164.61,181.19c-.03-.21-.05-.42-.06-.63.83.32,1.65.65,2.48.97-.81-.11-1.61-.23-2.42-.34Z" fill="#bea0a9"/><path d="m122.26,193.75c.36-.55.71-1.09,1.07-1.64-.19.91-.37,1.81-.56,2.72-.17-.36-.34-.72-.51-1.09Z" fill="#511e39"/><path d="m242.84,220.54c3.75.66,7.49,1.32,11.24,1.98.02.21.04.43.07.64-3.86-.69-7.72-1.39-11.57-2.08.1-.17.19-.35.27-.54Z" fill="#e9b4bc"/><path d="m259.68,224.41c1.59.1,3.35-.14,3.74,2.23-.29-.03-.58-.07-.87-.1-.96-.71-1.91-1.42-2.87-2.13Z" fill="#e1747c"/><path d="m254.14,223.16c-.02-.21-.04-.43-.07-.64,1.32.47,2.64.95,3.96,1.42-1.3-.26-2.6-.52-3.9-.77Z" fill="#e1747c"/><path d="m242.84,220.54c-.08.19-.17.36-.27.54-1.04-.15-2.08-.31-3.12-.46,1.13-.03,2.26-.05,3.39-.08Z" fill="#e1747c"/><path d="m246.76,131.29c-.68-.01-1.36-.02-2.03-.03-1.35-.22-2.7-.44-4.05-.66-.43-.08-.85-.15-1.28-.23-1.86-.33-3.72-.66-5.58-.99-.3-.06-.59-.13-.89-.19-.78-.23-1.56-.47-2.33-.7.01-.21.01-.42,0-.63,5.46.95,10.92,1.91,16.38,2.86-.07.19-.15.37-.22.56Z" fill="#a73342"/><path d="m171.23,114.48c3.83.38,7.66.76,11.49,1.14,0,0-.04.16-.04.16-.02.2-.03.4-.01.61-3.81-.63-7.63-1.27-11.44-1.9Z" fill="#bea0a9"/><path d="m230.59,127.86c.01.21.01.42,0,.63-3.2-.59-6.39-1.18-9.59-1.77.02-.2.02-.4.02-.6,3.19.58,6.38,1.16,9.57,1.74Z" fill="#9c5059"/><path d="m182.67,116.38c-.01-.2,0-.4.01-.61,1.87.65,3.74,1.29,5.61,1.94-1.87-.44-3.75-.89-5.62-1.33Z" fill="#d8565f"/><path d="m207.23,123.43c1.59.35,3.18.7,4.76,1.05-1.59-.35-3.18-.7-4.76-1.05Z" fill="#e1747c"/><path d="m192.23,118.36c1.07.41,2.13.81,3.2,1.22-1.02-.2-2.05-.39-3.07-.59-.06-.21-.1-.42-.13-.63Z" fill="#e1747c"/><path d="m221.03,126.12c0,.2,0,.4-.02.6-1.14-.36-2.27-.71-3.41-1.07.58-.02,1.17-.04,1.76-.06.56.18,1.11.35,1.67.53Z" fill="#bea0a9"/><path d="m199.38,120.61c.8.35,1.6.71,2.4,1.06-.8-.35-1.6-.71-2.4-1.06Z" fill="#daadad"/><path d="m212.03,124.55c.25.27.5.55.75.82-.25-.27-.5-.55-.75-.82Z" fill="#e1747c"/><path d="m192.23,118.36c.03.21.07.43.13.63-.31-.21-.62-.43-.93-.64.27-.12.54-.12.8,0Z" fill="#f1c5c0"/><path d="m213.34,125.49c.41-.15.83-.3,1.24-.45-.41.15-.83.3-1.24.45Z" fill="#bea0a9"/><path d="m232.93,129.19c.3.06.59.13.89.19-.3-.06-.59-.13-.89-.19Z" fill="#bebfc2"/><path d="m239.4,130.37c.42.08.85.15,1.28.23-.42-.08-.85-.15-1.28-.23Z" fill="#bebfc2"/><path d="m318.79,173.04c14.85-18.16,29.7-36.32,44.55-54.48,2.36.75,4.73,1.49,7.09,2.24.53.35,1.05.7,1.58,1.05-15.18,18.34-30.36,36.69-45.54,55.03-1.3-.46-2.59-.93-3.89-1.39-1.26-.82-2.53-1.64-3.79-2.46Z" fill="#bebfc2"/><path d="m318.79,173.04c1.26.82,2.53,1.64,3.79,2.46-14.05,17.36-28.15,34.67-42.05,52.17-1.18,1.48-4.8.28-3.73,4-2.35-1.05-4.7-2.09-7.04-3.14,15.24-18.63,30.48-37.27,45.71-55.9.3-.05.59-.1.88-.14.81.19,1.62.37,2.43.56Z" fill="#9c1c24"/><path d="m344.32,259.12c-2.04-.58-4.09-1.15-6.13-1.73,2.04.58,4.08,1.15,6.13,1.73Z" fill="#9c5059"/><path d="m246.76,131.29c.07-.19.14-.38.22-.56,2.98.51,5.95,1.03,8.93,1.54-.14.18-.3.35-.46.5-2.9-.49-5.79-.99-8.69-1.48Z" fill="#9c5059"/><path d="m267.32,133.26c-1.95-.1-3.9-.19-5.85-.29,1.95.1,3.9.19,5.85.29Z" fill="#9c5059"/><path d="m255.45,132.77c.17-.15.32-.32.46-.5,1.32.23,2.65.46,3.97.7-1.48-.06-2.95-.13-4.43-.19Z" fill="#bea0a9"/><path d="m273.19,133.47c-1.16.01-2.31.02-3.47.03,1.16-.01,2.31-.02,3.47-.03Z" fill="#9c5059"/><path d="m313.24,171.9c-3.28-.56-6.56-1.11-9.84-1.67.05-.19.12-.38.18-.56,3.21.53,6.42,1.06,9.62,1.59.04.21.05.43.04.64Z" fill="#d8565f"/><path d="m303.58,169.67c-.07.19-.13.37-.18.56-1.08-.19-2.16-.37-3.24-.56,1.14,0,2.29,0,3.43,0Z" fill="#e1747c"/><path d="m313.24,171.9c.02-.22,0-.43-.04-.64,1.05.41,2.1.82,3.15,1.22-.3.05-.59.1-.89.14-.74-.24-1.49-.48-2.23-.72Z" fill="#bea0a9"/><path d="m154.03,102.52c-.64-3.5,2.15-5.07,2.09-6.17-.05-1.1.17-2.94.12-3.58-.03-.26-.24-.11-.48.04-.32.21-.71.42-.73-.41-.05-1.23.09-2.36.71-3.31.22-.33.44-1.54.99-2.3,1.49-2.02,5.85-1.55,5.85-1.55.49-.59-4.36-.48-4.36-.48,0,0,.66-.37.77-.91.11-.57-.14-.86-.14-.86l.6-.96s-.6-1.57-.96-1.76c-.37-.19-.05-2.67-.05-2.67,0,0-.88.11-.83-.1.27-1.04.61-1.24.61-1.24,0,0-.68-.74-1.04-1.11-.37-.38-.22-1.02-.22-1.02l-.84-1.22s-.1-2.78-.05-3.47c.05-.7.94-1.12,2.15.26.26.3.83-.43.83-.43l-.39-.7-2.32-.75s.17-.64.23-1.49c.05-.86.66-1.5,1.05-1.82.08-.07.25-.11.45-.12-.4-.05-1.44-.16-1.72.07-.39.32-.99.96-1.04,1.81-.05.86.05,2.41.05,2.41l-.15,2.88.2.78.28,1.73s.57.31.94.7c.37.38.33.59.33.59,0,0,.17,1.15-.39,2.09-.56.92.05,1.92.05,1.92,0,0,.79.98,1.16,1.17.37.18.41,1.44.41,1.44l-.6.96s-.03.24-.15.8c-.12.54-.49.96-.49.96,0,0-.64.35-1.49,1.45-.57.74-.22,1.71-.99,2.88-.63.95-.76,2.08-.72,3.31.06,1.45,1.05,1.87,1.11,2.51.05.64-.05,2.16-.05,2.16,0,0-4.47,2.86-5.46,7.15l4.69-1.63Z" fill="#e0ddc5"/><path d="m166.49,97.04s-.23-1.02.05-2.09c.27-1.07.83-1.4.99-2.72.13-1-.28-2.95-.83-3.63-1.28-1.62-1.82-1.98-3.04-3.53,0,0,.05-1.29.84-1.44.83-.16.76-2.75,1.77-3.53.99-.77.98-2.8.83-3.1l-.05-.03-.07-.04c-.1-.02-.26,0-.44.02-.4.05-.91.09-1.15-.37-.4-.77-.27-3.05-.27-3.05,0,0,.32-2.87-.48-4.04-.79-1.15-1.98-2.88-1.98-2.88,0,0-.58-.68-.99-.77-.41-.1-.68-.05-.68-.05,0,0-.47-.52.05-.8.39-.21.55-.61.63-.89.2-.77.25-1.46.25-1.46l-.05-.86s-.39-.59-1.16-.59c-.2-.1-.08-.37-.39-.43,0,0,1.61-.94,1.61-1.5-.01-.25-.5-.05-.94.06l-.12-.32-.39.05c-.3-.1.06-.64.06-.64l-.5.21-.44.31-.44-.64s.08.9-.17,1.02c-.26.11-.77-.06-.77-.06l-.27.91-1.46.64-.08.65-.99,1.22s-.5,1.34,0,1.34c.32,0,.19-.09.52-.29.19-.11.37-.21.52-.29.45-.23.94-1.02.94-1.02l.93-.15v.67l-.05.45-.16,1.04v.03s-.17-.02-.17-.02c-.2.02-.36.05-.45.13-.39.31-.99.96-1.04,1.81-.05.85-.22,1.5-.22,1.5l2.32.75.38.69s-.55.74-.83.43c-1.21-1.39-2.09-.96-2.15-.26-.05.7.06,3.47.06,3.47l.83,1.23s-.15.63.22,1.01c.37.38,1.04,1.12,1.04,1.12,0,0-.33.18-.61,1.22-.05.21.83.11.83.11,0,0-.3,2.48.06,2.66.37.19.96,1.76.96,1.76l-.61.96s.25.3.14.86c-.1.54-.77.91-.77.91,0,0,4.86-.11,4.36.48,0,0-4.36-.48-5.84,1.55-.55.76-.77,1.96-.99,2.3-.63.95-.76,2.09-.72,3.32.02.83.4.62.72.42.25-.16.46-.31.49-.04.06.64-.16,2.47-.1,3.57.05,1.1-2.76,2.72-2.15,5.98l18.5,1c-.01-.08-.5-2.98-5.87-6.34Zm-7.94-.91c-.1.54-.77.85-.89.21-.1-.64.17-3.74.17-3.74.1-.35.19-.28.33-.21.07.04.16.07.27.05.33-.06.22,3.15.12,3.68Z" fill="#004069"/><path d="m270.12,242.21c.1-11.41-8.42-18.81-13.48-22.52,0,0-3.06-3.94-5.39-5.87-5.76-4.78-7.62-5.75-7.62-5.75-6.9-25.88-25.03-47.7-51.68-57.14.46.16.74-.62.74-.62-.28-1.08-1.23-2.16-2.05-3.14-.08-.1-.43.02-.77.14-.3.1-.62.21-.76.16,0,0-1.06-.99-1.59-1.42l-2.32-1.65s-.91-.31-1.1-.42c-.31-.16.35-1.32.02-1.47-.67-.31-1.37-.61-2.11-.88-.72-1.62-2.01-3.11-3.7-4.38l-.4-13.99c.56-.97.89-2.01.89-3.1,0-.26-.03-.52-.06-.78,1.66-1.76,2.62-3.8,2.62-5.97,0-6.65-8.87-12.05-19.8-12.05s-19.81,5.39-19.81,12.05c0,2.52,1.3,4.87,3.48,6.8.01.91.24,1.78.65,2.61l-.44,15.66c-1.42,1.41-2.39,2.99-2.77,4.69-.93.49-1.78,1.01-2.54,1.56-2.71,1.94-5.05,4.34-5.3,6.82-25.93,10.11-45.24,32.95-49.89,60.63-5.36,4.63-9.77,9.75-13.04,15.3-7.08,6.4-9.25,14.43-9,21.85.13,4.19,1.18,7.94,3.67,11.68l.29,7.5c16.55,14.77,58.13,23.39,100.12,22.13,57.64-1.71,102.9-23.41,103.13-48.45Z" fill="#004069"/><path d="m244.96,209.81c4.17,3.8,7.42,6.36.13.98-5.66-4.18-13.12-8.84-21.99-12.45-19.84-8.09-43.03-9.83-60.74-9.37-35.78.94-65.39,15.67-74.86,22.13-6.09,4.15-11.22,10.3-14.12,14.43,0,0,.77,0-1.74,2.43,1.16-1.87,6.74-12.92,17.41-20.05,18.83-12.6,40.81-21.19,72.15-22.12,32.97-.99,64.62,6.56,83.77,24.02Z" fill="#e0ddc5"/><path d="m140.62,151.85s-9.74,1.84-13.95,15.62c-4.21,13.78-4.55,25.07-4.55,25.07l9.48-3s2.2-28.83,9.02-37.69Z" fill="#e0ddc5"/><path d="m127.83,157.34s-11.76,6.82-16.3,25.59c-2.96,12.24-2.5,14.52-2.5,14.52l8.2-3.69s3.05-26.29,10.59-36.41Z" fill="#e0ddc5"/><path d="m113.76,167.61s-7.11,5.9-10.45,17.57c-3.34,11.67-4.21,17.57-4.21,17.57l5.51-3.51s3.48-21.51,9.14-31.63Z" fill="#e0ddc5"/><path d="m103.94,178.1s-7.11,7.45-10.45,19.12c-3.34,11.67-3.29,11.06-3.29,11.06l5.42-3.75s2.66-16.31,8.32-26.43Z" fill="#e0ddc5"/><path d="m151.34,149.33s-6.53-.28-9.29,4.92c-2.76,5.2-3.48,7.73-4.5,11.53-.38,1.42-1.23,6.93-1.57,11-.56,6.83-.52,12.9-.52,12.9l11.65-2.32s-4.48-22.85,4.22-38.04Z" fill="#e0ddc5"/><path d="m160.94,146.97s-3.89.34-5.74,2.23c-.92.94-3.71,4.07-2.84,13.77s.87.98.87.98c0,0,1.02-3.37,2.9-1.97.9.67.73,2.81,2.18,3.09s3.19,4.92,3.19,4.92l-.55-23.03Z" fill="#e0ddc5"/><path d="m163.52,147.64s4.25-1.23,5.99.18c.9.73,4.18,6.41,5.39,10.79,1.11,4.03,1.59,13.87,1.59,13.87,0,0-2.23-5.86-3.68-6.14s-2.18-.7-2.03-1.55-.73-3.66-1.45-3.66c-1.02,0-1.6,2.39-1.6,2.39,0,0-3.63-10.4-4.21-15.89Z" fill="#e0ddc5"/><path d="m171.36,148.2s7.33-1.47,11.49,4.5c3.2,4.59,7.16,17.12,7.16,17.12,0,0-4.28-3.48-4.72-3.9s-.58-1.12-.73-1.83-2.03-2.25-2.03-2.25l-.73,1.27s-5.08-10.82-10.45-14.9Z" fill="#e0ddc5"/><path d="m180.91,148.91s13.65,2.78,17.57,13.04c3.35,8.77,2.32,6.78,2.32,6.78,0,0-3.82-9.18-11.17-10.97,0,0-2.32-5.53-8.72-8.85Z" fill="#e0ddc5"/><path d="m200.79,156.02s13.42,5.64,16.41,12.85c0,0-6.82-6.47-12.48-8.86l-3.93-4Z" fill="#e0ddc5"/><path d="m141.91,150.17s-8.12-.56-14.51,7.73c-7.58,9.85-9.29,29.24-9.29,29.24,0,0-2.18,1.69-2.32,3.23-.35,3.78-.15,3.8-.15,3.8,0,0,4.21,3.8,4.5-2.53s2.47-24.04,8.85-33.18c5.08-7.27,12.91-8.29,12.91-8.29Z" fill="#e0ddc5"/><path d="m108.68,175.62c-2.87,6.57-4.21,13.37-4.89,18.04-.56.55-1.26,1.42-1.35,2.35-.15,1.55-.15,4.08-.15,4.08l.68-.18-1.17,2.01,3.29-1.5,1.55-2.44c.68-8.46,2.82-15.5,4.89-21.09,7.67-20.8,21.52-23.62,21.52-23.62,0,0-15.09,1.12-24.37,22.35Z" fill="#e0ddc5"/><path d="m96.51,196.93c-.41.02-.93.19-1.18.9-.44,1.27-.87,7.45-.87,7.45l1.93-.75,1.3-1.04s1.13-14.78,8.32-27.72c2.63-4.73,6.21-10,10.64-13.09,0,0-16.15,9.22-20.15,34.24Z" fill="#e0ddc5"/><path d="m99.98,177.02c-5.26,6.5-11.1,16.4-13.76,28.28-.5.58-1.11,1.42-1.19,2.23-.15,1.41-.87,4.5-.87,4.5l1.03-.84-.02.13,3.19-2.67s5.08-28.4,23.07-42.17c0,0-5.33,2.97-11.46,10.54Z" fill="#e0ddc5"/><path d="m150.61,149.19s-4.93-2.39-8.7.98c-3.77,3.37-9.72,11.53-10.16,32.9,0,0-1.16.42-1.45,1.83s-.44,5.01-.44,5.01l3.29-.56s-.39-13.31,2.8-24.7c3.22-11.5,8.56-17.71,14.65-15.46Z" fill="#e0ddc5"/><path d="m153.37,148.2c.75-.39,1.81-.66,2.47-.42,0,0-2.03-1.83-4.06,0-1.2,1.08-4.06,3.51-5.37,16.73-.51,5.17-.62,12.23-.58,15.18.05,3.71,1.48,9.6,1.71,7.97.28-1.97-.04-20.82,1.34-28.36,1.16-6.33,2.58-10.11,4.5-11.11Z" fill="#e0ddc5"/><path d="m180.91,148.91s7.58-.57,14.93,6.94c8.88,9.08,11.35,27.22,11.35,27.22,0,0,1.36.99,1.6,2.53.57,3.76.86,5.84.86,5.84,0,0-3.98,3.56-4.63-2.74-.65-6.3-2.97-21.86-9.87-30.65-5.49-6.99-14.24-9.14-14.24-9.14Z" fill="#e0ddc5"/><path d="m221.85,191.79c-.44-.84-1.15-.88-1.74-1.41-.94-4.63-1.69-11.31-4.93-17.71-10.48-20.7-25.68-20.81-25.68-20.81,0,0,.72.21,1.92.72,1.06.9,6.2,5.75,6.2,5.75,0,0,4.98,1.59,9.04,6.09,3.15,3.49,10.03,15.29,10.83,30.37l2.52,1.87,2.61-.19s-.05-3.3-.77-4.68Z" fill="#e0ddc5"/><path d="m215.46,165.78c5.51,6.57,7.07,11.26,6.76,10.7-4.08-7.5-10.03-14.52-18.8-19.28,0,0,5.22.7,12.04,8.58Z" fill="#e0ddc5"/><path d="m224.17,171.82c2.9,3.66,3.19,5.06,3.19,5.06-6.38-9.98-14.51-13.46-14.51-13.46,2.47.95,5.26.77,11.32,8.4Z" fill="#e0ddc5"/><path d="m172.6,148.39s5.24-2.09,9.2,1.08c3.96,3.17,9.57,13.48,11.12,29.76,0,0,1.62,2.34,1.99,3.73.37,1.39.33,5.83.33,5.83l-3.87-.94s-.66-14.25-4.5-25.45c-3.87-11.31-8.56-14.76-14.28-14.01Z" fill="#e0ddc5"/><path d="m166.87,147.27s2.65-1.11,3.87-.05c1.22,1.06,4.88,5.12,6.42,16.73.68,5.15,1.53,14.65,1.53,14.65-1.24-.59-1.96,2.22-1.96,2.22,0,0-.95-15.89-2.76-23.34-1.52-6.25-5.22-10.82-7.1-10.21Z" fill="#e0ddc5"/><path d="m161.06,146.52s1.35-.42,1.45,1.27c.1,1.68.73,31.71.73,31.71,0,0-.8-.09-1.34.28-.7.47-1.39,1.06-1.39,1.06,0,0-.7-31.93-.62-33.06.08-1.13,1.17-1.27,1.17-1.27Z" fill="#e0ddc5"/><path d="m290.1,302.53c.34-.6.64-1.19.91-1.8.94-2.33,1.66-4.99,1.53-7.46-1.38-23.36-57.15-39.86-125.82-37.33-1.19.04-2.38.09-3.57.14-66.67,3.08-120.49,22.94-124.89,45.27-.01.49,0,.98.02,1.48.26,5.25,2.42,10.22,6.22,14.84l4.91,25.95,206.98,6.93,38.5-7.31-4.77-40.71Z" fill="#004069"/><path d="m156.43,114.68c0-1.18-.49-1.55-1.1-1.55s-1.1.37-1.1,1.55v19.89c.71-.19,1.44-.36,2.2-.51v-19.38Z" fill="#e0ddc5"/><path d="m150.49,117.02c0-1.18-.39-1.33-.88-1.33s-.88.16-.88,1.33v19.72c.55-.31,1.15-.6,1.76-.87v-18.85Z" fill="#e0ddc5"/><path d="m146.69,120.81c0-1.18-.22-2.13-.49-2.13s-.5.95-.5,2.13v17.81c0,.11-.05,1.06-.04,1.16.31-.29.68-.94,1.03-1.21v-17.77Z" fill="#e0ddc5"/><path d="m163.43,133.47v-20.07c0-1.18-.22-1.55-.49-1.55s-.5.37-.5,1.55v20.07c.15,0,.29-.01.44-.01.19,0,.37.01.55.02Z" fill="#e0ddc5"/><path d="m135.34,151.78c2.04-6.99,13.87-12.35,28.15-12.35,11.28,0,21.03,3.35,25.63,8.2-4.22-5.12-14.3-8.73-26.07-8.73-14.83,0-26.99,5.72-28.1,12.99-.06.36.19.6.39-.11Z" fill="#e0ddc5"/><path d="m143.41,143.14c2.89-5.21,10.67-8.94,19.82-8.94,6.12,0,11.62,1.68,15.47,4.34-3.7-3.28-9.59-5.41-16.24-5.41-9.72,0-17.84,4.53-19.82,10.58l.77-.57Z" fill="#e0ddc5"/><path d="m142.84,111.89c2.83-4.66,10.44-7.99,19.4-7.99,5.99,0,11.38,1.5,15.14,3.88-3.62-2.93-9.38-4.83-15.9-4.83-9.51,0-17.47,4.05-19.4,9.45-.29.82-.42,2.88-.41,3.04.08-1.24.49-2.43,1.17-3.55Z" fill="#e0ddc5"/><path d="m142.82,109.64c2.78-4.38,10.24-7.51,19.04-7.51,5.88,0,11.16,1.41,14.86,3.65-3.55-2.75-9.21-4.54-15.6-4.54-9.34,0-17.14,3.81-19.04,8.89-.29.77-.41,2.7-.4,2.86.08-1.17.48-2.29,1.14-3.34Z" fill="#e0ddc5"/><polygon points="84.07 305.33 97.36 300.02 258.58 361.44 295.83 354.7 347.24 374.25 375.25 368.1 407.09 350.09 372.79 355.97 368.43 353.19 339.76 357.44 290.24 334.05 254.98 343.09 46.04 260.91 9.52 274.65 9.52 310.29 9.52 280.48 84.07 305.33" fill="#e0ddc5"/><path d="m265.63,255.16c2.65-2.76,4.13-9.44,4-13.55-.82-24.27-48.49-47.91-106.1-46.08-57.61,1.83-103.33,28.44-102.51,52.71.06,1.72.45,5.47,2.84,8.98.44.65,2.32,3.23,2.32,3.23-2.76-3.94-3.02-8.22-2.62-10.46,1.85-10.32,14.61-39.37,99.39-40.97,95.2-1.8,103.99,24.69,102.02,38.76.23,1.24.35,2.54.41,4.02,0,0,.12,1.47.26,3.35Z" fill="#e0ddc5"/><path d="m166.72,255.93c68.66-2.52,124.44,13.97,125.81,37.33-1.15-23.38-57.14-39.86-125.81-37.33Z" fill="#e0ddc5"/><path d="m265.53,253.83c16.31-25.02-28.8-39.66-45.84-43.77-35.59-8.59-74.96-7.32-110.03,3-13.04,3.83-26.5,9.11-36.92,17.85-7.69,6.44-13.06,16.56-8.37,26.45.25.52,2.22,3.68,2.22,3.68,0,0,198.62,10.89,200.77,9.85.16-.08-1.45-7.54-1.41-7.75,0,0-.22-6.47-.42-9.3Z" fill="#004069"/><path d="m163.14,256.08c1.2-.06,2.39-.1,3.58-.15,68.67-2.52,124.67,13.96,125.81,37.33.12,2.52-.41,5.01-1.52,7.46-.28.71-.58,1.39-.89,2.01l.04.36c2.05-3.7,3.16-7.36,2.96-11.41-1.41-28.66-59.84-49.88-130.13-46.64-69.08,3.19-124.2,28.22-124.75,56.29,4.39-22.33,58.22-42.19,124.89-45.26Z" fill="#e0ddc5"/><path d="m288.98,295.17c-4.57-21.51-57.41-36.24-125.84-33.09-68.43,3.16-123.03,23.5-121.95,45.44.05,1.05.23,2.08.53,3.1,5.8-20.2,57.59-38.1,121.42-41.04,68.43-3.16,124.78,12.07,125.85,34.01.02.34.02.68.01,1.03.39-1.17.59-2.35.59-3.55,0-.38.25-1.8-.62-5.89Z" fill="#e0ddc5"/><path d="m246.93,253.99s25.54,5.33,39.19,21.12c11.41,13.19,7.44,21.63,4.05,27.99l3.43,32.92-2.97-1.39-5.39,1.6,1.43-29.87.88-5.65s-4.62-18.35-19.04-24.96c0,0-4.62-14.29-21.58-21.76Z" fill="#004069"/><path d="m243.62,208.55c-1.12-1.06-6.38-5.01-6.38-5.01,0,0,15.96,9.71,19.6,16,0,0,10.44,6.91,12.75,17.31,2.5,11.26-3.95,18.69-3.95,18.69l-.19-1.19s6.06-7.42,3.5-17.1c-2.58-9.75-16.73-21.23-23.34-26.03,0,0-.64-1.4-1.98-2.67Z" fill="#004069"/><path d="m56.52,321.09l.23-24.12c-1.26.88-2.43,1.76-3.46,2.67l-1.51,22.46,4.74-1.02Z" fill="#e0ddc5"/><path d="m48.47,325.33l.19-20.21c-.44.76-.8,1.54-1.08,2.32l-1.24,18.56,2.13-.68Z" fill="#e0ddc5"/><path d="m67.9,321.77l.37-31.02c-1.46.63-2.86,1.28-4.19,1.94l-1.87,30.09,5.69-1.02Z" fill="#e0ddc5"/><path d="m82.35,315.84l.23-30.2c-1.39.41-2.74.83-4.06,1.27l-1.86,29.95,5.69-1.02Z" fill="#e0ddc5"/><path d="m101.54,310.41l-.45-29.32c-1.78.36-3.53.73-5.24,1.11l-.7,29.39,6.4-1.19Z" fill="#e0ddc5"/><path d="m123.11,302.05l-.93-24.41c-1.94.25-3.84.52-5.72.79l-.45,24.8,7.11-1.19Z" fill="#e0ddc5"/><path d="m147.81,309.87l-1.92-34.56c-2.49.17-4.94.36-7.37.57l1.71,35.68,7.58-1.7Z" fill="#e0ddc5"/><path d="m171.97,318.11l-2.38-43.83c-.73.01-1.44.02-2.17.04-1.57.04-3.12.09-4.68.14l2.36,45.35,6.87-1.7Z" fill="#e0ddc5"/><path d="m196.61,329.92l-3.35-55.43c-2.11-.08-4.24-.15-6.39-.19l3.1,55.46,6.64.17Z" fill="#e0ddc5"/><path d="m220.55,330.43l-4.2-54.32c-1.87-.2-3.77-.38-5.7-.54l3.97,54.69,5.92.17Z" fill="#e0ddc5"/><path d="m241.16,333.48l-5.11-54.63c-1.51-.27-3.03-.53-4.59-.77l4.72,55.4h4.97Z" fill="#e0ddc5"/><path d="m259.17,335.85l-4.95-52.94c-1.36-.38-2.74-.74-4.16-1.1l4.61,54.04h4.5Z" fill="#e0ddc5"/><path d="m274.57,338.73l-5.18-50.62c-1.2-.52-2.47-1.01-3.76-1.51l4.91,51.96,4.03.17Z" fill="#e0ddc5"/><path d="m285.94,341.28l-5.04-46.92c-.91-.65-1.89-1.29-2.92-1.91l4.88,48.49,3.08.34Z" fill="#e0ddc5"/><path d="m287.32,300.38c-.61-.81-1.31-1.61-2.09-2.39l4.5,44.99h.04c.94-.04,1.92.21,1.92.21l-4.37-42.8Z" fill="#e0ddc5"/><path d="m277.16,337.71l3.34-.87s-11.11-4.12-29.22-7.31c-18.11-3.19-42.11-4.12-42.11-4.12l5.82,2.29c8.23.48,23.69,1.6,36.29,3.83,12.27,2.16,21.32,4.75,25.88,6.19Z" fill="#e0ddc5"/><path d="m277.16,337.71c-4.56-1.44-13.61-4.03-25.88-6.19-12.61-2.22-28.06-3.35-36.29-3.83l40.13,15.79,22.04-5.77Z" fill="#004069"/><polygon points="24.54 269.04 46.04 260.91 255.27 344.07 290.63 334.63 340.57 358.27 368.75 353.53 382.28 361.18 371.76 367.01 369.88 356.81 341.7 362.27 342.53 370.5 295.47 350.65 292.82 351.24 293.36 348.66 291.92 347.03 290.43 336.68 255.43 345.97 256.09 356.83 96.97 297.93 83.15 303.69 45.75 291.25 45.75 264.35 24.79 271.54 24.54 269.04" fill="#004069"/><path d="m217.54,224.26l.16,2.51c.16.36.24.58.24.58l-.4-3.09Z" fill="none"/><path d="m265.84,247.74c-.96-20.21-44.24-36.28-97.42-36.28s-90.39,17.79-100.09,33.69c-2.74,4.49-1.79,11.42-1.83,10.12-.09-2.76.67-5.48,2.17-8.12-1.12,3.25-.93,6.94-.93,6.94l-.25,14.33h1.26l.21-21.78c.75-1.25,1.67-2.47,2.75-3.68l.21,25.87,3.16.2-.42-29c1.67-1.48,3.58-2.93,5.69-4.33l.03,3.31c-1.22,1.3-3.32,3.49-3.32,8.21l.07,16.66,1.29-.97s.21-15.23.21-16.45c0-2.43.96-3.45,1.78-3.74l.15,18.97,3.16.2-.4-28.03c2.68-1.59,5.64-3.11,8.83-4.55v3.34c-1.09.22-2.35.7-3.37,1.68-2.32,2.25-2.53,6.33-2.74,10-.21,3.68,0,17.15,0,17.15l1.26-1.23s-.49-13.37.07-17.69c.57-4.44,3.73-5.83,4.66-5.62l.12,21.68,3.89-.85-.29-30.03c3.3-1.36,6.82-2.65,10.52-3.84v2.67s-3.58-.2-6.53,2.86c-.7.73-1.61,4.33-1.47,7.1v22.5s2.31-1.63,2.31-1.63c0,0-.63-16.95-.42-20.42.21-3.47,1.87-4.76,3.37-5.31,1.9-.7,2.53,1.63,2.53,1.63l.02,22.59,6.09-2.38-.36-31.29c3.64-1.05,7.17-1.95,11.06-2.82l-.17,3.08s-2.32-1.02-5.69.61c-4.85,2.35-3.69,7.12-3.99,8.57l.41,22.05,1.69-.41-.3-21.42s-.28-3.43,3.29-4.46c3.37-.97,4.17,1.99,4.17,1.99l.42,22.46,5.9-1.02.21-32.67h-.2c4.2-.8,8.51-1.51,12.89-2.1l-.1,3.7s-3.73-1.46-7.53.24c-3.6,1.6-3.23,4.86-3.16,7.15.06,2.08-.21,23.07-.21,23.07l1.69-.41s0-20.42-.21-21.44c-.21-1.02.84-4.08,4-4.49,3.11-.4,4,2.04,4,2.04l.42,22.46,7.37-1.02-.61-31.99c4.68-.51,9.42-.89,14.19-1.13l.33,4.94s-4.43-4.08-10.33-1.43c-3.59,1.62-2.95,5.31-2.95,7.15,0,2.08.42,23.07.42,23.07l1.69-.41s0-20.42-.21-21.44c-.21-1.02.84-4.08,4-4.49,3.11-.4,4.78,2.44,4.78,2.44l.29,21.87,8.2-.82-.59-31.06c1.85-.04,3.7-.06,5.52-.06,50.88,0,92.37,16.49,93.05,36.39.04,1.28.37-.98.29-2.67Zm-85.01-29.09v1.89s-3.4-5.25-9.57-3.03c-3.71,1.34-3.68,4.56-3.68,6.4,0,2.08.42,23.07.42,23.07l2.32-1.02-.21-21.23c-.06-1.18.22-3.63,3.37-4.08,3.45-.5,4.74,2.42,4.74,2.42l.74,21.88,8.64.41-1.3-26.33-5.47-.38Zm29.1,2.27c-2.49.08-3.93,1.09-4.68,2.52l-.21-2.9-4.88-.57v3.22s-1.56-4.35-7.23-4.16c-4.3.14-5.47,3.03-5.35,6.11.08,2.08.85,22.05.85,22.05l1.9-.82s-1.03-19.08-1.05-20.12c-.03-1.25.19-4.52,3.79-4.59,3.63-.06,4,3.55,4,3.55l1.33,20.69,6.95,1.38c.04,1.12.07,1.8.07,1.8l1.9-.82s-.86-19.4-1.05-20.42c-.19-1.02.21-3.88,3.79-4.29,3.37-.38,4,4.08,4,4.08l1.33,20.15,2.08.41-1.53-24.27c-1.3-1.58-3.26-3.1-6.01-3.01Zm15.63,3.6c-1.27.04-2.26.33-3.03.78l-.1-1.16-4.98-1.31,1.62,25.7,1.83.26c.09,2.32.15,3.9.15,3.9l1.9-.82s.01-1.1.04-2.78l1.59.23-1.69-19.76c.18-1.1.86-2.17,2.8-2.39,3.37-.38,4.17,5.5,4.17,5.5l1.17,18.74,2.08.41-1.53-22.93c-.94-2.08-3.26-4.45-6.01-4.35Zm12.3,5.11c-.46.29-.84.54-1.18.78l-.19-2.1-3.42-1.5,1.62,25.7,4.14,1.54-1.86-20.46c.3-.85,1.21-1.68,2.06-1.69,3.4-.03,3.32,5.3,3.32,5.3l1.17,18.74,2.08.41-1.53-21.42c.04-3.03-3.9-6.75-6.21-5.3Zm10.77,4.87l-.03-.33-3.03-2.07,1.62,24.94,3.75,2.11-2.1-22.37c.05.01.1.02.15.04,2.73.95,3.12,3.79,3.12,3.79l1.76,15.71,1.14.44-1.53-16.34c.04-2.77-2.63-6.42-4.85-5.92Zm9,6.12l-.04-.39-2.34-2.08,2.15,19.49,2.29.94-1.83-15.95c.3.48.52.82.52.82l1.93,15.38.58.28-1.53-14.14c.02-1.45-.71-3.13-1.71-4.34Zm3.47,2.07l1.76,17.22,1.7.8-1.7-15.56-1.76-2.46Z" fill="#e0ddc5"/><path d="m294.16,390.11c.01-1.25.47-1.74,1.28-1.75.8,0,2.74-.02,2.95,2.7l3.62,29.35h10l-2.75-26.18c-.05-.71,0-1.86.8-1.86.8,0,2.44.06,2.65,2.78l3.11,25.26h9.82l-2.37-21.47c-.12-.35-.38-1.66.43-1.66.8,0,2.41.24,2.58,2.53l2.63,20.59h8.41l-2.09-16.67c-.16-.73-.16-1.68.14-1.68.8,0,2.23-.28,2.54,2.12l2.32,16.23h8.68l-1.69-12.41c-.07-.65-.42-1.67.39-1.7.8-.02,2.33-.19,2.56,2.1l1.84,12h23.87l-2.57-17.2c-.06-1.55.89-1.63,1.71-1.64.82,0,2.47.5,2.79,3.17l2.63,15.68h6.12l-2.15-13.4c-.09-1.42.71-1.49,1.4-1.49.69,0,2.07.28,2.4,2.73l2.15,12.16h6.36l-1.58-9.95c-.06-1.29.38-1.29,1.04-1.29.65,0,1.98.37,2.26,2.6l1.52,8.64h6.27l-.95-5.86c-.09-.82-.02-1.67.55-1.67.56,0,1.7.2,2.24,2.16l.95,5.37h5.06l-.51-2.99c-.07-1.17.29-1.22.83-1.22.53,0,1.37.57,1.7,1.96l.41,2.25h9.27v-45.84l-18.67-24.49-31.84,18.01-28.01,5.31-51.99-21.8-37.25,7.58-160.64-59.17-13.3,5.31-74.55-24.85v139.93h287.83l-3.18-30.31Z" fill="#004069"/><path d="m298.39,391.06c-.21-2.72-2.15-2.7-2.95-2.7-.8,0-1.27.49-1.28,1.75l3.18,30.31h4.67l-3.62-29.35Z" fill="#e0ddc5"/><path d="m312.71,395.16c-.21-2.72-1.85-2.79-2.65-2.78-.8,0-.84,1.15-.8,1.86l2.75,26.18h3.81l-3.11-25.26Z" fill="#e0ddc5"/><path d="m326.28,399.82c-.17-2.29-1.78-2.54-2.58-2.53-.8,0-.54,1.31-.43,1.66l2.37,21.47h3.27l-2.63-20.59Z" fill="#e0ddc5"/><path d="m337.9,404.19c-.3-2.4-1.73-2.12-2.54-2.12-.3,0-.3.95-.14,1.68l2.09,16.67h2.91l-2.32-16.23Z" fill="#e0ddc5"/></g></g><g id="Layer_4"><polygon points="9.52 109.9 165.02 11.04 330.08 109.9 333.41 305.76 169.83 406.35 6.87 308.46 9.52 109.9" fill="none" stroke="#640d0e" stroke-linejoin="bevel" stroke-width="10"/></g></svg>