<?xml version="1.0" encoding="UTF-8"?><svg id="c" xmlns="http://www.w3.org/2000/svg" width="252.22" height="273.29" xmlns:xlink="http://www.w3.org/1999/xlink" viewBox="0 0 252.22 273.29"><defs><clipPath id="d"><path d="m30.13,61.77L115.06,7.77c6.49,3.89,14.62,3.78,21.01-.28l90.78,54.37c.12,6.91,3.79,13.27,9.72,16.82l1.85,109.08c-6.02,3.7-9.64,10.31-9.52,17.38l-89.84,55.24c-6.4-3.85-14.41-3.8-20.78.11l-89.22-53.59c.09-7.12-3.6-13.75-9.7-17.41l1.48-111.1c5.69-3.62,9.18-9.87,9.27-16.61Z" fill="none" stroke="#6d0104" stroke-linejoin="bevel" stroke-width="8"/></clipPath><linearGradient id="e" x1="-38.93" y1="532.41" x2="-36.76" y2="532.41" gradientTransform="translate(-211678.77 267080.13) rotate(24.71) scale(358.21 -621.94) skewX(26.37)" gradientUnits="userSpaceOnUse"><stop offset="0" stop-color="#898b8d"/><stop offset=".1" stop-color="#898b8d"/><stop offset=".11" stop-color="#999b9d"/><stop offset=".14" stop-color="#c1c2c4"/><stop offset=".17" stop-color="#d9dbdc"/><stop offset=".19" stop-color="#e3e4e5"/><stop offset=".19" stop-color="#dfe0e1"/><stop offset=".26" stop-color="#b0b1b4"/><stop offset=".3" stop-color="#9ea0a3"/><stop offset=".32" stop-color="#a2a4a6"/><stop offset=".34" stop-color="#aeb0b2"/><stop offset=".35" stop-color="#c3c4c6"/><stop offset=".37" stop-color="#e0e1e2"/><stop offset=".38" stop-color="#e3e4e5"/><stop offset=".4" stop-color="#fff"/><stop offset=".43" stop-color="#eff0f0"/><stop offset=".46" stop-color="#cacbcd"/><stop offset=".49" stop-color="#b1b3b6"/><stop offset=".5" stop-color="#a9abae"/><stop offset=".52" stop-color="#b1b2b5"/><stop offset=".54" stop-color="#bbbcbf"/><stop offset=".6" stop-color="#fff"/><stop offset=".61" stop-color="#fff"/><stop offset=".67" stop-color="#d6d7d9"/><stop offset=".7" stop-color="#c0c2c4"/><stop offset=".73" stop-color="#c6c8ca"/><stop offset=".8" stop-color="#fff"/><stop offset=".82" stop-color="#f5f6f6"/><stop offset=".86" stop-color="#dddedf"/><stop offset=".9" stop-color="#c0c2c4"/><stop offset="1" stop-color="#c0c2c4"/></linearGradient><linearGradient id="f" x1="-37.2" y1="531.41" x2="-35.02" y2="531.41" gradientTransform="translate(245679.67 186566.3) rotate(-50.87) scale(281.4 -579.66)" gradientUnits="userSpaceOnUse"><stop offset="0" stop-color="#7c0101"/><stop offset=".1" stop-color="#7c0101"/><stop offset=".1" stop-color="#810203"/><stop offset=".14" stop-color="#a90f13"/><stop offset=".17" stop-color="#c1181d"/><stop offset=".19" stop-color="#cb1b21"/><stop offset=".26" stop-color="#a00e12"/><stop offset=".3" stop-color="#8e090c"/><stop offset=".32" stop-color="#920a0d"/><stop offset=".34" stop-color="#9e0d11"/><stop offset=".36" stop-color="#b31418"/><stop offset=".38" stop-color="#cb1b21"/><stop offset=".4" stop-color="#e21f26"/><stop offset=".43" stop-color="#d51d24"/><stop offset=".46" stop-color="#b9151b"/><stop offset=".48" stop-color="#a00f13"/><stop offset=".5" stop-color="#980d11"/><stop offset=".53" stop-color="#a01014"/><stop offset=".54" stop-color="#a71317"/><stop offset=".6" stop-color="#e21f26"/><stop offset=".61" stop-color="#e21f26"/><stop offset=".66" stop-color="#c3181e"/><stop offset=".7" stop-color="#ad1419"/><stop offset=".73" stop-color="#b2151b"/><stop offset=".8" stop-color="#e21f26"/><stop offset=".83" stop-color="#d81d23"/><stop offset=".87" stop-color="#c0181d"/><stop offset=".9" stop-color="#ad1419"/><stop offset="1" stop-color="#ad1419"/></linearGradient><linearGradient id="g" x1="-37.19" y1="531.48" x2="-35.02" y2="531.48" xlink:href="#f"/><linearGradient id="h" x1="-37.19" y1="531.35" x2="-35.02" y2="531.35" xlink:href="#f"/><linearGradient id="i" x1="-37.34" y1="531.26" x2="-34.94" y2="531.26" xlink:href="#f"/><linearGradient id="j" x1="-38.62" y1="531.47" x2="-36.46" y2="531.47" gradientTransform="translate(245843.26 186176.28) rotate(-50.87) scale(281.4 -579.66)" gradientUnits="userSpaceOnUse"><stop offset="0" stop-color="#00174b"/><stop offset=".1" stop-color="#00174b"/><stop offset=".11" stop-color="#001f55"/><stop offset=".16" stop-color="#002f6b"/><stop offset=".19" stop-color="#003674"/><stop offset=".22" stop-color="#002e69"/><stop offset=".3" stop-color="#002056"/><stop offset=".33" stop-color="#00235a"/><stop offset=".36" stop-color="#002c66"/><stop offset=".38" stop-color="#003674"/><stop offset=".4" stop-color="#003c7e"/><stop offset=".43" stop-color="#003979"/><stop offset=".47" stop-color="#002a63"/><stop offset=".5" stop-color="#00245b"/><stop offset=".54" stop-color="#002962"/><stop offset=".6" stop-color="#003c7e"/><stop offset=".61" stop-color="#003c7e"/><stop offset=".62" stop-color="#003b7d"/><stop offset=".7" stop-color="#002b65"/><stop offset=".73" stop-color="#002d67"/><stop offset=".8" stop-color="#003c7e"/><stop offset=".85" stop-color="#003575"/><stop offset=".9" stop-color="#002b65"/><stop offset="1" stop-color="#002b65"/></linearGradient><linearGradient id="k" x1="-40.04" y1="532.47" x2="-37.66" y2="532.47" gradientTransform="translate(246464.46 186187.83) rotate(-50.87) scale(281.4 -579.66)" xlink:href="#e"/><linearGradient id="l" x1="-39.98" y1="532.44" x2="-37.84" y2="532.44" gradientTransform="translate(246464.46 186187.83) rotate(-50.87) scale(281.4 -579.66)" xlink:href="#e"/><linearGradient id="m" x1="-39.99" y1="532.41" x2="-37.8" y2="532.41" gradientTransform="translate(246464.46 186187.83) rotate(-50.87) scale(281.4 -579.66)" xlink:href="#e"/><linearGradient id="n" x1="-39.99" y1="532.39" x2="-37.81" y2="532.39" gradientTransform="translate(246464.46 186187.83) rotate(-50.87) scale(281.4 -579.66)" xlink:href="#e"/><linearGradient id="o" x1="-39.98" y1="532.39" x2="-37.85" y2="532.39" gradientTransform="translate(246464.46 186187.83) rotate(-50.87) scale(281.4 -579.66)" xlink:href="#e"/><linearGradient id="p" x1="-39.98" y1="532.48" x2="-37.84" y2="532.48" gradientTransform="translate(246464.46 186187.83) rotate(-50.87) scale(281.4 -579.66)" xlink:href="#e"/><linearGradient id="q" x1="-39.98" y1="532.33" x2="-37.83" y2="532.33" gradientTransform="translate(246464.46 186187.83) rotate(-50.87) scale(281.4 -579.66)" xlink:href="#e"/><linearGradient id="r" x1="-39.98" y1="532.49" x2="-37.83" y2="532.49" gradientTransform="translate(246464.46 186187.83) rotate(-50.87) scale(281.4 -579.66)" xlink:href="#e"/><linearGradient id="s" x1="-39.99" y1="532.26" x2="-37.82" y2="532.26" gradientTransform="translate(246464.46 186187.83) rotate(-50.87) scale(281.4 -579.66)" xlink:href="#e"/><linearGradient id="t" x1="-39.98" y1="532.22" x2="-37.84" y2="532.22" gradientTransform="translate(246464.46 186187.83) rotate(-50.87) scale(281.4 -579.66)" xlink:href="#e"/><linearGradient id="u" x1="-39.98" y1="532.18" x2="-37.83" y2="532.18" gradientTransform="translate(246464.46 186187.83) rotate(-50.87) scale(281.4 -579.66)" xlink:href="#e"/><linearGradient id="v" x1="-39.99" y1="532.2" x2="-37.82" y2="532.2" gradientTransform="translate(246464.46 186187.83) rotate(-50.87) scale(281.4 -579.66)" xlink:href="#e"/><linearGradient id="w" x1="-40" y1="532.14" x2="-37.8" y2="532.14" gradientTransform="translate(246464.46 186187.83) rotate(-50.87) scale(281.4 -579.66)" xlink:href="#e"/><linearGradient id="x" x1="-39.98" y1="532.33" x2="-37.83" y2="532.33" gradientTransform="translate(246464.46 186187.83) rotate(-50.87) scale(281.4 -579.66)" xlink:href="#e"/><linearGradient id="y" x1="-39.99" y1="532.29" x2="-37.82" y2="532.29" gradientTransform="translate(246464.46 186187.83) rotate(-50.87) scale(281.4 -579.66)" xlink:href="#e"/><linearGradient id="z" x1="-39.99" y1="532.34" x2="-37.83" y2="532.34" gradientTransform="translate(246464.46 186187.83) rotate(-50.87) scale(281.4 -579.66)" xlink:href="#e"/><linearGradient id="aa" x1="-39.99" y1="532.28" x2="-37.82" y2="532.28" gradientTransform="translate(246464.46 186187.83) rotate(-50.87) scale(281.4 -579.66)" xlink:href="#e"/><linearGradient id="ab" x1="-39.98" y1="532.37" x2="-37.84" y2="532.37" gradientTransform="translate(246464.46 186187.83) rotate(-50.87) scale(281.4 -579.66)" xlink:href="#e"/><linearGradient id="ac" x1="-39.99" y1="532.23" x2="-37.82" y2="532.23" gradientTransform="translate(246464.46 186187.83) rotate(-50.87) scale(281.4 -579.66)" xlink:href="#e"/><linearGradient id="ad" x1="-39.98" y1="532.32" x2="-37.83" y2="532.32" gradientTransform="translate(246464.46 186187.83) rotate(-50.87) scale(281.4 -579.66)" xlink:href="#e"/><linearGradient id="ae" x1="-39.98" y1="532.35" x2="-37.84" y2="532.35" gradientTransform="translate(246464.46 186187.83) rotate(-50.87) scale(281.4 -579.66)" xlink:href="#e"/><linearGradient id="af" x1="-39.99" y1="532.39" x2="-37.82" y2="532.39" gradientTransform="translate(246464.46 186187.83) rotate(-50.87) scale(281.4 -579.66)" xlink:href="#e"/><linearGradient id="ag" x1="-39.99" y1="532.24" x2="-37.82" y2="532.24" gradientTransform="translate(246464.46 186187.83) rotate(-50.87) scale(281.4 -579.66)" xlink:href="#e"/><linearGradient id="ah" x1="-39.99" y1="532.28" x2="-37.82" y2="532.28" gradientTransform="translate(246464.46 186187.83) rotate(-50.87) scale(281.4 -579.66)" xlink:href="#e"/><linearGradient id="ai" x1="-39.99" y1="532.3" x2="-37.82" y2="532.3" gradientTransform="translate(246464.46 186187.83) rotate(-50.87) scale(281.4 -579.66)" xlink:href="#e"/><linearGradient id="aj" x1="-39.98" y1="532.44" x2="-37.83" y2="532.44" gradientTransform="translate(246464.46 186187.83) rotate(-50.87) scale(281.4 -579.66)" xlink:href="#e"/><linearGradient id="ak" x1="-39.99" y1="532.44" x2="-37.81" y2="532.44" gradientTransform="translate(246464.46 186187.83) rotate(-50.87) scale(281.4 -579.66)" xlink:href="#e"/><linearGradient id="al" x1="-39.98" y1="532.34" x2="-37.83" y2="532.34" gradientTransform="translate(246464.46 186187.83) rotate(-50.87) scale(281.4 -579.66)" xlink:href="#e"/></defs><g clip-path="url(#d)"><rect x="145.46" y="-149.84" width="255.52" height="514.47" transform="translate(133.43 365.55) rotate(-83.02)" fill="url(#e)"/><path d="m495.42,105.57c-11.32-1.39-22.33-4.41-33.34-7.44-11.01-3.03-22.02-6.06-33.34-7.44-5-.61-10.05-.9-15.19-.73-31.15,1.03-58.62,17.3-89,21.54-8.29,1.16-16.5.93-24.64-.04-32.33-3.87-59.88-17.24-87.73-14.48-8.73.87-17.41,3-25.78,5.58-17.1,5.28-33.91,12.32-51.62,15.34-18.84,3.21-37.05-.36-55.38-4.71-10.85-2.57-21.74-5.62-32.72-7.56-10.49-1.86-21.68-1.72-32.27-.9l-3.21,26.2c12.35-2.92,24.33-6.43,37.05-7,15.68-.7,30.23,3.23,45.16,7.44,15.7,4.43,32.01,8.1,48.39,8.4,28.72.53,54.34-13.36,82.01-19.37,7.88-1.71,15.91-2.72,23.98-2.83,4.19-.06,8.32.2,12.41.7,11.17,1.37,21.18,3.69,32.01,6.83,10.83,3.13,21.66,6.27,32.83,7.63,2.75.34,5.52.57,8.31.66,37.1,1.28,70.6-22.09,107.36-22.11,4.79,0,9.56.34,14.33.92,17.76,2.17,35.35,7.7,52.69,11.28,2.85.59,5.7,1.05,8.53,1.4,4.66.57,9.29.83,13.91.84l3.13-25.57c-26.71,6.39-28.87,6.21-36.04,5.62-.6-.06-1.2-.13-1.81-.21Z" fill="url(#f)"/><path d="m228.01-12.97c.56,1.88,1.3,4.38,1.86,6.26.55,1.9,1.3,4.41,1.87,6.31,29.35-9.01,43.64-11.73,59.78-9.75,10.37,1.27,21.51,4.48,37.91,9.2,11.51,3.27,20.73,5.35,29.01,6.36,19.44,2.38,33.63-1.13,59.92-8.96l-78.92-9.66c-2.41.02-4.65-.12-6.91-.4-2.65-.32-5.34-.83-8.4-1.48l-94.35-11.55c-1.7.42-3.51.87-5.46,1.37.56,1.83,1.29,4.27,1.84,6.11.55,1.86,1.29,4.33,1.85,6.19Z" fill="url(#g)"/><path d="m538.76,11.18l-49.43-6.05c-11.71,1.99-27.55,6.48-54.49,14.1-13.72,3.88-27.25,7.17-41.61,6.44-2.3-.12-4.58-.32-6.84-.6-13.67-1.67-26.68-6-40-9.67-8.41-2.32-16.91-4.57-25.52-5.62-5.7-.7-11.46-.87-17.27-.18-11.46,1.36-22.72,4.36-33.86,7.33-2.91.78-30.85,8.4-30.91,8.39.54,1.9,1.27,4.43,1.83,6.32.55,1.87,1.3,4.36,1.87,6.21.57,1.83,1.33,4.26,1.92,6.08.58,1.78,1.37,4.15,1.97,5.92,33.61-5.9,64.79-24.31,100.39-19.96.55.07,1.09.14,1.65.22,20.28,3.15,39.32,11.44,59.65,14.35,1.05.15,2.09.29,3.13.42,9.55,1.17,18.69,1.26,32-1.21,22.92-4.71,44.63-13.97,67.68-18.22,11.61-2.15,20.13-1.86,27.13-1,1.54.19,3,.41,4.41.63l1.52-12.44c-1.68-.47-3.41-.95-5.21-1.46Z" fill="url(#h)"/><path d="m496.4,135.27c-29.17-3.57-53.82,2.45-77.61,8.58-23.8,6.13-46.74,12.36-72.49,9.21-1.26-.15-2.53-.33-3.81-.53-19.27-3.38-37.5-11.78-56.98-14.16-4.53-.55-9.12-.78-13.81-.55-29.07,1.44-83.07,23.41-112.88,27.48l107.03.96c.15-.04.31-.08.46-.11,21.34-5.33,30.12-7.52,43.93-5.83,9.66,1.18,21.77,4.26,42.35,9.49,4.19,1.02,8.36,1.76,12.51,2.27,25.98,3.18,51.25-2.91,76.51-9,25.27-6.09,50.53-12.18,76.51-9,2.78.34,5.58.79,8.38,1.35l1.65-13.48c-3.12-.57-6.25-1.29-9.38-2.17-7.77-2.17-15.2-3.63-22.37-4.51Z" fill="url(#i)"/><path d="m248.45,55.6c-2.14-5.82-4.09-11.71-5.92-17.64-6.67-21.65-12.39-43.69-18.88-65.34L33.41-50.67,17.12,82.45c6.61,1.73,13.58,4.44,22.4,8.14,39.29,16.48,79.92,2.58,118.44-8.68,16.47-4.81,32.35-8.19,49.43-5.3,18.42,3.12,37.16,11.07,55.67,13.85-.01-.03-9.49-20.97-14.6-34.86Z" fill="url(#j)"/><path d="m24.04,25.9l-.21,1.75c.86.29,1.7.57,2.45.82l-2.24-2.57Z" fill="url(#k)"/><path d="m30.61,60.64l-4.73-5.66c2.57-1.17,6.1-2.77,9.83-4.98-7.2,1.2-9.53,1.48-12,1.77-.69-1.2-1.54-2.66-2.34-4.05l-1.24,10.16c1.02-.49,1.56-.79,1.57-.8,2.67,1.08,6.23,2.52,8.92,3.56Z" fill="url(#l)"/><path d="m40.46,79.06c-3.2-.48-4.81-.73-8.72-1.72-1.42-1.57-3.33-3.65-4.74-5.23.03,1.21.05,2.36.28,3.85-2.47-.81-3.97-1.3-7.58-2.73,2.39,1.41,5.58,3.28,7.98,4.68.08.59.26,1.97.51,3.07,2.61-.21,3.81-.47,3.82-.47,2.35,1.42,5.49,3.32,7.85,4.72l-5.42-5.12c1.5-.16,3.19-.34,6.02-1.05Z" fill="url(#m)"/><path d="m67.55,60.83c-5.13,1.14-6.43,1.39-9.92,2.06-1.22-1.95-2.85-4.54-4.1-6.48-.49,2.33-.88,4.18-1.98,7.4-7.44,1.2-9.03,1.36-11.91,1.66,3.07.75,7.18,1.72,10.27,2.41-1.15,2.31-2.34,4.69-3.09,6.59,1.73-.96,5.33-2.97,8.56-5.14,2.81.86,6.54,2,9.34,2.87l-4.78-5.93c3.76-2.4,5.13-3.41,7.62-5.43Z" fill="url(#n)"/><path d="m78.51,43.57q1.9-2.19,4.4-4.96c-3.16.74-6.53,1.51-7.26,1.67-1.55-1.89-3.6-4.41-5.15-6.3.69,5.39.99,7.27.99,7.28-4.55,1.36-5.73,1.69-7.68,2.24,2.7.65,5.4,1.29,8.1,1.94.14,4.52.15,4.99.17,7.5,1.26-1.76,1.79-2.49,4.15-6.15,2.33.82,5.43,1.91,7.76,2.72l-5.49-5.94Z" fill="url(#o)"/><path d="m25.04,17.7l-.2,1.65c.7-.67,1.34-1.33,2.15-2.17-.77.21-1.4.38-1.95.52Z" fill="url(#p)"/><path d="m97.18,71.57c-4.59,1.25-5.71,1.51-8.4,2.16-1.42-1.97-3.29-4.58-4.72-6.54-.01,2.32-.02,4.33-.28,7.52-4.94,1.08-6.25,1.33-10.02,2.04,5.2,1.12,6.95,1.5,9.53,2.09-.86,3.38-1.21,4.55-2.32,7.42,2.76-2.04,4.38-3.29,7.19-5.99,2.55.85,5.95,2,8.49,2.86l-5.26-5.99c2.88-2.56,3.87-3.56,5.78-5.57Z" fill="url(#q)"/><path d="m30.54,9.25c1.78-2.85,1.93-3.08,3.59-5.63,2.25.87,5.24,2.02,7.49,2.89l-5.4-5.71c2.4-2.44,2.83-2.83,5.21-5.01-2.65.58-5.29,1.18-7.95,1.75-1.45-1.87-3.39-4.35-4.84-6.22.24,2.98.3,3.6.74,7-.68.16-1.36.32-2.03.48l-.31,2.51c1.03.3,2.03.59,2.92.84.18,2.47.25,3.49.57,7.1Z" fill="url(#r)"/><path d="m179.09,40.94c3.22-.16,3.73-.21,5.64-.35-3.85-1.03-5.03-1.35-8.36-2.32-1.45-1.49-3.39-3.49-4.85-4.98,0,3.09.05,3.54.05,3.58-2.91-.78-5.83-1.57-8.75-2.35,2.89,1.44,5.79,2.85,8.67,4.33-.15.87-.39,2.33-.54,3.48,4.1-.83,5.18-1,5.18-1,2.48,1.37,5.79,3.2,8.28,4.57l-5.31-4.96Z" fill="url(#s)"/><path d="m196.45,61.34c-4.11-1.02-4.74-1.18-8.74-2.07-1.44-1.56-3.35-3.64-4.8-5.19,0,1.38,0,2.76.03,4.14-3.48-.6-4.62-.77-6.92-1.05-.48-.06-1.01-.12-1.63-.2,4.38,1.86,6.78,2.88,8.62,3.71-.2,2.76-.26,3.76-.3,4.75,1.6-.94,2.69-1.56,4.92-2.49,2.47,1.28,5.77,3,8.24,4.29l-5.44-5.17c2.77-.42,3.86-.53,6.03-.73Z" fill="url(#t)"/><path d="m227.56,49.14c1.21-.61,3.71-1.87,6.24-3.63q-3.52.35-8.84.58c-1.41-1.75-3.27-4.09-4.71-5.82q.03,1.61-.33,5.75c-2.82-.07-4.86-.12-8.94-.5,2.63,1.05,6.14,2.42,8.78,3.44-.54,3.69-.64,4.8-.64,4.8,1.83-.85,2.75-1.28,5.33-2.82,2.51,1.1,5.86,2.57,8.38,3.65l-5.28-5.45Z" fill="url(#u)"/><path d="m214.49,56.98c-3.32-.7-4.81-1.02-8.57-1.95-1.45-1.53-3.38-3.57-4.83-5.11.06,1.7.06,1.88.19,3.83-2.39-.65-4.11-1.12-8.28-2.32,2.53,1.31,5.92,3.06,8.45,4.36-.11,1.24-.18,1.99-.27,3.45,1.2-.24,2.4-.47,3.59-.72.36-.08.82-.31,1.19-.26h.02c2.44,1.36,5.69,3.18,8.13,4.54l-5.47-5.04c2.83-.3,3.59-.41,5.84-.78Z" fill="url(#v)"/><path d="m238.63,74.12c2.91-.62,3.64-.81,6.09-1.53l-.67-.08c-3.15-.39-4.55-.58-8.14-1.21-1.45-1.6-3.38-3.73-4.82-5.34,0,1.86,0,2.15.05,4.31-2.42-.52-4.51-.97-8.48-1.97,2.57,1.27,6.01,2.96,8.58,4.22-.18,2.81-.17,3.72-.17,3.72,1.79-.44,2.72-.68,4.78-1.33,2.47,1.31,5.76,3.06,8.23,4.37l-5.46-5.17Z" fill="url(#w)"/><path d="m133.48,39.17l-4.62-5.9c5.22-2.65,7.66-3.68,7.66-3.68,0,0-6.25-.34-9.73.33-1.03-1.92-2.14-4.69-3.58-6.33-1,2.44-2.09,4.85-3.07,7.31-3.64.66-7.27,1.34-10.92,2,2.89.62,6.75,1.45,9.64,2.06-1.09,3.31-1.34,4.19-2.03,7.28,3.27-2.87,4.09-3.53,7.24-5.88,2.82.84,6.58,1.97,9.41,2.81Z" fill="url(#x)"/><path d="m142.35,60.87c-3.15.63-6.29,1.3-9.45,1.93-1.39-1.94-3.26-4.51-4.65-6.45-.15,3.13-.18,3.7-.1,7.29-2.64.59-5.28,1.2-7.93,1.76,2.46.67,5.73,1.57,8.19,2.24.11,3.25.16,4.12.41,7.14,1.81-2.67,2.24-3.3,4.05-5.65,2.43.89,5.67,2.08,8.1,2.96l-5.41-5.93c3.09-2.59,3.73-3.06,6.78-5.29Z" fill="url(#y)"/><path d="m111.64,49.8c-2.69.6-5.37,1.22-8.06,1.79-1.5-1.91-3.5-4.46-4.99-6.37.29,3.03.35,3.67.81,7.15-2.39.55-4.78,1.12-7.18,1.63,2.34.69,5.46,1.6,7.8,2.28.15,1.8.41,4.83.69,7.23q2.08-3.39,3.56-5.71c2.3.9,5.37,2.09,7.67,2.99l-5.57-5.87c2.42-2.48,2.86-2.88,5.27-5.11Z" fill="url(#z)"/><path d="m166.35,44.88c-3.86-.7-4.81-.86-8.63-1.34-1.43-1.63-3.34-3.8-4.79-5.43,0,1.63.03,3.25.06,4.89-4.98-.33-10.13.65-10.13.65,0,0,7.2,1.39,10.2,2.31-.43,1.45-1.28,3.28-2.01,4.6-.41.74-1.23,2.54-1.23,2.54,0,0,5.3-3.3,7.82-5.16,2.45,1.15,5.72,2.69,8.17,3.85l-5.41-5.34c2.93-.95,4.13-1.19,5.94-1.56Z" fill="url(#aa)"/><path d="m116.57,4.99c-1.39-1.51-3.24-3.53-4.63-5.05-.06,1.4-.07,1.69-.1,4.01-3.32-.57-4.46-.75-6.75-1.03-.51-.06-1.08-.13-1.74-.21,4.18,1.77,6.71,2.83,8.49,3.63-.33,2.94-.45,4.6-.46,4.61,1.65-.91,2.75-1.52,4.98-2.4,2.43,1.25,5.68,2.93,8.1,4.2l-5.27-5.03c2.82-.4,3.91-.48,6.08-.64-4.2-1.06-5.01-1.25-8.71-2.09Z" fill="url(#ab)"/><path d="m209.31,16.73c-2.75.57-4.91,1.02-8.91,1.57,2.61.71,6.11,1.63,8.73,2.3-.53,4.59-.7,6.53-.7,6.55,3-2.65,4.57-4.23,5.37-5.1,2.49.84,5.81,1.95,8.31,2.77l-5.22-5.77c2.26-1.9,4.51-3.86,6.68-5.83-2.29.66-5.13,1.48-9.27,2.51-1.36-1.92-3.17-4.47-4.52-6.39-.14,1.91-.29,4.07-.47,7.39Z" fill="url(#ac)"/><path d="m146.36,21.42c-1.39-1.49-3.25-3.47-4.64-4.95-.15,2.33-.17,3.6-.17,3.62-4.31-1.07-5.1-1.25-8.61-2.01,4.05,1.92,6.97,3.31,8.58,4.1-.27,1.82-.41,3.11-.48,3.86,3.83-1.26,5.06-1.46,5.06-1.46,2.45,1.34,5.72,3.12,8.17,4.45l-5.29-4.95c2.07-.11,4.15-.19,6.23-.28-2.95-.79-5.9-1.59-8.84-2.38Z" fill="url(#ad)"/><path d="m130.12,5.13c2.8-.46,4.91-.85,4.91-.86,2.39,1.34,5.58,3.11,7.98,4.44l-5.29-4.89c2.87-.25,3.57-.33,5.87-.66-3.31-.72-4.81-1.05-8.51-1.98-1.4-1.49-3.27-3.47-4.66-4.95,0,1.55,0,1.79.05,3.66-2.05-.57-3.99-1.1-8.23-2.34,2.5,1.29,5.83,3.01,8.33,4.3-.11.73-.36,2.45-.45,3.29Z" fill="url(#ae)"/><path d="m93.03,19.25c-1.2-1.91-2.82-4.45-4.01-6.37-.78,3.12-.95,3.77-1.51,7.27-3.03.6-6.06,1.25-9.09,1.85,2.6.64,6.08,1.49,8.68,2.12-.39,3.24-.47,4.11-.6,7.13,1.64-1.9,2.64-3.05,5.33-5.69,2.57.85,5.98,1.98,8.54,2.83l-4.98-5.83c3.9-2.54,4.87-3.1,8.83-5.34-3.73.66-7.46,1.35-11.19,2.03Z" fill="url(#af)"/><path d="m194.48,32.27c-1.38-1.64-3.23-3.83-4.61-5.47-.13,2-.16,2.42-.26,4.84-2.73-.37-4.7-.64-8.65-1.4,2.58,1.17,6.02,2.72,8.6,3.88-.15,1.16-.43,3.33-.47,4.04,2.53-.8,2.86-.93,5.08-1.83,2.47,1.21,5.75,2.83,8.22,4.03l-5.29-5.21c3.04-1.01,3.81-1.32,6.42-2.47-3.56-.05-5.16-.08-9.03-.41Z" fill="url(#ag)"/><path d="m179.21,5.46q-1.67.12-8.74.43c2.61.83,6.09,1.98,8.69,2.89-.1,1.87-.56,3.68-.84,5.52,4.8-2.93,5.4-3.8,5.4-3.8,2.45.97,5.72,2.25,8.17,3.2l-5.23-5.55c2.01-1.4,3.87-2.76,6.41-4.83-4.7,1.01-5.44,1.13-9,1.68-1.36-1.82-3.19-4.24-4.55-6.07-.23,4.19-.26,4.86-.31,6.51Z" fill="url(#ah)"/><path d="m164.54,17.16c-1.39-1.55-3.25-3.61-4.64-5.17-.07,1.86-.07,2.06-.09,4.13-2.9-.64-4.65-1.03-8.41-2,2.53,1.25,5.91,2.91,8.45,4.15-.28,2.65-.32,3.54-.32,3.54.87-.19,2.32-.5,3.77-.89.32-.09.75-.33,1.09-.29,2.42,1.29,5.65,3.01,8.08,4.29l-5.28-5.01c2.93-.55,3.66-.73,6.12-1.4-2.84-.36-4.71-.6-8.76-1.35Z" fill="url(#ai)"/><path d="m71.47,6.56c-3.1.61-6.2,1.26-9.3,1.87-1.35-1.88-3.16-4.39-4.5-6.29-.17,2.97-.21,3.68-.15,7.14-2.59.58-5.18,1.18-7.78,1.73,2.4.65,5.61,1.52,8.01,2.17.07,2.76.09,3.51.34,6.98,1.21-1.76,2.08-3.03,4.02-5.53,2.37.86,5.54,2.02,7.92,2.87l-5.25-5.78c2.97-2.46,3.65-2.96,6.7-5.17Z" fill="url(#aj)"/><path d="m47.7,36.3c2.36.82,5.5,1.91,7.85,2.74l-5.36-5.88c2.27-2.46,2.85-3.14,5.01-5.64-4.65,1.4-5.42,1.62-7.72,2.27-1.46-1.94-3.42-4.52-4.88-6.46.16,2.03.36,4.55.51,7.5-4.12,1.1-4.37,1.15-8.37,2.1,3.95.92,7.36,1.71,8.5,2-.18,2.96-.27,4.29-.73,7.36,1.62-1.67,2.78-2.88,5.18-5.98Z" fill="url(#ak)"/><path d="m149.28-7.33c-2.93-.09-5.06-.17-8.84-.55,2.58,1.03,6.03,2.39,8.63,3.4-.62,3.51-.77,4.61-.77,4.61,1.91-.83,2.62-1.14,5.39-2.65,2.47,1.08,5.75,2.52,8.23,3.59l-5.11-5.29c1.25-.6,3.84-1.83,6.27-3.49q-2.9.26-8.79.5c-1.34-1.71-3.12-3.99-4.51-5.66q-.06,1.61-.49,5.55Z" fill="url(#al)"/><path d="m119.55,59.25c-.43-2.43,1.44-3.52,1.41-4.28-.04-.77.11-2.04.08-2.49-.02-.18-.16-.08-.32.03-.22.15-.48.29-.49-.29-.04-.85.06-1.64.48-2.3.15-.23.3-1.07.67-1.59,1-1.4,3.93-1.07,3.93-1.07.33-.41-2.93-.33-2.93-.33,0,0,.44-.26.52-.63.08-.39-.09-.6-.09-.6l.4-.67s-.4-1.09-.65-1.22c-.25-.13-.04-1.85-.04-1.85,0,0-.59.08-.55-.07.18-.72.41-.86.41-.86,0,0-.46-.51-.7-.77-.25-.27-.15-.71-.15-.71l-.56-.85s-.07-1.93-.04-2.41c.04-.48.63-.78,1.45.18.18.21.55-.3.55-.3l-.26-.48-1.56-.52s.11-.44.15-1.03c.04-.6.44-1.04.7-1.26.06-.05.17-.08.3-.08-.27-.04-.97-.11-1.16.05-.26.22-.67.67-.7,1.26-.04.6.04,1.67.04,1.67l-.1,2,.13.54.19,1.2s.39.22.63.48c.25.27.22.41.22.41,0,0,.11.8-.26,1.45-.38.64.04,1.33.04,1.33,0,0,.53.68.78.81.25.13.27,1,.27,1l-.4.67s-.02.17-.1.55c-.08.37-.33.67-.33.67,0,0-.43.25-1,1-.39.51-.15,1.19-.67,2-.42.66-.51,1.44-.48,2.3.04,1,.71,1.3.74,1.74.04.44-.04,1.5-.04,1.5,0,0-3.01,1.99-3.67,4.96l3.15-1.13Z" fill="#e0ddc5"/><path d="m127.93,55.45s-.15-.71.04-1.45c.18-.74.55-.97.67-1.89.08-.7-.19-2.04-.55-2.52-.86-1.12-1.22-1.38-2.04-2.45,0,0,.04-.89.56-1,.55-.11.51-1.91,1.19-2.45.67-.53.66-1.95.55-2.15l-.04-.02-.05-.03c-.07-.01-.18,0-.29.01-.27.04-.61.06-.77-.26-.27-.53-.18-2.11-.18-2.11,0,0,.22-2-.32-2.8-.53-.8-1.33-2-1.33-2,0,0-.39-.47-.67-.53-.27-.07-.46-.04-.46-.04,0,0-.32-.36.04-.55.26-.15.37-.42.42-.62.13-.53.17-1.01.17-1.01l-.04-.6s-.26-.41-.78-.41c-.13-.07-.06-.26-.26-.29,0,0,1.08-.65,1.08-1.04,0-.18-.34-.04-.63.04l-.08-.22-.26.04c-.2-.07.04-.44.04-.44l-.34.15-.29.22-.29-.44s.06.63-.11.71c-.18.08-.52-.04-.52-.04l-.18.63-.98.44-.06.45-.67.85s-.34.93,0,.93c.22,0,.13-.06.35-.2.13-.08.25-.15.35-.2.3-.16.63-.71.63-.71l.62-.11v.46l-.04.31-.11.72v.02s-.11-.01-.11-.01c-.13.01-.24.04-.3.09-.26.22-.67.67-.7,1.26-.04.59-.15,1.04-.15,1.04l1.56.52.25.48s-.37.51-.55.3c-.81-.96-1.4-.67-1.45-.18-.04.48.04,2.41.04,2.41l.55.86s-.1.44.15.7c.25.27.7.78.7.78,0,0-.22.13-.41.85-.04.15.55.08.55.08,0,0-.2,1.72.04,1.85.25.13.65,1.22.65,1.22l-.41.67s.17.21.09.6c-.07.37-.52.63-.52.63,0,0,3.27-.08,2.93.33,0,0-2.93-.33-3.93,1.07-.37.53-.52,1.36-.67,1.59-.42.66-.51,1.45-.48,2.3.01.58.27.43.48.29.17-.11.31-.22.33-.03.04.44-.11,1.71-.07,2.48.04.77-1.85,1.89-1.45,4.15l12.44.7c0-.06-.33-2.07-3.94-4.4Zm-5.34-.63c-.07.37-.52.59-.6.15-.07-.44.11-2.59.11-2.59.07-.25.13-.2.22-.15.05.03.11.05.18.04.22-.04.15,2.18.08,2.56Z" fill="#004069"/><path d="m197.61,156.19c.07-7.92-5.66-13.05-9.07-15.63,0,0-2.06-2.73-3.63-4.07-3.87-3.32-5.13-3.99-5.13-3.99-4.64-17.96-16.83-33.1-34.75-39.65.31.11.5-.43.5-.43-.19-.75-.83-1.5-1.38-2.18-.06-.07-.29.01-.52.1-.2.07-.41.15-.51.11,0,0-.71-.69-1.07-.98l-1.56-1.15s-.61-.22-.74-.29c-.21-.11.24-.91.01-1.02-.45-.22-.92-.42-1.42-.61-.48-1.12-1.35-2.16-2.49-3.04l-.27-9.71c.38-.67.6-1.4.6-2.15,0-.18-.02-.36-.04-.54,1.12-1.22,1.76-2.63,1.76-4.14,0-4.61-5.96-8.36-13.31-8.36s-13.32,3.74-13.32,8.36c0,1.75.87,3.38,2.34,4.72,0,.63.16,1.24.44,1.81l-.29,10.87c-.95.98-1.61,2.07-1.86,3.25-.63.34-1.19.7-1.71,1.08-1.82,1.35-3.39,3.01-3.56,4.73-17.43,7.02-30.42,22.86-33.55,42.07-3.6,3.21-6.57,6.76-8.77,10.62-4.76,4.44-6.22,10.02-6.06,15.17.09,2.91.79,5.51,2.47,8.1l.19,5.2c11.13,10.25,39.09,16.23,67.33,15.36,38.76-1.19,69.19-16.24,69.35-33.62Z" fill="#004069"/><path d="m180.69,133.71c2.8,2.64,4.99,4.41.08.68-3.81-2.9-8.82-6.13-14.79-8.64-13.34-5.61-28.93-6.82-40.85-6.5-24.06.65-43.97,10.87-50.33,15.35-4.1,2.88-7.54,7.15-9.5,10.02,0,0,.52,0-1.17,1.69.78-1.3,4.53-8.96,11.71-13.91,12.66-8.75,27.44-14.7,48.52-15.35,22.17-.69,43.45,4.55,56.33,16.67Z" fill="#e0ddc5"/><path d="m110.53,93.48s-6.55,1.28-9.38,10.84-3.06,17.4-3.06,17.4l6.37-2.08s1.48-20.01,6.06-26.15Z" fill="#e0ddc5"/><path d="m101.93,97.3s-7.91,4.73-10.96,17.76c-1.99,8.49-1.68,10.07-1.68,10.07l5.51-2.56s2.05-18.24,7.12-25.27Z" fill="#e0ddc5"/><path d="m92.47,104.42s-4.78,4.1-7.02,12.19-2.83,12.19-2.83,12.19l3.71-2.44s2.34-14.93,6.15-21.95Z" fill="#e0ddc5"/><path d="m85.87,111.7s-4.78,5.17-7.02,13.27-2.21,7.67-2.21,7.67l3.64-2.6s1.79-11.32,5.59-18.34Z" fill="#e0ddc5"/><path d="m117.74,91.74s-4.39-.2-6.24,3.41-2.34,5.37-3.02,8c-.25.98-.83,4.81-1.06,7.64-.38,4.74-.35,8.95-.35,8.95l7.83-1.61s-3.02-15.86,2.84-26.4Z" fill="#e0ddc5"/><path d="m124.19,90.1s-2.61.24-3.86,1.54c-.62.65-2.5,2.83-1.91,9.56s.59.68.59.68c0,0,.68-2.34,1.95-1.37.6.46.49,1.95,1.46,2.15s2.15,3.41,2.15,3.41l-.37-15.98Z" fill="#e0ddc5"/><path d="m125.93,90.57s2.86-.85,4.03.13c.6.5,2.81,4.45,3.62,7.48.75,2.8,1.07,9.62,1.07,9.62,0,0-1.5-4.06-2.48-4.26s-1.46-.49-1.37-1.07-.49-2.54-.98-2.54c-.68,0-1.07,1.66-1.07,1.66,0,0-2.44-7.22-2.83-11.02Z" fill="#e0ddc5"/><path d="m131.2,90.96s4.93-1.02,7.73,3.12c2.15,3.18,4.81,11.88,4.81,11.88,0,0-2.88-2.42-3.17-2.71s-.39-.78-.49-1.27-1.37-1.56-1.37-1.56l-.49.88s-3.41-7.51-7.02-10.34Z" fill="#e0ddc5"/><path d="m137.63,91.45s9.18,1.93,11.82,9.05c2.25,6.08,1.56,4.71,1.56,4.71,0,0-2.57-6.37-7.51-7.61,0,0-1.56-3.84-5.87-6.14Z" fill="#e0ddc5"/><path d="m150.99,96.38s9.02,3.92,11.04,8.92c0,0-4.59-4.49-8.39-6.15l-2.65-2.77Z" fill="#e0ddc5"/><path d="m111.4,92.32s-5.46-.39-9.76,5.37c-5.1,6.84-6.24,20.29-6.24,20.29,0,0-1.46,1.17-1.56,2.24-.24,2.62-.1,2.63-.1,2.63,0,0,2.83,2.63,3.02-1.76s1.66-16.68,5.95-23.02c3.41-5.04,8.68-5.76,8.68-5.76Z" fill="#e0ddc5"/><path d="m89.06,109.98c-1.93,4.56-2.83,9.27-3.29,12.52-.37.38-.85.99-.91,1.63-.1,1.07-.1,2.83-.1,2.83l.46-.13-.79,1.4,2.21-1.04,1.04-1.69c.46-5.87,1.9-10.75,3.29-14.63,5.16-14.43,14.47-16.39,14.47-16.39,0,0-10.15.78-16.39,15.51Z" fill="#e0ddc5"/><path d="m80.87,124.77c-.28.01-.63.13-.79.63-.29.88-.59,5.17-.59,5.17l1.3-.52.88-.72s.76-10.26,5.6-19.24c1.77-3.28,4.18-6.94,7.15-9.08,0,0-10.86,6.4-13.55,23.76Z" fill="#e0ddc5"/><path d="m83.2,110.96c-3.54,4.51-7.47,11.38-9.25,19.62-.34.4-.74.99-.8,1.54-.1.98-.59,3.12-.59,3.12l.7-.58v.09s2.13-1.85,2.13-1.85c0,0,3.41-19.71,15.51-29.27,0,0-3.59,2.06-7.71,7.32Z" fill="#e0ddc5"/><path d="m117.25,91.64s-3.32-1.66-5.85.68-6.54,8-6.83,22.83c0,0-.78.29-.98,1.27s-.29,3.48-.29,3.48l2.21-.39s-.26-9.24,1.89-17.14c2.17-7.98,5.76-12.29,9.85-10.73Z" fill="#e0ddc5"/><path d="m119.1,90.96c.5-.27,1.22-.46,1.66-.29,0,0-1.37-1.27-2.73,0-.81.75-2.73,2.44-3.61,11.61-.34,3.59-.42,8.48-.39,10.54.03,2.57.99,6.66,1.15,5.53.19-1.37-.03-14.45.9-19.68.78-4.39,1.74-7.02,3.02-7.71Z" fill="#e0ddc5"/><path d="m137.63,91.45s5.1-.39,10.04,4.82c5.97,6.3,7.63,18.89,7.63,18.89,0,0,.92.69,1.07,1.76.38,2.61.58,4.05.58,4.05,0,0-2.67,2.47-3.11-1.9-.44-4.37-2-15.17-6.63-21.27-3.69-4.85-9.57-6.34-9.57-6.34Z" fill="#e0ddc5"/><path d="m165.15,121.2c-.29-.59-.78-.61-1.17-.98-.64-3.21-1.14-7.85-3.32-12.29-7.05-14.36-17.27-14.44-17.27-14.44,0,0,.49.15,1.29.5.72.62,4.17,3.99,4.17,3.99,0,0,3.35,1.11,6.08,4.23,2.12,2.42,6.74,10.61,7.28,21.07l1.69,1.3,1.75-.13s-.04-2.29-.52-3.25Z" fill="#e0ddc5"/><path d="m160.86,103.15c3.71,4.56,4.75,7.82,4.54,7.43-2.75-5.21-6.74-10.08-12.64-13.38,0,0,3.51.49,8.1,5.95Z" fill="#e0ddc5"/><path d="m166.71,107.35c1.95,2.54,2.15,3.51,2.15,3.51-4.29-6.93-9.76-9.34-9.76-9.34,1.66.66,3.54.54,7.61,5.83Z" fill="#e0ddc5"/><path d="m132.04,91.09s3.53-1.45,6.19.75c2.66,2.2,6.43,9.35,7.48,20.65,0,0,1.09,1.63,1.34,2.59.25.96.22,4.04.22,4.04l-2.6-.65s-.44-9.89-3.02-17.66c-2.61-7.85-5.76-10.24-9.6-9.72Z" fill="#e0ddc5"/><path d="m128.18,90.31s1.78-.77,2.6-.03c.82.74,3.28,3.55,4.31,11.61.46,3.57,1.03,10.16,1.03,10.16-.83-.41-1.32,1.54-1.32,1.54,0,0-.64-11.02-1.85-16.19-1.02-4.34-3.51-7.51-4.77-7.09Z" fill="#e0ddc5"/><path d="m124.27,89.79s.91-.29.98.88c.06,1.17.49,22.01.49,22.01,0,0-.53-.06-.9.2-.47.33-.94.74-.94.74,0,0-.47-22.15-.42-22.94.05-.78.79-.88.79-.88Z" fill="#e0ddc5"/><path d="m211.05,198.05c.23-.41.43-.83.61-1.25.63-1.62,1.12-3.46,1.03-5.18-.93-16.21-38.43-27.66-84.61-25.91-.8.03-1.6.06-2.4.1-44.83,2.14-81.02,15.92-83.98,31.41,0,.34,0,.68.01,1.03.18,3.65,1.63,7.1,4.18,10.3l3.3,18.01,139.18,4.81,25.89-5.07-3.21-28.25Z" fill="#004069"/><path d="m121.17,67.69c0-.82-.33-1.07-.74-1.07s-.74.26-.74,1.07v13.8c.48-.13.97-.25,1.48-.35v-13.45Z" fill="#e0ddc5"/><path d="m117.17,69.32c0-.82-.27-.93-.59-.93s-.59.11-.59.93v13.68c.37-.22.77-.41,1.18-.6v-13.08Z" fill="#e0ddc5"/><path d="m114.61,71.95c0-.82-.15-1.48-.33-1.48s-.33.66-.33,1.48v12.36c0,.08-.03.74-.03.81.21-.2.46-.65.7-.84v-12.33Z" fill="#e0ddc5"/><path d="m125.87,80.73v-13.93c0-.82-.15-1.07-.33-1.07s-.33.26-.33,1.07v13.93c.1,0,.2,0,.3,0,.12,0,.25,0,.37.01Z" fill="#e0ddc5"/><path d="m106.98,93.43c1.37-4.85,9.32-8.57,18.93-8.57,7.59,0,14.14,2.32,17.23,5.69-2.83-3.55-9.61-6.06-17.53-6.06-9.97,0-18.15,3.97-18.89,9.02-.04.25.13.41.27-.07Z" fill="#e0ddc5"/><path d="m112.41,87.44c1.94-3.62,7.17-6.21,13.33-6.21,4.12,0,7.81,1.17,10.4,3.01-2.49-2.28-6.45-3.75-10.92-3.75-6.54,0-12,3.14-13.33,7.34l.52-.4Z" fill="#e0ddc5"/><path d="m112.02,65.75c1.9-3.23,7.02-5.54,13.05-5.54,4.03,0,7.65,1.04,10.18,2.69-2.43-2.03-6.31-3.35-10.69-3.35-6.4,0-11.75,2.81-13.05,6.56-.2.57-.28,2-.28,2.11.06-.86.33-1.69.78-2.46Z" fill="#e0ddc5"/><path d="m112.01,64.2c1.87-3.04,6.89-5.21,12.8-5.21,3.96,0,7.51.98,9.99,2.53-2.39-1.91-6.19-3.15-10.49-3.15-6.28,0-11.53,2.64-12.8,6.17-.19.54-.28,1.88-.27,1.98.05-.81.32-1.59.77-2.31Z" fill="#e0ddc5"/><polygon points="72.5 199.99 81.44 196.31 189.85 238.93 214.9 234.25 249.47 247.82 268.3 243.55 289.71 231.05 266.65 235.14 263.71 233.2 244.44 236.15 211.14 219.92 187.43 226.19 46.93 169.17 22.37 178.7 22.37 203.44 22.37 182.75 72.5 199.99" fill="#e0ddc5"/><path d="m194.59,165.18c1.78-1.91,2.78-6.55,2.69-9.4-.55-16.84-32.61-33.25-71.34-31.98-38.74,1.27-69.48,19.73-68.93,36.58.04,1.19.3,3.79,1.91,6.23.3.45,1.56,2.24,1.56,2.24-1.85-2.73-2.03-5.7-1.76-7.26,1.25-7.16,9.82-27.32,66.83-28.43,64.02-1.25,69.92,17.13,68.6,26.9.16.86.23,1.76.28,2.79,0,0,.08,1.02.17,2.32Z" fill="#e0ddc5"/><path d="m128.08,165.71c46.17-1.75,83.68,9.69,84.6,25.91-.77-16.22-38.42-27.66-84.6-25.91Z" fill="#e0ddc5"/><path d="m194.52,164.26c10.97-17.36-19.37-27.52-30.82-30.37-23.93-5.96-50.41-5.08-73.99,2.08-8.77,2.66-17.82,6.32-24.83,12.38-5.17,4.47-8.78,11.49-5.63,18.36.17.36,1.49,2.55,1.49,2.55,0,0,133.56,7.55,135,6.83.11-.05-.97-5.23-.95-5.38,0,0-.14-4.49-.28-6.45Z" fill="#004069"/><path d="m125.67,165.82c.81-.04,1.61-.07,2.41-.1,46.18-1.75,83.83,9.69,84.6,25.91.08,1.75-.28,3.47-1.02,5.18-.19.49-.39.96-.6,1.4l.03.25c1.38-2.57,2.12-5.11,1.99-7.92-.95-19.89-40.24-34.62-87.5-32.37-46.45,2.21-83.52,19.58-83.88,39.06,2.95-15.49,39.15-29.27,83.98-31.41Z" fill="#e0ddc5"/><path d="m210.29,192.94c-3.07-14.93-38.61-25.15-84.62-22.96-46.01,2.19-82.73,16.31-82.01,31.53.03.73.16,1.45.36,2.15,3.9-14.02,38.72-26.44,81.65-28.48,46.01-2.19,83.9,8.37,84.63,23.6.01.24.01.47,0,.71.26-.81.4-1.63.4-2.46,0-.26.17-1.25-.41-4.09Z" fill="#e0ddc5"/><path d="m182.01,164.37s17.17,3.7,26.35,14.66c7.67,9.15,5.01,15.01,2.72,19.42l2.31,22.85-2-.96-3.63,1.11.96-20.73.59-3.92s-3.11-12.73-12.81-17.32c0,0-3.11-9.92-14.51-15.1Z" fill="#004069"/><path d="m179.79,132.83c-.75-.74-4.29-3.48-4.29-3.48,0,0,10.73,6.74,13.18,11.1,0,0,7.02,4.79,8.57,12.01,1.68,7.81-2.66,12.97-2.66,12.97l-.13-.83s4.07-5.15,2.35-11.87c-1.73-6.77-11.25-14.73-15.69-18.06,0,0-.43-.97-1.33-1.85Z" fill="#004069"/><path d="m53.98,210.93l.15-16.74c-.85.61-1.63,1.22-2.33,1.86l-1.01,15.59,3.19-.71Z" fill="#e0ddc5"/><path d="m48.57,213.87l.13-14.03c-.3.53-.54,1.07-.73,1.61l-.84,12.88,1.43-.47Z" fill="#e0ddc5"/><path d="m61.63,211.4l.25-21.52c-.98.44-1.92.89-2.82,1.35l-1.26,20.88,3.82-.7Z" fill="#e0ddc5"/><path d="m71.35,207.28l.16-20.96c-.93.29-1.84.58-2.73.88l-1.25,20.79,3.82-.71Z" fill="#e0ddc5"/><path d="m84.26,203.52l-.3-20.35c-1.2.25-2.37.51-3.53.77l-.47,20.4,4.3-.82Z" fill="#e0ddc5"/><path d="m98.75,197.72l-.63-16.94c-1.3.18-2.58.36-3.85.55l-.31,17.21,4.78-.82Z" fill="#e0ddc5"/><path d="m115.36,203.14l-1.29-23.98c-1.67.12-3.32.25-4.95.4l1.15,24.76,5.1-1.18Z" fill="#e0ddc5"/><path d="m131.61,208.86l-1.6-30.42c-.49,0-.97.01-1.46.03-1.06.02-2.1.06-3.15.1l1.59,31.47,4.62-1.18Z" fill="#e0ddc5"/><path d="m148.18,217.06l-2.25-38.47c-1.42-.06-2.85-.1-4.3-.13l2.09,38.48,4.46.12Z" fill="#e0ddc5"/><path d="m164.28,217.41l-2.83-37.69c-1.26-.14-2.54-.26-3.83-.38l2.67,37.96,3.98.12Z" fill="#e0ddc5"/><path d="m178.14,219.53l-3.43-37.91c-1.01-.19-2.04-.37-3.08-.54l3.17,38.45h3.35Z" fill="#e0ddc5"/><path d="m190.25,221.17l-3.33-36.74c-.91-.26-1.85-.52-2.8-.76l3.1,37.5h3.03Z" fill="#e0ddc5"/><path d="m200.6,223.17l-3.48-35.13c-.81-.36-1.66-.7-2.53-1.04l3.3,36.06,2.71.12Z" fill="#e0ddc5"/><path d="m208.25,224.94l-3.39-32.56c-.61-.45-1.27-.89-1.96-1.33l3.28,33.65,2.07.23Z" fill="#e0ddc5"/><path d="m209.18,196.56c-.41-.56-.88-1.12-1.4-1.66l3.03,31.22h.03c.63-.03,1.29.15,1.29.15l-2.94-29.7Z" fill="#e0ddc5"/><path d="m202.34,222.46l2.25-.61s-7.47-2.86-19.65-5.07c-12.18-2.21-28.32-2.86-28.32-2.86l3.91,1.59c5.54.33,15.93,1.11,24.4,2.65,8.25,1.5,14.33,3.29,17.4,4.3Z" fill="#e0ddc5"/><path d="m202.34,222.46c-3.07-1-9.15-2.8-17.4-4.3-8.48-1.54-18.87-2.32-24.4-2.65l26.99,10.96,14.82-4.01Z" fill="#004069"/><polygon points="32.48 174.81 46.94 169.17 187.63 226.87 211.4 220.33 244.98 236.73 263.93 233.44 273.03 238.75 265.95 242.79 264.69 235.72 245.74 239.51 246.3 245.22 214.66 231.44 212.87 231.85 213.23 230.06 212.27 228.93 211.26 221.75 187.73 228.2 188.17 235.73 81.18 194.86 71.89 198.85 46.74 190.22 46.74 171.56 32.64 176.54 32.48 174.81" fill="#004069"/><path d="m162.26,143.74l.11,1.74c.11.25.16.4.16.4l-.27-2.14Z" fill="none"/><path d="m194.73,160.03c-.64-14.02-29.75-25.18-65.51-25.18s-60.78,12.34-67.3,23.38c-1.84,3.12-1.2,7.92-1.23,7.02-.06-1.92.45-3.8,1.46-5.63-.75,2.25-.63,4.82-.63,4.82l-.17,9.94h.85l.14-15.12c.51-.86,1.13-1.72,1.85-2.55l.14,17.95,2.13.14-.28-20.12c1.12-1.03,2.4-2.03,3.82-3l.02,2.29c-.82.9-2.23,2.42-2.23,5.7l.05,11.56.87-.67s.14-10.57.14-11.42c0-1.69.65-2.4,1.19-2.6l.1,13.16,2.13.14-.27-19.45c1.81-1.1,3.79-2.16,5.94-3.16v2.32c-.74.15-1.58.48-2.27,1.17-1.56,1.56-1.7,4.39-1.84,6.94-.14,2.55,0,11.9,0,11.9l.85-.85s-.33-9.28.05-12.27c.39-3.08,2.5-4.05,3.13-3.9l.08,15.04,2.62-.59-.2-20.84c2.22-.95,4.59-1.84,7.07-2.67v1.85s-2.41-.14-4.39,1.98c-.47.5-1.09,3-.99,4.93v15.61s1.56-1.13,1.56-1.13c0,0-.43-11.76-.28-14.17.14-2.41,1.26-3.3,2.27-3.68,1.28-.48,1.7,1.13,1.7,1.13v15.68s4.11-1.65,4.11-1.65l-.24-21.71c2.45-.73,4.82-1.35,7.44-1.96l-.11,2.13s-1.56-.71-3.83.42c-3.26,1.63-2.48,4.94-2.68,5.95l.27,15.3,1.13-.28-.2-14.86s-.19-2.38,2.21-3.1c2.26-.67,2.8,1.38,2.8,1.38l.28,15.59,3.97-.71.14-22.67h-.13c2.82-.56,5.72-1.05,8.67-1.46l-.07,2.57s-2.51-1.01-5.06.16c-2.42,1.11-2.17,3.37-2.13,4.96.04,1.44-.14,16.01-.14,16.01l1.13-.28s0-14.17-.14-14.88c-.14-.71.57-2.83,2.69-3.12,2.09-.28,2.69,1.42,2.69,1.42l.28,15.59,4.96-.71-.41-22.2c3.15-.36,6.33-.62,9.54-.78l.22,3.43s-2.98-2.83-6.94-.99c-2.41,1.12-1.98,3.68-1.98,4.96,0,1.45.28,16.01.28,16.01l1.13-.28s0-14.17-.14-14.88c-.14-.71.57-2.83,2.69-3.12,2.09-.28,3.22,1.69,3.22,1.69l.19,15.18,5.52-.57-.4-21.56c1.25-.03,2.49-.04,3.71-.04,34.21,0,62.11,11.45,62.57,25.25.03.89.25-.68.2-1.85Zm-57.16-20.19v1.31s-2.29-3.65-6.44-2.1c-2.49.93-2.48,3.17-2.48,4.44,0,1.45.28,16.01.28,16.01l1.56-.71-.14-14.74c-.04-.82.15-2.52,2.27-2.83,2.32-.35,3.19,1.68,3.19,1.68l.5,15.18,5.81.28-.87-18.27-3.68-.26Zm19.57,1.58c-1.68.06-2.64.76-3.14,1.75l-.14-2.01-3.28-.39v2.23s-1.05-3.02-4.86-2.89c-2.89.1-3.68,2.1-3.6,4.24.05,1.44.57,15.3.57,15.3l1.28-.57s-.69-13.24-.71-13.96c-.02-.87.13-3.14,2.55-3.18,2.44-.04,2.69,2.46,2.69,2.46l.9,14.36,4.67.95c.03.78.05,1.25.05,1.25l1.28-.57s-.58-13.46-.71-14.17c-.13-.71.14-2.69,2.55-2.98,2.27-.27,2.69,2.83,2.69,2.83l.9,13.98,1.4.29-1.03-16.85c-.87-1.1-2.19-2.15-4.04-2.09Zm10.51,2.5c-.85.03-1.52.23-2.03.54l-.07-.8-3.35-.91,1.09,17.83,1.23.18c.06,1.61.1,2.7.1,2.7l1.28-.57s0-.76.02-1.93l1.07.16-1.13-13.72c.12-.76.58-1.5,1.88-1.66,2.27-.27,2.8,3.82,2.8,3.82l.79,13,1.4.29-1.03-15.92c-.63-1.44-2.19-3.08-4.04-3.02Zm8.27,3.55c-.31.2-.57.38-.79.54l-.13-1.46-2.3-1.04,1.09,17.83,2.78,1.07-1.25-14.2c.2-.59.82-1.17,1.38-1.17,2.28-.02,2.23,3.68,2.23,3.68l.79,13,1.4.29-1.03-14.86c.03-2.1-2.62-4.69-4.18-3.68Zm7.24,3.38l-.02-.23-2.04-1.44,1.09,17.31,2.52,1.47-1.41-15.52s.07.01.1.03c1.84.66,2.1,2.63,2.1,2.63l1.18,10.9.77.3-1.03-11.34c.03-1.92-1.77-4.45-3.26-4.11Zm6.05,4.25l-.03-.27-1.58-1.45,1.45,13.53,1.54.65-1.23-11.07c.2.33.35.57.35.57l1.3,10.67.39.19-1.03-9.81c.01-1-.47-2.17-1.15-3.01Zm2.34,1.44l1.18,11.95,1.15.56-1.15-10.8-1.18-1.71Z" fill="#e0ddc5"/><path d="m213.77,258.82c0-.87.32-1.21.86-1.21.54,0,1.84-.02,1.99,1.87l2.43,20.37h6.72l-1.85-18.17c-.03-.49,0-1.29.54-1.29.54,0,1.64.04,1.78,1.93l2.09,17.53h6.6l-1.59-14.9c-.08-.25-.25-1.15.29-1.15.54,0,1.62.17,1.74,1.76l1.77,14.29h5.65l-1.4-11.57c-.11-.51-.11-1.17.1-1.17.54,0,1.5-.19,1.7,1.47l1.56,11.26h5.84l-1.13-8.61c-.05-.45-.28-1.16.26-1.18.54-.02,1.57-.13,1.72,1.46l1.24,8.33h16.05l-1.72-11.94c-.04-1.08.6-1.13,1.15-1.14.55,0,1.66.35,1.88,2.2l1.77,10.88h4.11l-1.44-9.3c-.06-.99.48-1.03.94-1.03.46,0,1.39.19,1.61,1.9l1.45,8.44h4.28l-1.06-6.9c-.04-.9.26-.89.7-.89.44,0,1.33.25,1.52,1.8l1.02,6h4.21l-.64-4.06c-.06-.57-.01-1.16.37-1.16.38,0,1.14.14,1.51,1.5l.64,3.72h3.4l-.35-2.08c-.05-.81.2-.84.56-.85.36,0,.92.39,1.15,1.36l.27,1.56h6.24v-31.81l-12.56-16.99-21.41,12.5-18.83,3.69-34.96-15.13-25.05,5.26-108.02-41.06-8.94,3.69-50.13-17.24v97.11h193.54l-2.14-21.03Z" fill="#004069"/><path d="m216.62,259.49c-.14-1.89-1.45-1.88-1.99-1.87-.54,0-.85.34-.86,1.21l2.14,21.03h3.14l-2.43-20.37Z" fill="#e0ddc5"/><path d="m226.25,262.33c-.14-1.89-1.24-1.93-1.78-1.93-.54,0-.57.79-.54,1.29l1.85,18.17h2.56l-2.09-17.53Z" fill="#e0ddc5"/><path d="m235.37,265.57c-.11-1.59-1.2-1.76-1.74-1.76-.54,0-.37.91-.29,1.15l1.59,14.9h2.2l-1.77-14.29Z" fill="#e0ddc5"/><path d="m243.19,268.6c-.2-1.67-1.16-1.47-1.7-1.47-.2,0-.2.66-.1,1.17l1.4,11.57h1.96l-1.56-11.26Z" fill="#e0ddc5"/><path d="m251.43,271.53c-.15-1.59-1.18-1.47-1.72-1.46-.54.02-.31.72-.26,1.18l1.13,8.61h2.08l-1.24-8.33Z" fill="#e0ddc5"/></g><path d="m30.13,61.77L115.06,7.77c6.49,3.89,14.62,3.78,21.01-.28l90.78,54.37c.12,6.91,3.79,13.27,9.72,16.82l1.85,109.08c-6.02,3.7-9.64,10.31-9.52,17.38l-89.84,55.24c-6.4-3.85-14.41-3.8-20.78.11l-89.22-53.59c.09-7.12-3.6-13.75-9.7-17.41l1.48-111.1c5.69-3.62,9.18-9.87,9.27-16.61Z" fill="none" stroke="#6d0104" stroke-linejoin="bevel" stroke-width="8"/></svg>