<?xml version="1.0" encoding="UTF-8"?><svg id="b" xmlns="http://www.w3.org/2000/svg" xmlns:xlink="http://www.w3.org/1999/xlink" viewBox="0 0 227.04 259.86"><defs><clipPath id="d"><path d="m14.75,57.71L99.69,3.71c6.49,3.89,14.62,3.78,21.01-.28l90.78,54.37c.12,6.91,3.79,13.27,9.72,16.82l1.85,109.08c-6.02,3.7-9.64,10.31-9.52,17.38l-89.84,55.24c-6.4-3.85-14.41-3.8-20.78.11L13.7,202.84c.09-7.12-3.6-13.75-9.7-17.41l1.48-111.1c5.69-3.62,9.18-9.87,9.27-16.61Z" style="fill:none; stroke:#6d0104; stroke-linejoin:bevel; stroke-width:8px;"/></clipPath><linearGradient id="e" x1="-54.31" y1="528.35" x2="-52.14" y2="528.35" gradientTransform="translate(-204979.62 267386.18) rotate(24.71) scale(358.21 -621.94) skewX(26.37)" gradientUnits="userSpaceOnUse"><stop offset="0" stop-color="#898b8d"/><stop offset=".1" stop-color="#898b8d"/><stop offset=".11" stop-color="#999b9d"/><stop offset=".14" stop-color="#c1c2c4"/><stop offset=".17" stop-color="#d9dbdc"/><stop offset=".19" stop-color="#e3e4e5"/><stop offset=".19" stop-color="#dfe0e1"/><stop offset=".26" stop-color="#b0b1b4"/><stop offset=".3" stop-color="#9ea0a3"/><stop offset=".32" stop-color="#a2a4a6"/><stop offset=".34" stop-color="#aeb0b2"/><stop offset=".35" stop-color="#c3c4c6"/><stop offset=".37" stop-color="#e0e1e2"/><stop offset=".38" stop-color="#e3e4e5"/><stop offset=".4" stop-color="#fff"/><stop offset=".43" stop-color="#eff0f0"/><stop offset=".46" stop-color="#cacbcd"/><stop offset=".49" stop-color="#b1b3b6"/><stop offset=".5" stop-color="#a9abae"/><stop offset=".52" stop-color="#b1b2b5"/><stop offset=".54" stop-color="#bbbcbf"/><stop offset=".6" stop-color="#fff"/><stop offset=".61" stop-color="#fff"/><stop offset=".67" stop-color="#d6d7d9"/><stop offset=".7" stop-color="#c0c2c4"/><stop offset=".73" stop-color="#c6c8ca"/><stop offset=".8" stop-color="#fff"/><stop offset=".82" stop-color="#f5f6f6"/><stop offset=".86" stop-color="#dddedf"/><stop offset=".9" stop-color="#c0c2c4"/><stop offset="1" stop-color="#c0c2c4"/></linearGradient><linearGradient id="f" x1="-52.57" y1="527.35" x2="-50.39" y2="527.35" gradientTransform="translate(246569.3 181720.23) rotate(-50.87) scale(281.4 -579.66)" gradientUnits="userSpaceOnUse"><stop offset="0" stop-color="#7c0101"/><stop offset=".1" stop-color="#7c0101"/><stop offset=".1" stop-color="#810203"/><stop offset=".14" stop-color="#a90f13"/><stop offset=".17" stop-color="#c1181d"/><stop offset=".19" stop-color="#cb1b21"/><stop offset=".26" stop-color="#a00e12"/><stop offset=".3" stop-color="#8e090c"/><stop offset=".32" stop-color="#920a0d"/><stop offset=".34" stop-color="#9e0d11"/><stop offset=".36" stop-color="#b31418"/><stop offset=".38" stop-color="#cb1b21"/><stop offset=".4" stop-color="#e21f26"/><stop offset=".43" stop-color="#d51d24"/><stop offset=".46" stop-color="#b9151b"/><stop offset=".48" stop-color="#a00f13"/><stop offset=".5" stop-color="#980d11"/><stop offset=".53" stop-color="#a01014"/><stop offset=".54" stop-color="#a71317"/><stop offset=".6" stop-color="#e21f26"/><stop offset=".61" stop-color="#e21f26"/><stop offset=".66" stop-color="#c3181e"/><stop offset=".7" stop-color="#ad1419"/><stop offset=".73" stop-color="#b2151b"/><stop offset=".8" stop-color="#e21f26"/><stop offset=".83" stop-color="#d81d23"/><stop offset=".87" stop-color="#c0181d"/><stop offset=".9" stop-color="#ad1419"/><stop offset="1" stop-color="#ad1419"/></linearGradient><linearGradient id="g" x1="-53.58" y1="527.41" x2="-51.41" y2="527.41" xlink:href="#f"/><linearGradient id="h" x1="-53.62" y1="527.36" x2="-51.45" y2="527.36" xlink:href="#f"/><linearGradient id="i" x1="-53.23" y1="527.49" x2="-50.83" y2="527.49" xlink:href="#f"/><linearGradient id="j" x1="-54" y1="527.41" x2="-51.84" y2="527.41" gradientTransform="translate(246732.89 181330.22) rotate(-50.87) scale(281.4 -579.66)" gradientUnits="userSpaceOnUse"><stop offset="0" stop-color="#00174b"/><stop offset=".1" stop-color="#00174b"/><stop offset=".11" stop-color="#001f55"/><stop offset=".16" stop-color="#002f6b"/><stop offset=".19" stop-color="#003674"/><stop offset=".22" stop-color="#002e69"/><stop offset=".3" stop-color="#002056"/><stop offset=".33" stop-color="#00235a"/><stop offset=".36" stop-color="#002c66"/><stop offset=".38" stop-color="#003674"/><stop offset=".4" stop-color="#003c7e"/><stop offset=".43" stop-color="#003979"/><stop offset=".47" stop-color="#002a63"/><stop offset=".5" stop-color="#00245b"/><stop offset=".54" stop-color="#002962"/><stop offset=".6" stop-color="#003c7e"/><stop offset=".61" stop-color="#003c7e"/><stop offset=".62" stop-color="#003b7d"/><stop offset=".7" stop-color="#002b65"/><stop offset=".73" stop-color="#002d67"/><stop offset=".8" stop-color="#003c7e"/><stop offset=".85" stop-color="#003575"/><stop offset=".9" stop-color="#002b65"/><stop offset="1" stop-color="#002b65"/></linearGradient><linearGradient id="k" x1="-55.42" y1="528.41" x2="-53.04" y2="528.41" gradientTransform="translate(247354.09 181341.76) rotate(-50.87) scale(281.4 -579.66)" xlink:href="#e"/><linearGradient id="l" x1="-55.36" y1="528.38" x2="-53.22" y2="528.38" gradientTransform="translate(247354.09 181341.76) rotate(-50.87) scale(281.4 -579.66)" xlink:href="#e"/><linearGradient id="m" x1="-55.37" y1="528.35" x2="-53.18" y2="528.35" gradientTransform="translate(247354.09 181341.76) rotate(-50.87) scale(281.4 -579.66)" xlink:href="#e"/><linearGradient id="n" x1="-55.37" y1="528.33" x2="-53.18" y2="528.33" gradientTransform="translate(247354.09 181341.76) rotate(-50.87) scale(281.4 -579.66)" xlink:href="#e"/><linearGradient id="o" x1="-55.35" y1="528.33" x2="-53.23" y2="528.33" gradientTransform="translate(247354.09 181341.76) rotate(-50.87) scale(281.4 -579.66)" xlink:href="#e"/><linearGradient id="p" x1="-55.36" y1="528.42" x2="-53.22" y2="528.42" gradientTransform="translate(247354.09 181341.76) rotate(-50.87) scale(281.4 -579.66)" xlink:href="#e"/><linearGradient id="q" x1="-55.36" y1="528.27" x2="-53.21" y2="528.27" gradientTransform="translate(247354.09 181341.76) rotate(-50.87) scale(281.4 -579.66)" xlink:href="#e"/><linearGradient id="r" x1="-55.36" y1="528.43" x2="-53.21" y2="528.43" gradientTransform="translate(247354.09 181341.76) rotate(-50.87) scale(281.4 -579.66)" xlink:href="#e"/><linearGradient id="s" x1="-55.37" y1="528.2" x2="-53.2" y2="528.2" gradientTransform="translate(247354.09 181341.76) rotate(-50.87) scale(281.4 -579.66)" xlink:href="#e"/><linearGradient id="t" x1="-55.36" y1="528.16" x2="-53.21" y2="528.16" gradientTransform="translate(247354.09 181341.76) rotate(-50.87) scale(281.4 -579.66)" xlink:href="#e"/><linearGradient id="u" x1="-55.36" y1="528.12" x2="-53.2" y2="528.12" gradientTransform="translate(247354.09 181341.76) rotate(-50.87) scale(281.4 -579.66)" xlink:href="#e"/><linearGradient id="v" x1="-55.37" y1="528.14" x2="-53.2" y2="528.14" gradientTransform="translate(247354.09 181341.76) rotate(-50.87) scale(281.4 -579.66)" xlink:href="#e"/><linearGradient id="w" x1="-55.38" y1="528.08" x2="-53.18" y2="528.08" gradientTransform="translate(247354.09 181341.76) rotate(-50.87) scale(281.4 -579.66)" xlink:href="#e"/><linearGradient id="x" x1="-55.36" y1="528.27" x2="-53.2" y2="528.27" gradientTransform="translate(247354.09 181341.76) rotate(-50.87) scale(281.4 -579.66)" xlink:href="#e"/><linearGradient id="y" x1="-55.36" y1="528.23" x2="-53.2" y2="528.23" gradientTransform="translate(247354.09 181341.76) rotate(-50.87) scale(281.4 -579.66)" xlink:href="#e"/><linearGradient id="z" x1="-55.36" y1="528.28" x2="-53.2" y2="528.28" gradientTransform="translate(247354.09 181341.76) rotate(-50.87) scale(281.4 -579.66)" xlink:href="#e"/><linearGradient id="aa" x1="-55.37" y1="528.22" x2="-53.2" y2="528.22" gradientTransform="translate(247354.09 181341.76) rotate(-50.87) scale(281.4 -579.66)" xlink:href="#e"/><linearGradient id="ab" x1="-55.36" y1="528.31" x2="-53.21" y2="528.31" gradientTransform="translate(247354.09 181341.76) rotate(-50.87) scale(281.4 -579.66)" xlink:href="#e"/><linearGradient id="ac" x1="-55.37" y1="528.17" x2="-53.2" y2="528.17" gradientTransform="translate(247354.09 181341.76) rotate(-50.87) scale(281.4 -579.66)" xlink:href="#e"/><linearGradient id="ad" x1="-55.36" y1="528.26" x2="-53.21" y2="528.26" gradientTransform="translate(247354.09 181341.76) rotate(-50.87) scale(281.4 -579.66)" xlink:href="#e"/><linearGradient id="ae" x1="-55.35" y1="528.29" x2="-53.22" y2="528.29" gradientTransform="translate(247354.09 181341.76) rotate(-50.87) scale(281.4 -579.66)" xlink:href="#e"/><linearGradient id="af" x1="-55.37" y1="528.33" x2="-53.19" y2="528.33" gradientTransform="translate(247354.09 181341.76) rotate(-50.87) scale(281.4 -579.66)" xlink:href="#e"/><linearGradient id="ag" x1="-55.37" y1="528.18" x2="-53.2" y2="528.18" gradientTransform="translate(247354.09 181341.76) rotate(-50.87) scale(281.4 -579.66)" xlink:href="#e"/><linearGradient id="ah" x1="-55.36" y1="528.22" x2="-53.2" y2="528.22" gradientTransform="translate(247354.09 181341.76) rotate(-50.87) scale(281.4 -579.66)" xlink:href="#e"/><linearGradient id="ai" x1="-55.36" y1="528.24" x2="-53.2" y2="528.24" gradientTransform="translate(247354.09 181341.76) rotate(-50.87) scale(281.4 -579.66)" xlink:href="#e"/><linearGradient id="aj" x1="-55.36" y1="528.38" x2="-53.2" y2="528.38" gradientTransform="translate(247354.09 181341.76) rotate(-50.87) scale(281.4 -579.66)" xlink:href="#e"/><linearGradient id="ak" x1="-55.37" y1="528.38" x2="-53.19" y2="528.38" gradientTransform="translate(247354.09 181341.76) rotate(-50.87) scale(281.4 -579.66)" xlink:href="#e"/></defs><g id="c"><g style="clip-path:url(#d);"><rect x="130.08" y="-153.9" width="255.52" height="514.47" transform="translate(123.95 346.71) rotate(-83.02)" style="fill:url(#e);"/><path d="m480.04,101.51c-11.32-1.39-22.33-4.41-33.34-7.44-11.01-3.03-22.02-6.06-33.34-7.44-5-.61-10.05-.9-15.19-.73-31.15,1.03-58.62,17.3-89,21.54-8.29,1.16-16.5.93-24.64-.04-32.33-3.87-59.88-17.24-87.73-14.48-8.73.87-17.41,3-25.78,5.58-17.1,5.28-33.91,12.32-51.62,15.34-18.84,3.21-37.05-.36-55.38-4.71-10.85-2.57-21.74-5.62-32.72-7.56-10.49-1.86-21.68-1.72-32.27-.9l-3.21,26.2c12.35-2.92,24.33-6.43,37.05-7,15.68-.7,30.23,3.23,45.16,7.44,15.7,4.43,32.01,8.1,48.39,8.4,28.72.53,54.34-13.36,82.01-19.37,7.88-1.71,15.91-2.72,23.98-2.83,4.19-.06,8.32.2,12.41.7,11.17,1.37,21.18,3.69,32.01,6.83,10.83,3.13,21.66,6.27,32.83,7.63,2.75.34,5.52.57,8.31.66,37.1,1.28,70.6-22.09,107.36-22.11,4.79,0,9.56.34,14.33.92,17.76,2.17,35.35,7.7,52.69,11.28,2.85.59,5.7,1.05,8.53,1.4,4.66.57,9.29.83,13.91.84l3.13-25.57c-26.71,6.39-28.87,6.21-36.04,5.62-.6-.06-1.2-.13-1.81-.21Z" style="fill:url(#f);"/><path d="m288.6,183.09l-49.43-6.05c-11.71,1.99-27.55,6.48-54.49,14.1-13.72,3.88-27.25,7.17-41.61,6.44-2.3-.12-4.58-.32-6.84-.6-13.67-1.67-26.68-6-40-9.67-8.41-2.32-16.91-4.57-25.52-5.62-5.7-.7-11.46-.87-17.27-.18-11.46,1.36-22.72,4.36-33.86,7.33-2.91.78-30.85,8.4-30.91,8.39.54,1.9,1.27,4.43,1.83,6.32.55,1.87,1.3,4.36,1.87,6.21.57,1.83,1.33,4.26,1.92,6.08.58,1.78,1.37,4.15,1.97,5.92,33.61-5.9,64.79-24.31,100.39-19.96.55.07,1.09.14,1.65.22,20.28,3.15,39.32,11.44,59.65,14.35,1.05.15,2.09.29,3.13.42,9.55,1.17,18.69,1.26,32-1.21,22.92-4.71,44.63-13.97,67.68-18.22,11.61-2.15,20.13-1.86,27.13-1,1.54.19,3,.41,4.41.63l1.52-12.44c-1.68-.47-3.41-.95-5.21-1.46Z" style="fill:url(#g);"/><path d="m177.21,241.6c-11.1-1.36-21.91-4.43-32.71-7.51-10.8-3.08-21.61-6.15-32.71-7.51-5.52-.68-11.1-.92-16.8-.54-35.22,3.3-67.25,21.38-103,22.19.59,1.5,1.39,3.49,2,4.98.61,1.44,1.44,3.37,2.08,4.8.63,1.39,1.48,3.25,2.13,4.63.65,1.35,1.53,3.14,2.2,4.49.19.02.39.05.58.07,6.11.75,13.86.72,22.2-.62,12.72-2.05,34.74-7.14,80.17-17.43,18.39-4.09,26.68-3.41,33.59-2.56.41.05.82.1,1.22.15,20.92,2.62,40.47,11,61.19,14.42,1,.14,2.19.31,3.56.48,6.53.8,17.05,1.55,30.17-.86,13.93-2.56,27.35-6.98,40.85-11.12l3.41-27.87c-29.64,4.91-57.15,19.65-87.67,20.54-4.2.05-8.35-.21-12.45-.72Z" style="fill:url(#h);"/><path d="m259.28,139.36c-29.17-3.57-53.82,2.45-77.61,8.58-23.8,6.13-46.74,12.36-72.49,9.21-1.26-.15-2.53-.33-3.81-.53-19.27-3.38-37.5-11.78-56.98-14.16-4.53-.55-9.12-.78-13.81-.55-29.07,1.44-83.07,23.41-112.88,27.48l107.03.96c.15-.04.31-.08.46-.11,21.34-5.33,30.12-7.52,43.93-5.83,9.66,1.18,21.77,4.26,42.35,9.49,4.19,1.02,8.36,1.76,12.51,2.27,25.98,3.18,51.25-2.91,76.51-9,25.27-6.09,50.53-12.18,76.51-9,2.78.34,5.58.79,8.38,1.35l1.65-13.48c-3.12-.57-6.25-1.29-9.38-2.17-7.77-2.17-15.2-3.63-22.37-4.51Z" style="fill:url(#i);"/><path d="m233.08,51.54c-2.14-5.82-4.09-11.71-5.92-17.64-6.67-21.65-12.39-43.69-18.88-65.34L18.03-54.73,1.74,78.39c6.61,1.73,13.58,4.44,22.4,8.14,39.29,16.48,79.92,2.58,118.44-8.68,16.47-4.81,32.35-8.19,49.43-5.3,18.42,3.12,37.16,11.07,55.67,13.85-.01-.03-9.49-20.97-14.6-34.86Z" style="fill:url(#j);"/><path d="m8.66,21.84l-.21,1.75c.86.29,1.7.57,2.45.82l-2.24-2.57Z" style="fill:url(#k);"/><path d="m15.23,56.58l-4.73-5.66c2.57-1.17,6.1-2.77,9.83-4.98-7.2,1.2-9.53,1.48-12,1.77-.69-1.2-1.54-2.66-2.34-4.05l-1.24,10.16c1.02-.49,1.56-.79,1.57-.8,2.67,1.08,6.23,2.52,8.92,3.56Z" style="fill:url(#l);"/><path d="m25.08,75c-3.2-.48-4.81-.73-8.72-1.72-1.42-1.57-3.33-3.65-4.74-5.23.03,1.21.05,2.36.28,3.85-2.47-.81-3.97-1.3-7.58-2.73,2.39,1.41,5.58,3.28,7.98,4.68.08.59.26,1.97.51,3.07,2.61-.21,3.81-.47,3.82-.47,2.35,1.42,5.49,3.32,7.85,4.72l-5.42-5.12c1.5-.16,3.19-.34,6.02-1.05Z" style="fill:url(#m);"/><path d="m52.17,56.77c-5.13,1.14-6.43,1.39-9.92,2.06-1.22-1.95-2.85-4.54-4.1-6.48-.49,2.33-.88,4.18-1.98,7.4-7.44,1.2-9.03,1.36-11.91,1.66,3.07.75,7.18,1.72,10.27,2.41-1.15,2.31-2.34,4.69-3.09,6.59,1.73-.96,5.33-2.97,8.56-5.14,2.81.86,6.54,2,9.34,2.87l-4.78-5.93c3.76-2.4,5.13-3.41,7.62-5.43Z" style="fill:url(#n);"/><path d="m63.14,39.51q1.9-2.19,4.4-4.96c-3.16.74-6.53,1.51-7.26,1.67-1.55-1.89-3.6-4.41-5.15-6.3.69,5.39.99,7.27.99,7.28-4.55,1.36-5.73,1.69-7.68,2.24,2.7.65,5.4,1.29,8.1,1.94.14,4.52.15,4.99.17,7.5,1.26-1.76,1.79-2.49,4.15-6.15,2.33.82,5.43,1.91,7.76,2.72l-5.49-5.94Z" style="fill:url(#o);"/><path d="m9.66,13.64l-.2,1.65c.7-.67,1.34-1.33,2.15-2.17-.77.21-1.4.38-1.95.52Z" style="fill:url(#p);"/><path d="m81.8,67.51c-4.59,1.25-5.71,1.51-8.4,2.16-1.42-1.97-3.29-4.58-4.72-6.54-.01,2.32-.02,4.33-.28,7.52-4.94,1.08-6.25,1.33-10.02,2.04,5.2,1.12,6.95,1.5,9.53,2.09-.86,3.38-1.21,4.55-2.32,7.42,2.76-2.04,4.38-3.29,7.19-5.99,2.55.85,5.95,2,8.49,2.86l-5.26-5.99c2.88-2.56,3.87-3.56,5.78-5.57Z" style="fill:url(#q);"/><path d="m15.16,5.19c1.78-2.85,1.93-3.08,3.59-5.63,2.25.87,5.24,2.02,7.49,2.89l-5.4-5.71c2.4-2.44,2.83-2.83,5.21-5.01-2.65.58-5.29,1.18-7.95,1.75-1.45-1.87-3.39-4.35-4.84-6.22.24,2.98.3,3.6.74,7-.68.16-1.36.32-2.03.48l-.31,2.51c1.03.3,2.03.59,2.92.84.18,2.47.25,3.49.57,7.1Z" style="fill:url(#r);"/><path d="m163.72,36.88c3.22-.16,3.73-.21,5.64-.35-3.85-1.03-5.03-1.35-8.36-2.32-1.45-1.49-3.39-3.49-4.85-4.98,0,3.09.05,3.54.05,3.58-2.91-.78-5.83-1.57-8.75-2.35,2.89,1.44,5.79,2.85,8.67,4.33-.15.87-.39,2.33-.54,3.48,4.1-.83,5.18-1,5.18-1,2.48,1.37,5.79,3.2,8.28,4.57l-5.31-4.96Z" style="fill:url(#s);"/><path d="m181.07,57.28c-4.11-1.02-4.74-1.18-8.74-2.07-1.44-1.56-3.35-3.64-4.8-5.19,0,1.38,0,2.76.03,4.14-3.48-.6-4.62-.77-6.92-1.05-.48-.06-1.01-.12-1.63-.2,4.38,1.86,6.78,2.88,8.62,3.71-.2,2.76-.26,3.76-.3,4.75,1.6-.94,2.69-1.56,4.92-2.49,2.47,1.28,5.77,3,8.24,4.29l-5.44-5.17c2.77-.42,3.86-.53,6.03-.73Z" style="fill:url(#t);"/><path d="m212.18,45.08c1.21-.61,3.71-1.87,6.24-3.63q-3.52.35-8.84.58c-1.41-1.75-3.27-4.09-4.71-5.82q.03,1.61-.33,5.75c-2.82-.07-4.86-.12-8.94-.5,2.63,1.05,6.14,2.42,8.78,3.44-.54,3.69-.64,4.8-.64,4.8,1.83-.85,2.75-1.28,5.33-2.82,2.51,1.1,5.86,2.57,8.38,3.65l-5.28-5.45Z" style="fill:url(#u);"/><path d="m199.11,52.92c-3.32-.7-4.81-1.02-8.57-1.95-1.45-1.53-3.38-3.57-4.83-5.11.06,1.7.06,1.88.19,3.83-2.39-.65-4.11-1.12-8.28-2.32,2.53,1.31,5.92,3.06,8.45,4.36-.11,1.24-.18,1.99-.27,3.45,1.2-.24,2.4-.47,3.59-.72.36-.08.82-.31,1.19-.26h.02c2.44,1.36,5.69,3.18,8.13,4.54l-5.47-5.04c2.83-.3,3.59-.41,5.84-.78Z" style="fill:url(#v);"/><path d="m223.25,70.06c2.91-.62,3.64-.81,6.09-1.53l-.67-.08c-3.15-.39-4.55-.58-8.14-1.21-1.45-1.6-3.38-3.73-4.82-5.34,0,1.86,0,2.15.05,4.31-2.42-.52-4.51-.97-8.48-1.97,2.57,1.27,6.01,2.96,8.58,4.22-.18,2.81-.17,3.72-.17,3.72,1.79-.44,2.72-.68,4.78-1.33,2.47,1.31,5.76,3.06,8.23,4.37l-5.46-5.17Z" style="fill:url(#w);"/><path d="m118.1,35.11l-4.62-5.9c5.22-2.65,7.66-3.68,7.66-3.68,0,0-6.25-.34-9.73.33-1.03-1.92-2.14-4.69-3.58-6.33-1,2.44-2.09,4.85-3.07,7.31-3.64.66-7.27,1.34-10.92,2,2.89.62,6.75,1.45,9.64,2.06-1.09,3.31-1.34,4.19-2.03,7.28,3.27-2.87,4.09-3.53,7.24-5.88,2.82.84,6.58,1.97,9.41,2.81Z" style="fill:url(#x);"/><path d="m126.97,56.81c-3.15.63-6.29,1.3-9.45,1.93-1.39-1.94-3.26-4.51-4.65-6.45-.15,3.13-.18,3.7-.1,7.29-2.64.59-5.28,1.2-7.93,1.76,2.46.67,5.73,1.57,8.19,2.24.11,3.25.16,4.12.41,7.14,1.81-2.67,2.24-3.3,4.05-5.65,2.43.89,5.67,2.08,8.1,2.96l-5.41-5.93c3.09-2.59,3.73-3.06,6.78-5.29Z" style="fill:url(#y);"/><path d="m96.27,45.74c-2.69.6-5.37,1.22-8.06,1.79-1.5-1.91-3.5-4.46-4.99-6.37.29,3.03.35,3.67.81,7.15-2.39.55-4.78,1.12-7.18,1.63,2.34.69,5.46,1.6,7.8,2.28.15,1.8.41,4.83.69,7.23q2.08-3.39,3.56-5.71c2.3.9,5.37,2.09,7.67,2.99l-5.57-5.87c2.42-2.48,2.86-2.88,5.27-5.11Z" style="fill:url(#z);"/><path d="m150.97,40.82c-3.86-.7-4.81-.86-8.63-1.34-1.43-1.63-3.34-3.8-4.79-5.43,0,1.63.03,3.25.06,4.89-4.98-.33-10.13.65-10.13.65,0,0,7.2,1.39,10.2,2.31-.43,1.45-1.28,3.28-2.01,4.6-.41.74-1.23,2.54-1.23,2.54,0,0,5.3-3.3,7.82-5.16,2.45,1.15,5.72,2.69,8.17,3.85l-5.41-5.34c2.93-.95,4.13-1.19,5.94-1.56Z" style="fill:url(#aa);"/><path d="m101.19.93c-1.39-1.51-3.24-3.53-4.63-5.05-.06,1.4-.07,1.69-.1,4.01-3.32-.57-4.46-.75-6.75-1.03-.51-.06-1.08-.13-1.74-.21,4.18,1.77,6.71,2.83,8.49,3.63-.33,2.94-.45,4.6-.46,4.61,1.65-.91,2.75-1.52,4.98-2.4,2.43,1.25,5.68,2.93,8.1,4.2l-5.27-5.03c2.82-.4,3.91-.48,6.08-.64-4.2-1.06-5.01-1.25-8.71-2.09Z" style="fill:url(#ab);"/><path d="m193.94,12.67c-2.75.57-4.91,1.02-8.91,1.57,2.61.71,6.11,1.63,8.73,2.3-.53,4.59-.7,6.53-.7,6.55,3-2.65,4.57-4.23,5.37-5.1,2.49.84,5.81,1.95,8.31,2.77l-5.22-5.77c2.26-1.9,4.51-3.86,6.68-5.83-2.29.66-5.13,1.48-9.27,2.51-1.36-1.92-3.17-4.47-4.52-6.39-.14,1.91-.29,4.07-.47,7.39Z" style="fill:url(#ac);"/><path d="m130.98,17.36c-1.39-1.49-3.25-3.47-4.64-4.95-.15,2.33-.17,3.6-.17,3.62-4.31-1.07-5.1-1.25-8.61-2.01,4.05,1.92,6.97,3.31,8.58,4.1-.27,1.82-.41,3.11-.48,3.86,3.83-1.26,5.06-1.46,5.06-1.46,2.45,1.34,5.72,3.12,8.17,4.45l-5.29-4.95c2.07-.11,4.15-.19,6.23-.28-2.95-.79-5.9-1.59-8.84-2.38Z" style="fill:url(#ad);"/><path d="m114.74,1.07c2.8-.46,4.91-.85,4.91-.86,2.39,1.34,5.58,3.11,7.98,4.44L122.33-.23c2.87-.25,3.57-.33,5.87-.66-3.31-.72-4.81-1.05-8.51-1.98-1.4-1.49-3.27-3.47-4.66-4.95,0,1.55,0,1.79.05,3.66-2.05-.57-3.99-1.1-8.23-2.34,2.5,1.29,5.83,3.01,8.33,4.3-.11.73-.36,2.45-.45,3.29Z" style="fill:url(#ae);"/><path d="m77.65,15.2c-1.2-1.91-2.82-4.45-4.01-6.37-.78,3.12-.95,3.77-1.51,7.27-3.03.6-6.06,1.25-9.09,1.85,2.6.64,6.08,1.49,8.68,2.12-.39,3.24-.47,4.11-.6,7.13,1.64-1.9,2.64-3.05,5.33-5.69,2.57.85,5.98,1.98,8.54,2.83l-4.98-5.83c3.9-2.54,4.87-3.1,8.83-5.34-3.73.66-7.46,1.35-11.19,2.03Z" style="fill:url(#af);"/><path d="m179.1,28.21c-1.38-1.64-3.23-3.83-4.61-5.47-.13,2-.16,2.42-.26,4.84-2.73-.37-4.7-.64-8.65-1.4,2.58,1.17,6.02,2.72,8.6,3.88-.15,1.16-.43,3.33-.47,4.04,2.53-.8,2.86-.93,5.08-1.83,2.47,1.21,5.75,2.83,8.22,4.03l-5.29-5.21c3.04-1.01,3.81-1.32,6.42-2.47-3.56-.05-5.16-.08-9.03-.41Z" style="fill:url(#ag);"/><path d="m163.83,1.4q-1.67.12-8.74.43c2.61.83,6.09,1.98,8.69,2.89-.1,1.87-.56,3.68-.84,5.52,4.8-2.93,5.4-3.8,5.4-3.8,2.45.97,5.72,2.25,8.17,3.2l-5.23-5.55c2.01-1.4,3.87-2.76,6.41-4.83-4.7,1.01-5.44,1.13-9,1.68-1.36-1.82-3.19-4.24-4.55-6.07-.23,4.19-.26,4.86-.31,6.51Z" style="fill:url(#ah);"/><path d="m149.16,13.1c-1.39-1.55-3.25-3.61-4.64-5.17-.07,1.86-.07,2.06-.09,4.13-2.9-.64-4.65-1.03-8.41-2,2.53,1.25,5.91,2.91,8.45,4.15-.28,2.65-.32,3.54-.32,3.54.87-.19,2.32-.5,3.77-.89.32-.09.75-.33,1.09-.29,2.42,1.29,5.65,3.01,8.08,4.29l-5.28-5.01c2.93-.55,3.66-.73,6.12-1.4-2.84-.36-4.71-.6-8.76-1.35Z" style="fill:url(#ai);"/><path d="m56.09,2.5c-3.1.61-6.2,1.26-9.3,1.87-1.35-1.88-3.16-4.39-4.5-6.29-.17,2.97-.21,3.68-.15,7.14-2.59.58-5.18,1.18-7.78,1.73,2.4.65,5.61,1.52,8.01,2.17.07,2.76.09,3.51.34,6.98,1.21-1.76,2.08-3.03,4.02-5.53,2.37.86,5.54,2.02,7.92,2.87l-5.25-5.78c2.97-2.46,3.65-2.96,6.7-5.17Z" style="fill:url(#aj);"/><path d="m32.33,32.24c2.36.82,5.5,1.91,7.85,2.74l-5.36-5.88c2.27-2.46,2.85-3.14,5.01-5.64-4.65,1.4-5.42,1.62-7.72,2.27-1.46-1.94-3.42-4.52-4.88-6.46.16,2.03.36,4.55.51,7.5-4.12,1.1-4.37,1.15-8.37,2.1,3.95.92,7.36,1.71,8.5,2-.18,2.96-.27,4.29-.73,7.36,1.62-1.67,2.78-2.88,5.18-5.98Z" style="fill:url(#ak);"/><path d="m146.88,139.68l.11,1.74c.11.25.16.4.16.4l-.27-2.14Z" style="fill:none;"/><path d="m96.34,61.08c-.38-2.17,1.29-3.15,1.26-3.84-.03-.69.1-1.83.07-2.23-.02-.16-.14-.07-.29.02-.2.13-.43.26-.44-.26-.03-.76.06-1.47.43-2.06.13-.21.26-.96.6-1.43.9-1.26,3.53-.96,3.53-.96.3-.37-2.63-.3-2.63-.3,0,0,.4-.23.47-.57.07-.35-.08-.54-.08-.54l.36-.6s-.36-.98-.58-1.1c-.22-.12-.03-1.66-.03-1.66,0,0-.53.07-.5-.06.16-.65.37-.77.37-.77,0,0-.41-.46-.63-.69-.22-.24-.13-.64-.13-.64l-.5-.76s-.06-1.73-.03-2.16c.03-.43.57-.7,1.3.16.16.19.5-.26.5-.26l-.23-.43-1.4-.47s.1-.4.14-.93c.03-.53.4-.93.63-1.13.05-.04.15-.07.27-.08-.24-.03-.87-.1-1.04.04-.23.2-.6.6-.63,1.13-.03.53.03,1.5.03,1.5l-.09,1.79.12.48.17,1.08s.35.2.57.43c.22.24.2.37.2.37,0,0,.1.72-.23,1.3-.34.57.03,1.2.03,1.2,0,0,.48.61.7.73.22.11.25.89.25.89l-.36.6s-.02.15-.09.5c-.07.33-.3.6-.3.6,0,0-.38.22-.9.9-.35.46-.13,1.06-.6,1.79-.38.59-.46,1.29-.43,2.06.04.9.64,1.16.67,1.56.03.4-.03,1.34-.03,1.34,0,0-2.69,1.78-3.29,4.45l2.82-1.01Z" style="fill:#e0e0e0;"/><path d="m103.85,57.68s-.14-.64.03-1.3c.16-.67.5-.87.6-1.69.08-.62-.17-1.83-.5-2.26-.77-1.01-1.1-1.23-1.83-2.2,0,0,.03-.8.5-.89.5-.1.46-1.71,1.06-2.2.6-.48.59-1.74.5-1.93l-.03-.02-.04-.03c-.06-.01-.16,0-.26.01-.24.03-.55.06-.69-.23-.24-.48-.16-1.9-.16-1.9,0,0,.2-1.79-.29-2.51-.48-.72-1.2-1.79-1.2-1.79,0,0-.35-.42-.6-.48-.25-.06-.41-.03-.41-.03,0,0-.28-.32.03-.5.23-.13.33-.38.38-.55.12-.48.15-.91.15-.91l-.03-.54s-.23-.37-.7-.37c-.12-.06-.05-.23-.23-.26,0,0,.97-.59.97-.93,0-.16-.3-.03-.57.04l-.07-.2-.23.03c-.18-.06.04-.4.04-.4l-.3.13-.26.2-.26-.4s.05.56-.1.64c-.16.07-.47-.04-.47-.04l-.16.57-.88.4-.05.4-.6.76s-.3.83,0,.83c.2,0,.11-.06.31-.18.11-.07.22-.13.31-.18.27-.14.57-.64.57-.64l.56-.09v.42l-.03.28-.09.65v.02s-.1-.01-.1-.01c-.12.01-.21.03-.27.08-.23.2-.6.6-.63,1.13-.03.53-.13.93-.13.93l1.4.47.23.43s-.33.46-.5.26c-.73-.86-1.26-.6-1.3-.16-.03.43.04,2.16.04,2.16l.5.77s-.09.39.13.63c.22.24.63.7.63.7,0,0-.2.11-.37.76-.03.13.5.07.5.07,0,0-.18,1.54.04,1.66.22.12.58,1.1.58,1.1l-.37.6s.15.19.08.54c-.06.33-.47.57-.47.57,0,0,2.93-.07,2.63.3,0,0-2.63-.3-3.52.96-.33.47-.47,1.22-.6,1.43-.38.59-.46,1.3-.43,2.06.01.52.24.38.43.26.15-.1.28-.2.3-.03.04.4-.09,1.54-.06,2.22.03.69-1.66,1.69-1.3,3.72l11.15.62c0-.05-.3-1.85-3.54-3.94Zm-4.79-.57c-.06.33-.47.53-.54.13-.06-.4.1-2.32.1-2.32.06-.22.11-.18.2-.13.04.03.09.04.16.03.2-.04.13,1.96.07,2.29Z" style="fill:#333;"/><path d="m166.31,147.98c.06-7.1-5.08-11.7-8.13-14.01,0,0-1.85-2.45-3.25-3.65-3.47-2.98-4.6-3.58-4.6-3.58-4.16-16.1-15.09-29.67-31.15-35.55.28.1.45-.38.45-.38-.17-.67-.74-1.34-1.23-1.95-.05-.06-.26.01-.47.09-.18.06-.37.13-.46.1,0,0-.64-.62-.96-.88l-1.4-1.03s-.55-.2-.66-.26c-.19-.1.21-.82.01-.91-.4-.2-.82-.38-1.27-.55-.43-1.01-1.21-1.93-2.23-2.73l-.24-8.7c.34-.6.54-1.25.54-1.93,0-.16-.02-.32-.04-.48,1-1.1,1.58-2.36,1.58-3.71,0-4.14-5.35-7.49-11.93-7.49s-11.94,3.36-11.94,7.49c0,1.57.78,3.03,2.1,4.23,0,.57.14,1.11.39,1.62l-.26,9.74c-.86.88-1.44,1.86-1.67,2.92-.56.3-1.07.63-1.53.97-1.63,1.21-3.04,2.7-3.19,4.24-15.63,6.29-27.27,20.49-30.07,37.72-3.23,2.88-5.89,6.06-7.86,9.52-4.27,3.98-5.57,8.98-5.43,13.59.08,2.61.71,4.94,2.21,7.26l.17,4.66c9.98,9.19,35.04,14.55,60.35,13.77,34.74-1.06,62.02-14.56,62.16-30.14Z" style="fill:#333;"/><path d="m151.15,127.82c2.51,2.37,4.47,3.95.08.61-3.41-2.6-7.91-5.5-13.25-7.74-11.96-5.03-25.93-6.11-36.61-5.83-21.57.59-39.42,9.75-45.12,13.76-3.67,2.58-6.76,6.41-8.51,8.98,0,0,.47,0-1.05,1.51.7-1.16,4.06-8.03,10.5-12.47,11.35-7.84,24.6-13.18,43.49-13.76,19.87-.62,38.95,4.08,50.49,14.94Z" style="fill:#e0e0e0;"/><path d="m88.26,91.77s-5.87,1.15-8.41,9.72-2.74,15.6-2.74,15.6l5.71-1.87s1.32-17.94,5.43-23.45Z" style="fill:#e0e0e0;"/><path d="m80.55,95.19s-7.09,4.24-9.82,15.92c-1.78,7.61-1.51,9.03-1.51,9.03l4.94-2.3s1.84-16.35,6.38-22.65Z" style="fill:#e0e0e0;"/><path d="m72.07,101.57s-4.29,3.67-6.3,10.93-2.54,10.93-2.54,10.93l3.32-2.19s2.1-13.38,5.51-19.68Z" style="fill:#e0e0e0;"/><path d="m66.15,108.1s-4.29,4.63-6.3,11.89-1.98,6.88-1.98,6.88l3.26-2.33s1.6-10.14,5.01-16.44Z" style="fill:#e0e0e0;"/><path d="m94.71,90.2s-3.94-.17-5.6,3.06-2.1,4.81-2.71,7.17c-.23.88-.74,4.31-.95,6.85-.34,4.25-.31,8.03-.31,8.03l7.02-1.44s-2.7-14.22,2.54-23.66Z" style="fill:#e0e0e0;"/><path d="m100.5,88.73s-2.34.21-3.46,1.38c-.56.58-2.24,2.53-1.71,8.57.52,6.03.52.61.52.61,0,0,.61-2.1,1.75-1.22.54.42.44,1.75,1.31,1.92s1.92,3.06,1.92,3.06l-.33-14.32Z" style="fill:#e0e0e0;"/><path d="m102.06,89.15s2.56-.76,3.61.11c.54.45,2.52,3.99,3.25,6.71.67,2.51.96,8.63.96,8.63,0,0-1.34-3.64-2.22-3.82s-1.31-.44-1.22-.96-.44-2.27-.87-2.27c-.61,0-.96,1.49-.96,1.49,0,0-2.19-6.47-2.54-9.88Z" style="fill:#e0e0e0;"/><path d="m106.78,89.5s4.42-.92,6.93,2.8c1.93,2.85,4.31,10.65,4.31,10.65,0,0-2.58-2.17-2.84-2.43s-.35-.7-.44-1.14-1.22-1.4-1.22-1.4l-.44.79s-3.06-6.73-6.3-9.27Z" style="fill:#e0e0e0;"/><path d="m112.54,89.94s8.23,1.73,10.59,8.11c2.02,5.45,1.4,4.22,1.4,4.22,0,0-2.31-5.71-6.73-6.82,0,0-1.4-3.44-5.26-5.51Z" style="fill:#e0e0e0;"/><path d="m124.52,94.36s8.09,3.51,9.89,8c0,0-4.11-4.02-7.52-5.51l-2.37-2.49Z" style="fill:#e0e0e0;"/><path d="m89.03,90.73s-4.9-.35-8.74,4.81c-4.57,6.13-5.6,18.19-5.6,18.19,0,0-1.31,1.05-1.4,2.01-.21,2.35-.09,2.36-.09,2.36,0,0,2.54,2.36,2.71-1.57s1.49-14.95,5.33-20.64c3.06-4.52,7.78-5.16,7.78-5.16Z" style="fill:#e0e0e0;"/><path d="m69,106.55c-1.73,4.08-2.54,8.31-2.95,11.22-.34.34-.76.88-.81,1.46-.09.96-.09,2.54-.09,2.54l.41-.11-.7,1.25,1.98-.93.93-1.52c.41-5.26,1.7-9.64,2.95-13.12,4.62-12.94,12.97-14.69,12.97-14.69,0,0-9.09.7-14.69,13.9Z" style="fill:#e0e0e0;"/><path d="m61.67,119.81c-.25.01-.56.12-.71.56-.26.79-.52,4.63-.52,4.63l1.17-.47.79-.65s.68-9.2,5.02-17.24c1.58-2.94,3.74-6.22,6.41-8.14,0,0-9.73,5.73-12.14,21.3Z" style="fill:#e0e0e0;"/><path d="m63.76,107.43c-3.17,4.04-6.69,10.2-8.29,17.59-.3.36-.67.88-.72,1.38-.09.87-.52,2.8-.52,2.8l.62-.52v.08s1.91-1.66,1.91-1.66c0,0,3.06-17.66,13.9-26.23,0,0-3.21,1.85-6.91,6.56Z" style="fill:#e0e0e0;"/><path d="m94.28,90.11s-2.97-1.49-5.25.61-5.86,7.17-6.12,20.46c0,0-.7.26-.87,1.14s-.26,3.12-.26,3.12l1.98-.35s-.23-8.28,1.69-15.36c1.94-7.15,5.16-11.02,8.83-9.62Z" style="fill:#e0e0e0;"/><path d="m95.94,89.5c.45-.24,1.09-.41,1.49-.26,0,0-1.22-1.14-2.45,0-.72.67-2.45,2.19-3.24,10.41-.31,3.22-.37,7.6-.35,9.44.03,2.3.89,5.97,1.03,4.96.17-1.23-.03-12.95.81-17.64.7-3.94,1.56-6.29,2.71-6.91Z" style="fill:#e0e0e0;"/><path d="m112.54,89.94s4.57-.35,9,4.32c5.36,5.65,6.84,16.93,6.84,16.93,0,0,.82.62.96,1.57.34,2.34.52,3.63.52,3.63,0,0-2.4,2.21-2.79-1.71-.39-3.92-1.79-13.6-5.95-19.06-3.31-4.35-8.58-5.68-8.58-5.68Z" style="fill:#e0e0e0;"/><path d="m137.21,116.61c-.26-.52-.7-.55-1.05-.87-.57-2.88-1.02-7.04-2.97-11.02-6.32-12.88-15.48-12.94-15.48-12.94,0,0,.44.13,1.16.45.64.56,3.74,3.57,3.74,3.57,0,0,3,.99,5.45,3.79,1.9,2.17,6.04,9.51,6.53,18.89l1.52,1.17,1.57-.12s-.03-2.05-.46-2.91Z" style="fill:#e0e0e0;"/><path d="m133.37,100.43c3.32,4.09,4.26,7.01,4.07,6.66-2.46-4.67-6.05-9.03-11.33-11.99,0,0,3.15.44,7.26,5.33Z" style="fill:#e0e0e0;"/><path d="m138.61,104.19c1.75,2.27,1.92,3.15,1.92,3.15-3.85-6.21-8.75-8.38-8.75-8.38,1.49.59,3.17.48,6.82,5.23Z" style="fill:#e0e0e0;"/><path d="m107.53,89.62s3.16-1.3,5.55.67c2.39,1.97,5.77,8.39,6.7,18.51,0,0,.98,1.46,1.2,2.32.22.86.2,3.63.2,3.63l-2.33-.58s-.4-8.86-2.71-15.83c-2.34-7.04-5.16-9.18-8.61-8.72Z" style="fill:#e0e0e0;"/><path d="m104.08,88.92s1.6-.69,2.33-.03c.74.66,2.94,3.19,3.87,10.4.41,3.2.92,9.11.92,9.11-.75-.37-1.18,1.38-1.18,1.38,0,0-.57-9.88-1.66-14.52-.92-3.89-3.15-6.73-4.28-6.35Z" style="fill:#e0e0e0;"/><path d="m100.57,88.45s.82-.26.87.79c.06,1.05.44,19.73.44,19.73,0,0-.48-.05-.81.18-.42.29-.84.66-.84.66,0,0-.42-19.86-.37-20.56.05-.7.71-.79.71-.79Z" style="fill:#e0e0e0;"/><path d="m178.36,185.5c.21-.37.38-.74.55-1.12.57-1.45,1-3.1.92-4.64-.83-14.53-34.45-24.8-75.84-23.22-.72.03-1.44.06-2.15.09-40.18,1.91-72.63,14.27-75.28,28.16,0,.3,0,.61.01.92.16,3.27,1.46,6.36,3.75,9.23l2.96,16.14,124.76,4.31,23.21-4.55-2.88-25.32Z" style="fill:#333;"/><path d="m97.79,68.65c0-.73-.3-.96-.66-.96s-.66.23-.66.96v12.37c.43-.12.87-.23,1.33-.32v-12.06Z" style="fill:#e0e0e0;"/><path d="m94.21,70.11c0-.73-.24-.83-.53-.83s-.53.1-.53.83v12.27c.33-.19.69-.37,1.06-.54v-11.72Z" style="fill:#e0e0e0;"/><path d="m91.92,72.46c0-.73-.13-1.33-.3-1.33s-.3.59-.3,1.33v11.08c0,.07-.03.66-.03.72.18-.18.41-.58.62-.75v-11.05Z" style="fill:#e0e0e0;"/><path d="m102,80.33v-12.48c0-.73-.13-.96-.3-.96s-.3.23-.3.96v12.48c.09,0,.18,0,.27,0,.11,0,.22,0,.33,0Z" style="fill:#e0e0e0;"/><path d="m85.07,91.72c1.23-4.35,8.36-7.68,16.96-7.68,6.8,0,12.67,2.08,15.45,5.1-2.54-3.19-8.62-5.43-15.71-5.43-8.94,0-16.27,3.56-16.94,8.08-.03.22.11.37.24-.07Z" style="fill:#e0e0e0;"/><path d="m89.94,86.35c1.74-3.24,6.43-5.56,11.95-5.56,3.69,0,7,1.04,9.32,2.7-2.23-2.04-5.78-3.37-9.79-3.37-5.86,0-10.76,2.82-11.95,6.58l.47-.35Z" style="fill:#e0e0e0;"/><path d="m89.59,66.91c1.71-2.9,6.29-4.97,11.69-4.97,3.61,0,6.86.93,9.13,2.41-2.18-1.82-5.66-3.01-9.58-3.01-5.74,0-10.53,2.52-11.7,5.88-.18.51-.25,1.79-.25,1.89.05-.77.29-1.51.7-2.21Z" style="fill:#e0e0e0;"/><path d="m89.58,65.51c1.67-2.72,6.17-4.67,11.48-4.67,3.55,0,6.73.88,8.96,2.27-2.14-1.71-5.55-2.83-9.4-2.83-5.63,0-10.33,2.37-11.48,5.53-.17.48-.25,1.68-.24,1.78.05-.73.29-1.42.69-2.07Z" style="fill:#e0e0e0;"/><path d="m181.81,217.95l6.23,2.44c2.85-2.27,5.82-4.38,9.04-6.14.02-.01.05-.02.07-.04l-18.7-9.12-21.25,5.62-125.94-51.12-26.09,10.13,4.07,20.59v-18.54l44.93,15.46,8.02-3.31,97.18,38.21,22.45-4.19Z" style="fill:#e0e0e0;"/><path d="m163.6,156.04c1.6-1.71,2.49-5.87,2.41-8.43-.5-15.1-29.23-29.8-63.95-28.66-34.72,1.14-62.29,17.69-61.79,32.79.04,1.07.27,3.4,1.71,5.59.27.41,1.4,2.01,1.4,2.01-1.66-2.45-1.82-5.11-1.58-6.51,1.12-6.42,8.8-24.49,59.91-25.49,57.38-1.12,62.68,15.36,61.49,24.11.14.77.21,1.58.25,2.5,0,0,.07.91.15,2.08Z" style="fill:#e0e0e0;"/><path d="m103.99,156.51c41.39-1.57,75.01,8.69,75.84,23.22-.69-14.54-34.44-24.79-75.84-23.22Z" style="fill:#e0e0e0;"/><path d="m163.54,155.21c9.83-15.57-17.36-24.67-27.63-27.23-21.45-5.35-45.18-4.55-66.32,1.86-7.86,2.38-15.97,5.67-22.26,11.1-4.63,4.01-7.87,10.3-5.05,16.45.15.32,1.34,2.29,1.34,2.29,0,0,119.72,6.77,121.02,6.13.1-.05-.87-4.69-.85-4.82,0,0-.13-4.03-.25-5.78Z" style="fill:#333;"/><path d="m101.83,156.61c.72-.03,1.44-.06,2.16-.09,41.39-1.57,75.14,8.68,75.84,23.22.07,1.56-.25,3.11-.91,4.64-.17.44-.35.86-.53,1.25l.03.22c1.23-2.3,1.9-4.58,1.79-7.1-.85-17.83-36.07-31.03-78.44-29.01-41.64,1.98-74.86,17.55-75.19,35.01,2.65-13.89,35.09-26.24,75.28-28.15Z" style="fill:#e0e0e0;"/><path d="m177.68,180.92c-2.75-13.38-34.61-22.55-75.85-20.58-41.25,1.96-74.16,14.62-73.51,28.26.03.65.14,1.3.32,1.93,3.49-12.57,34.71-23.7,73.19-25.53,41.25-1.96,75.21,7.51,75.86,21.15.01.21.01.43,0,.64.23-.72.36-1.46.36-2.21,0-.23.15-1.12-.37-3.67Z" style="fill:#e0e0e0;"/><path d="m152.33,155.31s15.39,3.32,23.62,13.14c6.88,8.21,4.49,13.45,2.44,17.41l2.07,20.48-1.79-.86-3.25,1,.86-18.58.53-3.52s-2.79-11.41-11.48-15.53c0,0-2.79-8.89-13.01-13.54Z" style="fill:#333;"/><path d="m150.34,127.04c-.68-.66-3.85-3.12-3.85-3.12,0,0,9.62,6.04,11.81,9.95,0,0,6.29,4.3,7.68,10.77,1.5,7-2.38,11.63-2.38,11.63l-.11-.74s3.65-4.61,2.11-10.64c-1.55-6.07-10.09-13.2-14.07-16.19,0,0-.39-.87-1.19-1.66Z" style="fill:#333;"/><path d="m37.57,197.04l.14-15c-.76.54-1.47,1.1-2.09,1.66l-.91,13.97,2.86-.63Z" style="fill:#e0e0e0;"/><path d="m32.71,199.68l.12-12.57c-.27.48-.48.96-.65,1.45l-.75,11.55,1.29-.42Z" style="fill:#e0e0e0;"/><path d="m44.42,197.47l.22-19.29c-.88.39-1.72.8-2.52,1.21l-1.13,18.72,3.43-.63Z" style="fill:#e0e0e0;"/><path d="m53.13,193.78l.14-18.79c-.84.26-1.65.52-2.45.79l-1.12,18.63,3.43-.63Z" style="fill:#e0e0e0;"/><path d="m64.7,190.4l-.27-18.24c-1.08.22-2.13.45-3.16.69l-.42,18.29,3.86-.74Z" style="fill:#e0e0e0;"/><path d="m77.7,185.2l-.56-15.18c-1.17.16-2.32.32-3.45.49l-.27,15.43,4.29-.74Z" style="fill:#e0e0e0;"/><path d="m92.59,190.07l-1.16-21.5c-1.5.11-2.98.23-4.44.36l1.03,22.2,4.57-1.05Z" style="fill:#e0e0e0;"/><path d="m107.15,195.19l-1.44-27.27c-.44,0-.87.01-1.31.02-.95.02-1.88.06-2.82.09l1.42,28.21,4.14-1.05Z" style="fill:#e0e0e0;"/><path d="m122.01,202.54l-2.02-34.48c-1.27-.05-2.55-.09-3.85-.12l1.87,34.5,4,.11Z" style="fill:#e0e0e0;"/><path d="m136.43,202.85l-2.53-33.79c-1.13-.12-2.27-.24-3.43-.34l2.39,34.02,3.57.11Z" style="fill:#e0e0e0;"/><path d="m148.86,204.75l-3.08-33.98c-.91-.17-1.83-.33-2.76-.48l2.84,34.46h3Z" style="fill:#e0e0e0;"/><path d="m159.71,206.23l-2.98-32.93c-.82-.23-1.65-.46-2.51-.68l2.78,33.61h2.71Z" style="fill:#e0e0e0;"/><path d="m169,208.02l-3.12-31.49c-.73-.32-1.49-.63-2.27-.94l2.96,32.32,2.43.1Z" style="fill:#e0e0e0;"/><path d="m175.85,209.6l-3.04-29.19c-.55-.4-1.14-.8-1.76-1.19l2.94,30.16,1.86.21Z" style="fill:#e0e0e0;"/><path d="m176.68,184.16c-.37-.5-.79-1-1.26-1.49l2.71,27.98h.02c.57-.03,1.16.13,1.16.13l-2.63-26.62Z" style="fill:#e0e0e0;"/><path d="m170.55,207.38l2.01-.54s-6.7-2.56-17.61-4.55c-10.91-1.98-25.38-2.56-25.38-2.56l3.51,1.42c4.96.3,14.28,1,21.88,2.38,7.4,1.35,12.85,2.95,15.6,3.85Z" style="fill:#e0e0e0;"/><path d="m170.55,207.38c-2.75-.9-8.2-2.51-15.6-3.85-7.6-1.38-16.91-2.08-21.88-2.38l24.19,9.82,13.28-3.59Z" style="fill:#333;"/><path d="m157.46,212.52l21.09-5.78.9,6.44.86,1.02-.32,1.61,1.6-.37,8.23,3.58c2.25-1.7,4.59-3.28,7.07-4.65l-18.21-8.9-21.31,5.87-126.11-51.73-12.96,5.06.15,1.56,12.63-4.47v16.73l22.54,7.74,8.33-3.58,95.91,36.64-.4-6.75Z" style="fill:#333;"/><path d="m163.73,151.42c-.58-12.57-26.67-22.57-58.72-22.57s-54.48,11.06-60.33,20.96c-1.65,2.79-1.08,7.1-1.1,6.3-.06-1.72.4-3.41,1.31-5.05-.67,2.02-.56,4.32-.56,4.32l-.15,8.91h.76l.13-13.55c.46-.77,1.01-1.54,1.66-2.29l.12,16.09,1.91.13-.25-18.04c1.01-.92,2.16-1.82,3.43-2.69l.02,2.06c-.73.81-2,2.17-2,5.11l.04,10.36.78-.6s.13-9.47.13-10.24c0-1.51.58-2.15,1.07-2.33l.09,11.8,1.91.13-.24-17.44c1.62-.99,3.4-1.93,5.32-2.83v2.08c-.66.14-1.42.43-2.03,1.05-1.4,1.4-1.52,3.94-1.65,6.22-.13,2.29,0,10.67,0,10.67l.76-.76s-.29-8.31.04-11c.35-2.76,2.25-3.63,2.81-3.5l.07,13.48,2.35-.53-.18-18.68c1.99-.85,4.11-1.65,6.34-2.39v1.66s-2.16-.13-3.94,1.78c-.42.45-.97,2.69-.89,4.42v14s1.39-1.02,1.39-1.02c0,0-.38-10.54-.25-12.7.13-2.16,1.13-2.96,2.03-3.3,1.15-.43,1.52,1.02,1.52,1.02v14.06s3.68-1.48,3.68-1.48l-.22-19.46c2.19-.65,4.32-1.21,6.67-1.76l-.1,1.91s-1.4-.64-3.43.38c-2.92,1.46-2.22,4.43-2.4,5.33l.25,13.72,1.02-.25-.18-13.32s-.17-2.13,1.98-2.78c2.03-.6,2.51,1.24,2.51,1.24l.25,13.97,3.56-.64.13-20.32h-.12c2.53-.5,5.13-.94,7.77-1.31l-.06,2.3s-2.25-.91-4.54.15c-2.17,1-1.95,3.02-1.91,4.45.04,1.29-.13,14.35-.13,14.35l1.02-.25s0-12.7-.13-13.34c-.13-.64.51-2.54,2.41-2.79,1.87-.25,2.41,1.27,2.41,1.27l.25,13.97,4.45-.64-.37-19.9c2.82-.32,5.68-.56,8.55-.7l.2,3.07s-2.67-2.54-6.22-.89c-2.16,1-1.78,3.3-1.78,4.45,0,1.3.25,14.35.25,14.35l1.02-.25s0-12.7-.13-13.34c-.13-.64.51-2.54,2.41-2.79,1.87-.25,2.88,1.51,2.88,1.51l.17,13.6,4.94-.51-.36-19.32c1.12-.02,2.23-.04,3.33-.04,30.67,0,55.68,10.26,56.08,22.64.03.8.22-.61.17-1.66Zm-51.24-18.1v1.18s-2.05-3.27-5.77-1.88c-2.24.83-2.22,2.84-2.22,3.98,0,1.3.25,14.35.25,14.35l1.4-.64-.13-13.21c-.03-.74.13-2.25,2.03-2.54,2.08-.31,2.86,1.5,2.86,1.5l.45,13.61,5.21.25-.78-16.38-3.3-.24Zm17.54,1.41c-1.5.05-2.37.68-2.82,1.57l-.12-1.8-2.94-.35v2s-.94-2.71-4.36-2.59c-2.59.09-3.3,1.88-3.22,3.8.05,1.29.51,13.72.51,13.72l1.14-.51s-.62-11.87-.64-12.51c-.02-.78.11-2.81,2.29-2.85,2.19-.04,2.41,2.21,2.41,2.21l.8,12.87,4.19.86c.03.7.04,1.12.04,1.12l1.14-.51s-.52-12.07-.64-12.7c-.11-.64.13-2.41,2.29-2.67,2.03-.24,2.41,2.54,2.41,2.54l.8,12.54,1.25.26-.92-15.1c-.78-.99-1.96-1.93-3.63-1.87Zm9.42,2.24c-.76.03-1.36.2-1.82.49l-.06-.72-3-.82.98,15.98,1.1.16c.05,1.44.09,2.42.09,2.42l1.14-.51s0-.69.02-1.73l.96.14-1.02-12.29c.11-.68.52-1.35,1.68-1.49,2.03-.24,2.51,3.42,2.51,3.42l.71,11.66,1.25.26-.92-14.27c-.56-1.29-1.96-2.77-3.63-2.71Zm7.42,3.18c-.28.18-.51.34-.71.48l-.12-1.31-2.06-.93.98,15.98,2.5.96-1.12-12.73c.18-.53.73-1.04,1.24-1.05,2.05-.02,2,3.3,2,3.3l.71,11.66,1.25.26-.92-13.32c.02-1.88-2.35-4.2-3.74-3.3Zm6.49,3.03l-.02-.2-1.83-1.29.98,15.51,2.26,1.31-1.27-13.92s.06.01.09.02c1.65.59,1.88,2.35,1.88,2.35l1.06,9.77.69.27-.92-10.16c.02-1.72-1.58-3.99-2.92-3.68Zm5.42,3.81l-.03-.24-1.41-1.3,1.3,12.13,1.38.58-1.1-9.92c.18.3.31.51.31.51l1.16,9.56.35.17-.92-8.8c.01-.9-.43-1.95-1.03-2.7Zm2.09,1.29l1.06,10.71,1.03.5-1.03-9.68-1.06-1.53Z" style="fill:#e0e0e0;"/><path d="m124.62,256.43s50.7-29.76,52.91-30.94c1.42-1.21,8.5-4.94,9.97-6.07l-7.83-3.39-22.45,4.72-96.83-36.81-8.02,3.31L1.93,169.89l8.88,33.67,76.43,43.85,7.47,7.31,29.9,1.71Z" style="fill:#333;"/></g><path d="m14.75,57.71L99.69,3.71c6.49,3.89,14.62,3.78,21.01-.28l90.78,54.37c.12,6.91,3.79,13.27,9.72,16.82l1.85,109.08c-6.02,3.7-9.64,10.31-9.52,17.38l-89.84,55.24c-6.4-3.85-14.41-3.8-20.78.11L13.7,202.84c.09-7.12-3.6-13.75-9.7-17.41l1.48-111.1c5.69-3.62,9.18-9.87,9.27-16.61Z" style="fill:none; stroke:#6d0104; stroke-linejoin:bevel; stroke-width:8px;"/></g></svg>